%TF.GenerationSoftware,KiCad,Pcbnew,8.0.2-1*%
%TF.CreationDate,2024-05-16T14:53:04+09:00*%
%TF.ProjectId,eeg,6565672e-6b69-4636-9164-5f7063625858,rev?*%
%TF.SameCoordinates,Original*%
%TF.FileFunction,Copper,L3,Inr*%
%TF.FilePolarity,Positive*%
%FSLAX46Y46*%
G04 Gerber Fmt 4.6, Leading zero omitted, Abs format (unit mm)*
G04 Created by KiCad (PCBNEW 8.0.2-1) date 2024-05-16 14:53:04*
%MOMM*%
%LPD*%
G01*
G04 APERTURE LIST*
%TA.AperFunction,ComponentPad*%
%ADD10R,1.000000X1.000000*%
%TD*%
%TA.AperFunction,ComponentPad*%
%ADD11O,1.000000X1.000000*%
%TD*%
%TA.AperFunction,ComponentPad*%
%ADD12O,0.900000X2.000000*%
%TD*%
%TA.AperFunction,ComponentPad*%
%ADD13O,0.900000X1.700000*%
%TD*%
%TA.AperFunction,ViaPad*%
%ADD14C,0.400000*%
%TD*%
%TA.AperFunction,ViaPad*%
%ADD15C,0.450000*%
%TD*%
G04 APERTURE END LIST*
D10*
%TO.N,/DVDD*%
%TO.C,J2*%
X160220000Y-106230000D03*
D11*
%TO.N,/SWDIO*%
X160220000Y-107500000D03*
%TO.N,/SWDCLK*%
X160220000Y-108770000D03*
%TO.N,GND*%
X160220000Y-110040000D03*
%TD*%
D10*
%TO.N,/UART_RX*%
%TO.C,J1*%
X161265000Y-90160000D03*
D11*
%TO.N,/UART_TX*%
X162535000Y-90160000D03*
%TO.N,GND*%
X163805000Y-90160000D03*
%TD*%
D10*
%TO.N,/ads1299/1P*%
%TO.C,J4*%
X135000000Y-105175000D03*
D11*
%TO.N,/ads1299/2P*%
X135000000Y-103905000D03*
%TO.N,/ads1299/3P*%
X135000000Y-102635000D03*
%TO.N,/ads1299/4P*%
X135000000Y-101365000D03*
%TO.N,/ads1299/REF*%
X135000000Y-100095000D03*
%TO.N,/ads1299/BIAS*%
X135000000Y-98825000D03*
%TD*%
D10*
%TO.N,Net-(BT1-+)*%
%TO.C,BT1*%
X135720000Y-107870000D03*
D11*
%TO.N,GND*%
X134450000Y-107870000D03*
%TD*%
D12*
%TO.N,unconnected-(J3-SHIELD-PadS1)_0*%
%TO.C,J3*%
X135350000Y-94750000D03*
%TO.N,unconnected-(J3-SHIELD-PadS1)_2*%
X144000000Y-94750000D03*
D13*
%TO.N,unconnected-(J3-SHIELD-PadS1)*%
X135350000Y-90580000D03*
%TO.N,unconnected-(J3-SHIELD-PadS1)_1*%
X144000000Y-90580000D03*
%TD*%
D14*
%TO.N,VSSA*%
X153100000Y-89400000D03*
X154600000Y-89400000D03*
X153031075Y-90834648D03*
%TO.N,/DVDD*%
X152740000Y-101520000D03*
X147379996Y-98330000D03*
X157050000Y-91670000D03*
X159100000Y-94530000D03*
X145600000Y-104440000D03*
X156100000Y-100520000D03*
X157737500Y-108262500D03*
X157737500Y-106602500D03*
X156320000Y-102250000D03*
%TO.N,/USB-C/VBUS_IN*%
X137250000Y-97440000D03*
X142075000Y-95330000D03*
X147200000Y-91920000D03*
X137275000Y-95330000D03*
%TO.N,/nrf5340/VBUS_OUT*%
X139285774Y-97345000D03*
X155220000Y-98050000D03*
%TO.N,/AVDD*%
X153030000Y-96020000D03*
X149150000Y-108280000D03*
D15*
X149620000Y-92670000D03*
D14*
X151340000Y-97540000D03*
X154420000Y-91000000D03*
X139190000Y-92610000D03*
X148120000Y-107260000D03*
%TO.N,/power/CHG*%
X145525000Y-89500000D03*
X145520000Y-94890000D03*
%TO.N,/nrf5340/SDA*%
X145500000Y-105300000D03*
X159440000Y-103250000D03*
%TO.N,/power/PVDD*%
X149610000Y-101040000D03*
X149620000Y-100020000D03*
X147100000Y-89500000D03*
X149220000Y-96500000D03*
X139800000Y-102190000D03*
X140430000Y-102190000D03*
%TO.N,GND*%
X148000000Y-97000000D03*
X160000000Y-90000000D03*
X135000000Y-97000000D03*
X156000000Y-90000000D03*
X154000000Y-100000000D03*
X160000000Y-93000000D03*
X165000000Y-90000000D03*
X149000000Y-104000000D03*
X162000000Y-110000000D03*
X165000000Y-110000000D03*
%TO.N,/nrf5340/BMI270_CS*%
X157300000Y-110100000D03*
X160740000Y-99350000D03*
%TO.N,/ads1299/SCK*%
X154405823Y-104600498D03*
X160090000Y-100000000D03*
%TO.N,/ads1299/MISO*%
X160090000Y-98060000D03*
X156147102Y-104324650D03*
%TO.N,/ads1299/~{DRDY}*%
X161390000Y-98700000D03*
%TO.N,/ads1299/MOSI*%
X158790000Y-103250000D03*
%TO.N,/ads1299/~{ADS1299_CS}*%
X160740000Y-101300000D03*
%TO.N,/ads1299/START*%
X159440000Y-102600000D03*
%TO.N,/USB-C/DP1*%
X150500000Y-91600000D03*
X158790000Y-99350000D03*
%TO.N,/USB-C/DN1*%
X158790000Y-100000000D03*
X148500000Y-91600000D03*
%TO.N,/BMI270_INT1*%
X162040000Y-98700000D03*
X157400000Y-104400000D03*
%TD*%
%TA.AperFunction,Conductor*%
%TO.N,/AVDD*%
G36*
X134625000Y-90019962D02*
G01*
X134679538Y-90074500D01*
X134699500Y-90149000D01*
X134699500Y-91044072D01*
X134724498Y-91169743D01*
X134724499Y-91169745D01*
X134773531Y-91288119D01*
X134773533Y-91288123D01*
X134773535Y-91288127D01*
X134844724Y-91394669D01*
X134935331Y-91485276D01*
X135041873Y-91556465D01*
X135160256Y-91605501D01*
X135285931Y-91630500D01*
X135285935Y-91630500D01*
X135414065Y-91630500D01*
X135414069Y-91630500D01*
X135539744Y-91605501D01*
X135658127Y-91556465D01*
X135764669Y-91485276D01*
X135855276Y-91394669D01*
X135926465Y-91288127D01*
X135975501Y-91169744D01*
X136000500Y-91044069D01*
X136000500Y-90149000D01*
X136020462Y-90074500D01*
X136075000Y-90019962D01*
X136149500Y-90000000D01*
X143200500Y-90000000D01*
X143275000Y-90019962D01*
X143329538Y-90074500D01*
X143349500Y-90149000D01*
X143349500Y-91044072D01*
X143374498Y-91169743D01*
X143374499Y-91169745D01*
X143423531Y-91288119D01*
X143423533Y-91288123D01*
X143423535Y-91288127D01*
X143494724Y-91394669D01*
X143585331Y-91485276D01*
X143691873Y-91556465D01*
X143810256Y-91605501D01*
X143935931Y-91630500D01*
X143935935Y-91630500D01*
X144064065Y-91630500D01*
X144064069Y-91630500D01*
X144189744Y-91605501D01*
X144308127Y-91556465D01*
X144414669Y-91485276D01*
X144505276Y-91394669D01*
X144576465Y-91288127D01*
X144625501Y-91169744D01*
X144650500Y-91044069D01*
X144650500Y-90834644D01*
X152525428Y-90834644D01*
X152525428Y-90834651D01*
X152545909Y-90977102D01*
X152545909Y-90977103D01*
X152545910Y-90977105D01*
X152576492Y-91044069D01*
X152601806Y-91099500D01*
X152605698Y-91108021D01*
X152699947Y-91216791D01*
X152821022Y-91294601D01*
X152959114Y-91335148D01*
X152959116Y-91335148D01*
X153103034Y-91335148D01*
X153103036Y-91335148D01*
X153241128Y-91294601D01*
X153362203Y-91216791D01*
X153456452Y-91108021D01*
X153516240Y-90977105D01*
X153536722Y-90834648D01*
X153536722Y-90834644D01*
X153516240Y-90692193D01*
X153516240Y-90692191D01*
X153456452Y-90561275D01*
X153362203Y-90452505D01*
X153362202Y-90452504D01*
X153328540Y-90430871D01*
X153241128Y-90374695D01*
X153241125Y-90374694D01*
X153103042Y-90334149D01*
X153103037Y-90334148D01*
X153103036Y-90334148D01*
X152959114Y-90334148D01*
X152959112Y-90334148D01*
X152959107Y-90334149D01*
X152821024Y-90374694D01*
X152699947Y-90452504D01*
X152699945Y-90452507D01*
X152605697Y-90561276D01*
X152545909Y-90692193D01*
X152525428Y-90834644D01*
X144650500Y-90834644D01*
X144650500Y-90149000D01*
X144670462Y-90074500D01*
X144725000Y-90019962D01*
X144799500Y-90000000D01*
X145438906Y-90000000D01*
X145445896Y-90000500D01*
X145453039Y-90000500D01*
X145604104Y-90000500D01*
X145611094Y-90000000D01*
X147013906Y-90000000D01*
X147020896Y-90000500D01*
X147028039Y-90000500D01*
X147179104Y-90000500D01*
X147186094Y-90000000D01*
X154851000Y-90000000D01*
X154925500Y-90019962D01*
X154980038Y-90074500D01*
X155000000Y-90149000D01*
X155000000Y-93351000D01*
X154980038Y-93425500D01*
X154925500Y-93480038D01*
X154851000Y-93500000D01*
X134500000Y-93500000D01*
X134500000Y-96950069D01*
X134498483Y-96971274D01*
X134494353Y-96999998D01*
X134494353Y-97000001D01*
X134498483Y-97028724D01*
X134500000Y-97049930D01*
X134500000Y-98357826D01*
X134480038Y-98432326D01*
X134473625Y-98442467D01*
X134419780Y-98520475D01*
X134419779Y-98520477D01*
X134363763Y-98668181D01*
X134344722Y-98825000D01*
X134363763Y-98981820D01*
X134419780Y-99129524D01*
X134473625Y-99207532D01*
X134499517Y-99280184D01*
X134500000Y-99292173D01*
X134500000Y-99627826D01*
X134480038Y-99702326D01*
X134473625Y-99712467D01*
X134419780Y-99790475D01*
X134419779Y-99790477D01*
X134363763Y-99938181D01*
X134344722Y-100095000D01*
X134363763Y-100251820D01*
X134419780Y-100399524D01*
X134473625Y-100477532D01*
X134499517Y-100550184D01*
X134500000Y-100562173D01*
X134500000Y-100897826D01*
X134480038Y-100972326D01*
X134473625Y-100982467D01*
X134419780Y-101060475D01*
X134419779Y-101060477D01*
X134363763Y-101208181D01*
X134344722Y-101365000D01*
X134363763Y-101521820D01*
X134419780Y-101669524D01*
X134473625Y-101747532D01*
X134499517Y-101820184D01*
X134500000Y-101832173D01*
X134500000Y-102167826D01*
X134480038Y-102242326D01*
X134473625Y-102252467D01*
X134419780Y-102330475D01*
X134419779Y-102330477D01*
X134363763Y-102478181D01*
X134344722Y-102635000D01*
X134363763Y-102791820D01*
X134419780Y-102939524D01*
X134473625Y-103017532D01*
X134499517Y-103090184D01*
X134500000Y-103102173D01*
X134500000Y-103437826D01*
X134480038Y-103512326D01*
X134473625Y-103522467D01*
X134419780Y-103600475D01*
X134419779Y-103600477D01*
X134363763Y-103748181D01*
X134344722Y-103905000D01*
X134363763Y-104061820D01*
X134419780Y-104209524D01*
X134473625Y-104287532D01*
X134499517Y-104360184D01*
X134500000Y-104372173D01*
X134500000Y-104414353D01*
X134480038Y-104488853D01*
X134433781Y-104538241D01*
X134391497Y-104566494D01*
X134391493Y-104566498D01*
X134358235Y-104616273D01*
X134358232Y-104616280D01*
X134349500Y-104660176D01*
X134349500Y-105689823D01*
X134358232Y-105733719D01*
X134358235Y-105733726D01*
X134391493Y-105783501D01*
X134391498Y-105783506D01*
X134433779Y-105811757D01*
X134484634Y-105869744D01*
X134500000Y-105935646D01*
X134500000Y-106500000D01*
X156351000Y-106500000D01*
X156425500Y-106519962D01*
X156480038Y-106574500D01*
X156500000Y-106649000D01*
X156500000Y-109851000D01*
X156480038Y-109925500D01*
X156425500Y-109980038D01*
X156351000Y-110000000D01*
X143927665Y-110000000D01*
X143853165Y-109980038D01*
X143798627Y-109925500D01*
X143778665Y-109851000D01*
X143798627Y-109776500D01*
X143822306Y-109745641D01*
X143833309Y-109734638D01*
X143905059Y-109610362D01*
X143942200Y-109471751D01*
X143942200Y-109328249D01*
X143905059Y-109189638D01*
X143833309Y-109065362D01*
X143731838Y-108963891D01*
X143607562Y-108892141D01*
X143468951Y-108855000D01*
X143325449Y-108855000D01*
X143186838Y-108892141D01*
X143186836Y-108892141D01*
X143186836Y-108892142D01*
X143062561Y-108963891D01*
X142961091Y-109065361D01*
X142889342Y-109189636D01*
X142852200Y-109328247D01*
X142852200Y-109328249D01*
X142852200Y-109471751D01*
X142889341Y-109610362D01*
X142947595Y-109711262D01*
X142961091Y-109734638D01*
X142972094Y-109745641D01*
X143010658Y-109812436D01*
X143010658Y-109889564D01*
X142972094Y-109956359D01*
X142905299Y-109994923D01*
X142866735Y-110000000D01*
X140930465Y-110000000D01*
X140855965Y-109980038D01*
X140801427Y-109925500D01*
X140781465Y-109851000D01*
X140801427Y-109776500D01*
X140825106Y-109745641D01*
X140836109Y-109734638D01*
X140907859Y-109610362D01*
X140945000Y-109471751D01*
X140945000Y-109328249D01*
X140907859Y-109189638D01*
X140836109Y-109065362D01*
X140734638Y-108963891D01*
X140610362Y-108892141D01*
X140471751Y-108855000D01*
X140328249Y-108855000D01*
X140189638Y-108892141D01*
X140189636Y-108892141D01*
X140189636Y-108892142D01*
X140065361Y-108963891D01*
X139963891Y-109065361D01*
X139892142Y-109189636D01*
X139855000Y-109328247D01*
X139855000Y-109328249D01*
X139855000Y-109471751D01*
X139892141Y-109610362D01*
X139950395Y-109711262D01*
X139963891Y-109734638D01*
X139974894Y-109745641D01*
X140013458Y-109812436D01*
X140013458Y-109889564D01*
X139974894Y-109956359D01*
X139908099Y-109994923D01*
X139869535Y-110000000D01*
X134264506Y-110000000D01*
X134190006Y-109980038D01*
X134159147Y-109956359D01*
X134042165Y-109839377D01*
X134042162Y-109839374D01*
X134001847Y-109812436D01*
X133902870Y-109746301D01*
X133902858Y-109746294D01*
X133780136Y-109695461D01*
X133748082Y-109682184D01*
X133748080Y-109682183D01*
X133748079Y-109682183D01*
X133583767Y-109649500D01*
X133416233Y-109649500D01*
X133251920Y-109682183D01*
X133206018Y-109701196D01*
X133129549Y-109711262D01*
X133058293Y-109681745D01*
X133011341Y-109620555D01*
X133000000Y-109563537D01*
X133000000Y-107869998D01*
X133644435Y-107869998D01*
X133644435Y-107870001D01*
X133664631Y-108049252D01*
X133664631Y-108049254D01*
X133664632Y-108049255D01*
X133724211Y-108219522D01*
X133820184Y-108372262D01*
X133947738Y-108499816D01*
X134100478Y-108595789D01*
X134270745Y-108655368D01*
X134360372Y-108665466D01*
X134449999Y-108675565D01*
X134450000Y-108675565D01*
X134450001Y-108675565D01*
X134520825Y-108667585D01*
X134629255Y-108655368D01*
X134799522Y-108595789D01*
X134834813Y-108573614D01*
X134908511Y-108550879D01*
X134983706Y-108568040D01*
X135019445Y-108594416D01*
X135047235Y-108622206D01*
X135150009Y-108667585D01*
X135175135Y-108670500D01*
X136264864Y-108670499D01*
X136264866Y-108670499D01*
X136277427Y-108669042D01*
X136289991Y-108667585D01*
X136392765Y-108622206D01*
X136472206Y-108542765D01*
X136517585Y-108439991D01*
X136520500Y-108414865D01*
X136520499Y-107325136D01*
X136517585Y-107300009D01*
X136472206Y-107197235D01*
X136392765Y-107117794D01*
X136392764Y-107117793D01*
X136289994Y-107072416D01*
X136289991Y-107072415D01*
X136289982Y-107072414D01*
X136264865Y-107069500D01*
X136264859Y-107069500D01*
X135175133Y-107069500D01*
X135150010Y-107072414D01*
X135150007Y-107072415D01*
X135047234Y-107117793D01*
X135019444Y-107145584D01*
X134952648Y-107184147D01*
X134875520Y-107184146D01*
X134834814Y-107166386D01*
X134799523Y-107144211D01*
X134629252Y-107084631D01*
X134629253Y-107084631D01*
X134450001Y-107064435D01*
X134449999Y-107064435D01*
X134270747Y-107084631D01*
X134100477Y-107144211D01*
X133947738Y-107240184D01*
X133820184Y-107367738D01*
X133724211Y-107520477D01*
X133664631Y-107690747D01*
X133644435Y-107869998D01*
X133000000Y-107869998D01*
X133000000Y-91919996D01*
X146694353Y-91919996D01*
X146694353Y-91920003D01*
X146714834Y-92062454D01*
X146714834Y-92062455D01*
X146714835Y-92062457D01*
X146774623Y-92193373D01*
X146868872Y-92302143D01*
X146989947Y-92379953D01*
X147128039Y-92420500D01*
X147128041Y-92420500D01*
X147271959Y-92420500D01*
X147271961Y-92420500D01*
X147410053Y-92379953D01*
X147531128Y-92302143D01*
X147625377Y-92193373D01*
X147685165Y-92062457D01*
X147705647Y-91920000D01*
X147705647Y-91919996D01*
X147685165Y-91777545D01*
X147685165Y-91777543D01*
X147625377Y-91646627D01*
X147584971Y-91599996D01*
X147994353Y-91599996D01*
X147994353Y-91600003D01*
X148014834Y-91742454D01*
X148014834Y-91742455D01*
X148014835Y-91742457D01*
X148074623Y-91873373D01*
X148168872Y-91982143D01*
X148289947Y-92059953D01*
X148428039Y-92100500D01*
X148428041Y-92100500D01*
X148571959Y-92100500D01*
X148571961Y-92100500D01*
X148710053Y-92059953D01*
X148831128Y-91982143D01*
X148925377Y-91873373D01*
X148985165Y-91742457D01*
X149004856Y-91605501D01*
X149005647Y-91600003D01*
X149005647Y-91599996D01*
X149994353Y-91599996D01*
X149994353Y-91600003D01*
X150014834Y-91742454D01*
X150014834Y-91742455D01*
X150014835Y-91742457D01*
X150074623Y-91873373D01*
X150168872Y-91982143D01*
X150289947Y-92059953D01*
X150428039Y-92100500D01*
X150428041Y-92100500D01*
X150571959Y-92100500D01*
X150571961Y-92100500D01*
X150710053Y-92059953D01*
X150831128Y-91982143D01*
X150925377Y-91873373D01*
X150985165Y-91742457D01*
X151004856Y-91605501D01*
X151005647Y-91600003D01*
X151005647Y-91599996D01*
X150985165Y-91457545D01*
X150985165Y-91457543D01*
X150925377Y-91326627D01*
X150831128Y-91217857D01*
X150831127Y-91217856D01*
X150797465Y-91196223D01*
X150710053Y-91140047D01*
X150710050Y-91140046D01*
X150571967Y-91099501D01*
X150571962Y-91099500D01*
X150571961Y-91099500D01*
X150428039Y-91099500D01*
X150428037Y-91099500D01*
X150428032Y-91099501D01*
X150289949Y-91140046D01*
X150168872Y-91217856D01*
X150168870Y-91217859D01*
X150074622Y-91326628D01*
X150014834Y-91457545D01*
X149994353Y-91599996D01*
X149005647Y-91599996D01*
X148985165Y-91457545D01*
X148985165Y-91457543D01*
X148925377Y-91326627D01*
X148831128Y-91217857D01*
X148831127Y-91217856D01*
X148797465Y-91196223D01*
X148710053Y-91140047D01*
X148710050Y-91140046D01*
X148571967Y-91099501D01*
X148571962Y-91099500D01*
X148571961Y-91099500D01*
X148428039Y-91099500D01*
X148428037Y-91099500D01*
X148428032Y-91099501D01*
X148289949Y-91140046D01*
X148168872Y-91217856D01*
X148168870Y-91217859D01*
X148074622Y-91326628D01*
X148014834Y-91457545D01*
X147994353Y-91599996D01*
X147584971Y-91599996D01*
X147531128Y-91537857D01*
X147531127Y-91537856D01*
X147497465Y-91516223D01*
X147410053Y-91460047D01*
X147401532Y-91457545D01*
X147271967Y-91419501D01*
X147271962Y-91419500D01*
X147271961Y-91419500D01*
X147128039Y-91419500D01*
X147128037Y-91419500D01*
X147128032Y-91419501D01*
X146989949Y-91460046D01*
X146868872Y-91537856D01*
X146868870Y-91537859D01*
X146774622Y-91646628D01*
X146714834Y-91777545D01*
X146694353Y-91919996D01*
X133000000Y-91919996D01*
X133000000Y-90436462D01*
X133019962Y-90361962D01*
X133074500Y-90307424D01*
X133149000Y-90287462D01*
X133206018Y-90298803D01*
X133251918Y-90317816D01*
X133416233Y-90350500D01*
X133583767Y-90350500D01*
X133748082Y-90317816D01*
X133902863Y-90253703D01*
X134042162Y-90160626D01*
X134159147Y-90043641D01*
X134225942Y-90005077D01*
X134264506Y-90000000D01*
X134550500Y-90000000D01*
X134625000Y-90019962D01*
G37*
%TD.AperFunction*%
%TD*%
%TA.AperFunction,Conductor*%
%TO.N,/DVDD*%
G36*
X159419850Y-89853829D02*
G01*
X159474750Y-89908002D01*
X159495209Y-89982368D01*
X159494353Y-89994937D01*
X159494353Y-90000003D01*
X159514834Y-90142454D01*
X159514834Y-90142455D01*
X159514835Y-90142457D01*
X159574623Y-90273373D01*
X159668872Y-90382143D01*
X159789947Y-90459953D01*
X159928039Y-90500500D01*
X159928041Y-90500500D01*
X160071959Y-90500500D01*
X160071961Y-90500500D01*
X160210053Y-90459953D01*
X160234945Y-90443955D01*
X160308406Y-90420470D01*
X160383772Y-90436862D01*
X160440844Y-90488742D01*
X160464331Y-90562207D01*
X160464500Y-90569300D01*
X160464500Y-90704866D01*
X160467414Y-90729989D01*
X160467415Y-90729992D01*
X160512793Y-90832764D01*
X160512794Y-90832765D01*
X160592235Y-90912206D01*
X160695009Y-90957585D01*
X160720135Y-90960500D01*
X161809864Y-90960499D01*
X161809866Y-90960499D01*
X161822427Y-90959042D01*
X161834991Y-90957585D01*
X161937765Y-90912206D01*
X161965555Y-90884415D01*
X162032347Y-90845853D01*
X162109475Y-90845852D01*
X162150185Y-90863613D01*
X162185478Y-90885789D01*
X162355745Y-90945368D01*
X162445372Y-90955466D01*
X162534999Y-90965565D01*
X162535000Y-90965565D01*
X162535001Y-90965565D01*
X162605825Y-90957585D01*
X162714255Y-90945368D01*
X162884522Y-90885789D01*
X163037262Y-90789816D01*
X163064641Y-90762437D01*
X163131436Y-90723873D01*
X163208564Y-90723873D01*
X163275359Y-90762437D01*
X163302738Y-90789816D01*
X163455478Y-90885789D01*
X163625745Y-90945368D01*
X163715372Y-90955466D01*
X163804999Y-90965565D01*
X163805000Y-90965565D01*
X163805001Y-90965565D01*
X163875825Y-90957585D01*
X163984255Y-90945368D01*
X164154522Y-90885789D01*
X164271727Y-90812143D01*
X164345428Y-90789410D01*
X164420623Y-90806573D01*
X164477162Y-90859033D01*
X164499896Y-90932734D01*
X164500000Y-90938306D01*
X164500000Y-109651989D01*
X164480038Y-109726489D01*
X164425500Y-109781027D01*
X164351993Y-109800986D01*
X162561537Y-109812922D01*
X162486906Y-109793457D01*
X162432006Y-109739284D01*
X162425641Y-109727038D01*
X162425376Y-109726625D01*
X162360703Y-109651989D01*
X162331128Y-109617857D01*
X162331127Y-109617856D01*
X162297465Y-109596223D01*
X162210053Y-109540047D01*
X162210050Y-109540046D01*
X162071967Y-109499501D01*
X162071962Y-109499500D01*
X162071961Y-109499500D01*
X161928039Y-109499500D01*
X161928037Y-109499500D01*
X161928032Y-109499501D01*
X161789949Y-109540046D01*
X161668872Y-109617856D01*
X161668870Y-109617859D01*
X161574621Y-109726629D01*
X161571564Y-109733324D01*
X161522455Y-109792797D01*
X161450189Y-109819748D01*
X161437024Y-109820419D01*
X161098762Y-109822674D01*
X161024131Y-109803209D01*
X160969231Y-109749036D01*
X160957131Y-109722889D01*
X160945790Y-109690479D01*
X160900158Y-109617857D01*
X160849816Y-109537738D01*
X160822437Y-109510359D01*
X160783873Y-109443564D01*
X160783873Y-109366436D01*
X160822437Y-109299641D01*
X160849815Y-109272263D01*
X160849816Y-109272262D01*
X160945789Y-109119522D01*
X161005368Y-108949255D01*
X161025565Y-108770000D01*
X161005368Y-108590745D01*
X160945789Y-108420478D01*
X160849816Y-108267738D01*
X160822437Y-108240359D01*
X160783873Y-108173564D01*
X160783873Y-108096436D01*
X160822437Y-108029641D01*
X160849815Y-108002263D01*
X160849816Y-108002262D01*
X160945789Y-107849522D01*
X161005368Y-107679255D01*
X161025565Y-107500000D01*
X161005368Y-107320745D01*
X160945789Y-107150478D01*
X160923341Y-107114752D01*
X160900607Y-107041050D01*
X160917770Y-106965856D01*
X160944145Y-106930119D01*
X160971787Y-106902477D01*
X161017091Y-106799871D01*
X161020000Y-106774795D01*
X161020000Y-106380000D01*
X160508674Y-106380000D01*
X160522851Y-106355445D01*
X160545000Y-106272787D01*
X160545000Y-106187213D01*
X160522851Y-106104555D01*
X160508674Y-106080000D01*
X161019999Y-106080000D01*
X161019999Y-105685205D01*
X161017090Y-105660125D01*
X160971787Y-105557522D01*
X160892478Y-105478213D01*
X160789871Y-105432908D01*
X160764796Y-105430000D01*
X160370000Y-105430000D01*
X160370000Y-105941325D01*
X160345445Y-105927149D01*
X160262787Y-105905000D01*
X160177213Y-105905000D01*
X160094555Y-105927149D01*
X160070000Y-105941325D01*
X160070000Y-105430000D01*
X159675205Y-105430000D01*
X159650125Y-105432909D01*
X159547522Y-105478212D01*
X159547522Y-105478213D01*
X159468213Y-105557521D01*
X159422908Y-105660128D01*
X159420000Y-105685204D01*
X159420000Y-106080000D01*
X159931326Y-106080000D01*
X159917149Y-106104555D01*
X159895000Y-106187213D01*
X159895000Y-106272787D01*
X159917149Y-106355445D01*
X159931326Y-106380000D01*
X159420001Y-106380000D01*
X159420001Y-106774794D01*
X159422909Y-106799874D01*
X159468212Y-106902477D01*
X159495855Y-106930120D01*
X159534419Y-106996915D01*
X159534419Y-107074043D01*
X159516660Y-107114748D01*
X159494211Y-107150476D01*
X159434631Y-107320747D01*
X159414435Y-107499998D01*
X159414435Y-107500001D01*
X159434631Y-107679252D01*
X159434631Y-107679254D01*
X159434632Y-107679255D01*
X159494211Y-107849522D01*
X159590184Y-108002262D01*
X159590185Y-108002263D01*
X159617563Y-108029641D01*
X159656127Y-108096436D01*
X159656127Y-108173564D01*
X159617563Y-108240359D01*
X159590184Y-108267738D01*
X159494211Y-108420477D01*
X159434631Y-108590747D01*
X159414435Y-108769998D01*
X159414435Y-108770001D01*
X159434631Y-108949252D01*
X159434631Y-108949254D01*
X159434632Y-108949255D01*
X159494211Y-109119522D01*
X159590184Y-109272262D01*
X159590185Y-109272263D01*
X159617563Y-109299641D01*
X159656127Y-109366436D01*
X159656127Y-109443564D01*
X159617563Y-109510359D01*
X159590184Y-109537738D01*
X159494209Y-109690479D01*
X159494209Y-109690480D01*
X159478762Y-109734623D01*
X159435313Y-109798348D01*
X159365822Y-109831811D01*
X159339118Y-109834405D01*
X157809991Y-109844599D01*
X157735360Y-109825134D01*
X157696391Y-109793175D01*
X157631133Y-109717862D01*
X157631127Y-109717856D01*
X157575976Y-109682413D01*
X157510053Y-109640047D01*
X157477648Y-109630532D01*
X157371967Y-109599501D01*
X157371962Y-109599500D01*
X157371961Y-109599500D01*
X157228039Y-109599500D01*
X157228037Y-109599500D01*
X157228032Y-109599501D01*
X157089949Y-109640046D01*
X157035055Y-109675324D01*
X156961589Y-109698808D01*
X156886224Y-109682413D01*
X156829153Y-109630532D01*
X156805669Y-109557066D01*
X156805500Y-109549977D01*
X156805500Y-106649000D01*
X156805499Y-106648992D01*
X156795093Y-106569944D01*
X156795089Y-106569924D01*
X156775129Y-106495432D01*
X156775123Y-106495412D01*
X156759509Y-106451106D01*
X156759508Y-106451102D01*
X156696059Y-106358479D01*
X156641521Y-106303941D01*
X156605828Y-106273361D01*
X156555198Y-106249116D01*
X156504569Y-106224871D01*
X156430075Y-106204910D01*
X156430055Y-106204906D01*
X156351007Y-106194500D01*
X156351000Y-106194500D01*
X134954500Y-106194500D01*
X134880000Y-106174538D01*
X134825462Y-106120000D01*
X134805500Y-106045500D01*
X134805500Y-105974500D01*
X134825462Y-105900000D01*
X134880000Y-105845462D01*
X134954500Y-105825500D01*
X135514816Y-105825500D01*
X135514820Y-105825500D01*
X135558722Y-105816767D01*
X135608504Y-105783504D01*
X135641767Y-105733722D01*
X135650500Y-105689820D01*
X135650500Y-105299996D01*
X144994353Y-105299996D01*
X144994353Y-105300003D01*
X145014834Y-105442454D01*
X145014834Y-105442455D01*
X145014835Y-105442457D01*
X145074623Y-105573373D01*
X145168872Y-105682143D01*
X145289947Y-105759953D01*
X145428039Y-105800500D01*
X145428041Y-105800500D01*
X145571959Y-105800500D01*
X145571961Y-105800500D01*
X145710053Y-105759953D01*
X145831128Y-105682143D01*
X145925377Y-105573373D01*
X145985165Y-105442457D01*
X146005647Y-105300000D01*
X146005647Y-105299996D01*
X145985165Y-105157545D01*
X145985165Y-105157543D01*
X145925377Y-105026627D01*
X145831128Y-104917857D01*
X145831127Y-104917856D01*
X145762681Y-104873869D01*
X145710053Y-104840047D01*
X145710050Y-104840046D01*
X145571967Y-104799501D01*
X145571962Y-104799500D01*
X145571961Y-104799500D01*
X145428039Y-104799500D01*
X145428037Y-104799500D01*
X145428032Y-104799501D01*
X145289949Y-104840046D01*
X145168872Y-104917856D01*
X145168870Y-104917859D01*
X145074622Y-105026628D01*
X145014834Y-105157545D01*
X144994353Y-105299996D01*
X135650500Y-105299996D01*
X135650500Y-104660180D01*
X135641767Y-104616278D01*
X135641764Y-104616273D01*
X135631221Y-104600494D01*
X153900176Y-104600494D01*
X153900176Y-104600501D01*
X153920657Y-104742952D01*
X153920657Y-104742953D01*
X153920658Y-104742955D01*
X153980446Y-104873871D01*
X154074695Y-104982641D01*
X154195770Y-105060451D01*
X154333862Y-105100998D01*
X154333864Y-105100998D01*
X154477782Y-105100998D01*
X154477784Y-105100998D01*
X154615876Y-105060451D01*
X154736951Y-104982641D01*
X154831200Y-104873871D01*
X154890988Y-104742955D01*
X154909201Y-104616280D01*
X154911470Y-104600501D01*
X154911470Y-104600494D01*
X154895809Y-104491575D01*
X154890988Y-104458041D01*
X154831200Y-104327125D01*
X154829052Y-104324646D01*
X155641455Y-104324646D01*
X155641455Y-104324653D01*
X155661936Y-104467104D01*
X155661936Y-104467105D01*
X155661937Y-104467107D01*
X155721725Y-104598023D01*
X155815974Y-104706793D01*
X155937049Y-104784603D01*
X156075141Y-104825150D01*
X156075143Y-104825150D01*
X156219061Y-104825150D01*
X156219063Y-104825150D01*
X156357155Y-104784603D01*
X156478230Y-104706793D01*
X156572479Y-104598023D01*
X156628134Y-104476154D01*
X156677241Y-104416681D01*
X156749506Y-104389728D01*
X156825566Y-104402518D01*
X156885041Y-104451625D01*
X156911152Y-104516846D01*
X156914834Y-104542455D01*
X156940211Y-104598021D01*
X156974623Y-104673373D01*
X157068872Y-104782143D01*
X157189947Y-104859953D01*
X157328039Y-104900500D01*
X157328041Y-104900500D01*
X157471959Y-104900500D01*
X157471961Y-104900500D01*
X157610053Y-104859953D01*
X157731128Y-104782143D01*
X157825377Y-104673373D01*
X157885165Y-104542457D01*
X157905647Y-104400000D01*
X157905647Y-104399996D01*
X157887441Y-104273371D01*
X157885165Y-104257543D01*
X157825377Y-104126627D01*
X157731128Y-104017857D01*
X157731127Y-104017856D01*
X157697465Y-103996223D01*
X157610053Y-103940047D01*
X157610050Y-103940046D01*
X157471967Y-103899501D01*
X157471962Y-103899500D01*
X157471961Y-103899500D01*
X157328039Y-103899500D01*
X157328037Y-103899500D01*
X157328032Y-103899501D01*
X157189949Y-103940046D01*
X157189947Y-103940046D01*
X157189947Y-103940047D01*
X157186116Y-103942509D01*
X157068872Y-104017856D01*
X157068870Y-104017859D01*
X156974622Y-104126628D01*
X156918967Y-104248494D01*
X156869859Y-104307969D01*
X156797594Y-104334921D01*
X156721534Y-104322131D01*
X156662059Y-104273023D01*
X156635948Y-104207801D01*
X156632267Y-104182193D01*
X156572479Y-104051277D01*
X156478230Y-103942507D01*
X156478229Y-103942506D01*
X156444567Y-103920873D01*
X156357155Y-103864697D01*
X156357152Y-103864696D01*
X156219069Y-103824151D01*
X156219064Y-103824150D01*
X156219063Y-103824150D01*
X156075141Y-103824150D01*
X156075139Y-103824150D01*
X156075134Y-103824151D01*
X155937051Y-103864696D01*
X155815974Y-103942506D01*
X155815972Y-103942509D01*
X155721724Y-104051278D01*
X155661936Y-104182195D01*
X155641455Y-104324646D01*
X154829052Y-104324646D01*
X154736951Y-104218355D01*
X154736950Y-104218354D01*
X154703288Y-104196721D01*
X154615876Y-104140545D01*
X154615873Y-104140544D01*
X154477790Y-104099999D01*
X154477785Y-104099998D01*
X154477784Y-104099998D01*
X154333862Y-104099998D01*
X154333860Y-104099998D01*
X154333855Y-104099999D01*
X154195772Y-104140544D01*
X154074695Y-104218354D01*
X154074693Y-104218357D01*
X153980445Y-104327126D01*
X153920657Y-104458043D01*
X153900176Y-104600494D01*
X135631221Y-104600494D01*
X135608506Y-104566498D01*
X135608501Y-104566493D01*
X135546521Y-104525080D01*
X135549119Y-104521190D01*
X135510669Y-104491575D01*
X135481283Y-104420264D01*
X135491489Y-104343814D01*
X135506419Y-104316442D01*
X135580219Y-104209525D01*
X135605655Y-104142457D01*
X135636237Y-104061818D01*
X135643743Y-103999996D01*
X148494353Y-103999996D01*
X148494353Y-104000003D01*
X148514834Y-104142454D01*
X148567394Y-104257545D01*
X148574623Y-104273373D01*
X148668872Y-104382143D01*
X148789947Y-104459953D01*
X148928039Y-104500500D01*
X148928041Y-104500500D01*
X149071959Y-104500500D01*
X149071961Y-104500500D01*
X149210053Y-104459953D01*
X149331128Y-104382143D01*
X149425377Y-104273373D01*
X149485165Y-104142457D01*
X149496759Y-104061818D01*
X149505647Y-104000003D01*
X149505647Y-103999996D01*
X149491197Y-103899500D01*
X149485165Y-103857543D01*
X149425377Y-103726627D01*
X149331128Y-103617857D01*
X149331127Y-103617856D01*
X149297465Y-103596223D01*
X149210053Y-103540047D01*
X149210050Y-103540046D01*
X149071967Y-103499501D01*
X149071962Y-103499500D01*
X149071961Y-103499500D01*
X148928039Y-103499500D01*
X148928037Y-103499500D01*
X148928032Y-103499501D01*
X148789949Y-103540046D01*
X148668872Y-103617856D01*
X148668870Y-103617859D01*
X148574622Y-103726628D01*
X148514834Y-103857545D01*
X148494353Y-103999996D01*
X135643743Y-103999996D01*
X135655278Y-103905000D01*
X135636237Y-103748182D01*
X135580220Y-103600477D01*
X135490483Y-103470470D01*
X135390087Y-103381528D01*
X135347560Y-103317185D01*
X135343496Y-103249996D01*
X158284353Y-103249996D01*
X158284353Y-103250003D01*
X158304834Y-103392454D01*
X158304834Y-103392455D01*
X158304835Y-103392457D01*
X158364623Y-103523373D01*
X158458872Y-103632143D01*
X158579947Y-103709953D01*
X158706135Y-103747004D01*
X158710144Y-103748182D01*
X158718039Y-103750500D01*
X158718041Y-103750500D01*
X158861959Y-103750500D01*
X158861961Y-103750500D01*
X159000053Y-103709953D01*
X159034447Y-103687848D01*
X159107910Y-103664366D01*
X159183275Y-103680760D01*
X159195537Y-103687839D01*
X159229947Y-103709953D01*
X159334774Y-103740732D01*
X159360144Y-103748182D01*
X159368039Y-103750500D01*
X159368041Y-103750500D01*
X159511959Y-103750500D01*
X159511961Y-103750500D01*
X159650053Y-103709953D01*
X159771128Y-103632143D01*
X159865377Y-103523373D01*
X159925165Y-103392457D01*
X159940907Y-103282971D01*
X159945647Y-103250003D01*
X159945647Y-103249996D01*
X159925165Y-103107545D01*
X159925165Y-103107543D01*
X159870066Y-102986895D01*
X159857277Y-102910838D01*
X159870066Y-102863105D01*
X159925165Y-102742457D01*
X159941738Y-102627187D01*
X159945647Y-102600003D01*
X159945647Y-102599996D01*
X159925165Y-102457545D01*
X159925165Y-102457543D01*
X159865377Y-102326627D01*
X159771128Y-102217857D01*
X159771127Y-102217856D01*
X159727786Y-102190003D01*
X159650053Y-102140047D01*
X159650050Y-102140046D01*
X159511967Y-102099501D01*
X159511962Y-102099500D01*
X159511961Y-102099500D01*
X159368039Y-102099500D01*
X159368037Y-102099500D01*
X159368032Y-102099501D01*
X159229949Y-102140046D01*
X159108872Y-102217856D01*
X159108870Y-102217859D01*
X159014622Y-102326628D01*
X158954834Y-102457545D01*
X158934353Y-102599996D01*
X158934353Y-102600500D01*
X158934196Y-102601082D01*
X158932836Y-102610548D01*
X158931704Y-102610385D01*
X158914391Y-102675000D01*
X158859853Y-102729538D01*
X158785353Y-102749500D01*
X158718039Y-102749500D01*
X158718037Y-102749500D01*
X158718032Y-102749501D01*
X158579949Y-102790046D01*
X158579947Y-102790046D01*
X158579947Y-102790047D01*
X158553071Y-102807318D01*
X158458872Y-102867856D01*
X158458870Y-102867859D01*
X158364622Y-102976628D01*
X158304834Y-103107545D01*
X158284353Y-103249996D01*
X135343496Y-103249996D01*
X135342903Y-103240197D01*
X135377363Y-103171196D01*
X135390088Y-103158471D01*
X135447572Y-103107545D01*
X135490483Y-103069530D01*
X135580220Y-102939523D01*
X135636237Y-102791818D01*
X135655278Y-102635000D01*
X135636237Y-102478182D01*
X135628410Y-102457545D01*
X135580220Y-102330477D01*
X135577563Y-102326627D01*
X135490483Y-102200470D01*
X135478660Y-102189996D01*
X139294353Y-102189996D01*
X139294353Y-102190003D01*
X139314834Y-102332454D01*
X139314834Y-102332455D01*
X139314835Y-102332457D01*
X139374623Y-102463373D01*
X139468872Y-102572143D01*
X139589947Y-102649953D01*
X139728039Y-102690500D01*
X139728041Y-102690500D01*
X139871959Y-102690500D01*
X139871961Y-102690500D01*
X140010053Y-102649953D01*
X140034444Y-102634277D01*
X140107909Y-102610793D01*
X140183275Y-102627187D01*
X140195551Y-102634274D01*
X140219947Y-102649953D01*
X140358039Y-102690500D01*
X140358041Y-102690500D01*
X140501959Y-102690500D01*
X140501961Y-102690500D01*
X140640053Y-102649953D01*
X140761128Y-102572143D01*
X140855377Y-102463373D01*
X140915165Y-102332457D01*
X140935647Y-102190000D01*
X140935647Y-102189996D01*
X140915165Y-102047545D01*
X140915165Y-102047543D01*
X140855377Y-101916627D01*
X140761128Y-101807857D01*
X140761127Y-101807856D01*
X140700987Y-101769207D01*
X140640053Y-101730047D01*
X140640050Y-101730046D01*
X140501967Y-101689501D01*
X140501962Y-101689500D01*
X140501961Y-101689500D01*
X140358039Y-101689500D01*
X140358037Y-101689500D01*
X140358032Y-101689501D01*
X140219949Y-101730046D01*
X140195555Y-101745723D01*
X140122089Y-101769207D01*
X140046724Y-101752812D01*
X140034445Y-101745723D01*
X140010053Y-101730047D01*
X140010050Y-101730046D01*
X139871967Y-101689501D01*
X139871962Y-101689500D01*
X139871961Y-101689500D01*
X139728039Y-101689500D01*
X139728037Y-101689500D01*
X139728032Y-101689501D01*
X139589949Y-101730046D01*
X139468872Y-101807856D01*
X139468870Y-101807859D01*
X139374622Y-101916628D01*
X139314834Y-102047545D01*
X139294353Y-102189996D01*
X135478660Y-102189996D01*
X135390087Y-102111528D01*
X135347560Y-102047185D01*
X135342903Y-101970197D01*
X135377363Y-101901196D01*
X135390088Y-101888471D01*
X135481081Y-101807859D01*
X135490483Y-101799530D01*
X135580220Y-101669523D01*
X135636237Y-101521818D01*
X135655278Y-101365000D01*
X135636237Y-101208182D01*
X135580220Y-101060477D01*
X135566083Y-101039996D01*
X149104353Y-101039996D01*
X149104353Y-101040003D01*
X149124834Y-101182454D01*
X149124834Y-101182455D01*
X149124835Y-101182457D01*
X149184623Y-101313373D01*
X149278872Y-101422143D01*
X149399947Y-101499953D01*
X149538039Y-101540500D01*
X149538041Y-101540500D01*
X149681959Y-101540500D01*
X149681961Y-101540500D01*
X149820053Y-101499953D01*
X149941128Y-101422143D01*
X150035377Y-101313373D01*
X150041486Y-101299996D01*
X160234353Y-101299996D01*
X160234353Y-101300003D01*
X160254834Y-101442454D01*
X160254834Y-101442455D01*
X160254835Y-101442457D01*
X160314623Y-101573373D01*
X160408872Y-101682143D01*
X160529947Y-101759953D01*
X160668039Y-101800500D01*
X160668041Y-101800500D01*
X160811959Y-101800500D01*
X160811961Y-101800500D01*
X160950053Y-101759953D01*
X161071128Y-101682143D01*
X161165377Y-101573373D01*
X161225165Y-101442457D01*
X161236302Y-101365000D01*
X161245647Y-101300003D01*
X161245647Y-101299996D01*
X161228747Y-101182457D01*
X161225165Y-101157543D01*
X161165377Y-101026627D01*
X161071128Y-100917857D01*
X161071127Y-100917856D01*
X161037465Y-100896223D01*
X160950053Y-100840047D01*
X160950050Y-100840046D01*
X160811967Y-100799501D01*
X160811962Y-100799500D01*
X160811961Y-100799500D01*
X160668039Y-100799500D01*
X160668037Y-100799500D01*
X160668032Y-100799501D01*
X160529949Y-100840046D01*
X160408872Y-100917856D01*
X160408870Y-100917859D01*
X160314622Y-101026628D01*
X160254834Y-101157545D01*
X160234353Y-101299996D01*
X150041486Y-101299996D01*
X150095165Y-101182457D01*
X150115647Y-101040000D01*
X150115647Y-101039996D01*
X150098086Y-100917857D01*
X150095165Y-100897543D01*
X150035377Y-100766627D01*
X149941128Y-100657857D01*
X149941122Y-100657853D01*
X149933076Y-100650881D01*
X149934132Y-100649662D01*
X149890340Y-100601489D01*
X149873945Y-100526124D01*
X149897429Y-100452658D01*
X149942220Y-100407867D01*
X149951128Y-100402143D01*
X150045377Y-100293373D01*
X150105165Y-100162457D01*
X150115406Y-100091228D01*
X150125647Y-100020003D01*
X150125647Y-100019996D01*
X150122771Y-99999996D01*
X153494353Y-99999996D01*
X153494353Y-100000003D01*
X153514834Y-100142454D01*
X153514834Y-100142455D01*
X153514835Y-100142457D01*
X153574623Y-100273373D01*
X153668872Y-100382143D01*
X153789947Y-100459953D01*
X153928039Y-100500500D01*
X153928041Y-100500500D01*
X154071959Y-100500500D01*
X154071961Y-100500500D01*
X154210053Y-100459953D01*
X154331128Y-100382143D01*
X154425377Y-100273373D01*
X154485165Y-100142457D01*
X154502771Y-100020003D01*
X154505647Y-100000003D01*
X154505647Y-99999996D01*
X154488041Y-99877545D01*
X154485165Y-99857543D01*
X154425377Y-99726627D01*
X154331128Y-99617857D01*
X154331127Y-99617856D01*
X154297465Y-99596223D01*
X154210053Y-99540047D01*
X154210050Y-99540046D01*
X154071967Y-99499501D01*
X154071962Y-99499500D01*
X154071961Y-99499500D01*
X153928039Y-99499500D01*
X153928037Y-99499500D01*
X153928032Y-99499501D01*
X153789949Y-99540046D01*
X153668872Y-99617856D01*
X153668870Y-99617859D01*
X153574622Y-99726628D01*
X153514834Y-99857545D01*
X153494353Y-99999996D01*
X150122771Y-99999996D01*
X150105165Y-99877545D01*
X150105165Y-99877543D01*
X150045377Y-99746627D01*
X149951128Y-99637857D01*
X149951127Y-99637856D01*
X149912608Y-99613102D01*
X149830053Y-99560047D01*
X149830050Y-99560046D01*
X149691967Y-99519501D01*
X149691962Y-99519500D01*
X149691961Y-99519500D01*
X149548039Y-99519500D01*
X149548037Y-99519500D01*
X149548032Y-99519501D01*
X149409949Y-99560046D01*
X149288872Y-99637856D01*
X149288870Y-99637859D01*
X149194622Y-99746628D01*
X149134834Y-99877545D01*
X149114353Y-100019996D01*
X149114353Y-100020003D01*
X149134834Y-100162454D01*
X149134834Y-100162455D01*
X149134835Y-100162457D01*
X149194623Y-100293373D01*
X149288872Y-100402143D01*
X149288877Y-100402146D01*
X149296924Y-100409119D01*
X149295867Y-100410338D01*
X149339657Y-100458506D01*
X149356054Y-100533871D01*
X149332573Y-100607337D01*
X149287783Y-100652130D01*
X149278874Y-100657855D01*
X149278870Y-100657859D01*
X149184622Y-100766628D01*
X149124834Y-100897545D01*
X149104353Y-101039996D01*
X135566083Y-101039996D01*
X135490483Y-100930470D01*
X135390087Y-100841528D01*
X135347560Y-100777185D01*
X135342903Y-100700197D01*
X135377363Y-100631196D01*
X135390088Y-100618471D01*
X135433460Y-100580047D01*
X135490483Y-100529530D01*
X135580220Y-100399523D01*
X135636237Y-100251818D01*
X135655278Y-100095000D01*
X135636237Y-99938182D01*
X135613240Y-99877545D01*
X135580220Y-99790477D01*
X135549953Y-99746628D01*
X135490483Y-99660470D01*
X135390087Y-99571528D01*
X135347560Y-99507185D01*
X135342903Y-99430197D01*
X135377363Y-99361196D01*
X135388563Y-99349996D01*
X158284353Y-99349996D01*
X158284353Y-99350003D01*
X158304834Y-99492456D01*
X158359932Y-99613103D01*
X158372722Y-99689163D01*
X158359932Y-99736897D01*
X158304834Y-99857543D01*
X158284353Y-99999996D01*
X158284353Y-100000003D01*
X158304834Y-100142454D01*
X158304834Y-100142455D01*
X158304835Y-100142457D01*
X158364623Y-100273373D01*
X158458872Y-100382143D01*
X158579947Y-100459953D01*
X158718039Y-100500500D01*
X158718041Y-100500500D01*
X158861959Y-100500500D01*
X158861961Y-100500500D01*
X159000053Y-100459953D01*
X159121128Y-100382143D01*
X159215377Y-100273373D01*
X159275165Y-100142457D01*
X159292517Y-100021773D01*
X159299694Y-100005012D01*
X159297008Y-99994986D01*
X159580305Y-99994986D01*
X159587483Y-100021773D01*
X159604834Y-100142454D01*
X159604834Y-100142455D01*
X159604835Y-100142457D01*
X159664623Y-100273373D01*
X159758872Y-100382143D01*
X159879947Y-100459953D01*
X160018039Y-100500500D01*
X160018041Y-100500500D01*
X160161959Y-100500500D01*
X160161961Y-100500500D01*
X160300053Y-100459953D01*
X160421128Y-100382143D01*
X160515377Y-100273373D01*
X160575165Y-100142457D01*
X160592771Y-100020003D01*
X160595647Y-100000003D01*
X160595647Y-99999500D01*
X160595803Y-99998917D01*
X160597164Y-99989452D01*
X160598295Y-99989614D01*
X160615609Y-99925000D01*
X160670147Y-99870462D01*
X160744647Y-99850500D01*
X160811959Y-99850500D01*
X160811961Y-99850500D01*
X160950053Y-99809953D01*
X161071128Y-99732143D01*
X161165377Y-99623373D01*
X161225165Y-99492457D01*
X161235406Y-99421228D01*
X161245647Y-99350003D01*
X161245647Y-99349500D01*
X161245803Y-99348917D01*
X161247164Y-99339452D01*
X161248295Y-99339614D01*
X161265609Y-99275000D01*
X161320147Y-99220462D01*
X161394647Y-99200500D01*
X161461959Y-99200500D01*
X161461961Y-99200500D01*
X161600053Y-99159953D01*
X161634447Y-99137848D01*
X161707910Y-99114366D01*
X161783275Y-99130760D01*
X161795537Y-99137839D01*
X161829947Y-99159953D01*
X161968039Y-99200500D01*
X161968041Y-99200500D01*
X162111959Y-99200500D01*
X162111961Y-99200500D01*
X162250053Y-99159953D01*
X162371128Y-99082143D01*
X162465377Y-98973373D01*
X162525165Y-98842457D01*
X162535406Y-98771228D01*
X162545647Y-98700003D01*
X162545647Y-98699996D01*
X162525165Y-98557545D01*
X162525165Y-98557543D01*
X162465377Y-98426627D01*
X162371128Y-98317857D01*
X162371127Y-98317856D01*
X162321117Y-98285717D01*
X162250053Y-98240047D01*
X162250050Y-98240046D01*
X162111967Y-98199501D01*
X162111962Y-98199500D01*
X162111961Y-98199500D01*
X161968039Y-98199500D01*
X161968037Y-98199500D01*
X161968032Y-98199501D01*
X161829948Y-98240046D01*
X161829945Y-98240047D01*
X161795554Y-98262149D01*
X161722088Y-98285632D01*
X161646722Y-98269237D01*
X161634446Y-98262149D01*
X161600054Y-98240047D01*
X161600051Y-98240046D01*
X161461967Y-98199501D01*
X161461962Y-98199500D01*
X161461961Y-98199500D01*
X161318039Y-98199500D01*
X161318037Y-98199500D01*
X161318032Y-98199501D01*
X161179949Y-98240046D01*
X161058872Y-98317856D01*
X161058870Y-98317859D01*
X160964622Y-98426628D01*
X160904834Y-98557545D01*
X160884353Y-98699996D01*
X160884353Y-98700500D01*
X160884196Y-98701082D01*
X160882836Y-98710548D01*
X160881704Y-98710385D01*
X160864391Y-98775000D01*
X160809853Y-98829538D01*
X160735353Y-98849500D01*
X160668039Y-98849500D01*
X160668037Y-98849500D01*
X160668032Y-98849501D01*
X160529949Y-98890046D01*
X160408872Y-98967856D01*
X160408870Y-98967859D01*
X160314622Y-99076628D01*
X160254834Y-99207545D01*
X160234353Y-99349996D01*
X160234353Y-99350500D01*
X160234196Y-99351082D01*
X160232836Y-99360548D01*
X160231704Y-99360385D01*
X160214391Y-99425000D01*
X160159853Y-99479538D01*
X160085353Y-99499500D01*
X160018039Y-99499500D01*
X160018037Y-99499500D01*
X160018032Y-99499501D01*
X159879949Y-99540046D01*
X159758872Y-99617856D01*
X159758870Y-99617859D01*
X159664622Y-99726628D01*
X159604834Y-99857545D01*
X159587483Y-99978226D01*
X159580305Y-99994986D01*
X159297008Y-99994986D01*
X159292517Y-99978226D01*
X159278041Y-99877545D01*
X159275165Y-99857543D01*
X159220066Y-99736895D01*
X159207277Y-99660838D01*
X159220067Y-99613103D01*
X159275165Y-99492457D01*
X159285406Y-99421228D01*
X159295647Y-99350003D01*
X159295647Y-99349996D01*
X159275165Y-99207545D01*
X159275165Y-99207543D01*
X159215377Y-99076627D01*
X159121128Y-98967857D01*
X159121127Y-98967856D01*
X159087465Y-98946223D01*
X159000053Y-98890047D01*
X159000050Y-98890046D01*
X158861967Y-98849501D01*
X158861962Y-98849500D01*
X158861961Y-98849500D01*
X158718039Y-98849500D01*
X158718037Y-98849500D01*
X158718032Y-98849501D01*
X158579949Y-98890046D01*
X158458872Y-98967856D01*
X158458870Y-98967859D01*
X158364622Y-99076628D01*
X158304834Y-99207545D01*
X158284353Y-99349996D01*
X135388563Y-99349996D01*
X135390088Y-99348471D01*
X135400086Y-99339614D01*
X135490483Y-99259530D01*
X135580220Y-99129523D01*
X135636237Y-98981818D01*
X135655278Y-98825000D01*
X135636237Y-98668182D01*
X135580220Y-98520477D01*
X135490483Y-98390470D01*
X135372240Y-98285717D01*
X135372239Y-98285716D01*
X135232363Y-98212303D01*
X135151829Y-98192454D01*
X135078985Y-98174500D01*
X134954500Y-98174500D01*
X134880000Y-98154538D01*
X134825462Y-98100000D01*
X134812064Y-98049996D01*
X154714353Y-98049996D01*
X154714353Y-98050003D01*
X154734834Y-98192454D01*
X154734834Y-98192455D01*
X154734835Y-98192457D01*
X154794623Y-98323373D01*
X154888872Y-98432143D01*
X155009947Y-98509953D01*
X155148039Y-98550500D01*
X155148041Y-98550500D01*
X155291959Y-98550500D01*
X155291961Y-98550500D01*
X155430053Y-98509953D01*
X155551128Y-98432143D01*
X155645377Y-98323373D01*
X155705165Y-98192457D01*
X155724209Y-98060003D01*
X155724210Y-98059996D01*
X159584353Y-98059996D01*
X159584353Y-98060003D01*
X159604834Y-98202454D01*
X159604834Y-98202455D01*
X159604835Y-98202457D01*
X159664623Y-98333373D01*
X159758872Y-98442143D01*
X159879947Y-98519953D01*
X160018039Y-98560500D01*
X160018041Y-98560500D01*
X160161959Y-98560500D01*
X160161961Y-98560500D01*
X160300053Y-98519953D01*
X160421128Y-98442143D01*
X160515377Y-98333373D01*
X160575165Y-98202457D01*
X160595647Y-98060000D01*
X160595647Y-98059996D01*
X160575165Y-97917545D01*
X160575165Y-97917543D01*
X160515377Y-97786627D01*
X160421128Y-97677857D01*
X160421127Y-97677856D01*
X160387465Y-97656223D01*
X160300053Y-97600047D01*
X160300050Y-97600046D01*
X160161967Y-97559501D01*
X160161962Y-97559500D01*
X160161961Y-97559500D01*
X160018039Y-97559500D01*
X160018037Y-97559500D01*
X160018032Y-97559501D01*
X159879949Y-97600046D01*
X159758872Y-97677856D01*
X159758870Y-97677859D01*
X159664622Y-97786628D01*
X159604834Y-97917545D01*
X159584353Y-98059996D01*
X155724210Y-98059996D01*
X155725647Y-98050003D01*
X155725647Y-98049996D01*
X155705165Y-97907545D01*
X155705165Y-97907543D01*
X155645377Y-97776627D01*
X155551128Y-97667857D01*
X155551127Y-97667856D01*
X155474129Y-97618373D01*
X155430053Y-97590047D01*
X155404204Y-97582457D01*
X155291967Y-97549501D01*
X155291962Y-97549500D01*
X155291961Y-97549500D01*
X155148039Y-97549500D01*
X155148037Y-97549500D01*
X155148032Y-97549501D01*
X155009949Y-97590046D01*
X154888872Y-97667856D01*
X154888870Y-97667859D01*
X154794622Y-97776628D01*
X154734834Y-97907545D01*
X154714353Y-98049996D01*
X134812064Y-98049996D01*
X134805500Y-98025500D01*
X134805500Y-97649500D01*
X134825462Y-97575000D01*
X134880000Y-97520462D01*
X134954500Y-97500500D01*
X135071959Y-97500500D01*
X135071961Y-97500500D01*
X135210053Y-97459953D01*
X135241107Y-97439996D01*
X136744353Y-97439996D01*
X136744353Y-97440003D01*
X136764834Y-97582454D01*
X136764834Y-97582455D01*
X136764835Y-97582457D01*
X136824623Y-97713373D01*
X136918872Y-97822143D01*
X137039947Y-97899953D01*
X137178039Y-97940500D01*
X137178041Y-97940500D01*
X137321959Y-97940500D01*
X137321961Y-97940500D01*
X137460053Y-97899953D01*
X137581128Y-97822143D01*
X137675377Y-97713373D01*
X137735165Y-97582457D01*
X137752122Y-97464519D01*
X137755647Y-97440003D01*
X137755647Y-97439996D01*
X137741988Y-97344996D01*
X138780127Y-97344996D01*
X138780127Y-97345003D01*
X138800608Y-97487454D01*
X138800608Y-97487455D01*
X138800609Y-97487457D01*
X138860397Y-97618373D01*
X138954646Y-97727143D01*
X139075721Y-97804953D01*
X139213813Y-97845500D01*
X139213815Y-97845500D01*
X139357733Y-97845500D01*
X139357735Y-97845500D01*
X139495827Y-97804953D01*
X139616902Y-97727143D01*
X139711151Y-97618373D01*
X139746945Y-97539996D01*
X150834353Y-97539996D01*
X150834353Y-97540003D01*
X150854834Y-97682454D01*
X150854834Y-97682455D01*
X150854835Y-97682457D01*
X150914623Y-97813373D01*
X151008872Y-97922143D01*
X151129947Y-97999953D01*
X151268039Y-98040500D01*
X151268041Y-98040500D01*
X151411959Y-98040500D01*
X151411961Y-98040500D01*
X151550053Y-97999953D01*
X151671128Y-97922143D01*
X151765377Y-97813373D01*
X151825165Y-97682457D01*
X151837014Y-97600046D01*
X151845647Y-97540003D01*
X151845647Y-97539996D01*
X151825165Y-97397545D01*
X151825165Y-97397543D01*
X151765377Y-97266627D01*
X151671128Y-97157857D01*
X151671127Y-97157856D01*
X151637465Y-97136223D01*
X151550053Y-97080047D01*
X151550050Y-97080046D01*
X151411967Y-97039501D01*
X151411962Y-97039500D01*
X151411961Y-97039500D01*
X151268039Y-97039500D01*
X151268037Y-97039500D01*
X151268032Y-97039501D01*
X151129949Y-97080046D01*
X151008872Y-97157856D01*
X151008870Y-97157859D01*
X150914622Y-97266628D01*
X150854834Y-97397545D01*
X150834353Y-97539996D01*
X139746945Y-97539996D01*
X139770939Y-97487457D01*
X139791421Y-97345000D01*
X139791421Y-97344996D01*
X139770939Y-97202545D01*
X139770939Y-97202543D01*
X139711151Y-97071627D01*
X139649083Y-96999996D01*
X147494353Y-96999996D01*
X147494353Y-97000003D01*
X147514834Y-97142454D01*
X147514834Y-97142455D01*
X147514835Y-97142457D01*
X147574623Y-97273373D01*
X147668872Y-97382143D01*
X147789947Y-97459953D01*
X147928039Y-97500500D01*
X147928041Y-97500500D01*
X148071959Y-97500500D01*
X148071961Y-97500500D01*
X148210053Y-97459953D01*
X148331128Y-97382143D01*
X148425377Y-97273373D01*
X148485165Y-97142457D01*
X148499968Y-97039500D01*
X148505647Y-97000003D01*
X148505647Y-96999996D01*
X148485165Y-96857545D01*
X148485165Y-96857543D01*
X148425377Y-96726627D01*
X148331128Y-96617857D01*
X148331127Y-96617856D01*
X148297465Y-96596223D01*
X148210053Y-96540047D01*
X148210050Y-96540046D01*
X148073653Y-96499996D01*
X148714353Y-96499996D01*
X148714353Y-96500003D01*
X148734834Y-96642454D01*
X148734834Y-96642455D01*
X148734835Y-96642457D01*
X148794623Y-96773373D01*
X148888872Y-96882143D01*
X149009947Y-96959953D01*
X149136135Y-96997004D01*
X149146322Y-96999996D01*
X149148039Y-97000500D01*
X149148041Y-97000500D01*
X149291959Y-97000500D01*
X149291961Y-97000500D01*
X149430053Y-96959953D01*
X149551128Y-96882143D01*
X149645377Y-96773373D01*
X149705165Y-96642457D01*
X149719889Y-96540047D01*
X149725647Y-96500003D01*
X149725647Y-96499996D01*
X149705165Y-96357545D01*
X149705165Y-96357543D01*
X149645377Y-96226627D01*
X149551128Y-96117857D01*
X149551127Y-96117856D01*
X149517465Y-96096223D01*
X149430053Y-96040047D01*
X149430050Y-96040046D01*
X149361766Y-96019996D01*
X152524353Y-96019996D01*
X152524353Y-96020003D01*
X152544834Y-96162454D01*
X152544834Y-96162455D01*
X152544835Y-96162457D01*
X152604623Y-96293373D01*
X152698872Y-96402143D01*
X152819947Y-96479953D01*
X152958039Y-96520500D01*
X152958041Y-96520500D01*
X153101959Y-96520500D01*
X153101961Y-96520500D01*
X153240053Y-96479953D01*
X153361128Y-96402143D01*
X153455377Y-96293373D01*
X153515165Y-96162457D01*
X153535647Y-96020000D01*
X153535647Y-96019996D01*
X153515165Y-95877545D01*
X153515165Y-95877543D01*
X153455377Y-95746627D01*
X153361128Y-95637857D01*
X153361127Y-95637856D01*
X153314867Y-95608127D01*
X153240053Y-95560047D01*
X153240050Y-95560046D01*
X153101967Y-95519501D01*
X153101962Y-95519500D01*
X153101961Y-95519500D01*
X152958039Y-95519500D01*
X152958037Y-95519500D01*
X152958032Y-95519501D01*
X152819949Y-95560046D01*
X152698872Y-95637856D01*
X152698870Y-95637859D01*
X152604622Y-95746628D01*
X152544834Y-95877545D01*
X152524353Y-96019996D01*
X149361766Y-96019996D01*
X149291967Y-95999501D01*
X149291962Y-95999500D01*
X149291961Y-95999500D01*
X149148039Y-95999500D01*
X149148037Y-95999500D01*
X149148032Y-95999501D01*
X149009949Y-96040046D01*
X148888872Y-96117856D01*
X148888870Y-96117859D01*
X148794622Y-96226628D01*
X148734834Y-96357545D01*
X148714353Y-96499996D01*
X148073653Y-96499996D01*
X148071967Y-96499501D01*
X148071962Y-96499500D01*
X148071961Y-96499500D01*
X147928039Y-96499500D01*
X147928037Y-96499500D01*
X147928032Y-96499501D01*
X147789949Y-96540046D01*
X147668872Y-96617856D01*
X147668870Y-96617859D01*
X147574622Y-96726628D01*
X147514834Y-96857545D01*
X147494353Y-96999996D01*
X139649083Y-96999996D01*
X139616902Y-96962857D01*
X139616901Y-96962856D01*
X139580558Y-96939500D01*
X139495827Y-96885047D01*
X139485927Y-96882140D01*
X139357741Y-96844501D01*
X139357736Y-96844500D01*
X139357735Y-96844500D01*
X139213813Y-96844500D01*
X139213811Y-96844500D01*
X139213806Y-96844501D01*
X139075723Y-96885046D01*
X138954646Y-96962856D01*
X138954644Y-96962859D01*
X138860396Y-97071628D01*
X138800608Y-97202545D01*
X138780127Y-97344996D01*
X137741988Y-97344996D01*
X137735165Y-97297545D01*
X137735165Y-97297543D01*
X137675377Y-97166627D01*
X137581128Y-97057857D01*
X137581127Y-97057856D01*
X137547465Y-97036223D01*
X137460053Y-96980047D01*
X137460050Y-96980046D01*
X137321967Y-96939501D01*
X137321962Y-96939500D01*
X137321961Y-96939500D01*
X137178039Y-96939500D01*
X137178037Y-96939500D01*
X137178032Y-96939501D01*
X137039949Y-96980046D01*
X136918872Y-97057856D01*
X136918870Y-97057859D01*
X136824622Y-97166628D01*
X136764834Y-97297545D01*
X136744353Y-97439996D01*
X135241107Y-97439996D01*
X135331128Y-97382143D01*
X135425377Y-97273373D01*
X135485165Y-97142457D01*
X135499968Y-97039500D01*
X135505647Y-97000003D01*
X135505647Y-96999996D01*
X135485165Y-96857545D01*
X135485165Y-96857543D01*
X135425377Y-96726627D01*
X135331128Y-96617857D01*
X135331127Y-96617856D01*
X135297465Y-96596223D01*
X135210053Y-96540047D01*
X135210050Y-96540046D01*
X135071967Y-96499501D01*
X135071962Y-96499500D01*
X135071961Y-96499500D01*
X134954500Y-96499500D01*
X134880000Y-96479538D01*
X134825462Y-96425000D01*
X134805500Y-96350500D01*
X134805500Y-95997285D01*
X134825462Y-95922785D01*
X134880000Y-95868247D01*
X134954500Y-95848285D01*
X135029000Y-95868247D01*
X135037284Y-95873399D01*
X135041873Y-95876465D01*
X135041879Y-95876467D01*
X135041880Y-95876468D01*
X135044480Y-95877545D01*
X135160256Y-95925501D01*
X135285931Y-95950500D01*
X135285935Y-95950500D01*
X135414065Y-95950500D01*
X135414069Y-95950500D01*
X135539744Y-95925501D01*
X135658127Y-95876465D01*
X135764669Y-95805276D01*
X135855276Y-95714669D01*
X135926465Y-95608127D01*
X135975501Y-95489744D01*
X136000500Y-95364069D01*
X136000500Y-94397758D01*
X136020462Y-94323258D01*
X136075000Y-94268720D01*
X136149500Y-94248758D01*
X136224000Y-94268720D01*
X136278538Y-94323258D01*
X136293423Y-94359194D01*
X136318608Y-94453186D01*
X136384497Y-94567310D01*
X136384498Y-94567311D01*
X136384500Y-94567314D01*
X136477686Y-94660500D01*
X136591814Y-94726392D01*
X136719108Y-94760500D01*
X136779954Y-94760500D01*
X136854454Y-94780462D01*
X136908992Y-94835000D01*
X136928954Y-94909500D01*
X136908992Y-94984000D01*
X136892561Y-95007073D01*
X136849623Y-95056625D01*
X136789834Y-95187545D01*
X136769353Y-95329996D01*
X136769353Y-95330003D01*
X136789834Y-95472454D01*
X136789834Y-95472455D01*
X136789835Y-95472457D01*
X136849623Y-95603373D01*
X136943872Y-95712143D01*
X137064947Y-95789953D01*
X137203039Y-95830500D01*
X137203041Y-95830500D01*
X137346959Y-95830500D01*
X137346961Y-95830500D01*
X137485053Y-95789953D01*
X137606128Y-95712143D01*
X137700377Y-95603373D01*
X137760165Y-95472457D01*
X137775749Y-95364069D01*
X137780647Y-95330003D01*
X137780647Y-95329996D01*
X137760165Y-95187545D01*
X137760165Y-95187543D01*
X137700377Y-95056627D01*
X137606128Y-94947857D01*
X137606127Y-94947856D01*
X137546443Y-94909500D01*
X137485053Y-94870047D01*
X137485050Y-94870046D01*
X137346967Y-94829501D01*
X137346962Y-94829500D01*
X137346961Y-94829500D01*
X137283031Y-94829500D01*
X137208531Y-94809538D01*
X137153993Y-94755000D01*
X137134031Y-94680500D01*
X137153993Y-94606000D01*
X137177668Y-94575145D01*
X137185500Y-94567314D01*
X137251392Y-94453186D01*
X137285500Y-94325892D01*
X137285500Y-94194108D01*
X137251392Y-94066814D01*
X137229559Y-94028999D01*
X137209598Y-93954500D01*
X137229560Y-93880000D01*
X137284098Y-93825462D01*
X137358598Y-93805500D01*
X141991402Y-93805500D01*
X142065902Y-93825462D01*
X142120440Y-93880000D01*
X142140402Y-93954500D01*
X142120440Y-94029000D01*
X142098609Y-94066812D01*
X142064500Y-94194106D01*
X142064500Y-94194108D01*
X142064500Y-94325892D01*
X142098608Y-94453186D01*
X142098609Y-94453187D01*
X142164497Y-94567310D01*
X142164498Y-94567311D01*
X142164500Y-94567314D01*
X142172329Y-94575143D01*
X142210892Y-94641936D01*
X142210892Y-94719064D01*
X142172328Y-94785859D01*
X142105533Y-94824423D01*
X142066969Y-94829500D01*
X142003039Y-94829500D01*
X142003037Y-94829500D01*
X142003032Y-94829501D01*
X141864949Y-94870046D01*
X141743872Y-94947856D01*
X141743870Y-94947859D01*
X141649622Y-95056628D01*
X141589834Y-95187545D01*
X141569353Y-95329996D01*
X141569353Y-95330003D01*
X141589834Y-95472454D01*
X141589834Y-95472455D01*
X141589835Y-95472457D01*
X141649623Y-95603373D01*
X141743872Y-95712143D01*
X141864947Y-95789953D01*
X142003039Y-95830500D01*
X142003041Y-95830500D01*
X142146959Y-95830500D01*
X142146961Y-95830500D01*
X142285053Y-95789953D01*
X142406128Y-95712143D01*
X142500377Y-95603373D01*
X142560165Y-95472457D01*
X142575749Y-95364069D01*
X142580647Y-95330003D01*
X142580647Y-95329996D01*
X142560165Y-95187545D01*
X142560165Y-95187543D01*
X142500377Y-95056627D01*
X142500376Y-95056626D01*
X142500376Y-95056625D01*
X142457439Y-95007073D01*
X142423738Y-94937697D01*
X142429241Y-94860766D01*
X142472473Y-94796893D01*
X142541849Y-94763192D01*
X142570046Y-94760500D01*
X142630892Y-94760500D01*
X142758186Y-94726392D01*
X142872314Y-94660500D01*
X142965500Y-94567314D01*
X143031392Y-94453186D01*
X143056577Y-94359194D01*
X143095141Y-94292399D01*
X143161936Y-94253835D01*
X143239064Y-94253835D01*
X143305859Y-94292399D01*
X143344423Y-94359194D01*
X143349500Y-94397758D01*
X143349500Y-95364072D01*
X143374498Y-95489743D01*
X143374499Y-95489745D01*
X143423531Y-95608119D01*
X143423533Y-95608123D01*
X143423535Y-95608127D01*
X143494724Y-95714669D01*
X143585331Y-95805276D01*
X143691873Y-95876465D01*
X143691879Y-95876467D01*
X143691880Y-95876468D01*
X143694480Y-95877545D01*
X143810256Y-95925501D01*
X143935931Y-95950500D01*
X143935935Y-95950500D01*
X144064065Y-95950500D01*
X144064069Y-95950500D01*
X144189744Y-95925501D01*
X144308127Y-95876465D01*
X144414669Y-95805276D01*
X144505276Y-95714669D01*
X144576465Y-95608127D01*
X144625501Y-95489744D01*
X144650500Y-95364069D01*
X144650500Y-94889996D01*
X145014353Y-94889996D01*
X145014353Y-94890003D01*
X145034834Y-95032454D01*
X145034834Y-95032455D01*
X145034835Y-95032457D01*
X145094623Y-95163373D01*
X145188872Y-95272143D01*
X145309947Y-95349953D01*
X145448039Y-95390500D01*
X145448041Y-95390500D01*
X145591959Y-95390500D01*
X145591961Y-95390500D01*
X145730053Y-95349953D01*
X145851128Y-95272143D01*
X145945377Y-95163373D01*
X146005165Y-95032457D01*
X146018789Y-94937697D01*
X146025647Y-94890003D01*
X146025647Y-94889996D01*
X146005165Y-94747545D01*
X146005165Y-94747543D01*
X145945377Y-94616627D01*
X145851128Y-94507857D01*
X145851127Y-94507856D01*
X145817465Y-94486223D01*
X145730053Y-94430047D01*
X145730050Y-94430046D01*
X145591967Y-94389501D01*
X145591962Y-94389500D01*
X145591961Y-94389500D01*
X145448039Y-94389500D01*
X145448037Y-94389500D01*
X145448032Y-94389501D01*
X145309949Y-94430046D01*
X145188872Y-94507856D01*
X145188870Y-94507859D01*
X145094622Y-94616628D01*
X145034834Y-94747545D01*
X145014353Y-94889996D01*
X144650500Y-94889996D01*
X144650500Y-94135931D01*
X144625501Y-94010256D01*
X144623377Y-94003255D01*
X144624877Y-94002799D01*
X144615956Y-93935057D01*
X144645469Y-93863799D01*
X144706657Y-93816844D01*
X144763682Y-93805500D01*
X154851000Y-93805500D01*
X154867906Y-93803274D01*
X154930055Y-93795093D01*
X154930059Y-93795092D01*
X154930068Y-93795091D01*
X155004568Y-93775129D01*
X155004573Y-93775126D01*
X155004587Y-93775123D01*
X155025726Y-93767673D01*
X155048898Y-93759508D01*
X155141521Y-93696059D01*
X155196059Y-93641521D01*
X155226639Y-93605828D01*
X155275129Y-93504568D01*
X155295091Y-93430068D01*
X155305500Y-93351000D01*
X155305500Y-92999996D01*
X159494353Y-92999996D01*
X159494353Y-93000003D01*
X159514834Y-93142454D01*
X159514834Y-93142455D01*
X159514835Y-93142457D01*
X159574623Y-93273373D01*
X159668872Y-93382143D01*
X159789947Y-93459953D01*
X159928039Y-93500500D01*
X159928041Y-93500500D01*
X160071959Y-93500500D01*
X160071961Y-93500500D01*
X160210053Y-93459953D01*
X160331128Y-93382143D01*
X160425377Y-93273373D01*
X160485165Y-93142457D01*
X160505647Y-93000000D01*
X160505647Y-92999996D01*
X160485165Y-92857545D01*
X160485165Y-92857543D01*
X160425377Y-92726627D01*
X160331128Y-92617857D01*
X160331127Y-92617856D01*
X160297465Y-92596223D01*
X160210053Y-92540047D01*
X160210050Y-92540046D01*
X160071967Y-92499501D01*
X160071962Y-92499500D01*
X160071961Y-92499500D01*
X159928039Y-92499500D01*
X159928037Y-92499500D01*
X159928032Y-92499501D01*
X159789949Y-92540046D01*
X159668872Y-92617856D01*
X159668870Y-92617859D01*
X159574622Y-92726628D01*
X159514834Y-92857545D01*
X159494353Y-92999996D01*
X155305500Y-92999996D01*
X155305500Y-90362055D01*
X155325462Y-90287555D01*
X155380000Y-90233017D01*
X155454500Y-90213055D01*
X155529000Y-90233017D01*
X155565138Y-90267491D01*
X155567645Y-90265319D01*
X155574622Y-90273371D01*
X155574623Y-90273373D01*
X155668872Y-90382143D01*
X155789947Y-90459953D01*
X155928039Y-90500500D01*
X155928041Y-90500500D01*
X156071959Y-90500500D01*
X156071961Y-90500500D01*
X156210053Y-90459953D01*
X156331128Y-90382143D01*
X156425377Y-90273373D01*
X156485165Y-90142457D01*
X156505647Y-90000000D01*
X156507164Y-89989452D01*
X156508761Y-89989681D01*
X156525609Y-89926805D01*
X156580147Y-89872267D01*
X156653650Y-89852308D01*
X159345223Y-89834365D01*
X159419850Y-89853829D01*
G37*
%TD.AperFunction*%
%TD*%
M02*
