M48
; DRILL file {KiCad 8.0.2-1} date 2024-06-13T15:13:03+0900
; FORMAT={-:-/ absolute / metric / decimal}
; #@! TF.CreationDate,2024-06-13T15:13:03+09:00
; #@! TF.GenerationSoftware,Kicad,Pcbnew,8.0.2-1
; #@! TF.FileFunction,Plated,1,6,PTH
FMAT,2
METRIC
; #@! TA.AperFunction,Plated,PTH,ViaDrill
T1C0.200
; #@! TA.AperFunction,Plated,PTH,ViaDrill
T2C0.250
; #@! TA.AperFunction,Plated,PTH,ComponentDrill
T3C0.600
; #@! TA.AperFunction,Plated,PTH,ComponentDrill
T4C0.650
; #@! TA.AperFunction,Plated,PTH,ComponentDrill
T5C1.000
%
G90
G05
T1
X136.475Y-95.33
X136.7Y-103.8
X136.8Y-99.2
X137.275Y-95.33
X137.5Y-100.8
X137.52Y-104.4
X139.03Y-93.29
X139.03Y-94.25
X139.48Y-98.79
X139.48Y-101.35
X139.608Y-96.299
X140.1Y-105.2
X140.44Y-98.79
X140.44Y-101.35
X140.48Y-93.29
X140.48Y-94.25
X142.075Y-95.33
X142.875Y-95.33
X143.33Y-105.44
X143.8Y-101.4
X144.4Y-99.4
X145.52Y-94.89
X145.525Y-89.5
X145.6Y-104.44
X145.6Y-107.2
X146.49Y-109.6
X146.56Y-104.44
X147.1Y-89.5
X147.38Y-98.33
X147.43Y-94.26
X147.72Y-109.8
X148.0Y-97.0
X148.6Y-99.06
X149.0Y-104.0
X149.22Y-96.5
X149.4Y-110.2
X149.61Y-101.04
X149.62Y-91.71
X149.62Y-100.02
X149.65Y-98.07
X150.0Y-95.51
X151.164Y-104.564
X151.8Y-90.2
X152.636Y-90.343
X152.74Y-101.52
X152.8Y-98.697
X153.868Y-90.704
X154.4Y-90.2
X154.406Y-104.6
X154.568Y-108.885
X155.0Y-103.75
X155.592Y-96.335
X156.1Y-100.52
X156.1Y-101.48
X156.147Y-104.325
X156.16Y-99.61
X156.32Y-91.8
X156.32Y-102.25
X157.2Y-107.6
X157.28Y-91.8
X157.4Y-104.4
X157.737Y-106.602
X157.737Y-108.262
X157.737Y-109.222
X157.739Y-105.644
X158.4Y-105.0
X158.725Y-109.4
X158.79Y-103.25
X158.89Y-97.3
X159.1Y-94.53
X159.2Y-92.72
X159.2Y-93.68
X159.44Y-102.6
X159.44Y-103.25
X160.06Y-94.53
X160.09Y-98.06
X160.09Y-100.0
X160.74Y-101.3
X161.39Y-98.7
X161.39Y-101.3
X161.39Y-103.25
X162.04Y-97.4
X162.04Y-98.7
X162.04Y-100.65
X162.04Y-102.6
X162.04Y-103.9
X162.3Y-110.0
X165.0Y-110.0
T2
X149.62Y-92.67
X153.4Y-97.4
X154.2Y-97.4
T4
X134.45Y-107.87
X135.72Y-107.87
T5
X131.1Y-94.25
X131.1Y-96.79
X131.1Y-99.33
X131.1Y-101.87
X131.1Y-104.41
X131.1Y-106.95
X156.3Y-112.6
X158.84Y-112.6
X160.175Y-90.3
X161.38Y-112.6
X162.715Y-90.3
X163.92Y-112.6
X165.255Y-90.3
T3
G00X135.35Y-90.18
M15
G01X135.35Y-90.98
M16
G05
G00X135.35Y-94.2
M15
G01X135.35Y-95.3
M16
G05
G00X144.0Y-90.18
M15
G01X144.0Y-90.98
M16
G05
G00X144.0Y-94.2
M15
G01X144.0Y-95.3
M16
G05
M30
