%TF.GenerationSoftware,KiCad,Pcbnew,8.0.2-1*%
%TF.CreationDate,2024-06-13T15:22:41+09:00*%
%TF.ProjectId,eeg,6565672e-6b69-4636-9164-5f7063625858,rev?*%
%TF.SameCoordinates,Original*%
%TF.FileFunction,AssemblyDrawing,Bot*%
%FSLAX46Y46*%
G04 Gerber Fmt 4.6, Leading zero omitted, Abs format (unit mm)*
G04 Created by KiCad (PCBNEW 8.0.2-1) date 2024-06-13 15:22:41*
%MOMM*%
%LPD*%
G01*
G04 APERTURE LIST*
%ADD10C,0.050000*%
%ADD11C,0.040000*%
%ADD12C,0.120000*%
%ADD13C,0.508000*%
%ADD14C,0.025400*%
%ADD15C,0.200000*%
%ADD16C,0.127000*%
%ADD17C,0.100000*%
%ADD18C,0.150000*%
G04 APERTURE END LIST*
D10*
X143443808Y-107841150D02*
X143408094Y-107853054D01*
X143408094Y-107853054D02*
X143348570Y-107853054D01*
X143348570Y-107853054D02*
X143324761Y-107841150D01*
X143324761Y-107841150D02*
X143312856Y-107829245D01*
X143312856Y-107829245D02*
X143300951Y-107805435D01*
X143300951Y-107805435D02*
X143300951Y-107781626D01*
X143300951Y-107781626D02*
X143312856Y-107757816D01*
X143312856Y-107757816D02*
X143324761Y-107745911D01*
X143324761Y-107745911D02*
X143348570Y-107734007D01*
X143348570Y-107734007D02*
X143396189Y-107722102D01*
X143396189Y-107722102D02*
X143419999Y-107710197D01*
X143419999Y-107710197D02*
X143431904Y-107698292D01*
X143431904Y-107698292D02*
X143443808Y-107674483D01*
X143443808Y-107674483D02*
X143443808Y-107650673D01*
X143443808Y-107650673D02*
X143431904Y-107626864D01*
X143431904Y-107626864D02*
X143419999Y-107614959D01*
X143419999Y-107614959D02*
X143396189Y-107603054D01*
X143396189Y-107603054D02*
X143336666Y-107603054D01*
X143336666Y-107603054D02*
X143300951Y-107614959D01*
X143217618Y-107603054D02*
X143158094Y-107853054D01*
X143158094Y-107853054D02*
X143110475Y-107674483D01*
X143110475Y-107674483D02*
X143062856Y-107853054D01*
X143062856Y-107853054D02*
X143003333Y-107603054D01*
X142967619Y-107876864D02*
X142777142Y-107876864D01*
X142729523Y-107841150D02*
X142693809Y-107853054D01*
X142693809Y-107853054D02*
X142634285Y-107853054D01*
X142634285Y-107853054D02*
X142610476Y-107841150D01*
X142610476Y-107841150D02*
X142598571Y-107829245D01*
X142598571Y-107829245D02*
X142586666Y-107805435D01*
X142586666Y-107805435D02*
X142586666Y-107781626D01*
X142586666Y-107781626D02*
X142598571Y-107757816D01*
X142598571Y-107757816D02*
X142610476Y-107745911D01*
X142610476Y-107745911D02*
X142634285Y-107734007D01*
X142634285Y-107734007D02*
X142681904Y-107722102D01*
X142681904Y-107722102D02*
X142705714Y-107710197D01*
X142705714Y-107710197D02*
X142717619Y-107698292D01*
X142717619Y-107698292D02*
X142729523Y-107674483D01*
X142729523Y-107674483D02*
X142729523Y-107650673D01*
X142729523Y-107650673D02*
X142717619Y-107626864D01*
X142717619Y-107626864D02*
X142705714Y-107614959D01*
X142705714Y-107614959D02*
X142681904Y-107603054D01*
X142681904Y-107603054D02*
X142622381Y-107603054D01*
X142622381Y-107603054D02*
X142586666Y-107614959D01*
X142479524Y-107853054D02*
X142479524Y-107603054D01*
X142479524Y-107603054D02*
X142384286Y-107603054D01*
X142384286Y-107603054D02*
X142360476Y-107614959D01*
X142360476Y-107614959D02*
X142348571Y-107626864D01*
X142348571Y-107626864D02*
X142336667Y-107650673D01*
X142336667Y-107650673D02*
X142336667Y-107686388D01*
X142336667Y-107686388D02*
X142348571Y-107710197D01*
X142348571Y-107710197D02*
X142360476Y-107722102D01*
X142360476Y-107722102D02*
X142384286Y-107734007D01*
X142384286Y-107734007D02*
X142479524Y-107734007D01*
X142229524Y-107853054D02*
X142229524Y-107603054D01*
X142229524Y-107603054D02*
X142170000Y-107603054D01*
X142170000Y-107603054D02*
X142134286Y-107614959D01*
X142134286Y-107614959D02*
X142110476Y-107638769D01*
X142110476Y-107638769D02*
X142098571Y-107662578D01*
X142098571Y-107662578D02*
X142086667Y-107710197D01*
X142086667Y-107710197D02*
X142086667Y-107745911D01*
X142086667Y-107745911D02*
X142098571Y-107793530D01*
X142098571Y-107793530D02*
X142110476Y-107817340D01*
X142110476Y-107817340D02*
X142134286Y-107841150D01*
X142134286Y-107841150D02*
X142170000Y-107853054D01*
X142170000Y-107853054D02*
X142229524Y-107853054D01*
X142015238Y-107603054D02*
X141872381Y-107603054D01*
X141943809Y-107853054D02*
X141943809Y-107603054D01*
X142231932Y-109501150D02*
X142196218Y-109513054D01*
X142196218Y-109513054D02*
X142136694Y-109513054D01*
X142136694Y-109513054D02*
X142112885Y-109501150D01*
X142112885Y-109501150D02*
X142100980Y-109489245D01*
X142100980Y-109489245D02*
X142089075Y-109465435D01*
X142089075Y-109465435D02*
X142089075Y-109441626D01*
X142089075Y-109441626D02*
X142100980Y-109417816D01*
X142100980Y-109417816D02*
X142112885Y-109405911D01*
X142112885Y-109405911D02*
X142136694Y-109394007D01*
X142136694Y-109394007D02*
X142184313Y-109382102D01*
X142184313Y-109382102D02*
X142208123Y-109370197D01*
X142208123Y-109370197D02*
X142220028Y-109358292D01*
X142220028Y-109358292D02*
X142231932Y-109334483D01*
X142231932Y-109334483D02*
X142231932Y-109310673D01*
X142231932Y-109310673D02*
X142220028Y-109286864D01*
X142220028Y-109286864D02*
X142208123Y-109274959D01*
X142208123Y-109274959D02*
X142184313Y-109263054D01*
X142184313Y-109263054D02*
X142124790Y-109263054D01*
X142124790Y-109263054D02*
X142089075Y-109274959D01*
X142005742Y-109263054D02*
X141946218Y-109513054D01*
X141946218Y-109513054D02*
X141898599Y-109334483D01*
X141898599Y-109334483D02*
X141850980Y-109513054D01*
X141850980Y-109513054D02*
X141791457Y-109263054D01*
X141565266Y-109513054D02*
X141708123Y-109513054D01*
X141636695Y-109513054D02*
X141636695Y-109263054D01*
X141636695Y-109263054D02*
X141660504Y-109298769D01*
X141660504Y-109298769D02*
X141684314Y-109322578D01*
X141684314Y-109322578D02*
X141708123Y-109334483D01*
X162353054Y-99870238D02*
X162103054Y-99870238D01*
X162103054Y-99870238D02*
X162353054Y-100013095D01*
X162353054Y-100013095D02*
X162103054Y-100013095D01*
X162353054Y-100275000D02*
X162234007Y-100191667D01*
X162353054Y-100132143D02*
X162103054Y-100132143D01*
X162103054Y-100132143D02*
X162103054Y-100227381D01*
X162103054Y-100227381D02*
X162114959Y-100251191D01*
X162114959Y-100251191D02*
X162126864Y-100263096D01*
X162126864Y-100263096D02*
X162150673Y-100275000D01*
X162150673Y-100275000D02*
X162186388Y-100275000D01*
X162186388Y-100275000D02*
X162210197Y-100263096D01*
X162210197Y-100263096D02*
X162222102Y-100251191D01*
X162222102Y-100251191D02*
X162234007Y-100227381D01*
X162234007Y-100227381D02*
X162234007Y-100132143D01*
X162222102Y-100465477D02*
X162222102Y-100382143D01*
X162353054Y-100382143D02*
X162103054Y-100382143D01*
X162103054Y-100382143D02*
X162103054Y-100501191D01*
X162103054Y-100715477D02*
X162103054Y-100596429D01*
X162103054Y-100596429D02*
X162222102Y-100584525D01*
X162222102Y-100584525D02*
X162210197Y-100596429D01*
X162210197Y-100596429D02*
X162198292Y-100620239D01*
X162198292Y-100620239D02*
X162198292Y-100679763D01*
X162198292Y-100679763D02*
X162210197Y-100703572D01*
X162210197Y-100703572D02*
X162222102Y-100715477D01*
X162222102Y-100715477D02*
X162245911Y-100727382D01*
X162245911Y-100727382D02*
X162305435Y-100727382D01*
X162305435Y-100727382D02*
X162329245Y-100715477D01*
X162329245Y-100715477D02*
X162341150Y-100703572D01*
X162341150Y-100703572D02*
X162353054Y-100679763D01*
X162353054Y-100679763D02*
X162353054Y-100620239D01*
X162353054Y-100620239D02*
X162341150Y-100596429D01*
X162341150Y-100596429D02*
X162329245Y-100584525D01*
X162103054Y-100810715D02*
X162103054Y-100965477D01*
X162103054Y-100965477D02*
X162198292Y-100882143D01*
X162198292Y-100882143D02*
X162198292Y-100917858D01*
X162198292Y-100917858D02*
X162210197Y-100941667D01*
X162210197Y-100941667D02*
X162222102Y-100953572D01*
X162222102Y-100953572D02*
X162245911Y-100965477D01*
X162245911Y-100965477D02*
X162305435Y-100965477D01*
X162305435Y-100965477D02*
X162329245Y-100953572D01*
X162329245Y-100953572D02*
X162341150Y-100941667D01*
X162341150Y-100941667D02*
X162353054Y-100917858D01*
X162353054Y-100917858D02*
X162353054Y-100846429D01*
X162353054Y-100846429D02*
X162341150Y-100822620D01*
X162341150Y-100822620D02*
X162329245Y-100810715D01*
X162186388Y-101179762D02*
X162353054Y-101179762D01*
X162091150Y-101120238D02*
X162269721Y-101060715D01*
X162269721Y-101060715D02*
X162269721Y-101215476D01*
X162103054Y-101358333D02*
X162103054Y-101382143D01*
X162103054Y-101382143D02*
X162114959Y-101405952D01*
X162114959Y-101405952D02*
X162126864Y-101417857D01*
X162126864Y-101417857D02*
X162150673Y-101429762D01*
X162150673Y-101429762D02*
X162198292Y-101441667D01*
X162198292Y-101441667D02*
X162257816Y-101441667D01*
X162257816Y-101441667D02*
X162305435Y-101429762D01*
X162305435Y-101429762D02*
X162329245Y-101417857D01*
X162329245Y-101417857D02*
X162341150Y-101405952D01*
X162341150Y-101405952D02*
X162353054Y-101382143D01*
X162353054Y-101382143D02*
X162353054Y-101358333D01*
X162353054Y-101358333D02*
X162341150Y-101334524D01*
X162341150Y-101334524D02*
X162329245Y-101322619D01*
X162329245Y-101322619D02*
X162305435Y-101310714D01*
X162305435Y-101310714D02*
X162257816Y-101298810D01*
X162257816Y-101298810D02*
X162198292Y-101298810D01*
X162198292Y-101298810D02*
X162150673Y-101310714D01*
X162150673Y-101310714D02*
X162126864Y-101322619D01*
X162126864Y-101322619D02*
X162114959Y-101334524D01*
X162114959Y-101334524D02*
X162103054Y-101358333D01*
X145324047Y-100893054D02*
X145324047Y-100643054D01*
X145062142Y-100869245D02*
X145074046Y-100881150D01*
X145074046Y-100881150D02*
X145109761Y-100893054D01*
X145109761Y-100893054D02*
X145133570Y-100893054D01*
X145133570Y-100893054D02*
X145169284Y-100881150D01*
X145169284Y-100881150D02*
X145193094Y-100857340D01*
X145193094Y-100857340D02*
X145204999Y-100833530D01*
X145204999Y-100833530D02*
X145216903Y-100785911D01*
X145216903Y-100785911D02*
X145216903Y-100750197D01*
X145216903Y-100750197D02*
X145204999Y-100702578D01*
X145204999Y-100702578D02*
X145193094Y-100678769D01*
X145193094Y-100678769D02*
X145169284Y-100654959D01*
X145169284Y-100654959D02*
X145133570Y-100643054D01*
X145133570Y-100643054D02*
X145109761Y-100643054D01*
X145109761Y-100643054D02*
X145074046Y-100654959D01*
X145074046Y-100654959D02*
X145062142Y-100666864D01*
X144824046Y-100893054D02*
X144966903Y-100893054D01*
X144895475Y-100893054D02*
X144895475Y-100643054D01*
X144895475Y-100643054D02*
X144919284Y-100678769D01*
X144919284Y-100678769D02*
X144943094Y-100702578D01*
X144943094Y-100702578D02*
X144966903Y-100714483D01*
X156783054Y-100841191D02*
X156783054Y-100698334D01*
X156783054Y-100769762D02*
X156533054Y-100769762D01*
X156533054Y-100769762D02*
X156568769Y-100745953D01*
X156568769Y-100745953D02*
X156592578Y-100722143D01*
X156592578Y-100722143D02*
X156604483Y-100698334D01*
X156616388Y-101055476D02*
X156783054Y-101055476D01*
X156616388Y-100948333D02*
X156747340Y-100948333D01*
X156747340Y-100948333D02*
X156771150Y-100960238D01*
X156771150Y-100960238D02*
X156783054Y-100984048D01*
X156783054Y-100984048D02*
X156783054Y-101019762D01*
X156783054Y-101019762D02*
X156771150Y-101043571D01*
X156771150Y-101043571D02*
X156759245Y-101055476D01*
X156652102Y-101257857D02*
X156652102Y-101174523D01*
X156783054Y-101174523D02*
X156533054Y-101174523D01*
X156533054Y-101174523D02*
X156533054Y-101293571D01*
X156189245Y-100958333D02*
X156201150Y-100946429D01*
X156201150Y-100946429D02*
X156213054Y-100910714D01*
X156213054Y-100910714D02*
X156213054Y-100886905D01*
X156213054Y-100886905D02*
X156201150Y-100851191D01*
X156201150Y-100851191D02*
X156177340Y-100827381D01*
X156177340Y-100827381D02*
X156153530Y-100815476D01*
X156153530Y-100815476D02*
X156105911Y-100803572D01*
X156105911Y-100803572D02*
X156070197Y-100803572D01*
X156070197Y-100803572D02*
X156022578Y-100815476D01*
X156022578Y-100815476D02*
X155998769Y-100827381D01*
X155998769Y-100827381D02*
X155974959Y-100851191D01*
X155974959Y-100851191D02*
X155963054Y-100886905D01*
X155963054Y-100886905D02*
X155963054Y-100910714D01*
X155963054Y-100910714D02*
X155974959Y-100946429D01*
X155974959Y-100946429D02*
X155986864Y-100958333D01*
X155986864Y-101053572D02*
X155974959Y-101065476D01*
X155974959Y-101065476D02*
X155963054Y-101089286D01*
X155963054Y-101089286D02*
X155963054Y-101148810D01*
X155963054Y-101148810D02*
X155974959Y-101172619D01*
X155974959Y-101172619D02*
X155986864Y-101184524D01*
X155986864Y-101184524D02*
X156010673Y-101196429D01*
X156010673Y-101196429D02*
X156034483Y-101196429D01*
X156034483Y-101196429D02*
X156070197Y-101184524D01*
X156070197Y-101184524D02*
X156213054Y-101041667D01*
X156213054Y-101041667D02*
X156213054Y-101196429D01*
X152807856Y-90433054D02*
X152950713Y-90433054D01*
X152879285Y-90433054D02*
X152879285Y-90183054D01*
X152879285Y-90183054D02*
X152903094Y-90218769D01*
X152903094Y-90218769D02*
X152926904Y-90242578D01*
X152926904Y-90242578D02*
X152950713Y-90254483D01*
X152653095Y-90183054D02*
X152629285Y-90183054D01*
X152629285Y-90183054D02*
X152605476Y-90194959D01*
X152605476Y-90194959D02*
X152593571Y-90206864D01*
X152593571Y-90206864D02*
X152581666Y-90230673D01*
X152581666Y-90230673D02*
X152569761Y-90278292D01*
X152569761Y-90278292D02*
X152569761Y-90337816D01*
X152569761Y-90337816D02*
X152581666Y-90385435D01*
X152581666Y-90385435D02*
X152593571Y-90409245D01*
X152593571Y-90409245D02*
X152605476Y-90421150D01*
X152605476Y-90421150D02*
X152629285Y-90433054D01*
X152629285Y-90433054D02*
X152653095Y-90433054D01*
X152653095Y-90433054D02*
X152676904Y-90421150D01*
X152676904Y-90421150D02*
X152688809Y-90409245D01*
X152688809Y-90409245D02*
X152700714Y-90385435D01*
X152700714Y-90385435D02*
X152712618Y-90337816D01*
X152712618Y-90337816D02*
X152712618Y-90278292D01*
X152712618Y-90278292D02*
X152700714Y-90230673D01*
X152700714Y-90230673D02*
X152688809Y-90206864D01*
X152688809Y-90206864D02*
X152676904Y-90194959D01*
X152676904Y-90194959D02*
X152653095Y-90183054D01*
X152355476Y-90266388D02*
X152355476Y-90433054D01*
X152462619Y-90266388D02*
X152462619Y-90397340D01*
X152462619Y-90397340D02*
X152450714Y-90421150D01*
X152450714Y-90421150D02*
X152426904Y-90433054D01*
X152426904Y-90433054D02*
X152391190Y-90433054D01*
X152391190Y-90433054D02*
X152367381Y-90421150D01*
X152367381Y-90421150D02*
X152355476Y-90409245D01*
X152153095Y-90302102D02*
X152236429Y-90302102D01*
X152236429Y-90433054D02*
X152236429Y-90183054D01*
X152236429Y-90183054D02*
X152117381Y-90183054D01*
X152705714Y-90929245D02*
X152717618Y-90941150D01*
X152717618Y-90941150D02*
X152753333Y-90953054D01*
X152753333Y-90953054D02*
X152777142Y-90953054D01*
X152777142Y-90953054D02*
X152812856Y-90941150D01*
X152812856Y-90941150D02*
X152836666Y-90917340D01*
X152836666Y-90917340D02*
X152848571Y-90893530D01*
X152848571Y-90893530D02*
X152860475Y-90845911D01*
X152860475Y-90845911D02*
X152860475Y-90810197D01*
X152860475Y-90810197D02*
X152848571Y-90762578D01*
X152848571Y-90762578D02*
X152836666Y-90738769D01*
X152836666Y-90738769D02*
X152812856Y-90714959D01*
X152812856Y-90714959D02*
X152777142Y-90703054D01*
X152777142Y-90703054D02*
X152753333Y-90703054D01*
X152753333Y-90703054D02*
X152717618Y-90714959D01*
X152717618Y-90714959D02*
X152705714Y-90726864D01*
X152467618Y-90953054D02*
X152610475Y-90953054D01*
X152539047Y-90953054D02*
X152539047Y-90703054D01*
X152539047Y-90703054D02*
X152562856Y-90738769D01*
X152562856Y-90738769D02*
X152586666Y-90762578D01*
X152586666Y-90762578D02*
X152610475Y-90774483D01*
X152348571Y-90953054D02*
X152300952Y-90953054D01*
X152300952Y-90953054D02*
X152277142Y-90941150D01*
X152277142Y-90941150D02*
X152265238Y-90929245D01*
X152265238Y-90929245D02*
X152241428Y-90893530D01*
X152241428Y-90893530D02*
X152229523Y-90845911D01*
X152229523Y-90845911D02*
X152229523Y-90750673D01*
X152229523Y-90750673D02*
X152241428Y-90726864D01*
X152241428Y-90726864D02*
X152253333Y-90714959D01*
X152253333Y-90714959D02*
X152277142Y-90703054D01*
X152277142Y-90703054D02*
X152324761Y-90703054D01*
X152324761Y-90703054D02*
X152348571Y-90714959D01*
X152348571Y-90714959D02*
X152360476Y-90726864D01*
X152360476Y-90726864D02*
X152372380Y-90750673D01*
X152372380Y-90750673D02*
X152372380Y-90810197D01*
X152372380Y-90810197D02*
X152360476Y-90834007D01*
X152360476Y-90834007D02*
X152348571Y-90845911D01*
X152348571Y-90845911D02*
X152324761Y-90857816D01*
X152324761Y-90857816D02*
X152277142Y-90857816D01*
X152277142Y-90857816D02*
X152253333Y-90845911D01*
X152253333Y-90845911D02*
X152241428Y-90834007D01*
X152241428Y-90834007D02*
X152229523Y-90810197D01*
X139148808Y-100413054D02*
X139291665Y-100413054D01*
X139220237Y-100413054D02*
X139220237Y-100163054D01*
X139220237Y-100163054D02*
X139244046Y-100198769D01*
X139244046Y-100198769D02*
X139267856Y-100222578D01*
X139267856Y-100222578D02*
X139291665Y-100234483D01*
X138934523Y-100246388D02*
X138934523Y-100413054D01*
X139041666Y-100246388D02*
X139041666Y-100377340D01*
X139041666Y-100377340D02*
X139029761Y-100401150D01*
X139029761Y-100401150D02*
X139005951Y-100413054D01*
X139005951Y-100413054D02*
X138970237Y-100413054D01*
X138970237Y-100413054D02*
X138946428Y-100401150D01*
X138946428Y-100401150D02*
X138934523Y-100389245D01*
X138732142Y-100282102D02*
X138815476Y-100282102D01*
X138815476Y-100413054D02*
X138815476Y-100163054D01*
X138815476Y-100163054D02*
X138696428Y-100163054D01*
X140001666Y-100389245D02*
X140013570Y-100401150D01*
X140013570Y-100401150D02*
X140049285Y-100413054D01*
X140049285Y-100413054D02*
X140073094Y-100413054D01*
X140073094Y-100413054D02*
X140108808Y-100401150D01*
X140108808Y-100401150D02*
X140132618Y-100377340D01*
X140132618Y-100377340D02*
X140144523Y-100353530D01*
X140144523Y-100353530D02*
X140156427Y-100305911D01*
X140156427Y-100305911D02*
X140156427Y-100270197D01*
X140156427Y-100270197D02*
X140144523Y-100222578D01*
X140144523Y-100222578D02*
X140132618Y-100198769D01*
X140132618Y-100198769D02*
X140108808Y-100174959D01*
X140108808Y-100174959D02*
X140073094Y-100163054D01*
X140073094Y-100163054D02*
X140049285Y-100163054D01*
X140049285Y-100163054D02*
X140013570Y-100174959D01*
X140013570Y-100174959D02*
X140001666Y-100186864D01*
X139858808Y-100270197D02*
X139882618Y-100258292D01*
X139882618Y-100258292D02*
X139894523Y-100246388D01*
X139894523Y-100246388D02*
X139906427Y-100222578D01*
X139906427Y-100222578D02*
X139906427Y-100210673D01*
X139906427Y-100210673D02*
X139894523Y-100186864D01*
X139894523Y-100186864D02*
X139882618Y-100174959D01*
X139882618Y-100174959D02*
X139858808Y-100163054D01*
X139858808Y-100163054D02*
X139811189Y-100163054D01*
X139811189Y-100163054D02*
X139787380Y-100174959D01*
X139787380Y-100174959D02*
X139775475Y-100186864D01*
X139775475Y-100186864D02*
X139763570Y-100210673D01*
X139763570Y-100210673D02*
X139763570Y-100222578D01*
X139763570Y-100222578D02*
X139775475Y-100246388D01*
X139775475Y-100246388D02*
X139787380Y-100258292D01*
X139787380Y-100258292D02*
X139811189Y-100270197D01*
X139811189Y-100270197D02*
X139858808Y-100270197D01*
X139858808Y-100270197D02*
X139882618Y-100282102D01*
X139882618Y-100282102D02*
X139894523Y-100294007D01*
X139894523Y-100294007D02*
X139906427Y-100317816D01*
X139906427Y-100317816D02*
X139906427Y-100365435D01*
X139906427Y-100365435D02*
X139894523Y-100389245D01*
X139894523Y-100389245D02*
X139882618Y-100401150D01*
X139882618Y-100401150D02*
X139858808Y-100413054D01*
X139858808Y-100413054D02*
X139811189Y-100413054D01*
X139811189Y-100413054D02*
X139787380Y-100401150D01*
X139787380Y-100401150D02*
X139775475Y-100389245D01*
X139775475Y-100389245D02*
X139763570Y-100365435D01*
X139763570Y-100365435D02*
X139763570Y-100317816D01*
X139763570Y-100317816D02*
X139775475Y-100294007D01*
X139775475Y-100294007D02*
X139787380Y-100282102D01*
X139787380Y-100282102D02*
X139811189Y-100270197D01*
X146466903Y-103993054D02*
X146609760Y-103993054D01*
X146538332Y-103993054D02*
X146538332Y-103743054D01*
X146538332Y-103743054D02*
X146562141Y-103778769D01*
X146562141Y-103778769D02*
X146585951Y-103802578D01*
X146585951Y-103802578D02*
X146609760Y-103814483D01*
X146312142Y-103743054D02*
X146288332Y-103743054D01*
X146288332Y-103743054D02*
X146264523Y-103754959D01*
X146264523Y-103754959D02*
X146252618Y-103766864D01*
X146252618Y-103766864D02*
X146240713Y-103790673D01*
X146240713Y-103790673D02*
X146228808Y-103838292D01*
X146228808Y-103838292D02*
X146228808Y-103897816D01*
X146228808Y-103897816D02*
X146240713Y-103945435D01*
X146240713Y-103945435D02*
X146252618Y-103969245D01*
X146252618Y-103969245D02*
X146264523Y-103981150D01*
X146264523Y-103981150D02*
X146288332Y-103993054D01*
X146288332Y-103993054D02*
X146312142Y-103993054D01*
X146312142Y-103993054D02*
X146335951Y-103981150D01*
X146335951Y-103981150D02*
X146347856Y-103969245D01*
X146347856Y-103969245D02*
X146359761Y-103945435D01*
X146359761Y-103945435D02*
X146371665Y-103897816D01*
X146371665Y-103897816D02*
X146371665Y-103838292D01*
X146371665Y-103838292D02*
X146359761Y-103790673D01*
X146359761Y-103790673D02*
X146347856Y-103766864D01*
X146347856Y-103766864D02*
X146335951Y-103754959D01*
X146335951Y-103754959D02*
X146312142Y-103743054D01*
X146074047Y-103743054D02*
X146050237Y-103743054D01*
X146050237Y-103743054D02*
X146026428Y-103754959D01*
X146026428Y-103754959D02*
X146014523Y-103766864D01*
X146014523Y-103766864D02*
X146002618Y-103790673D01*
X146002618Y-103790673D02*
X145990713Y-103838292D01*
X145990713Y-103838292D02*
X145990713Y-103897816D01*
X145990713Y-103897816D02*
X146002618Y-103945435D01*
X146002618Y-103945435D02*
X146014523Y-103969245D01*
X146014523Y-103969245D02*
X146026428Y-103981150D01*
X146026428Y-103981150D02*
X146050237Y-103993054D01*
X146050237Y-103993054D02*
X146074047Y-103993054D01*
X146074047Y-103993054D02*
X146097856Y-103981150D01*
X146097856Y-103981150D02*
X146109761Y-103969245D01*
X146109761Y-103969245D02*
X146121666Y-103945435D01*
X146121666Y-103945435D02*
X146133570Y-103897816D01*
X146133570Y-103897816D02*
X146133570Y-103838292D01*
X146133570Y-103838292D02*
X146121666Y-103790673D01*
X146121666Y-103790673D02*
X146109761Y-103766864D01*
X146109761Y-103766864D02*
X146097856Y-103754959D01*
X146097856Y-103754959D02*
X146074047Y-103743054D01*
X145883571Y-103826388D02*
X145883571Y-103993054D01*
X145883571Y-103850197D02*
X145871666Y-103838292D01*
X145871666Y-103838292D02*
X145847856Y-103826388D01*
X145847856Y-103826388D02*
X145812142Y-103826388D01*
X145812142Y-103826388D02*
X145788333Y-103838292D01*
X145788333Y-103838292D02*
X145776428Y-103862102D01*
X145776428Y-103862102D02*
X145776428Y-103993054D01*
X145574047Y-103862102D02*
X145657381Y-103862102D01*
X145657381Y-103993054D02*
X145657381Y-103743054D01*
X145657381Y-103743054D02*
X145538333Y-103743054D01*
X146121666Y-104529245D02*
X146133570Y-104541150D01*
X146133570Y-104541150D02*
X146169285Y-104553054D01*
X146169285Y-104553054D02*
X146193094Y-104553054D01*
X146193094Y-104553054D02*
X146228808Y-104541150D01*
X146228808Y-104541150D02*
X146252618Y-104517340D01*
X146252618Y-104517340D02*
X146264523Y-104493530D01*
X146264523Y-104493530D02*
X146276427Y-104445911D01*
X146276427Y-104445911D02*
X146276427Y-104410197D01*
X146276427Y-104410197D02*
X146264523Y-104362578D01*
X146264523Y-104362578D02*
X146252618Y-104338769D01*
X146252618Y-104338769D02*
X146228808Y-104314959D01*
X146228808Y-104314959D02*
X146193094Y-104303054D01*
X146193094Y-104303054D02*
X146169285Y-104303054D01*
X146169285Y-104303054D02*
X146133570Y-104314959D01*
X146133570Y-104314959D02*
X146121666Y-104326864D01*
X146038332Y-104303054D02*
X145871666Y-104303054D01*
X145871666Y-104303054D02*
X145978808Y-104553054D01*
X149113054Y-101252143D02*
X149113054Y-101109286D01*
X149113054Y-101180714D02*
X148863054Y-101180714D01*
X148863054Y-101180714D02*
X148898769Y-101156905D01*
X148898769Y-101156905D02*
X148922578Y-101133095D01*
X148922578Y-101133095D02*
X148934483Y-101109286D01*
X148863054Y-101406904D02*
X148863054Y-101430714D01*
X148863054Y-101430714D02*
X148874959Y-101454523D01*
X148874959Y-101454523D02*
X148886864Y-101466428D01*
X148886864Y-101466428D02*
X148910673Y-101478333D01*
X148910673Y-101478333D02*
X148958292Y-101490238D01*
X148958292Y-101490238D02*
X149017816Y-101490238D01*
X149017816Y-101490238D02*
X149065435Y-101478333D01*
X149065435Y-101478333D02*
X149089245Y-101466428D01*
X149089245Y-101466428D02*
X149101150Y-101454523D01*
X149101150Y-101454523D02*
X149113054Y-101430714D01*
X149113054Y-101430714D02*
X149113054Y-101406904D01*
X149113054Y-101406904D02*
X149101150Y-101383095D01*
X149101150Y-101383095D02*
X149089245Y-101371190D01*
X149089245Y-101371190D02*
X149065435Y-101359285D01*
X149065435Y-101359285D02*
X149017816Y-101347381D01*
X149017816Y-101347381D02*
X148958292Y-101347381D01*
X148958292Y-101347381D02*
X148910673Y-101359285D01*
X148910673Y-101359285D02*
X148886864Y-101371190D01*
X148886864Y-101371190D02*
X148874959Y-101383095D01*
X148874959Y-101383095D02*
X148863054Y-101406904D01*
X148946388Y-101704523D02*
X149113054Y-101704523D01*
X148946388Y-101597380D02*
X149077340Y-101597380D01*
X149077340Y-101597380D02*
X149101150Y-101609285D01*
X149101150Y-101609285D02*
X149113054Y-101633095D01*
X149113054Y-101633095D02*
X149113054Y-101668809D01*
X149113054Y-101668809D02*
X149101150Y-101692618D01*
X149101150Y-101692618D02*
X149089245Y-101704523D01*
X148982102Y-101906904D02*
X148982102Y-101823570D01*
X149113054Y-101823570D02*
X148863054Y-101823570D01*
X148863054Y-101823570D02*
X148863054Y-101942618D01*
D11*
X149709765Y-101359285D02*
X149721670Y-101347381D01*
X149721670Y-101347381D02*
X149733574Y-101311666D01*
X149733574Y-101311666D02*
X149733574Y-101287857D01*
X149733574Y-101287857D02*
X149721670Y-101252143D01*
X149721670Y-101252143D02*
X149697860Y-101228333D01*
X149697860Y-101228333D02*
X149674050Y-101216428D01*
X149674050Y-101216428D02*
X149626431Y-101204524D01*
X149626431Y-101204524D02*
X149590717Y-101204524D01*
X149590717Y-101204524D02*
X149543098Y-101216428D01*
X149543098Y-101216428D02*
X149519289Y-101228333D01*
X149519289Y-101228333D02*
X149495479Y-101252143D01*
X149495479Y-101252143D02*
X149483574Y-101287857D01*
X149483574Y-101287857D02*
X149483574Y-101311666D01*
X149483574Y-101311666D02*
X149495479Y-101347381D01*
X149495479Y-101347381D02*
X149507384Y-101359285D01*
X149733574Y-101597381D02*
X149733574Y-101454524D01*
X149733574Y-101525952D02*
X149483574Y-101525952D01*
X149483574Y-101525952D02*
X149519289Y-101502143D01*
X149519289Y-101502143D02*
X149543098Y-101478333D01*
X149543098Y-101478333D02*
X149555003Y-101454524D01*
X149483574Y-101680714D02*
X149483574Y-101847380D01*
X149483574Y-101847380D02*
X149733574Y-101740238D01*
D10*
X155669602Y-106558334D02*
X155681507Y-106594048D01*
X155681507Y-106594048D02*
X155693411Y-106605953D01*
X155693411Y-106605953D02*
X155717221Y-106617857D01*
X155717221Y-106617857D02*
X155752935Y-106617857D01*
X155752935Y-106617857D02*
X155776745Y-106605953D01*
X155776745Y-106605953D02*
X155788650Y-106594048D01*
X155788650Y-106594048D02*
X155800554Y-106570238D01*
X155800554Y-106570238D02*
X155800554Y-106475000D01*
X155800554Y-106475000D02*
X155550554Y-106475000D01*
X155550554Y-106475000D02*
X155550554Y-106558334D01*
X155550554Y-106558334D02*
X155562459Y-106582143D01*
X155562459Y-106582143D02*
X155574364Y-106594048D01*
X155574364Y-106594048D02*
X155598173Y-106605953D01*
X155598173Y-106605953D02*
X155621983Y-106605953D01*
X155621983Y-106605953D02*
X155645792Y-106594048D01*
X155645792Y-106594048D02*
X155657697Y-106582143D01*
X155657697Y-106582143D02*
X155669602Y-106558334D01*
X155669602Y-106558334D02*
X155669602Y-106475000D01*
X155800554Y-106725000D02*
X155550554Y-106725000D01*
X155550554Y-106725000D02*
X155729126Y-106808334D01*
X155729126Y-106808334D02*
X155550554Y-106891667D01*
X155550554Y-106891667D02*
X155800554Y-106891667D01*
X155800554Y-107010714D02*
X155550554Y-107010714D01*
X155574364Y-107117858D02*
X155562459Y-107129762D01*
X155562459Y-107129762D02*
X155550554Y-107153572D01*
X155550554Y-107153572D02*
X155550554Y-107213096D01*
X155550554Y-107213096D02*
X155562459Y-107236905D01*
X155562459Y-107236905D02*
X155574364Y-107248810D01*
X155574364Y-107248810D02*
X155598173Y-107260715D01*
X155598173Y-107260715D02*
X155621983Y-107260715D01*
X155621983Y-107260715D02*
X155657697Y-107248810D01*
X155657697Y-107248810D02*
X155800554Y-107105953D01*
X155800554Y-107105953D02*
X155800554Y-107260715D01*
X155550554Y-107344048D02*
X155550554Y-107510714D01*
X155550554Y-107510714D02*
X155800554Y-107403572D01*
X155550554Y-107653571D02*
X155550554Y-107677381D01*
X155550554Y-107677381D02*
X155562459Y-107701190D01*
X155562459Y-107701190D02*
X155574364Y-107713095D01*
X155574364Y-107713095D02*
X155598173Y-107725000D01*
X155598173Y-107725000D02*
X155645792Y-107736905D01*
X155645792Y-107736905D02*
X155705316Y-107736905D01*
X155705316Y-107736905D02*
X155752935Y-107725000D01*
X155752935Y-107725000D02*
X155776745Y-107713095D01*
X155776745Y-107713095D02*
X155788650Y-107701190D01*
X155788650Y-107701190D02*
X155800554Y-107677381D01*
X155800554Y-107677381D02*
X155800554Y-107653571D01*
X155800554Y-107653571D02*
X155788650Y-107629762D01*
X155788650Y-107629762D02*
X155776745Y-107617857D01*
X155776745Y-107617857D02*
X155752935Y-107605952D01*
X155752935Y-107605952D02*
X155705316Y-107594048D01*
X155705316Y-107594048D02*
X155645792Y-107594048D01*
X155645792Y-107594048D02*
X155598173Y-107605952D01*
X155598173Y-107605952D02*
X155574364Y-107617857D01*
X155574364Y-107617857D02*
X155562459Y-107629762D01*
X155562459Y-107629762D02*
X155550554Y-107653571D01*
X155029999Y-97936864D02*
X155018095Y-97924959D01*
X155018095Y-97924959D02*
X154994285Y-97913054D01*
X154994285Y-97913054D02*
X154934761Y-97913054D01*
X154934761Y-97913054D02*
X154910952Y-97924959D01*
X154910952Y-97924959D02*
X154899047Y-97936864D01*
X154899047Y-97936864D02*
X154887142Y-97960673D01*
X154887142Y-97960673D02*
X154887142Y-97984483D01*
X154887142Y-97984483D02*
X154899047Y-98020197D01*
X154899047Y-98020197D02*
X155041904Y-98163054D01*
X155041904Y-98163054D02*
X154887142Y-98163054D01*
X154780000Y-98139245D02*
X154768095Y-98151150D01*
X154768095Y-98151150D02*
X154780000Y-98163054D01*
X154780000Y-98163054D02*
X154791904Y-98151150D01*
X154791904Y-98151150D02*
X154780000Y-98139245D01*
X154780000Y-98139245D02*
X154780000Y-98163054D01*
X154672856Y-97936864D02*
X154660952Y-97924959D01*
X154660952Y-97924959D02*
X154637142Y-97913054D01*
X154637142Y-97913054D02*
X154577618Y-97913054D01*
X154577618Y-97913054D02*
X154553809Y-97924959D01*
X154553809Y-97924959D02*
X154541904Y-97936864D01*
X154541904Y-97936864D02*
X154529999Y-97960673D01*
X154529999Y-97960673D02*
X154529999Y-97984483D01*
X154529999Y-97984483D02*
X154541904Y-98020197D01*
X154541904Y-98020197D02*
X154684761Y-98163054D01*
X154684761Y-98163054D02*
X154529999Y-98163054D01*
X155771666Y-98163054D02*
X155854999Y-98044007D01*
X155914523Y-98163054D02*
X155914523Y-97913054D01*
X155914523Y-97913054D02*
X155819285Y-97913054D01*
X155819285Y-97913054D02*
X155795475Y-97924959D01*
X155795475Y-97924959D02*
X155783570Y-97936864D01*
X155783570Y-97936864D02*
X155771666Y-97960673D01*
X155771666Y-97960673D02*
X155771666Y-97996388D01*
X155771666Y-97996388D02*
X155783570Y-98020197D01*
X155783570Y-98020197D02*
X155795475Y-98032102D01*
X155795475Y-98032102D02*
X155819285Y-98044007D01*
X155819285Y-98044007D02*
X155914523Y-98044007D01*
X155533570Y-98163054D02*
X155676427Y-98163054D01*
X155604999Y-98163054D02*
X155604999Y-97913054D01*
X155604999Y-97913054D02*
X155628808Y-97948769D01*
X155628808Y-97948769D02*
X155652618Y-97972578D01*
X155652618Y-97972578D02*
X155676427Y-97984483D01*
X145223094Y-89613054D02*
X145342142Y-89613054D01*
X145342142Y-89613054D02*
X145342142Y-89363054D01*
X145139761Y-89482102D02*
X145056427Y-89482102D01*
X145020713Y-89613054D02*
X145139761Y-89613054D01*
X145139761Y-89613054D02*
X145139761Y-89363054D01*
X145139761Y-89363054D02*
X145020713Y-89363054D01*
X144913571Y-89613054D02*
X144913571Y-89363054D01*
X144913571Y-89363054D02*
X144854047Y-89363054D01*
X144854047Y-89363054D02*
X144818333Y-89374959D01*
X144818333Y-89374959D02*
X144794523Y-89398769D01*
X144794523Y-89398769D02*
X144782618Y-89422578D01*
X144782618Y-89422578D02*
X144770714Y-89470197D01*
X144770714Y-89470197D02*
X144770714Y-89505911D01*
X144770714Y-89505911D02*
X144782618Y-89553530D01*
X144782618Y-89553530D02*
X144794523Y-89577340D01*
X144794523Y-89577340D02*
X144818333Y-89601150D01*
X144818333Y-89601150D02*
X144854047Y-89613054D01*
X144854047Y-89613054D02*
X144913571Y-89613054D01*
X144723095Y-89636864D02*
X144532618Y-89636864D01*
X144425476Y-89494007D02*
X144425476Y-89613054D01*
X144508809Y-89363054D02*
X144425476Y-89494007D01*
X144425476Y-89494007D02*
X144342142Y-89363054D01*
X146497023Y-89613054D02*
X146497023Y-89363054D01*
X146497023Y-89363054D02*
X146437499Y-89363054D01*
X146437499Y-89363054D02*
X146401785Y-89374959D01*
X146401785Y-89374959D02*
X146377975Y-89398769D01*
X146377975Y-89398769D02*
X146366070Y-89422578D01*
X146366070Y-89422578D02*
X146354166Y-89470197D01*
X146354166Y-89470197D02*
X146354166Y-89505911D01*
X146354166Y-89505911D02*
X146366070Y-89553530D01*
X146366070Y-89553530D02*
X146377975Y-89577340D01*
X146377975Y-89577340D02*
X146401785Y-89601150D01*
X146401785Y-89601150D02*
X146437499Y-89613054D01*
X146437499Y-89613054D02*
X146497023Y-89613054D01*
X146116070Y-89613054D02*
X146258927Y-89613054D01*
X146187499Y-89613054D02*
X146187499Y-89363054D01*
X146187499Y-89363054D02*
X146211308Y-89398769D01*
X146211308Y-89398769D02*
X146235118Y-89422578D01*
X146235118Y-89422578D02*
X146258927Y-89434483D01*
X161041190Y-94476388D02*
X161041190Y-94643054D01*
X161100714Y-94381150D02*
X161160237Y-94559721D01*
X161160237Y-94559721D02*
X161005476Y-94559721D01*
X160910238Y-94619245D02*
X160898333Y-94631150D01*
X160898333Y-94631150D02*
X160910238Y-94643054D01*
X160910238Y-94643054D02*
X160922142Y-94631150D01*
X160922142Y-94631150D02*
X160910238Y-94619245D01*
X160910238Y-94619245D02*
X160910238Y-94643054D01*
X160814999Y-94393054D02*
X160648333Y-94393054D01*
X160648333Y-94393054D02*
X160755475Y-94643054D01*
X160445952Y-94476388D02*
X160445952Y-94643054D01*
X160553095Y-94476388D02*
X160553095Y-94607340D01*
X160553095Y-94607340D02*
X160541190Y-94631150D01*
X160541190Y-94631150D02*
X160517380Y-94643054D01*
X160517380Y-94643054D02*
X160481666Y-94643054D01*
X160481666Y-94643054D02*
X160457857Y-94631150D01*
X160457857Y-94631150D02*
X160445952Y-94619245D01*
X160243571Y-94512102D02*
X160326905Y-94512102D01*
X160326905Y-94643054D02*
X160326905Y-94393054D01*
X160326905Y-94393054D02*
X160207857Y-94393054D01*
X159621666Y-94619245D02*
X159633570Y-94631150D01*
X159633570Y-94631150D02*
X159669285Y-94643054D01*
X159669285Y-94643054D02*
X159693094Y-94643054D01*
X159693094Y-94643054D02*
X159728808Y-94631150D01*
X159728808Y-94631150D02*
X159752618Y-94607340D01*
X159752618Y-94607340D02*
X159764523Y-94583530D01*
X159764523Y-94583530D02*
X159776427Y-94535911D01*
X159776427Y-94535911D02*
X159776427Y-94500197D01*
X159776427Y-94500197D02*
X159764523Y-94452578D01*
X159764523Y-94452578D02*
X159752618Y-94428769D01*
X159752618Y-94428769D02*
X159728808Y-94404959D01*
X159728808Y-94404959D02*
X159693094Y-94393054D01*
X159693094Y-94393054D02*
X159669285Y-94393054D01*
X159669285Y-94393054D02*
X159633570Y-94404959D01*
X159633570Y-94404959D02*
X159621666Y-94416864D01*
X159395475Y-94393054D02*
X159514523Y-94393054D01*
X159514523Y-94393054D02*
X159526427Y-94512102D01*
X159526427Y-94512102D02*
X159514523Y-94500197D01*
X159514523Y-94500197D02*
X159490713Y-94488292D01*
X159490713Y-94488292D02*
X159431189Y-94488292D01*
X159431189Y-94488292D02*
X159407380Y-94500197D01*
X159407380Y-94500197D02*
X159395475Y-94512102D01*
X159395475Y-94512102D02*
X159383570Y-94535911D01*
X159383570Y-94535911D02*
X159383570Y-94595435D01*
X159383570Y-94595435D02*
X159395475Y-94619245D01*
X159395475Y-94619245D02*
X159407380Y-94631150D01*
X159407380Y-94631150D02*
X159431189Y-94643054D01*
X159431189Y-94643054D02*
X159490713Y-94643054D01*
X159490713Y-94643054D02*
X159514523Y-94631150D01*
X159514523Y-94631150D02*
X159526427Y-94619245D01*
X149437856Y-98743054D02*
X149580713Y-98743054D01*
X149509285Y-98743054D02*
X149509285Y-98493054D01*
X149509285Y-98493054D02*
X149533094Y-98528769D01*
X149533094Y-98528769D02*
X149556904Y-98552578D01*
X149556904Y-98552578D02*
X149580713Y-98564483D01*
X149283095Y-98493054D02*
X149259285Y-98493054D01*
X149259285Y-98493054D02*
X149235476Y-98504959D01*
X149235476Y-98504959D02*
X149223571Y-98516864D01*
X149223571Y-98516864D02*
X149211666Y-98540673D01*
X149211666Y-98540673D02*
X149199761Y-98588292D01*
X149199761Y-98588292D02*
X149199761Y-98647816D01*
X149199761Y-98647816D02*
X149211666Y-98695435D01*
X149211666Y-98695435D02*
X149223571Y-98719245D01*
X149223571Y-98719245D02*
X149235476Y-98731150D01*
X149235476Y-98731150D02*
X149259285Y-98743054D01*
X149259285Y-98743054D02*
X149283095Y-98743054D01*
X149283095Y-98743054D02*
X149306904Y-98731150D01*
X149306904Y-98731150D02*
X149318809Y-98719245D01*
X149318809Y-98719245D02*
X149330714Y-98695435D01*
X149330714Y-98695435D02*
X149342618Y-98647816D01*
X149342618Y-98647816D02*
X149342618Y-98588292D01*
X149342618Y-98588292D02*
X149330714Y-98540673D01*
X149330714Y-98540673D02*
X149318809Y-98516864D01*
X149318809Y-98516864D02*
X149306904Y-98504959D01*
X149306904Y-98504959D02*
X149283095Y-98493054D01*
X148985476Y-98576388D02*
X148985476Y-98743054D01*
X149092619Y-98576388D02*
X149092619Y-98707340D01*
X149092619Y-98707340D02*
X149080714Y-98731150D01*
X149080714Y-98731150D02*
X149056904Y-98743054D01*
X149056904Y-98743054D02*
X149021190Y-98743054D01*
X149021190Y-98743054D02*
X148997381Y-98731150D01*
X148997381Y-98731150D02*
X148985476Y-98719245D01*
X148783095Y-98612102D02*
X148866429Y-98612102D01*
X148866429Y-98743054D02*
X148866429Y-98493054D01*
X148866429Y-98493054D02*
X148747381Y-98493054D01*
X149330714Y-98159245D02*
X149342618Y-98171150D01*
X149342618Y-98171150D02*
X149378333Y-98183054D01*
X149378333Y-98183054D02*
X149402142Y-98183054D01*
X149402142Y-98183054D02*
X149437856Y-98171150D01*
X149437856Y-98171150D02*
X149461666Y-98147340D01*
X149461666Y-98147340D02*
X149473571Y-98123530D01*
X149473571Y-98123530D02*
X149485475Y-98075911D01*
X149485475Y-98075911D02*
X149485475Y-98040197D01*
X149485475Y-98040197D02*
X149473571Y-97992578D01*
X149473571Y-97992578D02*
X149461666Y-97968769D01*
X149461666Y-97968769D02*
X149437856Y-97944959D01*
X149437856Y-97944959D02*
X149402142Y-97933054D01*
X149402142Y-97933054D02*
X149378333Y-97933054D01*
X149378333Y-97933054D02*
X149342618Y-97944959D01*
X149342618Y-97944959D02*
X149330714Y-97956864D01*
X149092618Y-98183054D02*
X149235475Y-98183054D01*
X149164047Y-98183054D02*
X149164047Y-97933054D01*
X149164047Y-97933054D02*
X149187856Y-97968769D01*
X149187856Y-97968769D02*
X149211666Y-97992578D01*
X149211666Y-97992578D02*
X149235475Y-98004483D01*
X148854523Y-98183054D02*
X148997380Y-98183054D01*
X148925952Y-98183054D02*
X148925952Y-97933054D01*
X148925952Y-97933054D02*
X148949761Y-97968769D01*
X148949761Y-97968769D02*
X148973571Y-97992578D01*
X148973571Y-97992578D02*
X148997380Y-98004483D01*
X140108808Y-99443054D02*
X140251665Y-99443054D01*
X140180237Y-99443054D02*
X140180237Y-99193054D01*
X140180237Y-99193054D02*
X140204046Y-99228769D01*
X140204046Y-99228769D02*
X140227856Y-99252578D01*
X140227856Y-99252578D02*
X140251665Y-99264483D01*
X139894523Y-99276388D02*
X139894523Y-99443054D01*
X140001666Y-99276388D02*
X140001666Y-99407340D01*
X140001666Y-99407340D02*
X139989761Y-99431150D01*
X139989761Y-99431150D02*
X139965951Y-99443054D01*
X139965951Y-99443054D02*
X139930237Y-99443054D01*
X139930237Y-99443054D02*
X139906428Y-99431150D01*
X139906428Y-99431150D02*
X139894523Y-99419245D01*
X139692142Y-99312102D02*
X139775476Y-99312102D01*
X139775476Y-99443054D02*
X139775476Y-99193054D01*
X139775476Y-99193054D02*
X139656428Y-99193054D01*
X140120710Y-98879245D02*
X140132614Y-98891150D01*
X140132614Y-98891150D02*
X140168329Y-98903054D01*
X140168329Y-98903054D02*
X140192138Y-98903054D01*
X140192138Y-98903054D02*
X140227852Y-98891150D01*
X140227852Y-98891150D02*
X140251662Y-98867340D01*
X140251662Y-98867340D02*
X140263567Y-98843530D01*
X140263567Y-98843530D02*
X140275471Y-98795911D01*
X140275471Y-98795911D02*
X140275471Y-98760197D01*
X140275471Y-98760197D02*
X140263567Y-98712578D01*
X140263567Y-98712578D02*
X140251662Y-98688769D01*
X140251662Y-98688769D02*
X140227852Y-98664959D01*
X140227852Y-98664959D02*
X140192138Y-98653054D01*
X140192138Y-98653054D02*
X140168329Y-98653054D01*
X140168329Y-98653054D02*
X140132614Y-98664959D01*
X140132614Y-98664959D02*
X140120710Y-98676864D01*
X139882614Y-98903054D02*
X140025471Y-98903054D01*
X139954043Y-98903054D02*
X139954043Y-98653054D01*
X139954043Y-98653054D02*
X139977852Y-98688769D01*
X139977852Y-98688769D02*
X140001662Y-98712578D01*
X140001662Y-98712578D02*
X140025471Y-98724483D01*
X139727853Y-98653054D02*
X139704043Y-98653054D01*
X139704043Y-98653054D02*
X139680234Y-98664959D01*
X139680234Y-98664959D02*
X139668329Y-98676864D01*
X139668329Y-98676864D02*
X139656424Y-98700673D01*
X139656424Y-98700673D02*
X139644519Y-98748292D01*
X139644519Y-98748292D02*
X139644519Y-98807816D01*
X139644519Y-98807816D02*
X139656424Y-98855435D01*
X139656424Y-98855435D02*
X139668329Y-98879245D01*
X139668329Y-98879245D02*
X139680234Y-98891150D01*
X139680234Y-98891150D02*
X139704043Y-98903054D01*
X139704043Y-98903054D02*
X139727853Y-98903054D01*
X139727853Y-98903054D02*
X139751662Y-98891150D01*
X139751662Y-98891150D02*
X139763567Y-98879245D01*
X139763567Y-98879245D02*
X139775472Y-98855435D01*
X139775472Y-98855435D02*
X139787376Y-98807816D01*
X139787376Y-98807816D02*
X139787376Y-98748292D01*
X139787376Y-98748292D02*
X139775472Y-98700673D01*
X139775472Y-98700673D02*
X139763567Y-98676864D01*
X139763567Y-98676864D02*
X139751662Y-98664959D01*
X139751662Y-98664959D02*
X139727853Y-98653054D01*
X158483054Y-108363096D02*
X158483054Y-108220239D01*
X158483054Y-108291667D02*
X158233054Y-108291667D01*
X158233054Y-108291667D02*
X158268769Y-108267858D01*
X158268769Y-108267858D02*
X158292578Y-108244048D01*
X158292578Y-108244048D02*
X158304483Y-108220239D01*
X158233054Y-108517857D02*
X158233054Y-108541667D01*
X158233054Y-108541667D02*
X158244959Y-108565476D01*
X158244959Y-108565476D02*
X158256864Y-108577381D01*
X158256864Y-108577381D02*
X158280673Y-108589286D01*
X158280673Y-108589286D02*
X158328292Y-108601191D01*
X158328292Y-108601191D02*
X158387816Y-108601191D01*
X158387816Y-108601191D02*
X158435435Y-108589286D01*
X158435435Y-108589286D02*
X158459245Y-108577381D01*
X158459245Y-108577381D02*
X158471150Y-108565476D01*
X158471150Y-108565476D02*
X158483054Y-108541667D01*
X158483054Y-108541667D02*
X158483054Y-108517857D01*
X158483054Y-108517857D02*
X158471150Y-108494048D01*
X158471150Y-108494048D02*
X158459245Y-108482143D01*
X158459245Y-108482143D02*
X158435435Y-108470238D01*
X158435435Y-108470238D02*
X158387816Y-108458334D01*
X158387816Y-108458334D02*
X158328292Y-108458334D01*
X158328292Y-108458334D02*
X158280673Y-108470238D01*
X158280673Y-108470238D02*
X158256864Y-108482143D01*
X158256864Y-108482143D02*
X158244959Y-108494048D01*
X158244959Y-108494048D02*
X158233054Y-108517857D01*
X158233054Y-108755952D02*
X158233054Y-108779762D01*
X158233054Y-108779762D02*
X158244959Y-108803571D01*
X158244959Y-108803571D02*
X158256864Y-108815476D01*
X158256864Y-108815476D02*
X158280673Y-108827381D01*
X158280673Y-108827381D02*
X158328292Y-108839286D01*
X158328292Y-108839286D02*
X158387816Y-108839286D01*
X158387816Y-108839286D02*
X158435435Y-108827381D01*
X158435435Y-108827381D02*
X158459245Y-108815476D01*
X158459245Y-108815476D02*
X158471150Y-108803571D01*
X158471150Y-108803571D02*
X158483054Y-108779762D01*
X158483054Y-108779762D02*
X158483054Y-108755952D01*
X158483054Y-108755952D02*
X158471150Y-108732143D01*
X158471150Y-108732143D02*
X158459245Y-108720238D01*
X158459245Y-108720238D02*
X158435435Y-108708333D01*
X158435435Y-108708333D02*
X158387816Y-108696429D01*
X158387816Y-108696429D02*
X158328292Y-108696429D01*
X158328292Y-108696429D02*
X158280673Y-108708333D01*
X158280673Y-108708333D02*
X158256864Y-108720238D01*
X158256864Y-108720238D02*
X158244959Y-108732143D01*
X158244959Y-108732143D02*
X158233054Y-108755952D01*
X158316388Y-108946428D02*
X158483054Y-108946428D01*
X158340197Y-108946428D02*
X158328292Y-108958333D01*
X158328292Y-108958333D02*
X158316388Y-108982143D01*
X158316388Y-108982143D02*
X158316388Y-109017857D01*
X158316388Y-109017857D02*
X158328292Y-109041666D01*
X158328292Y-109041666D02*
X158352102Y-109053571D01*
X158352102Y-109053571D02*
X158483054Y-109053571D01*
X158352102Y-109255952D02*
X158352102Y-109172618D01*
X158483054Y-109172618D02*
X158233054Y-109172618D01*
X158233054Y-109172618D02*
X158233054Y-109291666D01*
X157826745Y-108700833D02*
X157838650Y-108688929D01*
X157838650Y-108688929D02*
X157850554Y-108653214D01*
X157850554Y-108653214D02*
X157850554Y-108629405D01*
X157850554Y-108629405D02*
X157838650Y-108593691D01*
X157838650Y-108593691D02*
X157814840Y-108569881D01*
X157814840Y-108569881D02*
X157791030Y-108557976D01*
X157791030Y-108557976D02*
X157743411Y-108546072D01*
X157743411Y-108546072D02*
X157707697Y-108546072D01*
X157707697Y-108546072D02*
X157660078Y-108557976D01*
X157660078Y-108557976D02*
X157636269Y-108569881D01*
X157636269Y-108569881D02*
X157612459Y-108593691D01*
X157612459Y-108593691D02*
X157600554Y-108629405D01*
X157600554Y-108629405D02*
X157600554Y-108653214D01*
X157600554Y-108653214D02*
X157612459Y-108688929D01*
X157612459Y-108688929D02*
X157624364Y-108700833D01*
X157683888Y-108915119D02*
X157850554Y-108915119D01*
X157588650Y-108855595D02*
X157767221Y-108796072D01*
X157767221Y-108796072D02*
X157767221Y-108950833D01*
D12*
X137590617Y-99533028D02*
X137590617Y-99807314D01*
X138070617Y-99670171D02*
X137590617Y-99670171D01*
X138070617Y-99967313D02*
X137590617Y-99967313D01*
X137590617Y-99967313D02*
X137590617Y-100150170D01*
X137590617Y-100150170D02*
X137613474Y-100195885D01*
X137613474Y-100195885D02*
X137636331Y-100218742D01*
X137636331Y-100218742D02*
X137682045Y-100241599D01*
X137682045Y-100241599D02*
X137750617Y-100241599D01*
X137750617Y-100241599D02*
X137796331Y-100218742D01*
X137796331Y-100218742D02*
X137819188Y-100195885D01*
X137819188Y-100195885D02*
X137842045Y-100150170D01*
X137842045Y-100150170D02*
X137842045Y-99967313D01*
X138070617Y-100447313D02*
X137590617Y-100447313D01*
X137590617Y-100447313D02*
X137590617Y-100561599D01*
X137590617Y-100561599D02*
X137613474Y-100630170D01*
X137613474Y-100630170D02*
X137659188Y-100675885D01*
X137659188Y-100675885D02*
X137704902Y-100698742D01*
X137704902Y-100698742D02*
X137796331Y-100721599D01*
X137796331Y-100721599D02*
X137864902Y-100721599D01*
X137864902Y-100721599D02*
X137956331Y-100698742D01*
X137956331Y-100698742D02*
X138002045Y-100675885D01*
X138002045Y-100675885D02*
X138047760Y-100630170D01*
X138047760Y-100630170D02*
X138070617Y-100561599D01*
X138070617Y-100561599D02*
X138070617Y-100447313D01*
X137750617Y-101133028D02*
X138070617Y-101133028D01*
X137567760Y-101018742D02*
X137910617Y-100904456D01*
X137910617Y-100904456D02*
X137910617Y-101201599D01*
X137819188Y-101384456D02*
X137819188Y-101544456D01*
X138070617Y-101613028D02*
X138070617Y-101384456D01*
X138070617Y-101384456D02*
X137590617Y-101384456D01*
X137590617Y-101384456D02*
X137590617Y-101613028D01*
X138070617Y-102070171D02*
X138070617Y-101795885D01*
X138070617Y-101933028D02*
X137590617Y-101933028D01*
X137590617Y-101933028D02*
X137659188Y-101887314D01*
X137659188Y-101887314D02*
X137704902Y-101841599D01*
X137704902Y-101841599D02*
X137727760Y-101795885D01*
X137819188Y-102435885D02*
X137842045Y-102504457D01*
X137842045Y-102504457D02*
X137864902Y-102527314D01*
X137864902Y-102527314D02*
X137910617Y-102550171D01*
X137910617Y-102550171D02*
X137979188Y-102550171D01*
X137979188Y-102550171D02*
X138024902Y-102527314D01*
X138024902Y-102527314D02*
X138047760Y-102504457D01*
X138047760Y-102504457D02*
X138070617Y-102458742D01*
X138070617Y-102458742D02*
X138070617Y-102275885D01*
X138070617Y-102275885D02*
X137590617Y-102275885D01*
X137590617Y-102275885D02*
X137590617Y-102435885D01*
X137590617Y-102435885D02*
X137613474Y-102481600D01*
X137613474Y-102481600D02*
X137636331Y-102504457D01*
X137636331Y-102504457D02*
X137682045Y-102527314D01*
X137682045Y-102527314D02*
X137727760Y-102527314D01*
X137727760Y-102527314D02*
X137773474Y-102504457D01*
X137773474Y-102504457D02*
X137796331Y-102481600D01*
X137796331Y-102481600D02*
X137819188Y-102435885D01*
X137819188Y-102435885D02*
X137819188Y-102275885D01*
X137590617Y-102847314D02*
X137590617Y-102893028D01*
X137590617Y-102893028D02*
X137613474Y-102938742D01*
X137613474Y-102938742D02*
X137636331Y-102961600D01*
X137636331Y-102961600D02*
X137682045Y-102984457D01*
X137682045Y-102984457D02*
X137773474Y-103007314D01*
X137773474Y-103007314D02*
X137887760Y-103007314D01*
X137887760Y-103007314D02*
X137979188Y-102984457D01*
X137979188Y-102984457D02*
X138024902Y-102961600D01*
X138024902Y-102961600D02*
X138047760Y-102938742D01*
X138047760Y-102938742D02*
X138070617Y-102893028D01*
X138070617Y-102893028D02*
X138070617Y-102847314D01*
X138070617Y-102847314D02*
X138047760Y-102801600D01*
X138047760Y-102801600D02*
X138024902Y-102778742D01*
X138024902Y-102778742D02*
X137979188Y-102755885D01*
X137979188Y-102755885D02*
X137887760Y-102733028D01*
X137887760Y-102733028D02*
X137773474Y-102733028D01*
X137773474Y-102733028D02*
X137682045Y-102755885D01*
X137682045Y-102755885D02*
X137636331Y-102778742D01*
X137636331Y-102778742D02*
X137613474Y-102801600D01*
X137613474Y-102801600D02*
X137590617Y-102847314D01*
X137590617Y-103418743D02*
X137590617Y-103327314D01*
X137590617Y-103327314D02*
X137613474Y-103281600D01*
X137613474Y-103281600D02*
X137636331Y-103258743D01*
X137636331Y-103258743D02*
X137704902Y-103213028D01*
X137704902Y-103213028D02*
X137796331Y-103190171D01*
X137796331Y-103190171D02*
X137979188Y-103190171D01*
X137979188Y-103190171D02*
X138024902Y-103213028D01*
X138024902Y-103213028D02*
X138047760Y-103235885D01*
X138047760Y-103235885D02*
X138070617Y-103281600D01*
X138070617Y-103281600D02*
X138070617Y-103373028D01*
X138070617Y-103373028D02*
X138047760Y-103418743D01*
X138047760Y-103418743D02*
X138024902Y-103441600D01*
X138024902Y-103441600D02*
X137979188Y-103464457D01*
X137979188Y-103464457D02*
X137864902Y-103464457D01*
X137864902Y-103464457D02*
X137819188Y-103441600D01*
X137819188Y-103441600D02*
X137796331Y-103418743D01*
X137796331Y-103418743D02*
X137773474Y-103373028D01*
X137773474Y-103373028D02*
X137773474Y-103281600D01*
X137773474Y-103281600D02*
X137796331Y-103235885D01*
X137796331Y-103235885D02*
X137819188Y-103213028D01*
X137819188Y-103213028D02*
X137864902Y-103190171D01*
X138070617Y-103670171D02*
X137590617Y-103670171D01*
X137590617Y-103670171D02*
X137590617Y-103784457D01*
X137590617Y-103784457D02*
X137613474Y-103853028D01*
X137613474Y-103853028D02*
X137659188Y-103898743D01*
X137659188Y-103898743D02*
X137704902Y-103921600D01*
X137704902Y-103921600D02*
X137796331Y-103944457D01*
X137796331Y-103944457D02*
X137864902Y-103944457D01*
X137864902Y-103944457D02*
X137956331Y-103921600D01*
X137956331Y-103921600D02*
X138002045Y-103898743D01*
X138002045Y-103898743D02*
X138047760Y-103853028D01*
X138047760Y-103853028D02*
X138070617Y-103784457D01*
X138070617Y-103784457D02*
X138070617Y-103670171D01*
X138024902Y-104424457D02*
X138047760Y-104401600D01*
X138047760Y-104401600D02*
X138070617Y-104333028D01*
X138070617Y-104333028D02*
X138070617Y-104287314D01*
X138070617Y-104287314D02*
X138047760Y-104218743D01*
X138047760Y-104218743D02*
X138002045Y-104173028D01*
X138002045Y-104173028D02*
X137956331Y-104150171D01*
X137956331Y-104150171D02*
X137864902Y-104127314D01*
X137864902Y-104127314D02*
X137796331Y-104127314D01*
X137796331Y-104127314D02*
X137704902Y-104150171D01*
X137704902Y-104150171D02*
X137659188Y-104173028D01*
X137659188Y-104173028D02*
X137613474Y-104218743D01*
X137613474Y-104218743D02*
X137590617Y-104287314D01*
X137590617Y-104287314D02*
X137590617Y-104333028D01*
X137590617Y-104333028D02*
X137613474Y-104401600D01*
X137613474Y-104401600D02*
X137636331Y-104424457D01*
X138070617Y-104630171D02*
X137590617Y-104630171D01*
X138070617Y-104904457D02*
X137796331Y-104698743D01*
X137590617Y-104904457D02*
X137864902Y-104630171D01*
X138070617Y-105384457D02*
X137842045Y-105224457D01*
X138070617Y-105110171D02*
X137590617Y-105110171D01*
X137590617Y-105110171D02*
X137590617Y-105293028D01*
X137590617Y-105293028D02*
X137613474Y-105338743D01*
X137613474Y-105338743D02*
X137636331Y-105361600D01*
X137636331Y-105361600D02*
X137682045Y-105384457D01*
X137682045Y-105384457D02*
X137750617Y-105384457D01*
X137750617Y-105384457D02*
X137796331Y-105361600D01*
X137796331Y-105361600D02*
X137819188Y-105338743D01*
X137819188Y-105338743D02*
X137842045Y-105293028D01*
X137842045Y-105293028D02*
X137842045Y-105110171D01*
D10*
X142393054Y-103602143D02*
X142393054Y-103459286D01*
X142393054Y-103530714D02*
X142143054Y-103530714D01*
X142143054Y-103530714D02*
X142178769Y-103506905D01*
X142178769Y-103506905D02*
X142202578Y-103483095D01*
X142202578Y-103483095D02*
X142214483Y-103459286D01*
X142143054Y-103828333D02*
X142143054Y-103709285D01*
X142143054Y-103709285D02*
X142262102Y-103697381D01*
X142262102Y-103697381D02*
X142250197Y-103709285D01*
X142250197Y-103709285D02*
X142238292Y-103733095D01*
X142238292Y-103733095D02*
X142238292Y-103792619D01*
X142238292Y-103792619D02*
X142250197Y-103816428D01*
X142250197Y-103816428D02*
X142262102Y-103828333D01*
X142262102Y-103828333D02*
X142285911Y-103840238D01*
X142285911Y-103840238D02*
X142345435Y-103840238D01*
X142345435Y-103840238D02*
X142369245Y-103828333D01*
X142369245Y-103828333D02*
X142381150Y-103816428D01*
X142381150Y-103816428D02*
X142393054Y-103792619D01*
X142393054Y-103792619D02*
X142393054Y-103733095D01*
X142393054Y-103733095D02*
X142381150Y-103709285D01*
X142381150Y-103709285D02*
X142369245Y-103697381D01*
X142143054Y-103994999D02*
X142143054Y-104018809D01*
X142143054Y-104018809D02*
X142154959Y-104042618D01*
X142154959Y-104042618D02*
X142166864Y-104054523D01*
X142166864Y-104054523D02*
X142190673Y-104066428D01*
X142190673Y-104066428D02*
X142238292Y-104078333D01*
X142238292Y-104078333D02*
X142297816Y-104078333D01*
X142297816Y-104078333D02*
X142345435Y-104066428D01*
X142345435Y-104066428D02*
X142369245Y-104054523D01*
X142369245Y-104054523D02*
X142381150Y-104042618D01*
X142381150Y-104042618D02*
X142393054Y-104018809D01*
X142393054Y-104018809D02*
X142393054Y-103994999D01*
X142393054Y-103994999D02*
X142381150Y-103971190D01*
X142381150Y-103971190D02*
X142369245Y-103959285D01*
X142369245Y-103959285D02*
X142345435Y-103947380D01*
X142345435Y-103947380D02*
X142297816Y-103935476D01*
X142297816Y-103935476D02*
X142238292Y-103935476D01*
X142238292Y-103935476D02*
X142190673Y-103947380D01*
X142190673Y-103947380D02*
X142166864Y-103959285D01*
X142166864Y-103959285D02*
X142154959Y-103971190D01*
X142154959Y-103971190D02*
X142143054Y-103994999D01*
X142393054Y-104185475D02*
X142143054Y-104185475D01*
X142297816Y-104209285D02*
X142393054Y-104280713D01*
X142226388Y-104280713D02*
X142321626Y-104185475D01*
X142393054Y-104888333D02*
X142274007Y-104805000D01*
X142393054Y-104745476D02*
X142143054Y-104745476D01*
X142143054Y-104745476D02*
X142143054Y-104840714D01*
X142143054Y-104840714D02*
X142154959Y-104864524D01*
X142154959Y-104864524D02*
X142166864Y-104876429D01*
X142166864Y-104876429D02*
X142190673Y-104888333D01*
X142190673Y-104888333D02*
X142226388Y-104888333D01*
X142226388Y-104888333D02*
X142250197Y-104876429D01*
X142250197Y-104876429D02*
X142262102Y-104864524D01*
X142262102Y-104864524D02*
X142274007Y-104840714D01*
X142274007Y-104840714D02*
X142274007Y-104745476D01*
X142166864Y-104983572D02*
X142154959Y-104995476D01*
X142154959Y-104995476D02*
X142143054Y-105019286D01*
X142143054Y-105019286D02*
X142143054Y-105078810D01*
X142143054Y-105078810D02*
X142154959Y-105102619D01*
X142154959Y-105102619D02*
X142166864Y-105114524D01*
X142166864Y-105114524D02*
X142190673Y-105126429D01*
X142190673Y-105126429D02*
X142214483Y-105126429D01*
X142214483Y-105126429D02*
X142250197Y-105114524D01*
X142250197Y-105114524D02*
X142393054Y-104971667D01*
X142393054Y-104971667D02*
X142393054Y-105126429D01*
X150323054Y-99272143D02*
X150323054Y-99129286D01*
X150323054Y-99200714D02*
X150073054Y-99200714D01*
X150073054Y-99200714D02*
X150108769Y-99176905D01*
X150108769Y-99176905D02*
X150132578Y-99153095D01*
X150132578Y-99153095D02*
X150144483Y-99129286D01*
X150073054Y-99426904D02*
X150073054Y-99450714D01*
X150073054Y-99450714D02*
X150084959Y-99474523D01*
X150084959Y-99474523D02*
X150096864Y-99486428D01*
X150096864Y-99486428D02*
X150120673Y-99498333D01*
X150120673Y-99498333D02*
X150168292Y-99510238D01*
X150168292Y-99510238D02*
X150227816Y-99510238D01*
X150227816Y-99510238D02*
X150275435Y-99498333D01*
X150275435Y-99498333D02*
X150299245Y-99486428D01*
X150299245Y-99486428D02*
X150311150Y-99474523D01*
X150311150Y-99474523D02*
X150323054Y-99450714D01*
X150323054Y-99450714D02*
X150323054Y-99426904D01*
X150323054Y-99426904D02*
X150311150Y-99403095D01*
X150311150Y-99403095D02*
X150299245Y-99391190D01*
X150299245Y-99391190D02*
X150275435Y-99379285D01*
X150275435Y-99379285D02*
X150227816Y-99367381D01*
X150227816Y-99367381D02*
X150168292Y-99367381D01*
X150168292Y-99367381D02*
X150120673Y-99379285D01*
X150120673Y-99379285D02*
X150096864Y-99391190D01*
X150096864Y-99391190D02*
X150084959Y-99403095D01*
X150084959Y-99403095D02*
X150073054Y-99426904D01*
X150156388Y-99724523D02*
X150323054Y-99724523D01*
X150156388Y-99617380D02*
X150287340Y-99617380D01*
X150287340Y-99617380D02*
X150311150Y-99629285D01*
X150311150Y-99629285D02*
X150323054Y-99653095D01*
X150323054Y-99653095D02*
X150323054Y-99688809D01*
X150323054Y-99688809D02*
X150311150Y-99712618D01*
X150311150Y-99712618D02*
X150299245Y-99724523D01*
X150192102Y-99926904D02*
X150192102Y-99843570D01*
X150323054Y-99843570D02*
X150073054Y-99843570D01*
X150073054Y-99843570D02*
X150073054Y-99962618D01*
X149709245Y-99379285D02*
X149721150Y-99367381D01*
X149721150Y-99367381D02*
X149733054Y-99331666D01*
X149733054Y-99331666D02*
X149733054Y-99307857D01*
X149733054Y-99307857D02*
X149721150Y-99272143D01*
X149721150Y-99272143D02*
X149697340Y-99248333D01*
X149697340Y-99248333D02*
X149673530Y-99236428D01*
X149673530Y-99236428D02*
X149625911Y-99224524D01*
X149625911Y-99224524D02*
X149590197Y-99224524D01*
X149590197Y-99224524D02*
X149542578Y-99236428D01*
X149542578Y-99236428D02*
X149518769Y-99248333D01*
X149518769Y-99248333D02*
X149494959Y-99272143D01*
X149494959Y-99272143D02*
X149483054Y-99307857D01*
X149483054Y-99307857D02*
X149483054Y-99331666D01*
X149483054Y-99331666D02*
X149494959Y-99367381D01*
X149494959Y-99367381D02*
X149506864Y-99379285D01*
X149733054Y-99617381D02*
X149733054Y-99474524D01*
X149733054Y-99545952D02*
X149483054Y-99545952D01*
X149483054Y-99545952D02*
X149518769Y-99522143D01*
X149518769Y-99522143D02*
X149542578Y-99498333D01*
X149542578Y-99498333D02*
X149554483Y-99474524D01*
X149483054Y-99843571D02*
X149483054Y-99724523D01*
X149483054Y-99724523D02*
X149602102Y-99712619D01*
X149602102Y-99712619D02*
X149590197Y-99724523D01*
X149590197Y-99724523D02*
X149578292Y-99748333D01*
X149578292Y-99748333D02*
X149578292Y-99807857D01*
X149578292Y-99807857D02*
X149590197Y-99831666D01*
X149590197Y-99831666D02*
X149602102Y-99843571D01*
X149602102Y-99843571D02*
X149625911Y-99855476D01*
X149625911Y-99855476D02*
X149685435Y-99855476D01*
X149685435Y-99855476D02*
X149709245Y-99843571D01*
X149709245Y-99843571D02*
X149721150Y-99831666D01*
X149721150Y-99831666D02*
X149733054Y-99807857D01*
X149733054Y-99807857D02*
X149733054Y-99748333D01*
X149733054Y-99748333D02*
X149721150Y-99724523D01*
X149721150Y-99724523D02*
X149709245Y-99712619D01*
X151931666Y-101633054D02*
X152050714Y-101633054D01*
X152050714Y-101633054D02*
X152050714Y-101383054D01*
X151860237Y-101406864D02*
X151848333Y-101394959D01*
X151848333Y-101394959D02*
X151824523Y-101383054D01*
X151824523Y-101383054D02*
X151764999Y-101383054D01*
X151764999Y-101383054D02*
X151741190Y-101394959D01*
X151741190Y-101394959D02*
X151729285Y-101406864D01*
X151729285Y-101406864D02*
X151717380Y-101430673D01*
X151717380Y-101430673D02*
X151717380Y-101454483D01*
X151717380Y-101454483D02*
X151729285Y-101490197D01*
X151729285Y-101490197D02*
X151872142Y-101633054D01*
X151872142Y-101633054D02*
X151717380Y-101633054D01*
X139107856Y-101463054D02*
X139250713Y-101463054D01*
X139179285Y-101463054D02*
X139179285Y-101213054D01*
X139179285Y-101213054D02*
X139203094Y-101248769D01*
X139203094Y-101248769D02*
X139226904Y-101272578D01*
X139226904Y-101272578D02*
X139250713Y-101284483D01*
X138953095Y-101213054D02*
X138929285Y-101213054D01*
X138929285Y-101213054D02*
X138905476Y-101224959D01*
X138905476Y-101224959D02*
X138893571Y-101236864D01*
X138893571Y-101236864D02*
X138881666Y-101260673D01*
X138881666Y-101260673D02*
X138869761Y-101308292D01*
X138869761Y-101308292D02*
X138869761Y-101367816D01*
X138869761Y-101367816D02*
X138881666Y-101415435D01*
X138881666Y-101415435D02*
X138893571Y-101439245D01*
X138893571Y-101439245D02*
X138905476Y-101451150D01*
X138905476Y-101451150D02*
X138929285Y-101463054D01*
X138929285Y-101463054D02*
X138953095Y-101463054D01*
X138953095Y-101463054D02*
X138976904Y-101451150D01*
X138976904Y-101451150D02*
X138988809Y-101439245D01*
X138988809Y-101439245D02*
X139000714Y-101415435D01*
X139000714Y-101415435D02*
X139012618Y-101367816D01*
X139012618Y-101367816D02*
X139012618Y-101308292D01*
X139012618Y-101308292D02*
X139000714Y-101260673D01*
X139000714Y-101260673D02*
X138988809Y-101236864D01*
X138988809Y-101236864D02*
X138976904Y-101224959D01*
X138976904Y-101224959D02*
X138953095Y-101213054D01*
X138655476Y-101296388D02*
X138655476Y-101463054D01*
X138762619Y-101296388D02*
X138762619Y-101427340D01*
X138762619Y-101427340D02*
X138750714Y-101451150D01*
X138750714Y-101451150D02*
X138726904Y-101463054D01*
X138726904Y-101463054D02*
X138691190Y-101463054D01*
X138691190Y-101463054D02*
X138667381Y-101451150D01*
X138667381Y-101451150D02*
X138655476Y-101439245D01*
X138453095Y-101332102D02*
X138536429Y-101332102D01*
X138536429Y-101463054D02*
X138536429Y-101213054D01*
X138536429Y-101213054D02*
X138417381Y-101213054D01*
X140120714Y-101439245D02*
X140132618Y-101451150D01*
X140132618Y-101451150D02*
X140168333Y-101463054D01*
X140168333Y-101463054D02*
X140192142Y-101463054D01*
X140192142Y-101463054D02*
X140227856Y-101451150D01*
X140227856Y-101451150D02*
X140251666Y-101427340D01*
X140251666Y-101427340D02*
X140263571Y-101403530D01*
X140263571Y-101403530D02*
X140275475Y-101355911D01*
X140275475Y-101355911D02*
X140275475Y-101320197D01*
X140275475Y-101320197D02*
X140263571Y-101272578D01*
X140263571Y-101272578D02*
X140251666Y-101248769D01*
X140251666Y-101248769D02*
X140227856Y-101224959D01*
X140227856Y-101224959D02*
X140192142Y-101213054D01*
X140192142Y-101213054D02*
X140168333Y-101213054D01*
X140168333Y-101213054D02*
X140132618Y-101224959D01*
X140132618Y-101224959D02*
X140120714Y-101236864D01*
X139882618Y-101463054D02*
X140025475Y-101463054D01*
X139954047Y-101463054D02*
X139954047Y-101213054D01*
X139954047Y-101213054D02*
X139977856Y-101248769D01*
X139977856Y-101248769D02*
X140001666Y-101272578D01*
X140001666Y-101272578D02*
X140025475Y-101284483D01*
X139739761Y-101320197D02*
X139763571Y-101308292D01*
X139763571Y-101308292D02*
X139775476Y-101296388D01*
X139775476Y-101296388D02*
X139787380Y-101272578D01*
X139787380Y-101272578D02*
X139787380Y-101260673D01*
X139787380Y-101260673D02*
X139775476Y-101236864D01*
X139775476Y-101236864D02*
X139763571Y-101224959D01*
X139763571Y-101224959D02*
X139739761Y-101213054D01*
X139739761Y-101213054D02*
X139692142Y-101213054D01*
X139692142Y-101213054D02*
X139668333Y-101224959D01*
X139668333Y-101224959D02*
X139656428Y-101236864D01*
X139656428Y-101236864D02*
X139644523Y-101260673D01*
X139644523Y-101260673D02*
X139644523Y-101272578D01*
X139644523Y-101272578D02*
X139656428Y-101296388D01*
X139656428Y-101296388D02*
X139668333Y-101308292D01*
X139668333Y-101308292D02*
X139692142Y-101320197D01*
X139692142Y-101320197D02*
X139739761Y-101320197D01*
X139739761Y-101320197D02*
X139763571Y-101332102D01*
X139763571Y-101332102D02*
X139775476Y-101344007D01*
X139775476Y-101344007D02*
X139787380Y-101367816D01*
X139787380Y-101367816D02*
X139787380Y-101415435D01*
X139787380Y-101415435D02*
X139775476Y-101439245D01*
X139775476Y-101439245D02*
X139763571Y-101451150D01*
X139763571Y-101451150D02*
X139739761Y-101463054D01*
X139739761Y-101463054D02*
X139692142Y-101463054D01*
X139692142Y-101463054D02*
X139668333Y-101451150D01*
X139668333Y-101451150D02*
X139656428Y-101439245D01*
X139656428Y-101439245D02*
X139644523Y-101415435D01*
X139644523Y-101415435D02*
X139644523Y-101367816D01*
X139644523Y-101367816D02*
X139656428Y-101344007D01*
X139656428Y-101344007D02*
X139668333Y-101332102D01*
X139668333Y-101332102D02*
X139692142Y-101320197D01*
X135577856Y-109222102D02*
X135542142Y-109234007D01*
X135542142Y-109234007D02*
X135530237Y-109245911D01*
X135530237Y-109245911D02*
X135518333Y-109269721D01*
X135518333Y-109269721D02*
X135518333Y-109305435D01*
X135518333Y-109305435D02*
X135530237Y-109329245D01*
X135530237Y-109329245D02*
X135542142Y-109341150D01*
X135542142Y-109341150D02*
X135565952Y-109353054D01*
X135565952Y-109353054D02*
X135661190Y-109353054D01*
X135661190Y-109353054D02*
X135661190Y-109103054D01*
X135661190Y-109103054D02*
X135577856Y-109103054D01*
X135577856Y-109103054D02*
X135554047Y-109114959D01*
X135554047Y-109114959D02*
X135542142Y-109126864D01*
X135542142Y-109126864D02*
X135530237Y-109150673D01*
X135530237Y-109150673D02*
X135530237Y-109174483D01*
X135530237Y-109174483D02*
X135542142Y-109198292D01*
X135542142Y-109198292D02*
X135554047Y-109210197D01*
X135554047Y-109210197D02*
X135577856Y-109222102D01*
X135577856Y-109222102D02*
X135661190Y-109222102D01*
X135304047Y-109353054D02*
X135304047Y-109222102D01*
X135304047Y-109222102D02*
X135315952Y-109198292D01*
X135315952Y-109198292D02*
X135339761Y-109186388D01*
X135339761Y-109186388D02*
X135387380Y-109186388D01*
X135387380Y-109186388D02*
X135411190Y-109198292D01*
X135304047Y-109341150D02*
X135327856Y-109353054D01*
X135327856Y-109353054D02*
X135387380Y-109353054D01*
X135387380Y-109353054D02*
X135411190Y-109341150D01*
X135411190Y-109341150D02*
X135423094Y-109317340D01*
X135423094Y-109317340D02*
X135423094Y-109293530D01*
X135423094Y-109293530D02*
X135411190Y-109269721D01*
X135411190Y-109269721D02*
X135387380Y-109257816D01*
X135387380Y-109257816D02*
X135327856Y-109257816D01*
X135327856Y-109257816D02*
X135304047Y-109245911D01*
X135220714Y-109186388D02*
X135125476Y-109186388D01*
X135185000Y-109103054D02*
X135185000Y-109317340D01*
X135185000Y-109317340D02*
X135173095Y-109341150D01*
X135173095Y-109341150D02*
X135149285Y-109353054D01*
X135149285Y-109353054D02*
X135125476Y-109353054D01*
X135077857Y-109186388D02*
X134982619Y-109186388D01*
X135042143Y-109103054D02*
X135042143Y-109317340D01*
X135042143Y-109317340D02*
X135030238Y-109341150D01*
X135030238Y-109341150D02*
X135006428Y-109353054D01*
X135006428Y-109353054D02*
X134982619Y-109353054D01*
X134804048Y-109341150D02*
X134827857Y-109353054D01*
X134827857Y-109353054D02*
X134875476Y-109353054D01*
X134875476Y-109353054D02*
X134899286Y-109341150D01*
X134899286Y-109341150D02*
X134911190Y-109317340D01*
X134911190Y-109317340D02*
X134911190Y-109222102D01*
X134911190Y-109222102D02*
X134899286Y-109198292D01*
X134899286Y-109198292D02*
X134875476Y-109186388D01*
X134875476Y-109186388D02*
X134827857Y-109186388D01*
X134827857Y-109186388D02*
X134804048Y-109198292D01*
X134804048Y-109198292D02*
X134792143Y-109222102D01*
X134792143Y-109222102D02*
X134792143Y-109245911D01*
X134792143Y-109245911D02*
X134911190Y-109269721D01*
X134685000Y-109353054D02*
X134685000Y-109186388D01*
X134685000Y-109234007D02*
X134673095Y-109210197D01*
X134673095Y-109210197D02*
X134661190Y-109198292D01*
X134661190Y-109198292D02*
X134637381Y-109186388D01*
X134637381Y-109186388D02*
X134613571Y-109186388D01*
X134554047Y-109186388D02*
X134494523Y-109353054D01*
X134435000Y-109186388D02*
X134494523Y-109353054D01*
X134494523Y-109353054D02*
X134518333Y-109412578D01*
X134518333Y-109412578D02*
X134530238Y-109424483D01*
X134530238Y-109424483D02*
X134554047Y-109436388D01*
X135281427Y-107852102D02*
X135245713Y-107864007D01*
X135245713Y-107864007D02*
X135233808Y-107875911D01*
X135233808Y-107875911D02*
X135221904Y-107899721D01*
X135221904Y-107899721D02*
X135221904Y-107935435D01*
X135221904Y-107935435D02*
X135233808Y-107959245D01*
X135233808Y-107959245D02*
X135245713Y-107971150D01*
X135245713Y-107971150D02*
X135269523Y-107983054D01*
X135269523Y-107983054D02*
X135364761Y-107983054D01*
X135364761Y-107983054D02*
X135364761Y-107733054D01*
X135364761Y-107733054D02*
X135281427Y-107733054D01*
X135281427Y-107733054D02*
X135257618Y-107744959D01*
X135257618Y-107744959D02*
X135245713Y-107756864D01*
X135245713Y-107756864D02*
X135233808Y-107780673D01*
X135233808Y-107780673D02*
X135233808Y-107804483D01*
X135233808Y-107804483D02*
X135245713Y-107828292D01*
X135245713Y-107828292D02*
X135257618Y-107840197D01*
X135257618Y-107840197D02*
X135281427Y-107852102D01*
X135281427Y-107852102D02*
X135364761Y-107852102D01*
X135150475Y-107733054D02*
X135007618Y-107733054D01*
X135079046Y-107983054D02*
X135079046Y-107733054D01*
X134793332Y-107983054D02*
X134936189Y-107983054D01*
X134864761Y-107983054D02*
X134864761Y-107733054D01*
X134864761Y-107733054D02*
X134888570Y-107768769D01*
X134888570Y-107768769D02*
X134912380Y-107792578D01*
X134912380Y-107792578D02*
X134936189Y-107804483D01*
X153138054Y-93405952D02*
X152888054Y-93405952D01*
X153114245Y-93667857D02*
X153126150Y-93655953D01*
X153126150Y-93655953D02*
X153138054Y-93620238D01*
X153138054Y-93620238D02*
X153138054Y-93596429D01*
X153138054Y-93596429D02*
X153126150Y-93560715D01*
X153126150Y-93560715D02*
X153102340Y-93536905D01*
X153102340Y-93536905D02*
X153078530Y-93525000D01*
X153078530Y-93525000D02*
X153030911Y-93513096D01*
X153030911Y-93513096D02*
X152995197Y-93513096D01*
X152995197Y-93513096D02*
X152947578Y-93525000D01*
X152947578Y-93525000D02*
X152923769Y-93536905D01*
X152923769Y-93536905D02*
X152899959Y-93560715D01*
X152899959Y-93560715D02*
X152888054Y-93596429D01*
X152888054Y-93596429D02*
X152888054Y-93620238D01*
X152888054Y-93620238D02*
X152899959Y-93655953D01*
X152899959Y-93655953D02*
X152911864Y-93667857D01*
X152911864Y-93763096D02*
X152899959Y-93775000D01*
X152899959Y-93775000D02*
X152888054Y-93798810D01*
X152888054Y-93798810D02*
X152888054Y-93858334D01*
X152888054Y-93858334D02*
X152899959Y-93882143D01*
X152899959Y-93882143D02*
X152911864Y-93894048D01*
X152911864Y-93894048D02*
X152935673Y-93905953D01*
X152935673Y-93905953D02*
X152959483Y-93905953D01*
X152959483Y-93905953D02*
X152995197Y-93894048D01*
X152995197Y-93894048D02*
X153138054Y-93751191D01*
X153138054Y-93751191D02*
X153138054Y-93905953D01*
D12*
X137640617Y-104533028D02*
X137640617Y-104807314D01*
X138120617Y-104670171D02*
X137640617Y-104670171D01*
X138120617Y-104967313D02*
X137640617Y-104967313D01*
X137640617Y-104967313D02*
X137640617Y-105150170D01*
X137640617Y-105150170D02*
X137663474Y-105195885D01*
X137663474Y-105195885D02*
X137686331Y-105218742D01*
X137686331Y-105218742D02*
X137732045Y-105241599D01*
X137732045Y-105241599D02*
X137800617Y-105241599D01*
X137800617Y-105241599D02*
X137846331Y-105218742D01*
X137846331Y-105218742D02*
X137869188Y-105195885D01*
X137869188Y-105195885D02*
X137892045Y-105150170D01*
X137892045Y-105150170D02*
X137892045Y-104967313D01*
X138120617Y-105447313D02*
X137640617Y-105447313D01*
X137640617Y-105447313D02*
X137640617Y-105561599D01*
X137640617Y-105561599D02*
X137663474Y-105630170D01*
X137663474Y-105630170D02*
X137709188Y-105675885D01*
X137709188Y-105675885D02*
X137754902Y-105698742D01*
X137754902Y-105698742D02*
X137846331Y-105721599D01*
X137846331Y-105721599D02*
X137914902Y-105721599D01*
X137914902Y-105721599D02*
X138006331Y-105698742D01*
X138006331Y-105698742D02*
X138052045Y-105675885D01*
X138052045Y-105675885D02*
X138097760Y-105630170D01*
X138097760Y-105630170D02*
X138120617Y-105561599D01*
X138120617Y-105561599D02*
X138120617Y-105447313D01*
X137800617Y-106133028D02*
X138120617Y-106133028D01*
X137617760Y-106018742D02*
X137960617Y-105904456D01*
X137960617Y-105904456D02*
X137960617Y-106201599D01*
X137869188Y-106384456D02*
X137869188Y-106544456D01*
X138120617Y-106613028D02*
X138120617Y-106384456D01*
X138120617Y-106384456D02*
X137640617Y-106384456D01*
X137640617Y-106384456D02*
X137640617Y-106613028D01*
X138120617Y-107070171D02*
X138120617Y-106795885D01*
X138120617Y-106933028D02*
X137640617Y-106933028D01*
X137640617Y-106933028D02*
X137709188Y-106887314D01*
X137709188Y-106887314D02*
X137754902Y-106841599D01*
X137754902Y-106841599D02*
X137777760Y-106795885D01*
X137869188Y-107435885D02*
X137892045Y-107504457D01*
X137892045Y-107504457D02*
X137914902Y-107527314D01*
X137914902Y-107527314D02*
X137960617Y-107550171D01*
X137960617Y-107550171D02*
X138029188Y-107550171D01*
X138029188Y-107550171D02*
X138074902Y-107527314D01*
X138074902Y-107527314D02*
X138097760Y-107504457D01*
X138097760Y-107504457D02*
X138120617Y-107458742D01*
X138120617Y-107458742D02*
X138120617Y-107275885D01*
X138120617Y-107275885D02*
X137640617Y-107275885D01*
X137640617Y-107275885D02*
X137640617Y-107435885D01*
X137640617Y-107435885D02*
X137663474Y-107481600D01*
X137663474Y-107481600D02*
X137686331Y-107504457D01*
X137686331Y-107504457D02*
X137732045Y-107527314D01*
X137732045Y-107527314D02*
X137777760Y-107527314D01*
X137777760Y-107527314D02*
X137823474Y-107504457D01*
X137823474Y-107504457D02*
X137846331Y-107481600D01*
X137846331Y-107481600D02*
X137869188Y-107435885D01*
X137869188Y-107435885D02*
X137869188Y-107275885D01*
X137640617Y-107847314D02*
X137640617Y-107893028D01*
X137640617Y-107893028D02*
X137663474Y-107938742D01*
X137663474Y-107938742D02*
X137686331Y-107961600D01*
X137686331Y-107961600D02*
X137732045Y-107984457D01*
X137732045Y-107984457D02*
X137823474Y-108007314D01*
X137823474Y-108007314D02*
X137937760Y-108007314D01*
X137937760Y-108007314D02*
X138029188Y-107984457D01*
X138029188Y-107984457D02*
X138074902Y-107961600D01*
X138074902Y-107961600D02*
X138097760Y-107938742D01*
X138097760Y-107938742D02*
X138120617Y-107893028D01*
X138120617Y-107893028D02*
X138120617Y-107847314D01*
X138120617Y-107847314D02*
X138097760Y-107801600D01*
X138097760Y-107801600D02*
X138074902Y-107778742D01*
X138074902Y-107778742D02*
X138029188Y-107755885D01*
X138029188Y-107755885D02*
X137937760Y-107733028D01*
X137937760Y-107733028D02*
X137823474Y-107733028D01*
X137823474Y-107733028D02*
X137732045Y-107755885D01*
X137732045Y-107755885D02*
X137686331Y-107778742D01*
X137686331Y-107778742D02*
X137663474Y-107801600D01*
X137663474Y-107801600D02*
X137640617Y-107847314D01*
X137640617Y-108418743D02*
X137640617Y-108327314D01*
X137640617Y-108327314D02*
X137663474Y-108281600D01*
X137663474Y-108281600D02*
X137686331Y-108258743D01*
X137686331Y-108258743D02*
X137754902Y-108213028D01*
X137754902Y-108213028D02*
X137846331Y-108190171D01*
X137846331Y-108190171D02*
X138029188Y-108190171D01*
X138029188Y-108190171D02*
X138074902Y-108213028D01*
X138074902Y-108213028D02*
X138097760Y-108235885D01*
X138097760Y-108235885D02*
X138120617Y-108281600D01*
X138120617Y-108281600D02*
X138120617Y-108373028D01*
X138120617Y-108373028D02*
X138097760Y-108418743D01*
X138097760Y-108418743D02*
X138074902Y-108441600D01*
X138074902Y-108441600D02*
X138029188Y-108464457D01*
X138029188Y-108464457D02*
X137914902Y-108464457D01*
X137914902Y-108464457D02*
X137869188Y-108441600D01*
X137869188Y-108441600D02*
X137846331Y-108418743D01*
X137846331Y-108418743D02*
X137823474Y-108373028D01*
X137823474Y-108373028D02*
X137823474Y-108281600D01*
X137823474Y-108281600D02*
X137846331Y-108235885D01*
X137846331Y-108235885D02*
X137869188Y-108213028D01*
X137869188Y-108213028D02*
X137914902Y-108190171D01*
X138120617Y-108670171D02*
X137640617Y-108670171D01*
X137640617Y-108670171D02*
X137640617Y-108784457D01*
X137640617Y-108784457D02*
X137663474Y-108853028D01*
X137663474Y-108853028D02*
X137709188Y-108898743D01*
X137709188Y-108898743D02*
X137754902Y-108921600D01*
X137754902Y-108921600D02*
X137846331Y-108944457D01*
X137846331Y-108944457D02*
X137914902Y-108944457D01*
X137914902Y-108944457D02*
X138006331Y-108921600D01*
X138006331Y-108921600D02*
X138052045Y-108898743D01*
X138052045Y-108898743D02*
X138097760Y-108853028D01*
X138097760Y-108853028D02*
X138120617Y-108784457D01*
X138120617Y-108784457D02*
X138120617Y-108670171D01*
X138074902Y-109424457D02*
X138097760Y-109401600D01*
X138097760Y-109401600D02*
X138120617Y-109333028D01*
X138120617Y-109333028D02*
X138120617Y-109287314D01*
X138120617Y-109287314D02*
X138097760Y-109218743D01*
X138097760Y-109218743D02*
X138052045Y-109173028D01*
X138052045Y-109173028D02*
X138006331Y-109150171D01*
X138006331Y-109150171D02*
X137914902Y-109127314D01*
X137914902Y-109127314D02*
X137846331Y-109127314D01*
X137846331Y-109127314D02*
X137754902Y-109150171D01*
X137754902Y-109150171D02*
X137709188Y-109173028D01*
X137709188Y-109173028D02*
X137663474Y-109218743D01*
X137663474Y-109218743D02*
X137640617Y-109287314D01*
X137640617Y-109287314D02*
X137640617Y-109333028D01*
X137640617Y-109333028D02*
X137663474Y-109401600D01*
X137663474Y-109401600D02*
X137686331Y-109424457D01*
X138120617Y-109630171D02*
X137640617Y-109630171D01*
X138120617Y-109904457D02*
X137846331Y-109698743D01*
X137640617Y-109904457D02*
X137914902Y-109630171D01*
X138120617Y-110384457D02*
X137892045Y-110224457D01*
X138120617Y-110110171D02*
X137640617Y-110110171D01*
X137640617Y-110110171D02*
X137640617Y-110293028D01*
X137640617Y-110293028D02*
X137663474Y-110338743D01*
X137663474Y-110338743D02*
X137686331Y-110361600D01*
X137686331Y-110361600D02*
X137732045Y-110384457D01*
X137732045Y-110384457D02*
X137800617Y-110384457D01*
X137800617Y-110384457D02*
X137846331Y-110361600D01*
X137846331Y-110361600D02*
X137869188Y-110338743D01*
X137869188Y-110338743D02*
X137892045Y-110293028D01*
X137892045Y-110293028D02*
X137892045Y-110110171D01*
D10*
X151453054Y-98348333D02*
X151453054Y-98229285D01*
X151453054Y-98229285D02*
X151203054Y-98229285D01*
X151453054Y-98562619D02*
X151453054Y-98419762D01*
X151453054Y-98491190D02*
X151203054Y-98491190D01*
X151203054Y-98491190D02*
X151238769Y-98467381D01*
X151238769Y-98467381D02*
X151262578Y-98443571D01*
X151262578Y-98443571D02*
X151274483Y-98419762D01*
X143443054Y-103602143D02*
X143443054Y-103459286D01*
X143443054Y-103530714D02*
X143193054Y-103530714D01*
X143193054Y-103530714D02*
X143228769Y-103506905D01*
X143228769Y-103506905D02*
X143252578Y-103483095D01*
X143252578Y-103483095D02*
X143264483Y-103459286D01*
X143193054Y-103828333D02*
X143193054Y-103709285D01*
X143193054Y-103709285D02*
X143312102Y-103697381D01*
X143312102Y-103697381D02*
X143300197Y-103709285D01*
X143300197Y-103709285D02*
X143288292Y-103733095D01*
X143288292Y-103733095D02*
X143288292Y-103792619D01*
X143288292Y-103792619D02*
X143300197Y-103816428D01*
X143300197Y-103816428D02*
X143312102Y-103828333D01*
X143312102Y-103828333D02*
X143335911Y-103840238D01*
X143335911Y-103840238D02*
X143395435Y-103840238D01*
X143395435Y-103840238D02*
X143419245Y-103828333D01*
X143419245Y-103828333D02*
X143431150Y-103816428D01*
X143431150Y-103816428D02*
X143443054Y-103792619D01*
X143443054Y-103792619D02*
X143443054Y-103733095D01*
X143443054Y-103733095D02*
X143431150Y-103709285D01*
X143431150Y-103709285D02*
X143419245Y-103697381D01*
X143193054Y-103994999D02*
X143193054Y-104018809D01*
X143193054Y-104018809D02*
X143204959Y-104042618D01*
X143204959Y-104042618D02*
X143216864Y-104054523D01*
X143216864Y-104054523D02*
X143240673Y-104066428D01*
X143240673Y-104066428D02*
X143288292Y-104078333D01*
X143288292Y-104078333D02*
X143347816Y-104078333D01*
X143347816Y-104078333D02*
X143395435Y-104066428D01*
X143395435Y-104066428D02*
X143419245Y-104054523D01*
X143419245Y-104054523D02*
X143431150Y-104042618D01*
X143431150Y-104042618D02*
X143443054Y-104018809D01*
X143443054Y-104018809D02*
X143443054Y-103994999D01*
X143443054Y-103994999D02*
X143431150Y-103971190D01*
X143431150Y-103971190D02*
X143419245Y-103959285D01*
X143419245Y-103959285D02*
X143395435Y-103947380D01*
X143395435Y-103947380D02*
X143347816Y-103935476D01*
X143347816Y-103935476D02*
X143288292Y-103935476D01*
X143288292Y-103935476D02*
X143240673Y-103947380D01*
X143240673Y-103947380D02*
X143216864Y-103959285D01*
X143216864Y-103959285D02*
X143204959Y-103971190D01*
X143204959Y-103971190D02*
X143193054Y-103994999D01*
X143443054Y-104185475D02*
X143193054Y-104185475D01*
X143347816Y-104209285D02*
X143443054Y-104280713D01*
X143276388Y-104280713D02*
X143371626Y-104185475D01*
X143443054Y-104888333D02*
X143324007Y-104805000D01*
X143443054Y-104745476D02*
X143193054Y-104745476D01*
X143193054Y-104745476D02*
X143193054Y-104840714D01*
X143193054Y-104840714D02*
X143204959Y-104864524D01*
X143204959Y-104864524D02*
X143216864Y-104876429D01*
X143216864Y-104876429D02*
X143240673Y-104888333D01*
X143240673Y-104888333D02*
X143276388Y-104888333D01*
X143276388Y-104888333D02*
X143300197Y-104876429D01*
X143300197Y-104876429D02*
X143312102Y-104864524D01*
X143312102Y-104864524D02*
X143324007Y-104840714D01*
X143324007Y-104840714D02*
X143324007Y-104745476D01*
X143193054Y-104971667D02*
X143193054Y-105126429D01*
X143193054Y-105126429D02*
X143288292Y-105043095D01*
X143288292Y-105043095D02*
X143288292Y-105078810D01*
X143288292Y-105078810D02*
X143300197Y-105102619D01*
X143300197Y-105102619D02*
X143312102Y-105114524D01*
X143312102Y-105114524D02*
X143335911Y-105126429D01*
X143335911Y-105126429D02*
X143395435Y-105126429D01*
X143395435Y-105126429D02*
X143419245Y-105114524D01*
X143419245Y-105114524D02*
X143431150Y-105102619D01*
X143431150Y-105102619D02*
X143443054Y-105078810D01*
X143443054Y-105078810D02*
X143443054Y-105007381D01*
X143443054Y-105007381D02*
X143431150Y-104983572D01*
X143431150Y-104983572D02*
X143419245Y-104971667D01*
X141432142Y-90465554D02*
X141432142Y-90667935D01*
X141432142Y-90667935D02*
X141420237Y-90691745D01*
X141420237Y-90691745D02*
X141408332Y-90703650D01*
X141408332Y-90703650D02*
X141384523Y-90715554D01*
X141384523Y-90715554D02*
X141336904Y-90715554D01*
X141336904Y-90715554D02*
X141313094Y-90703650D01*
X141313094Y-90703650D02*
X141301189Y-90691745D01*
X141301189Y-90691745D02*
X141289285Y-90667935D01*
X141289285Y-90667935D02*
X141289285Y-90465554D01*
X141182141Y-90703650D02*
X141146427Y-90715554D01*
X141146427Y-90715554D02*
X141086903Y-90715554D01*
X141086903Y-90715554D02*
X141063094Y-90703650D01*
X141063094Y-90703650D02*
X141051189Y-90691745D01*
X141051189Y-90691745D02*
X141039284Y-90667935D01*
X141039284Y-90667935D02*
X141039284Y-90644126D01*
X141039284Y-90644126D02*
X141051189Y-90620316D01*
X141051189Y-90620316D02*
X141063094Y-90608411D01*
X141063094Y-90608411D02*
X141086903Y-90596507D01*
X141086903Y-90596507D02*
X141134522Y-90584602D01*
X141134522Y-90584602D02*
X141158332Y-90572697D01*
X141158332Y-90572697D02*
X141170237Y-90560792D01*
X141170237Y-90560792D02*
X141182141Y-90536983D01*
X141182141Y-90536983D02*
X141182141Y-90513173D01*
X141182141Y-90513173D02*
X141170237Y-90489364D01*
X141170237Y-90489364D02*
X141158332Y-90477459D01*
X141158332Y-90477459D02*
X141134522Y-90465554D01*
X141134522Y-90465554D02*
X141074999Y-90465554D01*
X141074999Y-90465554D02*
X141039284Y-90477459D01*
X140848808Y-90584602D02*
X140813094Y-90596507D01*
X140813094Y-90596507D02*
X140801189Y-90608411D01*
X140801189Y-90608411D02*
X140789285Y-90632221D01*
X140789285Y-90632221D02*
X140789285Y-90667935D01*
X140789285Y-90667935D02*
X140801189Y-90691745D01*
X140801189Y-90691745D02*
X140813094Y-90703650D01*
X140813094Y-90703650D02*
X140836904Y-90715554D01*
X140836904Y-90715554D02*
X140932142Y-90715554D01*
X140932142Y-90715554D02*
X140932142Y-90465554D01*
X140932142Y-90465554D02*
X140848808Y-90465554D01*
X140848808Y-90465554D02*
X140824999Y-90477459D01*
X140824999Y-90477459D02*
X140813094Y-90489364D01*
X140813094Y-90489364D02*
X140801189Y-90513173D01*
X140801189Y-90513173D02*
X140801189Y-90536983D01*
X140801189Y-90536983D02*
X140813094Y-90560792D01*
X140813094Y-90560792D02*
X140824999Y-90572697D01*
X140824999Y-90572697D02*
X140848808Y-90584602D01*
X140848808Y-90584602D02*
X140932142Y-90584602D01*
X140682142Y-90620316D02*
X140491666Y-90620316D01*
X140229761Y-90691745D02*
X140241665Y-90703650D01*
X140241665Y-90703650D02*
X140277380Y-90715554D01*
X140277380Y-90715554D02*
X140301189Y-90715554D01*
X140301189Y-90715554D02*
X140336903Y-90703650D01*
X140336903Y-90703650D02*
X140360713Y-90679840D01*
X140360713Y-90679840D02*
X140372618Y-90656030D01*
X140372618Y-90656030D02*
X140384522Y-90608411D01*
X140384522Y-90608411D02*
X140384522Y-90572697D01*
X140384522Y-90572697D02*
X140372618Y-90525078D01*
X140372618Y-90525078D02*
X140360713Y-90501269D01*
X140360713Y-90501269D02*
X140336903Y-90477459D01*
X140336903Y-90477459D02*
X140301189Y-90465554D01*
X140301189Y-90465554D02*
X140277380Y-90465554D01*
X140277380Y-90465554D02*
X140241665Y-90477459D01*
X140241665Y-90477459D02*
X140229761Y-90489364D01*
X139789285Y-90691745D02*
X139801189Y-90703650D01*
X139801189Y-90703650D02*
X139836904Y-90715554D01*
X139836904Y-90715554D02*
X139860713Y-90715554D01*
X139860713Y-90715554D02*
X139896427Y-90703650D01*
X139896427Y-90703650D02*
X139920237Y-90679840D01*
X139920237Y-90679840D02*
X139932142Y-90656030D01*
X139932142Y-90656030D02*
X139944046Y-90608411D01*
X139944046Y-90608411D02*
X139944046Y-90572697D01*
X139944046Y-90572697D02*
X139932142Y-90525078D01*
X139932142Y-90525078D02*
X139920237Y-90501269D01*
X139920237Y-90501269D02*
X139896427Y-90477459D01*
X139896427Y-90477459D02*
X139860713Y-90465554D01*
X139860713Y-90465554D02*
X139836904Y-90465554D01*
X139836904Y-90465554D02*
X139801189Y-90477459D01*
X139801189Y-90477459D02*
X139789285Y-90489364D01*
X139646427Y-90715554D02*
X139670237Y-90703650D01*
X139670237Y-90703650D02*
X139682142Y-90691745D01*
X139682142Y-90691745D02*
X139694046Y-90667935D01*
X139694046Y-90667935D02*
X139694046Y-90596507D01*
X139694046Y-90596507D02*
X139682142Y-90572697D01*
X139682142Y-90572697D02*
X139670237Y-90560792D01*
X139670237Y-90560792D02*
X139646427Y-90548888D01*
X139646427Y-90548888D02*
X139610713Y-90548888D01*
X139610713Y-90548888D02*
X139586904Y-90560792D01*
X139586904Y-90560792D02*
X139574999Y-90572697D01*
X139574999Y-90572697D02*
X139563094Y-90596507D01*
X139563094Y-90596507D02*
X139563094Y-90667935D01*
X139563094Y-90667935D02*
X139574999Y-90691745D01*
X139574999Y-90691745D02*
X139586904Y-90703650D01*
X139586904Y-90703650D02*
X139610713Y-90715554D01*
X139610713Y-90715554D02*
X139646427Y-90715554D01*
X139455952Y-90548888D02*
X139455952Y-90715554D01*
X139455952Y-90572697D02*
X139444047Y-90560792D01*
X139444047Y-90560792D02*
X139420237Y-90548888D01*
X139420237Y-90548888D02*
X139384523Y-90548888D01*
X139384523Y-90548888D02*
X139360714Y-90560792D01*
X139360714Y-90560792D02*
X139348809Y-90584602D01*
X139348809Y-90584602D02*
X139348809Y-90715554D01*
X139229762Y-90548888D02*
X139229762Y-90715554D01*
X139229762Y-90572697D02*
X139217857Y-90560792D01*
X139217857Y-90560792D02*
X139194047Y-90548888D01*
X139194047Y-90548888D02*
X139158333Y-90548888D01*
X139158333Y-90548888D02*
X139134524Y-90560792D01*
X139134524Y-90560792D02*
X139122619Y-90584602D01*
X139122619Y-90584602D02*
X139122619Y-90715554D01*
X138908334Y-90703650D02*
X138932143Y-90715554D01*
X138932143Y-90715554D02*
X138979762Y-90715554D01*
X138979762Y-90715554D02*
X139003572Y-90703650D01*
X139003572Y-90703650D02*
X139015476Y-90679840D01*
X139015476Y-90679840D02*
X139015476Y-90584602D01*
X139015476Y-90584602D02*
X139003572Y-90560792D01*
X139003572Y-90560792D02*
X138979762Y-90548888D01*
X138979762Y-90548888D02*
X138932143Y-90548888D01*
X138932143Y-90548888D02*
X138908334Y-90560792D01*
X138908334Y-90560792D02*
X138896429Y-90584602D01*
X138896429Y-90584602D02*
X138896429Y-90608411D01*
X138896429Y-90608411D02*
X139015476Y-90632221D01*
X138682143Y-90703650D02*
X138705952Y-90715554D01*
X138705952Y-90715554D02*
X138753571Y-90715554D01*
X138753571Y-90715554D02*
X138777381Y-90703650D01*
X138777381Y-90703650D02*
X138789286Y-90691745D01*
X138789286Y-90691745D02*
X138801190Y-90667935D01*
X138801190Y-90667935D02*
X138801190Y-90596507D01*
X138801190Y-90596507D02*
X138789286Y-90572697D01*
X138789286Y-90572697D02*
X138777381Y-90560792D01*
X138777381Y-90560792D02*
X138753571Y-90548888D01*
X138753571Y-90548888D02*
X138705952Y-90548888D01*
X138705952Y-90548888D02*
X138682143Y-90560792D01*
X138610714Y-90548888D02*
X138515476Y-90548888D01*
X138575000Y-90465554D02*
X138575000Y-90679840D01*
X138575000Y-90679840D02*
X138563095Y-90703650D01*
X138563095Y-90703650D02*
X138539285Y-90715554D01*
X138539285Y-90715554D02*
X138515476Y-90715554D01*
X138396428Y-90715554D02*
X138420238Y-90703650D01*
X138420238Y-90703650D02*
X138432143Y-90691745D01*
X138432143Y-90691745D02*
X138444047Y-90667935D01*
X138444047Y-90667935D02*
X138444047Y-90596507D01*
X138444047Y-90596507D02*
X138432143Y-90572697D01*
X138432143Y-90572697D02*
X138420238Y-90560792D01*
X138420238Y-90560792D02*
X138396428Y-90548888D01*
X138396428Y-90548888D02*
X138360714Y-90548888D01*
X138360714Y-90548888D02*
X138336905Y-90560792D01*
X138336905Y-90560792D02*
X138325000Y-90572697D01*
X138325000Y-90572697D02*
X138313095Y-90596507D01*
X138313095Y-90596507D02*
X138313095Y-90667935D01*
X138313095Y-90667935D02*
X138325000Y-90691745D01*
X138325000Y-90691745D02*
X138336905Y-90703650D01*
X138336905Y-90703650D02*
X138360714Y-90715554D01*
X138360714Y-90715554D02*
X138396428Y-90715554D01*
X138205953Y-90715554D02*
X138205953Y-90548888D01*
X138205953Y-90596507D02*
X138194048Y-90572697D01*
X138194048Y-90572697D02*
X138182143Y-90560792D01*
X138182143Y-90560792D02*
X138158334Y-90548888D01*
X138158334Y-90548888D02*
X138134524Y-90548888D01*
X138063095Y-90703650D02*
X138039286Y-90715554D01*
X138039286Y-90715554D02*
X137991667Y-90715554D01*
X137991667Y-90715554D02*
X137967857Y-90703650D01*
X137967857Y-90703650D02*
X137955953Y-90679840D01*
X137955953Y-90679840D02*
X137955953Y-90667935D01*
X137955953Y-90667935D02*
X137967857Y-90644126D01*
X137967857Y-90644126D02*
X137991667Y-90632221D01*
X137991667Y-90632221D02*
X138027381Y-90632221D01*
X138027381Y-90632221D02*
X138051191Y-90620316D01*
X138051191Y-90620316D02*
X138063095Y-90596507D01*
X138063095Y-90596507D02*
X138063095Y-90584602D01*
X138063095Y-90584602D02*
X138051191Y-90560792D01*
X138051191Y-90560792D02*
X138027381Y-90548888D01*
X138027381Y-90548888D02*
X137991667Y-90548888D01*
X137991667Y-90548888D02*
X137967857Y-90560792D01*
X145761904Y-88793054D02*
X145761904Y-88543054D01*
X145761904Y-88543054D02*
X145666666Y-88543054D01*
X145666666Y-88543054D02*
X145642856Y-88554959D01*
X145642856Y-88554959D02*
X145630951Y-88566864D01*
X145630951Y-88566864D02*
X145619047Y-88590673D01*
X145619047Y-88590673D02*
X145619047Y-88626388D01*
X145619047Y-88626388D02*
X145630951Y-88650197D01*
X145630951Y-88650197D02*
X145642856Y-88662102D01*
X145642856Y-88662102D02*
X145666666Y-88674007D01*
X145666666Y-88674007D02*
X145761904Y-88674007D01*
X145369047Y-88769245D02*
X145380951Y-88781150D01*
X145380951Y-88781150D02*
X145416666Y-88793054D01*
X145416666Y-88793054D02*
X145440475Y-88793054D01*
X145440475Y-88793054D02*
X145476189Y-88781150D01*
X145476189Y-88781150D02*
X145499999Y-88757340D01*
X145499999Y-88757340D02*
X145511904Y-88733530D01*
X145511904Y-88733530D02*
X145523808Y-88685911D01*
X145523808Y-88685911D02*
X145523808Y-88650197D01*
X145523808Y-88650197D02*
X145511904Y-88602578D01*
X145511904Y-88602578D02*
X145499999Y-88578769D01*
X145499999Y-88578769D02*
X145476189Y-88554959D01*
X145476189Y-88554959D02*
X145440475Y-88543054D01*
X145440475Y-88543054D02*
X145416666Y-88543054D01*
X145416666Y-88543054D02*
X145380951Y-88554959D01*
X145380951Y-88554959D02*
X145369047Y-88566864D01*
X145178570Y-88662102D02*
X145142856Y-88674007D01*
X145142856Y-88674007D02*
X145130951Y-88685911D01*
X145130951Y-88685911D02*
X145119047Y-88709721D01*
X145119047Y-88709721D02*
X145119047Y-88745435D01*
X145119047Y-88745435D02*
X145130951Y-88769245D01*
X145130951Y-88769245D02*
X145142856Y-88781150D01*
X145142856Y-88781150D02*
X145166666Y-88793054D01*
X145166666Y-88793054D02*
X145261904Y-88793054D01*
X145261904Y-88793054D02*
X145261904Y-88543054D01*
X145261904Y-88543054D02*
X145178570Y-88543054D01*
X145178570Y-88543054D02*
X145154761Y-88554959D01*
X145154761Y-88554959D02*
X145142856Y-88566864D01*
X145142856Y-88566864D02*
X145130951Y-88590673D01*
X145130951Y-88590673D02*
X145130951Y-88614483D01*
X145130951Y-88614483D02*
X145142856Y-88638292D01*
X145142856Y-88638292D02*
X145154761Y-88650197D01*
X145154761Y-88650197D02*
X145178570Y-88662102D01*
X145178570Y-88662102D02*
X145261904Y-88662102D01*
X144821428Y-88662102D02*
X144738094Y-88662102D01*
X144702380Y-88793054D02*
X144821428Y-88793054D01*
X144821428Y-88793054D02*
X144821428Y-88543054D01*
X144821428Y-88543054D02*
X144702380Y-88543054D01*
X144595238Y-88793054D02*
X144595238Y-88543054D01*
X144595238Y-88543054D02*
X144535714Y-88543054D01*
X144535714Y-88543054D02*
X144500000Y-88554959D01*
X144500000Y-88554959D02*
X144476190Y-88578769D01*
X144476190Y-88578769D02*
X144464285Y-88602578D01*
X144464285Y-88602578D02*
X144452381Y-88650197D01*
X144452381Y-88650197D02*
X144452381Y-88685911D01*
X144452381Y-88685911D02*
X144464285Y-88733530D01*
X144464285Y-88733530D02*
X144476190Y-88757340D01*
X144476190Y-88757340D02*
X144500000Y-88781150D01*
X144500000Y-88781150D02*
X144535714Y-88793054D01*
X144535714Y-88793054D02*
X144595238Y-88793054D01*
X144214285Y-88554959D02*
X144238095Y-88543054D01*
X144238095Y-88543054D02*
X144273809Y-88543054D01*
X144273809Y-88543054D02*
X144309523Y-88554959D01*
X144309523Y-88554959D02*
X144333333Y-88578769D01*
X144333333Y-88578769D02*
X144345238Y-88602578D01*
X144345238Y-88602578D02*
X144357142Y-88650197D01*
X144357142Y-88650197D02*
X144357142Y-88685911D01*
X144357142Y-88685911D02*
X144345238Y-88733530D01*
X144345238Y-88733530D02*
X144333333Y-88757340D01*
X144333333Y-88757340D02*
X144309523Y-88781150D01*
X144309523Y-88781150D02*
X144273809Y-88793054D01*
X144273809Y-88793054D02*
X144250000Y-88793054D01*
X144250000Y-88793054D02*
X144214285Y-88781150D01*
X144214285Y-88781150D02*
X144202381Y-88769245D01*
X144202381Y-88769245D02*
X144202381Y-88685911D01*
X144202381Y-88685911D02*
X144250000Y-88685911D01*
X144095238Y-88662102D02*
X144011904Y-88662102D01*
X143976190Y-88793054D02*
X144095238Y-88793054D01*
X144095238Y-88793054D02*
X144095238Y-88543054D01*
X144095238Y-88543054D02*
X143976190Y-88543054D01*
X150203054Y-93862143D02*
X150203054Y-93719286D01*
X150203054Y-93790714D02*
X149953054Y-93790714D01*
X149953054Y-93790714D02*
X149988769Y-93766905D01*
X149988769Y-93766905D02*
X150012578Y-93743095D01*
X150012578Y-93743095D02*
X150024483Y-93719286D01*
X149953054Y-94016904D02*
X149953054Y-94040714D01*
X149953054Y-94040714D02*
X149964959Y-94064523D01*
X149964959Y-94064523D02*
X149976864Y-94076428D01*
X149976864Y-94076428D02*
X150000673Y-94088333D01*
X150000673Y-94088333D02*
X150048292Y-94100238D01*
X150048292Y-94100238D02*
X150107816Y-94100238D01*
X150107816Y-94100238D02*
X150155435Y-94088333D01*
X150155435Y-94088333D02*
X150179245Y-94076428D01*
X150179245Y-94076428D02*
X150191150Y-94064523D01*
X150191150Y-94064523D02*
X150203054Y-94040714D01*
X150203054Y-94040714D02*
X150203054Y-94016904D01*
X150203054Y-94016904D02*
X150191150Y-93993095D01*
X150191150Y-93993095D02*
X150179245Y-93981190D01*
X150179245Y-93981190D02*
X150155435Y-93969285D01*
X150155435Y-93969285D02*
X150107816Y-93957381D01*
X150107816Y-93957381D02*
X150048292Y-93957381D01*
X150048292Y-93957381D02*
X150000673Y-93969285D01*
X150000673Y-93969285D02*
X149976864Y-93981190D01*
X149976864Y-93981190D02*
X149964959Y-93993095D01*
X149964959Y-93993095D02*
X149953054Y-94016904D01*
X150036388Y-94314523D02*
X150203054Y-94314523D01*
X150036388Y-94207380D02*
X150167340Y-94207380D01*
X150167340Y-94207380D02*
X150191150Y-94219285D01*
X150191150Y-94219285D02*
X150203054Y-94243095D01*
X150203054Y-94243095D02*
X150203054Y-94278809D01*
X150203054Y-94278809D02*
X150191150Y-94302618D01*
X150191150Y-94302618D02*
X150179245Y-94314523D01*
X150072102Y-94516904D02*
X150072102Y-94433570D01*
X150203054Y-94433570D02*
X149953054Y-94433570D01*
X149953054Y-94433570D02*
X149953054Y-94552618D01*
X150724245Y-93969285D02*
X150736150Y-93957381D01*
X150736150Y-93957381D02*
X150748054Y-93921666D01*
X150748054Y-93921666D02*
X150748054Y-93897857D01*
X150748054Y-93897857D02*
X150736150Y-93862143D01*
X150736150Y-93862143D02*
X150712340Y-93838333D01*
X150712340Y-93838333D02*
X150688530Y-93826428D01*
X150688530Y-93826428D02*
X150640911Y-93814524D01*
X150640911Y-93814524D02*
X150605197Y-93814524D01*
X150605197Y-93814524D02*
X150557578Y-93826428D01*
X150557578Y-93826428D02*
X150533769Y-93838333D01*
X150533769Y-93838333D02*
X150509959Y-93862143D01*
X150509959Y-93862143D02*
X150498054Y-93897857D01*
X150498054Y-93897857D02*
X150498054Y-93921666D01*
X150498054Y-93921666D02*
X150509959Y-93957381D01*
X150509959Y-93957381D02*
X150521864Y-93969285D01*
X150748054Y-94207381D02*
X150748054Y-94064524D01*
X150748054Y-94135952D02*
X150498054Y-94135952D01*
X150498054Y-94135952D02*
X150533769Y-94112143D01*
X150533769Y-94112143D02*
X150557578Y-94088333D01*
X150557578Y-94088333D02*
X150569483Y-94064524D01*
X150498054Y-94290714D02*
X150498054Y-94445476D01*
X150498054Y-94445476D02*
X150593292Y-94362142D01*
X150593292Y-94362142D02*
X150593292Y-94397857D01*
X150593292Y-94397857D02*
X150605197Y-94421666D01*
X150605197Y-94421666D02*
X150617102Y-94433571D01*
X150617102Y-94433571D02*
X150640911Y-94445476D01*
X150640911Y-94445476D02*
X150700435Y-94445476D01*
X150700435Y-94445476D02*
X150724245Y-94433571D01*
X150724245Y-94433571D02*
X150736150Y-94421666D01*
X150736150Y-94421666D02*
X150748054Y-94397857D01*
X150748054Y-94397857D02*
X150748054Y-94326428D01*
X150748054Y-94326428D02*
X150736150Y-94302619D01*
X150736150Y-94302619D02*
X150724245Y-94290714D01*
X155011190Y-96936388D02*
X155011190Y-97103054D01*
X155070714Y-96841150D02*
X155130237Y-97019721D01*
X155130237Y-97019721D02*
X154975476Y-97019721D01*
X154880238Y-97079245D02*
X154868333Y-97091150D01*
X154868333Y-97091150D02*
X154880238Y-97103054D01*
X154880238Y-97103054D02*
X154892142Y-97091150D01*
X154892142Y-97091150D02*
X154880238Y-97079245D01*
X154880238Y-97079245D02*
X154880238Y-97103054D01*
X154784999Y-96853054D02*
X154618333Y-96853054D01*
X154618333Y-96853054D02*
X154725475Y-97103054D01*
X154415952Y-96936388D02*
X154415952Y-97103054D01*
X154523095Y-96936388D02*
X154523095Y-97067340D01*
X154523095Y-97067340D02*
X154511190Y-97091150D01*
X154511190Y-97091150D02*
X154487380Y-97103054D01*
X154487380Y-97103054D02*
X154451666Y-97103054D01*
X154451666Y-97103054D02*
X154427857Y-97091150D01*
X154427857Y-97091150D02*
X154415952Y-97079245D01*
X154213571Y-96972102D02*
X154296905Y-96972102D01*
X154296905Y-97103054D02*
X154296905Y-96853054D01*
X154296905Y-96853054D02*
X154177857Y-96853054D01*
X155771666Y-97079245D02*
X155783570Y-97091150D01*
X155783570Y-97091150D02*
X155819285Y-97103054D01*
X155819285Y-97103054D02*
X155843094Y-97103054D01*
X155843094Y-97103054D02*
X155878808Y-97091150D01*
X155878808Y-97091150D02*
X155902618Y-97067340D01*
X155902618Y-97067340D02*
X155914523Y-97043530D01*
X155914523Y-97043530D02*
X155926427Y-96995911D01*
X155926427Y-96995911D02*
X155926427Y-96960197D01*
X155926427Y-96960197D02*
X155914523Y-96912578D01*
X155914523Y-96912578D02*
X155902618Y-96888769D01*
X155902618Y-96888769D02*
X155878808Y-96864959D01*
X155878808Y-96864959D02*
X155843094Y-96853054D01*
X155843094Y-96853054D02*
X155819285Y-96853054D01*
X155819285Y-96853054D02*
X155783570Y-96864959D01*
X155783570Y-96864959D02*
X155771666Y-96876864D01*
X155688332Y-96853054D02*
X155533570Y-96853054D01*
X155533570Y-96853054D02*
X155616904Y-96948292D01*
X155616904Y-96948292D02*
X155581189Y-96948292D01*
X155581189Y-96948292D02*
X155557380Y-96960197D01*
X155557380Y-96960197D02*
X155545475Y-96972102D01*
X155545475Y-96972102D02*
X155533570Y-96995911D01*
X155533570Y-96995911D02*
X155533570Y-97055435D01*
X155533570Y-97055435D02*
X155545475Y-97079245D01*
X155545475Y-97079245D02*
X155557380Y-97091150D01*
X155557380Y-97091150D02*
X155581189Y-97103054D01*
X155581189Y-97103054D02*
X155652618Y-97103054D01*
X155652618Y-97103054D02*
X155676427Y-97091150D01*
X155676427Y-97091150D02*
X155688332Y-97079245D01*
X160688808Y-95683054D02*
X160831665Y-95683054D01*
X160760237Y-95683054D02*
X160760237Y-95433054D01*
X160760237Y-95433054D02*
X160784046Y-95468769D01*
X160784046Y-95468769D02*
X160807856Y-95492578D01*
X160807856Y-95492578D02*
X160831665Y-95504483D01*
X160474523Y-95516388D02*
X160474523Y-95683054D01*
X160581666Y-95516388D02*
X160581666Y-95647340D01*
X160581666Y-95647340D02*
X160569761Y-95671150D01*
X160569761Y-95671150D02*
X160545951Y-95683054D01*
X160545951Y-95683054D02*
X160510237Y-95683054D01*
X160510237Y-95683054D02*
X160486428Y-95671150D01*
X160486428Y-95671150D02*
X160474523Y-95659245D01*
X160272142Y-95552102D02*
X160355476Y-95552102D01*
X160355476Y-95683054D02*
X160355476Y-95433054D01*
X160355476Y-95433054D02*
X160236428Y-95433054D01*
X159621666Y-95659245D02*
X159633570Y-95671150D01*
X159633570Y-95671150D02*
X159669285Y-95683054D01*
X159669285Y-95683054D02*
X159693094Y-95683054D01*
X159693094Y-95683054D02*
X159728808Y-95671150D01*
X159728808Y-95671150D02*
X159752618Y-95647340D01*
X159752618Y-95647340D02*
X159764523Y-95623530D01*
X159764523Y-95623530D02*
X159776427Y-95575911D01*
X159776427Y-95575911D02*
X159776427Y-95540197D01*
X159776427Y-95540197D02*
X159764523Y-95492578D01*
X159764523Y-95492578D02*
X159752618Y-95468769D01*
X159752618Y-95468769D02*
X159728808Y-95444959D01*
X159728808Y-95444959D02*
X159693094Y-95433054D01*
X159693094Y-95433054D02*
X159669285Y-95433054D01*
X159669285Y-95433054D02*
X159633570Y-95444959D01*
X159633570Y-95444959D02*
X159621666Y-95456864D01*
X159383570Y-95683054D02*
X159526427Y-95683054D01*
X159454999Y-95683054D02*
X159454999Y-95433054D01*
X159454999Y-95433054D02*
X159478808Y-95468769D01*
X159478808Y-95468769D02*
X159502618Y-95492578D01*
X159502618Y-95492578D02*
X159526427Y-95504483D01*
X158443054Y-105743096D02*
X158443054Y-105600239D01*
X158443054Y-105671667D02*
X158193054Y-105671667D01*
X158193054Y-105671667D02*
X158228769Y-105647858D01*
X158228769Y-105647858D02*
X158252578Y-105624048D01*
X158252578Y-105624048D02*
X158264483Y-105600239D01*
X158193054Y-105897857D02*
X158193054Y-105921667D01*
X158193054Y-105921667D02*
X158204959Y-105945476D01*
X158204959Y-105945476D02*
X158216864Y-105957381D01*
X158216864Y-105957381D02*
X158240673Y-105969286D01*
X158240673Y-105969286D02*
X158288292Y-105981191D01*
X158288292Y-105981191D02*
X158347816Y-105981191D01*
X158347816Y-105981191D02*
X158395435Y-105969286D01*
X158395435Y-105969286D02*
X158419245Y-105957381D01*
X158419245Y-105957381D02*
X158431150Y-105945476D01*
X158431150Y-105945476D02*
X158443054Y-105921667D01*
X158443054Y-105921667D02*
X158443054Y-105897857D01*
X158443054Y-105897857D02*
X158431150Y-105874048D01*
X158431150Y-105874048D02*
X158419245Y-105862143D01*
X158419245Y-105862143D02*
X158395435Y-105850238D01*
X158395435Y-105850238D02*
X158347816Y-105838334D01*
X158347816Y-105838334D02*
X158288292Y-105838334D01*
X158288292Y-105838334D02*
X158240673Y-105850238D01*
X158240673Y-105850238D02*
X158216864Y-105862143D01*
X158216864Y-105862143D02*
X158204959Y-105874048D01*
X158204959Y-105874048D02*
X158193054Y-105897857D01*
X158193054Y-106135952D02*
X158193054Y-106159762D01*
X158193054Y-106159762D02*
X158204959Y-106183571D01*
X158204959Y-106183571D02*
X158216864Y-106195476D01*
X158216864Y-106195476D02*
X158240673Y-106207381D01*
X158240673Y-106207381D02*
X158288292Y-106219286D01*
X158288292Y-106219286D02*
X158347816Y-106219286D01*
X158347816Y-106219286D02*
X158395435Y-106207381D01*
X158395435Y-106207381D02*
X158419245Y-106195476D01*
X158419245Y-106195476D02*
X158431150Y-106183571D01*
X158431150Y-106183571D02*
X158443054Y-106159762D01*
X158443054Y-106159762D02*
X158443054Y-106135952D01*
X158443054Y-106135952D02*
X158431150Y-106112143D01*
X158431150Y-106112143D02*
X158419245Y-106100238D01*
X158419245Y-106100238D02*
X158395435Y-106088333D01*
X158395435Y-106088333D02*
X158347816Y-106076429D01*
X158347816Y-106076429D02*
X158288292Y-106076429D01*
X158288292Y-106076429D02*
X158240673Y-106088333D01*
X158240673Y-106088333D02*
X158216864Y-106100238D01*
X158216864Y-106100238D02*
X158204959Y-106112143D01*
X158204959Y-106112143D02*
X158193054Y-106135952D01*
X158276388Y-106326428D02*
X158443054Y-106326428D01*
X158300197Y-106326428D02*
X158288292Y-106338333D01*
X158288292Y-106338333D02*
X158276388Y-106362143D01*
X158276388Y-106362143D02*
X158276388Y-106397857D01*
X158276388Y-106397857D02*
X158288292Y-106421666D01*
X158288292Y-106421666D02*
X158312102Y-106433571D01*
X158312102Y-106433571D02*
X158443054Y-106433571D01*
X158312102Y-106635952D02*
X158312102Y-106552618D01*
X158443054Y-106552618D02*
X158193054Y-106552618D01*
X158193054Y-106552618D02*
X158193054Y-106671666D01*
X157826745Y-106080833D02*
X157838650Y-106068929D01*
X157838650Y-106068929D02*
X157850554Y-106033214D01*
X157850554Y-106033214D02*
X157850554Y-106009405D01*
X157850554Y-106009405D02*
X157838650Y-105973691D01*
X157838650Y-105973691D02*
X157814840Y-105949881D01*
X157814840Y-105949881D02*
X157791030Y-105937976D01*
X157791030Y-105937976D02*
X157743411Y-105926072D01*
X157743411Y-105926072D02*
X157707697Y-105926072D01*
X157707697Y-105926072D02*
X157660078Y-105937976D01*
X157660078Y-105937976D02*
X157636269Y-105949881D01*
X157636269Y-105949881D02*
X157612459Y-105973691D01*
X157612459Y-105973691D02*
X157600554Y-106009405D01*
X157600554Y-106009405D02*
X157600554Y-106033214D01*
X157600554Y-106033214D02*
X157612459Y-106068929D01*
X157612459Y-106068929D02*
X157624364Y-106080833D01*
X157600554Y-106295119D02*
X157600554Y-106247500D01*
X157600554Y-106247500D02*
X157612459Y-106223691D01*
X157612459Y-106223691D02*
X157624364Y-106211786D01*
X157624364Y-106211786D02*
X157660078Y-106187976D01*
X157660078Y-106187976D02*
X157707697Y-106176072D01*
X157707697Y-106176072D02*
X157802935Y-106176072D01*
X157802935Y-106176072D02*
X157826745Y-106187976D01*
X157826745Y-106187976D02*
X157838650Y-106199881D01*
X157838650Y-106199881D02*
X157850554Y-106223691D01*
X157850554Y-106223691D02*
X157850554Y-106271310D01*
X157850554Y-106271310D02*
X157838650Y-106295119D01*
X157838650Y-106295119D02*
X157826745Y-106307024D01*
X157826745Y-106307024D02*
X157802935Y-106318929D01*
X157802935Y-106318929D02*
X157743411Y-106318929D01*
X157743411Y-106318929D02*
X157719602Y-106307024D01*
X157719602Y-106307024D02*
X157707697Y-106295119D01*
X157707697Y-106295119D02*
X157695792Y-106271310D01*
X157695792Y-106271310D02*
X157695792Y-106223691D01*
X157695792Y-106223691D02*
X157707697Y-106199881D01*
X157707697Y-106199881D02*
X157719602Y-106187976D01*
X157719602Y-106187976D02*
X157743411Y-106176072D01*
X151367856Y-103883054D02*
X151510713Y-103883054D01*
X151439285Y-103883054D02*
X151439285Y-103633054D01*
X151439285Y-103633054D02*
X151463094Y-103668769D01*
X151463094Y-103668769D02*
X151486904Y-103692578D01*
X151486904Y-103692578D02*
X151510713Y-103704483D01*
X151213095Y-103633054D02*
X151189285Y-103633054D01*
X151189285Y-103633054D02*
X151165476Y-103644959D01*
X151165476Y-103644959D02*
X151153571Y-103656864D01*
X151153571Y-103656864D02*
X151141666Y-103680673D01*
X151141666Y-103680673D02*
X151129761Y-103728292D01*
X151129761Y-103728292D02*
X151129761Y-103787816D01*
X151129761Y-103787816D02*
X151141666Y-103835435D01*
X151141666Y-103835435D02*
X151153571Y-103859245D01*
X151153571Y-103859245D02*
X151165476Y-103871150D01*
X151165476Y-103871150D02*
X151189285Y-103883054D01*
X151189285Y-103883054D02*
X151213095Y-103883054D01*
X151213095Y-103883054D02*
X151236904Y-103871150D01*
X151236904Y-103871150D02*
X151248809Y-103859245D01*
X151248809Y-103859245D02*
X151260714Y-103835435D01*
X151260714Y-103835435D02*
X151272618Y-103787816D01*
X151272618Y-103787816D02*
X151272618Y-103728292D01*
X151272618Y-103728292D02*
X151260714Y-103680673D01*
X151260714Y-103680673D02*
X151248809Y-103656864D01*
X151248809Y-103656864D02*
X151236904Y-103644959D01*
X151236904Y-103644959D02*
X151213095Y-103633054D01*
X150915476Y-103716388D02*
X150915476Y-103883054D01*
X151022619Y-103716388D02*
X151022619Y-103847340D01*
X151022619Y-103847340D02*
X151010714Y-103871150D01*
X151010714Y-103871150D02*
X150986904Y-103883054D01*
X150986904Y-103883054D02*
X150951190Y-103883054D01*
X150951190Y-103883054D02*
X150927381Y-103871150D01*
X150927381Y-103871150D02*
X150915476Y-103859245D01*
X150713095Y-103752102D02*
X150796429Y-103752102D01*
X150796429Y-103883054D02*
X150796429Y-103633054D01*
X150796429Y-103633054D02*
X150677381Y-103633054D01*
X151260714Y-103289245D02*
X151272618Y-103301150D01*
X151272618Y-103301150D02*
X151308333Y-103313054D01*
X151308333Y-103313054D02*
X151332142Y-103313054D01*
X151332142Y-103313054D02*
X151367856Y-103301150D01*
X151367856Y-103301150D02*
X151391666Y-103277340D01*
X151391666Y-103277340D02*
X151403571Y-103253530D01*
X151403571Y-103253530D02*
X151415475Y-103205911D01*
X151415475Y-103205911D02*
X151415475Y-103170197D01*
X151415475Y-103170197D02*
X151403571Y-103122578D01*
X151403571Y-103122578D02*
X151391666Y-103098769D01*
X151391666Y-103098769D02*
X151367856Y-103074959D01*
X151367856Y-103074959D02*
X151332142Y-103063054D01*
X151332142Y-103063054D02*
X151308333Y-103063054D01*
X151308333Y-103063054D02*
X151272618Y-103074959D01*
X151272618Y-103074959D02*
X151260714Y-103086864D01*
X151022618Y-103313054D02*
X151165475Y-103313054D01*
X151094047Y-103313054D02*
X151094047Y-103063054D01*
X151094047Y-103063054D02*
X151117856Y-103098769D01*
X151117856Y-103098769D02*
X151141666Y-103122578D01*
X151141666Y-103122578D02*
X151165475Y-103134483D01*
X150927380Y-103086864D02*
X150915476Y-103074959D01*
X150915476Y-103074959D02*
X150891666Y-103063054D01*
X150891666Y-103063054D02*
X150832142Y-103063054D01*
X150832142Y-103063054D02*
X150808333Y-103074959D01*
X150808333Y-103074959D02*
X150796428Y-103086864D01*
X150796428Y-103086864D02*
X150784523Y-103110673D01*
X150784523Y-103110673D02*
X150784523Y-103134483D01*
X150784523Y-103134483D02*
X150796428Y-103170197D01*
X150796428Y-103170197D02*
X150939285Y-103313054D01*
X150939285Y-103313054D02*
X150784523Y-103313054D01*
X140450237Y-103496864D02*
X140438333Y-103484959D01*
X140438333Y-103484959D02*
X140414523Y-103473054D01*
X140414523Y-103473054D02*
X140354999Y-103473054D01*
X140354999Y-103473054D02*
X140331190Y-103484959D01*
X140331190Y-103484959D02*
X140319285Y-103496864D01*
X140319285Y-103496864D02*
X140307380Y-103520673D01*
X140307380Y-103520673D02*
X140307380Y-103544483D01*
X140307380Y-103544483D02*
X140319285Y-103580197D01*
X140319285Y-103580197D02*
X140462142Y-103723054D01*
X140462142Y-103723054D02*
X140307380Y-103723054D01*
X140200238Y-103699245D02*
X140188333Y-103711150D01*
X140188333Y-103711150D02*
X140200238Y-103723054D01*
X140200238Y-103723054D02*
X140212142Y-103711150D01*
X140212142Y-103711150D02*
X140200238Y-103699245D01*
X140200238Y-103699245D02*
X140200238Y-103723054D01*
X140093094Y-103496864D02*
X140081190Y-103484959D01*
X140081190Y-103484959D02*
X140057380Y-103473054D01*
X140057380Y-103473054D02*
X139997856Y-103473054D01*
X139997856Y-103473054D02*
X139974047Y-103484959D01*
X139974047Y-103484959D02*
X139962142Y-103496864D01*
X139962142Y-103496864D02*
X139950237Y-103520673D01*
X139950237Y-103520673D02*
X139950237Y-103544483D01*
X139950237Y-103544483D02*
X139962142Y-103580197D01*
X139962142Y-103580197D02*
X140104999Y-103723054D01*
X140104999Y-103723054D02*
X139950237Y-103723054D01*
X139735952Y-103556388D02*
X139735952Y-103723054D01*
X139843095Y-103556388D02*
X139843095Y-103687340D01*
X139843095Y-103687340D02*
X139831190Y-103711150D01*
X139831190Y-103711150D02*
X139807380Y-103723054D01*
X139807380Y-103723054D02*
X139771666Y-103723054D01*
X139771666Y-103723054D02*
X139747857Y-103711150D01*
X139747857Y-103711150D02*
X139735952Y-103699245D01*
X139533571Y-103592102D02*
X139616905Y-103592102D01*
X139616905Y-103723054D02*
X139616905Y-103473054D01*
X139616905Y-103473054D02*
X139497857Y-103473054D01*
X140021666Y-103109245D02*
X140033570Y-103121150D01*
X140033570Y-103121150D02*
X140069285Y-103133054D01*
X140069285Y-103133054D02*
X140093094Y-103133054D01*
X140093094Y-103133054D02*
X140128808Y-103121150D01*
X140128808Y-103121150D02*
X140152618Y-103097340D01*
X140152618Y-103097340D02*
X140164523Y-103073530D01*
X140164523Y-103073530D02*
X140176427Y-103025911D01*
X140176427Y-103025911D02*
X140176427Y-102990197D01*
X140176427Y-102990197D02*
X140164523Y-102942578D01*
X140164523Y-102942578D02*
X140152618Y-102918769D01*
X140152618Y-102918769D02*
X140128808Y-102894959D01*
X140128808Y-102894959D02*
X140093094Y-102883054D01*
X140093094Y-102883054D02*
X140069285Y-102883054D01*
X140069285Y-102883054D02*
X140033570Y-102894959D01*
X140033570Y-102894959D02*
X140021666Y-102906864D01*
X139902618Y-103133054D02*
X139854999Y-103133054D01*
X139854999Y-103133054D02*
X139831189Y-103121150D01*
X139831189Y-103121150D02*
X139819285Y-103109245D01*
X139819285Y-103109245D02*
X139795475Y-103073530D01*
X139795475Y-103073530D02*
X139783570Y-103025911D01*
X139783570Y-103025911D02*
X139783570Y-102930673D01*
X139783570Y-102930673D02*
X139795475Y-102906864D01*
X139795475Y-102906864D02*
X139807380Y-102894959D01*
X139807380Y-102894959D02*
X139831189Y-102883054D01*
X139831189Y-102883054D02*
X139878808Y-102883054D01*
X139878808Y-102883054D02*
X139902618Y-102894959D01*
X139902618Y-102894959D02*
X139914523Y-102906864D01*
X139914523Y-102906864D02*
X139926427Y-102930673D01*
X139926427Y-102930673D02*
X139926427Y-102990197D01*
X139926427Y-102990197D02*
X139914523Y-103014007D01*
X139914523Y-103014007D02*
X139902618Y-103025911D01*
X139902618Y-103025911D02*
X139878808Y-103037816D01*
X139878808Y-103037816D02*
X139831189Y-103037816D01*
X139831189Y-103037816D02*
X139807380Y-103025911D01*
X139807380Y-103025911D02*
X139795475Y-103014007D01*
X139795475Y-103014007D02*
X139783570Y-102990197D01*
D13*
%TO.C,SW1*%
X144527500Y-105526500D02*
G75*
G02*
X143765500Y-105526500I-381000J0D01*
G01*
X143765500Y-105526500D02*
G75*
G02*
X144527500Y-105526500I381000J0D01*
G01*
D14*
X145759400Y-110746200D02*
X145200600Y-110746200D01*
X145759400Y-110314400D02*
X145759400Y-110746200D01*
X145759400Y-108485600D02*
X145759400Y-108053800D01*
X145759400Y-108485600D02*
X145200600Y-108485600D01*
X145759400Y-108053800D02*
X145200600Y-108053800D01*
X145200600Y-110746200D02*
X145200600Y-108053800D01*
X145200600Y-110314400D02*
X145759400Y-110314400D01*
X145200600Y-108053800D02*
X138596600Y-108053800D01*
X144349700Y-107063200D02*
X144349700Y-108053800D01*
X143943300Y-108053800D02*
X143943300Y-107063200D01*
X143943300Y-107063200D02*
X144349700Y-107063200D01*
X143295600Y-112752800D02*
X143295600Y-110746200D01*
X142000200Y-112752800D02*
X143295600Y-112752800D01*
X142000200Y-110746200D02*
X142000200Y-112752800D01*
X141352500Y-107063200D02*
X141352500Y-108053800D01*
X140946100Y-108053800D02*
X140946100Y-107063200D01*
X140946100Y-107063200D02*
X141352500Y-107063200D01*
X139853900Y-107063200D02*
X139853900Y-108053800D01*
X139447500Y-108053800D02*
X139447500Y-107063200D01*
X139447500Y-107063200D02*
X139853900Y-107063200D01*
X138596600Y-110746200D02*
X145200600Y-110746200D01*
X138596600Y-110314400D02*
X138037800Y-110314400D01*
X138596600Y-108053800D02*
X138596600Y-110746200D01*
X138596600Y-108053800D02*
X138037800Y-108053800D01*
X138037800Y-110746200D02*
X138596600Y-110746200D01*
X138037800Y-110314400D02*
X138037800Y-110746200D01*
X138037800Y-108485600D02*
X138596600Y-108485600D01*
X138037800Y-108053800D02*
X138037800Y-108485600D01*
D15*
%TO.C,U1*%
X158990000Y-96150000D02*
G75*
G02*
X158790000Y-96150000I-100000J0D01*
G01*
X158790000Y-96150000D02*
G75*
G02*
X158990000Y-96150000I100000J0D01*
G01*
D16*
X166240000Y-104650000D02*
X158240000Y-104650000D01*
X166240000Y-96650000D02*
X166240000Y-104650000D01*
X166240000Y-96650000D02*
X158240000Y-96650000D01*
X158240000Y-96650000D02*
X158240000Y-104650000D01*
D17*
%TO.C,IC1*%
X147580000Y-103280000D02*
X142580000Y-103280000D01*
X147580000Y-98280000D02*
X147580000Y-103280000D01*
X147080000Y-98280000D02*
X147580000Y-98780000D01*
X142580000Y-103280000D02*
X142580000Y-98280000D01*
X142580000Y-98280000D02*
X147580000Y-98280000D01*
%TO.C,C2*%
X156350000Y-101500000D02*
X155850000Y-101500000D01*
X156350000Y-100500000D02*
X156350000Y-101500000D01*
X155850000Y-101500000D02*
X155850000Y-100500000D01*
X155850000Y-100500000D02*
X156350000Y-100500000D01*
%TO.C,C19*%
X153045000Y-91090000D02*
X152045000Y-91090000D01*
X153045000Y-90590000D02*
X153045000Y-91090000D01*
X152045000Y-91090000D02*
X152045000Y-90590000D01*
X152045000Y-90590000D02*
X153045000Y-90590000D01*
%TO.C,C8*%
X140460000Y-100550000D02*
X139460000Y-100550000D01*
X140460000Y-100050000D02*
X140460000Y-100550000D01*
X139460000Y-100550000D02*
X139460000Y-100050000D01*
X139460000Y-100050000D02*
X140460000Y-100050000D01*
%TO.C,C7*%
X146580000Y-104690000D02*
X145580000Y-104690000D01*
X146580000Y-104190000D02*
X146580000Y-104690000D01*
X145580000Y-104690000D02*
X145580000Y-104190000D01*
X145580000Y-104190000D02*
X146580000Y-104190000D01*
%TO.C,C17*%
X149870000Y-102020000D02*
X149370000Y-102020000D01*
X149870000Y-101020000D02*
X149870000Y-102020000D01*
X149370000Y-102020000D02*
X149370000Y-101020000D01*
X149370000Y-101020000D02*
X149870000Y-101020000D01*
D18*
%TO.C,U2*%
X154862500Y-105100000D02*
G75*
G02*
X154712500Y-105100000I-75000J0D01*
G01*
X154712500Y-105100000D02*
G75*
G02*
X154862500Y-105100000I75000J0D01*
G01*
D16*
X156937500Y-108600000D02*
X156937500Y-105600000D01*
X156937500Y-105600000D02*
X154437500Y-105600000D01*
X154437500Y-108600000D02*
X156937500Y-108600000D01*
X154437500Y-105600000D02*
X154437500Y-108600000D01*
D17*
%TO.C,R1*%
X156255000Y-98320000D02*
X155205000Y-98320000D01*
X156255000Y-97780000D02*
X156255000Y-98320000D01*
X155205000Y-98320000D02*
X155205000Y-97780000D01*
X155205000Y-97780000D02*
X156255000Y-97780000D01*
%TO.C,D1*%
X147112500Y-89900000D02*
X147112500Y-89100000D01*
X147112500Y-89100000D02*
X145512500Y-89100000D01*
X145812500Y-89900000D02*
X147112500Y-89900000D01*
X145512500Y-89600000D02*
X145812500Y-89900000D01*
X145512500Y-89100000D02*
X145512500Y-89600000D01*
%TO.C,C5*%
X160080000Y-94780000D02*
X159080000Y-94780000D01*
X160080000Y-94280000D02*
X160080000Y-94780000D01*
X159080000Y-94780000D02*
X159080000Y-94280000D01*
X159080000Y-94280000D02*
X160080000Y-94280000D01*
%TO.C,C11*%
X149670000Y-98320000D02*
X148670000Y-98320000D01*
X149670000Y-97820000D02*
X149670000Y-98320000D01*
X148670000Y-98320000D02*
X148670000Y-97820000D01*
X148670000Y-97820000D02*
X149670000Y-97820000D01*
%TO.C,C10*%
X140459996Y-99040000D02*
X139459996Y-99040000D01*
X140459996Y-98540000D02*
X140459996Y-99040000D01*
X139459996Y-99040000D02*
X139459996Y-98540000D01*
X139459996Y-98540000D02*
X140459996Y-98540000D01*
%TO.C,C4*%
X157987500Y-109242500D02*
X157487500Y-109242500D01*
X157987500Y-108242500D02*
X157987500Y-109242500D01*
X157487500Y-109242500D02*
X157487500Y-108242500D01*
X157487500Y-108242500D02*
X157987500Y-108242500D01*
D15*
%TO.C,D3*%
X135550000Y-96730000D02*
G75*
G02*
X135350000Y-96730000I-100000J0D01*
G01*
X135350000Y-96730000D02*
G75*
G02*
X135550000Y-96730000I100000J0D01*
G01*
D16*
X137100000Y-99725000D02*
X137100000Y-98475000D01*
X137100000Y-98475000D02*
X135100000Y-98475000D01*
X135100000Y-99725000D02*
X137100000Y-99725000D01*
X135100000Y-98475000D02*
X135100000Y-99725000D01*
D17*
%TO.C,R2*%
X142550000Y-105455000D02*
X142010000Y-105455000D01*
X142550000Y-104405000D02*
X142550000Y-105455000D01*
X142010000Y-105455000D02*
X142010000Y-104405000D01*
X142010000Y-104405000D02*
X142550000Y-104405000D01*
%TO.C,C15*%
X149870000Y-100040000D02*
X149370000Y-100040000D01*
X149870000Y-99040000D02*
X149870000Y-100040000D01*
X149370000Y-100040000D02*
X149370000Y-99040000D01*
X149370000Y-99040000D02*
X149870000Y-99040000D01*
%TO.C,L2*%
X152890000Y-102320000D02*
X150890000Y-102320000D01*
X152890000Y-100720000D02*
X152890000Y-102320000D01*
X150890000Y-102320000D02*
X150890000Y-100720000D01*
X150890000Y-100720000D02*
X152890000Y-100720000D01*
%TO.C,C18*%
X140460000Y-101600000D02*
X139460000Y-101600000D01*
X140460000Y-101100000D02*
X140460000Y-101600000D01*
X139460000Y-101600000D02*
X139460000Y-101100000D01*
X139460000Y-101100000D02*
X140460000Y-101100000D01*
%TO.C,BT1*%
X136355000Y-108395000D02*
X135830000Y-108920000D01*
X136355000Y-106820000D02*
X136355000Y-108395000D01*
X135830000Y-108920000D02*
X133815000Y-108920000D01*
X133815000Y-108920000D02*
X133815000Y-106820000D01*
X133815000Y-106820000D02*
X136355000Y-106820000D01*
%TO.C,IC2*%
X154475000Y-94450000D02*
X151575000Y-94450000D01*
X154475000Y-92850000D02*
X154475000Y-94450000D01*
X151575000Y-94450000D02*
X151575000Y-92850000D01*
X151575000Y-93800000D02*
X152525000Y-92850000D01*
X151575000Y-92850000D02*
X154475000Y-92850000D01*
D15*
%TO.C,D2*%
X135600000Y-101730000D02*
G75*
G02*
X135400000Y-101730000I-100000J0D01*
G01*
X135400000Y-101730000D02*
G75*
G02*
X135600000Y-101730000I100000J0D01*
G01*
D16*
X137150000Y-104725000D02*
X137150000Y-103475000D01*
X137150000Y-103475000D02*
X135150000Y-103475000D01*
X135150000Y-104725000D02*
X137150000Y-104725000D01*
X135150000Y-103475000D02*
X135150000Y-104725000D01*
D17*
%TO.C,L1*%
X152140000Y-99390000D02*
X150540000Y-99390000D01*
X152140000Y-97390000D02*
X152140000Y-99390000D01*
X150540000Y-99390000D02*
X150540000Y-97390000D01*
X150540000Y-97390000D02*
X152140000Y-97390000D01*
%TO.C,R3*%
X143600000Y-105455000D02*
X143060000Y-105455000D01*
X143600000Y-104405000D02*
X143600000Y-105455000D01*
X143060000Y-105455000D02*
X143060000Y-104405000D01*
X143060000Y-104405000D02*
X143600000Y-104405000D01*
D15*
%TO.C,J3*%
X136575000Y-96580000D02*
G75*
G02*
X136375000Y-96580000I-100000J0D01*
G01*
X136375000Y-96580000D02*
G75*
G02*
X136575000Y-96580000I100000J0D01*
G01*
D16*
X148675000Y-88470000D02*
X134175000Y-88470000D01*
X144145000Y-95330000D02*
X144145000Y-87980000D01*
X144145000Y-87980000D02*
X135205000Y-87980000D01*
X135205000Y-95330000D02*
X144145000Y-95330000D01*
X135205000Y-87980000D02*
X135205000Y-95330000D01*
D17*
%TO.C,C13*%
X150885000Y-94630000D02*
X150385000Y-94630000D01*
X150885000Y-93630000D02*
X150885000Y-94630000D01*
X150385000Y-94630000D02*
X150385000Y-93630000D01*
X150385000Y-93630000D02*
X150885000Y-93630000D01*
%TO.C,C3*%
X156230000Y-97240000D02*
X155230000Y-97240000D01*
X156230000Y-96740000D02*
X156230000Y-97240000D01*
X155230000Y-97240000D02*
X155230000Y-96740000D01*
X155230000Y-96740000D02*
X156230000Y-96740000D01*
%TO.C,C1*%
X160080000Y-95820000D02*
X159080000Y-95820000D01*
X160080000Y-95320000D02*
X160080000Y-95820000D01*
X159080000Y-95820000D02*
X159080000Y-95320000D01*
X159080000Y-95320000D02*
X160080000Y-95320000D01*
%TO.C,C6*%
X157987500Y-106622500D02*
X157487500Y-106622500D01*
X157987500Y-105622500D02*
X157987500Y-106622500D01*
X157487500Y-106622500D02*
X157487500Y-105622500D01*
X157487500Y-105622500D02*
X157987500Y-105622500D01*
%TO.C,C12*%
X151600000Y-103450000D02*
X150600000Y-103450000D01*
X151600000Y-102950000D02*
X151600000Y-103450000D01*
X150600000Y-103450000D02*
X150600000Y-102950000D01*
X150600000Y-102950000D02*
X151600000Y-102950000D01*
%TO.C,C9*%
X140480000Y-103270000D02*
X139480000Y-103270000D01*
X140480000Y-102770000D02*
X140480000Y-103270000D01*
X139480000Y-103270000D02*
X139480000Y-102770000D01*
X139480000Y-102770000D02*
X140480000Y-102770000D01*
%TD*%
M02*
