%TF.GenerationSoftware,KiCad,Pcbnew,8.0.2-1*%
%TF.CreationDate,2024-05-16T14:53:05+09:00*%
%TF.ProjectId,eeg,6565672e-6b69-4636-9164-5f7063625858,rev?*%
%TF.SameCoordinates,Original*%
%TF.FileFunction,Soldermask,Bot*%
%TF.FilePolarity,Negative*%
%FSLAX46Y46*%
G04 Gerber Fmt 4.6, Leading zero omitted, Abs format (unit mm)*
G04 Created by KiCad (PCBNEW 8.0.2-1) date 2024-05-16 14:53:05*
%MOMM*%
%LPD*%
G01*
G04 APERTURE LIST*
G04 Aperture macros list*
%AMRoundRect*
0 Rectangle with rounded corners*
0 $1 Rounding radius*
0 $2 $3 $4 $5 $6 $7 $8 $9 X,Y pos of 4 corners*
0 Add a 4 corners polygon primitive as box body*
4,1,4,$2,$3,$4,$5,$6,$7,$8,$9,$2,$3,0*
0 Add four circle primitives for the rounded corners*
1,1,$1+$1,$2,$3*
1,1,$1+$1,$4,$5*
1,1,$1+$1,$6,$7*
1,1,$1+$1,$8,$9*
0 Add four rect primitives between the rounded corners*
20,1,$1+$1,$2,$3,$4,$5,0*
20,1,$1+$1,$4,$5,$6,$7,0*
20,1,$1+$1,$6,$7,$8,$9,0*
20,1,$1+$1,$8,$9,$2,$3,0*%
G04 Aperture macros list end*
%ADD10C,0.010000*%
%ADD11R,1.000000X1.000000*%
%ADD12O,1.000000X1.000000*%
%ADD13C,2.000000*%
%ADD14C,0.889000*%
%ADD15R,0.889000X1.244600*%
%ADD16R,0.812800X0.939800*%
%ADD17R,0.800000X0.300000*%
%ADD18R,0.300000X0.800000*%
%ADD19R,3.600000X3.600000*%
%ADD20RoundRect,0.140000X-0.170000X0.140000X-0.170000X-0.140000X0.170000X-0.140000X0.170000X0.140000X0*%
%ADD21RoundRect,0.140000X-0.140000X-0.170000X0.140000X-0.170000X0.140000X0.170000X-0.140000X0.170000X0*%
%ADD22RoundRect,0.140000X0.140000X0.170000X-0.140000X0.170000X-0.140000X-0.170000X0.140000X-0.170000X0*%
%ADD23RoundRect,0.140000X0.170000X-0.140000X0.170000X0.140000X-0.170000X0.140000X-0.170000X-0.140000X0*%
%ADD24RoundRect,0.175000X0.175000X0.325000X-0.175000X0.325000X-0.175000X-0.325000X0.175000X-0.325000X0*%
%ADD25RoundRect,0.150000X0.200000X0.150000X-0.200000X0.150000X-0.200000X-0.150000X0.200000X-0.150000X0*%
%ADD26RoundRect,0.102000X-0.125000X0.237500X-0.125000X-0.237500X0.125000X-0.237500X0.125000X0.237500X0*%
%ADD27RoundRect,0.102000X0.237500X0.125000X-0.237500X0.125000X-0.237500X-0.125000X0.237500X-0.125000X0*%
%ADD28RoundRect,0.135000X-0.135000X-0.185000X0.135000X-0.185000X0.135000X0.185000X-0.135000X0.185000X0*%
%ADD29RoundRect,0.218750X-0.218750X-0.256250X0.218750X-0.256250X0.218750X0.256250X-0.218750X0.256250X0*%
%ADD30RoundRect,0.135000X0.185000X-0.135000X0.185000X0.135000X-0.185000X0.135000X-0.185000X-0.135000X0*%
%ADD31R,1.200000X1.800000*%
%ADD32R,0.600000X1.200000*%
%ADD33R,1.800000X1.200000*%
%ADD34C,0.600000*%
%ADD35O,1.104000X2.204000*%
%ADD36O,1.104000X1.904000*%
G04 APERTURE END LIST*
D10*
%TO.C,U1*%
X159240000Y-97650000D02*
X158540000Y-97650000D01*
X158540000Y-96950000D01*
X159240000Y-96950000D01*
X159240000Y-97650000D01*
G36*
X159240000Y-97650000D02*
G01*
X158540000Y-97650000D01*
X158540000Y-96950000D01*
X159240000Y-96950000D01*
X159240000Y-97650000D01*
G37*
X159040000Y-98300000D02*
X158540000Y-98300000D01*
X158540000Y-97800000D01*
X159040000Y-97800000D01*
X159040000Y-98300000D01*
G36*
X159040000Y-98300000D02*
G01*
X158540000Y-98300000D01*
X158540000Y-97800000D01*
X159040000Y-97800000D01*
X159040000Y-98300000D01*
G37*
X159040000Y-98950000D02*
X158540000Y-98950000D01*
X158540000Y-98450000D01*
X159040000Y-98450000D01*
X159040000Y-98950000D01*
G36*
X159040000Y-98950000D02*
G01*
X158540000Y-98950000D01*
X158540000Y-98450000D01*
X159040000Y-98450000D01*
X159040000Y-98950000D01*
G37*
X159040000Y-99600000D02*
X158540000Y-99600000D01*
X158540000Y-99100000D01*
X159040000Y-99100000D01*
X159040000Y-99600000D01*
G36*
X159040000Y-99600000D02*
G01*
X158540000Y-99600000D01*
X158540000Y-99100000D01*
X159040000Y-99100000D01*
X159040000Y-99600000D01*
G37*
X159040000Y-100250000D02*
X158540000Y-100250000D01*
X158540000Y-99750000D01*
X159040000Y-99750000D01*
X159040000Y-100250000D01*
G36*
X159040000Y-100250000D02*
G01*
X158540000Y-100250000D01*
X158540000Y-99750000D01*
X159040000Y-99750000D01*
X159040000Y-100250000D01*
G37*
X159040000Y-100900000D02*
X158540000Y-100900000D01*
X158540000Y-100400000D01*
X159040000Y-100400000D01*
X159040000Y-100900000D01*
G36*
X159040000Y-100900000D02*
G01*
X158540000Y-100900000D01*
X158540000Y-100400000D01*
X159040000Y-100400000D01*
X159040000Y-100900000D01*
G37*
X159040000Y-101550000D02*
X158540000Y-101550000D01*
X158540000Y-101050000D01*
X159040000Y-101050000D01*
X159040000Y-101550000D01*
G36*
X159040000Y-101550000D02*
G01*
X158540000Y-101550000D01*
X158540000Y-101050000D01*
X159040000Y-101050000D01*
X159040000Y-101550000D01*
G37*
X159040000Y-102200000D02*
X158540000Y-102200000D01*
X158540000Y-101700000D01*
X159040000Y-101700000D01*
X159040000Y-102200000D01*
G36*
X159040000Y-102200000D02*
G01*
X158540000Y-102200000D01*
X158540000Y-101700000D01*
X159040000Y-101700000D01*
X159040000Y-102200000D01*
G37*
X159040000Y-102850000D02*
X158540000Y-102850000D01*
X158540000Y-102350000D01*
X159040000Y-102350000D01*
X159040000Y-102850000D01*
G36*
X159040000Y-102850000D02*
G01*
X158540000Y-102850000D01*
X158540000Y-102350000D01*
X159040000Y-102350000D01*
X159040000Y-102850000D01*
G37*
X159040000Y-103500000D02*
X158540000Y-103500000D01*
X158540000Y-103000000D01*
X159040000Y-103000000D01*
X159040000Y-103500000D01*
G36*
X159040000Y-103500000D02*
G01*
X158540000Y-103500000D01*
X158540000Y-103000000D01*
X159040000Y-103000000D01*
X159040000Y-103500000D01*
G37*
X159240000Y-104350000D02*
X158540000Y-104350000D01*
X158540000Y-103650000D01*
X159240000Y-103650000D01*
X159240000Y-104350000D01*
G36*
X159240000Y-104350000D02*
G01*
X158540000Y-104350000D01*
X158540000Y-103650000D01*
X159240000Y-103650000D01*
X159240000Y-104350000D01*
G37*
X159690000Y-98300000D02*
X159190000Y-98300000D01*
X159190000Y-97800000D01*
X159690000Y-97800000D01*
X159690000Y-98300000D01*
G36*
X159690000Y-98300000D02*
G01*
X159190000Y-98300000D01*
X159190000Y-97800000D01*
X159690000Y-97800000D01*
X159690000Y-98300000D01*
G37*
X159690000Y-98950000D02*
X159190000Y-98950000D01*
X159190000Y-98450000D01*
X159690000Y-98450000D01*
X159690000Y-98950000D01*
G36*
X159690000Y-98950000D02*
G01*
X159190000Y-98950000D01*
X159190000Y-98450000D01*
X159690000Y-98450000D01*
X159690000Y-98950000D01*
G37*
X159690000Y-99600000D02*
X159190000Y-99600000D01*
X159190000Y-99100000D01*
X159690000Y-99100000D01*
X159690000Y-99600000D01*
G36*
X159690000Y-99600000D02*
G01*
X159190000Y-99600000D01*
X159190000Y-99100000D01*
X159690000Y-99100000D01*
X159690000Y-99600000D01*
G37*
X159690000Y-100250000D02*
X159190000Y-100250000D01*
X159190000Y-99750000D01*
X159690000Y-99750000D01*
X159690000Y-100250000D01*
G36*
X159690000Y-100250000D02*
G01*
X159190000Y-100250000D01*
X159190000Y-99750000D01*
X159690000Y-99750000D01*
X159690000Y-100250000D01*
G37*
X159690000Y-100900000D02*
X159190000Y-100900000D01*
X159190000Y-100400000D01*
X159690000Y-100400000D01*
X159690000Y-100900000D01*
G36*
X159690000Y-100900000D02*
G01*
X159190000Y-100900000D01*
X159190000Y-100400000D01*
X159690000Y-100400000D01*
X159690000Y-100900000D01*
G37*
X159690000Y-101550000D02*
X159190000Y-101550000D01*
X159190000Y-101050000D01*
X159690000Y-101050000D01*
X159690000Y-101550000D01*
G36*
X159690000Y-101550000D02*
G01*
X159190000Y-101550000D01*
X159190000Y-101050000D01*
X159690000Y-101050000D01*
X159690000Y-101550000D01*
G37*
X159690000Y-102200000D02*
X159190000Y-102200000D01*
X159190000Y-101700000D01*
X159690000Y-101700000D01*
X159690000Y-102200000D01*
G36*
X159690000Y-102200000D02*
G01*
X159190000Y-102200000D01*
X159190000Y-101700000D01*
X159690000Y-101700000D01*
X159690000Y-102200000D01*
G37*
X159690000Y-102850000D02*
X159190000Y-102850000D01*
X159190000Y-102350000D01*
X159690000Y-102350000D01*
X159690000Y-102850000D01*
G36*
X159690000Y-102850000D02*
G01*
X159190000Y-102850000D01*
X159190000Y-102350000D01*
X159690000Y-102350000D01*
X159690000Y-102850000D01*
G37*
X159690000Y-103500000D02*
X159190000Y-103500000D01*
X159190000Y-103000000D01*
X159690000Y-103000000D01*
X159690000Y-103500000D01*
G36*
X159690000Y-103500000D02*
G01*
X159190000Y-103500000D01*
X159190000Y-103000000D01*
X159690000Y-103000000D01*
X159690000Y-103500000D01*
G37*
X160340000Y-97650000D02*
X159840000Y-97650000D01*
X159840000Y-97150000D01*
X160340000Y-97150000D01*
X160340000Y-97650000D01*
G36*
X160340000Y-97650000D02*
G01*
X159840000Y-97650000D01*
X159840000Y-97150000D01*
X160340000Y-97150000D01*
X160340000Y-97650000D01*
G37*
X160340000Y-98300000D02*
X159840000Y-98300000D01*
X159840000Y-97800000D01*
X160340000Y-97800000D01*
X160340000Y-98300000D01*
G36*
X160340000Y-98300000D02*
G01*
X159840000Y-98300000D01*
X159840000Y-97800000D01*
X160340000Y-97800000D01*
X160340000Y-98300000D01*
G37*
X160340000Y-98950000D02*
X159840000Y-98950000D01*
X159840000Y-98450000D01*
X160340000Y-98450000D01*
X160340000Y-98950000D01*
G36*
X160340000Y-98950000D02*
G01*
X159840000Y-98950000D01*
X159840000Y-98450000D01*
X160340000Y-98450000D01*
X160340000Y-98950000D01*
G37*
X160340000Y-99600000D02*
X159840000Y-99600000D01*
X159840000Y-99100000D01*
X160340000Y-99100000D01*
X160340000Y-99600000D01*
G36*
X160340000Y-99600000D02*
G01*
X159840000Y-99600000D01*
X159840000Y-99100000D01*
X160340000Y-99100000D01*
X160340000Y-99600000D01*
G37*
X160340000Y-100250000D02*
X159840000Y-100250000D01*
X159840000Y-99750000D01*
X160340000Y-99750000D01*
X160340000Y-100250000D01*
G36*
X160340000Y-100250000D02*
G01*
X159840000Y-100250000D01*
X159840000Y-99750000D01*
X160340000Y-99750000D01*
X160340000Y-100250000D01*
G37*
X160340000Y-100900000D02*
X159840000Y-100900000D01*
X159840000Y-100400000D01*
X160340000Y-100400000D01*
X160340000Y-100900000D01*
G36*
X160340000Y-100900000D02*
G01*
X159840000Y-100900000D01*
X159840000Y-100400000D01*
X160340000Y-100400000D01*
X160340000Y-100900000D01*
G37*
X160340000Y-101550000D02*
X159840000Y-101550000D01*
X159840000Y-101050000D01*
X160340000Y-101050000D01*
X160340000Y-101550000D01*
G36*
X160340000Y-101550000D02*
G01*
X159840000Y-101550000D01*
X159840000Y-101050000D01*
X160340000Y-101050000D01*
X160340000Y-101550000D01*
G37*
X160340000Y-102200000D02*
X159840000Y-102200000D01*
X159840000Y-101700000D01*
X160340000Y-101700000D01*
X160340000Y-102200000D01*
G36*
X160340000Y-102200000D02*
G01*
X159840000Y-102200000D01*
X159840000Y-101700000D01*
X160340000Y-101700000D01*
X160340000Y-102200000D01*
G37*
X160340000Y-102850000D02*
X159840000Y-102850000D01*
X159840000Y-102350000D01*
X160340000Y-102350000D01*
X160340000Y-102850000D01*
G36*
X160340000Y-102850000D02*
G01*
X159840000Y-102850000D01*
X159840000Y-102350000D01*
X160340000Y-102350000D01*
X160340000Y-102850000D01*
G37*
X160340000Y-103500000D02*
X159840000Y-103500000D01*
X159840000Y-103000000D01*
X160340000Y-103000000D01*
X160340000Y-103500000D01*
G36*
X160340000Y-103500000D02*
G01*
X159840000Y-103500000D01*
X159840000Y-103000000D01*
X160340000Y-103000000D01*
X160340000Y-103500000D01*
G37*
X160340000Y-104150000D02*
X159840000Y-104150000D01*
X159840000Y-103650000D01*
X160340000Y-103650000D01*
X160340000Y-104150000D01*
G36*
X160340000Y-104150000D02*
G01*
X159840000Y-104150000D01*
X159840000Y-103650000D01*
X160340000Y-103650000D01*
X160340000Y-104150000D01*
G37*
X160990000Y-97650000D02*
X160490000Y-97650000D01*
X160490000Y-97150000D01*
X160990000Y-97150000D01*
X160990000Y-97650000D01*
G36*
X160990000Y-97650000D02*
G01*
X160490000Y-97650000D01*
X160490000Y-97150000D01*
X160990000Y-97150000D01*
X160990000Y-97650000D01*
G37*
X160990000Y-98300000D02*
X160490000Y-98300000D01*
X160490000Y-97800000D01*
X160990000Y-97800000D01*
X160990000Y-98300000D01*
G36*
X160990000Y-98300000D02*
G01*
X160490000Y-98300000D01*
X160490000Y-97800000D01*
X160990000Y-97800000D01*
X160990000Y-98300000D01*
G37*
X160990000Y-98950000D02*
X160490000Y-98950000D01*
X160490000Y-98450000D01*
X160990000Y-98450000D01*
X160990000Y-98950000D01*
G36*
X160990000Y-98950000D02*
G01*
X160490000Y-98950000D01*
X160490000Y-98450000D01*
X160990000Y-98450000D01*
X160990000Y-98950000D01*
G37*
X160990000Y-99600000D02*
X160490000Y-99600000D01*
X160490000Y-99100000D01*
X160990000Y-99100000D01*
X160990000Y-99600000D01*
G36*
X160990000Y-99600000D02*
G01*
X160490000Y-99600000D01*
X160490000Y-99100000D01*
X160990000Y-99100000D01*
X160990000Y-99600000D01*
G37*
X160990000Y-100250000D02*
X160490000Y-100250000D01*
X160490000Y-99750000D01*
X160990000Y-99750000D01*
X160990000Y-100250000D01*
G36*
X160990000Y-100250000D02*
G01*
X160490000Y-100250000D01*
X160490000Y-99750000D01*
X160990000Y-99750000D01*
X160990000Y-100250000D01*
G37*
X160990000Y-100900000D02*
X160490000Y-100900000D01*
X160490000Y-100400000D01*
X160990000Y-100400000D01*
X160990000Y-100900000D01*
G36*
X160990000Y-100900000D02*
G01*
X160490000Y-100900000D01*
X160490000Y-100400000D01*
X160990000Y-100400000D01*
X160990000Y-100900000D01*
G37*
X160990000Y-101550000D02*
X160490000Y-101550000D01*
X160490000Y-101050000D01*
X160990000Y-101050000D01*
X160990000Y-101550000D01*
G36*
X160990000Y-101550000D02*
G01*
X160490000Y-101550000D01*
X160490000Y-101050000D01*
X160990000Y-101050000D01*
X160990000Y-101550000D01*
G37*
X160990000Y-102200000D02*
X160490000Y-102200000D01*
X160490000Y-101700000D01*
X160990000Y-101700000D01*
X160990000Y-102200000D01*
G36*
X160990000Y-102200000D02*
G01*
X160490000Y-102200000D01*
X160490000Y-101700000D01*
X160990000Y-101700000D01*
X160990000Y-102200000D01*
G37*
X160990000Y-102850000D02*
X160490000Y-102850000D01*
X160490000Y-102350000D01*
X160990000Y-102350000D01*
X160990000Y-102850000D01*
G36*
X160990000Y-102850000D02*
G01*
X160490000Y-102850000D01*
X160490000Y-102350000D01*
X160990000Y-102350000D01*
X160990000Y-102850000D01*
G37*
X160990000Y-103500000D02*
X160490000Y-103500000D01*
X160490000Y-103000000D01*
X160990000Y-103000000D01*
X160990000Y-103500000D01*
G36*
X160990000Y-103500000D02*
G01*
X160490000Y-103500000D01*
X160490000Y-103000000D01*
X160990000Y-103000000D01*
X160990000Y-103500000D01*
G37*
X160990000Y-104150000D02*
X160490000Y-104150000D01*
X160490000Y-103650000D01*
X160990000Y-103650000D01*
X160990000Y-104150000D01*
G36*
X160990000Y-104150000D02*
G01*
X160490000Y-104150000D01*
X160490000Y-103650000D01*
X160990000Y-103650000D01*
X160990000Y-104150000D01*
G37*
X161640000Y-97650000D02*
X161140000Y-97650000D01*
X161140000Y-97150000D01*
X161640000Y-97150000D01*
X161640000Y-97650000D01*
G36*
X161640000Y-97650000D02*
G01*
X161140000Y-97650000D01*
X161140000Y-97150000D01*
X161640000Y-97150000D01*
X161640000Y-97650000D01*
G37*
X161640000Y-98300000D02*
X161140000Y-98300000D01*
X161140000Y-97800000D01*
X161640000Y-97800000D01*
X161640000Y-98300000D01*
G36*
X161640000Y-98300000D02*
G01*
X161140000Y-98300000D01*
X161140000Y-97800000D01*
X161640000Y-97800000D01*
X161640000Y-98300000D01*
G37*
X161640000Y-98950000D02*
X161140000Y-98950000D01*
X161140000Y-98450000D01*
X161640000Y-98450000D01*
X161640000Y-98950000D01*
G36*
X161640000Y-98950000D02*
G01*
X161140000Y-98950000D01*
X161140000Y-98450000D01*
X161640000Y-98450000D01*
X161640000Y-98950000D01*
G37*
X161640000Y-99600000D02*
X161140000Y-99600000D01*
X161140000Y-99100000D01*
X161640000Y-99100000D01*
X161640000Y-99600000D01*
G36*
X161640000Y-99600000D02*
G01*
X161140000Y-99600000D01*
X161140000Y-99100000D01*
X161640000Y-99100000D01*
X161640000Y-99600000D01*
G37*
X161640000Y-100250000D02*
X161140000Y-100250000D01*
X161140000Y-99750000D01*
X161640000Y-99750000D01*
X161640000Y-100250000D01*
G36*
X161640000Y-100250000D02*
G01*
X161140000Y-100250000D01*
X161140000Y-99750000D01*
X161640000Y-99750000D01*
X161640000Y-100250000D01*
G37*
X161640000Y-100900000D02*
X161140000Y-100900000D01*
X161140000Y-100400000D01*
X161640000Y-100400000D01*
X161640000Y-100900000D01*
G36*
X161640000Y-100900000D02*
G01*
X161140000Y-100900000D01*
X161140000Y-100400000D01*
X161640000Y-100400000D01*
X161640000Y-100900000D01*
G37*
X161640000Y-101550000D02*
X161140000Y-101550000D01*
X161140000Y-101050000D01*
X161640000Y-101050000D01*
X161640000Y-101550000D01*
G36*
X161640000Y-101550000D02*
G01*
X161140000Y-101550000D01*
X161140000Y-101050000D01*
X161640000Y-101050000D01*
X161640000Y-101550000D01*
G37*
X161640000Y-102200000D02*
X161140000Y-102200000D01*
X161140000Y-101700000D01*
X161640000Y-101700000D01*
X161640000Y-102200000D01*
G36*
X161640000Y-102200000D02*
G01*
X161140000Y-102200000D01*
X161140000Y-101700000D01*
X161640000Y-101700000D01*
X161640000Y-102200000D01*
G37*
X161640000Y-102850000D02*
X161140000Y-102850000D01*
X161140000Y-102350000D01*
X161640000Y-102350000D01*
X161640000Y-102850000D01*
G36*
X161640000Y-102850000D02*
G01*
X161140000Y-102850000D01*
X161140000Y-102350000D01*
X161640000Y-102350000D01*
X161640000Y-102850000D01*
G37*
X161640000Y-103500000D02*
X161140000Y-103500000D01*
X161140000Y-103000000D01*
X161640000Y-103000000D01*
X161640000Y-103500000D01*
G36*
X161640000Y-103500000D02*
G01*
X161140000Y-103500000D01*
X161140000Y-103000000D01*
X161640000Y-103000000D01*
X161640000Y-103500000D01*
G37*
X161640000Y-104150000D02*
X161140000Y-104150000D01*
X161140000Y-103650000D01*
X161640000Y-103650000D01*
X161640000Y-104150000D01*
G36*
X161640000Y-104150000D02*
G01*
X161140000Y-104150000D01*
X161140000Y-103650000D01*
X161640000Y-103650000D01*
X161640000Y-104150000D01*
G37*
X162290000Y-97650000D02*
X161790000Y-97650000D01*
X161790000Y-97150000D01*
X162290000Y-97150000D01*
X162290000Y-97650000D01*
G36*
X162290000Y-97650000D02*
G01*
X161790000Y-97650000D01*
X161790000Y-97150000D01*
X162290000Y-97150000D01*
X162290000Y-97650000D01*
G37*
X162290000Y-98300000D02*
X161790000Y-98300000D01*
X161790000Y-97800000D01*
X162290000Y-97800000D01*
X162290000Y-98300000D01*
G36*
X162290000Y-98300000D02*
G01*
X161790000Y-98300000D01*
X161790000Y-97800000D01*
X162290000Y-97800000D01*
X162290000Y-98300000D01*
G37*
X162290000Y-98950000D02*
X161790000Y-98950000D01*
X161790000Y-98450000D01*
X162290000Y-98450000D01*
X162290000Y-98950000D01*
G36*
X162290000Y-98950000D02*
G01*
X161790000Y-98950000D01*
X161790000Y-98450000D01*
X162290000Y-98450000D01*
X162290000Y-98950000D01*
G37*
X162290000Y-99600000D02*
X161790000Y-99600000D01*
X161790000Y-99100000D01*
X162290000Y-99100000D01*
X162290000Y-99600000D01*
G36*
X162290000Y-99600000D02*
G01*
X161790000Y-99600000D01*
X161790000Y-99100000D01*
X162290000Y-99100000D01*
X162290000Y-99600000D01*
G37*
X162290000Y-100250000D02*
X161790000Y-100250000D01*
X161790000Y-99750000D01*
X162290000Y-99750000D01*
X162290000Y-100250000D01*
G36*
X162290000Y-100250000D02*
G01*
X161790000Y-100250000D01*
X161790000Y-99750000D01*
X162290000Y-99750000D01*
X162290000Y-100250000D01*
G37*
X162290000Y-100900000D02*
X161790000Y-100900000D01*
X161790000Y-100400000D01*
X162290000Y-100400000D01*
X162290000Y-100900000D01*
G36*
X162290000Y-100900000D02*
G01*
X161790000Y-100900000D01*
X161790000Y-100400000D01*
X162290000Y-100400000D01*
X162290000Y-100900000D01*
G37*
X162290000Y-101550000D02*
X161790000Y-101550000D01*
X161790000Y-101050000D01*
X162290000Y-101050000D01*
X162290000Y-101550000D01*
G36*
X162290000Y-101550000D02*
G01*
X161790000Y-101550000D01*
X161790000Y-101050000D01*
X162290000Y-101050000D01*
X162290000Y-101550000D01*
G37*
X162290000Y-102200000D02*
X161790000Y-102200000D01*
X161790000Y-101700000D01*
X162290000Y-101700000D01*
X162290000Y-102200000D01*
G36*
X162290000Y-102200000D02*
G01*
X161790000Y-102200000D01*
X161790000Y-101700000D01*
X162290000Y-101700000D01*
X162290000Y-102200000D01*
G37*
X162290000Y-102850000D02*
X161790000Y-102850000D01*
X161790000Y-102350000D01*
X162290000Y-102350000D01*
X162290000Y-102850000D01*
G36*
X162290000Y-102850000D02*
G01*
X161790000Y-102850000D01*
X161790000Y-102350000D01*
X162290000Y-102350000D01*
X162290000Y-102850000D01*
G37*
X162290000Y-103500000D02*
X161790000Y-103500000D01*
X161790000Y-103000000D01*
X162290000Y-103000000D01*
X162290000Y-103500000D01*
G36*
X162290000Y-103500000D02*
G01*
X161790000Y-103500000D01*
X161790000Y-103000000D01*
X162290000Y-103000000D01*
X162290000Y-103500000D01*
G37*
X162290000Y-104150000D02*
X161790000Y-104150000D01*
X161790000Y-103650000D01*
X162290000Y-103650000D01*
X162290000Y-104150000D01*
G36*
X162290000Y-104150000D02*
G01*
X161790000Y-104150000D01*
X161790000Y-103650000D01*
X162290000Y-103650000D01*
X162290000Y-104150000D01*
G37*
X163590000Y-97650000D02*
X163090000Y-97650000D01*
X163090000Y-97150000D01*
X163590000Y-97150000D01*
X163590000Y-97650000D01*
G36*
X163590000Y-97650000D02*
G01*
X163090000Y-97650000D01*
X163090000Y-97150000D01*
X163590000Y-97150000D01*
X163590000Y-97650000D01*
G37*
X163590000Y-104150000D02*
X163090000Y-104150000D01*
X163090000Y-103650000D01*
X163590000Y-103650000D01*
X163590000Y-104150000D01*
G36*
X163590000Y-104150000D02*
G01*
X163090000Y-104150000D01*
X163090000Y-103650000D01*
X163590000Y-103650000D01*
X163590000Y-104150000D01*
G37*
X164890000Y-97650000D02*
X164390000Y-97650000D01*
X164390000Y-97150000D01*
X164890000Y-97150000D01*
X164890000Y-97650000D01*
G36*
X164890000Y-97650000D02*
G01*
X164390000Y-97650000D01*
X164390000Y-97150000D01*
X164890000Y-97150000D01*
X164890000Y-97650000D01*
G37*
X164890000Y-104150000D02*
X164390000Y-104150000D01*
X164390000Y-103650000D01*
X164890000Y-103650000D01*
X164890000Y-104150000D01*
G36*
X164890000Y-104150000D02*
G01*
X164390000Y-104150000D01*
X164390000Y-103650000D01*
X164890000Y-103650000D01*
X164890000Y-104150000D01*
G37*
X165940000Y-97650000D02*
X165240000Y-97650000D01*
X165240000Y-96950000D01*
X165940000Y-96950000D01*
X165940000Y-97650000D01*
G36*
X165940000Y-97650000D02*
G01*
X165240000Y-97650000D01*
X165240000Y-96950000D01*
X165940000Y-96950000D01*
X165940000Y-97650000D01*
G37*
X165940000Y-104350000D02*
X165240000Y-104350000D01*
X165240000Y-103650000D01*
X165940000Y-103650000D01*
X165940000Y-104350000D01*
G36*
X165940000Y-104350000D02*
G01*
X165240000Y-104350000D01*
X165240000Y-103650000D01*
X165940000Y-103650000D01*
X165940000Y-104350000D01*
G37*
X165940000Y-98950000D02*
X165440000Y-98950000D01*
X165440000Y-98450000D01*
X165940000Y-98450000D01*
X165940000Y-98950000D01*
G36*
X165940000Y-98950000D02*
G01*
X165440000Y-98950000D01*
X165440000Y-98450000D01*
X165940000Y-98450000D01*
X165940000Y-98950000D01*
G37*
X165940000Y-100250000D02*
X165440000Y-100250000D01*
X165440000Y-99750000D01*
X165940000Y-99750000D01*
X165940000Y-100250000D01*
G36*
X165940000Y-100250000D02*
G01*
X165440000Y-100250000D01*
X165440000Y-99750000D01*
X165940000Y-99750000D01*
X165940000Y-100250000D01*
G37*
X165940000Y-101550000D02*
X165440000Y-101550000D01*
X165440000Y-101050000D01*
X165940000Y-101050000D01*
X165940000Y-101550000D01*
G36*
X165940000Y-101550000D02*
G01*
X165440000Y-101550000D01*
X165440000Y-101050000D01*
X165940000Y-101050000D01*
X165940000Y-101550000D01*
G37*
X165940000Y-102850000D02*
X165440000Y-102850000D01*
X165440000Y-102350000D01*
X165940000Y-102350000D01*
X165940000Y-102850000D01*
G36*
X165940000Y-102850000D02*
G01*
X165440000Y-102850000D01*
X165440000Y-102350000D01*
X165940000Y-102350000D01*
X165940000Y-102850000D01*
G37*
%TO.C,J3*%
X136825000Y-95950000D02*
X136125000Y-95950000D01*
X136125000Y-94710000D01*
X136825000Y-94710000D01*
X136825000Y-95950000D01*
G36*
X136825000Y-95950000D02*
G01*
X136125000Y-95950000D01*
X136125000Y-94710000D01*
X136825000Y-94710000D01*
X136825000Y-95950000D01*
G37*
X137625000Y-95950000D02*
X136925000Y-95950000D01*
X136925000Y-94710000D01*
X137625000Y-94710000D01*
X137625000Y-95950000D01*
G36*
X137625000Y-95950000D02*
G01*
X136925000Y-95950000D01*
X136925000Y-94710000D01*
X137625000Y-94710000D01*
X137625000Y-95950000D01*
G37*
X138125000Y-95950000D02*
X137725000Y-95950000D01*
X137725000Y-94710000D01*
X138125000Y-94710000D01*
X138125000Y-95950000D01*
G36*
X138125000Y-95950000D02*
G01*
X137725000Y-95950000D01*
X137725000Y-94710000D01*
X138125000Y-94710000D01*
X138125000Y-95950000D01*
G37*
X138625000Y-95950000D02*
X138225000Y-95950000D01*
X138225000Y-94710000D01*
X138625000Y-94710000D01*
X138625000Y-95950000D01*
G36*
X138625000Y-95950000D02*
G01*
X138225000Y-95950000D01*
X138225000Y-94710000D01*
X138625000Y-94710000D01*
X138625000Y-95950000D01*
G37*
X139125000Y-95950000D02*
X138725000Y-95950000D01*
X138725000Y-94710000D01*
X139125000Y-94710000D01*
X139125000Y-95950000D01*
G36*
X139125000Y-95950000D02*
G01*
X138725000Y-95950000D01*
X138725000Y-94710000D01*
X139125000Y-94710000D01*
X139125000Y-95950000D01*
G37*
X139625000Y-95950000D02*
X139225000Y-95950000D01*
X139225000Y-94710000D01*
X139625000Y-94710000D01*
X139625000Y-95950000D01*
G36*
X139625000Y-95950000D02*
G01*
X139225000Y-95950000D01*
X139225000Y-94710000D01*
X139625000Y-94710000D01*
X139625000Y-95950000D01*
G37*
X140125000Y-95950000D02*
X139725000Y-95950000D01*
X139725000Y-94710000D01*
X140125000Y-94710000D01*
X140125000Y-95950000D01*
G36*
X140125000Y-95950000D02*
G01*
X139725000Y-95950000D01*
X139725000Y-94710000D01*
X140125000Y-94710000D01*
X140125000Y-95950000D01*
G37*
X140625000Y-95950000D02*
X140225000Y-95950000D01*
X140225000Y-94710000D01*
X140625000Y-94710000D01*
X140625000Y-95950000D01*
G36*
X140625000Y-95950000D02*
G01*
X140225000Y-95950000D01*
X140225000Y-94710000D01*
X140625000Y-94710000D01*
X140625000Y-95950000D01*
G37*
X141125000Y-95950000D02*
X140725000Y-95950000D01*
X140725000Y-94710000D01*
X141125000Y-94710000D01*
X141125000Y-95950000D01*
G36*
X141125000Y-95950000D02*
G01*
X140725000Y-95950000D01*
X140725000Y-94710000D01*
X141125000Y-94710000D01*
X141125000Y-95950000D01*
G37*
X141625000Y-95950000D02*
X141225000Y-95950000D01*
X141225000Y-94710000D01*
X141625000Y-94710000D01*
X141625000Y-95950000D01*
G36*
X141625000Y-95950000D02*
G01*
X141225000Y-95950000D01*
X141225000Y-94710000D01*
X141625000Y-94710000D01*
X141625000Y-95950000D01*
G37*
X142425000Y-95950000D02*
X141725000Y-95950000D01*
X141725000Y-94710000D01*
X142425000Y-94710000D01*
X142425000Y-95950000D01*
G36*
X142425000Y-95950000D02*
G01*
X141725000Y-95950000D01*
X141725000Y-94710000D01*
X142425000Y-94710000D01*
X142425000Y-95950000D01*
G37*
X143225000Y-95950000D02*
X142525000Y-95950000D01*
X142525000Y-94710000D01*
X143225000Y-94710000D01*
X143225000Y-95950000D01*
G36*
X143225000Y-95950000D02*
G01*
X142525000Y-95950000D01*
X142525000Y-94710000D01*
X143225000Y-94710000D01*
X143225000Y-95950000D01*
G37*
%TD*%
D11*
%TO.C,J2*%
X160220000Y-106230000D03*
D12*
X160220000Y-107500000D03*
X160220000Y-108770000D03*
X160220000Y-110040000D03*
%TD*%
D13*
%TO.C,EEG_Board1*%
X133500000Y-89500000D03*
X133500000Y-110500000D03*
X166500000Y-89500000D03*
X166500000Y-110500000D03*
%TD*%
D11*
%TO.C,J1*%
X161265000Y-90160000D03*
D12*
X162535000Y-90160000D03*
X163805000Y-90160000D03*
%TD*%
D11*
%TO.C,J4*%
X135000000Y-105175000D03*
D12*
X135000000Y-103905000D03*
X135000000Y-102635000D03*
X135000000Y-101365000D03*
X135000000Y-100095000D03*
X135000000Y-98825000D03*
%TD*%
D14*
%TO.C,SW1*%
X143397200Y-109400000D03*
X140400000Y-109400000D03*
D15*
X144146500Y-107324820D03*
X141149300Y-107324820D03*
X139650700Y-107324820D03*
D16*
X145698440Y-108269700D03*
X138098760Y-108269700D03*
X145698440Y-110530300D03*
X138098760Y-110530300D03*
%TD*%
D17*
%TO.C,IC1*%
X147530000Y-99030000D03*
X147530000Y-99530000D03*
X147530000Y-100030000D03*
X147530000Y-100530000D03*
X147530000Y-101030000D03*
X147530000Y-101530000D03*
X147530000Y-102030000D03*
X147530000Y-102530000D03*
D18*
X146830000Y-103230000D03*
X146330000Y-103230000D03*
X145830000Y-103230000D03*
X145330000Y-103230000D03*
X144830000Y-103230000D03*
X144330000Y-103230000D03*
X143830000Y-103230000D03*
X143330000Y-103230000D03*
D17*
X142630000Y-102530000D03*
X142630000Y-102030000D03*
X142630000Y-101530000D03*
X142630000Y-101030000D03*
X142630000Y-100530000D03*
X142630000Y-100030000D03*
X142630000Y-99530000D03*
X142630000Y-99030000D03*
D18*
X143330000Y-98330000D03*
X143830000Y-98330000D03*
X144330000Y-98330000D03*
X144830000Y-98330000D03*
X145330000Y-98330000D03*
X145830000Y-98330000D03*
X146330000Y-98330000D03*
X146830000Y-98330000D03*
D19*
X145080000Y-100780000D03*
%TD*%
D20*
%TO.C,C2*%
X156100000Y-100520000D03*
X156100000Y-101480000D03*
%TD*%
D21*
%TO.C,C14*%
X146240000Y-91920000D03*
X147200000Y-91920000D03*
%TD*%
%TO.C,C19*%
X152065000Y-90840000D03*
X153025000Y-90840000D03*
%TD*%
D22*
%TO.C,C8*%
X140440000Y-100300000D03*
X139480000Y-100300000D03*
%TD*%
D21*
%TO.C,C7*%
X145600000Y-104440000D03*
X146560000Y-104440000D03*
%TD*%
D23*
%TO.C,C17*%
X149620000Y-102000000D03*
X149620000Y-101040000D03*
%TD*%
D24*
%TO.C,D2*%
X150500000Y-89900000D03*
D25*
X150500000Y-91600000D03*
X148500000Y-91600000D03*
X148500000Y-89700000D03*
%TD*%
D26*
%TO.C,U2*%
X154937500Y-105937500D03*
X155437500Y-105937500D03*
X155937500Y-105937500D03*
X156437500Y-105937500D03*
D27*
X156600000Y-106600000D03*
X156600000Y-107100000D03*
X156600000Y-107600000D03*
D26*
X156437500Y-108262500D03*
X155937500Y-108262500D03*
X155437500Y-108262500D03*
X154937500Y-108262500D03*
D27*
X154775000Y-107600000D03*
X154775000Y-107100000D03*
X154775000Y-106600000D03*
%TD*%
D28*
%TO.C,R1*%
X155220000Y-98050000D03*
X156240000Y-98050000D03*
%TD*%
D29*
%TO.C,D1*%
X145525000Y-89500000D03*
X147100000Y-89500000D03*
%TD*%
D21*
%TO.C,C5*%
X159100000Y-94530000D03*
X160060000Y-94530000D03*
%TD*%
D22*
%TO.C,C11*%
X149650000Y-98070000D03*
X148690000Y-98070000D03*
%TD*%
%TO.C,C10*%
X140439996Y-98790000D03*
X139479996Y-98790000D03*
%TD*%
D21*
%TO.C,C16*%
X146240000Y-90820000D03*
X147200000Y-90820000D03*
%TD*%
D20*
%TO.C,C4*%
X157737500Y-108262500D03*
X157737500Y-109222500D03*
%TD*%
D30*
%TO.C,R2*%
X142280000Y-105440000D03*
X142280000Y-104420000D03*
%TD*%
D20*
%TO.C,C15*%
X149620000Y-99060000D03*
X149620000Y-100020000D03*
%TD*%
D31*
%TO.C,L2*%
X151040000Y-101520000D03*
X152740000Y-101520000D03*
%TD*%
D21*
%TO.C,C18*%
X139480000Y-101350000D03*
X140440000Y-101350000D03*
%TD*%
D11*
%TO.C,BT1*%
X135720000Y-107870000D03*
D12*
X134450000Y-107870000D03*
%TD*%
D32*
%TO.C,IC2*%
X152075000Y-92400000D03*
X153025000Y-92400000D03*
X153975000Y-92400000D03*
X153975000Y-94900000D03*
X153025000Y-94900000D03*
X152075000Y-94900000D03*
%TD*%
D33*
%TO.C,L1*%
X151340000Y-99240000D03*
X151340000Y-97540000D03*
%TD*%
D30*
%TO.C,R3*%
X143330000Y-105440000D03*
X143330000Y-104420000D03*
%TD*%
D34*
%TO.C,J3*%
X136785000Y-94260000D03*
X142565000Y-94260000D03*
D35*
X135350000Y-94750000D03*
X144000000Y-94750000D03*
D36*
X135350000Y-90580000D03*
X144000000Y-90580000D03*
%TD*%
D23*
%TO.C,C13*%
X150635000Y-94610000D03*
X150635000Y-93650000D03*
%TD*%
D22*
%TO.C,C3*%
X156210000Y-96990000D03*
X155250000Y-96990000D03*
%TD*%
%TO.C,C1*%
X160060000Y-95570000D03*
X159100000Y-95570000D03*
%TD*%
D23*
%TO.C,C6*%
X157737500Y-106602500D03*
X157737500Y-105642500D03*
%TD*%
D21*
%TO.C,C12*%
X150620000Y-103200000D03*
X151580000Y-103200000D03*
%TD*%
%TO.C,C9*%
X139500000Y-103020000D03*
X140460000Y-103020000D03*
%TD*%
M02*
