%TF.GenerationSoftware,KiCad,Pcbnew,8.0.2-1*%
%TF.CreationDate,2024-06-20T09:38:11+09:00*%
%TF.ProjectId,eeg,6565672e-6b69-4636-9164-5f7063625858,rev?*%
%TF.SameCoordinates,Original*%
%TF.FileFunction,Copper,L2,Inr*%
%TF.FilePolarity,Positive*%
%FSLAX46Y46*%
G04 Gerber Fmt 4.6, Leading zero omitted, Abs format (unit mm)*
G04 Created by KiCad (PCBNEW 8.0.2-1) date 2024-06-20 09:38:11*
%MOMM*%
%LPD*%
G01*
G04 APERTURE LIST*
%TA.AperFunction,ComponentPad*%
%ADD10R,1.700000X1.700000*%
%TD*%
%TA.AperFunction,ComponentPad*%
%ADD11O,1.700000X1.700000*%
%TD*%
%TA.AperFunction,ComponentPad*%
%ADD12R,1.000000X1.000000*%
%TD*%
%TA.AperFunction,ComponentPad*%
%ADD13O,1.000000X1.000000*%
%TD*%
%TA.AperFunction,ComponentPad*%
%ADD14O,0.900000X2.000000*%
%TD*%
%TA.AperFunction,ComponentPad*%
%ADD15O,0.900000X1.700000*%
%TD*%
%TA.AperFunction,ViaPad*%
%ADD16C,0.400000*%
%TD*%
%TA.AperFunction,ViaPad*%
%ADD17C,0.450000*%
%TD*%
G04 APERTURE END LIST*
D10*
%TO.N,/DVDD*%
%TO.C,J2*%
X156300000Y-112600000D03*
D11*
%TO.N,/SWDIO*%
X158840000Y-112600000D03*
%TO.N,/SWDCLK*%
X161380000Y-112600000D03*
%TO.N,GND*%
X163920000Y-112600000D03*
%TD*%
D10*
%TO.N,/UART_RX*%
%TO.C,J1*%
X160175000Y-90300000D03*
D11*
%TO.N,/UART_TX*%
X162715000Y-90300000D03*
%TO.N,GND*%
X165255000Y-90300000D03*
%TD*%
D10*
%TO.N,/ads1299/1P*%
%TO.C,J4*%
X131100000Y-106950000D03*
D11*
%TO.N,/ads1299/2P*%
X131100000Y-104410000D03*
%TO.N,/ads1299/3P*%
X131100000Y-101870000D03*
%TO.N,/ads1299/4P*%
X131100000Y-99330000D03*
%TO.N,/ads1299/REF*%
X131100000Y-96790000D03*
%TO.N,/ads1299/BIAS*%
X131100000Y-94250000D03*
%TD*%
D12*
%TO.N,Net-(BT1-+)*%
%TO.C,BT1*%
X135720000Y-107870000D03*
D13*
%TO.N,GND*%
X134450000Y-107870000D03*
%TD*%
D14*
%TO.N,unconnected-(J3-SHIELD-PadS1)_0*%
%TO.C,J3*%
X135350000Y-94750000D03*
%TO.N,unconnected-(J3-SHIELD-PadS1)_2*%
X144000000Y-94750000D03*
D15*
%TO.N,unconnected-(J3-SHIELD-PadS1)*%
X135350000Y-90580000D03*
%TO.N,unconnected-(J3-SHIELD-PadS1)_1*%
X144000000Y-90580000D03*
%TD*%
D16*
%TO.N,VSSA*%
X146490000Y-109600000D03*
X149400000Y-110200000D03*
X149620000Y-91710000D03*
X152635696Y-90342662D03*
X154400000Y-90200000D03*
X140480000Y-93290000D03*
%TO.N,/DVDD*%
X152740000Y-101520000D03*
X147379996Y-98330000D03*
X157280000Y-91800000D03*
X159100000Y-94530000D03*
X145600000Y-104440000D03*
X158725000Y-109400000D03*
X156100000Y-100520000D03*
X157737500Y-108262500D03*
X157737500Y-106602500D03*
X156320000Y-102250000D03*
X159200000Y-93680000D03*
%TO.N,/USB-C/VBUS_IN*%
X142075000Y-95330000D03*
X137275000Y-95330000D03*
%TO.N,/nrf5340/VBUS_OUT*%
X140439996Y-98790000D03*
X152800000Y-98696802D03*
%TO.N,/AVDD*%
X153867724Y-90704383D03*
D17*
X153400000Y-97400000D03*
X149620000Y-92670000D03*
X154200000Y-97400000D03*
D16*
X147720000Y-109800000D03*
X139030000Y-93290000D03*
X145600000Y-107200000D03*
%TO.N,/power/CHG*%
X145525000Y-89500000D03*
X145520000Y-94890000D03*
%TO.N,/nrf5340/SDA*%
X151164124Y-104564124D03*
X159440000Y-103250000D03*
%TO.N,/power/PVDD*%
X149610000Y-101040000D03*
X149620000Y-100020000D03*
X147100000Y-89500000D03*
X149220000Y-96500000D03*
X140440000Y-101350000D03*
%TO.N,GND*%
X144400000Y-99400000D03*
X137520000Y-104400000D03*
X148000000Y-97000000D03*
X146560000Y-104440000D03*
X147430000Y-94260000D03*
X148600000Y-99060000D03*
X136700000Y-103800000D03*
X157737500Y-109222500D03*
X157200000Y-107600000D03*
X143800000Y-101400000D03*
X156160000Y-99610000D03*
X162040000Y-97400000D03*
X162040000Y-103900000D03*
X140100000Y-105200000D03*
X136475000Y-95330000D03*
X150000000Y-95510000D03*
X161390000Y-101300000D03*
X158890000Y-97300000D03*
X159200000Y-92720000D03*
X156320000Y-91800000D03*
X149000000Y-104000000D03*
X143330000Y-105440000D03*
X149650000Y-98070000D03*
X162300000Y-110000000D03*
X142875000Y-95330000D03*
X155000000Y-103750000D03*
X157739105Y-105644188D03*
X156100000Y-101480000D03*
X139030000Y-94250000D03*
X158400000Y-105000000D03*
X151800000Y-90200000D03*
X139608218Y-96298620D03*
X162040000Y-102600000D03*
X139479996Y-98790000D03*
X139480000Y-101350000D03*
X137500000Y-100800000D03*
X140480000Y-94250000D03*
X162040000Y-100650000D03*
X155591825Y-96335282D03*
X160060000Y-94530000D03*
X136800000Y-99200000D03*
X165000000Y-110000000D03*
%TO.N,/nrf5340/BMI270_CS*%
X154567628Y-108884698D03*
X161390000Y-103250000D03*
%TO.N,/ads1299/SCK*%
X154405823Y-104600498D03*
X160090000Y-100000000D03*
%TO.N,/ads1299/MISO*%
X160090000Y-98060000D03*
X156147102Y-104324650D03*
%TO.N,/ads1299/~{DRDY}*%
X161390000Y-98700000D03*
%TO.N,/ads1299/MOSI*%
X158790000Y-103250000D03*
%TO.N,/ads1299/~{ADS1299_CS}*%
X160740000Y-101300000D03*
%TO.N,/ads1299/START*%
X159440000Y-102600000D03*
%TO.N,/BMI270_INT1*%
X162040000Y-98700000D03*
X157400000Y-104400000D03*
%TD*%
%TA.AperFunction,Conductor*%
%TO.N,VSSA*%
G36*
X145091513Y-89019685D02*
G01*
X145137268Y-89072489D01*
X145147212Y-89141647D01*
X145118187Y-89205202D01*
X145099625Y-89226622D01*
X145099622Y-89226628D01*
X145039834Y-89357543D01*
X145019353Y-89500000D01*
X145039834Y-89642456D01*
X145065886Y-89699500D01*
X145099623Y-89773373D01*
X145193872Y-89882143D01*
X145314947Y-89959953D01*
X145314950Y-89959954D01*
X145314949Y-89959954D01*
X145453036Y-90000499D01*
X145453038Y-90000500D01*
X145453039Y-90000500D01*
X145596962Y-90000500D01*
X145596962Y-90000499D01*
X145735053Y-89959953D01*
X145856128Y-89882143D01*
X145950377Y-89773373D01*
X146010165Y-89642457D01*
X146030647Y-89500000D01*
X146010165Y-89357543D01*
X145950377Y-89226627D01*
X145950375Y-89226625D01*
X145950374Y-89226622D01*
X145931813Y-89205202D01*
X145902788Y-89141647D01*
X145912732Y-89072488D01*
X145958487Y-89019684D01*
X146025526Y-89000000D01*
X146599474Y-89000000D01*
X146666513Y-89019685D01*
X146712268Y-89072489D01*
X146722212Y-89141647D01*
X146693187Y-89205202D01*
X146674625Y-89226622D01*
X146674622Y-89226628D01*
X146614834Y-89357543D01*
X146594353Y-89500000D01*
X146614834Y-89642456D01*
X146640886Y-89699500D01*
X146674623Y-89773373D01*
X146768872Y-89882143D01*
X146889947Y-89959953D01*
X146889950Y-89959954D01*
X146889949Y-89959954D01*
X147028036Y-90000499D01*
X147028038Y-90000500D01*
X147028039Y-90000500D01*
X147171962Y-90000500D01*
X147171962Y-90000499D01*
X147310053Y-89959953D01*
X147431128Y-89882143D01*
X147525377Y-89773373D01*
X147585165Y-89642457D01*
X147605647Y-89500000D01*
X147585165Y-89357543D01*
X147525377Y-89226627D01*
X147525375Y-89226625D01*
X147525374Y-89226622D01*
X147506813Y-89205202D01*
X147477788Y-89141647D01*
X147487732Y-89072488D01*
X147533487Y-89019684D01*
X147600526Y-89000000D01*
X154676000Y-89000000D01*
X154743039Y-89019685D01*
X154788794Y-89072489D01*
X154800000Y-89124000D01*
X154800000Y-96953415D01*
X154780315Y-97020454D01*
X154727511Y-97066209D01*
X154658353Y-97076153D01*
X154594797Y-97047128D01*
X154577626Y-97028903D01*
X154574792Y-97025210D01*
X154542590Y-97000500D01*
X154465018Y-96940976D01*
X154465017Y-96940975D01*
X154465015Y-96940974D01*
X154337186Y-96888027D01*
X154337184Y-96888026D01*
X154337183Y-96888026D01*
X154245727Y-96875985D01*
X154200001Y-96869965D01*
X154199999Y-96869965D01*
X154131408Y-96878995D01*
X154062817Y-96888026D01*
X154062816Y-96888026D01*
X154062813Y-96888027D01*
X153934984Y-96940974D01*
X153934982Y-96940976D01*
X153875486Y-96986629D01*
X153810317Y-97011823D01*
X153741872Y-96997784D01*
X153724513Y-96986629D01*
X153689749Y-96959953D01*
X153665018Y-96940976D01*
X153665017Y-96940975D01*
X153665015Y-96940974D01*
X153537186Y-96888027D01*
X153537184Y-96888026D01*
X153537183Y-96888026D01*
X153445727Y-96875985D01*
X153400001Y-96869965D01*
X153399999Y-96869965D01*
X153331408Y-96878995D01*
X153262817Y-96888026D01*
X153262816Y-96888026D01*
X153262813Y-96888027D01*
X153134985Y-96940974D01*
X153025209Y-97025209D01*
X152940974Y-97134985D01*
X152888027Y-97262813D01*
X152888026Y-97262816D01*
X152888026Y-97262817D01*
X152869965Y-97400000D01*
X152883196Y-97500500D01*
X152888026Y-97537181D01*
X152888027Y-97537186D01*
X152940974Y-97665015D01*
X152940975Y-97665017D01*
X152940976Y-97665018D01*
X153025209Y-97774791D01*
X153134982Y-97859024D01*
X153262817Y-97911974D01*
X153381072Y-97927543D01*
X153399999Y-97930035D01*
X153400000Y-97930035D01*
X153400001Y-97930035D01*
X153418928Y-97927543D01*
X153537183Y-97911974D01*
X153665018Y-97859024D01*
X153724514Y-97813369D01*
X153789681Y-97788176D01*
X153858126Y-97802214D01*
X153875480Y-97813365D01*
X153934982Y-97859024D01*
X154062817Y-97911974D01*
X154181072Y-97927543D01*
X154199999Y-97930035D01*
X154200000Y-97930035D01*
X154200001Y-97930035D01*
X154218928Y-97927543D01*
X154337183Y-97911974D01*
X154465018Y-97859024D01*
X154574791Y-97774791D01*
X154577623Y-97771100D01*
X154634049Y-97729897D01*
X154703795Y-97725740D01*
X154764716Y-97759951D01*
X154797471Y-97821667D01*
X154800000Y-97846585D01*
X154800000Y-103215877D01*
X154780315Y-103282916D01*
X154743039Y-103320193D01*
X154668873Y-103367856D01*
X154574623Y-103476626D01*
X154574622Y-103476628D01*
X154514834Y-103607543D01*
X154494353Y-103750000D01*
X154514834Y-103892454D01*
X154514834Y-103892455D01*
X154514835Y-103892457D01*
X154529463Y-103924487D01*
X154539406Y-103993646D01*
X154510381Y-104057201D01*
X154451602Y-104094975D01*
X154416668Y-104099998D01*
X154333859Y-104099998D01*
X154195772Y-104140543D01*
X154074696Y-104218354D01*
X153980446Y-104327124D01*
X153980445Y-104327126D01*
X153920657Y-104458041D01*
X153900176Y-104600498D01*
X153920657Y-104742954D01*
X153954865Y-104817857D01*
X153980446Y-104873871D01*
X154074695Y-104982641D01*
X154195770Y-105060451D01*
X154195773Y-105060452D01*
X154195772Y-105060452D01*
X154333859Y-105100997D01*
X154333861Y-105100998D01*
X154333862Y-105100998D01*
X154477785Y-105100998D01*
X154477785Y-105100997D01*
X154601664Y-105064624D01*
X154615873Y-105060452D01*
X154615873Y-105060451D01*
X154615876Y-105060451D01*
X154615877Y-105060449D01*
X154623941Y-105056768D01*
X154625449Y-105060070D01*
X154675879Y-105045210D01*
X154742938Y-105064829D01*
X154788744Y-105117589D01*
X154800000Y-105169210D01*
X154800000Y-108265654D01*
X154780315Y-108332693D01*
X154727511Y-108378448D01*
X154658353Y-108388392D01*
X154641067Y-108384632D01*
X154639589Y-108384198D01*
X154495667Y-108384198D01*
X154495664Y-108384198D01*
X154357577Y-108424743D01*
X154236501Y-108502554D01*
X154142251Y-108611324D01*
X154142250Y-108611326D01*
X154082462Y-108742241D01*
X154061981Y-108884698D01*
X154082462Y-109027154D01*
X154142250Y-109158069D01*
X154142251Y-109158071D01*
X154236500Y-109266841D01*
X154357575Y-109344651D01*
X154357578Y-109344652D01*
X154357577Y-109344652D01*
X154464735Y-109376115D01*
X154494199Y-109384767D01*
X154495664Y-109385197D01*
X154495666Y-109385198D01*
X154495667Y-109385198D01*
X154639589Y-109385198D01*
X154641056Y-109384766D01*
X154642588Y-109384766D01*
X154648368Y-109383936D01*
X154648487Y-109384766D01*
X154710926Y-109384761D01*
X154769707Y-109422531D01*
X154798736Y-109486084D01*
X154800000Y-109503741D01*
X154800000Y-110876000D01*
X154780315Y-110943039D01*
X154727511Y-110988794D01*
X154676000Y-111000000D01*
X145124000Y-111000000D01*
X145056961Y-110980315D01*
X145011206Y-110927511D01*
X145000000Y-110876000D01*
X145000000Y-109800000D01*
X147214353Y-109800000D01*
X147234834Y-109942456D01*
X147235996Y-109945000D01*
X147294623Y-110073373D01*
X147388872Y-110182143D01*
X147509947Y-110259953D01*
X147509950Y-110259954D01*
X147509949Y-110259954D01*
X147648036Y-110300499D01*
X147648038Y-110300500D01*
X147648039Y-110300500D01*
X147791962Y-110300500D01*
X147791962Y-110300499D01*
X147930053Y-110259953D01*
X148051128Y-110182143D01*
X148145377Y-110073373D01*
X148205165Y-109942457D01*
X148225647Y-109800000D01*
X148205165Y-109657543D01*
X148145377Y-109526627D01*
X148051128Y-109417857D01*
X147930053Y-109340047D01*
X147930051Y-109340046D01*
X147930049Y-109340045D01*
X147930050Y-109340045D01*
X147791963Y-109299500D01*
X147791961Y-109299500D01*
X147648039Y-109299500D01*
X147648036Y-109299500D01*
X147509949Y-109340045D01*
X147388873Y-109417856D01*
X147294623Y-109526626D01*
X147294622Y-109526628D01*
X147234834Y-109657543D01*
X147214353Y-109800000D01*
X145000000Y-109800000D01*
X145000000Y-107604304D01*
X145019685Y-107537265D01*
X145072489Y-107491510D01*
X145141647Y-107481566D01*
X145205203Y-107510591D01*
X145217713Y-107523102D01*
X145268872Y-107582143D01*
X145389947Y-107659953D01*
X145389950Y-107659954D01*
X145389949Y-107659954D01*
X145528036Y-107700499D01*
X145528038Y-107700500D01*
X145528039Y-107700500D01*
X145671962Y-107700500D01*
X145671962Y-107700499D01*
X145810053Y-107659953D01*
X145931128Y-107582143D01*
X146025377Y-107473373D01*
X146085165Y-107342457D01*
X146105647Y-107200000D01*
X146085165Y-107057543D01*
X146025377Y-106926627D01*
X145931128Y-106817857D01*
X145810053Y-106740047D01*
X145810051Y-106740046D01*
X145810049Y-106740045D01*
X145810050Y-106740045D01*
X145671963Y-106699500D01*
X145671961Y-106699500D01*
X145528039Y-106699500D01*
X145528036Y-106699500D01*
X145389949Y-106740045D01*
X145268873Y-106817856D01*
X145217713Y-106876898D01*
X145158934Y-106914672D01*
X145089065Y-106914672D01*
X145030287Y-106876897D01*
X145001262Y-106813342D01*
X145000000Y-106795695D01*
X145000000Y-105324000D01*
X145019685Y-105256961D01*
X145072489Y-105211206D01*
X145124000Y-105200000D01*
X147800000Y-105200000D01*
X147800000Y-104564124D01*
X150658477Y-104564124D01*
X150678958Y-104706580D01*
X150731735Y-104822143D01*
X150738747Y-104837497D01*
X150832996Y-104946267D01*
X150954071Y-105024077D01*
X150954074Y-105024078D01*
X150954073Y-105024078D01*
X151026044Y-105045210D01*
X151077954Y-105060452D01*
X151092160Y-105064623D01*
X151092162Y-105064624D01*
X151092163Y-105064624D01*
X151236086Y-105064624D01*
X151236086Y-105064623D01*
X151374177Y-105024077D01*
X151495252Y-104946267D01*
X151589501Y-104837497D01*
X151649289Y-104706581D01*
X151669771Y-104564124D01*
X151649289Y-104421667D01*
X151589501Y-104290751D01*
X151495252Y-104181981D01*
X151374177Y-104104171D01*
X151374175Y-104104170D01*
X151374173Y-104104169D01*
X151374174Y-104104169D01*
X151236087Y-104063624D01*
X151236085Y-104063624D01*
X151092163Y-104063624D01*
X151092160Y-104063624D01*
X150954073Y-104104169D01*
X150832997Y-104181980D01*
X150738747Y-104290750D01*
X150738746Y-104290752D01*
X150678958Y-104421667D01*
X150658477Y-104564124D01*
X147800000Y-104564124D01*
X147800000Y-104000000D01*
X148494353Y-104000000D01*
X148514834Y-104142456D01*
X148568494Y-104259953D01*
X148574623Y-104273373D01*
X148668872Y-104382143D01*
X148789947Y-104459953D01*
X148789950Y-104459954D01*
X148789949Y-104459954D01*
X148928036Y-104500499D01*
X148928038Y-104500500D01*
X148928039Y-104500500D01*
X149071962Y-104500500D01*
X149071962Y-104500499D01*
X149210053Y-104459953D01*
X149331128Y-104382143D01*
X149425377Y-104273373D01*
X149485165Y-104142457D01*
X149505647Y-104000000D01*
X149485165Y-103857543D01*
X149425377Y-103726627D01*
X149331128Y-103617857D01*
X149210053Y-103540047D01*
X149210051Y-103540046D01*
X149210049Y-103540045D01*
X149210050Y-103540045D01*
X149071963Y-103499500D01*
X149071961Y-103499500D01*
X148928039Y-103499500D01*
X148928036Y-103499500D01*
X148789949Y-103540045D01*
X148668873Y-103617856D01*
X148574623Y-103726626D01*
X148574622Y-103726628D01*
X148514834Y-103857543D01*
X148494353Y-104000000D01*
X147800000Y-104000000D01*
X147800000Y-101040000D01*
X149104353Y-101040000D01*
X149124834Y-101182456D01*
X149178744Y-101300500D01*
X149184623Y-101313373D01*
X149278872Y-101422143D01*
X149399947Y-101499953D01*
X149399950Y-101499954D01*
X149399949Y-101499954D01*
X149538036Y-101540499D01*
X149538038Y-101540500D01*
X149538039Y-101540500D01*
X149681962Y-101540500D01*
X149681962Y-101540499D01*
X149751777Y-101520000D01*
X152234353Y-101520000D01*
X152254834Y-101662456D01*
X152259820Y-101673373D01*
X152314623Y-101793373D01*
X152408872Y-101902143D01*
X152529947Y-101979953D01*
X152529950Y-101979954D01*
X152529949Y-101979954D01*
X152668036Y-102020499D01*
X152668038Y-102020500D01*
X152668039Y-102020500D01*
X152811962Y-102020500D01*
X152811962Y-102020499D01*
X152950053Y-101979953D01*
X153071128Y-101902143D01*
X153165377Y-101793373D01*
X153225165Y-101662457D01*
X153245647Y-101520000D01*
X153225165Y-101377543D01*
X153165377Y-101246627D01*
X153071128Y-101137857D01*
X152950053Y-101060047D01*
X152950051Y-101060046D01*
X152950049Y-101060045D01*
X152950050Y-101060045D01*
X152811963Y-101019500D01*
X152811961Y-101019500D01*
X152668039Y-101019500D01*
X152668036Y-101019500D01*
X152529949Y-101060045D01*
X152408873Y-101137856D01*
X152314623Y-101246626D01*
X152314622Y-101246628D01*
X152254834Y-101377543D01*
X152234353Y-101520000D01*
X149751777Y-101520000D01*
X149820053Y-101499953D01*
X149941128Y-101422143D01*
X150035377Y-101313373D01*
X150095165Y-101182457D01*
X150115647Y-101040000D01*
X150095165Y-100897543D01*
X150035377Y-100766627D01*
X149941128Y-100657857D01*
X149941125Y-100657855D01*
X149941126Y-100657855D01*
X149909496Y-100637528D01*
X149863742Y-100584724D01*
X149853798Y-100515566D01*
X149882823Y-100452010D01*
X149909494Y-100428899D01*
X149951128Y-100402143D01*
X150045377Y-100293373D01*
X150105165Y-100162457D01*
X150125647Y-100020000D01*
X150105165Y-99877543D01*
X150045377Y-99746627D01*
X149951128Y-99637857D01*
X149830053Y-99560047D01*
X149830051Y-99560046D01*
X149830049Y-99560045D01*
X149830050Y-99560045D01*
X149691963Y-99519500D01*
X149691961Y-99519500D01*
X149548039Y-99519500D01*
X149548036Y-99519500D01*
X149409949Y-99560045D01*
X149288873Y-99637856D01*
X149194623Y-99746626D01*
X149194622Y-99746628D01*
X149134834Y-99877543D01*
X149114353Y-100020000D01*
X149134834Y-100162456D01*
X149194622Y-100293371D01*
X149194623Y-100293373D01*
X149288872Y-100402143D01*
X149313324Y-100417857D01*
X149320502Y-100422470D01*
X149366257Y-100475274D01*
X149376201Y-100544432D01*
X149347176Y-100607988D01*
X149320504Y-100631100D01*
X149278876Y-100657853D01*
X149278874Y-100657855D01*
X149184623Y-100766626D01*
X149184622Y-100766628D01*
X149124834Y-100897543D01*
X149104353Y-101040000D01*
X147800000Y-101040000D01*
X147800000Y-99060000D01*
X148094353Y-99060000D01*
X148114834Y-99202456D01*
X148136526Y-99249953D01*
X148174623Y-99333373D01*
X148268872Y-99442143D01*
X148389947Y-99519953D01*
X148389950Y-99519954D01*
X148389949Y-99519954D01*
X148466589Y-99542457D01*
X148526496Y-99560047D01*
X148528036Y-99560499D01*
X148528038Y-99560500D01*
X148528039Y-99560500D01*
X148671962Y-99560500D01*
X148671962Y-99560499D01*
X148810053Y-99519953D01*
X148931128Y-99442143D01*
X149025377Y-99333373D01*
X149085165Y-99202457D01*
X149105647Y-99060000D01*
X149085165Y-98917543D01*
X149025377Y-98786627D01*
X148947544Y-98696802D01*
X152294353Y-98696802D01*
X152314834Y-98839258D01*
X152360864Y-98940047D01*
X152374623Y-98970175D01*
X152468872Y-99078945D01*
X152589947Y-99156755D01*
X152589950Y-99156756D01*
X152589949Y-99156756D01*
X152728036Y-99197301D01*
X152728038Y-99197302D01*
X152728039Y-99197302D01*
X152871962Y-99197302D01*
X152871962Y-99197301D01*
X153010053Y-99156755D01*
X153131128Y-99078945D01*
X153225377Y-98970175D01*
X153285165Y-98839259D01*
X153305647Y-98696802D01*
X153285165Y-98554345D01*
X153225377Y-98423429D01*
X153131128Y-98314659D01*
X153010053Y-98236849D01*
X153010051Y-98236848D01*
X153010049Y-98236847D01*
X153010050Y-98236847D01*
X152871963Y-98196302D01*
X152871961Y-98196302D01*
X152728039Y-98196302D01*
X152728036Y-98196302D01*
X152589949Y-98236847D01*
X152468873Y-98314658D01*
X152374623Y-98423428D01*
X152374622Y-98423430D01*
X152314834Y-98554345D01*
X152294353Y-98696802D01*
X148947544Y-98696802D01*
X148931128Y-98677857D01*
X148810053Y-98600047D01*
X148810051Y-98600046D01*
X148810049Y-98600045D01*
X148810050Y-98600045D01*
X148671963Y-98559500D01*
X148671961Y-98559500D01*
X148528039Y-98559500D01*
X148528036Y-98559500D01*
X148389949Y-98600045D01*
X148268873Y-98677856D01*
X148174623Y-98786626D01*
X148174622Y-98786628D01*
X148114834Y-98917543D01*
X148094353Y-99060000D01*
X147800000Y-99060000D01*
X147800000Y-98642112D01*
X147811206Y-98590600D01*
X147865161Y-98472457D01*
X147885643Y-98330000D01*
X147865161Y-98187543D01*
X147811480Y-98070000D01*
X149144353Y-98070000D01*
X149164834Y-98212456D01*
X149218516Y-98330000D01*
X149224623Y-98343373D01*
X149318872Y-98452143D01*
X149439947Y-98529953D01*
X149439950Y-98529954D01*
X149439949Y-98529954D01*
X149578036Y-98570499D01*
X149578038Y-98570500D01*
X149578039Y-98570500D01*
X149721962Y-98570500D01*
X149721962Y-98570499D01*
X149860053Y-98529953D01*
X149981128Y-98452143D01*
X150075377Y-98343373D01*
X150135165Y-98212457D01*
X150155647Y-98070000D01*
X150135165Y-97927543D01*
X150075377Y-97796627D01*
X149981128Y-97687857D01*
X149860053Y-97610047D01*
X149860051Y-97610046D01*
X149860049Y-97610045D01*
X149860050Y-97610045D01*
X149721963Y-97569500D01*
X149721961Y-97569500D01*
X149578039Y-97569500D01*
X149578036Y-97569500D01*
X149439949Y-97610045D01*
X149318873Y-97687856D01*
X149224623Y-97796626D01*
X149224622Y-97796628D01*
X149164834Y-97927543D01*
X149144353Y-98070000D01*
X147811480Y-98070000D01*
X147811205Y-98069398D01*
X147800000Y-98017888D01*
X147800000Y-97624500D01*
X147819685Y-97557461D01*
X147872489Y-97511706D01*
X147924000Y-97500500D01*
X148071962Y-97500500D01*
X148071962Y-97500499D01*
X148210053Y-97459953D01*
X148331128Y-97382143D01*
X148425377Y-97273373D01*
X148485165Y-97142457D01*
X148505647Y-97000000D01*
X148485165Y-96857543D01*
X148425377Y-96726627D01*
X148331128Y-96617857D01*
X148210053Y-96540047D01*
X148210051Y-96540046D01*
X148210049Y-96540045D01*
X148210050Y-96540045D01*
X148073666Y-96500000D01*
X148714353Y-96500000D01*
X148734834Y-96642456D01*
X148773275Y-96726628D01*
X148794623Y-96773373D01*
X148888872Y-96882143D01*
X149009947Y-96959953D01*
X149009950Y-96959954D01*
X149009949Y-96959954D01*
X149100798Y-96986629D01*
X149146336Y-97000000D01*
X149148036Y-97000499D01*
X149148038Y-97000500D01*
X149148039Y-97000500D01*
X149291962Y-97000500D01*
X149291962Y-97000499D01*
X149430053Y-96959953D01*
X149551128Y-96882143D01*
X149645377Y-96773373D01*
X149705165Y-96642457D01*
X149725647Y-96500000D01*
X149705165Y-96357543D01*
X149645377Y-96226627D01*
X149551128Y-96117857D01*
X149430053Y-96040047D01*
X149430051Y-96040046D01*
X149430049Y-96040045D01*
X149430050Y-96040045D01*
X149291963Y-95999500D01*
X149291961Y-95999500D01*
X149148039Y-95999500D01*
X149148036Y-95999500D01*
X149009949Y-96040045D01*
X148888873Y-96117856D01*
X148794623Y-96226626D01*
X148794622Y-96226628D01*
X148734834Y-96357543D01*
X148714353Y-96500000D01*
X148073666Y-96500000D01*
X148071963Y-96499500D01*
X148071961Y-96499500D01*
X147928039Y-96499500D01*
X147924000Y-96499500D01*
X147856961Y-96479815D01*
X147811206Y-96427011D01*
X147800000Y-96375500D01*
X147800000Y-95510000D01*
X149494353Y-95510000D01*
X149514834Y-95652456D01*
X149574622Y-95783371D01*
X149574623Y-95783373D01*
X149668872Y-95892143D01*
X149789947Y-95969953D01*
X149789950Y-95969954D01*
X149789949Y-95969954D01*
X149928036Y-96010499D01*
X149928038Y-96010500D01*
X149928039Y-96010500D01*
X150071962Y-96010500D01*
X150071962Y-96010499D01*
X150210053Y-95969953D01*
X150331128Y-95892143D01*
X150425377Y-95783373D01*
X150485165Y-95652457D01*
X150505647Y-95510000D01*
X150485165Y-95367543D01*
X150425377Y-95236627D01*
X150331128Y-95127857D01*
X150210053Y-95050047D01*
X150210051Y-95050046D01*
X150210049Y-95050045D01*
X150210050Y-95050045D01*
X150071963Y-95009500D01*
X150071961Y-95009500D01*
X149928039Y-95009500D01*
X149928036Y-95009500D01*
X149789949Y-95050045D01*
X149668873Y-95127856D01*
X149574623Y-95236626D01*
X149574622Y-95236628D01*
X149514834Y-95367543D01*
X149494353Y-95510000D01*
X147800000Y-95510000D01*
X147800000Y-94643530D01*
X147819685Y-94576491D01*
X147830279Y-94562336D01*
X147855377Y-94533373D01*
X147915165Y-94402457D01*
X147935647Y-94260000D01*
X147915165Y-94117543D01*
X147855377Y-93986627D01*
X147830286Y-93957670D01*
X147801262Y-93894114D01*
X147800000Y-93876468D01*
X147800000Y-93800000D01*
X147657720Y-93800000D01*
X147622786Y-93794977D01*
X147563427Y-93777548D01*
X147501962Y-93759500D01*
X147501961Y-93759500D01*
X147358039Y-93759500D01*
X147358038Y-93759500D01*
X147296572Y-93777548D01*
X147237213Y-93794977D01*
X147202280Y-93800000D01*
X144571307Y-93800000D01*
X144504268Y-93780315D01*
X144483630Y-93763685D01*
X144414669Y-93694724D01*
X144414668Y-93694723D01*
X144414667Y-93694722D01*
X144308133Y-93623538D01*
X144308124Y-93623533D01*
X144189744Y-93574499D01*
X144189738Y-93574497D01*
X144064071Y-93549500D01*
X144064069Y-93549500D01*
X143935931Y-93549500D01*
X143935929Y-93549500D01*
X143810261Y-93574497D01*
X143810255Y-93574499D01*
X143691875Y-93623533D01*
X143691866Y-93623538D01*
X143585332Y-93694722D01*
X143552544Y-93727511D01*
X143516372Y-93763682D01*
X143455052Y-93797166D01*
X143428693Y-93800000D01*
X142798282Y-93800000D01*
X142766578Y-93793690D01*
X142766037Y-93795712D01*
X142758187Y-93793608D01*
X142758186Y-93793608D01*
X142630892Y-93759500D01*
X142499108Y-93759500D01*
X142371814Y-93793608D01*
X142371812Y-93793608D01*
X142363963Y-93795712D01*
X142363421Y-93793690D01*
X142331718Y-93800000D01*
X140738822Y-93800000D01*
X140698922Y-93791319D01*
X140698563Y-93792545D01*
X140551963Y-93749500D01*
X140551961Y-93749500D01*
X140408039Y-93749500D01*
X140408036Y-93749500D01*
X140261437Y-93792545D01*
X140261077Y-93791319D01*
X140221178Y-93800000D01*
X139521861Y-93800000D01*
X139454822Y-93780315D01*
X139409067Y-93727511D01*
X139399123Y-93658353D01*
X139428148Y-93594798D01*
X139455374Y-93563377D01*
X139455374Y-93563375D01*
X139455377Y-93563373D01*
X139515165Y-93432457D01*
X139535647Y-93290000D01*
X139515165Y-93147543D01*
X139455377Y-93016627D01*
X139361128Y-92907857D01*
X139240053Y-92830047D01*
X139240051Y-92830046D01*
X139240049Y-92830045D01*
X139240050Y-92830045D01*
X139101963Y-92789500D01*
X139101961Y-92789500D01*
X138958039Y-92789500D01*
X138958036Y-92789500D01*
X138819949Y-92830045D01*
X138698873Y-92907856D01*
X138604623Y-93016626D01*
X138604622Y-93016628D01*
X138544834Y-93147543D01*
X138524353Y-93290000D01*
X138544834Y-93432456D01*
X138604622Y-93563371D01*
X138604625Y-93563377D01*
X138631852Y-93594798D01*
X138660877Y-93658353D01*
X138650933Y-93727512D01*
X138605178Y-93780316D01*
X138538139Y-93800000D01*
X137324000Y-93800000D01*
X137256961Y-93780315D01*
X137211206Y-93727511D01*
X137200000Y-93676000D01*
X137200000Y-92669999D01*
X149089965Y-92669999D01*
X149089965Y-92670000D01*
X149108026Y-92807181D01*
X149108027Y-92807186D01*
X149160974Y-92935015D01*
X149160975Y-92935017D01*
X149160976Y-92935018D01*
X149245209Y-93044791D01*
X149354982Y-93129024D01*
X149482817Y-93181974D01*
X149605702Y-93198152D01*
X149619999Y-93200035D01*
X149620000Y-93200035D01*
X149620001Y-93200035D01*
X149632947Y-93198330D01*
X149757183Y-93181974D01*
X149885018Y-93129024D01*
X149994791Y-93044791D01*
X150079024Y-92935018D01*
X150131974Y-92807183D01*
X150150035Y-92670000D01*
X150131974Y-92532817D01*
X150079024Y-92404983D01*
X149994791Y-92295209D01*
X149994789Y-92295208D01*
X149994789Y-92295207D01*
X149885015Y-92210974D01*
X149757186Y-92158027D01*
X149757184Y-92158026D01*
X149757183Y-92158026D01*
X149665727Y-92145985D01*
X149620001Y-92139965D01*
X149619999Y-92139965D01*
X149551408Y-92148995D01*
X149482817Y-92158026D01*
X149482816Y-92158026D01*
X149482813Y-92158027D01*
X149354985Y-92210974D01*
X149245209Y-92295209D01*
X149160974Y-92404985D01*
X149108027Y-92532813D01*
X149108026Y-92532818D01*
X149089965Y-92669999D01*
X137200000Y-92669999D01*
X137200000Y-91044071D01*
X143349499Y-91044071D01*
X143374497Y-91169738D01*
X143374499Y-91169744D01*
X143423533Y-91288124D01*
X143423538Y-91288133D01*
X143494723Y-91394668D01*
X143494726Y-91394672D01*
X143585327Y-91485273D01*
X143585331Y-91485276D01*
X143691866Y-91556461D01*
X143691872Y-91556464D01*
X143691873Y-91556465D01*
X143810256Y-91605501D01*
X143810260Y-91605501D01*
X143810261Y-91605502D01*
X143935928Y-91630500D01*
X143935931Y-91630500D01*
X144064071Y-91630500D01*
X144148615Y-91613682D01*
X144189744Y-91605501D01*
X144308127Y-91556465D01*
X144414669Y-91485276D01*
X144505276Y-91394669D01*
X144576465Y-91288127D01*
X144625501Y-91169744D01*
X144650500Y-91044069D01*
X144650500Y-90704383D01*
X153362077Y-90704383D01*
X153382558Y-90846839D01*
X153442346Y-90977754D01*
X153442347Y-90977756D01*
X153536596Y-91086526D01*
X153657671Y-91164336D01*
X153657674Y-91164337D01*
X153657673Y-91164337D01*
X153795760Y-91204882D01*
X153795762Y-91204883D01*
X153795763Y-91204883D01*
X153939686Y-91204883D01*
X153939686Y-91204882D01*
X154077777Y-91164336D01*
X154198852Y-91086526D01*
X154293101Y-90977756D01*
X154352889Y-90846840D01*
X154373371Y-90704383D01*
X154352889Y-90561926D01*
X154293101Y-90431010D01*
X154198852Y-90322240D01*
X154077777Y-90244430D01*
X154077775Y-90244429D01*
X154077773Y-90244428D01*
X154077774Y-90244428D01*
X153939687Y-90203883D01*
X153939685Y-90203883D01*
X153795763Y-90203883D01*
X153795760Y-90203883D01*
X153657673Y-90244428D01*
X153536597Y-90322239D01*
X153442347Y-90431009D01*
X153442346Y-90431011D01*
X153382558Y-90561926D01*
X153362077Y-90704383D01*
X144650500Y-90704383D01*
X144650500Y-90200000D01*
X151294353Y-90200000D01*
X151314834Y-90342456D01*
X151374622Y-90473371D01*
X151374623Y-90473373D01*
X151468872Y-90582143D01*
X151589947Y-90659953D01*
X151589950Y-90659954D01*
X151589949Y-90659954D01*
X151728036Y-90700499D01*
X151728038Y-90700500D01*
X151728039Y-90700500D01*
X151871962Y-90700500D01*
X151871962Y-90700499D01*
X152010053Y-90659953D01*
X152131128Y-90582143D01*
X152225377Y-90473373D01*
X152285165Y-90342457D01*
X152305647Y-90200000D01*
X152285165Y-90057543D01*
X152225377Y-89926627D01*
X152131128Y-89817857D01*
X152010053Y-89740047D01*
X152010051Y-89740046D01*
X152010049Y-89740045D01*
X152010050Y-89740045D01*
X151871963Y-89699500D01*
X151871961Y-89699500D01*
X151728039Y-89699500D01*
X151728036Y-89699500D01*
X151589949Y-89740045D01*
X151468873Y-89817856D01*
X151374623Y-89926626D01*
X151374622Y-89926628D01*
X151314834Y-90057543D01*
X151294353Y-90200000D01*
X144650500Y-90200000D01*
X144650500Y-90115931D01*
X144650500Y-90115928D01*
X144625502Y-89990261D01*
X144625501Y-89990260D01*
X144625501Y-89990256D01*
X144576465Y-89871873D01*
X144576464Y-89871872D01*
X144576461Y-89871866D01*
X144505276Y-89765331D01*
X144505273Y-89765327D01*
X144414672Y-89674726D01*
X144414668Y-89674723D01*
X144308133Y-89603538D01*
X144308124Y-89603533D01*
X144189744Y-89554499D01*
X144189738Y-89554497D01*
X144064071Y-89529500D01*
X144064069Y-89529500D01*
X143935931Y-89529500D01*
X143935929Y-89529500D01*
X143810261Y-89554497D01*
X143810255Y-89554499D01*
X143691875Y-89603533D01*
X143691866Y-89603538D01*
X143585331Y-89674723D01*
X143585327Y-89674726D01*
X143494726Y-89765327D01*
X143494723Y-89765331D01*
X143423538Y-89871866D01*
X143423533Y-89871875D01*
X143374499Y-89990255D01*
X143374497Y-89990261D01*
X143349500Y-90115928D01*
X143349500Y-90115931D01*
X143349500Y-91044069D01*
X143349500Y-91044071D01*
X143349499Y-91044071D01*
X137200000Y-91044071D01*
X137200000Y-89124000D01*
X137219685Y-89056961D01*
X137272489Y-89011206D01*
X137324000Y-89000000D01*
X145024474Y-89000000D01*
X145091513Y-89019685D01*
G37*
%TD.AperFunction*%
%TD*%
%TA.AperFunction,Conductor*%
%TO.N,GND*%
G36*
X136820000Y-89019962D02*
G01*
X136874538Y-89074500D01*
X136894500Y-89149000D01*
X136894500Y-93610500D01*
X136874538Y-93685000D01*
X136820000Y-93739538D01*
X136745500Y-93759500D01*
X136719108Y-93759500D01*
X136591814Y-93793608D01*
X136591812Y-93793608D01*
X136591812Y-93793609D01*
X136477689Y-93859497D01*
X136384497Y-93952689D01*
X136318608Y-94066812D01*
X136292964Y-94162518D01*
X136254399Y-94229313D01*
X136198142Y-94261791D01*
X136224000Y-94268720D01*
X136278538Y-94323258D01*
X136293423Y-94359194D01*
X136318608Y-94453186D01*
X136384497Y-94567310D01*
X136384498Y-94567311D01*
X136384500Y-94567314D01*
X136477686Y-94660500D01*
X136477688Y-94660501D01*
X136477689Y-94660502D01*
X136489618Y-94667389D01*
X136591814Y-94726392D01*
X136719108Y-94760500D01*
X136779954Y-94760500D01*
X136854454Y-94780462D01*
X136908992Y-94835000D01*
X136928954Y-94909500D01*
X136908992Y-94984000D01*
X136892561Y-95007073D01*
X136849623Y-95056625D01*
X136789834Y-95187545D01*
X136769353Y-95329996D01*
X136769353Y-95330003D01*
X136789834Y-95472454D01*
X136789834Y-95472455D01*
X136789835Y-95472457D01*
X136849623Y-95603373D01*
X136943872Y-95712143D01*
X137064947Y-95789953D01*
X137203039Y-95830500D01*
X137203041Y-95830500D01*
X137346959Y-95830500D01*
X137346961Y-95830500D01*
X137485053Y-95789953D01*
X137606128Y-95712143D01*
X137700377Y-95603373D01*
X137760165Y-95472457D01*
X137773534Y-95379470D01*
X137780647Y-95330003D01*
X137780647Y-95329996D01*
X137760165Y-95187545D01*
X137760165Y-95187543D01*
X137700377Y-95056627D01*
X137606128Y-94947857D01*
X137606127Y-94947856D01*
X137572465Y-94926223D01*
X137485053Y-94870047D01*
X137485050Y-94870046D01*
X137346967Y-94829501D01*
X137346962Y-94829500D01*
X137346961Y-94829500D01*
X137283031Y-94829500D01*
X137208531Y-94809538D01*
X137153993Y-94755000D01*
X137134031Y-94680500D01*
X137153993Y-94606000D01*
X137177668Y-94575145D01*
X137185500Y-94567314D01*
X137251392Y-94453186D01*
X137285500Y-94325892D01*
X137285500Y-94254500D01*
X137305462Y-94180000D01*
X137360000Y-94125462D01*
X137434500Y-94105500D01*
X138538135Y-94105500D01*
X138538139Y-94105500D01*
X138624207Y-94093126D01*
X138691246Y-94073442D01*
X138748198Y-94050270D01*
X138836059Y-93980376D01*
X138881814Y-93927572D01*
X138910244Y-93887171D01*
X138969439Y-93837734D01*
X139045427Y-93824518D01*
X139117842Y-93851065D01*
X139160714Y-93897697D01*
X139178186Y-93927571D01*
X139223940Y-93980374D01*
X139223944Y-93980378D01*
X139223954Y-93980388D01*
X139268670Y-94022550D01*
X139268672Y-94022551D01*
X139268674Y-94022553D01*
X139316248Y-94046743D01*
X139368745Y-94073437D01*
X139368747Y-94073437D01*
X139368750Y-94073439D01*
X139435789Y-94093124D01*
X139435792Y-94093124D01*
X139435793Y-94093125D01*
X139521850Y-94105499D01*
X139521858Y-94105499D01*
X139521861Y-94105500D01*
X139521864Y-94105500D01*
X140221175Y-94105500D01*
X140221178Y-94105500D01*
X140286127Y-94098516D01*
X140326026Y-94089835D01*
X140326025Y-94089834D01*
X140334867Y-94087911D01*
X140341138Y-94086915D01*
X140347501Y-94085670D01*
X140347506Y-94085670D01*
X140347875Y-94085561D01*
X140349091Y-94085205D01*
X140359397Y-94082574D01*
X140367917Y-94080720D01*
X140377667Y-94076813D01*
X140417463Y-94065129D01*
X140431407Y-94061035D01*
X140473383Y-94055000D01*
X140486617Y-94055000D01*
X140528594Y-94061035D01*
X140548276Y-94066814D01*
X140612495Y-94085670D01*
X140640129Y-94092405D01*
X140640131Y-94092405D01*
X140646546Y-94093200D01*
X140659892Y-94095473D01*
X140673874Y-94098516D01*
X140738822Y-94105500D01*
X141915500Y-94105500D01*
X141990000Y-94125462D01*
X142044538Y-94180000D01*
X142064500Y-94254500D01*
X142064500Y-94325892D01*
X142098608Y-94453186D01*
X142098609Y-94453187D01*
X142164497Y-94567310D01*
X142164498Y-94567311D01*
X142164500Y-94567314D01*
X142172329Y-94575143D01*
X142210892Y-94641936D01*
X142210892Y-94719064D01*
X142172328Y-94785859D01*
X142105533Y-94824423D01*
X142066969Y-94829500D01*
X142003039Y-94829500D01*
X142003037Y-94829500D01*
X142003032Y-94829501D01*
X141864949Y-94870046D01*
X141743872Y-94947856D01*
X141743870Y-94947859D01*
X141649622Y-95056628D01*
X141589834Y-95187545D01*
X141569353Y-95329996D01*
X141569353Y-95330003D01*
X141589834Y-95472454D01*
X141589834Y-95472455D01*
X141589835Y-95472457D01*
X141649623Y-95603373D01*
X141743872Y-95712143D01*
X141864947Y-95789953D01*
X142003039Y-95830500D01*
X142003041Y-95830500D01*
X142146959Y-95830500D01*
X142146961Y-95830500D01*
X142285053Y-95789953D01*
X142406128Y-95712143D01*
X142500377Y-95603373D01*
X142560165Y-95472457D01*
X142573534Y-95379470D01*
X142580647Y-95330003D01*
X142580647Y-95329996D01*
X142560165Y-95187545D01*
X142560165Y-95187543D01*
X142500377Y-95056627D01*
X142500376Y-95056626D01*
X142500376Y-95056625D01*
X142457439Y-95007073D01*
X142423738Y-94937697D01*
X142429241Y-94860766D01*
X142472473Y-94796893D01*
X142541849Y-94763192D01*
X142570046Y-94760500D01*
X142630892Y-94760500D01*
X142758186Y-94726392D01*
X142872314Y-94660500D01*
X142965500Y-94567314D01*
X143031392Y-94453186D01*
X143056577Y-94359194D01*
X143095141Y-94292399D01*
X143161936Y-94253835D01*
X143239064Y-94253835D01*
X143305859Y-94292399D01*
X143344423Y-94359194D01*
X143349500Y-94397758D01*
X143349500Y-95364072D01*
X143374498Y-95489743D01*
X143374499Y-95489745D01*
X143423531Y-95608119D01*
X143423533Y-95608123D01*
X143423535Y-95608127D01*
X143494724Y-95714669D01*
X143585331Y-95805276D01*
X143691873Y-95876465D01*
X143810256Y-95925501D01*
X143935931Y-95950500D01*
X143935935Y-95950500D01*
X144064065Y-95950500D01*
X144064069Y-95950500D01*
X144189744Y-95925501D01*
X144308127Y-95876465D01*
X144414669Y-95805276D01*
X144505276Y-95714669D01*
X144576465Y-95608127D01*
X144625501Y-95489744D01*
X144650500Y-95364069D01*
X144650500Y-94889996D01*
X145014353Y-94889996D01*
X145014353Y-94890003D01*
X145034834Y-95032454D01*
X145034834Y-95032455D01*
X145034835Y-95032457D01*
X145094623Y-95163373D01*
X145188872Y-95272143D01*
X145309947Y-95349953D01*
X145448039Y-95390500D01*
X145448041Y-95390500D01*
X145591959Y-95390500D01*
X145591961Y-95390500D01*
X145730053Y-95349953D01*
X145851128Y-95272143D01*
X145945377Y-95163373D01*
X146005165Y-95032457D01*
X146018789Y-94937697D01*
X146025647Y-94890003D01*
X146025647Y-94889996D01*
X146005165Y-94747545D01*
X146005165Y-94747543D01*
X145945377Y-94616627D01*
X145851128Y-94507857D01*
X145851127Y-94507856D01*
X145730053Y-94430047D01*
X145619084Y-94397464D01*
X145553228Y-94357322D01*
X145517779Y-94292403D01*
X145507974Y-94329000D01*
X145453436Y-94383538D01*
X145420917Y-94397463D01*
X145352412Y-94417578D01*
X145309946Y-94430047D01*
X145188872Y-94507856D01*
X145188870Y-94507859D01*
X145094622Y-94616628D01*
X145034834Y-94747545D01*
X145014353Y-94889996D01*
X144650500Y-94889996D01*
X144650500Y-94254500D01*
X144670462Y-94180000D01*
X144725000Y-94125462D01*
X144799500Y-94105500D01*
X145378936Y-94105500D01*
X145453436Y-94125462D01*
X145507974Y-94180000D01*
X145517983Y-94217357D01*
X145518099Y-94212522D01*
X145558242Y-94146664D01*
X145625936Y-94109700D01*
X145661064Y-94105500D01*
X147202277Y-94105500D01*
X147202280Y-94105500D01*
X147202308Y-94105498D01*
X147245748Y-94102391D01*
X147245751Y-94102390D01*
X147245761Y-94102390D01*
X147260116Y-94100325D01*
X147280676Y-94097370D01*
X147280681Y-94097368D01*
X147280694Y-94097367D01*
X147323281Y-94088103D01*
X147381412Y-94071034D01*
X147423386Y-94065000D01*
X147436612Y-94065000D01*
X147478584Y-94071034D01*
X147484828Y-94072867D01*
X147505090Y-94078816D01*
X147570948Y-94118954D01*
X147598649Y-94159880D01*
X147610127Y-94185013D01*
X147622074Y-94225706D01*
X147623956Y-94238799D01*
X147623956Y-94281199D01*
X147622074Y-94294292D01*
X147610124Y-94334991D01*
X147603125Y-94350316D01*
X147586883Y-94377695D01*
X147575099Y-94393439D01*
X147526561Y-94490418D01*
X147506875Y-94557461D01*
X147506874Y-94557462D01*
X147494500Y-94643519D01*
X147494500Y-96375494D01*
X147494501Y-96375514D01*
X147501480Y-96440428D01*
X147501481Y-96440438D01*
X147501482Y-96440441D01*
X147512688Y-96491952D01*
X147514996Y-96499999D01*
X147514997Y-96500001D01*
X147523645Y-96530157D01*
X147523646Y-96530160D01*
X147580321Y-96627065D01*
X147580326Y-96627072D01*
X147626083Y-96679878D01*
X147626093Y-96679888D01*
X147670809Y-96722050D01*
X147670811Y-96722051D01*
X147670813Y-96722053D01*
X147718387Y-96746243D01*
X147770884Y-96772937D01*
X147770886Y-96772937D01*
X147770889Y-96772939D01*
X147837928Y-96792624D01*
X147837931Y-96792624D01*
X147837932Y-96792625D01*
X147923989Y-96804999D01*
X147923997Y-96804999D01*
X147924000Y-96805000D01*
X148006619Y-96805000D01*
X148048588Y-96811033D01*
X148061281Y-96814760D01*
X148099853Y-96832374D01*
X148110989Y-96839531D01*
X148143040Y-96867303D01*
X148151704Y-96877302D01*
X148174633Y-96912982D01*
X148180126Y-96925011D01*
X148192072Y-96965697D01*
X148193955Y-96978792D01*
X148193955Y-97021206D01*
X148192072Y-97034301D01*
X148180126Y-97074987D01*
X148174633Y-97087016D01*
X148151705Y-97122694D01*
X148143043Y-97132691D01*
X148110988Y-97160468D01*
X148099859Y-97167620D01*
X148061290Y-97185234D01*
X148048596Y-97188962D01*
X148006611Y-97195000D01*
X147924000Y-97195000D01*
X147923995Y-97195000D01*
X147923985Y-97195001D01*
X147859071Y-97201980D01*
X147859061Y-97201981D01*
X147814476Y-97211680D01*
X147807548Y-97213188D01*
X147769342Y-97224146D01*
X147769339Y-97224147D01*
X147672434Y-97280821D01*
X147672427Y-97280826D01*
X147619621Y-97326583D01*
X147619611Y-97326593D01*
X147577449Y-97371309D01*
X147577447Y-97371312D01*
X147526562Y-97471384D01*
X147526561Y-97471388D01*
X147506875Y-97538431D01*
X147506874Y-97538432D01*
X147494500Y-97624489D01*
X147494500Y-97680500D01*
X147474538Y-97755000D01*
X147420000Y-97809538D01*
X147345500Y-97829500D01*
X147308035Y-97829500D01*
X147308033Y-97829500D01*
X147308028Y-97829501D01*
X147169945Y-97870046D01*
X147048868Y-97947856D01*
X147048866Y-97947859D01*
X146954618Y-98056628D01*
X146894830Y-98187545D01*
X146874349Y-98329996D01*
X146874349Y-98330003D01*
X146894830Y-98472454D01*
X146894830Y-98472455D01*
X146894831Y-98472457D01*
X146954619Y-98603373D01*
X147048868Y-98712143D01*
X147169943Y-98789953D01*
X147308035Y-98830500D01*
X147308037Y-98830500D01*
X147345500Y-98830500D01*
X147420000Y-98850462D01*
X147474538Y-98905000D01*
X147494500Y-98979500D01*
X147494500Y-104745500D01*
X147474538Y-104820000D01*
X147420000Y-104874538D01*
X147345500Y-104894500D01*
X146174508Y-104894500D01*
X146100008Y-104874538D01*
X146045470Y-104820000D01*
X146025508Y-104745500D01*
X146038973Y-104683603D01*
X146058853Y-104640069D01*
X146085165Y-104582457D01*
X146105647Y-104440000D01*
X146105647Y-104439996D01*
X146085165Y-104297545D01*
X146085165Y-104297543D01*
X146025377Y-104166627D01*
X145931128Y-104057857D01*
X145931127Y-104057856D01*
X145897465Y-104036223D01*
X145810053Y-103980047D01*
X145810050Y-103980046D01*
X145671967Y-103939501D01*
X145671962Y-103939500D01*
X145671961Y-103939500D01*
X145528039Y-103939500D01*
X145528037Y-103939500D01*
X145528032Y-103939501D01*
X145389949Y-103980046D01*
X145389947Y-103980046D01*
X145389947Y-103980047D01*
X145370392Y-103992614D01*
X145268872Y-104057856D01*
X145268870Y-104057859D01*
X145174622Y-104166628D01*
X145114834Y-104297545D01*
X145094353Y-104439996D01*
X145094353Y-104440003D01*
X145114834Y-104582456D01*
X145165513Y-104693426D01*
X145178303Y-104769486D01*
X145151350Y-104841751D01*
X145091875Y-104890858D01*
X145061652Y-104900917D01*
X145007565Y-104912683D01*
X145007563Y-104912684D01*
X145007552Y-104912687D01*
X145007548Y-104912688D01*
X144969342Y-104923646D01*
X144969339Y-104923647D01*
X144872434Y-104980321D01*
X144872427Y-104980326D01*
X144819621Y-105026083D01*
X144819611Y-105026093D01*
X144777449Y-105070809D01*
X144777447Y-105070812D01*
X144726562Y-105170884D01*
X144726561Y-105170888D01*
X144706875Y-105237931D01*
X144706874Y-105237932D01*
X144694500Y-105323989D01*
X144694500Y-106795697D01*
X144695277Y-106817474D01*
X144695278Y-106817487D01*
X144696540Y-106835134D01*
X144706938Y-106875873D01*
X144723370Y-106940254D01*
X144723371Y-106940257D01*
X144752392Y-107003803D01*
X144783433Y-107056878D01*
X144818865Y-107090287D01*
X144859375Y-107155920D01*
X144861641Y-107233015D01*
X144825056Y-107300914D01*
X144819779Y-107306235D01*
X144819628Y-107306379D01*
X144777449Y-107351113D01*
X144777447Y-107351116D01*
X144726562Y-107451188D01*
X144726561Y-107451192D01*
X144706875Y-107518235D01*
X144706874Y-107518236D01*
X144694500Y-107604293D01*
X144694500Y-110851000D01*
X144674538Y-110925500D01*
X144620000Y-110980038D01*
X144545500Y-111000000D01*
X129949000Y-111000000D01*
X129874500Y-110980038D01*
X129819962Y-110925500D01*
X129800000Y-110851000D01*
X129800000Y-109328247D01*
X139855000Y-109328247D01*
X139855000Y-109471752D01*
X139857727Y-109481929D01*
X139892141Y-109610362D01*
X139963891Y-109734638D01*
X140065362Y-109836109D01*
X140189638Y-109907859D01*
X140328249Y-109945000D01*
X140471751Y-109945000D01*
X140610362Y-109907859D01*
X140734638Y-109836109D01*
X140836109Y-109734638D01*
X140907859Y-109610362D01*
X140945000Y-109471751D01*
X140945000Y-109328249D01*
X140944999Y-109328247D01*
X142852200Y-109328247D01*
X142852200Y-109471752D01*
X142854927Y-109481929D01*
X142889341Y-109610362D01*
X142961091Y-109734638D01*
X143062562Y-109836109D01*
X143186838Y-109907859D01*
X143325449Y-109945000D01*
X143468951Y-109945000D01*
X143607562Y-109907859D01*
X143731838Y-109836109D01*
X143833309Y-109734638D01*
X143905059Y-109610362D01*
X143942200Y-109471751D01*
X143942200Y-109328249D01*
X143905059Y-109189638D01*
X143833309Y-109065362D01*
X143731838Y-108963891D01*
X143607562Y-108892141D01*
X143468951Y-108855000D01*
X143325449Y-108855000D01*
X143186838Y-108892141D01*
X143186836Y-108892141D01*
X143186836Y-108892142D01*
X143062561Y-108963891D01*
X142961091Y-109065361D01*
X142925720Y-109126627D01*
X142889341Y-109189638D01*
X142875169Y-109242529D01*
X142852200Y-109328247D01*
X140944999Y-109328247D01*
X140907859Y-109189638D01*
X140836109Y-109065362D01*
X140734638Y-108963891D01*
X140610362Y-108892141D01*
X140471751Y-108855000D01*
X140328249Y-108855000D01*
X140189638Y-108892141D01*
X140189636Y-108892141D01*
X140189636Y-108892142D01*
X140065361Y-108963891D01*
X139963891Y-109065361D01*
X139928520Y-109126627D01*
X139892141Y-109189638D01*
X139877969Y-109242529D01*
X139855000Y-109328247D01*
X129800000Y-109328247D01*
X129800000Y-108134689D01*
X129819962Y-108060189D01*
X129874500Y-108005651D01*
X129949000Y-107985689D01*
X130023500Y-108005651D01*
X130054359Y-108029330D01*
X130077235Y-108052206D01*
X130180009Y-108097585D01*
X130205135Y-108100500D01*
X131994864Y-108100499D01*
X131994866Y-108100499D01*
X132007427Y-108099042D01*
X132019991Y-108097585D01*
X132122765Y-108052206D01*
X132202206Y-107972765D01*
X132247585Y-107869991D01*
X132250500Y-107844865D01*
X132250500Y-107720000D01*
X133661839Y-107720000D01*
X134161326Y-107720000D01*
X134147149Y-107744555D01*
X134125000Y-107827213D01*
X134125000Y-107912787D01*
X134147149Y-107995445D01*
X134161326Y-108020000D01*
X133661839Y-108020000D01*
X133665123Y-108049142D01*
X133724664Y-108219302D01*
X133820577Y-108371948D01*
X133948051Y-108499422D01*
X134100697Y-108595335D01*
X134270855Y-108654876D01*
X134300000Y-108658159D01*
X134300000Y-108158674D01*
X134324555Y-108172851D01*
X134407213Y-108195000D01*
X134492787Y-108195000D01*
X134575445Y-108172851D01*
X134600000Y-108158674D01*
X134600000Y-108658159D01*
X134629143Y-108654876D01*
X134629144Y-108654876D01*
X134799304Y-108595335D01*
X134834446Y-108573253D01*
X134908147Y-108550516D01*
X134983342Y-108567677D01*
X135019082Y-108594053D01*
X135047235Y-108622206D01*
X135150009Y-108667585D01*
X135175135Y-108670500D01*
X136264864Y-108670499D01*
X136264866Y-108670499D01*
X136277427Y-108669042D01*
X136289991Y-108667585D01*
X136392765Y-108622206D01*
X136472206Y-108542765D01*
X136517585Y-108439991D01*
X136520500Y-108414865D01*
X136520499Y-107325136D01*
X136517585Y-107300009D01*
X136472206Y-107197235D01*
X136392765Y-107117794D01*
X136392764Y-107117793D01*
X136289994Y-107072416D01*
X136289991Y-107072415D01*
X136289982Y-107072414D01*
X136264865Y-107069500D01*
X136264859Y-107069500D01*
X135175133Y-107069500D01*
X135150010Y-107072414D01*
X135150007Y-107072415D01*
X135047234Y-107117793D01*
X135019082Y-107145946D01*
X134952286Y-107184509D01*
X134875158Y-107184508D01*
X134834453Y-107166749D01*
X134799309Y-107144667D01*
X134799303Y-107144664D01*
X134629142Y-107085123D01*
X134600000Y-107081839D01*
X134600000Y-107581325D01*
X134575445Y-107567149D01*
X134492787Y-107545000D01*
X134407213Y-107545000D01*
X134324555Y-107567149D01*
X134300000Y-107581325D01*
X134300000Y-107081839D01*
X134270857Y-107085123D01*
X134100697Y-107144664D01*
X133948051Y-107240577D01*
X133948051Y-107240578D01*
X133820578Y-107368051D01*
X133820577Y-107368051D01*
X133724664Y-107520697D01*
X133665123Y-107690857D01*
X133661839Y-107720000D01*
X132250500Y-107720000D01*
X132250499Y-106055136D01*
X132247585Y-106030009D01*
X132202206Y-105927235D01*
X132122765Y-105847794D01*
X132122764Y-105847793D01*
X132019994Y-105802416D01*
X132019991Y-105802415D01*
X132019982Y-105802414D01*
X131994865Y-105799500D01*
X131994859Y-105799500D01*
X131495214Y-105799500D01*
X131420714Y-105779538D01*
X131366176Y-105725000D01*
X131346214Y-105650500D01*
X131366176Y-105576000D01*
X131420714Y-105521462D01*
X131441382Y-105511564D01*
X131615019Y-105444298D01*
X131796302Y-105332052D01*
X131953872Y-105188407D01*
X132082366Y-105018255D01*
X132177405Y-104827389D01*
X132235756Y-104622310D01*
X132249299Y-104476156D01*
X132255429Y-104410004D01*
X132255429Y-104409995D01*
X132241302Y-104257543D01*
X132235756Y-104197690D01*
X132177405Y-103992611D01*
X132082366Y-103801745D01*
X132082363Y-103801741D01*
X132082363Y-103801740D01*
X131953872Y-103631593D01*
X131796302Y-103487948D01*
X131796301Y-103487947D01*
X131615022Y-103375703D01*
X131615016Y-103375700D01*
X131416204Y-103298681D01*
X131416200Y-103298680D01*
X131416198Y-103298679D01*
X131350846Y-103286462D01*
X131281284Y-103253151D01*
X131237696Y-103189521D01*
X131231763Y-103112621D01*
X131265075Y-103043058D01*
X131328705Y-102999470D01*
X131350843Y-102993537D01*
X131416198Y-102981321D01*
X131615019Y-102904298D01*
X131796302Y-102792052D01*
X131953872Y-102648407D01*
X132082366Y-102478255D01*
X132177405Y-102287389D01*
X132235756Y-102082310D01*
X132255429Y-101870000D01*
X132255230Y-101867857D01*
X132238022Y-101682143D01*
X132235756Y-101657690D01*
X132177405Y-101452611D01*
X132126309Y-101349996D01*
X139934353Y-101349996D01*
X139934353Y-101350003D01*
X139954834Y-101492454D01*
X139954834Y-101492455D01*
X139954835Y-101492457D01*
X140014623Y-101623373D01*
X140108872Y-101732143D01*
X140229947Y-101809953D01*
X140368039Y-101850500D01*
X140368041Y-101850500D01*
X140511959Y-101850500D01*
X140511961Y-101850500D01*
X140650053Y-101809953D01*
X140771128Y-101732143D01*
X140865377Y-101623373D01*
X140925165Y-101492457D01*
X140938529Y-101399510D01*
X140945647Y-101350003D01*
X140945647Y-101349996D01*
X140925165Y-101207545D01*
X140925165Y-101207543D01*
X140865377Y-101076627D01*
X140771128Y-100967857D01*
X140771127Y-100967856D01*
X140693326Y-100917857D01*
X140650053Y-100890047D01*
X140650050Y-100890046D01*
X140511967Y-100849501D01*
X140511962Y-100849500D01*
X140511961Y-100849500D01*
X140368039Y-100849500D01*
X140368037Y-100849500D01*
X140368032Y-100849501D01*
X140229949Y-100890046D01*
X140108872Y-100967856D01*
X140108870Y-100967859D01*
X140014622Y-101076628D01*
X139954834Y-101207545D01*
X139934353Y-101349996D01*
X132126309Y-101349996D01*
X132082366Y-101261745D01*
X132082363Y-101261741D01*
X132082363Y-101261740D01*
X131953872Y-101091593D01*
X131796302Y-100947948D01*
X131796301Y-100947947D01*
X131615022Y-100835703D01*
X131615016Y-100835700D01*
X131416204Y-100758681D01*
X131416200Y-100758680D01*
X131416198Y-100758679D01*
X131350846Y-100746462D01*
X131281284Y-100713151D01*
X131237696Y-100649521D01*
X131231763Y-100572621D01*
X131265075Y-100503058D01*
X131328705Y-100459470D01*
X131350843Y-100453537D01*
X131416198Y-100441321D01*
X131615019Y-100364298D01*
X131796302Y-100252052D01*
X131953872Y-100108407D01*
X132082366Y-99938255D01*
X132177405Y-99747389D01*
X132235756Y-99542310D01*
X132255429Y-99330000D01*
X132248479Y-99255000D01*
X132240801Y-99172140D01*
X132235756Y-99117690D01*
X132177405Y-98912611D01*
X132116351Y-98789996D01*
X139934349Y-98789996D01*
X139934349Y-98790003D01*
X139954830Y-98932454D01*
X139954830Y-98932455D01*
X139954831Y-98932457D01*
X140014619Y-99063373D01*
X140108868Y-99172143D01*
X140229943Y-99249953D01*
X140368035Y-99290500D01*
X140368037Y-99290500D01*
X140511955Y-99290500D01*
X140511957Y-99290500D01*
X140650049Y-99249953D01*
X140771124Y-99172143D01*
X140865373Y-99063373D01*
X140925161Y-98932457D01*
X140939820Y-98830500D01*
X140945643Y-98790003D01*
X140945643Y-98789996D01*
X140925161Y-98647545D01*
X140925161Y-98647543D01*
X140865373Y-98516627D01*
X140771124Y-98407857D01*
X140771123Y-98407856D01*
X140737461Y-98386223D01*
X140650049Y-98330047D01*
X140650046Y-98330046D01*
X140511963Y-98289501D01*
X140511958Y-98289500D01*
X140511957Y-98289500D01*
X140368035Y-98289500D01*
X140368033Y-98289500D01*
X140368028Y-98289501D01*
X140229945Y-98330046D01*
X140108868Y-98407856D01*
X140108866Y-98407859D01*
X140014618Y-98516628D01*
X139954830Y-98647545D01*
X139934349Y-98789996D01*
X132116351Y-98789996D01*
X132082366Y-98721745D01*
X132082363Y-98721741D01*
X132082363Y-98721740D01*
X131953872Y-98551593D01*
X131796302Y-98407948D01*
X131796301Y-98407947D01*
X131615022Y-98295703D01*
X131615016Y-98295700D01*
X131416204Y-98218681D01*
X131416200Y-98218680D01*
X131416198Y-98218679D01*
X131350846Y-98206462D01*
X131281284Y-98173151D01*
X131237696Y-98109521D01*
X131231763Y-98032621D01*
X131265075Y-97963058D01*
X131328705Y-97919470D01*
X131350843Y-97913537D01*
X131416198Y-97901321D01*
X131615019Y-97824298D01*
X131796302Y-97712052D01*
X131953872Y-97568407D01*
X132082366Y-97398255D01*
X132177405Y-97207389D01*
X132235756Y-97002310D01*
X132250840Y-96839528D01*
X132255429Y-96790004D01*
X132255429Y-96789995D01*
X132235756Y-96577694D01*
X132235756Y-96577690D01*
X132177405Y-96372611D01*
X132082366Y-96181745D01*
X132082363Y-96181741D01*
X132082363Y-96181740D01*
X131953872Y-96011593D01*
X131796302Y-95867948D01*
X131796301Y-95867947D01*
X131615022Y-95755703D01*
X131615016Y-95755700D01*
X131416204Y-95678681D01*
X131416200Y-95678680D01*
X131416198Y-95678679D01*
X131350846Y-95666462D01*
X131281284Y-95633151D01*
X131237696Y-95569521D01*
X131231763Y-95492621D01*
X131265075Y-95423058D01*
X131328705Y-95379470D01*
X131350843Y-95373537D01*
X131416198Y-95361321D01*
X131615019Y-95284298D01*
X131796302Y-95172052D01*
X131953872Y-95028407D01*
X132082366Y-94858255D01*
X132177405Y-94667389D01*
X132235756Y-94462310D01*
X132252538Y-94281199D01*
X132255429Y-94250004D01*
X132255429Y-94249995D01*
X132244859Y-94135927D01*
X134699500Y-94135927D01*
X134699500Y-95364072D01*
X134724498Y-95489743D01*
X134724499Y-95489745D01*
X134773531Y-95608119D01*
X134773533Y-95608123D01*
X134773535Y-95608127D01*
X134844724Y-95714669D01*
X134935331Y-95805276D01*
X135041873Y-95876465D01*
X135160256Y-95925501D01*
X135285931Y-95950500D01*
X135285935Y-95950500D01*
X135414065Y-95950500D01*
X135414069Y-95950500D01*
X135539744Y-95925501D01*
X135658127Y-95876465D01*
X135764669Y-95805276D01*
X135855276Y-95714669D01*
X135926465Y-95608127D01*
X135975501Y-95489744D01*
X136000500Y-95364069D01*
X136000500Y-94397758D01*
X136020462Y-94323258D01*
X136075000Y-94268720D01*
X136100229Y-94261959D01*
X136043681Y-94229311D01*
X136005118Y-94162516D01*
X136000758Y-94138554D01*
X136000500Y-94135938D01*
X136000500Y-94135931D01*
X135975501Y-94010256D01*
X135926465Y-93891873D01*
X135855276Y-93785331D01*
X135764669Y-93694724D01*
X135658127Y-93623535D01*
X135658123Y-93623533D01*
X135658119Y-93623531D01*
X135539745Y-93574499D01*
X135539743Y-93574498D01*
X135414072Y-93549500D01*
X135414069Y-93549500D01*
X135285931Y-93549500D01*
X135285927Y-93549500D01*
X135160256Y-93574498D01*
X135160254Y-93574499D01*
X135041880Y-93623531D01*
X135041873Y-93623535D01*
X134963354Y-93676000D01*
X134935327Y-93694727D01*
X134844727Y-93785327D01*
X134844724Y-93785330D01*
X134844724Y-93785331D01*
X134800802Y-93851065D01*
X134773535Y-93891873D01*
X134773531Y-93891880D01*
X134724499Y-94010254D01*
X134724498Y-94010256D01*
X134699500Y-94135927D01*
X132244859Y-94135927D01*
X132242824Y-94113968D01*
X132235756Y-94037690D01*
X132177405Y-93832611D01*
X132082366Y-93641745D01*
X132082363Y-93641741D01*
X132082363Y-93641740D01*
X131953872Y-93471593D01*
X131796302Y-93327948D01*
X131796301Y-93327947D01*
X131615022Y-93215703D01*
X131615016Y-93215700D01*
X131416204Y-93138681D01*
X131416200Y-93138680D01*
X131416198Y-93138679D01*
X131374280Y-93130843D01*
X131206614Y-93099500D01*
X131206610Y-93099500D01*
X130993390Y-93099500D01*
X130993385Y-93099500D01*
X130783802Y-93138679D01*
X130783795Y-93138681D01*
X130584983Y-93215700D01*
X130584977Y-93215703D01*
X130403698Y-93327947D01*
X130403697Y-93327948D01*
X130246127Y-93471593D01*
X130117636Y-93641741D01*
X130117633Y-93641745D01*
X130082379Y-93712546D01*
X130031302Y-93770338D01*
X129958173Y-93794848D01*
X129882585Y-93779510D01*
X129824793Y-93728433D01*
X129800283Y-93655304D01*
X129800000Y-93646131D01*
X129800000Y-90115927D01*
X134699500Y-90115927D01*
X134699500Y-91044072D01*
X134724498Y-91169743D01*
X134724499Y-91169745D01*
X134773531Y-91288119D01*
X134773533Y-91288123D01*
X134773535Y-91288127D01*
X134844724Y-91394669D01*
X134935331Y-91485276D01*
X135041873Y-91556465D01*
X135160256Y-91605501D01*
X135285931Y-91630500D01*
X135285935Y-91630500D01*
X135414065Y-91630500D01*
X135414069Y-91630500D01*
X135539744Y-91605501D01*
X135658127Y-91556465D01*
X135764669Y-91485276D01*
X135855276Y-91394669D01*
X135926465Y-91288127D01*
X135975501Y-91169744D01*
X136000500Y-91044069D01*
X136000500Y-90115931D01*
X135975501Y-89990256D01*
X135926465Y-89871873D01*
X135855276Y-89765331D01*
X135764669Y-89674724D01*
X135658127Y-89603535D01*
X135658123Y-89603533D01*
X135658119Y-89603531D01*
X135539745Y-89554499D01*
X135539743Y-89554498D01*
X135414072Y-89529500D01*
X135414069Y-89529500D01*
X135285931Y-89529500D01*
X135285927Y-89529500D01*
X135160256Y-89554498D01*
X135160254Y-89554499D01*
X135041880Y-89603531D01*
X135041873Y-89603535D01*
X134935327Y-89674727D01*
X134844727Y-89765327D01*
X134773535Y-89871873D01*
X134773531Y-89871880D01*
X134724499Y-89990254D01*
X134724498Y-89990256D01*
X134699500Y-90115927D01*
X129800000Y-90115927D01*
X129800000Y-89149000D01*
X129819962Y-89074500D01*
X129874500Y-89019962D01*
X129949000Y-89000000D01*
X136745500Y-89000000D01*
X136820000Y-89019962D01*
G37*
%TD.AperFunction*%
%TA.AperFunction,Conductor*%
G36*
X159064811Y-89019962D02*
G01*
X159119349Y-89074500D01*
X159139311Y-89149000D01*
X159119349Y-89223500D01*
X159095670Y-89254359D01*
X159072793Y-89277235D01*
X159027416Y-89380005D01*
X159027415Y-89380008D01*
X159027415Y-89380009D01*
X159024500Y-89405135D01*
X159024500Y-89405136D01*
X159024500Y-89405140D01*
X159024500Y-91194866D01*
X159027414Y-91219989D01*
X159027415Y-91219992D01*
X159072793Y-91322764D01*
X159072794Y-91322765D01*
X159152235Y-91402206D01*
X159255009Y-91447585D01*
X159280135Y-91450500D01*
X161069864Y-91450499D01*
X161069866Y-91450499D01*
X161082427Y-91449042D01*
X161094991Y-91447585D01*
X161197765Y-91402206D01*
X161277206Y-91322765D01*
X161322585Y-91219991D01*
X161325500Y-91194865D01*
X161325499Y-90688632D01*
X161345461Y-90614135D01*
X161399999Y-90559597D01*
X161474499Y-90539635D01*
X161548999Y-90559597D01*
X161603537Y-90614135D01*
X161617811Y-90647858D01*
X161637594Y-90717387D01*
X161732636Y-90908259D01*
X161835193Y-91044064D01*
X161861128Y-91078407D01*
X162016441Y-91219994D01*
X162018697Y-91222051D01*
X162018698Y-91222052D01*
X162199977Y-91334296D01*
X162199983Y-91334299D01*
X162214818Y-91340046D01*
X162398802Y-91411321D01*
X162608390Y-91450500D01*
X162608393Y-91450500D01*
X162821607Y-91450500D01*
X162821610Y-91450500D01*
X163031198Y-91411321D01*
X163230019Y-91334298D01*
X163411302Y-91222052D01*
X163568872Y-91078407D01*
X163697366Y-90908255D01*
X163792405Y-90717389D01*
X163841948Y-90543263D01*
X163881536Y-90477072D01*
X163948917Y-90439541D01*
X164026036Y-90440729D01*
X164092229Y-90480317D01*
X164128572Y-90543265D01*
X164178062Y-90717204D01*
X164273064Y-90907996D01*
X164401498Y-91078068D01*
X164558999Y-91221650D01*
X164740206Y-91333848D01*
X164740209Y-91333850D01*
X164938933Y-91410836D01*
X164938940Y-91410838D01*
X165104999Y-91441879D01*
X165105000Y-91441879D01*
X165105000Y-90777445D01*
X165189174Y-90800000D01*
X165320826Y-90800000D01*
X165405000Y-90777445D01*
X165405000Y-91441879D01*
X165571059Y-91410838D01*
X165571066Y-91410836D01*
X165769790Y-91333850D01*
X165769793Y-91333848D01*
X165951000Y-91221650D01*
X166108501Y-91078068D01*
X166236935Y-90907996D01*
X166331937Y-90717204D01*
X166390261Y-90512217D01*
X166396026Y-90450000D01*
X165732445Y-90450000D01*
X165755000Y-90365826D01*
X165755000Y-90234174D01*
X165732445Y-90150000D01*
X166396026Y-90150000D01*
X166390261Y-90087782D01*
X166331937Y-89882795D01*
X166236935Y-89692003D01*
X166108501Y-89521931D01*
X165951000Y-89378349D01*
X165785187Y-89275683D01*
X165732354Y-89219491D01*
X165714696Y-89144412D01*
X165736942Y-89070562D01*
X165793134Y-89017729D01*
X165863625Y-89000000D01*
X166851000Y-89000000D01*
X166925500Y-89019962D01*
X166980038Y-89074500D01*
X167000000Y-89149000D01*
X167000000Y-110851000D01*
X166980038Y-110925500D01*
X166925500Y-110980038D01*
X166851000Y-111000000D01*
X155254500Y-111000000D01*
X155180000Y-110980038D01*
X155125462Y-110925500D01*
X155105500Y-110851000D01*
X155105500Y-109503743D01*
X155104720Y-109481929D01*
X155104720Y-109481927D01*
X155103456Y-109464270D01*
X155087047Y-109399996D01*
X158219353Y-109399996D01*
X158219353Y-109400003D01*
X158239834Y-109542454D01*
X158239834Y-109542455D01*
X158239835Y-109542457D01*
X158299623Y-109673373D01*
X158393872Y-109782143D01*
X158514947Y-109859953D01*
X158653039Y-109900500D01*
X158653041Y-109900500D01*
X158796959Y-109900500D01*
X158796961Y-109900500D01*
X158935053Y-109859953D01*
X159056128Y-109782143D01*
X159150377Y-109673373D01*
X159210165Y-109542457D01*
X159221406Y-109464273D01*
X159230647Y-109400003D01*
X159230647Y-109399996D01*
X159210165Y-109257545D01*
X159210165Y-109257543D01*
X159150377Y-109126627D01*
X159056128Y-109017857D01*
X159056127Y-109017856D01*
X159022465Y-108996223D01*
X158935053Y-108940047D01*
X158935050Y-108940046D01*
X158796967Y-108899501D01*
X158796962Y-108899500D01*
X158796961Y-108899500D01*
X158653039Y-108899500D01*
X158653037Y-108899500D01*
X158653032Y-108899501D01*
X158514949Y-108940046D01*
X158393872Y-109017856D01*
X158393870Y-109017859D01*
X158299622Y-109126628D01*
X158239834Y-109257545D01*
X158219353Y-109399996D01*
X155087047Y-109399996D01*
X155076620Y-109359155D01*
X155047591Y-109295602D01*
X155020720Y-109249665D01*
X155000336Y-109175281D01*
X155013800Y-109112537D01*
X155052793Y-109027155D01*
X155073275Y-108884701D01*
X155073275Y-108884694D01*
X155059620Y-108789726D01*
X155052793Y-108742241D01*
X155014525Y-108658448D01*
X155001736Y-108582390D01*
X155021111Y-108530063D01*
X155017723Y-108528340D01*
X155073437Y-108418769D01*
X155073437Y-108418768D01*
X155073439Y-108418765D01*
X155093124Y-108351726D01*
X155105500Y-108265654D01*
X155105500Y-108262496D01*
X157231853Y-108262496D01*
X157231853Y-108262503D01*
X157252334Y-108404954D01*
X157252334Y-108404955D01*
X157252335Y-108404957D01*
X157312123Y-108535873D01*
X157406372Y-108644643D01*
X157527447Y-108722453D01*
X157665539Y-108763000D01*
X157665541Y-108763000D01*
X157809459Y-108763000D01*
X157809461Y-108763000D01*
X157947553Y-108722453D01*
X158068628Y-108644643D01*
X158162877Y-108535873D01*
X158222665Y-108404957D01*
X158232906Y-108333728D01*
X158243147Y-108262503D01*
X158243147Y-108262496D01*
X158222665Y-108120045D01*
X158222665Y-108120043D01*
X158162877Y-107989127D01*
X158068628Y-107880357D01*
X158068627Y-107880356D01*
X158013401Y-107844865D01*
X157947553Y-107802547D01*
X157947550Y-107802546D01*
X157809467Y-107762001D01*
X157809462Y-107762000D01*
X157809461Y-107762000D01*
X157665539Y-107762000D01*
X157665537Y-107762000D01*
X157665532Y-107762001D01*
X157527449Y-107802546D01*
X157406372Y-107880356D01*
X157406370Y-107880359D01*
X157312122Y-107989128D01*
X157252334Y-108120045D01*
X157231853Y-108262496D01*
X155105500Y-108262496D01*
X155105500Y-106602496D01*
X157231853Y-106602496D01*
X157231853Y-106602503D01*
X157252334Y-106744954D01*
X157252334Y-106744955D01*
X157252335Y-106744957D01*
X157312123Y-106875873D01*
X157406372Y-106984643D01*
X157527447Y-107062453D01*
X157665539Y-107103000D01*
X157665541Y-107103000D01*
X157809459Y-107103000D01*
X157809461Y-107103000D01*
X157947553Y-107062453D01*
X158068628Y-106984643D01*
X158162877Y-106875873D01*
X158222665Y-106744957D01*
X158243147Y-106602500D01*
X158243147Y-106602496D01*
X158222665Y-106460045D01*
X158222665Y-106460043D01*
X158162877Y-106329127D01*
X158068628Y-106220357D01*
X158068627Y-106220356D01*
X158034965Y-106198723D01*
X157947553Y-106142547D01*
X157947550Y-106142546D01*
X157809467Y-106102001D01*
X157809462Y-106102000D01*
X157809461Y-106102000D01*
X157665539Y-106102000D01*
X157665537Y-106102000D01*
X157665532Y-106102001D01*
X157527449Y-106142546D01*
X157406372Y-106220356D01*
X157406370Y-106220359D01*
X157312122Y-106329128D01*
X157252334Y-106460045D01*
X157231853Y-106602496D01*
X155105500Y-106602496D01*
X155105500Y-105169210D01*
X155098486Y-105104125D01*
X155087230Y-105052504D01*
X155076205Y-105014165D01*
X155019432Y-104917306D01*
X155019429Y-104917303D01*
X155019427Y-104917299D01*
X154973629Y-104864549D01*
X154949402Y-104841751D01*
X154941829Y-104834625D01*
X154901256Y-104769034D01*
X154896458Y-104704911D01*
X154911470Y-104600500D01*
X154911470Y-104600494D01*
X154897815Y-104505526D01*
X154890988Y-104458041D01*
X154831200Y-104327125D01*
X154829052Y-104324646D01*
X155641455Y-104324646D01*
X155641455Y-104324653D01*
X155661936Y-104467104D01*
X155661936Y-104467105D01*
X155661937Y-104467107D01*
X155721725Y-104598023D01*
X155815974Y-104706793D01*
X155937049Y-104784603D01*
X156075141Y-104825150D01*
X156075143Y-104825150D01*
X156219061Y-104825150D01*
X156219063Y-104825150D01*
X156357155Y-104784603D01*
X156478230Y-104706793D01*
X156572479Y-104598023D01*
X156628134Y-104476154D01*
X156677241Y-104416681D01*
X156749506Y-104389728D01*
X156825566Y-104402518D01*
X156885041Y-104451625D01*
X156911152Y-104516846D01*
X156914834Y-104542455D01*
X156940211Y-104598021D01*
X156974623Y-104673373D01*
X157068872Y-104782143D01*
X157189947Y-104859953D01*
X157328039Y-104900500D01*
X157328041Y-104900500D01*
X157471959Y-104900500D01*
X157471961Y-104900500D01*
X157610053Y-104859953D01*
X157731128Y-104782143D01*
X157825377Y-104673373D01*
X157885165Y-104542457D01*
X157898225Y-104451625D01*
X157905647Y-104400003D01*
X157905647Y-104399996D01*
X157890916Y-104297543D01*
X157885165Y-104257543D01*
X157825377Y-104126627D01*
X157731128Y-104017857D01*
X157731127Y-104017856D01*
X157672294Y-103980047D01*
X157610053Y-103940047D01*
X157610050Y-103940046D01*
X157471967Y-103899501D01*
X157471962Y-103899500D01*
X157471961Y-103899500D01*
X157328039Y-103899500D01*
X157328037Y-103899500D01*
X157328032Y-103899501D01*
X157189949Y-103940046D01*
X157189947Y-103940046D01*
X157189947Y-103940047D01*
X157186116Y-103942509D01*
X157068872Y-104017856D01*
X157068870Y-104017859D01*
X156974622Y-104126628D01*
X156918967Y-104248494D01*
X156869859Y-104307969D01*
X156797594Y-104334921D01*
X156721534Y-104322131D01*
X156662059Y-104273023D01*
X156635948Y-104207801D01*
X156632267Y-104182193D01*
X156572479Y-104051277D01*
X156478230Y-103942507D01*
X156478229Y-103942506D01*
X156411311Y-103899501D01*
X156357155Y-103864697D01*
X156357152Y-103864696D01*
X156219069Y-103824151D01*
X156219064Y-103824150D01*
X156219063Y-103824150D01*
X156075141Y-103824150D01*
X156075139Y-103824150D01*
X156075134Y-103824151D01*
X155937051Y-103864696D01*
X155815974Y-103942506D01*
X155815972Y-103942509D01*
X155721724Y-104051278D01*
X155661936Y-104182195D01*
X155641455Y-104324646D01*
X154829052Y-104324646D01*
X154823023Y-104317688D01*
X154789324Y-104248313D01*
X154794828Y-104171382D01*
X154800094Y-104158227D01*
X154817298Y-104120557D01*
X154837082Y-104062343D01*
X154841797Y-103950171D01*
X154831854Y-103881012D01*
X154815213Y-103824341D01*
X154810697Y-103803581D01*
X154806041Y-103771198D01*
X154806041Y-103728806D01*
X154807926Y-103715693D01*
X154819876Y-103675003D01*
X154825374Y-103662966D01*
X154848298Y-103627297D01*
X154856959Y-103617302D01*
X154889014Y-103589528D01*
X154908203Y-103577197D01*
X154959063Y-103536211D01*
X154996339Y-103498934D01*
X155022553Y-103469064D01*
X155073439Y-103368988D01*
X155093124Y-103301949D01*
X155099228Y-103259500D01*
X155100595Y-103249996D01*
X158284353Y-103249996D01*
X158284353Y-103250003D01*
X158304834Y-103392454D01*
X158304834Y-103392455D01*
X158304835Y-103392457D01*
X158364623Y-103523373D01*
X158458872Y-103632143D01*
X158579947Y-103709953D01*
X158718039Y-103750500D01*
X158718041Y-103750500D01*
X158861959Y-103750500D01*
X158861961Y-103750500D01*
X159000053Y-103709953D01*
X159034447Y-103687848D01*
X159107910Y-103664366D01*
X159183275Y-103680760D01*
X159195537Y-103687839D01*
X159229947Y-103709953D01*
X159368039Y-103750500D01*
X159368041Y-103750500D01*
X159511959Y-103750500D01*
X159511961Y-103750500D01*
X159650053Y-103709953D01*
X159771128Y-103632143D01*
X159865377Y-103523373D01*
X159925165Y-103392457D01*
X159938648Y-103298679D01*
X159945647Y-103250003D01*
X159945647Y-103249996D01*
X160884353Y-103249996D01*
X160884353Y-103250003D01*
X160904834Y-103392454D01*
X160904834Y-103392455D01*
X160904835Y-103392457D01*
X160964623Y-103523373D01*
X161058872Y-103632143D01*
X161179947Y-103709953D01*
X161318039Y-103750500D01*
X161318041Y-103750500D01*
X161461959Y-103750500D01*
X161461961Y-103750500D01*
X161600053Y-103709953D01*
X161721128Y-103632143D01*
X161815377Y-103523373D01*
X161875165Y-103392457D01*
X161888648Y-103298679D01*
X161895647Y-103250003D01*
X161895647Y-103249996D01*
X161875165Y-103107545D01*
X161875165Y-103107543D01*
X161815377Y-102976627D01*
X161721128Y-102867857D01*
X161721127Y-102867856D01*
X161687465Y-102846223D01*
X161600053Y-102790047D01*
X161600050Y-102790046D01*
X161461967Y-102749501D01*
X161461962Y-102749500D01*
X161461961Y-102749500D01*
X161318039Y-102749500D01*
X161318037Y-102749500D01*
X161318032Y-102749501D01*
X161179949Y-102790046D01*
X161179947Y-102790046D01*
X161179947Y-102790047D01*
X161153071Y-102807318D01*
X161058872Y-102867856D01*
X161058870Y-102867859D01*
X160964622Y-102976628D01*
X160904834Y-103107545D01*
X160884353Y-103249996D01*
X159945647Y-103249996D01*
X159925165Y-103107545D01*
X159925165Y-103107543D01*
X159870066Y-102986895D01*
X159857277Y-102910838D01*
X159870066Y-102863105D01*
X159925165Y-102742457D01*
X159941026Y-102632140D01*
X159945647Y-102600003D01*
X159945647Y-102599996D01*
X159925165Y-102457545D01*
X159925165Y-102457543D01*
X159865377Y-102326627D01*
X159771128Y-102217857D01*
X159771127Y-102217856D01*
X159737465Y-102196223D01*
X159650053Y-102140047D01*
X159650050Y-102140046D01*
X159511967Y-102099501D01*
X159511962Y-102099500D01*
X159511961Y-102099500D01*
X159368039Y-102099500D01*
X159368037Y-102099500D01*
X159368032Y-102099501D01*
X159229949Y-102140046D01*
X159108872Y-102217856D01*
X159108870Y-102217859D01*
X159014622Y-102326628D01*
X158954834Y-102457545D01*
X158934353Y-102599996D01*
X158934353Y-102600500D01*
X158934196Y-102601082D01*
X158932836Y-102610548D01*
X158931704Y-102610385D01*
X158914391Y-102675000D01*
X158859853Y-102729538D01*
X158785353Y-102749500D01*
X158718039Y-102749500D01*
X158718037Y-102749500D01*
X158718032Y-102749501D01*
X158579949Y-102790046D01*
X158579947Y-102790046D01*
X158579947Y-102790047D01*
X158553071Y-102807318D01*
X158458872Y-102867856D01*
X158458870Y-102867859D01*
X158364622Y-102976628D01*
X158304834Y-103107545D01*
X158284353Y-103249996D01*
X155100595Y-103249996D01*
X155105499Y-103215887D01*
X155105500Y-103215874D01*
X155105500Y-102249996D01*
X155814353Y-102249996D01*
X155814353Y-102250003D01*
X155834834Y-102392454D01*
X155834834Y-102392455D01*
X155834835Y-102392457D01*
X155894623Y-102523373D01*
X155988872Y-102632143D01*
X156109947Y-102709953D01*
X156248039Y-102750500D01*
X156248041Y-102750500D01*
X156391959Y-102750500D01*
X156391961Y-102750500D01*
X156530053Y-102709953D01*
X156651128Y-102632143D01*
X156745377Y-102523373D01*
X156805165Y-102392457D01*
X156815406Y-102321228D01*
X156825647Y-102250003D01*
X156825647Y-102249996D01*
X156805165Y-102107545D01*
X156805165Y-102107543D01*
X156745377Y-101976627D01*
X156651128Y-101867857D01*
X156651127Y-101867856D01*
X156617465Y-101846223D01*
X156530053Y-101790047D01*
X156530050Y-101790046D01*
X156391967Y-101749501D01*
X156391962Y-101749500D01*
X156391961Y-101749500D01*
X156248039Y-101749500D01*
X156248037Y-101749500D01*
X156248032Y-101749501D01*
X156109949Y-101790046D01*
X155988872Y-101867856D01*
X155988870Y-101867859D01*
X155894622Y-101976628D01*
X155834834Y-102107545D01*
X155814353Y-102249996D01*
X155105500Y-102249996D01*
X155105500Y-101299996D01*
X160234353Y-101299996D01*
X160234353Y-101300003D01*
X160254834Y-101442454D01*
X160254834Y-101442455D01*
X160254835Y-101442457D01*
X160314623Y-101573373D01*
X160408872Y-101682143D01*
X160529947Y-101759953D01*
X160668039Y-101800500D01*
X160668041Y-101800500D01*
X160811959Y-101800500D01*
X160811961Y-101800500D01*
X160950053Y-101759953D01*
X161071128Y-101682143D01*
X161165377Y-101573373D01*
X161225165Y-101442457D01*
X161238459Y-101349996D01*
X161245647Y-101300003D01*
X161245647Y-101299996D01*
X161225165Y-101157545D01*
X161225165Y-101157543D01*
X161165377Y-101026627D01*
X161071128Y-100917857D01*
X161071127Y-100917856D01*
X161027853Y-100890046D01*
X160950053Y-100840047D01*
X160935259Y-100835703D01*
X160811967Y-100799501D01*
X160811962Y-100799500D01*
X160811961Y-100799500D01*
X160668039Y-100799500D01*
X160668037Y-100799500D01*
X160668032Y-100799501D01*
X160529949Y-100840046D01*
X160408872Y-100917856D01*
X160408870Y-100917859D01*
X160314622Y-101026628D01*
X160254834Y-101157545D01*
X160234353Y-101299996D01*
X155105500Y-101299996D01*
X155105500Y-100519996D01*
X155594353Y-100519996D01*
X155594353Y-100520003D01*
X155614834Y-100662454D01*
X155614834Y-100662455D01*
X155614835Y-100662457D01*
X155674623Y-100793373D01*
X155768872Y-100902143D01*
X155889947Y-100979953D01*
X156028039Y-101020500D01*
X156028041Y-101020500D01*
X156171959Y-101020500D01*
X156171961Y-101020500D01*
X156310053Y-100979953D01*
X156431128Y-100902143D01*
X156525377Y-100793373D01*
X156585165Y-100662457D01*
X156605647Y-100520000D01*
X156605647Y-100519996D01*
X156585165Y-100377545D01*
X156585165Y-100377543D01*
X156525377Y-100246627D01*
X156431128Y-100137857D01*
X156431127Y-100137856D01*
X156385301Y-100108406D01*
X156310053Y-100060047D01*
X156310050Y-100060046D01*
X156171967Y-100019501D01*
X156171962Y-100019500D01*
X156171961Y-100019500D01*
X156028039Y-100019500D01*
X156028037Y-100019500D01*
X156028032Y-100019501D01*
X155889949Y-100060046D01*
X155768872Y-100137856D01*
X155768870Y-100137859D01*
X155674622Y-100246628D01*
X155614834Y-100377545D01*
X155594353Y-100519996D01*
X155105500Y-100519996D01*
X155105500Y-99999996D01*
X159584353Y-99999996D01*
X159584353Y-100000003D01*
X159604834Y-100142454D01*
X159604834Y-100142455D01*
X159604835Y-100142457D01*
X159664623Y-100273373D01*
X159758872Y-100382143D01*
X159879947Y-100459953D01*
X160018039Y-100500500D01*
X160018041Y-100500500D01*
X160161959Y-100500500D01*
X160161961Y-100500500D01*
X160300053Y-100459953D01*
X160421128Y-100382143D01*
X160515377Y-100273373D01*
X160575165Y-100142457D01*
X160592772Y-100019999D01*
X160595647Y-100000003D01*
X160595647Y-99999996D01*
X160575165Y-99857545D01*
X160575165Y-99857543D01*
X160515377Y-99726627D01*
X160421128Y-99617857D01*
X160421127Y-99617856D01*
X160387465Y-99596223D01*
X160300053Y-99540047D01*
X160300050Y-99540046D01*
X160161967Y-99499501D01*
X160161962Y-99499500D01*
X160161961Y-99499500D01*
X160018039Y-99499500D01*
X160018037Y-99499500D01*
X160018032Y-99499501D01*
X159879949Y-99540046D01*
X159879947Y-99540046D01*
X159879947Y-99540047D01*
X159876426Y-99542310D01*
X159758872Y-99617856D01*
X159758870Y-99617859D01*
X159664622Y-99726628D01*
X159604834Y-99857545D01*
X159584353Y-99999996D01*
X155105500Y-99999996D01*
X155105500Y-98699996D01*
X160884353Y-98699996D01*
X160884353Y-98700003D01*
X160904834Y-98842454D01*
X160904834Y-98842455D01*
X160904835Y-98842457D01*
X160964623Y-98973373D01*
X161058872Y-99082143D01*
X161179947Y-99159953D01*
X161318039Y-99200500D01*
X161318041Y-99200500D01*
X161461959Y-99200500D01*
X161461961Y-99200500D01*
X161600053Y-99159953D01*
X161634447Y-99137848D01*
X161707910Y-99114366D01*
X161783275Y-99130760D01*
X161795537Y-99137839D01*
X161829947Y-99159953D01*
X161968039Y-99200500D01*
X161968041Y-99200500D01*
X162111959Y-99200500D01*
X162111961Y-99200500D01*
X162250053Y-99159953D01*
X162371128Y-99082143D01*
X162465377Y-98973373D01*
X162525165Y-98842457D01*
X162542521Y-98721741D01*
X162545647Y-98700003D01*
X162545647Y-98699996D01*
X162525165Y-98557545D01*
X162525165Y-98557543D01*
X162465377Y-98426627D01*
X162371128Y-98317857D01*
X162371127Y-98317856D01*
X162327005Y-98289501D01*
X162250053Y-98240047D01*
X162250050Y-98240046D01*
X162111967Y-98199501D01*
X162111962Y-98199500D01*
X162111961Y-98199500D01*
X161968039Y-98199500D01*
X161968037Y-98199500D01*
X161968032Y-98199501D01*
X161829948Y-98240046D01*
X161829945Y-98240047D01*
X161795554Y-98262149D01*
X161722088Y-98285632D01*
X161646722Y-98269237D01*
X161634446Y-98262149D01*
X161600054Y-98240047D01*
X161600051Y-98240046D01*
X161461967Y-98199501D01*
X161461962Y-98199500D01*
X161461961Y-98199500D01*
X161318039Y-98199500D01*
X161318037Y-98199500D01*
X161318032Y-98199501D01*
X161179949Y-98240046D01*
X161058872Y-98317856D01*
X161058870Y-98317859D01*
X160964622Y-98426628D01*
X160904834Y-98557545D01*
X160884353Y-98699996D01*
X155105500Y-98699996D01*
X155105500Y-98059996D01*
X159584353Y-98059996D01*
X159584353Y-98060003D01*
X159604834Y-98202454D01*
X159604834Y-98202455D01*
X159604835Y-98202457D01*
X159664623Y-98333373D01*
X159758872Y-98442143D01*
X159879947Y-98519953D01*
X160018039Y-98560500D01*
X160018041Y-98560500D01*
X160161959Y-98560500D01*
X160161961Y-98560500D01*
X160300053Y-98519953D01*
X160421128Y-98442143D01*
X160515377Y-98333373D01*
X160575165Y-98202457D01*
X160591711Y-98087379D01*
X160595647Y-98060003D01*
X160595647Y-98059996D01*
X160579523Y-97947856D01*
X160575165Y-97917543D01*
X160515377Y-97786627D01*
X160421128Y-97677857D01*
X160421127Y-97677856D01*
X160387465Y-97656223D01*
X160300053Y-97600047D01*
X160300050Y-97600046D01*
X160161967Y-97559501D01*
X160161962Y-97559500D01*
X160161961Y-97559500D01*
X160018039Y-97559500D01*
X160018037Y-97559500D01*
X160018032Y-97559501D01*
X159879949Y-97600046D01*
X159758872Y-97677856D01*
X159758870Y-97677859D01*
X159664622Y-97786628D01*
X159604834Y-97917545D01*
X159584353Y-98059996D01*
X155105500Y-98059996D01*
X155105500Y-97846595D01*
X155105498Y-97846549D01*
X155103939Y-97815737D01*
X155101410Y-97790819D01*
X155100835Y-97785600D01*
X155100833Y-97785595D01*
X155100833Y-97785592D01*
X155067322Y-97678452D01*
X155067318Y-97678444D01*
X155034566Y-97616734D01*
X155034561Y-97616726D01*
X155023424Y-97600047D01*
X155000425Y-97565602D01*
X154993130Y-97559501D01*
X154939929Y-97515010D01*
X154895586Y-97451904D01*
X154888736Y-97375081D01*
X154921216Y-97305125D01*
X154937940Y-97288105D01*
X154980375Y-97251335D01*
X155022553Y-97206602D01*
X155073439Y-97106526D01*
X155093124Y-97039487D01*
X155098470Y-97002310D01*
X155105499Y-96953425D01*
X155105500Y-96953412D01*
X155105500Y-94529996D01*
X158594353Y-94529996D01*
X158594353Y-94530003D01*
X158614834Y-94672454D01*
X158614834Y-94672455D01*
X158614835Y-94672457D01*
X158674623Y-94803373D01*
X158768872Y-94912143D01*
X158889947Y-94989953D01*
X159028039Y-95030500D01*
X159028041Y-95030500D01*
X159171959Y-95030500D01*
X159171961Y-95030500D01*
X159310053Y-94989953D01*
X159431128Y-94912143D01*
X159525377Y-94803373D01*
X159585165Y-94672457D01*
X159605647Y-94530000D01*
X159605647Y-94529996D01*
X159591276Y-94430047D01*
X159585165Y-94387543D01*
X159525377Y-94256627D01*
X159525375Y-94256625D01*
X159525375Y-94256624D01*
X159519618Y-94247666D01*
X159521747Y-94246297D01*
X159494838Y-94190900D01*
X159500341Y-94113968D01*
X159528539Y-94065129D01*
X159531124Y-94062145D01*
X159531128Y-94062143D01*
X159625377Y-93953373D01*
X159685165Y-93822457D01*
X159697087Y-93739538D01*
X159705647Y-93680003D01*
X159705647Y-93679996D01*
X159685165Y-93537545D01*
X159685165Y-93537543D01*
X159625377Y-93406627D01*
X159531128Y-93297857D01*
X159531127Y-93297856D01*
X159497465Y-93276223D01*
X159410053Y-93220047D01*
X159395259Y-93215703D01*
X159271967Y-93179501D01*
X159271962Y-93179500D01*
X159271961Y-93179500D01*
X159128039Y-93179500D01*
X159128037Y-93179500D01*
X159128032Y-93179501D01*
X158989949Y-93220046D01*
X158868872Y-93297856D01*
X158868870Y-93297859D01*
X158774622Y-93406628D01*
X158714834Y-93537545D01*
X158694353Y-93679996D01*
X158694353Y-93680003D01*
X158714834Y-93822454D01*
X158714834Y-93822455D01*
X158714835Y-93822457D01*
X158762840Y-93927572D01*
X158774624Y-93953375D01*
X158780382Y-93962334D01*
X158778251Y-93963703D01*
X158805161Y-94019102D01*
X158799657Y-94096033D01*
X158771461Y-94144869D01*
X158674622Y-94256628D01*
X158614834Y-94387545D01*
X158594353Y-94529996D01*
X155105500Y-94529996D01*
X155105500Y-91799996D01*
X156774353Y-91799996D01*
X156774353Y-91800003D01*
X156794834Y-91942454D01*
X156794834Y-91942455D01*
X156794835Y-91942457D01*
X156854623Y-92073373D01*
X156948872Y-92182143D01*
X157069947Y-92259953D01*
X157208039Y-92300500D01*
X157208041Y-92300500D01*
X157351959Y-92300500D01*
X157351961Y-92300500D01*
X157490053Y-92259953D01*
X157611128Y-92182143D01*
X157705377Y-92073373D01*
X157765165Y-91942457D01*
X157785647Y-91800000D01*
X157785647Y-91799996D01*
X157765165Y-91657545D01*
X157765165Y-91657543D01*
X157705377Y-91526627D01*
X157611128Y-91417857D01*
X157611127Y-91417856D01*
X157575047Y-91394669D01*
X157490053Y-91340047D01*
X157490050Y-91340046D01*
X157351967Y-91299501D01*
X157351962Y-91299500D01*
X157351961Y-91299500D01*
X157208039Y-91299500D01*
X157208037Y-91299500D01*
X157208032Y-91299501D01*
X157069949Y-91340046D01*
X156948872Y-91417856D01*
X156948870Y-91417859D01*
X156854622Y-91526628D01*
X156794834Y-91657545D01*
X156774353Y-91799996D01*
X155105500Y-91799996D01*
X155105500Y-89149000D01*
X155125462Y-89074500D01*
X155180000Y-89019962D01*
X155254500Y-89000000D01*
X158990311Y-89000000D01*
X159064811Y-89019962D01*
G37*
%TD.AperFunction*%
%TD*%
M02*
