%TF.GenerationSoftware,KiCad,Pcbnew,8.0.2-1*%
%TF.CreationDate,2024-06-20T09:38:11+09:00*%
%TF.ProjectId,eeg,6565672e-6b69-4636-9164-5f7063625858,rev?*%
%TF.SameCoordinates,Original*%
%TF.FileFunction,Legend,Bot*%
%TF.FilePolarity,Positive*%
%FSLAX46Y46*%
G04 Gerber Fmt 4.6, Leading zero omitted, Abs format (unit mm)*
G04 Created by KiCad (PCBNEW 8.0.2-1) date 2024-06-20 09:38:11*
%MOMM*%
%LPD*%
G01*
G04 APERTURE LIST*
%ADD10C,0.080000*%
%ADD11C,0.152400*%
%ADD12C,0.508000*%
%ADD13C,0.127000*%
%ADD14C,0.200000*%
%ADD15C,0.250000*%
%ADD16C,0.120000*%
%ADD17C,0.150000*%
G04 APERTURE END LIST*
D10*
X142365266Y-109727840D02*
X142315266Y-109765935D01*
X142315266Y-109765935D02*
X142231933Y-109765935D01*
X142231933Y-109765935D02*
X142198599Y-109727840D01*
X142198599Y-109727840D02*
X142181933Y-109689744D01*
X142181933Y-109689744D02*
X142165266Y-109613554D01*
X142165266Y-109613554D02*
X142165266Y-109537363D01*
X142165266Y-109537363D02*
X142181933Y-109461173D01*
X142181933Y-109461173D02*
X142198599Y-109423078D01*
X142198599Y-109423078D02*
X142231933Y-109384982D01*
X142231933Y-109384982D02*
X142298599Y-109346887D01*
X142298599Y-109346887D02*
X142331933Y-109308792D01*
X142331933Y-109308792D02*
X142348599Y-109270697D01*
X142348599Y-109270697D02*
X142365266Y-109194506D01*
X142365266Y-109194506D02*
X142365266Y-109118316D01*
X142365266Y-109118316D02*
X142348599Y-109042125D01*
X142348599Y-109042125D02*
X142331933Y-109004030D01*
X142331933Y-109004030D02*
X142298599Y-108965935D01*
X142298599Y-108965935D02*
X142215266Y-108965935D01*
X142215266Y-108965935D02*
X142165266Y-109004030D01*
X142048600Y-108965935D02*
X141965266Y-109765935D01*
X141965266Y-109765935D02*
X141898600Y-109194506D01*
X141898600Y-109194506D02*
X141831933Y-109765935D01*
X141831933Y-109765935D02*
X141748600Y-108965935D01*
X141431933Y-109765935D02*
X141631933Y-109765935D01*
X141531933Y-109765935D02*
X141531933Y-108965935D01*
X141531933Y-108965935D02*
X141565266Y-109080220D01*
X141565266Y-109080220D02*
X141598600Y-109156411D01*
X141598600Y-109156411D02*
X141631933Y-109194506D01*
X157025935Y-99773333D02*
X157673554Y-99773333D01*
X157673554Y-99773333D02*
X157749744Y-99790000D01*
X157749744Y-99790000D02*
X157787840Y-99806666D01*
X157787840Y-99806666D02*
X157825935Y-99840000D01*
X157825935Y-99840000D02*
X157825935Y-99906666D01*
X157825935Y-99906666D02*
X157787840Y-99940000D01*
X157787840Y-99940000D02*
X157749744Y-99956666D01*
X157749744Y-99956666D02*
X157673554Y-99973333D01*
X157673554Y-99973333D02*
X157025935Y-99973333D01*
X157825935Y-100323333D02*
X157825935Y-100123333D01*
X157825935Y-100223333D02*
X157025935Y-100223333D01*
X157025935Y-100223333D02*
X157140220Y-100190000D01*
X157140220Y-100190000D02*
X157216411Y-100156667D01*
X157216411Y-100156667D02*
X157254506Y-100123333D01*
X145701666Y-97585935D02*
X145701666Y-96785935D01*
X145334999Y-97509744D02*
X145351666Y-97547840D01*
X145351666Y-97547840D02*
X145401666Y-97585935D01*
X145401666Y-97585935D02*
X145434999Y-97585935D01*
X145434999Y-97585935D02*
X145484999Y-97547840D01*
X145484999Y-97547840D02*
X145518333Y-97471649D01*
X145518333Y-97471649D02*
X145534999Y-97395459D01*
X145534999Y-97395459D02*
X145551666Y-97243078D01*
X145551666Y-97243078D02*
X145551666Y-97128792D01*
X145551666Y-97128792D02*
X145534999Y-96976411D01*
X145534999Y-96976411D02*
X145518333Y-96900220D01*
X145518333Y-96900220D02*
X145484999Y-96824030D01*
X145484999Y-96824030D02*
X145434999Y-96785935D01*
X145434999Y-96785935D02*
X145401666Y-96785935D01*
X145401666Y-96785935D02*
X145351666Y-96824030D01*
X145351666Y-96824030D02*
X145334999Y-96862125D01*
X145001666Y-97585935D02*
X145201666Y-97585935D01*
X145101666Y-97585935D02*
X145101666Y-96785935D01*
X145101666Y-96785935D02*
X145134999Y-96900220D01*
X145134999Y-96900220D02*
X145168333Y-96976411D01*
X145168333Y-96976411D02*
X145201666Y-97014506D01*
X157439744Y-101051667D02*
X157477840Y-101035000D01*
X157477840Y-101035000D02*
X157515935Y-100985000D01*
X157515935Y-100985000D02*
X157515935Y-100951667D01*
X157515935Y-100951667D02*
X157477840Y-100901667D01*
X157477840Y-100901667D02*
X157401649Y-100868334D01*
X157401649Y-100868334D02*
X157325459Y-100851667D01*
X157325459Y-100851667D02*
X157173078Y-100835000D01*
X157173078Y-100835000D02*
X157058792Y-100835000D01*
X157058792Y-100835000D02*
X156906411Y-100851667D01*
X156906411Y-100851667D02*
X156830220Y-100868334D01*
X156830220Y-100868334D02*
X156754030Y-100901667D01*
X156754030Y-100901667D02*
X156715935Y-100951667D01*
X156715935Y-100951667D02*
X156715935Y-100985000D01*
X156715935Y-100985000D02*
X156754030Y-101035000D01*
X156754030Y-101035000D02*
X156792125Y-101051667D01*
X156792125Y-101185000D02*
X156754030Y-101201667D01*
X156754030Y-101201667D02*
X156715935Y-101235000D01*
X156715935Y-101235000D02*
X156715935Y-101318334D01*
X156715935Y-101318334D02*
X156754030Y-101351667D01*
X156754030Y-101351667D02*
X156792125Y-101368334D01*
X156792125Y-101368334D02*
X156868316Y-101385000D01*
X156868316Y-101385000D02*
X156944506Y-101385000D01*
X156944506Y-101385000D02*
X157058792Y-101368334D01*
X157058792Y-101368334D02*
X157515935Y-101168334D01*
X157515935Y-101168334D02*
X157515935Y-101385000D01*
X155584999Y-91129744D02*
X155601666Y-91167840D01*
X155601666Y-91167840D02*
X155651666Y-91205935D01*
X155651666Y-91205935D02*
X155684999Y-91205935D01*
X155684999Y-91205935D02*
X155734999Y-91167840D01*
X155734999Y-91167840D02*
X155768333Y-91091649D01*
X155768333Y-91091649D02*
X155784999Y-91015459D01*
X155784999Y-91015459D02*
X155801666Y-90863078D01*
X155801666Y-90863078D02*
X155801666Y-90748792D01*
X155801666Y-90748792D02*
X155784999Y-90596411D01*
X155784999Y-90596411D02*
X155768333Y-90520220D01*
X155768333Y-90520220D02*
X155734999Y-90444030D01*
X155734999Y-90444030D02*
X155684999Y-90405935D01*
X155684999Y-90405935D02*
X155651666Y-90405935D01*
X155651666Y-90405935D02*
X155601666Y-90444030D01*
X155601666Y-90444030D02*
X155584999Y-90482125D01*
X155251666Y-91205935D02*
X155451666Y-91205935D01*
X155351666Y-91205935D02*
X155351666Y-90405935D01*
X155351666Y-90405935D02*
X155384999Y-90520220D01*
X155384999Y-90520220D02*
X155418333Y-90596411D01*
X155418333Y-90596411D02*
X155451666Y-90634506D01*
X155085000Y-91205935D02*
X155018333Y-91205935D01*
X155018333Y-91205935D02*
X154985000Y-91167840D01*
X154985000Y-91167840D02*
X154968333Y-91129744D01*
X154968333Y-91129744D02*
X154935000Y-91015459D01*
X154935000Y-91015459D02*
X154918333Y-90863078D01*
X154918333Y-90863078D02*
X154918333Y-90558316D01*
X154918333Y-90558316D02*
X154935000Y-90482125D01*
X154935000Y-90482125D02*
X154951666Y-90444030D01*
X154951666Y-90444030D02*
X154985000Y-90405935D01*
X154985000Y-90405935D02*
X155051666Y-90405935D01*
X155051666Y-90405935D02*
X155085000Y-90444030D01*
X155085000Y-90444030D02*
X155101666Y-90482125D01*
X155101666Y-90482125D02*
X155118333Y-90558316D01*
X155118333Y-90558316D02*
X155118333Y-90748792D01*
X155118333Y-90748792D02*
X155101666Y-90824982D01*
X155101666Y-90824982D02*
X155085000Y-90863078D01*
X155085000Y-90863078D02*
X155051666Y-90901173D01*
X155051666Y-90901173D02*
X154985000Y-90901173D01*
X154985000Y-90901173D02*
X154951666Y-90863078D01*
X154951666Y-90863078D02*
X154935000Y-90824982D01*
X154935000Y-90824982D02*
X154918333Y-90748792D01*
X138138332Y-100589744D02*
X138154999Y-100627840D01*
X138154999Y-100627840D02*
X138204999Y-100665935D01*
X138204999Y-100665935D02*
X138238332Y-100665935D01*
X138238332Y-100665935D02*
X138288332Y-100627840D01*
X138288332Y-100627840D02*
X138321666Y-100551649D01*
X138321666Y-100551649D02*
X138338332Y-100475459D01*
X138338332Y-100475459D02*
X138354999Y-100323078D01*
X138354999Y-100323078D02*
X138354999Y-100208792D01*
X138354999Y-100208792D02*
X138338332Y-100056411D01*
X138338332Y-100056411D02*
X138321666Y-99980220D01*
X138321666Y-99980220D02*
X138288332Y-99904030D01*
X138288332Y-99904030D02*
X138238332Y-99865935D01*
X138238332Y-99865935D02*
X138204999Y-99865935D01*
X138204999Y-99865935D02*
X138154999Y-99904030D01*
X138154999Y-99904030D02*
X138138332Y-99942125D01*
X137938332Y-100208792D02*
X137971666Y-100170697D01*
X137971666Y-100170697D02*
X137988332Y-100132601D01*
X137988332Y-100132601D02*
X138004999Y-100056411D01*
X138004999Y-100056411D02*
X138004999Y-100018316D01*
X138004999Y-100018316D02*
X137988332Y-99942125D01*
X137988332Y-99942125D02*
X137971666Y-99904030D01*
X137971666Y-99904030D02*
X137938332Y-99865935D01*
X137938332Y-99865935D02*
X137871666Y-99865935D01*
X137871666Y-99865935D02*
X137838332Y-99904030D01*
X137838332Y-99904030D02*
X137821666Y-99942125D01*
X137821666Y-99942125D02*
X137804999Y-100018316D01*
X137804999Y-100018316D02*
X137804999Y-100056411D01*
X137804999Y-100056411D02*
X137821666Y-100132601D01*
X137821666Y-100132601D02*
X137838332Y-100170697D01*
X137838332Y-100170697D02*
X137871666Y-100208792D01*
X137871666Y-100208792D02*
X137938332Y-100208792D01*
X137938332Y-100208792D02*
X137971666Y-100246887D01*
X137971666Y-100246887D02*
X137988332Y-100284982D01*
X137988332Y-100284982D02*
X138004999Y-100361173D01*
X138004999Y-100361173D02*
X138004999Y-100513554D01*
X138004999Y-100513554D02*
X137988332Y-100589744D01*
X137988332Y-100589744D02*
X137971666Y-100627840D01*
X137971666Y-100627840D02*
X137938332Y-100665935D01*
X137938332Y-100665935D02*
X137871666Y-100665935D01*
X137871666Y-100665935D02*
X137838332Y-100627840D01*
X137838332Y-100627840D02*
X137821666Y-100589744D01*
X137821666Y-100589744D02*
X137804999Y-100513554D01*
X137804999Y-100513554D02*
X137804999Y-100361173D01*
X137804999Y-100361173D02*
X137821666Y-100284982D01*
X137821666Y-100284982D02*
X137838332Y-100246887D01*
X137838332Y-100246887D02*
X137871666Y-100208792D01*
X147928332Y-104729744D02*
X147944999Y-104767840D01*
X147944999Y-104767840D02*
X147994999Y-104805935D01*
X147994999Y-104805935D02*
X148028332Y-104805935D01*
X148028332Y-104805935D02*
X148078332Y-104767840D01*
X148078332Y-104767840D02*
X148111666Y-104691649D01*
X148111666Y-104691649D02*
X148128332Y-104615459D01*
X148128332Y-104615459D02*
X148144999Y-104463078D01*
X148144999Y-104463078D02*
X148144999Y-104348792D01*
X148144999Y-104348792D02*
X148128332Y-104196411D01*
X148128332Y-104196411D02*
X148111666Y-104120220D01*
X148111666Y-104120220D02*
X148078332Y-104044030D01*
X148078332Y-104044030D02*
X148028332Y-104005935D01*
X148028332Y-104005935D02*
X147994999Y-104005935D01*
X147994999Y-104005935D02*
X147944999Y-104044030D01*
X147944999Y-104044030D02*
X147928332Y-104082125D01*
X147811666Y-104005935D02*
X147578332Y-104005935D01*
X147578332Y-104005935D02*
X147728332Y-104805935D01*
X149909744Y-102695000D02*
X149947840Y-102678333D01*
X149947840Y-102678333D02*
X149985935Y-102628333D01*
X149985935Y-102628333D02*
X149985935Y-102595000D01*
X149985935Y-102595000D02*
X149947840Y-102545000D01*
X149947840Y-102545000D02*
X149871649Y-102511667D01*
X149871649Y-102511667D02*
X149795459Y-102495000D01*
X149795459Y-102495000D02*
X149643078Y-102478333D01*
X149643078Y-102478333D02*
X149528792Y-102478333D01*
X149528792Y-102478333D02*
X149376411Y-102495000D01*
X149376411Y-102495000D02*
X149300220Y-102511667D01*
X149300220Y-102511667D02*
X149224030Y-102545000D01*
X149224030Y-102545000D02*
X149185935Y-102595000D01*
X149185935Y-102595000D02*
X149185935Y-102628333D01*
X149185935Y-102628333D02*
X149224030Y-102678333D01*
X149224030Y-102678333D02*
X149262125Y-102695000D01*
X149985935Y-103028333D02*
X149985935Y-102828333D01*
X149985935Y-102928333D02*
X149185935Y-102928333D01*
X149185935Y-102928333D02*
X149300220Y-102895000D01*
X149300220Y-102895000D02*
X149376411Y-102861667D01*
X149376411Y-102861667D02*
X149414506Y-102828333D01*
X149185935Y-103145000D02*
X149185935Y-103378333D01*
X149185935Y-103378333D02*
X149985935Y-103228333D01*
X153222035Y-106825333D02*
X153869654Y-106825333D01*
X153869654Y-106825333D02*
X153945844Y-106842000D01*
X153945844Y-106842000D02*
X153983940Y-106858666D01*
X153983940Y-106858666D02*
X154022035Y-106892000D01*
X154022035Y-106892000D02*
X154022035Y-106958666D01*
X154022035Y-106958666D02*
X153983940Y-106992000D01*
X153983940Y-106992000D02*
X153945844Y-107008666D01*
X153945844Y-107008666D02*
X153869654Y-107025333D01*
X153869654Y-107025333D02*
X153222035Y-107025333D01*
X153298225Y-107175333D02*
X153260130Y-107192000D01*
X153260130Y-107192000D02*
X153222035Y-107225333D01*
X153222035Y-107225333D02*
X153222035Y-107308667D01*
X153222035Y-107308667D02*
X153260130Y-107342000D01*
X153260130Y-107342000D02*
X153298225Y-107358667D01*
X153298225Y-107358667D02*
X153374416Y-107375333D01*
X153374416Y-107375333D02*
X153450606Y-107375333D01*
X153450606Y-107375333D02*
X153564892Y-107358667D01*
X153564892Y-107358667D02*
X154022035Y-107158667D01*
X154022035Y-107158667D02*
X154022035Y-107375333D01*
X154458332Y-98415935D02*
X154574999Y-98034982D01*
X154658332Y-98415935D02*
X154658332Y-97615935D01*
X154658332Y-97615935D02*
X154524999Y-97615935D01*
X154524999Y-97615935D02*
X154491666Y-97654030D01*
X154491666Y-97654030D02*
X154474999Y-97692125D01*
X154474999Y-97692125D02*
X154458332Y-97768316D01*
X154458332Y-97768316D02*
X154458332Y-97882601D01*
X154458332Y-97882601D02*
X154474999Y-97958792D01*
X154474999Y-97958792D02*
X154491666Y-97996887D01*
X154491666Y-97996887D02*
X154524999Y-98034982D01*
X154524999Y-98034982D02*
X154658332Y-98034982D01*
X154124999Y-98415935D02*
X154324999Y-98415935D01*
X154224999Y-98415935D02*
X154224999Y-97615935D01*
X154224999Y-97615935D02*
X154258332Y-97730220D01*
X154258332Y-97730220D02*
X154291666Y-97806411D01*
X154291666Y-97806411D02*
X154324999Y-97844506D01*
X145478332Y-91235935D02*
X145478332Y-90435935D01*
X145478332Y-90435935D02*
X145394999Y-90435935D01*
X145394999Y-90435935D02*
X145344999Y-90474030D01*
X145344999Y-90474030D02*
X145311666Y-90550220D01*
X145311666Y-90550220D02*
X145294999Y-90626411D01*
X145294999Y-90626411D02*
X145278332Y-90778792D01*
X145278332Y-90778792D02*
X145278332Y-90893078D01*
X145278332Y-90893078D02*
X145294999Y-91045459D01*
X145294999Y-91045459D02*
X145311666Y-91121649D01*
X145311666Y-91121649D02*
X145344999Y-91197840D01*
X145344999Y-91197840D02*
X145394999Y-91235935D01*
X145394999Y-91235935D02*
X145478332Y-91235935D01*
X144944999Y-91235935D02*
X145144999Y-91235935D01*
X145044999Y-91235935D02*
X145044999Y-90435935D01*
X145044999Y-90435935D02*
X145078332Y-90550220D01*
X145078332Y-90550220D02*
X145111666Y-90626411D01*
X145111666Y-90626411D02*
X145144999Y-90664506D01*
X158278332Y-94819744D02*
X158294999Y-94857840D01*
X158294999Y-94857840D02*
X158344999Y-94895935D01*
X158344999Y-94895935D02*
X158378332Y-94895935D01*
X158378332Y-94895935D02*
X158428332Y-94857840D01*
X158428332Y-94857840D02*
X158461666Y-94781649D01*
X158461666Y-94781649D02*
X158478332Y-94705459D01*
X158478332Y-94705459D02*
X158494999Y-94553078D01*
X158494999Y-94553078D02*
X158494999Y-94438792D01*
X158494999Y-94438792D02*
X158478332Y-94286411D01*
X158478332Y-94286411D02*
X158461666Y-94210220D01*
X158461666Y-94210220D02*
X158428332Y-94134030D01*
X158428332Y-94134030D02*
X158378332Y-94095935D01*
X158378332Y-94095935D02*
X158344999Y-94095935D01*
X158344999Y-94095935D02*
X158294999Y-94134030D01*
X158294999Y-94134030D02*
X158278332Y-94172125D01*
X157961666Y-94095935D02*
X158128332Y-94095935D01*
X158128332Y-94095935D02*
X158144999Y-94476887D01*
X158144999Y-94476887D02*
X158128332Y-94438792D01*
X158128332Y-94438792D02*
X158094999Y-94400697D01*
X158094999Y-94400697D02*
X158011666Y-94400697D01*
X158011666Y-94400697D02*
X157978332Y-94438792D01*
X157978332Y-94438792D02*
X157961666Y-94476887D01*
X157961666Y-94476887D02*
X157944999Y-94553078D01*
X157944999Y-94553078D02*
X157944999Y-94743554D01*
X157944999Y-94743554D02*
X157961666Y-94819744D01*
X157961666Y-94819744D02*
X157978332Y-94857840D01*
X157978332Y-94857840D02*
X158011666Y-94895935D01*
X158011666Y-94895935D02*
X158094999Y-94895935D01*
X158094999Y-94895935D02*
X158128332Y-94857840D01*
X158128332Y-94857840D02*
X158144999Y-94819744D01*
X148394999Y-97349744D02*
X148411666Y-97387840D01*
X148411666Y-97387840D02*
X148461666Y-97425935D01*
X148461666Y-97425935D02*
X148494999Y-97425935D01*
X148494999Y-97425935D02*
X148544999Y-97387840D01*
X148544999Y-97387840D02*
X148578333Y-97311649D01*
X148578333Y-97311649D02*
X148594999Y-97235459D01*
X148594999Y-97235459D02*
X148611666Y-97083078D01*
X148611666Y-97083078D02*
X148611666Y-96968792D01*
X148611666Y-96968792D02*
X148594999Y-96816411D01*
X148594999Y-96816411D02*
X148578333Y-96740220D01*
X148578333Y-96740220D02*
X148544999Y-96664030D01*
X148544999Y-96664030D02*
X148494999Y-96625935D01*
X148494999Y-96625935D02*
X148461666Y-96625935D01*
X148461666Y-96625935D02*
X148411666Y-96664030D01*
X148411666Y-96664030D02*
X148394999Y-96702125D01*
X148061666Y-97425935D02*
X148261666Y-97425935D01*
X148161666Y-97425935D02*
X148161666Y-96625935D01*
X148161666Y-96625935D02*
X148194999Y-96740220D01*
X148194999Y-96740220D02*
X148228333Y-96816411D01*
X148228333Y-96816411D02*
X148261666Y-96854506D01*
X147728333Y-97425935D02*
X147928333Y-97425935D01*
X147828333Y-97425935D02*
X147828333Y-96625935D01*
X147828333Y-96625935D02*
X147861666Y-96740220D01*
X147861666Y-96740220D02*
X147895000Y-96816411D01*
X147895000Y-96816411D02*
X147928333Y-96854506D01*
X138724999Y-98419744D02*
X138741666Y-98457840D01*
X138741666Y-98457840D02*
X138791666Y-98495935D01*
X138791666Y-98495935D02*
X138824999Y-98495935D01*
X138824999Y-98495935D02*
X138874999Y-98457840D01*
X138874999Y-98457840D02*
X138908333Y-98381649D01*
X138908333Y-98381649D02*
X138924999Y-98305459D01*
X138924999Y-98305459D02*
X138941666Y-98153078D01*
X138941666Y-98153078D02*
X138941666Y-98038792D01*
X138941666Y-98038792D02*
X138924999Y-97886411D01*
X138924999Y-97886411D02*
X138908333Y-97810220D01*
X138908333Y-97810220D02*
X138874999Y-97734030D01*
X138874999Y-97734030D02*
X138824999Y-97695935D01*
X138824999Y-97695935D02*
X138791666Y-97695935D01*
X138791666Y-97695935D02*
X138741666Y-97734030D01*
X138741666Y-97734030D02*
X138724999Y-97772125D01*
X138391666Y-98495935D02*
X138591666Y-98495935D01*
X138491666Y-98495935D02*
X138491666Y-97695935D01*
X138491666Y-97695935D02*
X138524999Y-97810220D01*
X138524999Y-97810220D02*
X138558333Y-97886411D01*
X138558333Y-97886411D02*
X138591666Y-97924506D01*
X138175000Y-97695935D02*
X138141666Y-97695935D01*
X138141666Y-97695935D02*
X138108333Y-97734030D01*
X138108333Y-97734030D02*
X138091666Y-97772125D01*
X138091666Y-97772125D02*
X138075000Y-97848316D01*
X138075000Y-97848316D02*
X138058333Y-98000697D01*
X138058333Y-98000697D02*
X138058333Y-98191173D01*
X138058333Y-98191173D02*
X138075000Y-98343554D01*
X138075000Y-98343554D02*
X138091666Y-98419744D01*
X138091666Y-98419744D02*
X138108333Y-98457840D01*
X138108333Y-98457840D02*
X138141666Y-98495935D01*
X138141666Y-98495935D02*
X138175000Y-98495935D01*
X138175000Y-98495935D02*
X138208333Y-98457840D01*
X138208333Y-98457840D02*
X138225000Y-98419744D01*
X138225000Y-98419744D02*
X138241666Y-98343554D01*
X138241666Y-98343554D02*
X138258333Y-98191173D01*
X138258333Y-98191173D02*
X138258333Y-98000697D01*
X138258333Y-98000697D02*
X138241666Y-97848316D01*
X138241666Y-97848316D02*
X138225000Y-97772125D01*
X138225000Y-97772125D02*
X138208333Y-97734030D01*
X138208333Y-97734030D02*
X138175000Y-97695935D01*
X158499744Y-110071667D02*
X158537840Y-110055000D01*
X158537840Y-110055000D02*
X158575935Y-110005000D01*
X158575935Y-110005000D02*
X158575935Y-109971667D01*
X158575935Y-109971667D02*
X158537840Y-109921667D01*
X158537840Y-109921667D02*
X158461649Y-109888334D01*
X158461649Y-109888334D02*
X158385459Y-109871667D01*
X158385459Y-109871667D02*
X158233078Y-109855000D01*
X158233078Y-109855000D02*
X158118792Y-109855000D01*
X158118792Y-109855000D02*
X157966411Y-109871667D01*
X157966411Y-109871667D02*
X157890220Y-109888334D01*
X157890220Y-109888334D02*
X157814030Y-109921667D01*
X157814030Y-109921667D02*
X157775935Y-109971667D01*
X157775935Y-109971667D02*
X157775935Y-110005000D01*
X157775935Y-110005000D02*
X157814030Y-110055000D01*
X157814030Y-110055000D02*
X157852125Y-110071667D01*
X158042601Y-110371667D02*
X158575935Y-110371667D01*
X157737840Y-110288334D02*
X158309268Y-110205000D01*
X158309268Y-110205000D02*
X158309268Y-110421667D01*
X134711135Y-98565667D02*
X133911135Y-98565667D01*
X133911135Y-98565667D02*
X133911135Y-98649000D01*
X133911135Y-98649000D02*
X133949230Y-98699000D01*
X133949230Y-98699000D02*
X134025420Y-98732334D01*
X134025420Y-98732334D02*
X134101611Y-98749000D01*
X134101611Y-98749000D02*
X134253992Y-98765667D01*
X134253992Y-98765667D02*
X134368278Y-98765667D01*
X134368278Y-98765667D02*
X134520659Y-98749000D01*
X134520659Y-98749000D02*
X134596849Y-98732334D01*
X134596849Y-98732334D02*
X134673040Y-98699000D01*
X134673040Y-98699000D02*
X134711135Y-98649000D01*
X134711135Y-98649000D02*
X134711135Y-98565667D01*
X133911135Y-98882334D02*
X133911135Y-99099000D01*
X133911135Y-99099000D02*
X134215897Y-98982334D01*
X134215897Y-98982334D02*
X134215897Y-99032334D01*
X134215897Y-99032334D02*
X134253992Y-99065667D01*
X134253992Y-99065667D02*
X134292087Y-99082334D01*
X134292087Y-99082334D02*
X134368278Y-99099000D01*
X134368278Y-99099000D02*
X134558754Y-99099000D01*
X134558754Y-99099000D02*
X134634944Y-99082334D01*
X134634944Y-99082334D02*
X134673040Y-99065667D01*
X134673040Y-99065667D02*
X134711135Y-99032334D01*
X134711135Y-99032334D02*
X134711135Y-98932334D01*
X134711135Y-98932334D02*
X134673040Y-98899000D01*
X134673040Y-98899000D02*
X134634944Y-98882334D01*
X142388332Y-106825935D02*
X142504999Y-106444982D01*
X142588332Y-106825935D02*
X142588332Y-106025935D01*
X142588332Y-106025935D02*
X142454999Y-106025935D01*
X142454999Y-106025935D02*
X142421666Y-106064030D01*
X142421666Y-106064030D02*
X142404999Y-106102125D01*
X142404999Y-106102125D02*
X142388332Y-106178316D01*
X142388332Y-106178316D02*
X142388332Y-106292601D01*
X142388332Y-106292601D02*
X142404999Y-106368792D01*
X142404999Y-106368792D02*
X142421666Y-106406887D01*
X142421666Y-106406887D02*
X142454999Y-106444982D01*
X142454999Y-106444982D02*
X142588332Y-106444982D01*
X142254999Y-106102125D02*
X142238332Y-106064030D01*
X142238332Y-106064030D02*
X142204999Y-106025935D01*
X142204999Y-106025935D02*
X142121666Y-106025935D01*
X142121666Y-106025935D02*
X142088332Y-106064030D01*
X142088332Y-106064030D02*
X142071666Y-106102125D01*
X142071666Y-106102125D02*
X142054999Y-106178316D01*
X142054999Y-106178316D02*
X142054999Y-106254506D01*
X142054999Y-106254506D02*
X142071666Y-106368792D01*
X142071666Y-106368792D02*
X142271666Y-106825935D01*
X142271666Y-106825935D02*
X142054999Y-106825935D01*
X153379744Y-99315000D02*
X153417840Y-99298333D01*
X153417840Y-99298333D02*
X153455935Y-99248333D01*
X153455935Y-99248333D02*
X153455935Y-99215000D01*
X153455935Y-99215000D02*
X153417840Y-99165000D01*
X153417840Y-99165000D02*
X153341649Y-99131667D01*
X153341649Y-99131667D02*
X153265459Y-99115000D01*
X153265459Y-99115000D02*
X153113078Y-99098333D01*
X153113078Y-99098333D02*
X152998792Y-99098333D01*
X152998792Y-99098333D02*
X152846411Y-99115000D01*
X152846411Y-99115000D02*
X152770220Y-99131667D01*
X152770220Y-99131667D02*
X152694030Y-99165000D01*
X152694030Y-99165000D02*
X152655935Y-99215000D01*
X152655935Y-99215000D02*
X152655935Y-99248333D01*
X152655935Y-99248333D02*
X152694030Y-99298333D01*
X152694030Y-99298333D02*
X152732125Y-99315000D01*
X153455935Y-99648333D02*
X153455935Y-99448333D01*
X153455935Y-99548333D02*
X152655935Y-99548333D01*
X152655935Y-99548333D02*
X152770220Y-99515000D01*
X152770220Y-99515000D02*
X152846411Y-99481667D01*
X152846411Y-99481667D02*
X152884506Y-99448333D01*
X152655935Y-99965000D02*
X152655935Y-99798333D01*
X152655935Y-99798333D02*
X153036887Y-99781666D01*
X153036887Y-99781666D02*
X152998792Y-99798333D01*
X152998792Y-99798333D02*
X152960697Y-99831666D01*
X152960697Y-99831666D02*
X152960697Y-99915000D01*
X152960697Y-99915000D02*
X152998792Y-99948333D01*
X152998792Y-99948333D02*
X153036887Y-99965000D01*
X153036887Y-99965000D02*
X153113078Y-99981666D01*
X153113078Y-99981666D02*
X153303554Y-99981666D01*
X153303554Y-99981666D02*
X153379744Y-99965000D01*
X153379744Y-99965000D02*
X153417840Y-99948333D01*
X153417840Y-99948333D02*
X153455935Y-99915000D01*
X153455935Y-99915000D02*
X153455935Y-99831666D01*
X153455935Y-99831666D02*
X153417840Y-99798333D01*
X153417840Y-99798333D02*
X153379744Y-99781666D01*
X154028333Y-101895935D02*
X154194999Y-101895935D01*
X154194999Y-101895935D02*
X154194999Y-101095935D01*
X153928333Y-101172125D02*
X153911666Y-101134030D01*
X153911666Y-101134030D02*
X153878333Y-101095935D01*
X153878333Y-101095935D02*
X153795000Y-101095935D01*
X153795000Y-101095935D02*
X153761666Y-101134030D01*
X153761666Y-101134030D02*
X153745000Y-101172125D01*
X153745000Y-101172125D02*
X153728333Y-101248316D01*
X153728333Y-101248316D02*
X153728333Y-101324506D01*
X153728333Y-101324506D02*
X153745000Y-101438792D01*
X153745000Y-101438792D02*
X153945000Y-101895935D01*
X153945000Y-101895935D02*
X153728333Y-101895935D01*
X138164999Y-101639744D02*
X138181666Y-101677840D01*
X138181666Y-101677840D02*
X138231666Y-101715935D01*
X138231666Y-101715935D02*
X138264999Y-101715935D01*
X138264999Y-101715935D02*
X138314999Y-101677840D01*
X138314999Y-101677840D02*
X138348333Y-101601649D01*
X138348333Y-101601649D02*
X138364999Y-101525459D01*
X138364999Y-101525459D02*
X138381666Y-101373078D01*
X138381666Y-101373078D02*
X138381666Y-101258792D01*
X138381666Y-101258792D02*
X138364999Y-101106411D01*
X138364999Y-101106411D02*
X138348333Y-101030220D01*
X138348333Y-101030220D02*
X138314999Y-100954030D01*
X138314999Y-100954030D02*
X138264999Y-100915935D01*
X138264999Y-100915935D02*
X138231666Y-100915935D01*
X138231666Y-100915935D02*
X138181666Y-100954030D01*
X138181666Y-100954030D02*
X138164999Y-100992125D01*
X137831666Y-101715935D02*
X138031666Y-101715935D01*
X137931666Y-101715935D02*
X137931666Y-100915935D01*
X137931666Y-100915935D02*
X137964999Y-101030220D01*
X137964999Y-101030220D02*
X137998333Y-101106411D01*
X137998333Y-101106411D02*
X138031666Y-101144506D01*
X137631666Y-101258792D02*
X137665000Y-101220697D01*
X137665000Y-101220697D02*
X137681666Y-101182601D01*
X137681666Y-101182601D02*
X137698333Y-101106411D01*
X137698333Y-101106411D02*
X137698333Y-101068316D01*
X137698333Y-101068316D02*
X137681666Y-100992125D01*
X137681666Y-100992125D02*
X137665000Y-100954030D01*
X137665000Y-100954030D02*
X137631666Y-100915935D01*
X137631666Y-100915935D02*
X137565000Y-100915935D01*
X137565000Y-100915935D02*
X137531666Y-100954030D01*
X137531666Y-100954030D02*
X137515000Y-100992125D01*
X137515000Y-100992125D02*
X137498333Y-101068316D01*
X137498333Y-101068316D02*
X137498333Y-101106411D01*
X137498333Y-101106411D02*
X137515000Y-101182601D01*
X137515000Y-101182601D02*
X137531666Y-101220697D01*
X137531666Y-101220697D02*
X137565000Y-101258792D01*
X137565000Y-101258792D02*
X137631666Y-101258792D01*
X137631666Y-101258792D02*
X137665000Y-101296887D01*
X137665000Y-101296887D02*
X137681666Y-101334982D01*
X137681666Y-101334982D02*
X137698333Y-101411173D01*
X137698333Y-101411173D02*
X137698333Y-101563554D01*
X137698333Y-101563554D02*
X137681666Y-101639744D01*
X137681666Y-101639744D02*
X137665000Y-101677840D01*
X137665000Y-101677840D02*
X137631666Y-101715935D01*
X137631666Y-101715935D02*
X137565000Y-101715935D01*
X137565000Y-101715935D02*
X137531666Y-101677840D01*
X137531666Y-101677840D02*
X137515000Y-101639744D01*
X137515000Y-101639744D02*
X137498333Y-101563554D01*
X137498333Y-101563554D02*
X137498333Y-101411173D01*
X137498333Y-101411173D02*
X137515000Y-101334982D01*
X137515000Y-101334982D02*
X137531666Y-101296887D01*
X137531666Y-101296887D02*
X137565000Y-101258792D01*
X135995000Y-110026887D02*
X135945000Y-110064982D01*
X135945000Y-110064982D02*
X135928333Y-110103078D01*
X135928333Y-110103078D02*
X135911666Y-110179268D01*
X135911666Y-110179268D02*
X135911666Y-110293554D01*
X135911666Y-110293554D02*
X135928333Y-110369744D01*
X135928333Y-110369744D02*
X135945000Y-110407840D01*
X135945000Y-110407840D02*
X135978333Y-110445935D01*
X135978333Y-110445935D02*
X136111666Y-110445935D01*
X136111666Y-110445935D02*
X136111666Y-109645935D01*
X136111666Y-109645935D02*
X135995000Y-109645935D01*
X135995000Y-109645935D02*
X135961666Y-109684030D01*
X135961666Y-109684030D02*
X135945000Y-109722125D01*
X135945000Y-109722125D02*
X135928333Y-109798316D01*
X135928333Y-109798316D02*
X135928333Y-109874506D01*
X135928333Y-109874506D02*
X135945000Y-109950697D01*
X135945000Y-109950697D02*
X135961666Y-109988792D01*
X135961666Y-109988792D02*
X135995000Y-110026887D01*
X135995000Y-110026887D02*
X136111666Y-110026887D01*
X135811666Y-109645935D02*
X135611666Y-109645935D01*
X135711666Y-110445935D02*
X135711666Y-109645935D01*
X135311666Y-110445935D02*
X135511666Y-110445935D01*
X135411666Y-110445935D02*
X135411666Y-109645935D01*
X135411666Y-109645935D02*
X135444999Y-109760220D01*
X135444999Y-109760220D02*
X135478333Y-109836411D01*
X135478333Y-109836411D02*
X135511666Y-109874506D01*
X155835935Y-93288333D02*
X155035935Y-93288333D01*
X155759744Y-93655000D02*
X155797840Y-93638333D01*
X155797840Y-93638333D02*
X155835935Y-93588333D01*
X155835935Y-93588333D02*
X155835935Y-93555000D01*
X155835935Y-93555000D02*
X155797840Y-93505000D01*
X155797840Y-93505000D02*
X155721649Y-93471667D01*
X155721649Y-93471667D02*
X155645459Y-93455000D01*
X155645459Y-93455000D02*
X155493078Y-93438333D01*
X155493078Y-93438333D02*
X155378792Y-93438333D01*
X155378792Y-93438333D02*
X155226411Y-93455000D01*
X155226411Y-93455000D02*
X155150220Y-93471667D01*
X155150220Y-93471667D02*
X155074030Y-93505000D01*
X155074030Y-93505000D02*
X155035935Y-93555000D01*
X155035935Y-93555000D02*
X155035935Y-93588333D01*
X155035935Y-93588333D02*
X155074030Y-93638333D01*
X155074030Y-93638333D02*
X155112125Y-93655000D01*
X155112125Y-93788333D02*
X155074030Y-93805000D01*
X155074030Y-93805000D02*
X155035935Y-93838333D01*
X155035935Y-93838333D02*
X155035935Y-93921667D01*
X155035935Y-93921667D02*
X155074030Y-93955000D01*
X155074030Y-93955000D02*
X155112125Y-93971667D01*
X155112125Y-93971667D02*
X155188316Y-93988333D01*
X155188316Y-93988333D02*
X155264506Y-93988333D01*
X155264506Y-93988333D02*
X155378792Y-93971667D01*
X155378792Y-93971667D02*
X155835935Y-93771667D01*
X155835935Y-93771667D02*
X155835935Y-93988333D01*
X134761135Y-103565667D02*
X133961135Y-103565667D01*
X133961135Y-103565667D02*
X133961135Y-103649000D01*
X133961135Y-103649000D02*
X133999230Y-103699000D01*
X133999230Y-103699000D02*
X134075420Y-103732334D01*
X134075420Y-103732334D02*
X134151611Y-103749000D01*
X134151611Y-103749000D02*
X134303992Y-103765667D01*
X134303992Y-103765667D02*
X134418278Y-103765667D01*
X134418278Y-103765667D02*
X134570659Y-103749000D01*
X134570659Y-103749000D02*
X134646849Y-103732334D01*
X134646849Y-103732334D02*
X134723040Y-103699000D01*
X134723040Y-103699000D02*
X134761135Y-103649000D01*
X134761135Y-103649000D02*
X134761135Y-103565667D01*
X134037325Y-103899000D02*
X133999230Y-103915667D01*
X133999230Y-103915667D02*
X133961135Y-103949000D01*
X133961135Y-103949000D02*
X133961135Y-104032334D01*
X133961135Y-104032334D02*
X133999230Y-104065667D01*
X133999230Y-104065667D02*
X134037325Y-104082334D01*
X134037325Y-104082334D02*
X134113516Y-104099000D01*
X134113516Y-104099000D02*
X134189706Y-104099000D01*
X134189706Y-104099000D02*
X134303992Y-104082334D01*
X134303992Y-104082334D02*
X134761135Y-103882334D01*
X134761135Y-103882334D02*
X134761135Y-104099000D01*
X153445935Y-98331667D02*
X153445935Y-98165000D01*
X153445935Y-98165000D02*
X152645935Y-98165000D01*
X153445935Y-98631666D02*
X153445935Y-98431666D01*
X153445935Y-98531666D02*
X152645935Y-98531666D01*
X152645935Y-98531666D02*
X152760220Y-98498333D01*
X152760220Y-98498333D02*
X152836411Y-98465000D01*
X152836411Y-98465000D02*
X152874506Y-98431666D01*
X143078332Y-106835935D02*
X143194999Y-106454982D01*
X143278332Y-106835935D02*
X143278332Y-106035935D01*
X143278332Y-106035935D02*
X143144999Y-106035935D01*
X143144999Y-106035935D02*
X143111666Y-106074030D01*
X143111666Y-106074030D02*
X143094999Y-106112125D01*
X143094999Y-106112125D02*
X143078332Y-106188316D01*
X143078332Y-106188316D02*
X143078332Y-106302601D01*
X143078332Y-106302601D02*
X143094999Y-106378792D01*
X143094999Y-106378792D02*
X143111666Y-106416887D01*
X143111666Y-106416887D02*
X143144999Y-106454982D01*
X143144999Y-106454982D02*
X143278332Y-106454982D01*
X142961666Y-106035935D02*
X142744999Y-106035935D01*
X142744999Y-106035935D02*
X142861666Y-106340697D01*
X142861666Y-106340697D02*
X142811666Y-106340697D01*
X142811666Y-106340697D02*
X142778332Y-106378792D01*
X142778332Y-106378792D02*
X142761666Y-106416887D01*
X142761666Y-106416887D02*
X142744999Y-106493078D01*
X142744999Y-106493078D02*
X142744999Y-106683554D01*
X142744999Y-106683554D02*
X142761666Y-106759744D01*
X142761666Y-106759744D02*
X142778332Y-106797840D01*
X142778332Y-106797840D02*
X142811666Y-106835935D01*
X142811666Y-106835935D02*
X142911666Y-106835935D01*
X142911666Y-106835935D02*
X142944999Y-106797840D01*
X142944999Y-106797840D02*
X142961666Y-106759744D01*
X134296666Y-91318435D02*
X134296666Y-91889863D01*
X134296666Y-91889863D02*
X134313333Y-92004149D01*
X134313333Y-92004149D02*
X134346666Y-92080340D01*
X134346666Y-92080340D02*
X134396666Y-92118435D01*
X134396666Y-92118435D02*
X134430000Y-92118435D01*
X134163333Y-91318435D02*
X133946666Y-91318435D01*
X133946666Y-91318435D02*
X134063333Y-91623197D01*
X134063333Y-91623197D02*
X134013333Y-91623197D01*
X134013333Y-91623197D02*
X133979999Y-91661292D01*
X133979999Y-91661292D02*
X133963333Y-91699387D01*
X133963333Y-91699387D02*
X133946666Y-91775578D01*
X133946666Y-91775578D02*
X133946666Y-91966054D01*
X133946666Y-91966054D02*
X133963333Y-92042244D01*
X133963333Y-92042244D02*
X133979999Y-92080340D01*
X133979999Y-92080340D02*
X134013333Y-92118435D01*
X134013333Y-92118435D02*
X134113333Y-92118435D01*
X134113333Y-92118435D02*
X134146666Y-92080340D01*
X134146666Y-92080340D02*
X134163333Y-92042244D01*
X149899744Y-93905000D02*
X149937840Y-93888333D01*
X149937840Y-93888333D02*
X149975935Y-93838333D01*
X149975935Y-93838333D02*
X149975935Y-93805000D01*
X149975935Y-93805000D02*
X149937840Y-93755000D01*
X149937840Y-93755000D02*
X149861649Y-93721667D01*
X149861649Y-93721667D02*
X149785459Y-93705000D01*
X149785459Y-93705000D02*
X149633078Y-93688333D01*
X149633078Y-93688333D02*
X149518792Y-93688333D01*
X149518792Y-93688333D02*
X149366411Y-93705000D01*
X149366411Y-93705000D02*
X149290220Y-93721667D01*
X149290220Y-93721667D02*
X149214030Y-93755000D01*
X149214030Y-93755000D02*
X149175935Y-93805000D01*
X149175935Y-93805000D02*
X149175935Y-93838333D01*
X149175935Y-93838333D02*
X149214030Y-93888333D01*
X149214030Y-93888333D02*
X149252125Y-93905000D01*
X149975935Y-94238333D02*
X149975935Y-94038333D01*
X149975935Y-94138333D02*
X149175935Y-94138333D01*
X149175935Y-94138333D02*
X149290220Y-94105000D01*
X149290220Y-94105000D02*
X149366411Y-94071667D01*
X149366411Y-94071667D02*
X149404506Y-94038333D01*
X149175935Y-94355000D02*
X149175935Y-94571666D01*
X149175935Y-94571666D02*
X149480697Y-94455000D01*
X149480697Y-94455000D02*
X149480697Y-94505000D01*
X149480697Y-94505000D02*
X149518792Y-94538333D01*
X149518792Y-94538333D02*
X149556887Y-94555000D01*
X149556887Y-94555000D02*
X149633078Y-94571666D01*
X149633078Y-94571666D02*
X149823554Y-94571666D01*
X149823554Y-94571666D02*
X149899744Y-94555000D01*
X149899744Y-94555000D02*
X149937840Y-94538333D01*
X149937840Y-94538333D02*
X149975935Y-94505000D01*
X149975935Y-94505000D02*
X149975935Y-94405000D01*
X149975935Y-94405000D02*
X149937840Y-94371666D01*
X149937840Y-94371666D02*
X149899744Y-94355000D01*
X154468332Y-97279744D02*
X154484999Y-97317840D01*
X154484999Y-97317840D02*
X154534999Y-97355935D01*
X154534999Y-97355935D02*
X154568332Y-97355935D01*
X154568332Y-97355935D02*
X154618332Y-97317840D01*
X154618332Y-97317840D02*
X154651666Y-97241649D01*
X154651666Y-97241649D02*
X154668332Y-97165459D01*
X154668332Y-97165459D02*
X154684999Y-97013078D01*
X154684999Y-97013078D02*
X154684999Y-96898792D01*
X154684999Y-96898792D02*
X154668332Y-96746411D01*
X154668332Y-96746411D02*
X154651666Y-96670220D01*
X154651666Y-96670220D02*
X154618332Y-96594030D01*
X154618332Y-96594030D02*
X154568332Y-96555935D01*
X154568332Y-96555935D02*
X154534999Y-96555935D01*
X154534999Y-96555935D02*
X154484999Y-96594030D01*
X154484999Y-96594030D02*
X154468332Y-96632125D01*
X154351666Y-96555935D02*
X154134999Y-96555935D01*
X154134999Y-96555935D02*
X154251666Y-96860697D01*
X154251666Y-96860697D02*
X154201666Y-96860697D01*
X154201666Y-96860697D02*
X154168332Y-96898792D01*
X154168332Y-96898792D02*
X154151666Y-96936887D01*
X154151666Y-96936887D02*
X154134999Y-97013078D01*
X154134999Y-97013078D02*
X154134999Y-97203554D01*
X154134999Y-97203554D02*
X154151666Y-97279744D01*
X154151666Y-97279744D02*
X154168332Y-97317840D01*
X154168332Y-97317840D02*
X154201666Y-97355935D01*
X154201666Y-97355935D02*
X154301666Y-97355935D01*
X154301666Y-97355935D02*
X154334999Y-97317840D01*
X154334999Y-97317840D02*
X154351666Y-97279744D01*
X158248332Y-95859744D02*
X158264999Y-95897840D01*
X158264999Y-95897840D02*
X158314999Y-95935935D01*
X158314999Y-95935935D02*
X158348332Y-95935935D01*
X158348332Y-95935935D02*
X158398332Y-95897840D01*
X158398332Y-95897840D02*
X158431666Y-95821649D01*
X158431666Y-95821649D02*
X158448332Y-95745459D01*
X158448332Y-95745459D02*
X158464999Y-95593078D01*
X158464999Y-95593078D02*
X158464999Y-95478792D01*
X158464999Y-95478792D02*
X158448332Y-95326411D01*
X158448332Y-95326411D02*
X158431666Y-95250220D01*
X158431666Y-95250220D02*
X158398332Y-95174030D01*
X158398332Y-95174030D02*
X158348332Y-95135935D01*
X158348332Y-95135935D02*
X158314999Y-95135935D01*
X158314999Y-95135935D02*
X158264999Y-95174030D01*
X158264999Y-95174030D02*
X158248332Y-95212125D01*
X157914999Y-95935935D02*
X158114999Y-95935935D01*
X158014999Y-95935935D02*
X158014999Y-95135935D01*
X158014999Y-95135935D02*
X158048332Y-95250220D01*
X158048332Y-95250220D02*
X158081666Y-95326411D01*
X158081666Y-95326411D02*
X158114999Y-95364506D01*
X158759744Y-107341667D02*
X158797840Y-107325000D01*
X158797840Y-107325000D02*
X158835935Y-107275000D01*
X158835935Y-107275000D02*
X158835935Y-107241667D01*
X158835935Y-107241667D02*
X158797840Y-107191667D01*
X158797840Y-107191667D02*
X158721649Y-107158334D01*
X158721649Y-107158334D02*
X158645459Y-107141667D01*
X158645459Y-107141667D02*
X158493078Y-107125000D01*
X158493078Y-107125000D02*
X158378792Y-107125000D01*
X158378792Y-107125000D02*
X158226411Y-107141667D01*
X158226411Y-107141667D02*
X158150220Y-107158334D01*
X158150220Y-107158334D02*
X158074030Y-107191667D01*
X158074030Y-107191667D02*
X158035935Y-107241667D01*
X158035935Y-107241667D02*
X158035935Y-107275000D01*
X158035935Y-107275000D02*
X158074030Y-107325000D01*
X158074030Y-107325000D02*
X158112125Y-107341667D01*
X158035935Y-107641667D02*
X158035935Y-107575000D01*
X158035935Y-107575000D02*
X158074030Y-107541667D01*
X158074030Y-107541667D02*
X158112125Y-107525000D01*
X158112125Y-107525000D02*
X158226411Y-107491667D01*
X158226411Y-107491667D02*
X158378792Y-107475000D01*
X158378792Y-107475000D02*
X158683554Y-107475000D01*
X158683554Y-107475000D02*
X158759744Y-107491667D01*
X158759744Y-107491667D02*
X158797840Y-107508334D01*
X158797840Y-107508334D02*
X158835935Y-107541667D01*
X158835935Y-107541667D02*
X158835935Y-107608334D01*
X158835935Y-107608334D02*
X158797840Y-107641667D01*
X158797840Y-107641667D02*
X158759744Y-107658334D01*
X158759744Y-107658334D02*
X158683554Y-107675000D01*
X158683554Y-107675000D02*
X158493078Y-107675000D01*
X158493078Y-107675000D02*
X158416887Y-107658334D01*
X158416887Y-107658334D02*
X158378792Y-107641667D01*
X158378792Y-107641667D02*
X158340697Y-107608334D01*
X158340697Y-107608334D02*
X158340697Y-107541667D01*
X158340697Y-107541667D02*
X158378792Y-107508334D01*
X158378792Y-107508334D02*
X158416887Y-107491667D01*
X158416887Y-107491667D02*
X158493078Y-107475000D01*
X151324999Y-104649744D02*
X151341666Y-104687840D01*
X151341666Y-104687840D02*
X151391666Y-104725935D01*
X151391666Y-104725935D02*
X151424999Y-104725935D01*
X151424999Y-104725935D02*
X151474999Y-104687840D01*
X151474999Y-104687840D02*
X151508333Y-104611649D01*
X151508333Y-104611649D02*
X151524999Y-104535459D01*
X151524999Y-104535459D02*
X151541666Y-104383078D01*
X151541666Y-104383078D02*
X151541666Y-104268792D01*
X151541666Y-104268792D02*
X151524999Y-104116411D01*
X151524999Y-104116411D02*
X151508333Y-104040220D01*
X151508333Y-104040220D02*
X151474999Y-103964030D01*
X151474999Y-103964030D02*
X151424999Y-103925935D01*
X151424999Y-103925935D02*
X151391666Y-103925935D01*
X151391666Y-103925935D02*
X151341666Y-103964030D01*
X151341666Y-103964030D02*
X151324999Y-104002125D01*
X150991666Y-104725935D02*
X151191666Y-104725935D01*
X151091666Y-104725935D02*
X151091666Y-103925935D01*
X151091666Y-103925935D02*
X151124999Y-104040220D01*
X151124999Y-104040220D02*
X151158333Y-104116411D01*
X151158333Y-104116411D02*
X151191666Y-104154506D01*
X150858333Y-104002125D02*
X150841666Y-103964030D01*
X150841666Y-103964030D02*
X150808333Y-103925935D01*
X150808333Y-103925935D02*
X150725000Y-103925935D01*
X150725000Y-103925935D02*
X150691666Y-103964030D01*
X150691666Y-103964030D02*
X150675000Y-104002125D01*
X150675000Y-104002125D02*
X150658333Y-104078316D01*
X150658333Y-104078316D02*
X150658333Y-104154506D01*
X150658333Y-104154506D02*
X150675000Y-104268792D01*
X150675000Y-104268792D02*
X150875000Y-104725935D01*
X150875000Y-104725935D02*
X150658333Y-104725935D01*
X138178332Y-103309744D02*
X138194999Y-103347840D01*
X138194999Y-103347840D02*
X138244999Y-103385935D01*
X138244999Y-103385935D02*
X138278332Y-103385935D01*
X138278332Y-103385935D02*
X138328332Y-103347840D01*
X138328332Y-103347840D02*
X138361666Y-103271649D01*
X138361666Y-103271649D02*
X138378332Y-103195459D01*
X138378332Y-103195459D02*
X138394999Y-103043078D01*
X138394999Y-103043078D02*
X138394999Y-102928792D01*
X138394999Y-102928792D02*
X138378332Y-102776411D01*
X138378332Y-102776411D02*
X138361666Y-102700220D01*
X138361666Y-102700220D02*
X138328332Y-102624030D01*
X138328332Y-102624030D02*
X138278332Y-102585935D01*
X138278332Y-102585935D02*
X138244999Y-102585935D01*
X138244999Y-102585935D02*
X138194999Y-102624030D01*
X138194999Y-102624030D02*
X138178332Y-102662125D01*
X138011666Y-103385935D02*
X137944999Y-103385935D01*
X137944999Y-103385935D02*
X137911666Y-103347840D01*
X137911666Y-103347840D02*
X137894999Y-103309744D01*
X137894999Y-103309744D02*
X137861666Y-103195459D01*
X137861666Y-103195459D02*
X137844999Y-103043078D01*
X137844999Y-103043078D02*
X137844999Y-102738316D01*
X137844999Y-102738316D02*
X137861666Y-102662125D01*
X137861666Y-102662125D02*
X137878332Y-102624030D01*
X137878332Y-102624030D02*
X137911666Y-102585935D01*
X137911666Y-102585935D02*
X137978332Y-102585935D01*
X137978332Y-102585935D02*
X138011666Y-102624030D01*
X138011666Y-102624030D02*
X138028332Y-102662125D01*
X138028332Y-102662125D02*
X138044999Y-102738316D01*
X138044999Y-102738316D02*
X138044999Y-102928792D01*
X138044999Y-102928792D02*
X138028332Y-103004982D01*
X138028332Y-103004982D02*
X138011666Y-103043078D01*
X138011666Y-103043078D02*
X137978332Y-103081173D01*
X137978332Y-103081173D02*
X137911666Y-103081173D01*
X137911666Y-103081173D02*
X137878332Y-103043078D01*
X137878332Y-103043078D02*
X137861666Y-103004982D01*
X137861666Y-103004982D02*
X137844999Y-102928792D01*
D11*
%TO.C,SW1*%
X138469600Y-109072340D02*
X138469600Y-109727660D01*
X138837900Y-110873200D02*
X144959300Y-110873200D01*
X143369260Y-107926800D02*
X141926540Y-107926800D01*
X145327600Y-109727660D02*
X145327600Y-109072340D01*
D12*
X147486600Y-107431500D02*
G75*
G02*
X146724600Y-107431500I-381000J0D01*
G01*
X146724600Y-107431500D02*
G75*
G02*
X147486600Y-107431500I381000J0D01*
G01*
D13*
%TO.C,U1*%
X158240000Y-96650000D02*
X166240000Y-96650000D01*
X158240000Y-104650000D02*
X158240000Y-96650000D01*
X166240000Y-96650000D02*
X166240000Y-104650000D01*
X166240000Y-104650000D02*
X158240000Y-104650000D01*
D14*
X158990000Y-96150000D02*
G75*
G02*
X158790000Y-96150000I-100000J0D01*
G01*
X158790000Y-96150000D02*
G75*
G02*
X158990000Y-96150000I100000J0D01*
G01*
D15*
%TO.C,IC1*%
X148055000Y-98280000D02*
G75*
G02*
X147805000Y-98280000I-125000J0D01*
G01*
X147805000Y-98280000D02*
G75*
G02*
X148055000Y-98280000I125000J0D01*
G01*
D16*
%TO.C,C2*%
X155740000Y-101107836D02*
X155740000Y-100892164D01*
X156460000Y-101107836D02*
X156460000Y-100892164D01*
%TO.C,C19*%
X152652836Y-90480000D02*
X152437164Y-90480000D01*
X152652836Y-91200000D02*
X152437164Y-91200000D01*
%TO.C,C8*%
X139852164Y-99940000D02*
X140067836Y-99940000D01*
X139852164Y-100660000D02*
X140067836Y-100660000D01*
%TO.C,C7*%
X146187836Y-104080000D02*
X145972164Y-104080000D01*
X146187836Y-104800000D02*
X145972164Y-104800000D01*
%TO.C,C17*%
X149260000Y-101412164D02*
X149260000Y-101627836D01*
X149980000Y-101412164D02*
X149980000Y-101627836D01*
D13*
%TO.C,U2*%
X154437500Y-106155000D02*
X154437500Y-105600000D01*
X154437500Y-108600000D02*
X154437500Y-108045000D01*
X154492500Y-105600000D02*
X154437500Y-105600000D01*
X154492500Y-108600000D02*
X154437500Y-108600000D01*
X156937500Y-105600000D02*
X156882500Y-105600000D01*
X156937500Y-106155000D02*
X156937500Y-105600000D01*
X156937500Y-108600000D02*
X156882500Y-108600000D01*
X156937500Y-108600000D02*
X156937500Y-108045000D01*
D17*
X154862500Y-105100000D02*
G75*
G02*
X154712500Y-105100000I-75000J0D01*
G01*
X154712500Y-105100000D02*
G75*
G02*
X154862500Y-105100000I75000J0D01*
G01*
D16*
%TO.C,R1*%
X155883641Y-97670000D02*
X155576359Y-97670000D01*
X155883641Y-98430000D02*
X155576359Y-98430000D01*
%TO.C,D1*%
X144827500Y-88765000D02*
X144827500Y-90235000D01*
X144827500Y-90235000D02*
X147112500Y-90235000D01*
X147112500Y-88765000D02*
X144827500Y-88765000D01*
%TO.C,C5*%
X159687836Y-94170000D02*
X159472164Y-94170000D01*
X159687836Y-94890000D02*
X159472164Y-94890000D01*
%TO.C,C11*%
X149062164Y-97710000D02*
X149277836Y-97710000D01*
X149062164Y-98430000D02*
X149277836Y-98430000D01*
%TO.C,C10*%
X139852160Y-98430000D02*
X140067832Y-98430000D01*
X139852160Y-99150000D02*
X140067832Y-99150000D01*
%TO.C,C4*%
X157377500Y-108850336D02*
X157377500Y-108634664D01*
X158097500Y-108850336D02*
X158097500Y-108634664D01*
D13*
%TO.C,D3*%
X134930000Y-99725000D02*
X134930000Y-98475000D01*
X137270000Y-99725000D02*
X137270000Y-98475000D01*
D14*
X135550000Y-96730000D02*
G75*
G02*
X135350000Y-96730000I-100000J0D01*
G01*
X135350000Y-96730000D02*
G75*
G02*
X135550000Y-96730000I100000J0D01*
G01*
D16*
%TO.C,R2*%
X141900000Y-104776359D02*
X141900000Y-105083641D01*
X142660000Y-104776359D02*
X142660000Y-105083641D01*
%TO.C,C15*%
X149260000Y-99647836D02*
X149260000Y-99432164D01*
X149980000Y-99647836D02*
X149980000Y-99432164D01*
D14*
%TO.C,L2*%
X151890000Y-100820000D02*
X151890000Y-102220000D01*
D16*
%TO.C,C18*%
X140067836Y-100990000D02*
X139852164Y-100990000D01*
X140067836Y-101710000D02*
X139852164Y-101710000D01*
%TO.C,BT1*%
X133755000Y-106760000D02*
X133755000Y-107562470D01*
X133755000Y-106760000D02*
X134960000Y-106760000D01*
X133755000Y-108177530D02*
X133755000Y-108980000D01*
X133755000Y-108980000D02*
X134960000Y-108980000D01*
X134960000Y-106760000D02*
X134960000Y-107306529D01*
X134960000Y-108433471D02*
X134960000Y-108980000D01*
X136480000Y-107870000D02*
X136480000Y-108980000D01*
X136480000Y-108980000D02*
X135720000Y-108980000D01*
D14*
%TO.C,IC2*%
X151425000Y-93000000D02*
X151425000Y-91800000D01*
X151575000Y-93350000D02*
X154475000Y-93350000D01*
X151575000Y-93950000D02*
X151575000Y-93350000D01*
X154475000Y-93350000D02*
X154475000Y-93950000D01*
X154475000Y-93950000D02*
X151575000Y-93950000D01*
D13*
%TO.C,D2*%
X134980000Y-104725000D02*
X134980000Y-103475000D01*
X137320000Y-104725000D02*
X137320000Y-103475000D01*
D14*
X135600000Y-101730000D02*
G75*
G02*
X135400000Y-101730000I-100000J0D01*
G01*
X135400000Y-101730000D02*
G75*
G02*
X135600000Y-101730000I100000J0D01*
G01*
%TO.C,L1*%
X150640000Y-98390000D02*
X152040000Y-98390000D01*
D16*
%TO.C,R3*%
X142950000Y-104776359D02*
X142950000Y-105083641D01*
X143710000Y-104776359D02*
X143710000Y-105083641D01*
D13*
%TO.C,J3*%
X135205000Y-89410000D02*
X135205000Y-87980000D01*
X135205000Y-91750000D02*
X135205000Y-93430000D01*
X144145000Y-87980000D02*
X135205000Y-87980000D01*
X144145000Y-89410000D02*
X144145000Y-87980000D01*
X144145000Y-91750000D02*
X144145000Y-93430000D01*
D14*
X136575000Y-96580000D02*
G75*
G02*
X136375000Y-96580000I-100000J0D01*
G01*
X136375000Y-96580000D02*
G75*
G02*
X136575000Y-96580000I100000J0D01*
G01*
D16*
%TO.C,C13*%
X150275000Y-94022164D02*
X150275000Y-94237836D01*
X150995000Y-94022164D02*
X150995000Y-94237836D01*
%TO.C,C3*%
X155622164Y-96630000D02*
X155837836Y-96630000D01*
X155622164Y-97350000D02*
X155837836Y-97350000D01*
%TO.C,C1*%
X159472164Y-95210000D02*
X159687836Y-95210000D01*
X159472164Y-95930000D02*
X159687836Y-95930000D01*
%TO.C,C6*%
X157377500Y-106014664D02*
X157377500Y-106230336D01*
X158097500Y-106014664D02*
X158097500Y-106230336D01*
%TO.C,C12*%
X151207836Y-102840000D02*
X150992164Y-102840000D01*
X151207836Y-103560000D02*
X150992164Y-103560000D01*
%TO.C,C9*%
X140087836Y-102660000D02*
X139872164Y-102660000D01*
X140087836Y-103380000D02*
X139872164Y-103380000D01*
%TD*%
M02*
