%TF.GenerationSoftware,KiCad,Pcbnew,8.0.2-1*%
%TF.CreationDate,2024-05-30T11:00:14+09:00*%
%TF.ProjectId,eeg,6565672e-6b69-4636-9164-5f7063625858,rev?*%
%TF.SameCoordinates,Original*%
%TF.FileFunction,Paste,Bot*%
%TF.FilePolarity,Positive*%
%FSLAX46Y46*%
G04 Gerber Fmt 4.6, Leading zero omitted, Abs format (unit mm)*
G04 Created by KiCad (PCBNEW 8.0.2-1) date 2024-05-30 11:00:14*
%MOMM*%
%LPD*%
G01*
G04 APERTURE LIST*
G04 Aperture macros list*
%AMRoundRect*
0 Rectangle with rounded corners*
0 $1 Rounding radius*
0 $2 $3 $4 $5 $6 $7 $8 $9 X,Y pos of 4 corners*
0 Add a 4 corners polygon primitive as box body*
4,1,4,$2,$3,$4,$5,$6,$7,$8,$9,$2,$3,0*
0 Add four circle primitives for the rounded corners*
1,1,$1+$1,$2,$3*
1,1,$1+$1,$4,$5*
1,1,$1+$1,$6,$7*
1,1,$1+$1,$8,$9*
0 Add four rect primitives between the rounded corners*
20,1,$1+$1,$2,$3,$4,$5,0*
20,1,$1+$1,$4,$5,$6,$7,0*
20,1,$1+$1,$6,$7,$8,$9,0*
20,1,$1+$1,$8,$9,$2,$3,0*%
G04 Aperture macros list end*
%ADD10R,0.889000X1.244600*%
%ADD11R,0.812800X0.939800*%
%ADD12R,0.600000X0.600000*%
%ADD13R,0.400000X0.400000*%
%ADD14R,0.800000X0.300000*%
%ADD15R,0.300000X0.800000*%
%ADD16R,3.600000X3.600000*%
%ADD17RoundRect,0.140000X-0.170000X0.140000X-0.170000X-0.140000X0.170000X-0.140000X0.170000X0.140000X0*%
%ADD18RoundRect,0.140000X-0.140000X-0.170000X0.140000X-0.170000X0.140000X0.170000X-0.140000X0.170000X0*%
%ADD19RoundRect,0.140000X0.140000X0.170000X-0.140000X0.170000X-0.140000X-0.170000X0.140000X-0.170000X0*%
%ADD20RoundRect,0.140000X0.170000X-0.140000X0.170000X0.140000X-0.170000X0.140000X-0.170000X-0.140000X0*%
%ADD21RoundRect,0.175000X0.175000X0.325000X-0.175000X0.325000X-0.175000X-0.325000X0.175000X-0.325000X0*%
%ADD22RoundRect,0.150000X0.200000X0.150000X-0.200000X0.150000X-0.200000X-0.150000X0.200000X-0.150000X0*%
%ADD23R,0.250000X0.475000*%
%ADD24R,0.475000X0.250000*%
%ADD25RoundRect,0.135000X-0.135000X-0.185000X0.135000X-0.185000X0.135000X0.185000X-0.135000X0.185000X0*%
%ADD26RoundRect,0.218750X-0.218750X-0.256250X0.218750X-0.256250X0.218750X0.256250X-0.218750X0.256250X0*%
%ADD27RoundRect,0.135000X0.185000X-0.135000X0.185000X0.135000X-0.185000X0.135000X-0.185000X-0.135000X0*%
%ADD28R,1.200000X1.800000*%
%ADD29R,0.600000X1.200000*%
%ADD30R,1.800000X1.200000*%
%ADD31R,0.600000X1.140000*%
%ADD32R,0.300000X1.140000*%
G04 APERTURE END LIST*
D10*
%TO.C,SW1*%
X144146500Y-107324820D03*
X141149300Y-107324820D03*
X139650700Y-107324820D03*
D11*
X145698440Y-108269700D03*
X138098760Y-108269700D03*
X145698440Y-110530300D03*
X138098760Y-110530300D03*
%TD*%
D12*
%TO.C,U1*%
X158890000Y-97300000D03*
D13*
X158790000Y-98050000D03*
X158790000Y-98700000D03*
X158790000Y-99350000D03*
X158790000Y-100000000D03*
X158790000Y-100649997D03*
X158790000Y-101300000D03*
X158790000Y-101950000D03*
X158790000Y-102600000D03*
X158790000Y-103250000D03*
D12*
X158890000Y-104000000D03*
D13*
X159440000Y-98050000D03*
X159440000Y-98700000D03*
X159440000Y-99350000D03*
X159440000Y-100000000D03*
X159440000Y-100650000D03*
X159440000Y-101300000D03*
X159440000Y-101950000D03*
X159440000Y-102600000D03*
X159440000Y-103250000D03*
X160090000Y-97400000D03*
X160090000Y-98050000D03*
X160090000Y-98700000D03*
X160090000Y-99350000D03*
X160090000Y-100000000D03*
X160090000Y-100650000D03*
X160090000Y-101300000D03*
X160090000Y-101950000D03*
X160090000Y-102600000D03*
X160090000Y-103250000D03*
X160090000Y-103900000D03*
X160740000Y-97400000D03*
X160740000Y-98050000D03*
X160740000Y-98700000D03*
X160740000Y-99350000D03*
X160740000Y-100000000D03*
X160740000Y-100650000D03*
X160740000Y-101300000D03*
X160740000Y-101950000D03*
X160740000Y-102600000D03*
X160740000Y-103250000D03*
X160740000Y-103900000D03*
X161390000Y-97400000D03*
X161390000Y-98050000D03*
X161390000Y-98700000D03*
X161390000Y-99350000D03*
X161390000Y-100000000D03*
X161390000Y-100650000D03*
X161390000Y-101300000D03*
X161390000Y-101950000D03*
X161390000Y-102600000D03*
X161390000Y-103250000D03*
X161390000Y-103900000D03*
X162040000Y-97400000D03*
X162040000Y-98050000D03*
X162040000Y-98700000D03*
X162040000Y-99350000D03*
X162040000Y-100000000D03*
X162040000Y-100650000D03*
X162040000Y-101300000D03*
X162040000Y-101950000D03*
X162040000Y-102600000D03*
X162040000Y-103250000D03*
X162040000Y-103900000D03*
X163340000Y-97400000D03*
X163340000Y-103900000D03*
X164640000Y-97400000D03*
X164640000Y-103900000D03*
D12*
X165590000Y-97300000D03*
D13*
X165690000Y-98700000D03*
X165690000Y-100000000D03*
X165690000Y-101300000D03*
X165690000Y-102600000D03*
D12*
X165590000Y-104000000D03*
%TD*%
D14*
%TO.C,IC1*%
X147530000Y-99030000D03*
X147530000Y-99530000D03*
X147530000Y-100030000D03*
X147530000Y-100530000D03*
X147530000Y-101030000D03*
X147530000Y-101530000D03*
X147530000Y-102030000D03*
X147530000Y-102530000D03*
D15*
X146830000Y-103230000D03*
X146330000Y-103230000D03*
X145830000Y-103230000D03*
X145330000Y-103230000D03*
X144830000Y-103230000D03*
X144330000Y-103230000D03*
X143830000Y-103230000D03*
X143330000Y-103230000D03*
D14*
X142630000Y-102530000D03*
X142630000Y-102030000D03*
X142630000Y-101530000D03*
X142630000Y-101030000D03*
X142630000Y-100530000D03*
X142630000Y-100030000D03*
X142630000Y-99530000D03*
X142630000Y-99030000D03*
D15*
X143330000Y-98330000D03*
X143830000Y-98330000D03*
X144330000Y-98330000D03*
X144830000Y-98330000D03*
X145330000Y-98330000D03*
X145830000Y-98330000D03*
X146330000Y-98330000D03*
X146830000Y-98330000D03*
D16*
X145080000Y-100780000D03*
%TD*%
D17*
%TO.C,C2*%
X156100000Y-100520000D03*
X156100000Y-101480000D03*
%TD*%
D18*
%TO.C,C14*%
X146240000Y-91920000D03*
X147200000Y-91920000D03*
%TD*%
%TO.C,C19*%
X152065000Y-90840000D03*
X153025000Y-90840000D03*
%TD*%
D19*
%TO.C,C8*%
X140440000Y-100300000D03*
X139480000Y-100300000D03*
%TD*%
D18*
%TO.C,C7*%
X145600000Y-104440000D03*
X146560000Y-104440000D03*
%TD*%
D20*
%TO.C,C17*%
X149620000Y-102000000D03*
X149620000Y-101040000D03*
%TD*%
D21*
%TO.C,D2*%
X150500000Y-89900000D03*
D22*
X150500000Y-91600000D03*
X148500000Y-91600000D03*
X148500000Y-89700000D03*
%TD*%
D23*
%TO.C,U2*%
X154937500Y-105937500D03*
X155437500Y-105937500D03*
X155937500Y-105937500D03*
X156437500Y-105937500D03*
D24*
X156600000Y-106600000D03*
X156600000Y-107100000D03*
X156600000Y-107600000D03*
D23*
X156437500Y-108262500D03*
X155937500Y-108262500D03*
X155437500Y-108262500D03*
X154937500Y-108262500D03*
D24*
X154775000Y-107600000D03*
X154775000Y-107100000D03*
X154775000Y-106600000D03*
%TD*%
D25*
%TO.C,R1*%
X155220000Y-98050000D03*
X156240000Y-98050000D03*
%TD*%
D26*
%TO.C,D1*%
X145525000Y-89500000D03*
X147100000Y-89500000D03*
%TD*%
D18*
%TO.C,C5*%
X159100000Y-94530000D03*
X160060000Y-94530000D03*
%TD*%
D19*
%TO.C,C11*%
X149650000Y-98070000D03*
X148690000Y-98070000D03*
%TD*%
%TO.C,C10*%
X140439996Y-98790000D03*
X139479996Y-98790000D03*
%TD*%
D18*
%TO.C,C16*%
X146240000Y-90820000D03*
X147200000Y-90820000D03*
%TD*%
D17*
%TO.C,C4*%
X157737500Y-108262500D03*
X157737500Y-109222500D03*
%TD*%
D27*
%TO.C,R2*%
X142280000Y-105440000D03*
X142280000Y-104420000D03*
%TD*%
D17*
%TO.C,C15*%
X149620000Y-99060000D03*
X149620000Y-100020000D03*
%TD*%
D28*
%TO.C,L2*%
X151040000Y-101520000D03*
X152740000Y-101520000D03*
%TD*%
D18*
%TO.C,C18*%
X139480000Y-101350000D03*
X140440000Y-101350000D03*
%TD*%
D29*
%TO.C,IC2*%
X152075000Y-92400000D03*
X153025000Y-92400000D03*
X153975000Y-92400000D03*
X153975000Y-94900000D03*
X153025000Y-94900000D03*
X152075000Y-94900000D03*
%TD*%
D30*
%TO.C,L1*%
X151340000Y-99240000D03*
X151340000Y-97540000D03*
%TD*%
D27*
%TO.C,R3*%
X143330000Y-105440000D03*
X143330000Y-104420000D03*
%TD*%
D31*
%TO.C,J3*%
X136475000Y-95330000D03*
X137275000Y-95330000D03*
D32*
X138425000Y-95330000D03*
X139425000Y-95330000D03*
X139925000Y-95330000D03*
X140925000Y-95330000D03*
D31*
X142875000Y-95330000D03*
X142075000Y-95330000D03*
D32*
X141425000Y-95330000D03*
X140425000Y-95330000D03*
X138925000Y-95330000D03*
X137925000Y-95330000D03*
%TD*%
D20*
%TO.C,C13*%
X150635000Y-94610000D03*
X150635000Y-93650000D03*
%TD*%
D19*
%TO.C,C3*%
X156210000Y-96990000D03*
X155250000Y-96990000D03*
%TD*%
%TO.C,C1*%
X160060000Y-95570000D03*
X159100000Y-95570000D03*
%TD*%
D20*
%TO.C,C6*%
X157737500Y-106602500D03*
X157737500Y-105642500D03*
%TD*%
D18*
%TO.C,C12*%
X150620000Y-103200000D03*
X151580000Y-103200000D03*
%TD*%
%TO.C,C9*%
X139500000Y-103020000D03*
X140460000Y-103020000D03*
%TD*%
M02*
