M48
; DRILL file {KiCad 8.0.2-1} date 2024-05-30T11:00:18+0900
; FORMAT={-:-/ absolute / metric / decimal}
; #@! TF.CreationDate,2024-05-30T11:00:18+09:00
; #@! TF.GenerationSoftware,Kicad,Pcbnew,8.0.2-1
; #@! TF.FileFunction,Plated,1,2,Blind
FMAT,2
METRIC
; #@! TA.AperFunction,Plated,Buried,ViaDrill
T1C0.200
%
G90
G05
T1
X137.653Y-105.01
X137.66Y-100.79
X139.195Y-94.25
X140.25Y-92.6
X140.25Y-94.25
X140.64Y-96.86
X143.2Y-101.96
X143.2Y-103.61
X143.2Y-104.66
X143.21Y-100.91
X143.25Y-98.76
X147.43Y-94.26
X148.12Y-108.22
X149.62Y-91.71
X150.0Y-95.51
X150.11Y-108.28
X151.53Y-91.37
X152.25Y-108.83
X154.42Y-92.66
X154.505Y-95.435
X155.78Y-103.75
X156.09Y-91.67
X156.16Y-99.61
M30
