%TF.GenerationSoftware,KiCad,Pcbnew,8.0.2-1*%
%TF.CreationDate,2024-06-13T15:22:41+09:00*%
%TF.ProjectId,eeg,6565672e-6b69-4636-9164-5f7063625858,rev?*%
%TF.SameCoordinates,Original*%
%TF.FileFunction,Other,User*%
%FSLAX46Y46*%
G04 Gerber Fmt 4.6, Leading zero omitted, Abs format (unit mm)*
G04 Created by KiCad (PCBNEW 8.0.2-1) date 2024-06-13 15:22:41*
%MOMM*%
%LPD*%
G01*
G04 APERTURE LIST*
%ADD10C,0.152400*%
%ADD11C,0.050000*%
G04 APERTURE END LIST*
D10*
%TO.C,SW1*%
X146358840Y-111254200D02*
X146358840Y-109806400D01*
X146358840Y-109806400D02*
X145454600Y-109806400D01*
X146358840Y-108993600D02*
X146358840Y-107545800D01*
X146358840Y-107545800D02*
X145038040Y-107545800D01*
X145454600Y-109806400D02*
X145454600Y-108993600D01*
X145454600Y-108993600D02*
X146358840Y-108993600D01*
X145038040Y-111254200D02*
X146358840Y-111254200D01*
X145038040Y-111000200D02*
X145038040Y-111254200D01*
X145038040Y-107799800D02*
X144845000Y-107799800D01*
X145038040Y-107545800D02*
X145038040Y-107799800D01*
X144845000Y-107799800D02*
X144845000Y-106448520D01*
X144845000Y-106448520D02*
X143448000Y-106448520D01*
X143549600Y-113006800D02*
X143549600Y-111000200D01*
X143549600Y-111000200D02*
X145038040Y-111000200D01*
X143448000Y-107799800D02*
X141847800Y-107799800D01*
X143448000Y-106448520D02*
X143448000Y-107799800D01*
X141847800Y-107799800D02*
X141847800Y-106448520D01*
X141847800Y-106448520D02*
X140450800Y-106448520D01*
X140450800Y-107799800D02*
X140349200Y-107799800D01*
X140450800Y-106448520D02*
X140450800Y-107799800D01*
X140349200Y-107799800D02*
X140349200Y-106448520D01*
X140349200Y-106448520D02*
X138952200Y-106448520D01*
X140247600Y-113006800D02*
X143549600Y-113006800D01*
X140247600Y-111000200D02*
X140247600Y-113006800D01*
X138952200Y-107799800D02*
X138759160Y-107799800D01*
X138952200Y-106448520D02*
X138952200Y-107799800D01*
X138759160Y-111254200D02*
X138759160Y-111000200D01*
X138759160Y-111000200D02*
X140247600Y-111000200D01*
X138759160Y-107799800D02*
X138759160Y-107545800D01*
X138759160Y-107545800D02*
X137438360Y-107545800D01*
X138342600Y-109806400D02*
X137438360Y-109806400D01*
X138342600Y-108993600D02*
X138342600Y-109806400D01*
X137438360Y-111254200D02*
X138759160Y-111254200D01*
X137438360Y-109806400D02*
X137438360Y-111254200D01*
X137438360Y-108993600D02*
X138342600Y-108993600D01*
X137438360Y-107545800D02*
X137438360Y-108993600D01*
D11*
%TO.C,U1*%
X167490000Y-109900000D02*
X167490000Y-91400000D01*
X167490000Y-91400000D02*
X161990000Y-91400000D01*
X161990000Y-109900000D02*
X167490000Y-109900000D01*
X161990000Y-104900000D02*
X161990000Y-109900000D01*
X161990000Y-104900000D02*
X157990000Y-104900000D01*
X161990000Y-91400000D02*
X161990000Y-96400000D01*
X157990000Y-104900000D02*
X157990000Y-96400000D01*
X157990000Y-96400000D02*
X161990000Y-96400000D01*
%TO.C,IC1*%
X148180000Y-103880000D02*
X141980000Y-103880000D01*
X148180000Y-97680000D02*
X148180000Y-103880000D01*
X141980000Y-103880000D02*
X141980000Y-97680000D01*
X141980000Y-97680000D02*
X148180000Y-97680000D01*
%TO.C,C2*%
X156560000Y-101910000D02*
X155640000Y-101910000D01*
X156560000Y-100090000D02*
X156560000Y-101910000D01*
X155640000Y-101910000D02*
X155640000Y-100090000D01*
X155640000Y-100090000D02*
X156560000Y-100090000D01*
%TO.C,C19*%
X153455000Y-91300000D02*
X151635000Y-91300000D01*
X153455000Y-90380000D02*
X153455000Y-91300000D01*
X151635000Y-91300000D02*
X151635000Y-90380000D01*
X151635000Y-90380000D02*
X153455000Y-90380000D01*
%TO.C,C8*%
X140870000Y-100760000D02*
X139050000Y-100760000D01*
X140870000Y-99840000D02*
X140870000Y-100760000D01*
X139050000Y-100760000D02*
X139050000Y-99840000D01*
X139050000Y-99840000D02*
X140870000Y-99840000D01*
%TO.C,C7*%
X146990000Y-104900000D02*
X145170000Y-104900000D01*
X146990000Y-103980000D02*
X146990000Y-104900000D01*
X145170000Y-104900000D02*
X145170000Y-103980000D01*
X145170000Y-103980000D02*
X146990000Y-103980000D01*
%TO.C,C17*%
X150080000Y-102430000D02*
X149160000Y-102430000D01*
X150080000Y-100610000D02*
X150080000Y-102430000D01*
X149160000Y-102430000D02*
X149160000Y-100610000D01*
X149160000Y-100610000D02*
X150080000Y-100610000D01*
%TO.C,U2*%
X157187500Y-108850000D02*
X154187500Y-108850000D01*
X157187500Y-105350000D02*
X157187500Y-108850000D01*
X154187500Y-108850000D02*
X154187500Y-105350000D01*
X154187500Y-105350000D02*
X157187500Y-105350000D01*
%TO.C,R1*%
X156660000Y-98520000D02*
X154800000Y-98520000D01*
X156660000Y-97580000D02*
X156660000Y-98520000D01*
X154800000Y-98520000D02*
X154800000Y-97580000D01*
X154800000Y-97580000D02*
X156660000Y-97580000D01*
%TO.C,D1*%
X147792500Y-90230000D02*
X144832500Y-90230000D01*
X147792500Y-88770000D02*
X147792500Y-90230000D01*
X144832500Y-90230000D02*
X144832500Y-88770000D01*
X144832500Y-88770000D02*
X147792500Y-88770000D01*
%TO.C,C5*%
X160490000Y-94990000D02*
X158670000Y-94990000D01*
X160490000Y-94070000D02*
X160490000Y-94990000D01*
X158670000Y-94990000D02*
X158670000Y-94070000D01*
X158670000Y-94070000D02*
X160490000Y-94070000D01*
%TO.C,C11*%
X150080000Y-98530000D02*
X148260000Y-98530000D01*
X150080000Y-97610000D02*
X150080000Y-98530000D01*
X148260000Y-98530000D02*
X148260000Y-97610000D01*
X148260000Y-97610000D02*
X150080000Y-97610000D01*
%TO.C,C10*%
X140869996Y-99250000D02*
X139049996Y-99250000D01*
X140869996Y-98330000D02*
X140869996Y-99250000D01*
X139049996Y-99250000D02*
X139049996Y-98330000D01*
X139049996Y-98330000D02*
X140869996Y-98330000D01*
%TO.C,C4*%
X158197500Y-109652500D02*
X157277500Y-109652500D01*
X158197500Y-107832500D02*
X158197500Y-109652500D01*
X157277500Y-109652500D02*
X157277500Y-107832500D01*
X157277500Y-107832500D02*
X158197500Y-107832500D01*
%TO.C,D3*%
X137350000Y-100900000D02*
X137350000Y-97300000D01*
X137350000Y-97300000D02*
X134850000Y-97300000D01*
X134850000Y-100900000D02*
X137350000Y-100900000D01*
X134850000Y-97300000D02*
X134850000Y-100900000D01*
%TO.C,R2*%
X142750000Y-105860000D02*
X141810000Y-105860000D01*
X142750000Y-104000000D02*
X142750000Y-105860000D01*
X141810000Y-105860000D02*
X141810000Y-104000000D01*
X141810000Y-104000000D02*
X142750000Y-104000000D01*
%TO.C,C15*%
X150080000Y-100450000D02*
X149160000Y-100450000D01*
X150080000Y-98630000D02*
X150080000Y-100450000D01*
X149160000Y-100450000D02*
X149160000Y-98630000D01*
X149160000Y-98630000D02*
X150080000Y-98630000D01*
%TO.C,L2*%
X153590000Y-102670000D02*
X150190000Y-102670000D01*
X153590000Y-100370000D02*
X153590000Y-102670000D01*
X150190000Y-102670000D02*
X150190000Y-100370000D01*
X150190000Y-100370000D02*
X153590000Y-100370000D01*
%TO.C,C18*%
X140870000Y-101810000D02*
X139050000Y-101810000D01*
X140870000Y-100890000D02*
X140870000Y-101810000D01*
X139050000Y-101810000D02*
X139050000Y-100890000D01*
X139050000Y-100890000D02*
X140870000Y-100890000D01*
%TO.C,BT1*%
X136870000Y-109420000D02*
X136870000Y-106320000D01*
X136870000Y-106320000D02*
X133270000Y-106320000D01*
X133270000Y-109420000D02*
X136870000Y-109420000D01*
X133270000Y-106320000D02*
X133270000Y-109420000D01*
%TO.C,IC2*%
X154800000Y-95750000D02*
X151250000Y-95750000D01*
X154800000Y-91550000D02*
X154800000Y-95750000D01*
X151250000Y-95750000D02*
X151250000Y-91550000D01*
X151250000Y-91550000D02*
X154800000Y-91550000D01*
%TO.C,D2*%
X137400000Y-105900000D02*
X137400000Y-102300000D01*
X137400000Y-102300000D02*
X134900000Y-102300000D01*
X134900000Y-105900000D02*
X137400000Y-105900000D01*
X134900000Y-102300000D02*
X134900000Y-105900000D01*
%TO.C,L1*%
X152490000Y-100090000D02*
X150190000Y-100090000D01*
X152490000Y-96690000D02*
X152490000Y-100090000D01*
X150190000Y-100090000D02*
X150190000Y-96690000D01*
X150190000Y-96690000D02*
X152490000Y-96690000D01*
%TO.C,R3*%
X143800000Y-105860000D02*
X142860000Y-105860000D01*
X143800000Y-104000000D02*
X143800000Y-105860000D01*
X142860000Y-105860000D02*
X142860000Y-104000000D01*
X142860000Y-104000000D02*
X143800000Y-104000000D01*
%TO.C,J3*%
X144700000Y-96150000D02*
X144700000Y-87730000D01*
X144700000Y-87730000D02*
X134650000Y-87730000D01*
X134650000Y-96150000D02*
X144700000Y-96150000D01*
X134650000Y-87730000D02*
X134650000Y-96150000D01*
%TO.C,C13*%
X151095000Y-95040000D02*
X150175000Y-95040000D01*
X151095000Y-93220000D02*
X151095000Y-95040000D01*
X150175000Y-95040000D02*
X150175000Y-93220000D01*
X150175000Y-93220000D02*
X151095000Y-93220000D01*
%TO.C,C3*%
X156640000Y-97450000D02*
X154820000Y-97450000D01*
X156640000Y-96530000D02*
X156640000Y-97450000D01*
X154820000Y-97450000D02*
X154820000Y-96530000D01*
X154820000Y-96530000D02*
X156640000Y-96530000D01*
%TO.C,C1*%
X160490000Y-96030000D02*
X158670000Y-96030000D01*
X160490000Y-95110000D02*
X160490000Y-96030000D01*
X158670000Y-96030000D02*
X158670000Y-95110000D01*
X158670000Y-95110000D02*
X160490000Y-95110000D01*
%TO.C,C6*%
X158197500Y-107032500D02*
X157277500Y-107032500D01*
X158197500Y-105212500D02*
X158197500Y-107032500D01*
X157277500Y-107032500D02*
X157277500Y-105212500D01*
X157277500Y-105212500D02*
X158197500Y-105212500D01*
%TO.C,C12*%
X152010000Y-103660000D02*
X150190000Y-103660000D01*
X152010000Y-102740000D02*
X152010000Y-103660000D01*
X150190000Y-103660000D02*
X150190000Y-102740000D01*
X150190000Y-102740000D02*
X152010000Y-102740000D01*
%TO.C,C9*%
X140890000Y-103480000D02*
X139070000Y-103480000D01*
X140890000Y-102560000D02*
X140890000Y-103480000D01*
X139070000Y-103480000D02*
X139070000Y-102560000D01*
X139070000Y-102560000D02*
X140890000Y-102560000D01*
%TD*%
M02*
