%TF.GenerationSoftware,KiCad,Pcbnew,8.0.2-1*%
%TF.CreationDate,2024-06-20T09:38:11+09:00*%
%TF.ProjectId,eeg,6565672e-6b69-4636-9164-5f7063625858,rev?*%
%TF.SameCoordinates,Original*%
%TF.FileFunction,Copper,L4,Inr*%
%TF.FilePolarity,Positive*%
%FSLAX46Y46*%
G04 Gerber Fmt 4.6, Leading zero omitted, Abs format (unit mm)*
G04 Created by KiCad (PCBNEW 8.0.2-1) date 2024-06-20 09:38:11*
%MOMM*%
%LPD*%
G01*
G04 APERTURE LIST*
%TA.AperFunction,ComponentPad*%
%ADD10R,1.700000X1.700000*%
%TD*%
%TA.AperFunction,ComponentPad*%
%ADD11O,1.700000X1.700000*%
%TD*%
%TA.AperFunction,ComponentPad*%
%ADD12R,1.000000X1.000000*%
%TD*%
%TA.AperFunction,ComponentPad*%
%ADD13O,1.000000X1.000000*%
%TD*%
%TA.AperFunction,ComponentPad*%
%ADD14O,0.900000X2.000000*%
%TD*%
%TA.AperFunction,ComponentPad*%
%ADD15O,0.900000X1.700000*%
%TD*%
%TA.AperFunction,ViaPad*%
%ADD16C,0.400000*%
%TD*%
%TA.AperFunction,ViaPad*%
%ADD17C,0.450000*%
%TD*%
%TA.AperFunction,Conductor*%
%ADD18C,0.250000*%
%TD*%
%TA.AperFunction,Conductor*%
%ADD19C,0.150000*%
%TD*%
G04 APERTURE END LIST*
D10*
%TO.N,/DVDD*%
%TO.C,J2*%
X156300000Y-112600000D03*
D11*
%TO.N,/SWDIO*%
X158840000Y-112600000D03*
%TO.N,/SWDCLK*%
X161380000Y-112600000D03*
%TO.N,GND*%
X163920000Y-112600000D03*
%TD*%
D10*
%TO.N,/UART_RX*%
%TO.C,J1*%
X160175000Y-90300000D03*
D11*
%TO.N,/UART_TX*%
X162715000Y-90300000D03*
%TO.N,GND*%
X165255000Y-90300000D03*
%TD*%
D10*
%TO.N,/ads1299/1P*%
%TO.C,J4*%
X131100000Y-106950000D03*
D11*
%TO.N,/ads1299/2P*%
X131100000Y-104410000D03*
%TO.N,/ads1299/3P*%
X131100000Y-101870000D03*
%TO.N,/ads1299/4P*%
X131100000Y-99330000D03*
%TO.N,/ads1299/REF*%
X131100000Y-96790000D03*
%TO.N,/ads1299/BIAS*%
X131100000Y-94250000D03*
%TD*%
D12*
%TO.N,Net-(BT1-+)*%
%TO.C,BT1*%
X135720000Y-107870000D03*
D13*
%TO.N,GND*%
X134450000Y-107870000D03*
%TD*%
D14*
%TO.N,unconnected-(J3-SHIELD-PadS1)_0*%
%TO.C,J3*%
X135350000Y-94750000D03*
%TO.N,unconnected-(J3-SHIELD-PadS1)_2*%
X144000000Y-94750000D03*
D15*
%TO.N,unconnected-(J3-SHIELD-PadS1)*%
X135350000Y-90580000D03*
%TO.N,unconnected-(J3-SHIELD-PadS1)_1*%
X144000000Y-90580000D03*
%TD*%
D16*
%TO.N,VSSA*%
X146490000Y-109600000D03*
X149400000Y-110200000D03*
X149620000Y-91710000D03*
X152635696Y-90342662D03*
X154400000Y-90200000D03*
X140480000Y-93290000D03*
%TO.N,/DVDD*%
X152740000Y-101520000D03*
X147379996Y-98330000D03*
X157280000Y-91800000D03*
X159100000Y-94530000D03*
X145600000Y-104440000D03*
X158725000Y-109400000D03*
X156100000Y-100520000D03*
X157737500Y-108262500D03*
X157737500Y-106602500D03*
X156320000Y-102250000D03*
X159200000Y-93680000D03*
%TO.N,/USB-C/VBUS_IN*%
X142075000Y-95330000D03*
X137275000Y-95330000D03*
%TO.N,/nrf5340/VBUS_OUT*%
X140439996Y-98790000D03*
X152800000Y-98696802D03*
%TO.N,/AVDD*%
X153867724Y-90704383D03*
D17*
X153400000Y-97400000D03*
X149620000Y-92670000D03*
X154200000Y-97400000D03*
D16*
X147720000Y-109800000D03*
X139030000Y-93290000D03*
X145600000Y-107200000D03*
%TO.N,/power/CHG*%
X145525000Y-89500000D03*
X145520000Y-94890000D03*
%TO.N,/nrf5340/SDA*%
X151164124Y-104564124D03*
X159440000Y-103250000D03*
%TO.N,/power/PVDD*%
X149610000Y-101040000D03*
X149620000Y-100020000D03*
X147100000Y-89500000D03*
X149220000Y-96500000D03*
X140440000Y-101350000D03*
%TO.N,GND*%
X144400000Y-99400000D03*
X137520000Y-104400000D03*
X148000000Y-97000000D03*
X146560000Y-104440000D03*
X147430000Y-94260000D03*
X148600000Y-99060000D03*
X136700000Y-103800000D03*
X157737500Y-109222500D03*
X157200000Y-107600000D03*
X143800000Y-101400000D03*
X156160000Y-99610000D03*
X162040000Y-97400000D03*
X162040000Y-103900000D03*
X140100000Y-105200000D03*
X136475000Y-95330000D03*
X150000000Y-95510000D03*
X161390000Y-101300000D03*
X158890000Y-97300000D03*
X159200000Y-92720000D03*
X156320000Y-91800000D03*
X149000000Y-104000000D03*
X143330000Y-105440000D03*
X149650000Y-98070000D03*
X162300000Y-110000000D03*
X142875000Y-95330000D03*
X155000000Y-103750000D03*
X157739105Y-105644188D03*
X156100000Y-101480000D03*
X139030000Y-94250000D03*
X158400000Y-105000000D03*
X151800000Y-90200000D03*
X139608218Y-96298620D03*
X162040000Y-102600000D03*
X139479996Y-98790000D03*
X139480000Y-101350000D03*
X137500000Y-100800000D03*
X140480000Y-94250000D03*
X162040000Y-100650000D03*
X155591825Y-96335282D03*
X160060000Y-94530000D03*
X136800000Y-99200000D03*
X165000000Y-110000000D03*
%TO.N,/nrf5340/BMI270_CS*%
X154567628Y-108884698D03*
X161390000Y-103250000D03*
%TO.N,/ads1299/SCK*%
X154405823Y-104600498D03*
X160090000Y-100000000D03*
%TO.N,/ads1299/MISO*%
X160090000Y-98060000D03*
X156147102Y-104324650D03*
%TO.N,/ads1299/~{DRDY}*%
X161390000Y-98700000D03*
%TO.N,/ads1299/MOSI*%
X158790000Y-103250000D03*
%TO.N,/ads1299/~{ADS1299_CS}*%
X160740000Y-101300000D03*
%TO.N,/ads1299/START*%
X159440000Y-102600000D03*
%TO.N,/BMI270_INT1*%
X162040000Y-98700000D03*
X157400000Y-104400000D03*
%TD*%
D18*
%TO.N,VSSA*%
X154400000Y-90200000D02*
X154379383Y-90179383D01*
%TO.N,/nrf5340/VBUS_OUT*%
X152800000Y-98696802D02*
X148986802Y-98696802D01*
X141810000Y-98790000D02*
X142800000Y-97800000D01*
X140439996Y-98790000D02*
X141810000Y-98790000D01*
X148090000Y-97800000D02*
X142800000Y-97800000D01*
X148986802Y-98696802D02*
X148090000Y-97800000D01*
%TO.N,/AVDD*%
X147720000Y-109800000D02*
X147600000Y-109680000D01*
D19*
%TO.N,/power/CHG*%
X145525000Y-89500000D02*
X145525000Y-94885000D01*
X145525000Y-94885000D02*
X145520000Y-94890000D01*
%TO.N,/nrf5340/SDA*%
X159440000Y-103271752D02*
X159440000Y-103250000D01*
X151164124Y-104564124D02*
X151900000Y-105300000D01*
X157411752Y-105300000D02*
X159440000Y-103271752D01*
X151900000Y-105300000D02*
X157411752Y-105300000D01*
%TO.N,/power/PVDD*%
X147100000Y-89500000D02*
X147100000Y-90871752D01*
X147100000Y-90871752D02*
X149220000Y-92991752D01*
X149220000Y-92991752D02*
X149220000Y-96500000D01*
D18*
X149630000Y-100000000D02*
X149615000Y-99985000D01*
D19*
%TO.N,/nrf5340/BMI270_CS*%
X161390000Y-103250000D02*
X160821752Y-103250000D01*
X160821752Y-103250000D02*
X157952564Y-106119188D01*
X157952564Y-106119188D02*
X157333138Y-106119188D01*
X157333138Y-106119188D02*
X154567628Y-108884698D01*
%TO.N,/ads1299/SCK*%
X156925000Y-104443504D02*
X156925000Y-103275000D01*
X156568854Y-104799650D02*
X156925000Y-104443504D01*
X154604975Y-104799650D02*
X156568854Y-104799650D01*
X156925000Y-103275000D02*
X160090000Y-100110000D01*
X154405823Y-104600498D02*
X154604975Y-104799650D01*
X160090000Y-100110000D02*
X160090000Y-100000000D01*
%TO.N,/ads1299/MISO*%
X159265000Y-100371637D02*
X159265000Y-98885000D01*
X156147102Y-104324650D02*
X156147102Y-103489535D01*
X159265000Y-98885000D02*
X160090000Y-98060000D01*
X156147102Y-103489535D02*
X159265000Y-100371637D01*
%TO.N,/BMI270_INT1*%
X162040000Y-99328248D02*
X162040000Y-98700000D01*
X157400000Y-104400000D02*
X157400000Y-103968248D01*
X157400000Y-103968248D02*
X162040000Y-99328248D01*
%TD*%
%TA.AperFunction,Conductor*%
%TO.N,/USB-C/VBUS_IN*%
G36*
X142325500Y-94919962D02*
G01*
X142380038Y-94974500D01*
X142400000Y-95049000D01*
X142400000Y-95132871D01*
X142390482Y-95176625D01*
X142392837Y-95177317D01*
X142389834Y-95187542D01*
X142369353Y-95329996D01*
X142369353Y-95330004D01*
X142389833Y-95472454D01*
X142392836Y-95482677D01*
X142390479Y-95483369D01*
X142400000Y-95527127D01*
X142400000Y-97536534D01*
X142380038Y-97611034D01*
X142356359Y-97641893D01*
X142241893Y-97756359D01*
X142175098Y-97794923D01*
X142136534Y-97800000D01*
X137049000Y-97800000D01*
X136974500Y-97780038D01*
X136919962Y-97725500D01*
X136900000Y-97651000D01*
X136900000Y-96298616D01*
X139102571Y-96298616D01*
X139102571Y-96298623D01*
X139123052Y-96441074D01*
X139123052Y-96441075D01*
X139123053Y-96441077D01*
X139182841Y-96571993D01*
X139277090Y-96680763D01*
X139398165Y-96758573D01*
X139536257Y-96799120D01*
X139536259Y-96799120D01*
X139680177Y-96799120D01*
X139680179Y-96799120D01*
X139818271Y-96758573D01*
X139939346Y-96680763D01*
X140033595Y-96571993D01*
X140093383Y-96441077D01*
X140113865Y-96298620D01*
X140113865Y-96298616D01*
X140093383Y-96156165D01*
X140093383Y-96156163D01*
X140033595Y-96025247D01*
X139939346Y-95916477D01*
X139939345Y-95916476D01*
X139905683Y-95894843D01*
X139818271Y-95838667D01*
X139818268Y-95838666D01*
X139680185Y-95798121D01*
X139680180Y-95798120D01*
X139680179Y-95798120D01*
X139536257Y-95798120D01*
X139536255Y-95798120D01*
X139536250Y-95798121D01*
X139398167Y-95838666D01*
X139277090Y-95916476D01*
X139277088Y-95916479D01*
X139182840Y-96025248D01*
X139123052Y-96156165D01*
X139102571Y-96298616D01*
X136900000Y-96298616D01*
X136900000Y-95636612D01*
X136913465Y-95574714D01*
X136960165Y-95472457D01*
X136970406Y-95401228D01*
X136980647Y-95330003D01*
X136980647Y-95329996D01*
X136960165Y-95187543D01*
X136925162Y-95110897D01*
X136912372Y-95034837D01*
X136939325Y-94962572D01*
X136998800Y-94913465D01*
X137060697Y-94900000D01*
X142251000Y-94900000D01*
X142325500Y-94919962D01*
G37*
%TD.AperFunction*%
%TD*%
%TA.AperFunction,Conductor*%
%TO.N,/power/PVDD*%
G36*
X148339131Y-99714204D02*
G01*
X148349575Y-99719685D01*
X148349775Y-99719790D01*
X148514944Y-99760500D01*
X148685056Y-99760500D01*
X148850225Y-99719790D01*
X148855620Y-99716958D01*
X148860869Y-99714204D01*
X148918495Y-99700000D01*
X149926000Y-99700000D01*
X149993039Y-99719685D01*
X150038794Y-99772489D01*
X150050000Y-99824000D01*
X150050000Y-103576000D01*
X150030315Y-103643039D01*
X149977511Y-103688794D01*
X149926000Y-103700000D01*
X149709177Y-103700000D01*
X149642138Y-103680315D01*
X149607127Y-103646441D01*
X149604779Y-103643039D01*
X149528183Y-103532071D01*
X149400852Y-103419266D01*
X149400849Y-103419263D01*
X149250226Y-103340210D01*
X149085056Y-103299500D01*
X148914944Y-103299500D01*
X148749773Y-103340210D01*
X148599150Y-103419263D01*
X148471818Y-103532070D01*
X148471817Y-103532071D01*
X148405940Y-103627511D01*
X148392873Y-103646441D01*
X148338590Y-103690431D01*
X148290823Y-103700000D01*
X139574000Y-103700000D01*
X139506961Y-103680315D01*
X139461206Y-103627511D01*
X139450000Y-103576000D01*
X139450000Y-102174324D01*
X139469685Y-102107285D01*
X139522489Y-102061530D01*
X139559061Y-102051227D01*
X139565051Y-102050500D01*
X139565056Y-102050500D01*
X139730225Y-102009790D01*
X139809692Y-101968081D01*
X139880849Y-101930736D01*
X139880850Y-101930734D01*
X139880852Y-101930734D01*
X140008183Y-101817929D01*
X140104818Y-101677930D01*
X140165140Y-101518872D01*
X140185645Y-101350000D01*
X140165140Y-101181128D01*
X140104818Y-101022070D01*
X140104817Y-101022068D01*
X140104816Y-101022066D01*
X140085747Y-100994441D01*
X140063863Y-100928087D01*
X140081328Y-100860435D01*
X140132595Y-100812965D01*
X140187796Y-100800000D01*
X141826000Y-100800000D01*
X141893039Y-100819685D01*
X141938794Y-100872489D01*
X141950000Y-100924000D01*
X141950000Y-102700000D01*
X148150000Y-102700000D01*
X148150000Y-99824000D01*
X148169685Y-99756961D01*
X148222489Y-99711206D01*
X148274000Y-99700000D01*
X148281505Y-99700000D01*
X148339131Y-99714204D01*
G37*
%TD.AperFunction*%
%TD*%
%TA.AperFunction,Conductor*%
%TO.N,/AVDD*%
G36*
X154525500Y-94119962D02*
G01*
X154580038Y-94174500D01*
X154600000Y-94249000D01*
X154600000Y-98151000D01*
X154580038Y-98225500D01*
X154525500Y-98280038D01*
X154451000Y-98300000D01*
X153152068Y-98300000D01*
X153077568Y-98280038D01*
X153071513Y-98276347D01*
X153063400Y-98271133D01*
X153010053Y-98236849D01*
X153010050Y-98236848D01*
X152871967Y-98196303D01*
X152871962Y-98196302D01*
X152871961Y-98196302D01*
X152728039Y-98196302D01*
X152728037Y-98196302D01*
X152728032Y-98196303D01*
X152589949Y-98236847D01*
X152579695Y-98243437D01*
X152573139Y-98247650D01*
X152499675Y-98271133D01*
X152492587Y-98271302D01*
X150349000Y-98271302D01*
X150274500Y-98251340D01*
X150219962Y-98196802D01*
X150200000Y-98122302D01*
X150200000Y-96057773D01*
X150219962Y-95983273D01*
X150268442Y-95932428D01*
X150331128Y-95892143D01*
X150425377Y-95783373D01*
X150485165Y-95652457D01*
X150505647Y-95510000D01*
X150505647Y-95509996D01*
X150485165Y-95367545D01*
X150485165Y-95367543D01*
X150425377Y-95236627D01*
X150331128Y-95127857D01*
X150331125Y-95127855D01*
X150268444Y-95087572D01*
X150216563Y-95030501D01*
X150200000Y-94962226D01*
X150200000Y-94349000D01*
X150219962Y-94274500D01*
X150274500Y-94219962D01*
X150349000Y-94200000D01*
X152600000Y-94200000D01*
X152617934Y-94182065D01*
X152619962Y-94174500D01*
X152674500Y-94119962D01*
X152749000Y-94100000D01*
X154451000Y-94100000D01*
X154525500Y-94119962D01*
G37*
%TD.AperFunction*%
%TD*%
%TA.AperFunction,Conductor*%
%TO.N,/DVDD*%
G36*
X145091513Y-89019685D02*
G01*
X145137268Y-89072489D01*
X145147212Y-89141647D01*
X145118187Y-89205202D01*
X145099625Y-89226622D01*
X145099622Y-89226628D01*
X145039834Y-89357543D01*
X145019353Y-89500000D01*
X145039834Y-89642456D01*
X145065886Y-89699500D01*
X145099623Y-89773373D01*
X145119212Y-89795980D01*
X145148238Y-89859534D01*
X145149500Y-89877183D01*
X145149500Y-94507045D01*
X145129815Y-94574084D01*
X145119214Y-94588247D01*
X145094623Y-94616626D01*
X145094622Y-94616628D01*
X145034834Y-94747543D01*
X145014353Y-94890000D01*
X145034834Y-95032456D01*
X145078403Y-95127857D01*
X145094623Y-95163373D01*
X145188872Y-95272143D01*
X145309947Y-95349953D01*
X145309950Y-95349954D01*
X145309949Y-95349954D01*
X145448036Y-95390499D01*
X145448038Y-95390500D01*
X145448039Y-95390500D01*
X145591962Y-95390500D01*
X145591962Y-95390499D01*
X145730053Y-95349953D01*
X145851128Y-95272143D01*
X145945377Y-95163373D01*
X146005165Y-95032457D01*
X146025647Y-94890000D01*
X146005165Y-94747543D01*
X145968561Y-94667392D01*
X145945378Y-94616629D01*
X145945377Y-94616628D01*
X145945377Y-94616627D01*
X145930785Y-94599786D01*
X145901762Y-94536229D01*
X145900500Y-94518586D01*
X145900500Y-94260000D01*
X146924353Y-94260000D01*
X146944834Y-94402456D01*
X147004622Y-94533371D01*
X147004623Y-94533373D01*
X147098872Y-94642143D01*
X147219947Y-94719953D01*
X147219950Y-94719954D01*
X147219949Y-94719954D01*
X147358036Y-94760499D01*
X147358038Y-94760500D01*
X147358039Y-94760500D01*
X147501962Y-94760500D01*
X147501962Y-94760499D01*
X147640053Y-94719953D01*
X147761128Y-94642143D01*
X147855377Y-94533373D01*
X147915165Y-94402457D01*
X147935647Y-94260000D01*
X147915165Y-94117543D01*
X147855377Y-93986627D01*
X147761128Y-93877857D01*
X147640053Y-93800047D01*
X147640051Y-93800046D01*
X147640049Y-93800045D01*
X147640050Y-93800045D01*
X147501963Y-93759500D01*
X147501961Y-93759500D01*
X147358039Y-93759500D01*
X147358036Y-93759500D01*
X147219949Y-93800045D01*
X147098873Y-93877856D01*
X147004623Y-93986626D01*
X147004622Y-93986628D01*
X146944834Y-94117543D01*
X146924353Y-94260000D01*
X145900500Y-94260000D01*
X145900500Y-89877183D01*
X145920185Y-89810144D01*
X145930783Y-89795985D01*
X145950377Y-89773373D01*
X146010165Y-89642457D01*
X146030647Y-89500000D01*
X146010165Y-89357543D01*
X145950377Y-89226627D01*
X145950375Y-89226625D01*
X145950374Y-89226622D01*
X145931813Y-89205202D01*
X145902788Y-89141647D01*
X145912732Y-89072488D01*
X145958487Y-89019684D01*
X146025526Y-89000000D01*
X146599474Y-89000000D01*
X146666513Y-89019685D01*
X146712268Y-89072489D01*
X146722212Y-89141647D01*
X146693187Y-89205202D01*
X146674625Y-89226622D01*
X146674622Y-89226628D01*
X146614834Y-89357543D01*
X146594353Y-89500000D01*
X146614834Y-89642456D01*
X146640886Y-89699500D01*
X146674623Y-89773373D01*
X146694212Y-89795980D01*
X146723238Y-89859534D01*
X146724500Y-89877183D01*
X146724500Y-90921187D01*
X146739658Y-90977756D01*
X146750091Y-91016693D01*
X146798473Y-91100493D01*
X146799519Y-91102305D01*
X146799523Y-91102311D01*
X146799526Y-91102315D01*
X146799529Y-91102318D01*
X148808181Y-93110970D01*
X148841666Y-93172293D01*
X148844500Y-93198651D01*
X148844500Y-96122815D01*
X148824815Y-96189854D01*
X148814215Y-96204016D01*
X148794623Y-96226627D01*
X148794622Y-96226628D01*
X148734834Y-96357543D01*
X148714353Y-96500000D01*
X148734834Y-96642456D01*
X148773275Y-96726628D01*
X148794623Y-96773373D01*
X148888872Y-96882143D01*
X149009947Y-96959953D01*
X149009950Y-96959954D01*
X149009949Y-96959954D01*
X149117107Y-96991417D01*
X149146336Y-97000000D01*
X149148036Y-97000499D01*
X149148038Y-97000500D01*
X149148039Y-97000500D01*
X149291962Y-97000500D01*
X149291962Y-97000499D01*
X149430053Y-96959953D01*
X149551128Y-96882143D01*
X149645377Y-96773373D01*
X149657706Y-96746375D01*
X149703460Y-96693573D01*
X149770499Y-96673888D01*
X149837539Y-96693572D01*
X149883294Y-96746376D01*
X149894500Y-96797888D01*
X149894500Y-97454517D01*
X149874815Y-97521556D01*
X149822011Y-97567311D01*
X149752853Y-97577255D01*
X149735569Y-97573495D01*
X149721961Y-97569500D01*
X149578039Y-97569500D01*
X149578036Y-97569500D01*
X149439949Y-97610045D01*
X149318873Y-97687856D01*
X149224623Y-97796626D01*
X149224622Y-97796628D01*
X149164834Y-97927543D01*
X149156652Y-97984452D01*
X149127626Y-98048008D01*
X149068847Y-98085782D01*
X148998978Y-98085781D01*
X148946233Y-98054485D01*
X148386190Y-97494442D01*
X148352705Y-97433119D01*
X148357689Y-97363427D01*
X148380156Y-97325560D01*
X148425377Y-97273373D01*
X148485165Y-97142457D01*
X148505647Y-97000000D01*
X148485165Y-96857543D01*
X148425377Y-96726627D01*
X148331128Y-96617857D01*
X148210053Y-96540047D01*
X148210051Y-96540046D01*
X148210049Y-96540045D01*
X148210050Y-96540045D01*
X148071963Y-96499500D01*
X148071961Y-96499500D01*
X147928039Y-96499500D01*
X147928036Y-96499500D01*
X147789949Y-96540045D01*
X147668873Y-96617856D01*
X147574623Y-96726626D01*
X147574622Y-96726628D01*
X147514834Y-96857543D01*
X147494353Y-97000000D01*
X147514834Y-97142456D01*
X147540652Y-97198988D01*
X147550596Y-97268147D01*
X147521571Y-97331703D01*
X147462793Y-97369477D01*
X147427858Y-97374500D01*
X142829500Y-97374500D01*
X142762461Y-97354815D01*
X142716706Y-97302011D01*
X142705500Y-97250500D01*
X142705500Y-95954500D01*
X142725185Y-95887461D01*
X142777989Y-95841706D01*
X142829500Y-95830500D01*
X142946962Y-95830500D01*
X142946962Y-95830499D01*
X143085053Y-95789953D01*
X143206128Y-95712143D01*
X143261640Y-95648077D01*
X143320417Y-95610303D01*
X143390287Y-95610303D01*
X143449065Y-95648077D01*
X143458455Y-95660389D01*
X143494723Y-95714669D01*
X143585327Y-95805273D01*
X143585331Y-95805276D01*
X143691866Y-95876461D01*
X143691872Y-95876464D01*
X143691873Y-95876465D01*
X143810256Y-95925501D01*
X143810260Y-95925501D01*
X143810261Y-95925502D01*
X143935928Y-95950500D01*
X143935931Y-95950500D01*
X144064071Y-95950500D01*
X144148615Y-95933682D01*
X144189744Y-95925501D01*
X144308127Y-95876465D01*
X144414669Y-95805276D01*
X144505276Y-95714669D01*
X144576465Y-95608127D01*
X144625501Y-95489744D01*
X144643253Y-95400500D01*
X144650500Y-95364071D01*
X144650500Y-94135928D01*
X144625502Y-94010261D01*
X144625501Y-94010260D01*
X144625501Y-94010256D01*
X144581464Y-93903941D01*
X144576466Y-93891875D01*
X144576461Y-93891866D01*
X144505276Y-93785331D01*
X144505273Y-93785327D01*
X144414672Y-93694726D01*
X144414668Y-93694723D01*
X144308133Y-93623538D01*
X144308124Y-93623533D01*
X144189744Y-93574499D01*
X144189738Y-93574497D01*
X144064071Y-93549500D01*
X144064069Y-93549500D01*
X143935931Y-93549500D01*
X143935929Y-93549500D01*
X143810261Y-93574497D01*
X143810255Y-93574499D01*
X143691875Y-93623533D01*
X143691866Y-93623538D01*
X143585331Y-93694723D01*
X143585327Y-93694726D01*
X143494726Y-93785327D01*
X143494723Y-93785331D01*
X143423538Y-93891866D01*
X143423533Y-93891875D01*
X143374499Y-94010255D01*
X143374497Y-94010261D01*
X143349500Y-94135928D01*
X143349500Y-94812907D01*
X143329815Y-94879946D01*
X143277011Y-94925701D01*
X143207853Y-94935645D01*
X143158461Y-94917223D01*
X143085050Y-94870045D01*
X142959142Y-94833076D01*
X142900363Y-94795302D01*
X142871338Y-94731747D01*
X142881281Y-94662588D01*
X142906390Y-94626423D01*
X142965500Y-94567314D01*
X143031392Y-94453186D01*
X143065500Y-94325892D01*
X143065500Y-94194108D01*
X143031392Y-94066814D01*
X142965500Y-93952686D01*
X142872314Y-93859500D01*
X142782589Y-93807697D01*
X142758187Y-93793608D01*
X142670079Y-93770000D01*
X142630892Y-93759500D01*
X142499108Y-93759500D01*
X142371812Y-93793608D01*
X142257686Y-93859500D01*
X142257683Y-93859502D01*
X142164502Y-93952683D01*
X142164500Y-93952686D01*
X142098608Y-94066812D01*
X142085015Y-94117543D01*
X142064500Y-94194108D01*
X142064500Y-94325892D01*
X142070692Y-94349000D01*
X142094648Y-94438407D01*
X142092985Y-94508257D01*
X142053822Y-94566119D01*
X141989593Y-94593623D01*
X141974873Y-94594500D01*
X141065843Y-94594500D01*
X140998804Y-94574815D01*
X140953049Y-94522011D01*
X140943105Y-94452853D01*
X140953048Y-94418990D01*
X140960598Y-94402457D01*
X140965165Y-94392457D01*
X140985647Y-94250000D01*
X140965165Y-94107543D01*
X140905377Y-93976627D01*
X140811128Y-93867857D01*
X140811124Y-93867854D01*
X140806344Y-93863712D01*
X140768571Y-93804934D01*
X140768571Y-93735064D01*
X140806344Y-93676288D01*
X140811120Y-93672147D01*
X140811128Y-93672143D01*
X140905377Y-93563373D01*
X140965165Y-93432457D01*
X140985647Y-93290000D01*
X140965165Y-93147543D01*
X140905377Y-93016627D01*
X140811128Y-92907857D01*
X140690053Y-92830047D01*
X140690051Y-92830046D01*
X140690049Y-92830045D01*
X140690050Y-92830045D01*
X140551963Y-92789500D01*
X140551961Y-92789500D01*
X140408039Y-92789500D01*
X140408036Y-92789500D01*
X140269949Y-92830045D01*
X140148873Y-92907856D01*
X140054623Y-93016626D01*
X140054622Y-93016628D01*
X139994834Y-93147543D01*
X139974353Y-93290000D01*
X139994834Y-93432456D01*
X140012708Y-93471593D01*
X140054623Y-93563373D01*
X140148872Y-93672143D01*
X140148875Y-93672145D01*
X140153659Y-93676291D01*
X140191430Y-93735071D01*
X140191426Y-93804941D01*
X140153659Y-93863709D01*
X140148873Y-93867856D01*
X140054623Y-93976626D01*
X140054622Y-93976628D01*
X139994834Y-94107543D01*
X139974353Y-94250000D01*
X139994834Y-94392456D01*
X140006952Y-94418990D01*
X140016895Y-94488148D01*
X139987869Y-94551704D01*
X139929091Y-94589477D01*
X139894157Y-94594500D01*
X139615843Y-94594500D01*
X139548804Y-94574815D01*
X139503049Y-94522011D01*
X139493105Y-94452853D01*
X139503048Y-94418990D01*
X139510598Y-94402457D01*
X139515165Y-94392457D01*
X139535647Y-94250000D01*
X139515165Y-94107543D01*
X139455377Y-93976627D01*
X139361128Y-93867857D01*
X139361124Y-93867854D01*
X139356344Y-93863712D01*
X139318571Y-93804934D01*
X139318571Y-93735064D01*
X139356344Y-93676288D01*
X139361120Y-93672147D01*
X139361128Y-93672143D01*
X139455377Y-93563373D01*
X139515165Y-93432457D01*
X139535647Y-93290000D01*
X139515165Y-93147543D01*
X139455377Y-93016627D01*
X139361128Y-92907857D01*
X139240053Y-92830047D01*
X139240051Y-92830046D01*
X139240049Y-92830045D01*
X139240050Y-92830045D01*
X139101963Y-92789500D01*
X139101961Y-92789500D01*
X138958039Y-92789500D01*
X138958036Y-92789500D01*
X138819949Y-92830045D01*
X138698873Y-92907856D01*
X138604623Y-93016626D01*
X138604622Y-93016628D01*
X138544834Y-93147543D01*
X138524353Y-93290000D01*
X138544834Y-93432456D01*
X138562708Y-93471593D01*
X138604623Y-93563373D01*
X138698872Y-93672143D01*
X138698875Y-93672145D01*
X138703659Y-93676291D01*
X138741430Y-93735071D01*
X138741426Y-93804941D01*
X138703659Y-93863709D01*
X138698873Y-93867856D01*
X138604623Y-93976626D01*
X138604622Y-93976628D01*
X138544834Y-94107543D01*
X138524353Y-94250000D01*
X138544834Y-94392456D01*
X138556952Y-94418990D01*
X138566895Y-94488148D01*
X138537869Y-94551704D01*
X138479091Y-94589477D01*
X138444157Y-94594500D01*
X137375127Y-94594500D01*
X137308088Y-94574815D01*
X137262333Y-94522011D01*
X137252389Y-94452853D01*
X137255352Y-94438407D01*
X137255740Y-94436956D01*
X137285500Y-94325892D01*
X137285500Y-94194108D01*
X137251392Y-94066814D01*
X137185500Y-93952686D01*
X137092314Y-93859500D01*
X137002589Y-93807697D01*
X136978187Y-93793608D01*
X136890079Y-93770000D01*
X136850892Y-93759500D01*
X136719108Y-93759500D01*
X136591812Y-93793608D01*
X136477686Y-93859500D01*
X136477683Y-93859502D01*
X136384502Y-93952683D01*
X136384500Y-93952686D01*
X136318608Y-94066812D01*
X136305015Y-94117543D01*
X136284500Y-94194108D01*
X136284500Y-94325892D01*
X136290692Y-94349000D01*
X136318608Y-94453187D01*
X136338793Y-94488148D01*
X136384500Y-94567314D01*
X136384502Y-94567316D01*
X136443604Y-94626418D01*
X136477089Y-94687741D01*
X136472105Y-94757433D01*
X136430233Y-94813366D01*
X136390858Y-94833076D01*
X136264948Y-94870046D01*
X136191539Y-94917223D01*
X136124499Y-94936907D01*
X136057460Y-94917222D01*
X136011705Y-94864418D01*
X136000500Y-94812907D01*
X136000500Y-94135928D01*
X135975502Y-94010261D01*
X135975501Y-94010260D01*
X135975501Y-94010256D01*
X135931464Y-93903941D01*
X135926466Y-93891875D01*
X135926461Y-93891866D01*
X135855276Y-93785331D01*
X135855273Y-93785327D01*
X135764672Y-93694726D01*
X135764668Y-93694723D01*
X135658133Y-93623538D01*
X135658124Y-93623533D01*
X135539744Y-93574499D01*
X135539738Y-93574497D01*
X135414071Y-93549500D01*
X135414069Y-93549500D01*
X135285931Y-93549500D01*
X135285929Y-93549500D01*
X135160261Y-93574497D01*
X135160255Y-93574499D01*
X135041875Y-93623533D01*
X135041866Y-93623538D01*
X134935331Y-93694723D01*
X134935327Y-93694726D01*
X134844726Y-93785327D01*
X134844723Y-93785331D01*
X134773538Y-93891866D01*
X134773533Y-93891875D01*
X134724499Y-94010255D01*
X134724497Y-94010261D01*
X134699500Y-94135928D01*
X134699500Y-94135931D01*
X134699500Y-95364069D01*
X134699500Y-95364071D01*
X134699499Y-95364071D01*
X134724497Y-95489738D01*
X134724499Y-95489744D01*
X134773533Y-95608124D01*
X134773538Y-95608133D01*
X134844723Y-95714668D01*
X134844726Y-95714672D01*
X134935327Y-95805273D01*
X134935331Y-95805276D01*
X135041866Y-95876461D01*
X135041872Y-95876464D01*
X135041873Y-95876465D01*
X135160256Y-95925501D01*
X135160260Y-95925501D01*
X135160261Y-95925502D01*
X135285928Y-95950500D01*
X135285931Y-95950500D01*
X135414071Y-95950500D01*
X135498615Y-95933682D01*
X135539744Y-95925501D01*
X135658127Y-95876465D01*
X135764669Y-95805276D01*
X135855276Y-95714669D01*
X135891545Y-95660389D01*
X135945155Y-95615585D01*
X136014479Y-95606876D01*
X136077507Y-95637030D01*
X136088358Y-95648076D01*
X136143872Y-95712143D01*
X136264947Y-95789953D01*
X136264950Y-95789954D01*
X136264949Y-95789954D01*
X136403036Y-95830499D01*
X136403038Y-95830500D01*
X136470500Y-95830500D01*
X136537539Y-95850185D01*
X136583294Y-95902989D01*
X136594500Y-95954500D01*
X136594500Y-97651000D01*
X136604909Y-97730070D01*
X136624871Y-97804568D01*
X136624877Y-97804586D01*
X136640491Y-97848896D01*
X136640495Y-97848904D01*
X136703934Y-97941513D01*
X136703940Y-97941520D01*
X136703941Y-97941521D01*
X136758479Y-97996059D01*
X136758485Y-97996064D01*
X136758487Y-97996066D01*
X136794172Y-98026639D01*
X136794173Y-98026640D01*
X136895427Y-98075127D01*
X136895429Y-98075127D01*
X136895432Y-98075129D01*
X136969932Y-98095091D01*
X137034869Y-98103639D01*
X137048999Y-98105500D01*
X137049000Y-98105500D01*
X139197040Y-98105500D01*
X139264079Y-98125185D01*
X139309834Y-98177989D01*
X139319778Y-98247147D01*
X139290753Y-98310703D01*
X139264080Y-98333814D01*
X139220743Y-98361666D01*
X139148869Y-98407856D01*
X139054619Y-98516626D01*
X139054618Y-98516628D01*
X138994830Y-98647543D01*
X138974349Y-98790000D01*
X138994830Y-98932456D01*
X139054618Y-99063371D01*
X139054619Y-99063373D01*
X139148868Y-99172143D01*
X139269943Y-99249953D01*
X139269946Y-99249954D01*
X139269945Y-99249954D01*
X139408032Y-99290499D01*
X139408034Y-99290500D01*
X139408035Y-99290500D01*
X139551958Y-99290500D01*
X139551958Y-99290499D01*
X139664200Y-99257543D01*
X139690046Y-99249954D01*
X139690046Y-99249953D01*
X139690049Y-99249953D01*
X139811124Y-99172143D01*
X139866284Y-99108484D01*
X139925061Y-99070711D01*
X139994931Y-99070711D01*
X140053707Y-99108484D01*
X140108868Y-99172143D01*
X140229943Y-99249953D01*
X140229946Y-99249954D01*
X140229945Y-99249954D01*
X140368032Y-99290499D01*
X140368034Y-99290500D01*
X140368035Y-99290500D01*
X140511958Y-99290500D01*
X140511958Y-99290499D01*
X140624200Y-99257543D01*
X140650046Y-99249954D01*
X140650047Y-99249954D01*
X140650956Y-99249370D01*
X140673028Y-99235184D01*
X140740067Y-99215500D01*
X141866016Y-99215500D01*
X141866018Y-99215500D01*
X141974237Y-99186503D01*
X142071263Y-99130485D01*
X142939929Y-98261819D01*
X143001252Y-98228334D01*
X143027610Y-98225500D01*
X147862390Y-98225500D01*
X147929429Y-98245185D01*
X147950071Y-98261819D01*
X148232378Y-98544126D01*
X148265863Y-98605449D01*
X148260879Y-98675141D01*
X148238411Y-98713008D01*
X148174625Y-98786622D01*
X148174622Y-98786628D01*
X148114834Y-98917543D01*
X148094353Y-99060000D01*
X148102127Y-99114070D01*
X148092183Y-99183229D01*
X148046428Y-99236033D01*
X148018554Y-99249370D01*
X148012497Y-99251385D01*
X148012496Y-99251386D01*
X147891462Y-99329171D01*
X147891451Y-99329179D01*
X147838659Y-99374923D01*
X147744433Y-99483664D01*
X147744430Y-99483668D01*
X147684664Y-99614534D01*
X147664976Y-99681582D01*
X147659949Y-99716549D01*
X147644502Y-99823990D01*
X147644500Y-99824001D01*
X147644500Y-102070500D01*
X147624815Y-102137539D01*
X147572011Y-102183294D01*
X147520500Y-102194500D01*
X142579500Y-102194500D01*
X142512461Y-102174815D01*
X142466706Y-102122011D01*
X142455500Y-102070500D01*
X142455500Y-101400000D01*
X143294353Y-101400000D01*
X143314834Y-101542456D01*
X143359433Y-101640112D01*
X143374623Y-101673373D01*
X143468872Y-101782143D01*
X143589947Y-101859953D01*
X143589950Y-101859954D01*
X143589949Y-101859954D01*
X143728036Y-101900499D01*
X143728038Y-101900500D01*
X143728039Y-101900500D01*
X143871962Y-101900500D01*
X143871962Y-101900499D01*
X143979121Y-101869035D01*
X144010050Y-101859954D01*
X144010050Y-101859953D01*
X144010053Y-101859953D01*
X144131128Y-101782143D01*
X144225377Y-101673373D01*
X144285165Y-101542457D01*
X144305647Y-101400000D01*
X144285165Y-101257543D01*
X144225377Y-101126627D01*
X144131128Y-101017857D01*
X144010053Y-100940047D01*
X144010051Y-100940046D01*
X144010049Y-100940045D01*
X144010050Y-100940045D01*
X143871963Y-100899500D01*
X143871961Y-100899500D01*
X143728039Y-100899500D01*
X143728036Y-100899500D01*
X143589949Y-100940045D01*
X143468873Y-101017856D01*
X143374623Y-101126626D01*
X143374622Y-101126628D01*
X143314834Y-101257543D01*
X143294353Y-101400000D01*
X142455500Y-101400000D01*
X142455500Y-100924010D01*
X142455500Y-100924000D01*
X142443947Y-100816544D01*
X142432741Y-100765033D01*
X142432637Y-100764722D01*
X142398616Y-100662502D01*
X142398613Y-100662496D01*
X142359286Y-100601303D01*
X142320825Y-100541457D01*
X142293376Y-100509779D01*
X142275076Y-100488659D01*
X142275072Y-100488656D01*
X142275070Y-100488653D01*
X142166336Y-100394433D01*
X142166333Y-100394431D01*
X142166331Y-100394430D01*
X142035465Y-100334664D01*
X142035460Y-100334662D01*
X142035459Y-100334662D01*
X141990766Y-100321538D01*
X141968417Y-100314976D01*
X141919138Y-100307891D01*
X141826000Y-100294500D01*
X140187796Y-100294500D01*
X140187794Y-100294500D01*
X140072215Y-100307891D01*
X140072208Y-100307892D01*
X140017020Y-100320854D01*
X140016998Y-100320861D01*
X139907563Y-100360316D01*
X139907562Y-100360317D01*
X139789149Y-100442052D01*
X139737891Y-100489514D01*
X139737877Y-100489529D01*
X139647301Y-100601299D01*
X139647298Y-100601303D01*
X139591877Y-100734071D01*
X139591871Y-100734090D01*
X139586088Y-100756494D01*
X139550272Y-100816485D01*
X139487707Y-100847589D01*
X139466024Y-100849500D01*
X139408036Y-100849500D01*
X139269949Y-100890045D01*
X139148873Y-100967856D01*
X139054623Y-101076626D01*
X139054622Y-101076628D01*
X138994834Y-101207543D01*
X138974353Y-101350000D01*
X138994834Y-101492456D01*
X139054204Y-101622456D01*
X139054623Y-101623373D01*
X139070414Y-101641597D01*
X139099440Y-101705151D01*
X139089497Y-101774310D01*
X139070416Y-101804002D01*
X139044432Y-101833988D01*
X139044430Y-101833992D01*
X138984664Y-101964858D01*
X138964976Y-102031906D01*
X138951325Y-102126852D01*
X138944500Y-102174324D01*
X138944500Y-103576000D01*
X138944501Y-103576009D01*
X138956052Y-103683450D01*
X138956054Y-103683462D01*
X138967260Y-103734972D01*
X139001383Y-103837497D01*
X139001386Y-103837503D01*
X139079171Y-103958537D01*
X139079179Y-103958548D01*
X139124923Y-104011340D01*
X139124926Y-104011343D01*
X139124930Y-104011347D01*
X139233664Y-104105567D01*
X139233667Y-104105568D01*
X139233668Y-104105569D01*
X139327925Y-104148616D01*
X139364541Y-104165338D01*
X139431580Y-104185023D01*
X139431584Y-104185024D01*
X139574000Y-104205500D01*
X145944965Y-104205500D01*
X146012004Y-104225185D01*
X146057759Y-104277989D01*
X146067703Y-104347147D01*
X146054353Y-104439999D01*
X146074834Y-104582456D01*
X146093035Y-104622310D01*
X146134623Y-104713373D01*
X146228872Y-104822143D01*
X146349947Y-104899953D01*
X146349950Y-104899954D01*
X146349949Y-104899954D01*
X146433547Y-104924500D01*
X146484633Y-104939500D01*
X146488036Y-104940499D01*
X146488038Y-104940500D01*
X146488039Y-104940500D01*
X146631962Y-104940500D01*
X146631962Y-104940499D01*
X146744101Y-104907573D01*
X146770050Y-104899954D01*
X146770050Y-104899953D01*
X146770053Y-104899953D01*
X146891128Y-104822143D01*
X146985377Y-104713373D01*
X147045165Y-104582457D01*
X147047801Y-104564124D01*
X150658477Y-104564124D01*
X150678958Y-104706580D01*
X150729911Y-104818149D01*
X150738747Y-104837497D01*
X150832996Y-104946267D01*
X150954071Y-105024077D01*
X150954074Y-105024078D01*
X150954073Y-105024078D01*
X151092161Y-105064624D01*
X151099688Y-105065706D01*
X151163244Y-105094728D01*
X151169725Y-105100762D01*
X151669437Y-105600475D01*
X151755063Y-105649911D01*
X151850564Y-105675500D01*
X151850565Y-105675500D01*
X156946426Y-105675500D01*
X157013465Y-105695185D01*
X157059220Y-105747989D01*
X157069164Y-105817147D01*
X157040139Y-105880703D01*
X157034107Y-105887181D01*
X154573230Y-108348058D01*
X154511907Y-108381543D01*
X154503199Y-108383114D01*
X154495669Y-108384196D01*
X154357577Y-108424743D01*
X154236501Y-108502554D01*
X154142251Y-108611324D01*
X154142250Y-108611326D01*
X154082462Y-108742241D01*
X154061981Y-108884698D01*
X154082462Y-109027154D01*
X154142249Y-109158067D01*
X154142251Y-109158071D01*
X154236500Y-109266841D01*
X154357575Y-109344651D01*
X154357578Y-109344652D01*
X154357577Y-109344652D01*
X154495664Y-109385197D01*
X154495666Y-109385198D01*
X154495667Y-109385198D01*
X154639590Y-109385198D01*
X154639590Y-109385197D01*
X154777681Y-109344651D01*
X154898756Y-109266841D01*
X154937177Y-109222500D01*
X157231853Y-109222500D01*
X157252334Y-109364956D01*
X157294617Y-109457541D01*
X157312123Y-109495873D01*
X157406372Y-109604643D01*
X157527447Y-109682453D01*
X157527450Y-109682454D01*
X157527449Y-109682454D01*
X157665536Y-109722999D01*
X157665538Y-109723000D01*
X157665539Y-109723000D01*
X157809462Y-109723000D01*
X157809462Y-109722999D01*
X157947553Y-109682453D01*
X158068628Y-109604643D01*
X158162877Y-109495873D01*
X158222665Y-109364957D01*
X158243147Y-109222500D01*
X158222665Y-109080043D01*
X158162877Y-108949127D01*
X158068628Y-108840357D01*
X157947553Y-108762547D01*
X157947551Y-108762546D01*
X157947549Y-108762545D01*
X157947550Y-108762545D01*
X157809463Y-108722000D01*
X157809461Y-108722000D01*
X157665539Y-108722000D01*
X157665536Y-108722000D01*
X157527449Y-108762545D01*
X157406373Y-108840356D01*
X157312123Y-108949126D01*
X157312122Y-108949128D01*
X157252334Y-109080043D01*
X157231853Y-109222500D01*
X154937177Y-109222500D01*
X154993005Y-109158071D01*
X155052793Y-109027155D01*
X155063137Y-108955200D01*
X155092161Y-108891647D01*
X155098180Y-108885181D01*
X156483137Y-107500225D01*
X156544458Y-107466742D01*
X156614150Y-107471726D01*
X156670083Y-107513598D01*
X156694500Y-107579062D01*
X156694070Y-107591131D01*
X156694353Y-107591131D01*
X156694353Y-107599999D01*
X156714834Y-107742456D01*
X156773084Y-107870003D01*
X156774623Y-107873373D01*
X156868872Y-107982143D01*
X156989947Y-108059953D01*
X156989950Y-108059954D01*
X156989949Y-108059954D01*
X157038921Y-108074333D01*
X157118111Y-108097585D01*
X157128036Y-108100499D01*
X157128038Y-108100500D01*
X157128039Y-108100500D01*
X157271962Y-108100500D01*
X157271962Y-108100499D01*
X157410053Y-108059953D01*
X157531128Y-107982143D01*
X157625377Y-107873373D01*
X157685165Y-107742457D01*
X157705647Y-107600000D01*
X157685165Y-107457543D01*
X157625377Y-107326627D01*
X157531128Y-107217857D01*
X157410053Y-107140047D01*
X157410051Y-107140046D01*
X157410049Y-107140045D01*
X157410050Y-107140045D01*
X157271963Y-107099500D01*
X157271961Y-107099500D01*
X157183226Y-107099500D01*
X157116187Y-107079815D01*
X157070432Y-107027011D01*
X157060488Y-106957853D01*
X157089513Y-106894297D01*
X157095545Y-106887819D01*
X157452357Y-106531007D01*
X157513680Y-106497522D01*
X157540038Y-106494688D01*
X158001999Y-106494688D01*
X158002000Y-106494688D01*
X158049750Y-106481893D01*
X158097502Y-106469098D01*
X158183126Y-106419663D01*
X158253039Y-106349750D01*
X160934506Y-103668282D01*
X160995827Y-103634799D01*
X161065519Y-103639783D01*
X161089223Y-103651648D01*
X161179947Y-103709953D01*
X161179950Y-103709954D01*
X161179949Y-103709954D01*
X161265138Y-103734967D01*
X161316336Y-103750000D01*
X161318036Y-103750499D01*
X161318038Y-103750500D01*
X161412744Y-103750500D01*
X161479783Y-103770185D01*
X161525538Y-103822989D01*
X161535482Y-103892146D01*
X161534353Y-103899998D01*
X161534353Y-103899999D01*
X161554834Y-104042456D01*
X161599630Y-104140543D01*
X161614623Y-104173373D01*
X161708872Y-104282143D01*
X161829947Y-104359953D01*
X161829950Y-104359954D01*
X161829949Y-104359954D01*
X161905520Y-104382143D01*
X161966336Y-104400000D01*
X161968036Y-104400499D01*
X161968038Y-104400500D01*
X161968039Y-104400500D01*
X162111962Y-104400500D01*
X162111962Y-104400499D01*
X162250053Y-104359953D01*
X162371128Y-104282143D01*
X162465377Y-104173373D01*
X162525165Y-104042457D01*
X162545647Y-103900000D01*
X162525165Y-103757543D01*
X162465377Y-103626627D01*
X162371128Y-103517857D01*
X162250053Y-103440047D01*
X162250051Y-103440046D01*
X162250049Y-103440045D01*
X162250050Y-103440045D01*
X162111963Y-103399500D01*
X162111961Y-103399500D01*
X162017256Y-103399500D01*
X161950217Y-103379815D01*
X161904462Y-103327011D01*
X161894518Y-103257854D01*
X161895647Y-103250001D01*
X161895647Y-103249998D01*
X161894518Y-103242146D01*
X161904462Y-103172987D01*
X161950218Y-103120184D01*
X162017256Y-103100500D01*
X162111962Y-103100500D01*
X162111962Y-103100499D01*
X162250053Y-103059953D01*
X162371128Y-102982143D01*
X162465377Y-102873373D01*
X162525165Y-102742457D01*
X162545647Y-102600000D01*
X162525165Y-102457543D01*
X162465377Y-102326627D01*
X162371128Y-102217857D01*
X162250053Y-102140047D01*
X162250051Y-102140046D01*
X162250049Y-102140045D01*
X162250050Y-102140045D01*
X162111963Y-102099500D01*
X162111961Y-102099500D01*
X161968039Y-102099500D01*
X161968036Y-102099500D01*
X161829949Y-102140045D01*
X161708873Y-102217856D01*
X161614623Y-102326626D01*
X161614622Y-102326628D01*
X161554834Y-102457543D01*
X161534353Y-102600000D01*
X161534353Y-102600001D01*
X161535482Y-102607854D01*
X161525538Y-102677013D01*
X161479782Y-102729816D01*
X161412744Y-102749500D01*
X161318036Y-102749500D01*
X161179949Y-102790045D01*
X161179948Y-102790046D01*
X161079166Y-102854815D01*
X161012126Y-102874500D01*
X160772316Y-102874500D01*
X160676813Y-102900089D01*
X160591190Y-102949525D01*
X160591187Y-102949527D01*
X160151142Y-103389572D01*
X160089819Y-103423057D01*
X160020127Y-103418073D01*
X159964194Y-103376201D01*
X159939777Y-103310737D01*
X159940722Y-103284249D01*
X159945647Y-103250000D01*
X159925165Y-103107543D01*
X159865377Y-102976627D01*
X159865375Y-102976625D01*
X159865324Y-102976512D01*
X159855380Y-102907354D01*
X159865324Y-102873488D01*
X159865378Y-102873371D01*
X159925165Y-102742457D01*
X159945647Y-102600000D01*
X159925165Y-102457543D01*
X159865377Y-102326627D01*
X159865375Y-102326625D01*
X159865374Y-102326622D01*
X159805087Y-102257047D01*
X159776062Y-102193491D01*
X159786006Y-102124333D01*
X159811116Y-102088167D01*
X160225688Y-101673595D01*
X160287009Y-101640112D01*
X160356701Y-101645096D01*
X160401993Y-101676542D01*
X160402172Y-101676337D01*
X160404083Y-101677993D01*
X160407076Y-101680071D01*
X160408869Y-101682140D01*
X160408872Y-101682143D01*
X160529947Y-101759953D01*
X160529950Y-101759954D01*
X160529949Y-101759954D01*
X160668036Y-101800499D01*
X160668038Y-101800500D01*
X160668039Y-101800500D01*
X160811962Y-101800500D01*
X160811962Y-101800499D01*
X160950053Y-101759953D01*
X160997960Y-101729164D01*
X161064998Y-101709479D01*
X161132035Y-101729162D01*
X161179947Y-101759953D01*
X161179949Y-101759954D01*
X161318036Y-101800499D01*
X161318038Y-101800500D01*
X161318039Y-101800500D01*
X161461962Y-101800500D01*
X161461962Y-101800499D01*
X161600053Y-101759953D01*
X161721128Y-101682143D01*
X161815377Y-101573373D01*
X161875165Y-101442457D01*
X161895647Y-101300000D01*
X161894518Y-101292146D01*
X161904462Y-101222987D01*
X161950218Y-101170184D01*
X162017256Y-101150500D01*
X162111962Y-101150500D01*
X162111962Y-101150499D01*
X162250053Y-101109953D01*
X162371128Y-101032143D01*
X162465377Y-100923373D01*
X162525165Y-100792457D01*
X162545647Y-100650000D01*
X162525165Y-100507543D01*
X162465377Y-100376627D01*
X162371128Y-100267857D01*
X162250053Y-100190047D01*
X162250051Y-100190046D01*
X162250049Y-100190045D01*
X162250050Y-100190045D01*
X162111963Y-100149500D01*
X162111961Y-100149500D01*
X162049147Y-100149500D01*
X161982108Y-100129815D01*
X161936353Y-100077011D01*
X161926409Y-100007853D01*
X161955434Y-99944297D01*
X161961466Y-99937819D01*
X162146829Y-99752456D01*
X162340474Y-99558811D01*
X162350001Y-99542310D01*
X162389910Y-99473186D01*
X162415500Y-99377683D01*
X162415500Y-99077183D01*
X162435185Y-99010144D01*
X162445783Y-98995985D01*
X162465377Y-98973373D01*
X162525165Y-98842457D01*
X162545647Y-98700000D01*
X162525165Y-98557543D01*
X162465377Y-98426627D01*
X162371128Y-98317857D01*
X162250053Y-98240047D01*
X162250051Y-98240046D01*
X162250049Y-98240045D01*
X162250050Y-98240045D01*
X162111963Y-98199500D01*
X162111961Y-98199500D01*
X161968039Y-98199500D01*
X161968036Y-98199500D01*
X161829950Y-98240045D01*
X161782037Y-98270836D01*
X161714998Y-98290519D01*
X161647963Y-98270836D01*
X161625805Y-98256596D01*
X161600053Y-98240047D01*
X161600051Y-98240046D01*
X161600049Y-98240045D01*
X161461963Y-98199500D01*
X161461961Y-98199500D01*
X161318039Y-98199500D01*
X161318036Y-98199500D01*
X161179949Y-98240045D01*
X161058873Y-98317856D01*
X160964623Y-98426626D01*
X160964622Y-98426628D01*
X160904834Y-98557543D01*
X160884353Y-98700000D01*
X160904834Y-98842456D01*
X160964622Y-98973371D01*
X160964623Y-98973373D01*
X161058872Y-99082143D01*
X161179947Y-99159953D01*
X161179950Y-99159954D01*
X161179949Y-99159954D01*
X161270369Y-99186503D01*
X161316336Y-99200000D01*
X161318036Y-99200499D01*
X161318038Y-99200500D01*
X161337349Y-99200500D01*
X161404388Y-99220185D01*
X161450143Y-99272989D01*
X161460087Y-99342147D01*
X161431062Y-99405703D01*
X161425030Y-99412181D01*
X160801177Y-100036033D01*
X160739854Y-100069518D01*
X160670162Y-100064534D01*
X160614229Y-100022662D01*
X160590758Y-99965998D01*
X160586769Y-99938255D01*
X160575165Y-99857543D01*
X160515377Y-99726627D01*
X160421128Y-99617857D01*
X160300053Y-99540047D01*
X160300051Y-99540046D01*
X160300049Y-99540045D01*
X160300050Y-99540045D01*
X160161963Y-99499500D01*
X160161961Y-99499500D01*
X160018039Y-99499500D01*
X160018036Y-99499500D01*
X159879949Y-99540045D01*
X159845006Y-99562502D01*
X159831541Y-99571156D01*
X159831539Y-99571157D01*
X159764500Y-99590841D01*
X159697460Y-99571156D01*
X159651706Y-99518352D01*
X159640500Y-99466841D01*
X159640500Y-99091899D01*
X159660185Y-99024860D01*
X159676819Y-99004218D01*
X159863181Y-98817856D01*
X160084399Y-98596637D01*
X160145720Y-98563154D01*
X160154436Y-98561581D01*
X160161954Y-98560500D01*
X160161961Y-98560500D01*
X160161968Y-98560498D01*
X160300050Y-98519954D01*
X160300050Y-98519953D01*
X160300053Y-98519953D01*
X160421128Y-98442143D01*
X160515377Y-98333373D01*
X160575165Y-98202457D01*
X160595647Y-98060000D01*
X160575165Y-97917543D01*
X160515377Y-97786627D01*
X160421128Y-97677857D01*
X160300053Y-97600047D01*
X160300051Y-97600046D01*
X160300049Y-97600045D01*
X160300050Y-97600045D01*
X160161963Y-97559500D01*
X160161961Y-97559500D01*
X160018039Y-97559500D01*
X160018036Y-97559500D01*
X159879949Y-97600045D01*
X159758873Y-97677856D01*
X159664623Y-97786626D01*
X159664622Y-97786628D01*
X159604835Y-97917541D01*
X159604834Y-97917546D01*
X159594489Y-97989496D01*
X159565463Y-98053051D01*
X159559432Y-98059529D01*
X159034438Y-98584525D01*
X158964526Y-98654436D01*
X158915091Y-98740059D01*
X158915091Y-98740060D01*
X158915090Y-98740062D01*
X158889500Y-98835565D01*
X158889500Y-98835567D01*
X158889500Y-100164737D01*
X158869815Y-100231776D01*
X158853181Y-100252418D01*
X155916540Y-103189060D01*
X155846628Y-103258971D01*
X155797193Y-103344594D01*
X155797193Y-103344595D01*
X155797192Y-103344597D01*
X155771602Y-103440100D01*
X155771602Y-103440102D01*
X155771602Y-103947465D01*
X155751917Y-104014504D01*
X155741317Y-104028666D01*
X155721725Y-104051277D01*
X155721724Y-104051278D01*
X155661936Y-104182193D01*
X155642440Y-104317797D01*
X155613415Y-104381353D01*
X155554637Y-104419127D01*
X155519702Y-104424150D01*
X155299061Y-104424150D01*
X155232022Y-104404465D01*
X155186267Y-104351661D01*
X155176323Y-104282503D01*
X155205348Y-104218947D01*
X155232020Y-104195835D01*
X155331128Y-104132143D01*
X155425377Y-104023373D01*
X155485165Y-103892457D01*
X155505647Y-103750000D01*
X155485165Y-103607543D01*
X155425377Y-103476627D01*
X155331128Y-103367857D01*
X155210053Y-103290047D01*
X155210051Y-103290046D01*
X155210049Y-103290045D01*
X155210050Y-103290045D01*
X155071963Y-103249500D01*
X155071961Y-103249500D01*
X154928039Y-103249500D01*
X154928036Y-103249500D01*
X154789949Y-103290045D01*
X154668873Y-103367856D01*
X154574623Y-103476626D01*
X154574622Y-103476628D01*
X154514834Y-103607543D01*
X154494353Y-103750000D01*
X154514834Y-103892454D01*
X154514834Y-103892455D01*
X154514835Y-103892457D01*
X154529242Y-103924004D01*
X154529463Y-103924487D01*
X154539406Y-103993646D01*
X154510381Y-104057201D01*
X154451602Y-104094975D01*
X154416668Y-104099998D01*
X154333859Y-104099998D01*
X154195772Y-104140543D01*
X154074696Y-104218354D01*
X153980446Y-104327124D01*
X153980445Y-104327126D01*
X153920657Y-104458041D01*
X153900176Y-104600498D01*
X153920657Y-104742954D01*
X153923414Y-104748990D01*
X153933357Y-104818149D01*
X153904331Y-104881704D01*
X153845552Y-104919478D01*
X153810619Y-104924500D01*
X152106900Y-104924500D01*
X152039861Y-104904815D01*
X152019219Y-104888181D01*
X151694690Y-104563653D01*
X151661205Y-104502330D01*
X151659633Y-104493617D01*
X151649290Y-104421672D01*
X151649289Y-104421670D01*
X151649289Y-104421667D01*
X151630878Y-104381353D01*
X151589503Y-104290754D01*
X151589500Y-104290750D01*
X151574440Y-104273370D01*
X151495252Y-104181981D01*
X151374177Y-104104171D01*
X151374175Y-104104170D01*
X151374173Y-104104169D01*
X151374174Y-104104169D01*
X151236087Y-104063624D01*
X151236085Y-104063624D01*
X151092163Y-104063624D01*
X151092160Y-104063624D01*
X150954073Y-104104169D01*
X150832997Y-104181980D01*
X150832996Y-104181980D01*
X150832996Y-104181981D01*
X150821151Y-104195651D01*
X150738747Y-104290750D01*
X150738746Y-104290752D01*
X150678958Y-104421667D01*
X150658477Y-104564124D01*
X147047801Y-104564124D01*
X147065647Y-104440000D01*
X147052297Y-104347147D01*
X147062241Y-104277988D01*
X147107996Y-104225184D01*
X147175035Y-104205500D01*
X148290818Y-104205500D01*
X148290823Y-104205500D01*
X148390115Y-104195652D01*
X148430303Y-104187601D01*
X148499902Y-104193733D01*
X148555137Y-104236521D01*
X148567453Y-104257674D01*
X148574620Y-104273369D01*
X148574623Y-104273373D01*
X148668872Y-104382143D01*
X148789947Y-104459953D01*
X148789950Y-104459954D01*
X148789949Y-104459954D01*
X148928036Y-104500499D01*
X148928038Y-104500500D01*
X148928039Y-104500500D01*
X149071962Y-104500500D01*
X149071962Y-104500499D01*
X149210053Y-104459953D01*
X149331128Y-104382143D01*
X149425377Y-104273373D01*
X149433388Y-104255830D01*
X149479141Y-104203026D01*
X149546181Y-104183340D01*
X149563830Y-104184602D01*
X149566755Y-104185022D01*
X149566757Y-104185023D01*
X149566761Y-104185024D01*
X149709177Y-104205500D01*
X149709180Y-104205500D01*
X149925990Y-104205500D01*
X149926000Y-104205500D01*
X150033456Y-104193947D01*
X150084967Y-104182741D01*
X150119197Y-104171347D01*
X150187497Y-104148616D01*
X150187501Y-104148613D01*
X150187504Y-104148613D01*
X150308543Y-104070825D01*
X150361347Y-104025070D01*
X150455567Y-103916336D01*
X150515338Y-103785459D01*
X150535023Y-103718420D01*
X150535024Y-103718416D01*
X150555500Y-103576000D01*
X150555500Y-101480000D01*
X155594353Y-101480000D01*
X155614834Y-101622456D01*
X155663567Y-101729165D01*
X155674623Y-101753373D01*
X155768872Y-101862143D01*
X155889947Y-101939953D01*
X155889950Y-101939954D01*
X155889949Y-101939954D01*
X156028036Y-101980499D01*
X156028038Y-101980500D01*
X156028039Y-101980500D01*
X156171962Y-101980500D01*
X156171962Y-101980499D01*
X156310053Y-101939953D01*
X156431128Y-101862143D01*
X156525377Y-101753373D01*
X156585165Y-101622457D01*
X156605647Y-101480000D01*
X156585165Y-101337543D01*
X156525377Y-101206627D01*
X156431128Y-101097857D01*
X156310053Y-101020047D01*
X156310051Y-101020046D01*
X156310049Y-101020045D01*
X156310050Y-101020045D01*
X156171963Y-100979500D01*
X156171961Y-100979500D01*
X156028039Y-100979500D01*
X156028036Y-100979500D01*
X155889949Y-101020045D01*
X155768873Y-101097856D01*
X155674623Y-101206626D01*
X155674622Y-101206628D01*
X155614834Y-101337543D01*
X155594353Y-101480000D01*
X150555500Y-101480000D01*
X150555500Y-99824000D01*
X150543947Y-99716544D01*
X150532741Y-99665033D01*
X150531050Y-99659953D01*
X150514424Y-99610000D01*
X155654353Y-99610000D01*
X155674834Y-99752456D01*
X155722827Y-99857543D01*
X155734623Y-99883373D01*
X155828872Y-99992143D01*
X155949947Y-100069953D01*
X155949950Y-100069954D01*
X155949949Y-100069954D01*
X156057107Y-100101417D01*
X156080907Y-100108406D01*
X156088036Y-100110499D01*
X156088038Y-100110500D01*
X156088039Y-100110500D01*
X156231962Y-100110500D01*
X156231962Y-100110499D01*
X156370053Y-100069953D01*
X156491128Y-99992143D01*
X156585377Y-99883373D01*
X156645165Y-99752457D01*
X156665647Y-99610000D01*
X156645165Y-99467543D01*
X156585377Y-99336627D01*
X156491128Y-99227857D01*
X156370053Y-99150047D01*
X156370051Y-99150046D01*
X156370049Y-99150045D01*
X156370050Y-99150045D01*
X156231963Y-99109500D01*
X156231961Y-99109500D01*
X156088039Y-99109500D01*
X156088036Y-99109500D01*
X155949949Y-99150045D01*
X155828873Y-99227856D01*
X155828872Y-99227856D01*
X155828872Y-99227857D01*
X155822522Y-99235185D01*
X155734623Y-99336626D01*
X155734622Y-99336628D01*
X155674834Y-99467543D01*
X155654353Y-99610000D01*
X150514424Y-99610000D01*
X150498616Y-99562502D01*
X150498613Y-99562496D01*
X150441216Y-99473186D01*
X150420825Y-99441457D01*
X150420820Y-99441451D01*
X150375076Y-99388659D01*
X150375072Y-99388656D01*
X150375070Y-99388653D01*
X150318937Y-99340013D01*
X150281165Y-99281236D01*
X150281165Y-99211366D01*
X150318940Y-99152588D01*
X150382496Y-99123564D01*
X150400142Y-99122302D01*
X152499928Y-99122302D01*
X152566967Y-99141987D01*
X152566968Y-99141987D01*
X152583463Y-99152588D01*
X152589949Y-99156756D01*
X152728036Y-99197301D01*
X152728038Y-99197302D01*
X152728039Y-99197302D01*
X152871962Y-99197302D01*
X152871962Y-99197301D01*
X152999158Y-99159954D01*
X153010050Y-99156756D01*
X153010050Y-99156755D01*
X153010053Y-99156755D01*
X153131128Y-99078945D01*
X153225377Y-98970175D01*
X153285165Y-98839259D01*
X153303483Y-98711852D01*
X153332508Y-98648297D01*
X153391286Y-98610523D01*
X153426221Y-98605500D01*
X154451001Y-98605500D01*
X154462988Y-98603921D01*
X154530068Y-98595091D01*
X154604568Y-98575129D01*
X154648898Y-98559508D01*
X154651767Y-98557543D01*
X154741513Y-98496065D01*
X154741516Y-98496062D01*
X154741521Y-98496059D01*
X154796059Y-98441521D01*
X154826639Y-98405828D01*
X154875129Y-98304568D01*
X154895091Y-98230068D01*
X154905500Y-98151000D01*
X154905500Y-97300000D01*
X158384353Y-97300000D01*
X158404834Y-97442456D01*
X158462355Y-97568406D01*
X158464623Y-97573373D01*
X158558872Y-97682143D01*
X158679947Y-97759953D01*
X158679950Y-97759954D01*
X158679949Y-97759954D01*
X158818036Y-97800499D01*
X158818038Y-97800500D01*
X158818039Y-97800500D01*
X158961962Y-97800500D01*
X158961962Y-97800499D01*
X159100053Y-97759953D01*
X159221128Y-97682143D01*
X159315377Y-97573373D01*
X159375165Y-97442457D01*
X159381269Y-97400000D01*
X161534353Y-97400000D01*
X161554834Y-97542456D01*
X161595812Y-97632184D01*
X161614623Y-97673373D01*
X161708872Y-97782143D01*
X161829947Y-97859953D01*
X161829950Y-97859954D01*
X161829949Y-97859954D01*
X161968036Y-97900499D01*
X161968038Y-97900500D01*
X161968039Y-97900500D01*
X162111962Y-97900500D01*
X162111962Y-97900499D01*
X162250053Y-97859953D01*
X162371128Y-97782143D01*
X162465377Y-97673373D01*
X162525165Y-97542457D01*
X162545647Y-97400000D01*
X162525165Y-97257543D01*
X162465377Y-97126627D01*
X162371128Y-97017857D01*
X162250053Y-96940047D01*
X162250051Y-96940046D01*
X162250049Y-96940045D01*
X162250050Y-96940045D01*
X162111963Y-96899500D01*
X162111961Y-96899500D01*
X161968039Y-96899500D01*
X161968036Y-96899500D01*
X161829949Y-96940045D01*
X161708873Y-97017856D01*
X161614623Y-97126626D01*
X161614622Y-97126628D01*
X161554834Y-97257543D01*
X161534353Y-97400000D01*
X159381269Y-97400000D01*
X159395647Y-97300000D01*
X159375165Y-97157543D01*
X159315377Y-97026627D01*
X159221128Y-96917857D01*
X159100053Y-96840047D01*
X159100051Y-96840046D01*
X159100049Y-96840045D01*
X159100050Y-96840045D01*
X158961963Y-96799500D01*
X158961961Y-96799500D01*
X158818039Y-96799500D01*
X158818036Y-96799500D01*
X158679949Y-96840045D01*
X158558873Y-96917856D01*
X158464623Y-97026626D01*
X158464622Y-97026628D01*
X158404834Y-97157543D01*
X158384353Y-97300000D01*
X154905500Y-97300000D01*
X154905500Y-96607277D01*
X154925185Y-96540238D01*
X154977989Y-96494483D01*
X155047147Y-96484539D01*
X155110703Y-96513564D01*
X155142294Y-96555766D01*
X155166445Y-96608651D01*
X155166448Y-96608655D01*
X155260697Y-96717425D01*
X155381772Y-96795235D01*
X155381775Y-96795236D01*
X155381774Y-96795236D01*
X155519861Y-96835781D01*
X155519863Y-96835782D01*
X155519864Y-96835782D01*
X155663787Y-96835782D01*
X155663787Y-96835781D01*
X155801878Y-96795235D01*
X155922953Y-96717425D01*
X156017202Y-96608655D01*
X156076990Y-96477739D01*
X156097472Y-96335282D01*
X156076990Y-96192825D01*
X156017202Y-96061909D01*
X155922953Y-95953139D01*
X155801878Y-95875329D01*
X155801876Y-95875328D01*
X155801874Y-95875327D01*
X155801875Y-95875327D01*
X155663788Y-95834782D01*
X155663786Y-95834782D01*
X155519864Y-95834782D01*
X155519861Y-95834782D01*
X155381774Y-95875327D01*
X155260698Y-95953138D01*
X155166448Y-96061908D01*
X155166447Y-96061910D01*
X155142294Y-96114798D01*
X155096539Y-96167602D01*
X155029499Y-96187286D01*
X154962460Y-96167601D01*
X154916705Y-96114797D01*
X154905500Y-96063286D01*
X154905500Y-94530000D01*
X159554353Y-94530000D01*
X159574834Y-94672456D01*
X159614177Y-94758604D01*
X159634623Y-94803373D01*
X159728872Y-94912143D01*
X159849947Y-94989953D01*
X159849950Y-94989954D01*
X159849949Y-94989954D01*
X159943458Y-95017410D01*
X159980907Y-95028406D01*
X159988036Y-95030499D01*
X159988038Y-95030500D01*
X159988039Y-95030500D01*
X160131962Y-95030500D01*
X160131962Y-95030499D01*
X160270053Y-94989953D01*
X160391128Y-94912143D01*
X160485377Y-94803373D01*
X160545165Y-94672457D01*
X160565647Y-94530000D01*
X160545165Y-94387543D01*
X160485377Y-94256627D01*
X160391128Y-94147857D01*
X160270053Y-94070047D01*
X160270051Y-94070046D01*
X160270049Y-94070045D01*
X160270050Y-94070045D01*
X160131963Y-94029500D01*
X160131961Y-94029500D01*
X159988039Y-94029500D01*
X159988036Y-94029500D01*
X159849949Y-94070045D01*
X159728873Y-94147856D01*
X159634623Y-94256626D01*
X159634622Y-94256628D01*
X159574834Y-94387543D01*
X159554353Y-94530000D01*
X154905500Y-94530000D01*
X154905500Y-94248999D01*
X154898448Y-94195432D01*
X154895091Y-94169932D01*
X154875129Y-94095432D01*
X154859508Y-94051102D01*
X154859506Y-94051099D01*
X154859504Y-94051095D01*
X154796065Y-93958486D01*
X154796059Y-93958479D01*
X154778071Y-93940491D01*
X154741521Y-93903941D01*
X154730501Y-93894500D01*
X154705827Y-93873360D01*
X154705826Y-93873359D01*
X154604572Y-93824872D01*
X154604569Y-93824871D01*
X154530070Y-93804909D01*
X154451001Y-93794500D01*
X154451000Y-93794500D01*
X152749000Y-93794500D01*
X152748999Y-93794500D01*
X152669929Y-93804909D01*
X152595431Y-93824871D01*
X152595413Y-93824877D01*
X152551103Y-93840491D01*
X152551102Y-93840492D01*
X152503938Y-93872800D01*
X152437510Y-93894446D01*
X152433863Y-93894500D01*
X150348999Y-93894500D01*
X150269929Y-93904909D01*
X150195431Y-93924871D01*
X150195413Y-93924877D01*
X150151103Y-93940491D01*
X150151095Y-93940495D01*
X150058486Y-94003934D01*
X150058479Y-94003940D01*
X150003933Y-94058487D01*
X149973360Y-94094172D01*
X149973359Y-94094173D01*
X149924872Y-94195427D01*
X149924871Y-94195430D01*
X149904909Y-94269929D01*
X149894500Y-94348999D01*
X149894500Y-94926522D01*
X149874815Y-94993561D01*
X149822011Y-95039316D01*
X149805437Y-95045498D01*
X149789952Y-95050044D01*
X149789938Y-95050051D01*
X149786536Y-95052238D01*
X149782655Y-95053377D01*
X149781879Y-95053732D01*
X149781827Y-95053620D01*
X149719496Y-95071921D01*
X149652458Y-95052235D01*
X149606704Y-94999429D01*
X149595500Y-94947921D01*
X149595500Y-93312005D01*
X149615185Y-93244966D01*
X149667989Y-93199211D01*
X149703312Y-93189066D01*
X149757183Y-93181974D01*
X149885018Y-93129024D01*
X149994791Y-93044791D01*
X150079024Y-92935018D01*
X150131974Y-92807183D01*
X150143452Y-92720000D01*
X158694353Y-92720000D01*
X158714834Y-92862456D01*
X158747971Y-92935015D01*
X158774623Y-92993373D01*
X158868872Y-93102143D01*
X158989947Y-93179953D01*
X158989950Y-93179954D01*
X158989949Y-93179954D01*
X159097107Y-93211417D01*
X159111698Y-93215702D01*
X159128036Y-93220499D01*
X159128038Y-93220500D01*
X159128039Y-93220500D01*
X159271962Y-93220500D01*
X159271962Y-93220499D01*
X159403170Y-93181974D01*
X159410050Y-93179954D01*
X159410050Y-93179953D01*
X159410053Y-93179953D01*
X159531128Y-93102143D01*
X159625377Y-92993373D01*
X159685165Y-92862457D01*
X159705647Y-92720000D01*
X159685165Y-92577543D01*
X159625377Y-92446627D01*
X159531128Y-92337857D01*
X159410053Y-92260047D01*
X159410051Y-92260046D01*
X159410049Y-92260045D01*
X159410050Y-92260045D01*
X159271963Y-92219500D01*
X159271961Y-92219500D01*
X159128039Y-92219500D01*
X159128036Y-92219500D01*
X158989949Y-92260045D01*
X158868873Y-92337856D01*
X158774623Y-92446626D01*
X158774622Y-92446628D01*
X158714834Y-92577543D01*
X158694353Y-92720000D01*
X150143452Y-92720000D01*
X150150035Y-92670000D01*
X150131974Y-92532817D01*
X150079024Y-92404983D01*
X149994791Y-92295209D01*
X149994788Y-92295207D01*
X149994787Y-92295205D01*
X149967288Y-92274104D01*
X149926085Y-92217676D01*
X149921931Y-92147930D01*
X149949062Y-92094526D01*
X149951125Y-92092144D01*
X149951128Y-92092143D01*
X150045377Y-91983373D01*
X150105165Y-91852457D01*
X150112707Y-91800000D01*
X155814353Y-91800000D01*
X155834834Y-91942456D01*
X155853520Y-91983371D01*
X155894623Y-92073373D01*
X155988872Y-92182143D01*
X156109947Y-92259953D01*
X156109950Y-92259954D01*
X156109949Y-92259954D01*
X156248036Y-92300499D01*
X156248038Y-92300500D01*
X156248039Y-92300500D01*
X156391962Y-92300500D01*
X156391962Y-92300499D01*
X156530053Y-92259953D01*
X156651128Y-92182143D01*
X156745377Y-92073373D01*
X156805165Y-91942457D01*
X156825647Y-91800000D01*
X156805165Y-91657543D01*
X156745377Y-91526627D01*
X156651128Y-91417857D01*
X156530053Y-91340047D01*
X156530051Y-91340046D01*
X156530049Y-91340045D01*
X156530050Y-91340045D01*
X156391963Y-91299500D01*
X156391961Y-91299500D01*
X156248039Y-91299500D01*
X156248036Y-91299500D01*
X156109949Y-91340045D01*
X155988873Y-91417856D01*
X155894623Y-91526626D01*
X155894622Y-91526628D01*
X155834834Y-91657543D01*
X155814353Y-91800000D01*
X150112707Y-91800000D01*
X150125647Y-91710000D01*
X150105165Y-91567543D01*
X150045377Y-91436627D01*
X149951128Y-91327857D01*
X149830053Y-91250047D01*
X149830051Y-91250046D01*
X149830049Y-91250045D01*
X149830050Y-91250045D01*
X149691963Y-91209500D01*
X149691961Y-91209500D01*
X149548039Y-91209500D01*
X149548036Y-91209500D01*
X149409949Y-91250045D01*
X149288873Y-91327856D01*
X149194623Y-91436626D01*
X149194622Y-91436628D01*
X149134834Y-91567543D01*
X149114353Y-91710000D01*
X149134834Y-91852456D01*
X149175937Y-91942457D01*
X149194623Y-91983373D01*
X149288872Y-92092143D01*
X149288874Y-92092144D01*
X149290938Y-92094526D01*
X149319963Y-92158082D01*
X149310019Y-92227240D01*
X149272714Y-92274103D01*
X149245205Y-92295212D01*
X149239458Y-92300959D01*
X149237481Y-92298982D01*
X149192022Y-92332157D01*
X149122275Y-92336294D01*
X149062424Y-92303138D01*
X147511819Y-90752533D01*
X147478334Y-90691210D01*
X147475500Y-90664852D01*
X147475500Y-90200000D01*
X151294353Y-90200000D01*
X151314834Y-90342456D01*
X151361485Y-90444606D01*
X151374623Y-90473373D01*
X151468872Y-90582143D01*
X151589947Y-90659953D01*
X151589950Y-90659954D01*
X151589949Y-90659954D01*
X151696400Y-90691210D01*
X151728032Y-90700498D01*
X151728036Y-90700499D01*
X151728038Y-90700500D01*
X151728039Y-90700500D01*
X151871962Y-90700500D01*
X151871962Y-90700499D01*
X152010053Y-90659953D01*
X152072743Y-90619664D01*
X152139777Y-90599981D01*
X152206817Y-90619665D01*
X152233491Y-90642777D01*
X152304568Y-90724805D01*
X152425643Y-90802615D01*
X152425646Y-90802616D01*
X152425645Y-90802616D01*
X152563732Y-90843161D01*
X152563734Y-90843162D01*
X152563735Y-90843162D01*
X152707658Y-90843162D01*
X152707658Y-90843161D01*
X152845749Y-90802615D01*
X152966824Y-90724805D01*
X152984520Y-90704383D01*
X153362077Y-90704383D01*
X153382558Y-90846839D01*
X153442346Y-90977754D01*
X153442347Y-90977756D01*
X153536596Y-91086526D01*
X153657671Y-91164336D01*
X153657674Y-91164337D01*
X153657673Y-91164337D01*
X153795760Y-91204882D01*
X153795762Y-91204883D01*
X153795763Y-91204883D01*
X153939686Y-91204883D01*
X153939686Y-91204882D01*
X154077777Y-91164336D01*
X154198852Y-91086526D01*
X154293101Y-90977756D01*
X154352889Y-90846840D01*
X154358649Y-90806772D01*
X154387672Y-90743218D01*
X154446450Y-90705443D01*
X154463748Y-90701680D01*
X154471952Y-90700500D01*
X154471961Y-90700500D01*
X154610053Y-90659953D01*
X154731128Y-90582143D01*
X154825377Y-90473373D01*
X154885165Y-90342457D01*
X154905647Y-90200000D01*
X154885165Y-90057543D01*
X154825377Y-89926627D01*
X154731128Y-89817857D01*
X154610053Y-89740047D01*
X154610051Y-89740046D01*
X154610049Y-89740045D01*
X154610050Y-89740045D01*
X154471963Y-89699500D01*
X154471961Y-89699500D01*
X154328039Y-89699500D01*
X154328036Y-89699500D01*
X154189949Y-89740045D01*
X154068873Y-89817856D01*
X153974623Y-89926626D01*
X153974622Y-89926628D01*
X153914834Y-90057543D01*
X153909074Y-90097610D01*
X153880049Y-90161166D01*
X153821270Y-90198940D01*
X153803983Y-90202701D01*
X153795759Y-90203883D01*
X153657673Y-90244428D01*
X153536597Y-90322239D01*
X153442347Y-90431009D01*
X153442346Y-90431011D01*
X153382558Y-90561926D01*
X153362077Y-90704383D01*
X152984520Y-90704383D01*
X153061073Y-90616035D01*
X153120861Y-90485119D01*
X153141343Y-90342662D01*
X153120861Y-90200205D01*
X153061073Y-90069289D01*
X152966824Y-89960519D01*
X152845749Y-89882709D01*
X152845747Y-89882708D01*
X152845745Y-89882707D01*
X152845746Y-89882707D01*
X152707659Y-89842162D01*
X152707657Y-89842162D01*
X152563735Y-89842162D01*
X152563732Y-89842162D01*
X152425645Y-89882707D01*
X152362955Y-89922996D01*
X152295916Y-89942680D01*
X152228876Y-89922995D01*
X152202203Y-89899883D01*
X152187237Y-89882611D01*
X152131128Y-89817857D01*
X152010053Y-89740047D01*
X152010051Y-89740046D01*
X152010049Y-89740045D01*
X152010050Y-89740045D01*
X151871963Y-89699500D01*
X151871961Y-89699500D01*
X151728039Y-89699500D01*
X151728036Y-89699500D01*
X151589949Y-89740045D01*
X151468873Y-89817856D01*
X151374623Y-89926626D01*
X151374622Y-89926628D01*
X151314834Y-90057543D01*
X151294353Y-90200000D01*
X147475500Y-90200000D01*
X147475500Y-89877183D01*
X147495185Y-89810144D01*
X147505783Y-89795985D01*
X147525377Y-89773373D01*
X147585165Y-89642457D01*
X147605647Y-89500000D01*
X147585165Y-89357543D01*
X147525377Y-89226627D01*
X147525375Y-89226625D01*
X147525374Y-89226622D01*
X147506813Y-89205202D01*
X147477788Y-89141647D01*
X147487732Y-89072488D01*
X147533487Y-89019684D01*
X147600526Y-89000000D01*
X159050667Y-89000000D01*
X159117706Y-89019685D01*
X159163461Y-89072489D01*
X159173405Y-89141647D01*
X159144380Y-89205203D01*
X159138348Y-89211681D01*
X159072794Y-89277234D01*
X159027415Y-89380006D01*
X159027415Y-89380008D01*
X159024500Y-89405131D01*
X159024500Y-91194856D01*
X159024502Y-91194882D01*
X159027413Y-91219987D01*
X159027415Y-91219991D01*
X159072793Y-91322764D01*
X159072794Y-91322765D01*
X159152235Y-91402206D01*
X159255009Y-91447585D01*
X159280135Y-91450500D01*
X161069864Y-91450499D01*
X161069879Y-91450497D01*
X161069882Y-91450497D01*
X161094987Y-91447586D01*
X161094988Y-91447585D01*
X161094991Y-91447585D01*
X161197765Y-91402206D01*
X161277206Y-91322765D01*
X161322585Y-91219991D01*
X161325500Y-91194865D01*
X161325499Y-90456046D01*
X161345183Y-90389009D01*
X161397987Y-90343254D01*
X161467146Y-90333310D01*
X161530702Y-90362335D01*
X161568476Y-90421113D01*
X161572970Y-90444606D01*
X161575636Y-90473371D01*
X161579244Y-90512310D01*
X161633894Y-90704383D01*
X161637596Y-90717392D01*
X161637596Y-90717394D01*
X161732632Y-90908253D01*
X161785119Y-90977756D01*
X161861128Y-91078407D01*
X162018698Y-91222052D01*
X162199981Y-91334298D01*
X162398802Y-91411321D01*
X162608390Y-91450500D01*
X162608392Y-91450500D01*
X162821608Y-91450500D01*
X162821610Y-91450500D01*
X163031198Y-91411321D01*
X163230019Y-91334298D01*
X163411302Y-91222052D01*
X163568872Y-91078407D01*
X163697366Y-90908255D01*
X163747897Y-90806774D01*
X163792403Y-90717394D01*
X163792403Y-90717393D01*
X163792405Y-90717389D01*
X163850756Y-90512310D01*
X163861529Y-90396047D01*
X163887315Y-90331111D01*
X163931869Y-90299194D01*
X163895497Y-90278331D01*
X163863307Y-90216318D01*
X163861529Y-90203951D01*
X163857564Y-90161166D01*
X163850756Y-90087690D01*
X163792405Y-89882611D01*
X163792403Y-89882606D01*
X163792403Y-89882605D01*
X163697367Y-89691746D01*
X163568872Y-89521593D01*
X163441133Y-89405143D01*
X163411302Y-89377948D01*
X163230019Y-89265702D01*
X163230017Y-89265701D01*
X163206529Y-89256602D01*
X163162708Y-89239626D01*
X163107309Y-89197054D01*
X163083718Y-89131287D01*
X163099429Y-89063207D01*
X163149453Y-89014428D01*
X163207504Y-89000000D01*
X164762496Y-89000000D01*
X164829535Y-89019685D01*
X164875290Y-89072489D01*
X164885234Y-89141647D01*
X164856209Y-89205203D01*
X164807291Y-89239626D01*
X164779907Y-89250234D01*
X164739982Y-89265701D01*
X164739980Y-89265702D01*
X164558699Y-89377947D01*
X164401127Y-89521593D01*
X164272632Y-89691746D01*
X164177596Y-89882605D01*
X164177596Y-89882607D01*
X164119244Y-90087689D01*
X164108471Y-90203951D01*
X164082685Y-90268888D01*
X164038130Y-90300804D01*
X164074503Y-90321668D01*
X164106693Y-90383681D01*
X164108470Y-90396047D01*
X164119244Y-90512310D01*
X164173894Y-90704383D01*
X164177596Y-90717392D01*
X164177596Y-90717394D01*
X164272632Y-90908253D01*
X164325119Y-90977756D01*
X164401128Y-91078407D01*
X164558698Y-91222052D01*
X164739981Y-91334298D01*
X164938802Y-91411321D01*
X165148390Y-91450500D01*
X165148392Y-91450500D01*
X165361608Y-91450500D01*
X165361610Y-91450500D01*
X165571198Y-91411321D01*
X165770019Y-91334298D01*
X165951302Y-91222052D01*
X166108872Y-91078407D01*
X166237366Y-90908255D01*
X166287897Y-90806774D01*
X166332403Y-90717394D01*
X166332403Y-90717393D01*
X166332405Y-90717389D01*
X166390756Y-90512310D01*
X166410429Y-90300000D01*
X166390756Y-90087690D01*
X166332405Y-89882611D01*
X166332403Y-89882606D01*
X166332403Y-89882605D01*
X166237367Y-89691746D01*
X166108872Y-89521593D01*
X165981133Y-89405143D01*
X165951302Y-89377948D01*
X165770019Y-89265702D01*
X165770017Y-89265701D01*
X165746529Y-89256602D01*
X165702708Y-89239626D01*
X165647309Y-89197054D01*
X165623718Y-89131287D01*
X165639429Y-89063207D01*
X165689453Y-89014428D01*
X165747504Y-89000000D01*
X166876000Y-89000000D01*
X166943039Y-89019685D01*
X166988794Y-89072489D01*
X167000000Y-89124000D01*
X167000000Y-110876000D01*
X166980315Y-110943039D01*
X166927511Y-110988794D01*
X166876000Y-111000000D01*
X129924000Y-111000000D01*
X129856961Y-110980315D01*
X129811206Y-110927511D01*
X129800000Y-110876000D01*
X129800000Y-109328249D01*
X139855000Y-109328249D01*
X139855000Y-109471751D01*
X139892141Y-109610362D01*
X139963891Y-109734638D01*
X140065362Y-109836109D01*
X140189638Y-109907859D01*
X140328249Y-109945000D01*
X140328252Y-109945000D01*
X140471748Y-109945000D01*
X140471751Y-109945000D01*
X140610362Y-109907859D01*
X140734638Y-109836109D01*
X140836109Y-109734638D01*
X140907859Y-109610362D01*
X140945000Y-109471751D01*
X140945000Y-109328249D01*
X142852200Y-109328249D01*
X142852200Y-109471751D01*
X142889341Y-109610362D01*
X142961091Y-109734638D01*
X143062562Y-109836109D01*
X143186838Y-109907859D01*
X143325449Y-109945000D01*
X143325452Y-109945000D01*
X143468948Y-109945000D01*
X143468951Y-109945000D01*
X143607562Y-109907859D01*
X143731838Y-109836109D01*
X143833309Y-109734638D01*
X143905059Y-109610362D01*
X143907836Y-109600000D01*
X145984353Y-109600000D01*
X146004834Y-109742456D01*
X146059997Y-109863244D01*
X146064623Y-109873373D01*
X146158872Y-109982143D01*
X146279947Y-110059953D01*
X146279950Y-110059954D01*
X146279949Y-110059954D01*
X146418036Y-110100499D01*
X146418038Y-110100500D01*
X146418039Y-110100500D01*
X146561962Y-110100500D01*
X146561962Y-110100499D01*
X146700053Y-110059953D01*
X146821128Y-109982143D01*
X146915377Y-109873373D01*
X146958588Y-109778753D01*
X147004340Y-109725954D01*
X147071379Y-109706269D01*
X147138419Y-109725953D01*
X147184174Y-109778757D01*
X147191154Y-109798172D01*
X147201319Y-109836109D01*
X147203498Y-109844239D01*
X147214471Y-109863244D01*
X147229823Y-109907599D01*
X147234834Y-109942453D01*
X147234835Y-109942458D01*
X147288494Y-110059953D01*
X147294623Y-110073373D01*
X147388872Y-110182143D01*
X147509947Y-110259953D01*
X147509950Y-110259954D01*
X147509949Y-110259954D01*
X147648036Y-110300499D01*
X147648038Y-110300500D01*
X147648039Y-110300500D01*
X147791962Y-110300500D01*
X147791962Y-110300499D01*
X147930053Y-110259953D01*
X148023342Y-110200000D01*
X148894353Y-110200000D01*
X148914834Y-110342456D01*
X148932959Y-110382143D01*
X148974623Y-110473373D01*
X149068872Y-110582143D01*
X149189947Y-110659953D01*
X149189950Y-110659954D01*
X149189949Y-110659954D01*
X149328036Y-110700499D01*
X149328038Y-110700500D01*
X149328039Y-110700500D01*
X149471962Y-110700500D01*
X149471962Y-110700499D01*
X149610053Y-110659953D01*
X149731128Y-110582143D01*
X149825377Y-110473373D01*
X149885165Y-110342457D01*
X149905647Y-110200000D01*
X149885165Y-110057543D01*
X149858886Y-110000000D01*
X161794353Y-110000000D01*
X161814834Y-110142456D01*
X161832959Y-110182143D01*
X161874623Y-110273373D01*
X161968872Y-110382143D01*
X162089947Y-110459953D01*
X162089950Y-110459954D01*
X162089949Y-110459954D01*
X162228036Y-110500499D01*
X162228038Y-110500500D01*
X162228039Y-110500500D01*
X162371962Y-110500500D01*
X162371962Y-110500499D01*
X162510053Y-110459953D01*
X162631128Y-110382143D01*
X162725377Y-110273373D01*
X162785165Y-110142457D01*
X162805647Y-110000000D01*
X164494353Y-110000000D01*
X164514834Y-110142456D01*
X164532959Y-110182143D01*
X164574623Y-110273373D01*
X164668872Y-110382143D01*
X164789947Y-110459953D01*
X164789950Y-110459954D01*
X164789949Y-110459954D01*
X164928036Y-110500499D01*
X164928038Y-110500500D01*
X164928039Y-110500500D01*
X165071962Y-110500500D01*
X165071962Y-110500499D01*
X165210053Y-110459953D01*
X165331128Y-110382143D01*
X165425377Y-110273373D01*
X165485165Y-110142457D01*
X165505647Y-110000000D01*
X165485165Y-109857543D01*
X165425377Y-109726627D01*
X165331128Y-109617857D01*
X165210053Y-109540047D01*
X165210051Y-109540046D01*
X165210049Y-109540045D01*
X165210050Y-109540045D01*
X165071963Y-109499500D01*
X165071961Y-109499500D01*
X164928039Y-109499500D01*
X164928036Y-109499500D01*
X164789949Y-109540045D01*
X164668873Y-109617856D01*
X164574623Y-109726626D01*
X164574622Y-109726628D01*
X164514834Y-109857543D01*
X164494353Y-110000000D01*
X162805647Y-110000000D01*
X162785165Y-109857543D01*
X162725377Y-109726627D01*
X162631128Y-109617857D01*
X162510053Y-109540047D01*
X162510051Y-109540046D01*
X162510049Y-109540045D01*
X162510050Y-109540045D01*
X162371963Y-109499500D01*
X162371961Y-109499500D01*
X162228039Y-109499500D01*
X162228036Y-109499500D01*
X162089949Y-109540045D01*
X161968873Y-109617856D01*
X161874623Y-109726626D01*
X161874622Y-109726628D01*
X161814834Y-109857543D01*
X161794353Y-110000000D01*
X149858886Y-110000000D01*
X149825377Y-109926627D01*
X149731128Y-109817857D01*
X149610053Y-109740047D01*
X149610051Y-109740046D01*
X149610049Y-109740045D01*
X149610050Y-109740045D01*
X149471963Y-109699500D01*
X149471961Y-109699500D01*
X149328039Y-109699500D01*
X149328036Y-109699500D01*
X149189949Y-109740045D01*
X149068873Y-109817856D01*
X148974623Y-109926626D01*
X148974622Y-109926628D01*
X148914834Y-110057543D01*
X148894353Y-110200000D01*
X148023342Y-110200000D01*
X148051128Y-110182143D01*
X148145377Y-110073373D01*
X148205165Y-109942457D01*
X148225647Y-109800000D01*
X148205165Y-109657543D01*
X148145377Y-109526627D01*
X148051128Y-109417857D01*
X148016581Y-109395655D01*
X147930051Y-109340045D01*
X147806172Y-109303672D01*
X147779108Y-109292083D01*
X147764237Y-109283497D01*
X147656018Y-109254500D01*
X147543982Y-109254500D01*
X147435763Y-109283497D01*
X147435760Y-109283498D01*
X147338740Y-109339513D01*
X147338734Y-109339517D01*
X147259517Y-109418734D01*
X147259515Y-109418737D01*
X147206528Y-109510512D01*
X147155960Y-109558727D01*
X147087353Y-109571949D01*
X147022488Y-109545981D01*
X146981961Y-109489066D01*
X146976404Y-109466162D01*
X146975165Y-109457543D01*
X146915377Y-109326627D01*
X146821128Y-109217857D01*
X146700053Y-109140047D01*
X146700051Y-109140046D01*
X146700049Y-109140045D01*
X146700050Y-109140045D01*
X146561963Y-109099500D01*
X146561961Y-109099500D01*
X146418039Y-109099500D01*
X146418036Y-109099500D01*
X146279949Y-109140045D01*
X146158873Y-109217856D01*
X146064623Y-109326626D01*
X146064622Y-109326628D01*
X146004834Y-109457543D01*
X145984353Y-109600000D01*
X143907836Y-109600000D01*
X143942200Y-109471751D01*
X143942200Y-109328249D01*
X143905059Y-109189638D01*
X143833309Y-109065362D01*
X143731838Y-108963891D01*
X143607562Y-108892141D01*
X143607563Y-108892141D01*
X143572909Y-108882855D01*
X143468951Y-108855000D01*
X143325449Y-108855000D01*
X143221490Y-108882855D01*
X143186837Y-108892141D01*
X143062563Y-108963890D01*
X143062560Y-108963892D01*
X142961092Y-109065360D01*
X142961090Y-109065363D01*
X142889341Y-109189637D01*
X142889341Y-109189638D01*
X142852200Y-109328249D01*
X140945000Y-109328249D01*
X140907859Y-109189638D01*
X140836109Y-109065362D01*
X140734638Y-108963891D01*
X140610362Y-108892141D01*
X140610363Y-108892141D01*
X140575709Y-108882855D01*
X140471751Y-108855000D01*
X140328249Y-108855000D01*
X140224290Y-108882855D01*
X140189637Y-108892141D01*
X140065363Y-108963890D01*
X140065360Y-108963892D01*
X139963892Y-109065360D01*
X139963890Y-109065363D01*
X139892141Y-109189637D01*
X139892141Y-109189638D01*
X139855000Y-109328249D01*
X129800000Y-109328249D01*
X129800000Y-108074333D01*
X129819685Y-108007294D01*
X129872489Y-107961539D01*
X129941647Y-107951595D01*
X130005203Y-107980620D01*
X130011681Y-107986652D01*
X130077235Y-108052206D01*
X130180009Y-108097585D01*
X130205135Y-108100500D01*
X131994864Y-108100499D01*
X131994879Y-108100497D01*
X131994882Y-108100497D01*
X132019987Y-108097586D01*
X132019988Y-108097585D01*
X132019991Y-108097585D01*
X132122765Y-108052206D01*
X132202206Y-107972765D01*
X132247583Y-107869996D01*
X133644435Y-107869996D01*
X133644435Y-107870003D01*
X133664630Y-108049249D01*
X133664631Y-108049254D01*
X133724211Y-108219523D01*
X133804976Y-108348058D01*
X133820184Y-108372262D01*
X133947738Y-108499816D01*
X134016091Y-108542765D01*
X134075857Y-108580319D01*
X134100478Y-108595789D01*
X134270745Y-108655368D01*
X134270750Y-108655369D01*
X134449996Y-108675565D01*
X134450000Y-108675565D01*
X134450004Y-108675565D01*
X134629249Y-108655369D01*
X134629252Y-108655368D01*
X134629255Y-108655368D01*
X134799522Y-108595789D01*
X134851694Y-108563006D01*
X134918931Y-108544006D01*
X134985766Y-108564373D01*
X135005348Y-108580319D01*
X135047235Y-108622206D01*
X135150009Y-108667585D01*
X135175135Y-108670500D01*
X136264864Y-108670499D01*
X136264879Y-108670497D01*
X136264882Y-108670497D01*
X136289987Y-108667586D01*
X136289988Y-108667585D01*
X136289991Y-108667585D01*
X136392765Y-108622206D01*
X136472206Y-108542765D01*
X136517585Y-108439991D01*
X136520500Y-108414865D01*
X136520499Y-107325136D01*
X136520497Y-107325117D01*
X136517586Y-107300012D01*
X136517585Y-107300010D01*
X136517585Y-107300009D01*
X136473427Y-107200000D01*
X145094353Y-107200000D01*
X145114834Y-107342456D01*
X145171595Y-107466742D01*
X145174623Y-107473373D01*
X145268872Y-107582143D01*
X145389947Y-107659953D01*
X145389950Y-107659954D01*
X145389949Y-107659954D01*
X145528036Y-107700499D01*
X145528038Y-107700500D01*
X145528039Y-107700500D01*
X145671962Y-107700500D01*
X145671962Y-107700499D01*
X145810053Y-107659953D01*
X145931128Y-107582143D01*
X146025377Y-107473373D01*
X146085165Y-107342457D01*
X146105647Y-107200000D01*
X146085165Y-107057543D01*
X146025377Y-106926627D01*
X145931128Y-106817857D01*
X145810053Y-106740047D01*
X145810051Y-106740046D01*
X145810049Y-106740045D01*
X145810050Y-106740045D01*
X145671963Y-106699500D01*
X145671961Y-106699500D01*
X145528039Y-106699500D01*
X145528036Y-106699500D01*
X145389949Y-106740045D01*
X145268873Y-106817856D01*
X145174623Y-106926626D01*
X145174622Y-106926628D01*
X145114834Y-107057543D01*
X145094353Y-107200000D01*
X136473427Y-107200000D01*
X136472206Y-107197235D01*
X136392765Y-107117794D01*
X136351333Y-107099500D01*
X136289992Y-107072415D01*
X136264865Y-107069500D01*
X135175143Y-107069500D01*
X135175117Y-107069502D01*
X135150012Y-107072413D01*
X135150008Y-107072415D01*
X135047235Y-107117793D01*
X135047233Y-107117794D01*
X135005347Y-107159681D01*
X134944024Y-107193165D01*
X134874332Y-107188180D01*
X134851696Y-107176993D01*
X134799521Y-107144209D01*
X134629262Y-107084633D01*
X134629249Y-107084630D01*
X134450004Y-107064435D01*
X134449996Y-107064435D01*
X134270750Y-107084630D01*
X134270745Y-107084631D01*
X134100476Y-107144211D01*
X133947737Y-107240184D01*
X133820184Y-107367737D01*
X133724211Y-107520476D01*
X133664631Y-107690745D01*
X133664630Y-107690750D01*
X133644435Y-107869996D01*
X132247583Y-107869996D01*
X132247585Y-107869991D01*
X132250500Y-107844865D01*
X132250499Y-106055136D01*
X132250497Y-106055117D01*
X132247586Y-106030012D01*
X132247585Y-106030010D01*
X132247585Y-106030009D01*
X132202206Y-105927235D01*
X132122765Y-105847794D01*
X132122763Y-105847793D01*
X132019992Y-105802415D01*
X131994868Y-105799500D01*
X131266243Y-105799500D01*
X131199204Y-105779815D01*
X131153449Y-105727011D01*
X131143505Y-105657853D01*
X131172530Y-105594297D01*
X131231308Y-105556523D01*
X131243441Y-105553614D01*
X131416198Y-105521321D01*
X131615019Y-105444298D01*
X131796302Y-105332052D01*
X131941155Y-105200000D01*
X139594353Y-105200000D01*
X139614834Y-105342456D01*
X139659382Y-105440000D01*
X139674623Y-105473373D01*
X139768872Y-105582143D01*
X139889947Y-105659953D01*
X139889950Y-105659954D01*
X139889949Y-105659954D01*
X140028036Y-105700499D01*
X140028038Y-105700500D01*
X140028039Y-105700500D01*
X140171962Y-105700500D01*
X140171962Y-105700499D01*
X140310053Y-105659953D01*
X140431128Y-105582143D01*
X140525377Y-105473373D01*
X140540618Y-105440000D01*
X142824353Y-105440000D01*
X142844834Y-105582456D01*
X142898744Y-105700500D01*
X142904623Y-105713373D01*
X142998872Y-105822143D01*
X143119947Y-105899953D01*
X143119950Y-105899954D01*
X143119949Y-105899954D01*
X143258036Y-105940499D01*
X143258038Y-105940500D01*
X143258039Y-105940500D01*
X143401962Y-105940500D01*
X143401962Y-105940499D01*
X143509121Y-105909035D01*
X143540050Y-105899954D01*
X143540050Y-105899953D01*
X143540053Y-105899953D01*
X143661128Y-105822143D01*
X143755377Y-105713373D01*
X143815165Y-105582457D01*
X143835647Y-105440000D01*
X143815165Y-105297543D01*
X143755377Y-105166627D01*
X143661128Y-105057857D01*
X143540053Y-104980047D01*
X143540051Y-104980046D01*
X143540049Y-104980045D01*
X143540050Y-104980045D01*
X143401963Y-104939500D01*
X143401961Y-104939500D01*
X143258039Y-104939500D01*
X143258036Y-104939500D01*
X143119949Y-104980045D01*
X142998873Y-105057856D01*
X142904623Y-105166626D01*
X142904622Y-105166628D01*
X142844834Y-105297543D01*
X142824353Y-105440000D01*
X140540618Y-105440000D01*
X140585165Y-105342457D01*
X140605647Y-105200000D01*
X140585165Y-105057543D01*
X140525377Y-104926627D01*
X140431128Y-104817857D01*
X140310053Y-104740047D01*
X140310051Y-104740046D01*
X140310049Y-104740045D01*
X140310050Y-104740045D01*
X140171963Y-104699500D01*
X140171961Y-104699500D01*
X140028039Y-104699500D01*
X140028036Y-104699500D01*
X139889949Y-104740045D01*
X139768873Y-104817856D01*
X139674623Y-104926626D01*
X139674622Y-104926628D01*
X139614834Y-105057543D01*
X139594353Y-105200000D01*
X131941155Y-105200000D01*
X131953872Y-105188407D01*
X132082366Y-105018255D01*
X132101392Y-104980045D01*
X132177403Y-104827394D01*
X132177403Y-104827393D01*
X132177405Y-104827389D01*
X132235756Y-104622310D01*
X132255429Y-104410000D01*
X132254036Y-104394972D01*
X132252848Y-104382143D01*
X132235756Y-104197690D01*
X132177405Y-103992611D01*
X132177403Y-103992606D01*
X132177403Y-103992605D01*
X132082367Y-103801746D01*
X132081048Y-103800000D01*
X136194353Y-103800000D01*
X136214834Y-103942456D01*
X136260504Y-104042457D01*
X136274623Y-104073373D01*
X136368872Y-104182143D01*
X136489947Y-104259953D01*
X136489950Y-104259954D01*
X136489949Y-104259954D01*
X136565520Y-104282143D01*
X136617968Y-104297543D01*
X136628036Y-104300499D01*
X136628038Y-104300500D01*
X136628039Y-104300500D01*
X136771961Y-104300500D01*
X136855418Y-104275995D01*
X136925288Y-104275995D01*
X136984066Y-104313769D01*
X137013091Y-104377325D01*
X137014353Y-104394972D01*
X137014353Y-104399999D01*
X137034834Y-104542456D01*
X137069269Y-104617857D01*
X137094623Y-104673373D01*
X137188872Y-104782143D01*
X137309947Y-104859953D01*
X137309950Y-104859954D01*
X137309949Y-104859954D01*
X137384025Y-104881704D01*
X137446179Y-104899954D01*
X137448036Y-104900499D01*
X137448038Y-104900500D01*
X137448039Y-104900500D01*
X137591962Y-104900500D01*
X137591962Y-104900499D01*
X137730053Y-104859953D01*
X137851128Y-104782143D01*
X137945377Y-104673373D01*
X138005165Y-104542457D01*
X138025647Y-104400000D01*
X138005165Y-104257543D01*
X137945377Y-104126627D01*
X137851128Y-104017857D01*
X137730053Y-103940047D01*
X137730051Y-103940046D01*
X137730049Y-103940045D01*
X137730050Y-103940045D01*
X137591963Y-103899500D01*
X137591961Y-103899500D01*
X137448039Y-103899500D01*
X137448035Y-103899500D01*
X137364581Y-103924004D01*
X137294711Y-103924004D01*
X137235933Y-103886229D01*
X137206909Y-103822673D01*
X137205647Y-103805027D01*
X137205647Y-103800000D01*
X137185165Y-103657543D01*
X137171046Y-103626627D01*
X137125377Y-103526627D01*
X137031128Y-103417857D01*
X136910053Y-103340047D01*
X136910051Y-103340046D01*
X136910049Y-103340045D01*
X136910050Y-103340045D01*
X136771963Y-103299500D01*
X136771961Y-103299500D01*
X136628039Y-103299500D01*
X136628036Y-103299500D01*
X136489949Y-103340045D01*
X136368873Y-103417856D01*
X136274623Y-103526626D01*
X136274622Y-103526628D01*
X136214834Y-103657543D01*
X136194353Y-103800000D01*
X132081048Y-103800000D01*
X131953872Y-103631593D01*
X131939152Y-103618174D01*
X131796302Y-103487948D01*
X131615019Y-103375702D01*
X131615017Y-103375701D01*
X131489332Y-103327011D01*
X131416198Y-103298679D01*
X131219385Y-103261888D01*
X131157106Y-103230221D01*
X131121833Y-103169908D01*
X131124767Y-103100100D01*
X131164976Y-103042960D01*
X131219384Y-103018111D01*
X131416198Y-102981321D01*
X131615019Y-102904298D01*
X131796302Y-102792052D01*
X131953872Y-102648407D01*
X132082366Y-102478255D01*
X132157867Y-102326627D01*
X132177403Y-102287394D01*
X132177403Y-102287393D01*
X132177405Y-102287389D01*
X132235756Y-102082310D01*
X132255429Y-101870000D01*
X132235756Y-101657690D01*
X132177405Y-101452611D01*
X132177403Y-101452606D01*
X132177403Y-101452605D01*
X132082367Y-101261746D01*
X131953872Y-101091593D01*
X131933886Y-101073373D01*
X131796302Y-100947948D01*
X131615019Y-100835702D01*
X131615017Y-100835701D01*
X131522861Y-100800000D01*
X136994353Y-100800000D01*
X137014834Y-100942456D01*
X137074622Y-101073371D01*
X137074623Y-101073373D01*
X137168872Y-101182143D01*
X137289947Y-101259953D01*
X137289950Y-101259954D01*
X137289949Y-101259954D01*
X137397107Y-101291417D01*
X137426336Y-101300000D01*
X137428036Y-101300499D01*
X137428038Y-101300500D01*
X137428039Y-101300500D01*
X137571962Y-101300500D01*
X137571962Y-101300499D01*
X137710053Y-101259953D01*
X137831128Y-101182143D01*
X137925377Y-101073373D01*
X137985165Y-100942457D01*
X138005647Y-100800000D01*
X137985165Y-100657543D01*
X137925377Y-100526627D01*
X137831128Y-100417857D01*
X137710053Y-100340047D01*
X137710051Y-100340046D01*
X137710049Y-100340045D01*
X137710050Y-100340045D01*
X137571963Y-100299500D01*
X137571961Y-100299500D01*
X137428039Y-100299500D01*
X137428036Y-100299500D01*
X137289949Y-100340045D01*
X137168873Y-100417856D01*
X137074623Y-100526626D01*
X137074622Y-100526628D01*
X137014834Y-100657543D01*
X136994353Y-100800000D01*
X131522861Y-100800000D01*
X131503387Y-100792456D01*
X131416198Y-100758679D01*
X131219385Y-100721888D01*
X131157106Y-100690221D01*
X131121833Y-100629908D01*
X131124767Y-100560100D01*
X131164976Y-100502960D01*
X131219384Y-100478111D01*
X131416198Y-100441321D01*
X131615019Y-100364298D01*
X131796302Y-100252052D01*
X131953872Y-100108407D01*
X132082366Y-99938255D01*
X132121355Y-99859954D01*
X132177403Y-99747394D01*
X132177403Y-99747393D01*
X132177405Y-99747389D01*
X132235756Y-99542310D01*
X132255429Y-99330000D01*
X132243383Y-99200000D01*
X136294353Y-99200000D01*
X136314834Y-99342456D01*
X136371640Y-99466841D01*
X136374623Y-99473373D01*
X136468872Y-99582143D01*
X136589947Y-99659953D01*
X136589950Y-99659954D01*
X136589949Y-99659954D01*
X136728036Y-99700499D01*
X136728038Y-99700500D01*
X136728039Y-99700500D01*
X136871962Y-99700500D01*
X136871962Y-99700499D01*
X136992752Y-99665033D01*
X137010050Y-99659954D01*
X137010050Y-99659953D01*
X137010053Y-99659953D01*
X137131128Y-99582143D01*
X137225377Y-99473373D01*
X137258886Y-99400000D01*
X143894353Y-99400000D01*
X143914834Y-99542456D01*
X143927942Y-99571157D01*
X143974623Y-99673373D01*
X144068872Y-99782143D01*
X144189947Y-99859953D01*
X144189950Y-99859954D01*
X144189949Y-99859954D01*
X144328036Y-99900499D01*
X144328038Y-99900500D01*
X144328039Y-99900500D01*
X144471962Y-99900500D01*
X144471962Y-99900499D01*
X144610053Y-99859953D01*
X144731128Y-99782143D01*
X144825377Y-99673373D01*
X144885165Y-99542457D01*
X144905647Y-99400000D01*
X144885165Y-99257543D01*
X144825377Y-99126627D01*
X144731128Y-99017857D01*
X144610053Y-98940047D01*
X144610051Y-98940046D01*
X144610049Y-98940045D01*
X144610050Y-98940045D01*
X144471963Y-98899500D01*
X144471961Y-98899500D01*
X144328039Y-98899500D01*
X144328036Y-98899500D01*
X144189949Y-98940045D01*
X144068873Y-99017856D01*
X143974623Y-99126626D01*
X143974622Y-99126628D01*
X143914834Y-99257543D01*
X143894353Y-99400000D01*
X137258886Y-99400000D01*
X137285165Y-99342457D01*
X137305647Y-99200000D01*
X137285165Y-99057543D01*
X137225377Y-98926627D01*
X137131128Y-98817857D01*
X137010053Y-98740047D01*
X137010051Y-98740046D01*
X137010049Y-98740045D01*
X137010050Y-98740045D01*
X136871963Y-98699500D01*
X136871961Y-98699500D01*
X136728039Y-98699500D01*
X136728036Y-98699500D01*
X136589949Y-98740045D01*
X136468873Y-98817856D01*
X136374623Y-98926626D01*
X136374622Y-98926628D01*
X136314834Y-99057543D01*
X136294353Y-99200000D01*
X132243383Y-99200000D01*
X132235756Y-99117690D01*
X132177405Y-98912611D01*
X132177403Y-98912606D01*
X132177403Y-98912605D01*
X132082367Y-98721746D01*
X131953872Y-98551593D01*
X131892961Y-98496065D01*
X131796302Y-98407948D01*
X131615019Y-98295702D01*
X131615017Y-98295701D01*
X131484618Y-98245185D01*
X131416198Y-98218679D01*
X131219385Y-98181888D01*
X131157106Y-98150221D01*
X131121833Y-98089908D01*
X131124767Y-98020100D01*
X131164976Y-97962960D01*
X131219384Y-97938111D01*
X131416198Y-97901321D01*
X131615019Y-97824298D01*
X131796302Y-97712052D01*
X131953872Y-97568407D01*
X132082366Y-97398255D01*
X132090389Y-97382143D01*
X132177403Y-97207394D01*
X132177403Y-97207393D01*
X132177405Y-97207389D01*
X132235756Y-97002310D01*
X132255429Y-96790000D01*
X132235756Y-96577690D01*
X132177405Y-96372611D01*
X132177403Y-96372606D01*
X132177403Y-96372605D01*
X132082367Y-96181746D01*
X131953872Y-96011593D01*
X131889750Y-95953138D01*
X131796302Y-95867948D01*
X131615019Y-95755702D01*
X131615017Y-95755701D01*
X131502574Y-95712141D01*
X131416198Y-95678679D01*
X131219385Y-95641888D01*
X131157106Y-95610221D01*
X131121833Y-95549908D01*
X131124767Y-95480100D01*
X131164976Y-95422960D01*
X131219384Y-95398111D01*
X131416198Y-95361321D01*
X131615019Y-95284298D01*
X131796302Y-95172052D01*
X131953872Y-95028407D01*
X132082366Y-94858255D01*
X132104718Y-94813366D01*
X132177403Y-94667394D01*
X132177403Y-94667393D01*
X132177405Y-94667389D01*
X132235756Y-94462310D01*
X132255429Y-94250000D01*
X132235756Y-94037690D01*
X132177405Y-93832611D01*
X132177403Y-93832606D01*
X132177403Y-93832605D01*
X132082367Y-93641746D01*
X131953872Y-93471593D01*
X131910941Y-93432456D01*
X131796302Y-93327948D01*
X131615019Y-93215702D01*
X131615017Y-93215701D01*
X131502966Y-93172293D01*
X131416198Y-93138679D01*
X131206610Y-93099500D01*
X130993390Y-93099500D01*
X130783802Y-93138679D01*
X130783799Y-93138679D01*
X130783799Y-93138680D01*
X130584982Y-93215701D01*
X130584980Y-93215702D01*
X130403699Y-93327947D01*
X130246127Y-93471593D01*
X130117632Y-93641746D01*
X130035000Y-93807697D01*
X129987498Y-93858934D01*
X129919835Y-93876356D01*
X129853494Y-93854431D01*
X129809539Y-93800120D01*
X129800000Y-93752426D01*
X129800000Y-91044071D01*
X134699499Y-91044071D01*
X134724497Y-91169738D01*
X134724499Y-91169744D01*
X134773533Y-91288124D01*
X134773538Y-91288133D01*
X134844723Y-91394668D01*
X134844726Y-91394672D01*
X134935327Y-91485273D01*
X134935331Y-91485276D01*
X135041866Y-91556461D01*
X135041872Y-91556464D01*
X135041873Y-91556465D01*
X135160256Y-91605501D01*
X135160260Y-91605501D01*
X135160261Y-91605502D01*
X135285928Y-91630500D01*
X135285931Y-91630500D01*
X135414071Y-91630500D01*
X135498615Y-91613682D01*
X135539744Y-91605501D01*
X135658127Y-91556465D01*
X135764669Y-91485276D01*
X135855276Y-91394669D01*
X135926465Y-91288127D01*
X135975501Y-91169744D01*
X136000500Y-91044071D01*
X143349499Y-91044071D01*
X143374497Y-91169738D01*
X143374499Y-91169744D01*
X143423533Y-91288124D01*
X143423538Y-91288133D01*
X143494723Y-91394668D01*
X143494726Y-91394672D01*
X143585327Y-91485273D01*
X143585331Y-91485276D01*
X143691866Y-91556461D01*
X143691872Y-91556464D01*
X143691873Y-91556465D01*
X143810256Y-91605501D01*
X143810260Y-91605501D01*
X143810261Y-91605502D01*
X143935928Y-91630500D01*
X143935931Y-91630500D01*
X144064071Y-91630500D01*
X144148615Y-91613682D01*
X144189744Y-91605501D01*
X144308127Y-91556465D01*
X144414669Y-91485276D01*
X144505276Y-91394669D01*
X144576465Y-91288127D01*
X144625501Y-91169744D01*
X144650500Y-91044069D01*
X144650500Y-90115931D01*
X144650500Y-90115928D01*
X144625502Y-89990261D01*
X144625501Y-89990260D01*
X144625501Y-89990256D01*
X144587574Y-89898692D01*
X144576466Y-89871875D01*
X144576461Y-89871866D01*
X144505276Y-89765331D01*
X144505273Y-89765327D01*
X144414672Y-89674726D01*
X144414668Y-89674723D01*
X144308133Y-89603538D01*
X144308124Y-89603533D01*
X144189744Y-89554499D01*
X144189738Y-89554497D01*
X144064071Y-89529500D01*
X144064069Y-89529500D01*
X143935931Y-89529500D01*
X143935929Y-89529500D01*
X143810261Y-89554497D01*
X143810255Y-89554499D01*
X143691875Y-89603533D01*
X143691866Y-89603538D01*
X143585331Y-89674723D01*
X143585327Y-89674726D01*
X143494726Y-89765327D01*
X143494723Y-89765331D01*
X143423538Y-89871866D01*
X143423533Y-89871875D01*
X143374499Y-89990255D01*
X143374497Y-89990261D01*
X143349500Y-90115928D01*
X143349500Y-90115931D01*
X143349500Y-91044069D01*
X143349500Y-91044071D01*
X143349499Y-91044071D01*
X136000500Y-91044071D01*
X136000500Y-91044069D01*
X136000500Y-90115931D01*
X136000500Y-90115928D01*
X135975502Y-89990261D01*
X135975501Y-89990260D01*
X135975501Y-89990256D01*
X135937574Y-89898692D01*
X135926466Y-89871875D01*
X135926461Y-89871866D01*
X135855276Y-89765331D01*
X135855273Y-89765327D01*
X135764672Y-89674726D01*
X135764668Y-89674723D01*
X135658133Y-89603538D01*
X135658124Y-89603533D01*
X135539744Y-89554499D01*
X135539738Y-89554497D01*
X135414071Y-89529500D01*
X135414069Y-89529500D01*
X135285931Y-89529500D01*
X135285929Y-89529500D01*
X135160261Y-89554497D01*
X135160255Y-89554499D01*
X135041875Y-89603533D01*
X135041866Y-89603538D01*
X134935331Y-89674723D01*
X134935327Y-89674726D01*
X134844726Y-89765327D01*
X134844723Y-89765331D01*
X134773538Y-89871866D01*
X134773533Y-89871875D01*
X134724499Y-89990255D01*
X134724497Y-89990261D01*
X134699500Y-90115928D01*
X134699500Y-90115931D01*
X134699500Y-91044069D01*
X134699500Y-91044071D01*
X134699499Y-91044071D01*
X129800000Y-91044071D01*
X129800000Y-89124000D01*
X129819685Y-89056961D01*
X129872489Y-89011206D01*
X129924000Y-89000000D01*
X145024474Y-89000000D01*
X145091513Y-89019685D01*
G37*
%TD.AperFunction*%
%TD*%
M02*
