%TF.GenerationSoftware,KiCad,Pcbnew,8.0.2-1*%
%TF.CreationDate,2024-06-13T15:13:00+09:00*%
%TF.ProjectId,eeg,6565672e-6b69-4636-9164-5f7063625858,rev?*%
%TF.SameCoordinates,Original*%
%TF.FileFunction,Legend,Top*%
%TF.FilePolarity,Positive*%
%FSLAX46Y46*%
G04 Gerber Fmt 4.6, Leading zero omitted, Abs format (unit mm)*
G04 Created by KiCad (PCBNEW 8.0.2-1) date 2024-06-13 15:13:00*
%MOMM*%
%LPD*%
G01*
G04 APERTURE LIST*
%ADD10C,0.150000*%
%ADD11C,0.080000*%
%ADD12C,0.120000*%
%ADD13C,0.200000*%
%ADD14C,0.250000*%
G04 APERTURE END LIST*
D10*
X153424819Y-112933333D02*
X154139104Y-112933333D01*
X154139104Y-112933333D02*
X154281961Y-112980952D01*
X154281961Y-112980952D02*
X154377200Y-113076190D01*
X154377200Y-113076190D02*
X154424819Y-113219047D01*
X154424819Y-113219047D02*
X154424819Y-113314285D01*
X153520057Y-112504761D02*
X153472438Y-112457142D01*
X153472438Y-112457142D02*
X153424819Y-112361904D01*
X153424819Y-112361904D02*
X153424819Y-112123809D01*
X153424819Y-112123809D02*
X153472438Y-112028571D01*
X153472438Y-112028571D02*
X153520057Y-111980952D01*
X153520057Y-111980952D02*
X153615295Y-111933333D01*
X153615295Y-111933333D02*
X153710533Y-111933333D01*
X153710533Y-111933333D02*
X153853390Y-111980952D01*
X153853390Y-111980952D02*
X154424819Y-112552380D01*
X154424819Y-112552380D02*
X154424819Y-111933333D01*
D11*
X141799744Y-92114999D02*
X141837840Y-92131666D01*
X141837840Y-92131666D02*
X141875935Y-92181666D01*
X141875935Y-92181666D02*
X141875935Y-92214999D01*
X141875935Y-92214999D02*
X141837840Y-92264999D01*
X141837840Y-92264999D02*
X141761649Y-92298333D01*
X141761649Y-92298333D02*
X141685459Y-92314999D01*
X141685459Y-92314999D02*
X141533078Y-92331666D01*
X141533078Y-92331666D02*
X141418792Y-92331666D01*
X141418792Y-92331666D02*
X141266411Y-92314999D01*
X141266411Y-92314999D02*
X141190220Y-92298333D01*
X141190220Y-92298333D02*
X141114030Y-92264999D01*
X141114030Y-92264999D02*
X141075935Y-92214999D01*
X141075935Y-92214999D02*
X141075935Y-92181666D01*
X141075935Y-92181666D02*
X141114030Y-92131666D01*
X141114030Y-92131666D02*
X141152125Y-92114999D01*
X141152125Y-91981666D02*
X141114030Y-91964999D01*
X141114030Y-91964999D02*
X141075935Y-91931666D01*
X141075935Y-91931666D02*
X141075935Y-91848333D01*
X141075935Y-91848333D02*
X141114030Y-91814999D01*
X141114030Y-91814999D02*
X141152125Y-91798333D01*
X141152125Y-91798333D02*
X141228316Y-91781666D01*
X141228316Y-91781666D02*
X141304506Y-91781666D01*
X141304506Y-91781666D02*
X141418792Y-91798333D01*
X141418792Y-91798333D02*
X141875935Y-91998333D01*
X141875935Y-91998333D02*
X141875935Y-91781666D01*
X141875935Y-91615000D02*
X141875935Y-91548333D01*
X141875935Y-91548333D02*
X141837840Y-91515000D01*
X141837840Y-91515000D02*
X141799744Y-91498333D01*
X141799744Y-91498333D02*
X141685459Y-91465000D01*
X141685459Y-91465000D02*
X141533078Y-91448333D01*
X141533078Y-91448333D02*
X141228316Y-91448333D01*
X141228316Y-91448333D02*
X141152125Y-91465000D01*
X141152125Y-91465000D02*
X141114030Y-91481666D01*
X141114030Y-91481666D02*
X141075935Y-91515000D01*
X141075935Y-91515000D02*
X141075935Y-91581666D01*
X141075935Y-91581666D02*
X141114030Y-91615000D01*
X141114030Y-91615000D02*
X141152125Y-91631666D01*
X141152125Y-91631666D02*
X141228316Y-91648333D01*
X141228316Y-91648333D02*
X141418792Y-91648333D01*
X141418792Y-91648333D02*
X141494982Y-91631666D01*
X141494982Y-91631666D02*
X141533078Y-91615000D01*
X141533078Y-91615000D02*
X141571173Y-91581666D01*
X141571173Y-91581666D02*
X141571173Y-91515000D01*
X141571173Y-91515000D02*
X141533078Y-91481666D01*
X141533078Y-91481666D02*
X141494982Y-91465000D01*
X141494982Y-91465000D02*
X141418792Y-91448333D01*
X143575000Y-99889744D02*
X143558333Y-99927840D01*
X143558333Y-99927840D02*
X143508333Y-99965935D01*
X143508333Y-99965935D02*
X143475000Y-99965935D01*
X143475000Y-99965935D02*
X143425000Y-99927840D01*
X143425000Y-99927840D02*
X143391667Y-99851649D01*
X143391667Y-99851649D02*
X143375000Y-99775459D01*
X143375000Y-99775459D02*
X143358333Y-99623078D01*
X143358333Y-99623078D02*
X143358333Y-99508792D01*
X143358333Y-99508792D02*
X143375000Y-99356411D01*
X143375000Y-99356411D02*
X143391667Y-99280220D01*
X143391667Y-99280220D02*
X143425000Y-99204030D01*
X143425000Y-99204030D02*
X143475000Y-99165935D01*
X143475000Y-99165935D02*
X143508333Y-99165935D01*
X143508333Y-99165935D02*
X143558333Y-99204030D01*
X143558333Y-99204030D02*
X143575000Y-99242125D01*
X143875000Y-99432601D02*
X143875000Y-99965935D01*
X143791667Y-99127840D02*
X143708333Y-99699268D01*
X143708333Y-99699268D02*
X143925000Y-99699268D01*
X144041666Y-99242125D02*
X144058333Y-99204030D01*
X144058333Y-99204030D02*
X144091666Y-99165935D01*
X144091666Y-99165935D02*
X144175000Y-99165935D01*
X144175000Y-99165935D02*
X144208333Y-99204030D01*
X144208333Y-99204030D02*
X144225000Y-99242125D01*
X144225000Y-99242125D02*
X144241666Y-99318316D01*
X144241666Y-99318316D02*
X144241666Y-99394506D01*
X144241666Y-99394506D02*
X144225000Y-99508792D01*
X144225000Y-99508792D02*
X144025000Y-99965935D01*
X144025000Y-99965935D02*
X144241666Y-99965935D01*
X139314744Y-92114999D02*
X139352840Y-92131666D01*
X139352840Y-92131666D02*
X139390935Y-92181666D01*
X139390935Y-92181666D02*
X139390935Y-92214999D01*
X139390935Y-92214999D02*
X139352840Y-92264999D01*
X139352840Y-92264999D02*
X139276649Y-92298333D01*
X139276649Y-92298333D02*
X139200459Y-92314999D01*
X139200459Y-92314999D02*
X139048078Y-92331666D01*
X139048078Y-92331666D02*
X138933792Y-92331666D01*
X138933792Y-92331666D02*
X138781411Y-92314999D01*
X138781411Y-92314999D02*
X138705220Y-92298333D01*
X138705220Y-92298333D02*
X138629030Y-92264999D01*
X138629030Y-92264999D02*
X138590935Y-92214999D01*
X138590935Y-92214999D02*
X138590935Y-92181666D01*
X138590935Y-92181666D02*
X138629030Y-92131666D01*
X138629030Y-92131666D02*
X138667125Y-92114999D01*
X138590935Y-91998333D02*
X138590935Y-91781666D01*
X138590935Y-91781666D02*
X138895697Y-91898333D01*
X138895697Y-91898333D02*
X138895697Y-91848333D01*
X138895697Y-91848333D02*
X138933792Y-91814999D01*
X138933792Y-91814999D02*
X138971887Y-91798333D01*
X138971887Y-91798333D02*
X139048078Y-91781666D01*
X139048078Y-91781666D02*
X139238554Y-91781666D01*
X139238554Y-91781666D02*
X139314744Y-91798333D01*
X139314744Y-91798333D02*
X139352840Y-91814999D01*
X139352840Y-91814999D02*
X139390935Y-91848333D01*
X139390935Y-91848333D02*
X139390935Y-91948333D01*
X139390935Y-91948333D02*
X139352840Y-91981666D01*
X139352840Y-91981666D02*
X139314744Y-91998333D01*
X138590935Y-91465000D02*
X138590935Y-91631666D01*
X138590935Y-91631666D02*
X138971887Y-91648333D01*
X138971887Y-91648333D02*
X138933792Y-91631666D01*
X138933792Y-91631666D02*
X138895697Y-91598333D01*
X138895697Y-91598333D02*
X138895697Y-91515000D01*
X138895697Y-91515000D02*
X138933792Y-91481666D01*
X138933792Y-91481666D02*
X138971887Y-91465000D01*
X138971887Y-91465000D02*
X139048078Y-91448333D01*
X139048078Y-91448333D02*
X139238554Y-91448333D01*
X139238554Y-91448333D02*
X139314744Y-91465000D01*
X139314744Y-91465000D02*
X139352840Y-91481666D01*
X139352840Y-91481666D02*
X139390935Y-91515000D01*
X139390935Y-91515000D02*
X139390935Y-91598333D01*
X139390935Y-91598333D02*
X139352840Y-91631666D01*
X139352840Y-91631666D02*
X139314744Y-91648333D01*
X139235000Y-99489744D02*
X139218333Y-99527840D01*
X139218333Y-99527840D02*
X139168333Y-99565935D01*
X139168333Y-99565935D02*
X139135000Y-99565935D01*
X139135000Y-99565935D02*
X139085000Y-99527840D01*
X139085000Y-99527840D02*
X139051667Y-99451649D01*
X139051667Y-99451649D02*
X139035000Y-99375459D01*
X139035000Y-99375459D02*
X139018333Y-99223078D01*
X139018333Y-99223078D02*
X139018333Y-99108792D01*
X139018333Y-99108792D02*
X139035000Y-98956411D01*
X139035000Y-98956411D02*
X139051667Y-98880220D01*
X139051667Y-98880220D02*
X139085000Y-98804030D01*
X139085000Y-98804030D02*
X139135000Y-98765935D01*
X139135000Y-98765935D02*
X139168333Y-98765935D01*
X139168333Y-98765935D02*
X139218333Y-98804030D01*
X139218333Y-98804030D02*
X139235000Y-98842125D01*
X139535000Y-99032601D02*
X139535000Y-99565935D01*
X139451667Y-98727840D02*
X139368333Y-99299268D01*
X139368333Y-99299268D02*
X139585000Y-99299268D01*
X139685000Y-98765935D02*
X139901666Y-98765935D01*
X139901666Y-98765935D02*
X139785000Y-99070697D01*
X139785000Y-99070697D02*
X139835000Y-99070697D01*
X139835000Y-99070697D02*
X139868333Y-99108792D01*
X139868333Y-99108792D02*
X139885000Y-99146887D01*
X139885000Y-99146887D02*
X139901666Y-99223078D01*
X139901666Y-99223078D02*
X139901666Y-99413554D01*
X139901666Y-99413554D02*
X139885000Y-99489744D01*
X139885000Y-99489744D02*
X139868333Y-99527840D01*
X139868333Y-99527840D02*
X139835000Y-99565935D01*
X139835000Y-99565935D02*
X139735000Y-99565935D01*
X139735000Y-99565935D02*
X139701666Y-99527840D01*
X139701666Y-99527840D02*
X139685000Y-99489744D01*
X156375000Y-91089744D02*
X156358333Y-91127840D01*
X156358333Y-91127840D02*
X156308333Y-91165935D01*
X156308333Y-91165935D02*
X156275000Y-91165935D01*
X156275000Y-91165935D02*
X156225000Y-91127840D01*
X156225000Y-91127840D02*
X156191667Y-91051649D01*
X156191667Y-91051649D02*
X156175000Y-90975459D01*
X156175000Y-90975459D02*
X156158333Y-90823078D01*
X156158333Y-90823078D02*
X156158333Y-90708792D01*
X156158333Y-90708792D02*
X156175000Y-90556411D01*
X156175000Y-90556411D02*
X156191667Y-90480220D01*
X156191667Y-90480220D02*
X156225000Y-90404030D01*
X156225000Y-90404030D02*
X156275000Y-90365935D01*
X156275000Y-90365935D02*
X156308333Y-90365935D01*
X156308333Y-90365935D02*
X156358333Y-90404030D01*
X156358333Y-90404030D02*
X156375000Y-90442125D01*
X156491667Y-90365935D02*
X156708333Y-90365935D01*
X156708333Y-90365935D02*
X156591667Y-90670697D01*
X156591667Y-90670697D02*
X156641667Y-90670697D01*
X156641667Y-90670697D02*
X156675000Y-90708792D01*
X156675000Y-90708792D02*
X156691667Y-90746887D01*
X156691667Y-90746887D02*
X156708333Y-90823078D01*
X156708333Y-90823078D02*
X156708333Y-91013554D01*
X156708333Y-91013554D02*
X156691667Y-91089744D01*
X156691667Y-91089744D02*
X156675000Y-91127840D01*
X156675000Y-91127840D02*
X156641667Y-91165935D01*
X156641667Y-91165935D02*
X156541667Y-91165935D01*
X156541667Y-91165935D02*
X156508333Y-91127840D01*
X156508333Y-91127840D02*
X156491667Y-91089744D01*
X156925000Y-90365935D02*
X156958333Y-90365935D01*
X156958333Y-90365935D02*
X156991666Y-90404030D01*
X156991666Y-90404030D02*
X157008333Y-90442125D01*
X157008333Y-90442125D02*
X157025000Y-90518316D01*
X157025000Y-90518316D02*
X157041666Y-90670697D01*
X157041666Y-90670697D02*
X157041666Y-90861173D01*
X157041666Y-90861173D02*
X157025000Y-91013554D01*
X157025000Y-91013554D02*
X157008333Y-91089744D01*
X157008333Y-91089744D02*
X156991666Y-91127840D01*
X156991666Y-91127840D02*
X156958333Y-91165935D01*
X156958333Y-91165935D02*
X156925000Y-91165935D01*
X156925000Y-91165935D02*
X156891666Y-91127840D01*
X156891666Y-91127840D02*
X156875000Y-91089744D01*
X156875000Y-91089744D02*
X156858333Y-91013554D01*
X156858333Y-91013554D02*
X156841666Y-90861173D01*
X156841666Y-90861173D02*
X156841666Y-90670697D01*
X156841666Y-90670697D02*
X156858333Y-90518316D01*
X156858333Y-90518316D02*
X156875000Y-90442125D01*
X156875000Y-90442125D02*
X156891666Y-90404030D01*
X156891666Y-90404030D02*
X156925000Y-90365935D01*
X139355000Y-103565935D02*
X139238333Y-103184982D01*
X139155000Y-103565935D02*
X139155000Y-102765935D01*
X139155000Y-102765935D02*
X139288333Y-102765935D01*
X139288333Y-102765935D02*
X139321667Y-102804030D01*
X139321667Y-102804030D02*
X139338333Y-102842125D01*
X139338333Y-102842125D02*
X139355000Y-102918316D01*
X139355000Y-102918316D02*
X139355000Y-103032601D01*
X139355000Y-103032601D02*
X139338333Y-103108792D01*
X139338333Y-103108792D02*
X139321667Y-103146887D01*
X139321667Y-103146887D02*
X139288333Y-103184982D01*
X139288333Y-103184982D02*
X139155000Y-103184982D01*
X139655000Y-102765935D02*
X139588333Y-102765935D01*
X139588333Y-102765935D02*
X139555000Y-102804030D01*
X139555000Y-102804030D02*
X139538333Y-102842125D01*
X139538333Y-102842125D02*
X139505000Y-102956411D01*
X139505000Y-102956411D02*
X139488333Y-103108792D01*
X139488333Y-103108792D02*
X139488333Y-103413554D01*
X139488333Y-103413554D02*
X139505000Y-103489744D01*
X139505000Y-103489744D02*
X139521667Y-103527840D01*
X139521667Y-103527840D02*
X139555000Y-103565935D01*
X139555000Y-103565935D02*
X139621667Y-103565935D01*
X139621667Y-103565935D02*
X139655000Y-103527840D01*
X139655000Y-103527840D02*
X139671667Y-103489744D01*
X139671667Y-103489744D02*
X139688333Y-103413554D01*
X139688333Y-103413554D02*
X139688333Y-103223078D01*
X139688333Y-103223078D02*
X139671667Y-103146887D01*
X139671667Y-103146887D02*
X139655000Y-103108792D01*
X139655000Y-103108792D02*
X139621667Y-103070697D01*
X139621667Y-103070697D02*
X139555000Y-103070697D01*
X139555000Y-103070697D02*
X139521667Y-103108792D01*
X139521667Y-103108792D02*
X139505000Y-103146887D01*
X139505000Y-103146887D02*
X139488333Y-103223078D01*
D10*
X157299819Y-90633333D02*
X158014104Y-90633333D01*
X158014104Y-90633333D02*
X158156961Y-90680952D01*
X158156961Y-90680952D02*
X158252200Y-90776190D01*
X158252200Y-90776190D02*
X158299819Y-90919047D01*
X158299819Y-90919047D02*
X158299819Y-91014285D01*
X158299819Y-89633333D02*
X158299819Y-90204761D01*
X158299819Y-89919047D02*
X157299819Y-89919047D01*
X157299819Y-89919047D02*
X157442676Y-90014285D01*
X157442676Y-90014285D02*
X157537914Y-90109523D01*
X157537914Y-90109523D02*
X157585533Y-90204761D01*
D11*
X139085000Y-98365935D02*
X138968333Y-97984982D01*
X138885000Y-98365935D02*
X138885000Y-97565935D01*
X138885000Y-97565935D02*
X139018333Y-97565935D01*
X139018333Y-97565935D02*
X139051667Y-97604030D01*
X139051667Y-97604030D02*
X139068333Y-97642125D01*
X139068333Y-97642125D02*
X139085000Y-97718316D01*
X139085000Y-97718316D02*
X139085000Y-97832601D01*
X139085000Y-97832601D02*
X139068333Y-97908792D01*
X139068333Y-97908792D02*
X139051667Y-97946887D01*
X139051667Y-97946887D02*
X139018333Y-97984982D01*
X139018333Y-97984982D02*
X138885000Y-97984982D01*
X139418333Y-98365935D02*
X139218333Y-98365935D01*
X139318333Y-98365935D02*
X139318333Y-97565935D01*
X139318333Y-97565935D02*
X139285000Y-97680220D01*
X139285000Y-97680220D02*
X139251667Y-97756411D01*
X139251667Y-97756411D02*
X139218333Y-97794506D01*
X139635000Y-97565935D02*
X139668333Y-97565935D01*
X139668333Y-97565935D02*
X139701666Y-97604030D01*
X139701666Y-97604030D02*
X139718333Y-97642125D01*
X139718333Y-97642125D02*
X139735000Y-97718316D01*
X139735000Y-97718316D02*
X139751666Y-97870697D01*
X139751666Y-97870697D02*
X139751666Y-98061173D01*
X139751666Y-98061173D02*
X139735000Y-98213554D01*
X139735000Y-98213554D02*
X139718333Y-98289744D01*
X139718333Y-98289744D02*
X139701666Y-98327840D01*
X139701666Y-98327840D02*
X139668333Y-98365935D01*
X139668333Y-98365935D02*
X139635000Y-98365935D01*
X139635000Y-98365935D02*
X139601666Y-98327840D01*
X139601666Y-98327840D02*
X139585000Y-98289744D01*
X139585000Y-98289744D02*
X139568333Y-98213554D01*
X139568333Y-98213554D02*
X139551666Y-98061173D01*
X139551666Y-98061173D02*
X139551666Y-97870697D01*
X139551666Y-97870697D02*
X139568333Y-97718316D01*
X139568333Y-97718316D02*
X139585000Y-97642125D01*
X139585000Y-97642125D02*
X139601666Y-97604030D01*
X139601666Y-97604030D02*
X139635000Y-97565935D01*
X150755000Y-110679744D02*
X150738333Y-110717840D01*
X150738333Y-110717840D02*
X150688333Y-110755935D01*
X150688333Y-110755935D02*
X150655000Y-110755935D01*
X150655000Y-110755935D02*
X150605000Y-110717840D01*
X150605000Y-110717840D02*
X150571667Y-110641649D01*
X150571667Y-110641649D02*
X150555000Y-110565459D01*
X150555000Y-110565459D02*
X150538333Y-110413078D01*
X150538333Y-110413078D02*
X150538333Y-110298792D01*
X150538333Y-110298792D02*
X150555000Y-110146411D01*
X150555000Y-110146411D02*
X150571667Y-110070220D01*
X150571667Y-110070220D02*
X150605000Y-109994030D01*
X150605000Y-109994030D02*
X150655000Y-109955935D01*
X150655000Y-109955935D02*
X150688333Y-109955935D01*
X150688333Y-109955935D02*
X150738333Y-109994030D01*
X150738333Y-109994030D02*
X150755000Y-110032125D01*
X150888333Y-110032125D02*
X150905000Y-109994030D01*
X150905000Y-109994030D02*
X150938333Y-109955935D01*
X150938333Y-109955935D02*
X151021667Y-109955935D01*
X151021667Y-109955935D02*
X151055000Y-109994030D01*
X151055000Y-109994030D02*
X151071667Y-110032125D01*
X151071667Y-110032125D02*
X151088333Y-110108316D01*
X151088333Y-110108316D02*
X151088333Y-110184506D01*
X151088333Y-110184506D02*
X151071667Y-110298792D01*
X151071667Y-110298792D02*
X150871667Y-110755935D01*
X150871667Y-110755935D02*
X151088333Y-110755935D01*
X151421666Y-110755935D02*
X151221666Y-110755935D01*
X151321666Y-110755935D02*
X151321666Y-109955935D01*
X151321666Y-109955935D02*
X151288333Y-110070220D01*
X151288333Y-110070220D02*
X151255000Y-110146411D01*
X151255000Y-110146411D02*
X151221666Y-110184506D01*
X151408333Y-100365935D02*
X151408333Y-99565935D01*
X151775000Y-100289744D02*
X151758333Y-100327840D01*
X151758333Y-100327840D02*
X151708333Y-100365935D01*
X151708333Y-100365935D02*
X151675000Y-100365935D01*
X151675000Y-100365935D02*
X151625000Y-100327840D01*
X151625000Y-100327840D02*
X151591667Y-100251649D01*
X151591667Y-100251649D02*
X151575000Y-100175459D01*
X151575000Y-100175459D02*
X151558333Y-100023078D01*
X151558333Y-100023078D02*
X151558333Y-99908792D01*
X151558333Y-99908792D02*
X151575000Y-99756411D01*
X151575000Y-99756411D02*
X151591667Y-99680220D01*
X151591667Y-99680220D02*
X151625000Y-99604030D01*
X151625000Y-99604030D02*
X151675000Y-99565935D01*
X151675000Y-99565935D02*
X151708333Y-99565935D01*
X151708333Y-99565935D02*
X151758333Y-99604030D01*
X151758333Y-99604030D02*
X151775000Y-99642125D01*
X151891667Y-99565935D02*
X152108333Y-99565935D01*
X152108333Y-99565935D02*
X151991667Y-99870697D01*
X151991667Y-99870697D02*
X152041667Y-99870697D01*
X152041667Y-99870697D02*
X152075000Y-99908792D01*
X152075000Y-99908792D02*
X152091667Y-99946887D01*
X152091667Y-99946887D02*
X152108333Y-100023078D01*
X152108333Y-100023078D02*
X152108333Y-100213554D01*
X152108333Y-100213554D02*
X152091667Y-100289744D01*
X152091667Y-100289744D02*
X152075000Y-100327840D01*
X152075000Y-100327840D02*
X152041667Y-100365935D01*
X152041667Y-100365935D02*
X151941667Y-100365935D01*
X151941667Y-100365935D02*
X151908333Y-100327840D01*
X151908333Y-100327840D02*
X151891667Y-100289744D01*
X140759744Y-92114999D02*
X140797840Y-92131666D01*
X140797840Y-92131666D02*
X140835935Y-92181666D01*
X140835935Y-92181666D02*
X140835935Y-92214999D01*
X140835935Y-92214999D02*
X140797840Y-92264999D01*
X140797840Y-92264999D02*
X140721649Y-92298333D01*
X140721649Y-92298333D02*
X140645459Y-92314999D01*
X140645459Y-92314999D02*
X140493078Y-92331666D01*
X140493078Y-92331666D02*
X140378792Y-92331666D01*
X140378792Y-92331666D02*
X140226411Y-92314999D01*
X140226411Y-92314999D02*
X140150220Y-92298333D01*
X140150220Y-92298333D02*
X140074030Y-92264999D01*
X140074030Y-92264999D02*
X140035935Y-92214999D01*
X140035935Y-92214999D02*
X140035935Y-92181666D01*
X140035935Y-92181666D02*
X140074030Y-92131666D01*
X140074030Y-92131666D02*
X140112125Y-92114999D01*
X140112125Y-91981666D02*
X140074030Y-91964999D01*
X140074030Y-91964999D02*
X140035935Y-91931666D01*
X140035935Y-91931666D02*
X140035935Y-91848333D01*
X140035935Y-91848333D02*
X140074030Y-91814999D01*
X140074030Y-91814999D02*
X140112125Y-91798333D01*
X140112125Y-91798333D02*
X140188316Y-91781666D01*
X140188316Y-91781666D02*
X140264506Y-91781666D01*
X140264506Y-91781666D02*
X140378792Y-91798333D01*
X140378792Y-91798333D02*
X140835935Y-91998333D01*
X140835935Y-91998333D02*
X140835935Y-91781666D01*
X140378792Y-91581666D02*
X140340697Y-91615000D01*
X140340697Y-91615000D02*
X140302601Y-91631666D01*
X140302601Y-91631666D02*
X140226411Y-91648333D01*
X140226411Y-91648333D02*
X140188316Y-91648333D01*
X140188316Y-91648333D02*
X140112125Y-91631666D01*
X140112125Y-91631666D02*
X140074030Y-91615000D01*
X140074030Y-91615000D02*
X140035935Y-91581666D01*
X140035935Y-91581666D02*
X140035935Y-91515000D01*
X140035935Y-91515000D02*
X140074030Y-91481666D01*
X140074030Y-91481666D02*
X140112125Y-91465000D01*
X140112125Y-91465000D02*
X140188316Y-91448333D01*
X140188316Y-91448333D02*
X140226411Y-91448333D01*
X140226411Y-91448333D02*
X140302601Y-91465000D01*
X140302601Y-91465000D02*
X140340697Y-91481666D01*
X140340697Y-91481666D02*
X140378792Y-91515000D01*
X140378792Y-91515000D02*
X140378792Y-91581666D01*
X140378792Y-91581666D02*
X140416887Y-91615000D01*
X140416887Y-91615000D02*
X140454982Y-91631666D01*
X140454982Y-91631666D02*
X140531173Y-91648333D01*
X140531173Y-91648333D02*
X140683554Y-91648333D01*
X140683554Y-91648333D02*
X140759744Y-91631666D01*
X140759744Y-91631666D02*
X140797840Y-91615000D01*
X140797840Y-91615000D02*
X140835935Y-91581666D01*
X140835935Y-91581666D02*
X140835935Y-91515000D01*
X140835935Y-91515000D02*
X140797840Y-91481666D01*
X140797840Y-91481666D02*
X140759744Y-91465000D01*
X140759744Y-91465000D02*
X140683554Y-91448333D01*
X140683554Y-91448333D02*
X140531173Y-91448333D01*
X140531173Y-91448333D02*
X140454982Y-91465000D01*
X140454982Y-91465000D02*
X140416887Y-91481666D01*
X140416887Y-91481666D02*
X140378792Y-91515000D01*
X147975000Y-110159744D02*
X147958333Y-110197840D01*
X147958333Y-110197840D02*
X147908333Y-110235935D01*
X147908333Y-110235935D02*
X147875000Y-110235935D01*
X147875000Y-110235935D02*
X147825000Y-110197840D01*
X147825000Y-110197840D02*
X147791667Y-110121649D01*
X147791667Y-110121649D02*
X147775000Y-110045459D01*
X147775000Y-110045459D02*
X147758333Y-109893078D01*
X147758333Y-109893078D02*
X147758333Y-109778792D01*
X147758333Y-109778792D02*
X147775000Y-109626411D01*
X147775000Y-109626411D02*
X147791667Y-109550220D01*
X147791667Y-109550220D02*
X147825000Y-109474030D01*
X147825000Y-109474030D02*
X147875000Y-109435935D01*
X147875000Y-109435935D02*
X147908333Y-109435935D01*
X147908333Y-109435935D02*
X147958333Y-109474030D01*
X147958333Y-109474030D02*
X147975000Y-109512125D01*
X148091667Y-109435935D02*
X148308333Y-109435935D01*
X148308333Y-109435935D02*
X148191667Y-109740697D01*
X148191667Y-109740697D02*
X148241667Y-109740697D01*
X148241667Y-109740697D02*
X148275000Y-109778792D01*
X148275000Y-109778792D02*
X148291667Y-109816887D01*
X148291667Y-109816887D02*
X148308333Y-109893078D01*
X148308333Y-109893078D02*
X148308333Y-110083554D01*
X148308333Y-110083554D02*
X148291667Y-110159744D01*
X148291667Y-110159744D02*
X148275000Y-110197840D01*
X148275000Y-110197840D02*
X148241667Y-110235935D01*
X148241667Y-110235935D02*
X148141667Y-110235935D01*
X148141667Y-110235935D02*
X148108333Y-110197840D01*
X148108333Y-110197840D02*
X148091667Y-110159744D01*
X148425000Y-109435935D02*
X148641666Y-109435935D01*
X148641666Y-109435935D02*
X148525000Y-109740697D01*
X148525000Y-109740697D02*
X148575000Y-109740697D01*
X148575000Y-109740697D02*
X148608333Y-109778792D01*
X148608333Y-109778792D02*
X148625000Y-109816887D01*
X148625000Y-109816887D02*
X148641666Y-109893078D01*
X148641666Y-109893078D02*
X148641666Y-110083554D01*
X148641666Y-110083554D02*
X148625000Y-110159744D01*
X148625000Y-110159744D02*
X148608333Y-110197840D01*
X148608333Y-110197840D02*
X148575000Y-110235935D01*
X148575000Y-110235935D02*
X148475000Y-110235935D01*
X148475000Y-110235935D02*
X148441666Y-110197840D01*
X148441666Y-110197840D02*
X148425000Y-110159744D01*
X155789744Y-110524999D02*
X155827840Y-110541666D01*
X155827840Y-110541666D02*
X155865935Y-110591666D01*
X155865935Y-110591666D02*
X155865935Y-110624999D01*
X155865935Y-110624999D02*
X155827840Y-110674999D01*
X155827840Y-110674999D02*
X155751649Y-110708333D01*
X155751649Y-110708333D02*
X155675459Y-110724999D01*
X155675459Y-110724999D02*
X155523078Y-110741666D01*
X155523078Y-110741666D02*
X155408792Y-110741666D01*
X155408792Y-110741666D02*
X155256411Y-110724999D01*
X155256411Y-110724999D02*
X155180220Y-110708333D01*
X155180220Y-110708333D02*
X155104030Y-110674999D01*
X155104030Y-110674999D02*
X155065935Y-110624999D01*
X155065935Y-110624999D02*
X155065935Y-110591666D01*
X155065935Y-110591666D02*
X155104030Y-110541666D01*
X155104030Y-110541666D02*
X155142125Y-110524999D01*
X155142125Y-110391666D02*
X155104030Y-110374999D01*
X155104030Y-110374999D02*
X155065935Y-110341666D01*
X155065935Y-110341666D02*
X155065935Y-110258333D01*
X155065935Y-110258333D02*
X155104030Y-110224999D01*
X155104030Y-110224999D02*
X155142125Y-110208333D01*
X155142125Y-110208333D02*
X155218316Y-110191666D01*
X155218316Y-110191666D02*
X155294506Y-110191666D01*
X155294506Y-110191666D02*
X155408792Y-110208333D01*
X155408792Y-110208333D02*
X155865935Y-110408333D01*
X155865935Y-110408333D02*
X155865935Y-110191666D01*
X155332601Y-109891666D02*
X155865935Y-109891666D01*
X155027840Y-109975000D02*
X155599268Y-110058333D01*
X155599268Y-110058333D02*
X155599268Y-109841666D01*
X144665935Y-98658332D02*
X144284982Y-98774999D01*
X144665935Y-98858332D02*
X143865935Y-98858332D01*
X143865935Y-98858332D02*
X143865935Y-98724999D01*
X143865935Y-98724999D02*
X143904030Y-98691666D01*
X143904030Y-98691666D02*
X143942125Y-98674999D01*
X143942125Y-98674999D02*
X144018316Y-98658332D01*
X144018316Y-98658332D02*
X144132601Y-98658332D01*
X144132601Y-98658332D02*
X144208792Y-98674999D01*
X144208792Y-98674999D02*
X144246887Y-98691666D01*
X144246887Y-98691666D02*
X144284982Y-98724999D01*
X144284982Y-98724999D02*
X144284982Y-98858332D01*
X144132601Y-98358332D02*
X144665935Y-98358332D01*
X143827840Y-98441666D02*
X144399268Y-98524999D01*
X144399268Y-98524999D02*
X144399268Y-98308332D01*
X143555000Y-101165935D02*
X143438333Y-100784982D01*
X143355000Y-101165935D02*
X143355000Y-100365935D01*
X143355000Y-100365935D02*
X143488333Y-100365935D01*
X143488333Y-100365935D02*
X143521667Y-100404030D01*
X143521667Y-100404030D02*
X143538333Y-100442125D01*
X143538333Y-100442125D02*
X143555000Y-100518316D01*
X143555000Y-100518316D02*
X143555000Y-100632601D01*
X143555000Y-100632601D02*
X143538333Y-100708792D01*
X143538333Y-100708792D02*
X143521667Y-100746887D01*
X143521667Y-100746887D02*
X143488333Y-100784982D01*
X143488333Y-100784982D02*
X143355000Y-100784982D01*
X143755000Y-100708792D02*
X143721667Y-100670697D01*
X143721667Y-100670697D02*
X143705000Y-100632601D01*
X143705000Y-100632601D02*
X143688333Y-100556411D01*
X143688333Y-100556411D02*
X143688333Y-100518316D01*
X143688333Y-100518316D02*
X143705000Y-100442125D01*
X143705000Y-100442125D02*
X143721667Y-100404030D01*
X143721667Y-100404030D02*
X143755000Y-100365935D01*
X143755000Y-100365935D02*
X143821667Y-100365935D01*
X143821667Y-100365935D02*
X143855000Y-100404030D01*
X143855000Y-100404030D02*
X143871667Y-100442125D01*
X143871667Y-100442125D02*
X143888333Y-100518316D01*
X143888333Y-100518316D02*
X143888333Y-100556411D01*
X143888333Y-100556411D02*
X143871667Y-100632601D01*
X143871667Y-100632601D02*
X143855000Y-100670697D01*
X143855000Y-100670697D02*
X143821667Y-100708792D01*
X143821667Y-100708792D02*
X143755000Y-100708792D01*
X143755000Y-100708792D02*
X143721667Y-100746887D01*
X143721667Y-100746887D02*
X143705000Y-100784982D01*
X143705000Y-100784982D02*
X143688333Y-100861173D01*
X143688333Y-100861173D02*
X143688333Y-101013554D01*
X143688333Y-101013554D02*
X143705000Y-101089744D01*
X143705000Y-101089744D02*
X143721667Y-101127840D01*
X143721667Y-101127840D02*
X143755000Y-101165935D01*
X143755000Y-101165935D02*
X143821667Y-101165935D01*
X143821667Y-101165935D02*
X143855000Y-101127840D01*
X143855000Y-101127840D02*
X143871667Y-101089744D01*
X143871667Y-101089744D02*
X143888333Y-101013554D01*
X143888333Y-101013554D02*
X143888333Y-100861173D01*
X143888333Y-100861173D02*
X143871667Y-100784982D01*
X143871667Y-100784982D02*
X143855000Y-100746887D01*
X143855000Y-100746887D02*
X143821667Y-100708792D01*
X152819744Y-90024999D02*
X152857840Y-90041666D01*
X152857840Y-90041666D02*
X152895935Y-90091666D01*
X152895935Y-90091666D02*
X152895935Y-90124999D01*
X152895935Y-90124999D02*
X152857840Y-90174999D01*
X152857840Y-90174999D02*
X152781649Y-90208333D01*
X152781649Y-90208333D02*
X152705459Y-90224999D01*
X152705459Y-90224999D02*
X152553078Y-90241666D01*
X152553078Y-90241666D02*
X152438792Y-90241666D01*
X152438792Y-90241666D02*
X152286411Y-90224999D01*
X152286411Y-90224999D02*
X152210220Y-90208333D01*
X152210220Y-90208333D02*
X152134030Y-90174999D01*
X152134030Y-90174999D02*
X152095935Y-90124999D01*
X152095935Y-90124999D02*
X152095935Y-90091666D01*
X152095935Y-90091666D02*
X152134030Y-90041666D01*
X152134030Y-90041666D02*
X152172125Y-90024999D01*
X152172125Y-89891666D02*
X152134030Y-89874999D01*
X152134030Y-89874999D02*
X152095935Y-89841666D01*
X152095935Y-89841666D02*
X152095935Y-89758333D01*
X152095935Y-89758333D02*
X152134030Y-89724999D01*
X152134030Y-89724999D02*
X152172125Y-89708333D01*
X152172125Y-89708333D02*
X152248316Y-89691666D01*
X152248316Y-89691666D02*
X152324506Y-89691666D01*
X152324506Y-89691666D02*
X152438792Y-89708333D01*
X152438792Y-89708333D02*
X152895935Y-89908333D01*
X152895935Y-89908333D02*
X152895935Y-89691666D01*
X152095935Y-89375000D02*
X152095935Y-89541666D01*
X152095935Y-89541666D02*
X152476887Y-89558333D01*
X152476887Y-89558333D02*
X152438792Y-89541666D01*
X152438792Y-89541666D02*
X152400697Y-89508333D01*
X152400697Y-89508333D02*
X152400697Y-89425000D01*
X152400697Y-89425000D02*
X152438792Y-89391666D01*
X152438792Y-89391666D02*
X152476887Y-89375000D01*
X152476887Y-89375000D02*
X152553078Y-89358333D01*
X152553078Y-89358333D02*
X152743554Y-89358333D01*
X152743554Y-89358333D02*
X152819744Y-89375000D01*
X152819744Y-89375000D02*
X152857840Y-89391666D01*
X152857840Y-89391666D02*
X152895935Y-89425000D01*
X152895935Y-89425000D02*
X152895935Y-89508333D01*
X152895935Y-89508333D02*
X152857840Y-89541666D01*
X152857840Y-89541666D02*
X152819744Y-89558333D01*
X152329744Y-110494999D02*
X152367840Y-110511666D01*
X152367840Y-110511666D02*
X152405935Y-110561666D01*
X152405935Y-110561666D02*
X152405935Y-110594999D01*
X152405935Y-110594999D02*
X152367840Y-110644999D01*
X152367840Y-110644999D02*
X152291649Y-110678333D01*
X152291649Y-110678333D02*
X152215459Y-110694999D01*
X152215459Y-110694999D02*
X152063078Y-110711666D01*
X152063078Y-110711666D02*
X151948792Y-110711666D01*
X151948792Y-110711666D02*
X151796411Y-110694999D01*
X151796411Y-110694999D02*
X151720220Y-110678333D01*
X151720220Y-110678333D02*
X151644030Y-110644999D01*
X151644030Y-110644999D02*
X151605935Y-110594999D01*
X151605935Y-110594999D02*
X151605935Y-110561666D01*
X151605935Y-110561666D02*
X151644030Y-110511666D01*
X151644030Y-110511666D02*
X151682125Y-110494999D01*
X151682125Y-110361666D02*
X151644030Y-110344999D01*
X151644030Y-110344999D02*
X151605935Y-110311666D01*
X151605935Y-110311666D02*
X151605935Y-110228333D01*
X151605935Y-110228333D02*
X151644030Y-110194999D01*
X151644030Y-110194999D02*
X151682125Y-110178333D01*
X151682125Y-110178333D02*
X151758316Y-110161666D01*
X151758316Y-110161666D02*
X151834506Y-110161666D01*
X151834506Y-110161666D02*
X151948792Y-110178333D01*
X151948792Y-110178333D02*
X152405935Y-110378333D01*
X152405935Y-110378333D02*
X152405935Y-110161666D01*
X151605935Y-110045000D02*
X151605935Y-109828333D01*
X151605935Y-109828333D02*
X151910697Y-109945000D01*
X151910697Y-109945000D02*
X151910697Y-109895000D01*
X151910697Y-109895000D02*
X151948792Y-109861666D01*
X151948792Y-109861666D02*
X151986887Y-109845000D01*
X151986887Y-109845000D02*
X152063078Y-109828333D01*
X152063078Y-109828333D02*
X152253554Y-109828333D01*
X152253554Y-109828333D02*
X152329744Y-109845000D01*
X152329744Y-109845000D02*
X152367840Y-109861666D01*
X152367840Y-109861666D02*
X152405935Y-109895000D01*
X152405935Y-109895000D02*
X152405935Y-109995000D01*
X152405935Y-109995000D02*
X152367840Y-110028333D01*
X152367840Y-110028333D02*
X152329744Y-110045000D01*
X139355000Y-102365935D02*
X139238333Y-101984982D01*
X139155000Y-102365935D02*
X139155000Y-101565935D01*
X139155000Y-101565935D02*
X139288333Y-101565935D01*
X139288333Y-101565935D02*
X139321667Y-101604030D01*
X139321667Y-101604030D02*
X139338333Y-101642125D01*
X139338333Y-101642125D02*
X139355000Y-101718316D01*
X139355000Y-101718316D02*
X139355000Y-101832601D01*
X139355000Y-101832601D02*
X139338333Y-101908792D01*
X139338333Y-101908792D02*
X139321667Y-101946887D01*
X139321667Y-101946887D02*
X139288333Y-101984982D01*
X139288333Y-101984982D02*
X139155000Y-101984982D01*
X139471667Y-101565935D02*
X139705000Y-101565935D01*
X139705000Y-101565935D02*
X139555000Y-102365935D01*
X156789744Y-110524999D02*
X156827840Y-110541666D01*
X156827840Y-110541666D02*
X156865935Y-110591666D01*
X156865935Y-110591666D02*
X156865935Y-110624999D01*
X156865935Y-110624999D02*
X156827840Y-110674999D01*
X156827840Y-110674999D02*
X156751649Y-110708333D01*
X156751649Y-110708333D02*
X156675459Y-110724999D01*
X156675459Y-110724999D02*
X156523078Y-110741666D01*
X156523078Y-110741666D02*
X156408792Y-110741666D01*
X156408792Y-110741666D02*
X156256411Y-110724999D01*
X156256411Y-110724999D02*
X156180220Y-110708333D01*
X156180220Y-110708333D02*
X156104030Y-110674999D01*
X156104030Y-110674999D02*
X156065935Y-110624999D01*
X156065935Y-110624999D02*
X156065935Y-110591666D01*
X156065935Y-110591666D02*
X156104030Y-110541666D01*
X156104030Y-110541666D02*
X156142125Y-110524999D01*
X156142125Y-110391666D02*
X156104030Y-110374999D01*
X156104030Y-110374999D02*
X156065935Y-110341666D01*
X156065935Y-110341666D02*
X156065935Y-110258333D01*
X156065935Y-110258333D02*
X156104030Y-110224999D01*
X156104030Y-110224999D02*
X156142125Y-110208333D01*
X156142125Y-110208333D02*
X156218316Y-110191666D01*
X156218316Y-110191666D02*
X156294506Y-110191666D01*
X156294506Y-110191666D02*
X156408792Y-110208333D01*
X156408792Y-110208333D02*
X156865935Y-110408333D01*
X156865935Y-110408333D02*
X156865935Y-110191666D01*
X156065935Y-110075000D02*
X156065935Y-109841666D01*
X156065935Y-109841666D02*
X156865935Y-109991666D01*
X143489744Y-98824999D02*
X143527840Y-98841666D01*
X143527840Y-98841666D02*
X143565935Y-98891666D01*
X143565935Y-98891666D02*
X143565935Y-98924999D01*
X143565935Y-98924999D02*
X143527840Y-98974999D01*
X143527840Y-98974999D02*
X143451649Y-99008333D01*
X143451649Y-99008333D02*
X143375459Y-99024999D01*
X143375459Y-99024999D02*
X143223078Y-99041666D01*
X143223078Y-99041666D02*
X143108792Y-99041666D01*
X143108792Y-99041666D02*
X142956411Y-99024999D01*
X142956411Y-99024999D02*
X142880220Y-99008333D01*
X142880220Y-99008333D02*
X142804030Y-98974999D01*
X142804030Y-98974999D02*
X142765935Y-98924999D01*
X142765935Y-98924999D02*
X142765935Y-98891666D01*
X142765935Y-98891666D02*
X142804030Y-98841666D01*
X142804030Y-98841666D02*
X142842125Y-98824999D01*
X142842125Y-98691666D02*
X142804030Y-98674999D01*
X142804030Y-98674999D02*
X142765935Y-98641666D01*
X142765935Y-98641666D02*
X142765935Y-98558333D01*
X142765935Y-98558333D02*
X142804030Y-98524999D01*
X142804030Y-98524999D02*
X142842125Y-98508333D01*
X142842125Y-98508333D02*
X142918316Y-98491666D01*
X142918316Y-98491666D02*
X142994506Y-98491666D01*
X142994506Y-98491666D02*
X143108792Y-98508333D01*
X143108792Y-98508333D02*
X143565935Y-98708333D01*
X143565935Y-98708333D02*
X143565935Y-98491666D01*
X142765935Y-98275000D02*
X142765935Y-98241666D01*
X142765935Y-98241666D02*
X142804030Y-98208333D01*
X142804030Y-98208333D02*
X142842125Y-98191666D01*
X142842125Y-98191666D02*
X142918316Y-98175000D01*
X142918316Y-98175000D02*
X143070697Y-98158333D01*
X143070697Y-98158333D02*
X143261173Y-98158333D01*
X143261173Y-98158333D02*
X143413554Y-98175000D01*
X143413554Y-98175000D02*
X143489744Y-98191666D01*
X143489744Y-98191666D02*
X143527840Y-98208333D01*
X143527840Y-98208333D02*
X143565935Y-98241666D01*
X143565935Y-98241666D02*
X143565935Y-98275000D01*
X143565935Y-98275000D02*
X143527840Y-98308333D01*
X143527840Y-98308333D02*
X143489744Y-98325000D01*
X143489744Y-98325000D02*
X143413554Y-98341666D01*
X143413554Y-98341666D02*
X143261173Y-98358333D01*
X143261173Y-98358333D02*
X143070697Y-98358333D01*
X143070697Y-98358333D02*
X142918316Y-98341666D01*
X142918316Y-98341666D02*
X142842125Y-98325000D01*
X142842125Y-98325000D02*
X142804030Y-98308333D01*
X142804030Y-98308333D02*
X142765935Y-98275000D01*
X137775000Y-105689744D02*
X137758333Y-105727840D01*
X137758333Y-105727840D02*
X137708333Y-105765935D01*
X137708333Y-105765935D02*
X137675000Y-105765935D01*
X137675000Y-105765935D02*
X137625000Y-105727840D01*
X137625000Y-105727840D02*
X137591667Y-105651649D01*
X137591667Y-105651649D02*
X137575000Y-105575459D01*
X137575000Y-105575459D02*
X137558333Y-105423078D01*
X137558333Y-105423078D02*
X137558333Y-105308792D01*
X137558333Y-105308792D02*
X137575000Y-105156411D01*
X137575000Y-105156411D02*
X137591667Y-105080220D01*
X137591667Y-105080220D02*
X137625000Y-105004030D01*
X137625000Y-105004030D02*
X137675000Y-104965935D01*
X137675000Y-104965935D02*
X137708333Y-104965935D01*
X137708333Y-104965935D02*
X137758333Y-105004030D01*
X137758333Y-105004030D02*
X137775000Y-105042125D01*
X138075000Y-105232601D02*
X138075000Y-105765935D01*
X137991667Y-104927840D02*
X137908333Y-105499268D01*
X137908333Y-105499268D02*
X138125000Y-105499268D01*
X138441666Y-105765935D02*
X138241666Y-105765935D01*
X138341666Y-105765935D02*
X138341666Y-104965935D01*
X138341666Y-104965935D02*
X138308333Y-105080220D01*
X138308333Y-105080220D02*
X138275000Y-105156411D01*
X138275000Y-105156411D02*
X138241666Y-105194506D01*
X160489744Y-93424999D02*
X160527840Y-93441666D01*
X160527840Y-93441666D02*
X160565935Y-93491666D01*
X160565935Y-93491666D02*
X160565935Y-93524999D01*
X160565935Y-93524999D02*
X160527840Y-93574999D01*
X160527840Y-93574999D02*
X160451649Y-93608333D01*
X160451649Y-93608333D02*
X160375459Y-93624999D01*
X160375459Y-93624999D02*
X160223078Y-93641666D01*
X160223078Y-93641666D02*
X160108792Y-93641666D01*
X160108792Y-93641666D02*
X159956411Y-93624999D01*
X159956411Y-93624999D02*
X159880220Y-93608333D01*
X159880220Y-93608333D02*
X159804030Y-93574999D01*
X159804030Y-93574999D02*
X159765935Y-93524999D01*
X159765935Y-93524999D02*
X159765935Y-93491666D01*
X159765935Y-93491666D02*
X159804030Y-93441666D01*
X159804030Y-93441666D02*
X159842125Y-93424999D01*
X159765935Y-93308333D02*
X159765935Y-93091666D01*
X159765935Y-93091666D02*
X160070697Y-93208333D01*
X160070697Y-93208333D02*
X160070697Y-93158333D01*
X160070697Y-93158333D02*
X160108792Y-93124999D01*
X160108792Y-93124999D02*
X160146887Y-93108333D01*
X160146887Y-93108333D02*
X160223078Y-93091666D01*
X160223078Y-93091666D02*
X160413554Y-93091666D01*
X160413554Y-93091666D02*
X160489744Y-93108333D01*
X160489744Y-93108333D02*
X160527840Y-93124999D01*
X160527840Y-93124999D02*
X160565935Y-93158333D01*
X160565935Y-93158333D02*
X160565935Y-93258333D01*
X160565935Y-93258333D02*
X160527840Y-93291666D01*
X160527840Y-93291666D02*
X160489744Y-93308333D01*
X159842125Y-92958333D02*
X159804030Y-92941666D01*
X159804030Y-92941666D02*
X159765935Y-92908333D01*
X159765935Y-92908333D02*
X159765935Y-92825000D01*
X159765935Y-92825000D02*
X159804030Y-92791666D01*
X159804030Y-92791666D02*
X159842125Y-92775000D01*
X159842125Y-92775000D02*
X159918316Y-92758333D01*
X159918316Y-92758333D02*
X159994506Y-92758333D01*
X159994506Y-92758333D02*
X160108792Y-92775000D01*
X160108792Y-92775000D02*
X160565935Y-92975000D01*
X160565935Y-92975000D02*
X160565935Y-92758333D01*
X138274744Y-92114999D02*
X138312840Y-92131666D01*
X138312840Y-92131666D02*
X138350935Y-92181666D01*
X138350935Y-92181666D02*
X138350935Y-92214999D01*
X138350935Y-92214999D02*
X138312840Y-92264999D01*
X138312840Y-92264999D02*
X138236649Y-92298333D01*
X138236649Y-92298333D02*
X138160459Y-92314999D01*
X138160459Y-92314999D02*
X138008078Y-92331666D01*
X138008078Y-92331666D02*
X137893792Y-92331666D01*
X137893792Y-92331666D02*
X137741411Y-92314999D01*
X137741411Y-92314999D02*
X137665220Y-92298333D01*
X137665220Y-92298333D02*
X137589030Y-92264999D01*
X137589030Y-92264999D02*
X137550935Y-92214999D01*
X137550935Y-92214999D02*
X137550935Y-92181666D01*
X137550935Y-92181666D02*
X137589030Y-92131666D01*
X137589030Y-92131666D02*
X137627125Y-92114999D01*
X137550935Y-91998333D02*
X137550935Y-91781666D01*
X137550935Y-91781666D02*
X137855697Y-91898333D01*
X137855697Y-91898333D02*
X137855697Y-91848333D01*
X137855697Y-91848333D02*
X137893792Y-91814999D01*
X137893792Y-91814999D02*
X137931887Y-91798333D01*
X137931887Y-91798333D02*
X138008078Y-91781666D01*
X138008078Y-91781666D02*
X138198554Y-91781666D01*
X138198554Y-91781666D02*
X138274744Y-91798333D01*
X138274744Y-91798333D02*
X138312840Y-91814999D01*
X138312840Y-91814999D02*
X138350935Y-91848333D01*
X138350935Y-91848333D02*
X138350935Y-91948333D01*
X138350935Y-91948333D02*
X138312840Y-91981666D01*
X138312840Y-91981666D02*
X138274744Y-91998333D01*
X137550935Y-91665000D02*
X137550935Y-91431666D01*
X137550935Y-91431666D02*
X138350935Y-91581666D01*
X139355000Y-101089744D02*
X139338333Y-101127840D01*
X139338333Y-101127840D02*
X139288333Y-101165935D01*
X139288333Y-101165935D02*
X139255000Y-101165935D01*
X139255000Y-101165935D02*
X139205000Y-101127840D01*
X139205000Y-101127840D02*
X139171667Y-101051649D01*
X139171667Y-101051649D02*
X139155000Y-100975459D01*
X139155000Y-100975459D02*
X139138333Y-100823078D01*
X139138333Y-100823078D02*
X139138333Y-100708792D01*
X139138333Y-100708792D02*
X139155000Y-100556411D01*
X139155000Y-100556411D02*
X139171667Y-100480220D01*
X139171667Y-100480220D02*
X139205000Y-100404030D01*
X139205000Y-100404030D02*
X139255000Y-100365935D01*
X139255000Y-100365935D02*
X139288333Y-100365935D01*
X139288333Y-100365935D02*
X139338333Y-100404030D01*
X139338333Y-100404030D02*
X139355000Y-100442125D01*
X139471667Y-100365935D02*
X139688333Y-100365935D01*
X139688333Y-100365935D02*
X139571667Y-100670697D01*
X139571667Y-100670697D02*
X139621667Y-100670697D01*
X139621667Y-100670697D02*
X139655000Y-100708792D01*
X139655000Y-100708792D02*
X139671667Y-100746887D01*
X139671667Y-100746887D02*
X139688333Y-100823078D01*
X139688333Y-100823078D02*
X139688333Y-101013554D01*
X139688333Y-101013554D02*
X139671667Y-101089744D01*
X139671667Y-101089744D02*
X139655000Y-101127840D01*
X139655000Y-101127840D02*
X139621667Y-101165935D01*
X139621667Y-101165935D02*
X139521667Y-101165935D01*
X139521667Y-101165935D02*
X139488333Y-101127840D01*
X139488333Y-101127840D02*
X139471667Y-101089744D01*
X139855000Y-101165935D02*
X139921666Y-101165935D01*
X139921666Y-101165935D02*
X139955000Y-101127840D01*
X139955000Y-101127840D02*
X139971666Y-101089744D01*
X139971666Y-101089744D02*
X140005000Y-100975459D01*
X140005000Y-100975459D02*
X140021666Y-100823078D01*
X140021666Y-100823078D02*
X140021666Y-100518316D01*
X140021666Y-100518316D02*
X140005000Y-100442125D01*
X140005000Y-100442125D02*
X139988333Y-100404030D01*
X139988333Y-100404030D02*
X139955000Y-100365935D01*
X139955000Y-100365935D02*
X139888333Y-100365935D01*
X139888333Y-100365935D02*
X139855000Y-100404030D01*
X139855000Y-100404030D02*
X139838333Y-100442125D01*
X139838333Y-100442125D02*
X139821666Y-100518316D01*
X139821666Y-100518316D02*
X139821666Y-100708792D01*
X139821666Y-100708792D02*
X139838333Y-100784982D01*
X139838333Y-100784982D02*
X139855000Y-100823078D01*
X139855000Y-100823078D02*
X139888333Y-100861173D01*
X139888333Y-100861173D02*
X139955000Y-100861173D01*
X139955000Y-100861173D02*
X139988333Y-100823078D01*
X139988333Y-100823078D02*
X140005000Y-100784982D01*
X140005000Y-100784982D02*
X140021666Y-100708792D01*
X141975000Y-96489744D02*
X141958333Y-96527840D01*
X141958333Y-96527840D02*
X141908333Y-96565935D01*
X141908333Y-96565935D02*
X141875000Y-96565935D01*
X141875000Y-96565935D02*
X141825000Y-96527840D01*
X141825000Y-96527840D02*
X141791667Y-96451649D01*
X141791667Y-96451649D02*
X141775000Y-96375459D01*
X141775000Y-96375459D02*
X141758333Y-96223078D01*
X141758333Y-96223078D02*
X141758333Y-96108792D01*
X141758333Y-96108792D02*
X141775000Y-95956411D01*
X141775000Y-95956411D02*
X141791667Y-95880220D01*
X141791667Y-95880220D02*
X141825000Y-95804030D01*
X141825000Y-95804030D02*
X141875000Y-95765935D01*
X141875000Y-95765935D02*
X141908333Y-95765935D01*
X141908333Y-95765935D02*
X141958333Y-95804030D01*
X141958333Y-95804030D02*
X141975000Y-95842125D01*
X142275000Y-96032601D02*
X142275000Y-96565935D01*
X142191667Y-95727840D02*
X142108333Y-96299268D01*
X142108333Y-96299268D02*
X142325000Y-96299268D01*
X142525000Y-95765935D02*
X142558333Y-95765935D01*
X142558333Y-95765935D02*
X142591666Y-95804030D01*
X142591666Y-95804030D02*
X142608333Y-95842125D01*
X142608333Y-95842125D02*
X142625000Y-95918316D01*
X142625000Y-95918316D02*
X142641666Y-96070697D01*
X142641666Y-96070697D02*
X142641666Y-96261173D01*
X142641666Y-96261173D02*
X142625000Y-96413554D01*
X142625000Y-96413554D02*
X142608333Y-96489744D01*
X142608333Y-96489744D02*
X142591666Y-96527840D01*
X142591666Y-96527840D02*
X142558333Y-96565935D01*
X142558333Y-96565935D02*
X142525000Y-96565935D01*
X142525000Y-96565935D02*
X142491666Y-96527840D01*
X142491666Y-96527840D02*
X142475000Y-96489744D01*
X142475000Y-96489744D02*
X142458333Y-96413554D01*
X142458333Y-96413554D02*
X142441666Y-96261173D01*
X142441666Y-96261173D02*
X142441666Y-96070697D01*
X142441666Y-96070697D02*
X142458333Y-95918316D01*
X142458333Y-95918316D02*
X142475000Y-95842125D01*
X142475000Y-95842125D02*
X142491666Y-95804030D01*
X142491666Y-95804030D02*
X142525000Y-95765935D01*
X151889744Y-90024999D02*
X151927840Y-90041666D01*
X151927840Y-90041666D02*
X151965935Y-90091666D01*
X151965935Y-90091666D02*
X151965935Y-90124999D01*
X151965935Y-90124999D02*
X151927840Y-90174999D01*
X151927840Y-90174999D02*
X151851649Y-90208333D01*
X151851649Y-90208333D02*
X151775459Y-90224999D01*
X151775459Y-90224999D02*
X151623078Y-90241666D01*
X151623078Y-90241666D02*
X151508792Y-90241666D01*
X151508792Y-90241666D02*
X151356411Y-90224999D01*
X151356411Y-90224999D02*
X151280220Y-90208333D01*
X151280220Y-90208333D02*
X151204030Y-90174999D01*
X151204030Y-90174999D02*
X151165935Y-90124999D01*
X151165935Y-90124999D02*
X151165935Y-90091666D01*
X151165935Y-90091666D02*
X151204030Y-90041666D01*
X151204030Y-90041666D02*
X151242125Y-90024999D01*
X151242125Y-89891666D02*
X151204030Y-89874999D01*
X151204030Y-89874999D02*
X151165935Y-89841666D01*
X151165935Y-89841666D02*
X151165935Y-89758333D01*
X151165935Y-89758333D02*
X151204030Y-89724999D01*
X151204030Y-89724999D02*
X151242125Y-89708333D01*
X151242125Y-89708333D02*
X151318316Y-89691666D01*
X151318316Y-89691666D02*
X151394506Y-89691666D01*
X151394506Y-89691666D02*
X151508792Y-89708333D01*
X151508792Y-89708333D02*
X151965935Y-89908333D01*
X151965935Y-89908333D02*
X151965935Y-89691666D01*
X151165935Y-89391666D02*
X151165935Y-89458333D01*
X151165935Y-89458333D02*
X151204030Y-89491666D01*
X151204030Y-89491666D02*
X151242125Y-89508333D01*
X151242125Y-89508333D02*
X151356411Y-89541666D01*
X151356411Y-89541666D02*
X151508792Y-89558333D01*
X151508792Y-89558333D02*
X151813554Y-89558333D01*
X151813554Y-89558333D02*
X151889744Y-89541666D01*
X151889744Y-89541666D02*
X151927840Y-89525000D01*
X151927840Y-89525000D02*
X151965935Y-89491666D01*
X151965935Y-89491666D02*
X151965935Y-89425000D01*
X151965935Y-89425000D02*
X151927840Y-89391666D01*
X151927840Y-89391666D02*
X151889744Y-89375000D01*
X151889744Y-89375000D02*
X151813554Y-89358333D01*
X151813554Y-89358333D02*
X151623078Y-89358333D01*
X151623078Y-89358333D02*
X151546887Y-89375000D01*
X151546887Y-89375000D02*
X151508792Y-89391666D01*
X151508792Y-89391666D02*
X151470697Y-89425000D01*
X151470697Y-89425000D02*
X151470697Y-89491666D01*
X151470697Y-89491666D02*
X151508792Y-89525000D01*
X151508792Y-89525000D02*
X151546887Y-89541666D01*
X151546887Y-89541666D02*
X151623078Y-89558333D01*
X142141667Y-97565935D02*
X142025000Y-97184982D01*
X141941667Y-97565935D02*
X141941667Y-96765935D01*
X141941667Y-96765935D02*
X142075000Y-96765935D01*
X142075000Y-96765935D02*
X142108334Y-96804030D01*
X142108334Y-96804030D02*
X142125000Y-96842125D01*
X142125000Y-96842125D02*
X142141667Y-96918316D01*
X142141667Y-96918316D02*
X142141667Y-97032601D01*
X142141667Y-97032601D02*
X142125000Y-97108792D01*
X142125000Y-97108792D02*
X142108334Y-97146887D01*
X142108334Y-97146887D02*
X142075000Y-97184982D01*
X142075000Y-97184982D02*
X141941667Y-97184982D01*
X142308334Y-97565935D02*
X142375000Y-97565935D01*
X142375000Y-97565935D02*
X142408334Y-97527840D01*
X142408334Y-97527840D02*
X142425000Y-97489744D01*
X142425000Y-97489744D02*
X142458334Y-97375459D01*
X142458334Y-97375459D02*
X142475000Y-97223078D01*
X142475000Y-97223078D02*
X142475000Y-96918316D01*
X142475000Y-96918316D02*
X142458334Y-96842125D01*
X142458334Y-96842125D02*
X142441667Y-96804030D01*
X142441667Y-96804030D02*
X142408334Y-96765935D01*
X142408334Y-96765935D02*
X142341667Y-96765935D01*
X142341667Y-96765935D02*
X142308334Y-96804030D01*
X142308334Y-96804030D02*
X142291667Y-96842125D01*
X142291667Y-96842125D02*
X142275000Y-96918316D01*
X142275000Y-96918316D02*
X142275000Y-97108792D01*
X142275000Y-97108792D02*
X142291667Y-97184982D01*
X142291667Y-97184982D02*
X142308334Y-97223078D01*
X142308334Y-97223078D02*
X142341667Y-97261173D01*
X142341667Y-97261173D02*
X142408334Y-97261173D01*
X142408334Y-97261173D02*
X142441667Y-97223078D01*
X142441667Y-97223078D02*
X142458334Y-97184982D01*
X142458334Y-97184982D02*
X142475000Y-97108792D01*
X149675000Y-110679744D02*
X149658333Y-110717840D01*
X149658333Y-110717840D02*
X149608333Y-110755935D01*
X149608333Y-110755935D02*
X149575000Y-110755935D01*
X149575000Y-110755935D02*
X149525000Y-110717840D01*
X149525000Y-110717840D02*
X149491667Y-110641649D01*
X149491667Y-110641649D02*
X149475000Y-110565459D01*
X149475000Y-110565459D02*
X149458333Y-110413078D01*
X149458333Y-110413078D02*
X149458333Y-110298792D01*
X149458333Y-110298792D02*
X149475000Y-110146411D01*
X149475000Y-110146411D02*
X149491667Y-110070220D01*
X149491667Y-110070220D02*
X149525000Y-109994030D01*
X149525000Y-109994030D02*
X149575000Y-109955935D01*
X149575000Y-109955935D02*
X149608333Y-109955935D01*
X149608333Y-109955935D02*
X149658333Y-109994030D01*
X149658333Y-109994030D02*
X149675000Y-110032125D01*
X149808333Y-110032125D02*
X149825000Y-109994030D01*
X149825000Y-109994030D02*
X149858333Y-109955935D01*
X149858333Y-109955935D02*
X149941667Y-109955935D01*
X149941667Y-109955935D02*
X149975000Y-109994030D01*
X149975000Y-109994030D02*
X149991667Y-110032125D01*
X149991667Y-110032125D02*
X150008333Y-110108316D01*
X150008333Y-110108316D02*
X150008333Y-110184506D01*
X150008333Y-110184506D02*
X149991667Y-110298792D01*
X149991667Y-110298792D02*
X149791667Y-110755935D01*
X149791667Y-110755935D02*
X150008333Y-110755935D01*
X150141666Y-110032125D02*
X150158333Y-109994030D01*
X150158333Y-109994030D02*
X150191666Y-109955935D01*
X150191666Y-109955935D02*
X150275000Y-109955935D01*
X150275000Y-109955935D02*
X150308333Y-109994030D01*
X150308333Y-109994030D02*
X150325000Y-110032125D01*
X150325000Y-110032125D02*
X150341666Y-110108316D01*
X150341666Y-110108316D02*
X150341666Y-110184506D01*
X150341666Y-110184506D02*
X150325000Y-110298792D01*
X150325000Y-110298792D02*
X150125000Y-110755935D01*
X150125000Y-110755935D02*
X150341666Y-110755935D01*
X141955000Y-105489744D02*
X141938333Y-105527840D01*
X141938333Y-105527840D02*
X141888333Y-105565935D01*
X141888333Y-105565935D02*
X141855000Y-105565935D01*
X141855000Y-105565935D02*
X141805000Y-105527840D01*
X141805000Y-105527840D02*
X141771667Y-105451649D01*
X141771667Y-105451649D02*
X141755000Y-105375459D01*
X141755000Y-105375459D02*
X141738333Y-105223078D01*
X141738333Y-105223078D02*
X141738333Y-105108792D01*
X141738333Y-105108792D02*
X141755000Y-104956411D01*
X141755000Y-104956411D02*
X141771667Y-104880220D01*
X141771667Y-104880220D02*
X141805000Y-104804030D01*
X141805000Y-104804030D02*
X141855000Y-104765935D01*
X141855000Y-104765935D02*
X141888333Y-104765935D01*
X141888333Y-104765935D02*
X141938333Y-104804030D01*
X141938333Y-104804030D02*
X141955000Y-104842125D01*
X142071667Y-104765935D02*
X142288333Y-104765935D01*
X142288333Y-104765935D02*
X142171667Y-105070697D01*
X142171667Y-105070697D02*
X142221667Y-105070697D01*
X142221667Y-105070697D02*
X142255000Y-105108792D01*
X142255000Y-105108792D02*
X142271667Y-105146887D01*
X142271667Y-105146887D02*
X142288333Y-105223078D01*
X142288333Y-105223078D02*
X142288333Y-105413554D01*
X142288333Y-105413554D02*
X142271667Y-105489744D01*
X142271667Y-105489744D02*
X142255000Y-105527840D01*
X142255000Y-105527840D02*
X142221667Y-105565935D01*
X142221667Y-105565935D02*
X142121667Y-105565935D01*
X142121667Y-105565935D02*
X142088333Y-105527840D01*
X142088333Y-105527840D02*
X142071667Y-105489744D01*
X142488333Y-105108792D02*
X142455000Y-105070697D01*
X142455000Y-105070697D02*
X142438333Y-105032601D01*
X142438333Y-105032601D02*
X142421666Y-104956411D01*
X142421666Y-104956411D02*
X142421666Y-104918316D01*
X142421666Y-104918316D02*
X142438333Y-104842125D01*
X142438333Y-104842125D02*
X142455000Y-104804030D01*
X142455000Y-104804030D02*
X142488333Y-104765935D01*
X142488333Y-104765935D02*
X142555000Y-104765935D01*
X142555000Y-104765935D02*
X142588333Y-104804030D01*
X142588333Y-104804030D02*
X142605000Y-104842125D01*
X142605000Y-104842125D02*
X142621666Y-104918316D01*
X142621666Y-104918316D02*
X142621666Y-104956411D01*
X142621666Y-104956411D02*
X142605000Y-105032601D01*
X142605000Y-105032601D02*
X142588333Y-105070697D01*
X142588333Y-105070697D02*
X142555000Y-105108792D01*
X142555000Y-105108792D02*
X142488333Y-105108792D01*
X142488333Y-105108792D02*
X142455000Y-105146887D01*
X142455000Y-105146887D02*
X142438333Y-105184982D01*
X142438333Y-105184982D02*
X142421666Y-105261173D01*
X142421666Y-105261173D02*
X142421666Y-105413554D01*
X142421666Y-105413554D02*
X142438333Y-105489744D01*
X142438333Y-105489744D02*
X142455000Y-105527840D01*
X142455000Y-105527840D02*
X142488333Y-105565935D01*
X142488333Y-105565935D02*
X142555000Y-105565935D01*
X142555000Y-105565935D02*
X142588333Y-105527840D01*
X142588333Y-105527840D02*
X142605000Y-105489744D01*
X142605000Y-105489744D02*
X142621666Y-105413554D01*
X142621666Y-105413554D02*
X142621666Y-105261173D01*
X142621666Y-105261173D02*
X142605000Y-105184982D01*
X142605000Y-105184982D02*
X142588333Y-105146887D01*
X142588333Y-105146887D02*
X142555000Y-105108792D01*
X146779744Y-110134999D02*
X146817840Y-110151666D01*
X146817840Y-110151666D02*
X146855935Y-110201666D01*
X146855935Y-110201666D02*
X146855935Y-110234999D01*
X146855935Y-110234999D02*
X146817840Y-110284999D01*
X146817840Y-110284999D02*
X146741649Y-110318333D01*
X146741649Y-110318333D02*
X146665459Y-110334999D01*
X146665459Y-110334999D02*
X146513078Y-110351666D01*
X146513078Y-110351666D02*
X146398792Y-110351666D01*
X146398792Y-110351666D02*
X146246411Y-110334999D01*
X146246411Y-110334999D02*
X146170220Y-110318333D01*
X146170220Y-110318333D02*
X146094030Y-110284999D01*
X146094030Y-110284999D02*
X146055935Y-110234999D01*
X146055935Y-110234999D02*
X146055935Y-110201666D01*
X146055935Y-110201666D02*
X146094030Y-110151666D01*
X146094030Y-110151666D02*
X146132125Y-110134999D01*
X146055935Y-110018333D02*
X146055935Y-109801666D01*
X146055935Y-109801666D02*
X146360697Y-109918333D01*
X146360697Y-109918333D02*
X146360697Y-109868333D01*
X146360697Y-109868333D02*
X146398792Y-109834999D01*
X146398792Y-109834999D02*
X146436887Y-109818333D01*
X146436887Y-109818333D02*
X146513078Y-109801666D01*
X146513078Y-109801666D02*
X146703554Y-109801666D01*
X146703554Y-109801666D02*
X146779744Y-109818333D01*
X146779744Y-109818333D02*
X146817840Y-109834999D01*
X146817840Y-109834999D02*
X146855935Y-109868333D01*
X146855935Y-109868333D02*
X146855935Y-109968333D01*
X146855935Y-109968333D02*
X146817840Y-110001666D01*
X146817840Y-110001666D02*
X146779744Y-110018333D01*
X146855935Y-109468333D02*
X146855935Y-109668333D01*
X146855935Y-109568333D02*
X146055935Y-109568333D01*
X146055935Y-109568333D02*
X146170220Y-109601666D01*
X146170220Y-109601666D02*
X146246411Y-109635000D01*
X146246411Y-109635000D02*
X146284506Y-109668333D01*
X153775000Y-90089744D02*
X153758333Y-90127840D01*
X153758333Y-90127840D02*
X153708333Y-90165935D01*
X153708333Y-90165935D02*
X153675000Y-90165935D01*
X153675000Y-90165935D02*
X153625000Y-90127840D01*
X153625000Y-90127840D02*
X153591667Y-90051649D01*
X153591667Y-90051649D02*
X153575000Y-89975459D01*
X153575000Y-89975459D02*
X153558333Y-89823078D01*
X153558333Y-89823078D02*
X153558333Y-89708792D01*
X153558333Y-89708792D02*
X153575000Y-89556411D01*
X153575000Y-89556411D02*
X153591667Y-89480220D01*
X153591667Y-89480220D02*
X153625000Y-89404030D01*
X153625000Y-89404030D02*
X153675000Y-89365935D01*
X153675000Y-89365935D02*
X153708333Y-89365935D01*
X153708333Y-89365935D02*
X153758333Y-89404030D01*
X153758333Y-89404030D02*
X153775000Y-89442125D01*
X153891667Y-89365935D02*
X154108333Y-89365935D01*
X154108333Y-89365935D02*
X153991667Y-89670697D01*
X153991667Y-89670697D02*
X154041667Y-89670697D01*
X154041667Y-89670697D02*
X154075000Y-89708792D01*
X154075000Y-89708792D02*
X154091667Y-89746887D01*
X154091667Y-89746887D02*
X154108333Y-89823078D01*
X154108333Y-89823078D02*
X154108333Y-90013554D01*
X154108333Y-90013554D02*
X154091667Y-90089744D01*
X154091667Y-90089744D02*
X154075000Y-90127840D01*
X154075000Y-90127840D02*
X154041667Y-90165935D01*
X154041667Y-90165935D02*
X153941667Y-90165935D01*
X153941667Y-90165935D02*
X153908333Y-90127840D01*
X153908333Y-90127840D02*
X153891667Y-90089744D01*
X154408333Y-89632601D02*
X154408333Y-90165935D01*
X154325000Y-89327840D02*
X154241666Y-89899268D01*
X154241666Y-89899268D02*
X154458333Y-89899268D01*
D10*
X130766666Y-108734819D02*
X130766666Y-109449104D01*
X130766666Y-109449104D02*
X130719047Y-109591961D01*
X130719047Y-109591961D02*
X130623809Y-109687200D01*
X130623809Y-109687200D02*
X130480952Y-109734819D01*
X130480952Y-109734819D02*
X130385714Y-109734819D01*
X131671428Y-109068152D02*
X131671428Y-109734819D01*
X131433333Y-108687200D02*
X131195238Y-109401485D01*
X131195238Y-109401485D02*
X131814285Y-109401485D01*
D11*
X141955000Y-104365935D02*
X141838333Y-103984982D01*
X141755000Y-104365935D02*
X141755000Y-103565935D01*
X141755000Y-103565935D02*
X141888333Y-103565935D01*
X141888333Y-103565935D02*
X141921667Y-103604030D01*
X141921667Y-103604030D02*
X141938333Y-103642125D01*
X141938333Y-103642125D02*
X141955000Y-103718316D01*
X141955000Y-103718316D02*
X141955000Y-103832601D01*
X141955000Y-103832601D02*
X141938333Y-103908792D01*
X141938333Y-103908792D02*
X141921667Y-103946887D01*
X141921667Y-103946887D02*
X141888333Y-103984982D01*
X141888333Y-103984982D02*
X141755000Y-103984982D01*
X142271667Y-103565935D02*
X142105000Y-103565935D01*
X142105000Y-103565935D02*
X142088333Y-103946887D01*
X142088333Y-103946887D02*
X142105000Y-103908792D01*
X142105000Y-103908792D02*
X142138333Y-103870697D01*
X142138333Y-103870697D02*
X142221667Y-103870697D01*
X142221667Y-103870697D02*
X142255000Y-103908792D01*
X142255000Y-103908792D02*
X142271667Y-103946887D01*
X142271667Y-103946887D02*
X142288333Y-104023078D01*
X142288333Y-104023078D02*
X142288333Y-104213554D01*
X142288333Y-104213554D02*
X142271667Y-104289744D01*
X142271667Y-104289744D02*
X142255000Y-104327840D01*
X142255000Y-104327840D02*
X142221667Y-104365935D01*
X142221667Y-104365935D02*
X142138333Y-104365935D01*
X142138333Y-104365935D02*
X142105000Y-104327840D01*
X142105000Y-104327840D02*
X142088333Y-104289744D01*
X149909744Y-90914999D02*
X149947840Y-90931666D01*
X149947840Y-90931666D02*
X149985935Y-90981666D01*
X149985935Y-90981666D02*
X149985935Y-91014999D01*
X149985935Y-91014999D02*
X149947840Y-91064999D01*
X149947840Y-91064999D02*
X149871649Y-91098333D01*
X149871649Y-91098333D02*
X149795459Y-91114999D01*
X149795459Y-91114999D02*
X149643078Y-91131666D01*
X149643078Y-91131666D02*
X149528792Y-91131666D01*
X149528792Y-91131666D02*
X149376411Y-91114999D01*
X149376411Y-91114999D02*
X149300220Y-91098333D01*
X149300220Y-91098333D02*
X149224030Y-91064999D01*
X149224030Y-91064999D02*
X149185935Y-91014999D01*
X149185935Y-91014999D02*
X149185935Y-90981666D01*
X149185935Y-90981666D02*
X149224030Y-90931666D01*
X149224030Y-90931666D02*
X149262125Y-90914999D01*
X149185935Y-90798333D02*
X149185935Y-90581666D01*
X149185935Y-90581666D02*
X149490697Y-90698333D01*
X149490697Y-90698333D02*
X149490697Y-90648333D01*
X149490697Y-90648333D02*
X149528792Y-90614999D01*
X149528792Y-90614999D02*
X149566887Y-90598333D01*
X149566887Y-90598333D02*
X149643078Y-90581666D01*
X149643078Y-90581666D02*
X149833554Y-90581666D01*
X149833554Y-90581666D02*
X149909744Y-90598333D01*
X149909744Y-90598333D02*
X149947840Y-90614999D01*
X149947840Y-90614999D02*
X149985935Y-90648333D01*
X149985935Y-90648333D02*
X149985935Y-90748333D01*
X149985935Y-90748333D02*
X149947840Y-90781666D01*
X149947840Y-90781666D02*
X149909744Y-90798333D01*
X149185935Y-90281666D02*
X149185935Y-90348333D01*
X149185935Y-90348333D02*
X149224030Y-90381666D01*
X149224030Y-90381666D02*
X149262125Y-90398333D01*
X149262125Y-90398333D02*
X149376411Y-90431666D01*
X149376411Y-90431666D02*
X149528792Y-90448333D01*
X149528792Y-90448333D02*
X149833554Y-90448333D01*
X149833554Y-90448333D02*
X149909744Y-90431666D01*
X149909744Y-90431666D02*
X149947840Y-90415000D01*
X149947840Y-90415000D02*
X149985935Y-90381666D01*
X149985935Y-90381666D02*
X149985935Y-90315000D01*
X149985935Y-90315000D02*
X149947840Y-90281666D01*
X149947840Y-90281666D02*
X149909744Y-90265000D01*
X149909744Y-90265000D02*
X149833554Y-90248333D01*
X149833554Y-90248333D02*
X149643078Y-90248333D01*
X149643078Y-90248333D02*
X149566887Y-90265000D01*
X149566887Y-90265000D02*
X149528792Y-90281666D01*
X149528792Y-90281666D02*
X149490697Y-90315000D01*
X149490697Y-90315000D02*
X149490697Y-90381666D01*
X149490697Y-90381666D02*
X149528792Y-90415000D01*
X149528792Y-90415000D02*
X149566887Y-90431666D01*
X149566887Y-90431666D02*
X149643078Y-90448333D01*
D12*
%TO.C,J2*%
X154970000Y-113930000D02*
X154970000Y-112600000D01*
X156300000Y-113930000D02*
X154970000Y-113930000D01*
X157570000Y-111270000D02*
X165250000Y-111270000D01*
X157570000Y-113930000D02*
X157570000Y-111270000D01*
X157570000Y-113930000D02*
X165250000Y-113930000D01*
X165250000Y-113930000D02*
X165250000Y-111270000D01*
%TO.C,C29*%
X141160000Y-93877836D02*
X141160000Y-93662164D01*
X141880000Y-93877836D02*
X141880000Y-93662164D01*
%TO.C,C42*%
X142092164Y-99240000D02*
X142307836Y-99240000D01*
X142092164Y-99960000D02*
X142307836Y-99960000D01*
%TO.C,C35*%
X138670000Y-93877836D02*
X138670000Y-93662164D01*
X139390000Y-93877836D02*
X139390000Y-93662164D01*
%TO.C,C43*%
X137672164Y-98840000D02*
X137887836Y-98840000D01*
X137672164Y-99560000D02*
X137887836Y-99560000D01*
%TO.C,C30*%
X156692164Y-91440000D02*
X156907836Y-91440000D01*
X156692164Y-92160000D02*
X156907836Y-92160000D01*
%TO.C,R6*%
X137846359Y-102820000D02*
X138153641Y-102820000D01*
X137846359Y-103580000D02*
X138153641Y-103580000D01*
%TO.C,J1*%
X166585000Y-91630000D02*
X166585000Y-88970000D01*
X161445000Y-91630000D02*
X166585000Y-91630000D01*
X161445000Y-91630000D02*
X161445000Y-88970000D01*
X161445000Y-88970000D02*
X166585000Y-88970000D01*
X160175000Y-91630000D02*
X158845000Y-91630000D01*
X158845000Y-91630000D02*
X158845000Y-90300000D01*
%TO.C,R10*%
X137646359Y-97620000D02*
X137953641Y-97620000D01*
X137646359Y-98380000D02*
X137953641Y-98380000D01*
%TO.C,C21*%
X150567836Y-108970000D02*
X150352164Y-108970000D01*
X150567836Y-109690000D02*
X150352164Y-109690000D01*
D13*
%TO.C,IC3*%
X147100000Y-95350000D02*
X156400000Y-95350000D01*
X147100000Y-104650000D02*
X147100000Y-95350000D01*
X156400000Y-95350000D02*
X156400000Y-104650000D01*
X156400000Y-104650000D02*
X147100000Y-104650000D01*
D14*
X145650000Y-95500000D02*
G75*
G02*
X145400000Y-95500000I-125000J0D01*
G01*
X145400000Y-95500000D02*
G75*
G02*
X145650000Y-95500000I125000J0D01*
G01*
D12*
%TO.C,C28*%
X140120000Y-93877836D02*
X140120000Y-93662164D01*
X140840000Y-93877836D02*
X140840000Y-93662164D01*
%TO.C,C33*%
X148307836Y-108440000D02*
X148092164Y-108440000D01*
X148307836Y-109160000D02*
X148092164Y-109160000D01*
%TO.C,C24*%
X153065000Y-108738748D02*
X153065000Y-109261252D01*
X154535000Y-108738748D02*
X154535000Y-109261252D01*
%TO.C,R4*%
X143880000Y-97313641D02*
X143880000Y-97006359D01*
X144640000Y-97313641D02*
X144640000Y-97006359D01*
%TO.C,R8*%
X142046359Y-100420000D02*
X142353641Y-100420000D01*
X142046359Y-101180000D02*
X142353641Y-101180000D01*
%TO.C,C25*%
X152160000Y-91587836D02*
X152160000Y-91372164D01*
X152880000Y-91587836D02*
X152880000Y-91372164D01*
%TO.C,C23*%
X151680000Y-108692164D02*
X151680000Y-108907836D01*
X152400000Y-108692164D02*
X152400000Y-108907836D01*
%TO.C,R7*%
X137846359Y-101620000D02*
X138153641Y-101620000D01*
X137846359Y-102380000D02*
X138153641Y-102380000D01*
%TO.C,C27*%
X155380000Y-108692164D02*
X155380000Y-108907836D01*
X156100000Y-108692164D02*
X156100000Y-108907836D01*
%TO.C,C20*%
X142840000Y-97247836D02*
X142840000Y-97032164D01*
X143560000Y-97247836D02*
X143560000Y-97032164D01*
%TO.C,C41*%
X137892164Y-104040000D02*
X138107836Y-104040000D01*
X137892164Y-104760000D02*
X138107836Y-104760000D01*
%TO.C,C32*%
X158840000Y-93092164D02*
X158840000Y-93307836D01*
X159560000Y-93092164D02*
X159560000Y-93307836D01*
%TO.C,C37*%
X137640000Y-93877836D02*
X137640000Y-93662164D01*
X138360000Y-93877836D02*
X138360000Y-93662164D01*
%TO.C,C39*%
X137872164Y-100440000D02*
X138087836Y-100440000D01*
X137872164Y-101160000D02*
X138087836Y-101160000D01*
%TO.C,C40*%
X140692164Y-95840000D02*
X140907836Y-95840000D01*
X140692164Y-96560000D02*
X140907836Y-96560000D01*
%TO.C,C26*%
X151120000Y-91587836D02*
X151120000Y-91372164D01*
X151840000Y-91587836D02*
X151840000Y-91372164D01*
%TO.C,R9*%
X140666359Y-96820000D02*
X140973641Y-96820000D01*
X140666359Y-97580000D02*
X140973641Y-97580000D01*
%TO.C,C22*%
X150352164Y-107980000D02*
X150567836Y-107980000D01*
X150352164Y-108700000D02*
X150567836Y-108700000D01*
%TO.C,C38*%
X140472164Y-104840000D02*
X140687836Y-104840000D01*
X140472164Y-105560000D02*
X140687836Y-105560000D01*
%TO.C,C31*%
X146130000Y-108567836D02*
X146130000Y-108352164D01*
X146850000Y-108567836D02*
X146850000Y-108352164D01*
%TO.C,C34*%
X154107836Y-90840000D02*
X153892164Y-90840000D01*
X154107836Y-91560000D02*
X153892164Y-91560000D01*
%TO.C,J4*%
X129770000Y-105680000D02*
X129770000Y-92920000D01*
X132430000Y-92920000D02*
X129770000Y-92920000D01*
X132430000Y-105680000D02*
X129770000Y-105680000D01*
X132430000Y-105680000D02*
X132430000Y-92920000D01*
X132430000Y-106950000D02*
X132430000Y-108280000D01*
X132430000Y-108280000D02*
X131100000Y-108280000D01*
%TO.C,R5*%
X140446359Y-103620000D02*
X140753641Y-103620000D01*
X140446359Y-104380000D02*
X140753641Y-104380000D01*
%TO.C,C36*%
X149260000Y-92082164D02*
X149260000Y-92297836D01*
X149980000Y-92082164D02*
X149980000Y-92297836D01*
%TD*%
M02*
