%TF.GenerationSoftware,KiCad,Pcbnew,8.0.2-1*%
%TF.CreationDate,2024-05-30T11:00:14+09:00*%
%TF.ProjectId,eeg,6565672e-6b69-4636-9164-5f7063625858,rev?*%
%TF.SameCoordinates,Original*%
%TF.FileFunction,Copper,L4,Inr*%
%TF.FilePolarity,Positive*%
%FSLAX46Y46*%
G04 Gerber Fmt 4.6, Leading zero omitted, Abs format (unit mm)*
G04 Created by KiCad (PCBNEW 8.0.2-1) date 2024-05-30 11:00:14*
%MOMM*%
%LPD*%
G01*
G04 APERTURE LIST*
%TA.AperFunction,ComponentPad*%
%ADD10R,1.000000X1.000000*%
%TD*%
%TA.AperFunction,ComponentPad*%
%ADD11O,1.000000X1.000000*%
%TD*%
%TA.AperFunction,ComponentPad*%
%ADD12O,0.900000X2.000000*%
%TD*%
%TA.AperFunction,ComponentPad*%
%ADD13O,0.900000X1.700000*%
%TD*%
%TA.AperFunction,ViaPad*%
%ADD14C,0.400000*%
%TD*%
%TA.AperFunction,ViaPad*%
%ADD15C,0.450000*%
%TD*%
%TA.AperFunction,Conductor*%
%ADD16C,0.250000*%
%TD*%
%TA.AperFunction,Conductor*%
%ADD17C,0.150000*%
%TD*%
G04 APERTURE END LIST*
D10*
%TO.N,/DVDD*%
%TO.C,J2*%
X160220000Y-106230000D03*
D11*
%TO.N,/SWDIO*%
X160220000Y-107500000D03*
%TO.N,/SWDCLK*%
X160220000Y-108770000D03*
%TO.N,GND*%
X160220000Y-110040000D03*
%TD*%
D10*
%TO.N,/UART_RX*%
%TO.C,J1*%
X161265000Y-90160000D03*
D11*
%TO.N,/UART_TX*%
X162535000Y-90160000D03*
%TO.N,GND*%
X163805000Y-90160000D03*
%TD*%
D10*
%TO.N,/ads1299/1P*%
%TO.C,J4*%
X135000000Y-105175000D03*
D11*
%TO.N,/ads1299/2P*%
X135000000Y-103905000D03*
%TO.N,/ads1299/3P*%
X135000000Y-102635000D03*
%TO.N,/ads1299/4P*%
X135000000Y-101365000D03*
%TO.N,/ads1299/REF*%
X135000000Y-100095000D03*
%TO.N,/ads1299/BIAS*%
X135000000Y-98825000D03*
%TD*%
D10*
%TO.N,Net-(BT1-+)*%
%TO.C,BT1*%
X135720000Y-107870000D03*
D11*
%TO.N,GND*%
X134450000Y-107870000D03*
%TD*%
D12*
%TO.N,unconnected-(J3-SHIELD-PadS1)_0*%
%TO.C,J3*%
X135350000Y-94750000D03*
%TO.N,unconnected-(J3-SHIELD-PadS1)_2*%
X144000000Y-94750000D03*
D13*
%TO.N,unconnected-(J3-SHIELD-PadS1)*%
X135350000Y-90580000D03*
%TO.N,unconnected-(J3-SHIELD-PadS1)_1*%
X144000000Y-90580000D03*
%TD*%
D14*
%TO.N,VSSA*%
X153100000Y-89400000D03*
X154600000Y-89400000D03*
X153031075Y-90834648D03*
%TO.N,/DVDD*%
X152740000Y-101520000D03*
X147379996Y-98330000D03*
X157050000Y-91670000D03*
X159100000Y-94530000D03*
X145600000Y-104440000D03*
X156100000Y-100520000D03*
X157737500Y-108262500D03*
X157737500Y-106602500D03*
X156320000Y-102250000D03*
%TO.N,/USB-C/VBUS_IN*%
X137250000Y-97440000D03*
X142075000Y-95330000D03*
X147200000Y-91920000D03*
X137275000Y-95330000D03*
%TO.N,/nrf5340/VBUS_OUT*%
X139285774Y-97345000D03*
X155220000Y-98050000D03*
%TO.N,/AVDD*%
X153030000Y-96020000D03*
X149150000Y-108280000D03*
D15*
X149620000Y-92670000D03*
D14*
X151340000Y-97540000D03*
X154420000Y-91000000D03*
X139190000Y-92610000D03*
X148120000Y-107260000D03*
%TO.N,/power/CHG*%
X145525000Y-89500000D03*
X145520000Y-94890000D03*
%TO.N,/nrf5340/SDA*%
X145500000Y-105300000D03*
X159440000Y-103250000D03*
%TO.N,/power/PVDD*%
X149610000Y-101040000D03*
X149620000Y-100020000D03*
X147100000Y-89500000D03*
X149220000Y-96500000D03*
X139800000Y-102190000D03*
X140430000Y-102190000D03*
%TO.N,GND*%
X148000000Y-97000000D03*
X160000000Y-90000000D03*
X135000000Y-97000000D03*
X156000000Y-90000000D03*
X154000000Y-100000000D03*
X160000000Y-93000000D03*
X165000000Y-90000000D03*
X149000000Y-104000000D03*
X162000000Y-110000000D03*
X165000000Y-110000000D03*
%TO.N,/nrf5340/BMI270_CS*%
X157300000Y-110100000D03*
X160740000Y-99350000D03*
%TO.N,/ads1299/SCK*%
X154405823Y-104600498D03*
X160090000Y-100000000D03*
%TO.N,/ads1299/MISO*%
X160090000Y-98060000D03*
X156147102Y-104324650D03*
%TO.N,/ads1299/~{DRDY}*%
X161390000Y-98700000D03*
%TO.N,/ads1299/MOSI*%
X158790000Y-103250000D03*
%TO.N,/ads1299/~{ADS1299_CS}*%
X160740000Y-101300000D03*
%TO.N,/ads1299/START*%
X159440000Y-102600000D03*
%TO.N,/USB-C/DP1*%
X150500000Y-91600000D03*
X158790000Y-99350000D03*
%TO.N,/USB-C/DN1*%
X158790000Y-100000000D03*
X148500000Y-91600000D03*
%TO.N,/BMI270_INT1*%
X162040000Y-98700000D03*
X157400000Y-104400000D03*
%TD*%
D16*
%TO.N,/USB-C/VBUS_IN*%
X147200000Y-94810000D02*
X147200000Y-91920000D01*
X142075000Y-95330000D02*
X143115000Y-96370000D01*
X145640000Y-96370000D02*
X147200000Y-94810000D01*
X143115000Y-96370000D02*
X145640000Y-96370000D01*
%TO.N,/nrf5340/VBUS_OUT*%
X139285774Y-97345000D02*
X139740774Y-97800000D01*
X139740774Y-97800000D02*
X148090000Y-97800000D01*
X155220000Y-98250000D02*
X155220000Y-98050000D01*
X154773198Y-98696802D02*
X155220000Y-98250000D01*
X148986802Y-98696802D02*
X154773198Y-98696802D01*
X148090000Y-97800000D02*
X148986802Y-98696802D01*
D17*
%TO.N,/power/CHG*%
X145525000Y-94885000D02*
X145520000Y-94890000D01*
X145525000Y-89500000D02*
X145525000Y-94885000D01*
%TO.N,/nrf5340/SDA*%
X159440000Y-103271752D02*
X159440000Y-103250000D01*
X145500000Y-105300000D02*
X157411752Y-105300000D01*
X157411752Y-105300000D02*
X159440000Y-103271752D01*
%TO.N,/power/PVDD*%
X147100000Y-89500000D02*
X147100000Y-90871752D01*
X147100000Y-90871752D02*
X149220000Y-92991752D01*
D16*
X149630000Y-100000000D02*
X149615000Y-99985000D01*
D17*
X149220000Y-92991752D02*
X149220000Y-96500000D01*
%TO.N,/nrf5340/BMI270_CS*%
X162236752Y-98225000D02*
X161193248Y-98225000D01*
X162515000Y-100846752D02*
X162515000Y-98503248D01*
X157300000Y-110100000D02*
X159445000Y-107955000D01*
X160740000Y-98678248D02*
X160740000Y-99350000D01*
X162515000Y-98503248D02*
X162236752Y-98225000D01*
X159445000Y-107955000D02*
X159445000Y-103916752D01*
X161193248Y-98225000D02*
X160740000Y-98678248D01*
X159445000Y-103916752D02*
X162515000Y-100846752D01*
%TO.N,/ads1299/SCK*%
X156925000Y-104443504D02*
X156925000Y-103275000D01*
X156568854Y-104799650D02*
X156925000Y-104443504D01*
X154604975Y-104799650D02*
X156568854Y-104799650D01*
X156925000Y-103275000D02*
X160090000Y-100110000D01*
X154405823Y-104600498D02*
X154604975Y-104799650D01*
X160090000Y-100110000D02*
X160090000Y-100000000D01*
%TO.N,/ads1299/MISO*%
X159265000Y-100371637D02*
X159265000Y-98885000D01*
X156147102Y-104324650D02*
X156147102Y-103489535D01*
X159265000Y-98885000D02*
X160090000Y-98060000D01*
X156147102Y-103489535D02*
X159265000Y-100371637D01*
%TO.N,/USB-C/DP1*%
X150720000Y-91820000D02*
X153114974Y-91820000D01*
X158150000Y-96855026D02*
X158150000Y-98710000D01*
X150500000Y-91600000D02*
X150720000Y-91820000D01*
X153114974Y-91820000D02*
X158150000Y-96855026D01*
X158150000Y-98710000D02*
X158790000Y-99350000D01*
%TO.N,/USB-C/DN1*%
X158790000Y-99825000D02*
X158790000Y-100000000D01*
X158780000Y-99990000D02*
X158790000Y-100000000D01*
X149070000Y-92170000D02*
X152970000Y-92170000D01*
X157800000Y-99031752D02*
X158593248Y-99825000D01*
X148500000Y-91600000D02*
X149070000Y-92170000D01*
X157800000Y-97000000D02*
X157800000Y-99031752D01*
X158593248Y-99825000D02*
X158790000Y-99825000D01*
X152970000Y-92170000D02*
X157800000Y-97000000D01*
%TO.N,/BMI270_INT1*%
X162040000Y-99328248D02*
X162040000Y-98700000D01*
X157400000Y-104400000D02*
X157400000Y-103968248D01*
X157400000Y-103968248D02*
X162040000Y-99328248D01*
%TD*%
%TA.AperFunction,Conductor*%
%TO.N,/USB-C/VBUS_IN*%
G36*
X142325500Y-94919962D02*
G01*
X142380038Y-94974500D01*
X142400000Y-95049000D01*
X142400000Y-97225500D01*
X142380038Y-97300000D01*
X142325500Y-97354538D01*
X142251000Y-97374500D01*
X139978740Y-97374500D01*
X139904240Y-97354538D01*
X139873381Y-97330859D01*
X139808585Y-97266063D01*
X139776375Y-97211775D01*
X139775366Y-97212237D01*
X139771076Y-97202844D01*
X139770979Y-97202680D01*
X139770939Y-97202545D01*
X139770939Y-97202543D01*
X139711151Y-97071627D01*
X139616902Y-96962857D01*
X139616901Y-96962856D01*
X139583239Y-96941223D01*
X139495827Y-96885047D01*
X139495824Y-96885046D01*
X139357741Y-96844501D01*
X139357736Y-96844500D01*
X139357735Y-96844500D01*
X139213813Y-96844500D01*
X139213811Y-96844500D01*
X139213806Y-96844501D01*
X139075723Y-96885046D01*
X138954646Y-96962856D01*
X138954644Y-96962859D01*
X138860396Y-97071628D01*
X138800608Y-97202545D01*
X138780127Y-97344996D01*
X138780127Y-97345003D01*
X138800608Y-97487456D01*
X138847029Y-97589103D01*
X138859819Y-97665163D01*
X138832866Y-97737428D01*
X138773391Y-97786535D01*
X138711494Y-97800000D01*
X137049000Y-97800000D01*
X136974500Y-97780038D01*
X136919962Y-97725500D01*
X136900000Y-97651000D01*
X136900000Y-95049000D01*
X136919962Y-94974500D01*
X136974500Y-94919962D01*
X137049000Y-94900000D01*
X142251000Y-94900000D01*
X142325500Y-94919962D01*
G37*
%TD.AperFunction*%
%TD*%
%TA.AperFunction,Conductor*%
%TO.N,VSSA*%
G36*
X154925500Y-89019962D02*
G01*
X154980038Y-89074500D01*
X155000000Y-89149000D01*
X155000000Y-90507241D01*
X154980038Y-90581741D01*
X154925500Y-90636279D01*
X154851000Y-90656241D01*
X154776500Y-90636279D01*
X154753432Y-90619853D01*
X154751131Y-90617859D01*
X154678649Y-90571278D01*
X154630053Y-90540047D01*
X154630050Y-90540046D01*
X154491967Y-90499501D01*
X154491962Y-90499500D01*
X154491961Y-90499500D01*
X154348039Y-90499500D01*
X154348037Y-90499500D01*
X154348032Y-90499501D01*
X154209949Y-90540046D01*
X154088872Y-90617856D01*
X154088870Y-90617859D01*
X153994622Y-90726628D01*
X153934833Y-90857545D01*
X153918349Y-90972204D01*
X153887988Y-91043105D01*
X153826244Y-91089327D01*
X153770866Y-91100000D01*
X150586094Y-91100000D01*
X150579104Y-91099500D01*
X150571961Y-91099500D01*
X150428039Y-91099500D01*
X150420896Y-91099500D01*
X150413906Y-91100000D01*
X148586094Y-91100000D01*
X148579104Y-91099500D01*
X148571961Y-91099500D01*
X148428039Y-91099500D01*
X148420896Y-91099500D01*
X148413906Y-91100000D01*
X148049000Y-91100000D01*
X147974500Y-91080038D01*
X147919962Y-91025500D01*
X147900000Y-90951000D01*
X147900000Y-89149000D01*
X147919962Y-89074500D01*
X147974500Y-89019962D01*
X148049000Y-89000000D01*
X154851000Y-89000000D01*
X154925500Y-89019962D01*
G37*
%TD.AperFunction*%
%TD*%
%TA.AperFunction,Conductor*%
%TO.N,/power/PVDD*%
G36*
X149993039Y-99719685D02*
G01*
X150038794Y-99772489D01*
X150050000Y-99824000D01*
X150050000Y-103576000D01*
X150030315Y-103643039D01*
X149977511Y-103688794D01*
X149926000Y-103700000D01*
X149709177Y-103700000D01*
X149642138Y-103680315D01*
X149607127Y-103646441D01*
X149604779Y-103643039D01*
X149528183Y-103532071D01*
X149400852Y-103419266D01*
X149400849Y-103419263D01*
X149250226Y-103340210D01*
X149085056Y-103299500D01*
X148914944Y-103299500D01*
X148749773Y-103340210D01*
X148599150Y-103419263D01*
X148471818Y-103532070D01*
X148471817Y-103532071D01*
X148405940Y-103627511D01*
X148392873Y-103646441D01*
X148338590Y-103690431D01*
X148290823Y-103700000D01*
X139574000Y-103700000D01*
X139506961Y-103680315D01*
X139461206Y-103627511D01*
X139450000Y-103576000D01*
X139450000Y-100924000D01*
X139469685Y-100856961D01*
X139522489Y-100811206D01*
X139574000Y-100800000D01*
X141826000Y-100800000D01*
X141893039Y-100819685D01*
X141938794Y-100872489D01*
X141950000Y-100924000D01*
X141950000Y-102700000D01*
X148150000Y-102700000D01*
X148150000Y-99824000D01*
X148169685Y-99756961D01*
X148222489Y-99711206D01*
X148274000Y-99700000D01*
X149926000Y-99700000D01*
X149993039Y-99719685D01*
G37*
%TD.AperFunction*%
%TD*%
%TA.AperFunction,Conductor*%
%TO.N,/AVDD*%
G36*
X154381745Y-94119962D02*
G01*
X154412604Y-94143641D01*
X154556359Y-94287396D01*
X154594923Y-94354191D01*
X154600000Y-94392755D01*
X154600000Y-98122302D01*
X154580038Y-98196802D01*
X154525500Y-98251340D01*
X154451000Y-98271302D01*
X150349000Y-98271302D01*
X150274500Y-98251340D01*
X150219962Y-98196802D01*
X150200000Y-98122302D01*
X150200000Y-95949000D01*
X150219962Y-95874500D01*
X150274500Y-95819962D01*
X150349000Y-95800000D01*
X152600000Y-95800000D01*
X152600000Y-94249000D01*
X152619962Y-94174500D01*
X152674500Y-94119962D01*
X152749000Y-94100000D01*
X154307245Y-94100000D01*
X154381745Y-94119962D01*
G37*
%TD.AperFunction*%
%TD*%
M02*
