%TF.GenerationSoftware,KiCad,Pcbnew,8.0.2-1*%
%TF.CreationDate,2024-06-13T15:22:41+09:00*%
%TF.ProjectId,eeg,6565672e-6b69-4636-9164-5f7063625858,rev?*%
%TF.SameCoordinates,Original*%
%TF.FileFunction,Copper,L5,Inr*%
%TF.FilePolarity,Positive*%
%FSLAX46Y46*%
G04 Gerber Fmt 4.6, Leading zero omitted, Abs format (unit mm)*
G04 Created by KiCad (PCBNEW 8.0.2-1) date 2024-06-13 15:22:41*
%MOMM*%
%LPD*%
G01*
G04 APERTURE LIST*
%TA.AperFunction,ComponentPad*%
%ADD10R,1.700000X1.700000*%
%TD*%
%TA.AperFunction,ComponentPad*%
%ADD11O,1.700000X1.700000*%
%TD*%
%TA.AperFunction,ComponentPad*%
%ADD12O,1.000000X1.000000*%
%TD*%
%TA.AperFunction,ComponentPad*%
%ADD13R,1.000000X1.000000*%
%TD*%
%TA.AperFunction,ComponentPad*%
%ADD14O,0.900000X1.700000*%
%TD*%
%TA.AperFunction,ComponentPad*%
%ADD15O,0.900000X2.000000*%
%TD*%
%TA.AperFunction,ViaPad*%
%ADD16C,0.400000*%
%TD*%
%TA.AperFunction,ViaPad*%
%ADD17C,0.450000*%
%TD*%
G04 APERTURE END LIST*
D10*
%TO.N,/DVDD*%
%TO.C,J2*%
X156300000Y-112600000D03*
D11*
%TO.N,/SWDIO*%
X158840000Y-112600000D03*
%TO.N,/SWDCLK*%
X161380000Y-112600000D03*
%TO.N,GND*%
X163920000Y-112600000D03*
%TD*%
%TO.N,GND*%
%TO.C,J1*%
X165255000Y-90300000D03*
%TO.N,/UART_TX*%
X162715000Y-90300000D03*
D10*
%TO.N,/UART_RX*%
X160175000Y-90300000D03*
%TD*%
%TO.N,/ads1299/1P*%
%TO.C,J4*%
X131100000Y-106950000D03*
D11*
%TO.N,/ads1299/2P*%
X131100000Y-104410000D03*
%TO.N,/ads1299/3P*%
X131100000Y-101870000D03*
%TO.N,/ads1299/4P*%
X131100000Y-99330000D03*
%TO.N,/ads1299/REF*%
X131100000Y-96790000D03*
%TO.N,/ads1299/BIAS*%
X131100000Y-94250000D03*
%TD*%
D12*
%TO.N,GND*%
%TO.C,BT1*%
X134450000Y-107870000D03*
D13*
%TO.N,Net-(BT1-+)*%
X135720000Y-107870000D03*
%TD*%
D14*
%TO.N,unconnected-(J3-SHIELD-PadS1)_1*%
%TO.C,J3*%
X144000000Y-90580000D03*
%TO.N,unconnected-(J3-SHIELD-PadS1)*%
X135350000Y-90580000D03*
D15*
%TO.N,unconnected-(J3-SHIELD-PadS1)_2*%
X144000000Y-94750000D03*
%TO.N,unconnected-(J3-SHIELD-PadS1)_0*%
X135350000Y-94750000D03*
%TD*%
D16*
%TO.N,/nrf5340/BMI270_CS*%
X161390000Y-103250000D03*
%TO.N,VSSA*%
X146490000Y-109600000D03*
X149400000Y-110200000D03*
X149620000Y-91710000D03*
X152635696Y-90342662D03*
X154400000Y-90200000D03*
X140480000Y-93290000D03*
%TO.N,/DVDD*%
X152740000Y-101520000D03*
X147379996Y-98330000D03*
X157280000Y-91800000D03*
X159100000Y-94530000D03*
X145600000Y-104440000D03*
X158725000Y-109400000D03*
X156100000Y-100520000D03*
X157737500Y-108262500D03*
X157737500Y-106602500D03*
X156320000Y-102250000D03*
X159200000Y-93680000D03*
%TO.N,/USB-C/VBUS_IN*%
X142075000Y-95330000D03*
X137275000Y-95330000D03*
%TO.N,/nrf5340/VBUS_OUT*%
X140439996Y-98790000D03*
X152800000Y-98696802D03*
%TO.N,/AVDD*%
X153867724Y-90704383D03*
D17*
X153400000Y-97400000D03*
X149620000Y-92670000D03*
X154200000Y-97400000D03*
D16*
X147720000Y-109800000D03*
X139030000Y-93290000D03*
X145600000Y-107200000D03*
%TO.N,/power/CHG*%
X145525000Y-89500000D03*
X145520000Y-94890000D03*
%TO.N,/nrf5340/SDA*%
X151164124Y-104564124D03*
X159440000Y-103250000D03*
%TO.N,/power/PVDD*%
X149610000Y-101040000D03*
X149620000Y-100020000D03*
X147100000Y-89500000D03*
X149220000Y-96500000D03*
X140440000Y-101350000D03*
%TO.N,GND*%
X144400000Y-99400000D03*
X137520000Y-104400000D03*
X148000000Y-97000000D03*
X146560000Y-104440000D03*
X147430000Y-94260000D03*
X148600000Y-99060000D03*
X136700000Y-103800000D03*
X157737500Y-109222500D03*
X157200000Y-107600000D03*
X143800000Y-101400000D03*
X156160000Y-99610000D03*
X162040000Y-97400000D03*
X162040000Y-103900000D03*
X140100000Y-105200000D03*
X136475000Y-95330000D03*
X150000000Y-95510000D03*
X161390000Y-101300000D03*
X158890000Y-97300000D03*
X159200000Y-92720000D03*
X156320000Y-91800000D03*
X149000000Y-104000000D03*
X143330000Y-105440000D03*
X149650000Y-98070000D03*
X162300000Y-110000000D03*
X142875000Y-95330000D03*
X155000000Y-103750000D03*
X157739105Y-105644188D03*
X156100000Y-101480000D03*
X139030000Y-94250000D03*
X158400000Y-105000000D03*
X151800000Y-90200000D03*
X139608218Y-96298620D03*
X162040000Y-102600000D03*
X139479996Y-98790000D03*
X139480000Y-101350000D03*
X137500000Y-100800000D03*
X140480000Y-94250000D03*
X162040000Y-100650000D03*
X155591825Y-96335282D03*
X160060000Y-94530000D03*
X136800000Y-99200000D03*
X165000000Y-110000000D03*
%TO.N,/nrf5340/BMI270_CS*%
X154567628Y-108884698D03*
%TO.N,/ads1299/SCK*%
X154405823Y-104600498D03*
X160090000Y-100000000D03*
%TO.N,/ads1299/MISO*%
X160090000Y-98060000D03*
X156147102Y-104324650D03*
%TO.N,/ads1299/~{DRDY}*%
X161390000Y-98700000D03*
%TO.N,/ads1299/MOSI*%
X158790000Y-103250000D03*
%TO.N,/ads1299/~{ADS1299_CS}*%
X160740000Y-101300000D03*
%TO.N,/ads1299/START*%
X159440000Y-102600000D03*
%TO.N,/BMI270_INT1*%
X162040000Y-98700000D03*
X157400000Y-104400000D03*
%TD*%
%TA.AperFunction,Conductor*%
%TO.N,GND*%
G36*
X145046894Y-89019962D02*
G01*
X145101432Y-89074500D01*
X145121394Y-89149000D01*
X145103284Y-89216584D01*
X145104050Y-89216934D01*
X145101972Y-89221483D01*
X145101432Y-89223500D01*
X145099913Y-89225990D01*
X145039834Y-89357545D01*
X145019353Y-89499996D01*
X145019353Y-89500003D01*
X145039834Y-89642454D01*
X145039834Y-89642455D01*
X145039835Y-89642457D01*
X145099623Y-89773373D01*
X145193872Y-89882143D01*
X145314947Y-89959953D01*
X145453039Y-90000500D01*
X145453041Y-90000500D01*
X145596959Y-90000500D01*
X145596961Y-90000500D01*
X145735053Y-89959953D01*
X145856128Y-89882143D01*
X145950377Y-89773373D01*
X146010165Y-89642457D01*
X146022811Y-89554499D01*
X146030647Y-89500003D01*
X146030647Y-89499996D01*
X146013395Y-89380007D01*
X146010165Y-89357543D01*
X145950377Y-89226627D01*
X145950376Y-89226626D01*
X145945950Y-89216934D01*
X145947934Y-89216027D01*
X145928775Y-89156088D01*
X145945170Y-89080723D01*
X145997052Y-89023652D01*
X146070518Y-89000169D01*
X146077606Y-89000000D01*
X146547394Y-89000000D01*
X146621894Y-89019962D01*
X146676432Y-89074500D01*
X146696394Y-89149000D01*
X146678284Y-89216584D01*
X146679050Y-89216934D01*
X146676972Y-89221483D01*
X146676432Y-89223500D01*
X146674913Y-89225990D01*
X146614834Y-89357545D01*
X146594353Y-89499996D01*
X146594353Y-89500003D01*
X146614834Y-89642454D01*
X146614834Y-89642455D01*
X146614835Y-89642457D01*
X146674623Y-89773373D01*
X146768872Y-89882143D01*
X146889947Y-89959953D01*
X147028039Y-90000500D01*
X147028041Y-90000500D01*
X147171959Y-90000500D01*
X147171961Y-90000500D01*
X147310053Y-89959953D01*
X147431128Y-89882143D01*
X147525377Y-89773373D01*
X147585165Y-89642457D01*
X147597811Y-89554499D01*
X147605647Y-89500003D01*
X147605647Y-89499996D01*
X147588395Y-89380007D01*
X147585165Y-89357543D01*
X147525377Y-89226627D01*
X147525376Y-89226626D01*
X147520950Y-89216934D01*
X147522934Y-89216027D01*
X147503775Y-89156088D01*
X147520170Y-89080723D01*
X147572052Y-89023652D01*
X147645518Y-89000169D01*
X147652606Y-89000000D01*
X158990311Y-89000000D01*
X159064811Y-89019962D01*
X159119349Y-89074500D01*
X159139311Y-89149000D01*
X159119349Y-89223500D01*
X159095670Y-89254359D01*
X159072793Y-89277235D01*
X159027416Y-89380005D01*
X159027415Y-89380008D01*
X159027415Y-89380009D01*
X159024500Y-89405135D01*
X159024500Y-89405136D01*
X159024500Y-89405140D01*
X159024500Y-91194866D01*
X159027414Y-91219989D01*
X159027415Y-91219992D01*
X159072793Y-91322764D01*
X159072794Y-91322765D01*
X159152235Y-91402206D01*
X159255009Y-91447585D01*
X159280135Y-91450500D01*
X161069864Y-91450499D01*
X161069866Y-91450499D01*
X161082427Y-91449042D01*
X161094991Y-91447585D01*
X161197765Y-91402206D01*
X161277206Y-91322765D01*
X161322585Y-91219991D01*
X161325500Y-91194865D01*
X161325499Y-90688632D01*
X161345461Y-90614135D01*
X161399999Y-90559597D01*
X161474499Y-90539635D01*
X161548999Y-90559597D01*
X161603537Y-90614135D01*
X161617811Y-90647858D01*
X161637594Y-90717387D01*
X161732636Y-90908259D01*
X161835193Y-91044064D01*
X161861128Y-91078407D01*
X162016441Y-91219994D01*
X162018697Y-91222051D01*
X162018698Y-91222052D01*
X162199977Y-91334296D01*
X162199983Y-91334299D01*
X162214818Y-91340046D01*
X162398802Y-91411321D01*
X162608390Y-91450500D01*
X162608393Y-91450500D01*
X162821607Y-91450500D01*
X162821610Y-91450500D01*
X163031198Y-91411321D01*
X163230019Y-91334298D01*
X163411302Y-91222052D01*
X163568872Y-91078407D01*
X163697366Y-90908255D01*
X163792405Y-90717389D01*
X163841948Y-90543263D01*
X163881536Y-90477072D01*
X163948917Y-90439541D01*
X164026036Y-90440729D01*
X164092229Y-90480317D01*
X164128572Y-90543265D01*
X164178062Y-90717204D01*
X164273064Y-90907996D01*
X164401498Y-91078068D01*
X164558999Y-91221650D01*
X164740206Y-91333848D01*
X164740209Y-91333850D01*
X164938933Y-91410836D01*
X164938940Y-91410838D01*
X165104999Y-91441879D01*
X165105000Y-91441879D01*
X165105000Y-90777445D01*
X165189174Y-90800000D01*
X165320826Y-90800000D01*
X165405000Y-90777445D01*
X165405000Y-91441879D01*
X165571059Y-91410838D01*
X165571066Y-91410836D01*
X165769790Y-91333850D01*
X165769793Y-91333848D01*
X165951000Y-91221650D01*
X166108501Y-91078068D01*
X166236935Y-90907996D01*
X166331937Y-90717204D01*
X166390261Y-90512217D01*
X166396026Y-90450000D01*
X165732445Y-90450000D01*
X165755000Y-90365826D01*
X165755000Y-90234174D01*
X165732445Y-90150000D01*
X166396026Y-90150000D01*
X166390261Y-90087782D01*
X166331937Y-89882795D01*
X166236935Y-89692003D01*
X166108501Y-89521931D01*
X165951000Y-89378349D01*
X165785187Y-89275683D01*
X165732354Y-89219491D01*
X165714696Y-89144412D01*
X165736942Y-89070562D01*
X165793134Y-89017729D01*
X165863625Y-89000000D01*
X166851000Y-89000000D01*
X166925500Y-89019962D01*
X166980038Y-89074500D01*
X167000000Y-89149000D01*
X167000000Y-110851000D01*
X166980038Y-110925500D01*
X166925500Y-110980038D01*
X166851000Y-111000000D01*
X129949000Y-111000000D01*
X129874500Y-110980038D01*
X129819962Y-110925500D01*
X129800000Y-110851000D01*
X129800000Y-109328247D01*
X139855000Y-109328247D01*
X139855000Y-109328249D01*
X139855000Y-109471751D01*
X139892141Y-109610362D01*
X139963891Y-109734638D01*
X140065362Y-109836109D01*
X140189638Y-109907859D01*
X140328249Y-109945000D01*
X140471751Y-109945000D01*
X140610362Y-109907859D01*
X140734638Y-109836109D01*
X140836109Y-109734638D01*
X140907859Y-109610362D01*
X140945000Y-109471751D01*
X140945000Y-109328249D01*
X140944999Y-109328247D01*
X142852200Y-109328247D01*
X142852200Y-109328249D01*
X142852200Y-109471751D01*
X142889341Y-109610362D01*
X142961091Y-109734638D01*
X143062562Y-109836109D01*
X143186838Y-109907859D01*
X143325449Y-109945000D01*
X143468951Y-109945000D01*
X143607562Y-109907859D01*
X143731838Y-109836109D01*
X143833309Y-109734638D01*
X143905059Y-109610362D01*
X143907837Y-109599996D01*
X145984353Y-109599996D01*
X145984353Y-109600003D01*
X146004834Y-109742454D01*
X146004834Y-109742455D01*
X146004835Y-109742457D01*
X146039270Y-109817859D01*
X146058596Y-109860177D01*
X146064623Y-109873373D01*
X146158872Y-109982143D01*
X146279947Y-110059953D01*
X146418039Y-110100500D01*
X146418041Y-110100500D01*
X146561959Y-110100500D01*
X146561961Y-110100500D01*
X146700053Y-110059953D01*
X146821128Y-109982143D01*
X146915377Y-109873373D01*
X146939987Y-109819483D01*
X146989092Y-109760012D01*
X147061357Y-109733058D01*
X147137417Y-109745847D01*
X147196892Y-109794954D01*
X147223004Y-109860177D01*
X147234834Y-109942454D01*
X147234834Y-109942455D01*
X147234835Y-109942457D01*
X147252958Y-109982140D01*
X147287394Y-110057545D01*
X147294623Y-110073373D01*
X147388872Y-110182143D01*
X147509947Y-110259953D01*
X147648039Y-110300500D01*
X147648041Y-110300500D01*
X147791959Y-110300500D01*
X147791961Y-110300500D01*
X147930053Y-110259953D01*
X148023348Y-110199996D01*
X148894353Y-110199996D01*
X148894353Y-110200003D01*
X148914834Y-110342454D01*
X148914834Y-110342455D01*
X148914835Y-110342457D01*
X148974623Y-110473373D01*
X149068872Y-110582143D01*
X149189947Y-110659953D01*
X149328039Y-110700500D01*
X149328041Y-110700500D01*
X149471959Y-110700500D01*
X149471961Y-110700500D01*
X149610053Y-110659953D01*
X149731128Y-110582143D01*
X149825377Y-110473373D01*
X149885165Y-110342457D01*
X149905647Y-110200000D01*
X149905647Y-110199996D01*
X149887441Y-110073371D01*
X149885165Y-110057543D01*
X149825377Y-109926627D01*
X149731128Y-109817857D01*
X149731127Y-109817856D01*
X149695490Y-109794954D01*
X149610053Y-109740047D01*
X149610050Y-109740046D01*
X149471967Y-109699501D01*
X149471962Y-109699500D01*
X149471961Y-109699500D01*
X149328039Y-109699500D01*
X149328037Y-109699500D01*
X149328032Y-109699501D01*
X149189949Y-109740046D01*
X149068872Y-109817856D01*
X149068870Y-109817859D01*
X148974622Y-109926628D01*
X148914834Y-110057545D01*
X148894353Y-110199996D01*
X148023348Y-110199996D01*
X148051128Y-110182143D01*
X148145377Y-110073373D01*
X148205165Y-109942457D01*
X148217027Y-109859953D01*
X148225647Y-109800003D01*
X148225647Y-109799996D01*
X148205165Y-109657545D01*
X148205165Y-109657543D01*
X148145377Y-109526627D01*
X148051128Y-109417857D01*
X148051127Y-109417856D01*
X148023336Y-109399996D01*
X158219353Y-109399996D01*
X158219353Y-109400003D01*
X158239834Y-109542454D01*
X158239834Y-109542455D01*
X158239835Y-109542457D01*
X158270847Y-109610362D01*
X158292394Y-109657545D01*
X158299623Y-109673373D01*
X158393872Y-109782143D01*
X158514947Y-109859953D01*
X158653039Y-109900500D01*
X158653041Y-109900500D01*
X158796959Y-109900500D01*
X158796961Y-109900500D01*
X158935053Y-109859953D01*
X159056128Y-109782143D01*
X159150377Y-109673373D01*
X159210165Y-109542457D01*
X159222374Y-109457543D01*
X159230647Y-109400003D01*
X159230647Y-109399996D01*
X159210165Y-109257545D01*
X159210165Y-109257543D01*
X159150377Y-109126627D01*
X159056128Y-109017857D01*
X159056127Y-109017856D01*
X159022465Y-108996223D01*
X158935053Y-108940047D01*
X158935050Y-108940046D01*
X158796967Y-108899501D01*
X158796962Y-108899500D01*
X158796961Y-108899500D01*
X158653039Y-108899500D01*
X158653037Y-108899500D01*
X158653032Y-108899501D01*
X158514949Y-108940046D01*
X158393872Y-109017856D01*
X158393870Y-109017859D01*
X158299622Y-109126628D01*
X158239834Y-109257545D01*
X158219353Y-109399996D01*
X148023336Y-109399996D01*
X148000306Y-109385196D01*
X147930053Y-109340047D01*
X147930050Y-109340046D01*
X147791967Y-109299501D01*
X147791962Y-109299500D01*
X147791961Y-109299500D01*
X147648039Y-109299500D01*
X147648037Y-109299500D01*
X147648032Y-109299501D01*
X147509949Y-109340046D01*
X147388872Y-109417856D01*
X147388870Y-109417859D01*
X147294621Y-109526629D01*
X147270012Y-109580515D01*
X147220905Y-109639989D01*
X147148639Y-109666941D01*
X147072579Y-109654150D01*
X147013105Y-109605043D01*
X146986995Y-109539820D01*
X146975166Y-109457545D01*
X146923608Y-109344651D01*
X146915377Y-109326627D01*
X146821128Y-109217857D01*
X146821127Y-109217856D01*
X146777215Y-109189636D01*
X146700053Y-109140047D01*
X146700050Y-109140046D01*
X146561967Y-109099501D01*
X146561962Y-109099500D01*
X146561961Y-109099500D01*
X146418039Y-109099500D01*
X146418037Y-109099500D01*
X146418032Y-109099501D01*
X146279949Y-109140046D01*
X146158872Y-109217856D01*
X146158870Y-109217859D01*
X146064622Y-109326628D01*
X146004834Y-109457545D01*
X145984353Y-109599996D01*
X143907837Y-109599996D01*
X143942200Y-109471751D01*
X143942200Y-109328249D01*
X143905059Y-109189638D01*
X143833309Y-109065362D01*
X143731838Y-108963891D01*
X143607562Y-108892141D01*
X143579770Y-108884694D01*
X154061981Y-108884694D01*
X154061981Y-108884701D01*
X154082462Y-109027152D01*
X154082462Y-109027153D01*
X154082463Y-109027155D01*
X154142251Y-109158071D01*
X154236500Y-109266841D01*
X154357575Y-109344651D01*
X154495667Y-109385198D01*
X154495669Y-109385198D01*
X154639587Y-109385198D01*
X154639589Y-109385198D01*
X154777681Y-109344651D01*
X154898756Y-109266841D01*
X154993005Y-109158071D01*
X155052793Y-109027155D01*
X155073275Y-108884698D01*
X155073275Y-108884694D01*
X155059620Y-108789726D01*
X155052793Y-108742241D01*
X154993005Y-108611325D01*
X154898756Y-108502555D01*
X154898755Y-108502554D01*
X154865093Y-108480921D01*
X154777681Y-108424745D01*
X154777678Y-108424744D01*
X154639595Y-108384199D01*
X154639590Y-108384198D01*
X154639589Y-108384198D01*
X154495667Y-108384198D01*
X154495665Y-108384198D01*
X154495660Y-108384199D01*
X154357577Y-108424744D01*
X154236500Y-108502554D01*
X154236498Y-108502557D01*
X154142250Y-108611326D01*
X154082462Y-108742243D01*
X154061981Y-108884694D01*
X143579770Y-108884694D01*
X143468951Y-108855000D01*
X143325449Y-108855000D01*
X143186838Y-108892141D01*
X143186836Y-108892141D01*
X143186836Y-108892142D01*
X143062561Y-108963891D01*
X142961091Y-109065361D01*
X142889342Y-109189636D01*
X142852200Y-109328247D01*
X140944999Y-109328247D01*
X140907859Y-109189638D01*
X140836109Y-109065362D01*
X140734638Y-108963891D01*
X140610362Y-108892141D01*
X140471751Y-108855000D01*
X140328249Y-108855000D01*
X140189638Y-108892141D01*
X140189636Y-108892141D01*
X140189636Y-108892142D01*
X140065361Y-108963891D01*
X139963891Y-109065361D01*
X139892142Y-109189636D01*
X139855000Y-109328247D01*
X129800000Y-109328247D01*
X129800000Y-108134689D01*
X129819962Y-108060189D01*
X129874500Y-108005651D01*
X129949000Y-107985689D01*
X130023500Y-108005651D01*
X130054359Y-108029330D01*
X130077235Y-108052206D01*
X130180009Y-108097585D01*
X130205135Y-108100500D01*
X131994864Y-108100499D01*
X131994866Y-108100499D01*
X132007427Y-108099042D01*
X132019991Y-108097585D01*
X132122765Y-108052206D01*
X132202206Y-107972765D01*
X132247585Y-107869991D01*
X132250500Y-107844865D01*
X132250500Y-107720000D01*
X133661839Y-107720000D01*
X134161326Y-107720000D01*
X134147149Y-107744555D01*
X134125000Y-107827213D01*
X134125000Y-107912787D01*
X134147149Y-107995445D01*
X134161326Y-108020000D01*
X133661839Y-108020000D01*
X133665123Y-108049142D01*
X133724664Y-108219302D01*
X133820577Y-108371948D01*
X133948051Y-108499422D01*
X134100697Y-108595335D01*
X134270855Y-108654876D01*
X134300000Y-108658159D01*
X134300000Y-108158674D01*
X134324555Y-108172851D01*
X134407213Y-108195000D01*
X134492787Y-108195000D01*
X134575445Y-108172851D01*
X134600000Y-108158674D01*
X134600000Y-108658159D01*
X134629143Y-108654876D01*
X134629144Y-108654876D01*
X134799304Y-108595335D01*
X134834446Y-108573253D01*
X134908147Y-108550516D01*
X134983342Y-108567677D01*
X135019082Y-108594053D01*
X135047235Y-108622206D01*
X135150009Y-108667585D01*
X135175135Y-108670500D01*
X136264864Y-108670499D01*
X136264866Y-108670499D01*
X136277427Y-108669042D01*
X136289991Y-108667585D01*
X136392765Y-108622206D01*
X136472206Y-108542765D01*
X136517585Y-108439991D01*
X136520500Y-108414865D01*
X136520500Y-108262496D01*
X157231853Y-108262496D01*
X157231853Y-108262503D01*
X157252334Y-108404954D01*
X157252334Y-108404955D01*
X157252335Y-108404957D01*
X157312123Y-108535873D01*
X157406372Y-108644643D01*
X157527447Y-108722453D01*
X157665539Y-108763000D01*
X157665541Y-108763000D01*
X157809459Y-108763000D01*
X157809461Y-108763000D01*
X157947553Y-108722453D01*
X158068628Y-108644643D01*
X158162877Y-108535873D01*
X158222665Y-108404957D01*
X158243147Y-108262500D01*
X158243147Y-108262496D01*
X158222665Y-108120045D01*
X158222665Y-108120043D01*
X158162877Y-107989127D01*
X158068628Y-107880357D01*
X158068627Y-107880356D01*
X158013401Y-107844865D01*
X157947553Y-107802547D01*
X157947550Y-107802546D01*
X157809467Y-107762001D01*
X157809462Y-107762000D01*
X157809461Y-107762000D01*
X157665539Y-107762000D01*
X157665537Y-107762000D01*
X157665532Y-107762001D01*
X157527449Y-107802546D01*
X157406372Y-107880356D01*
X157406370Y-107880359D01*
X157312122Y-107989128D01*
X157252334Y-108120045D01*
X157231853Y-108262496D01*
X136520500Y-108262496D01*
X136520499Y-107325136D01*
X136517585Y-107300009D01*
X136473425Y-107199996D01*
X145094353Y-107199996D01*
X145094353Y-107200003D01*
X145114834Y-107342454D01*
X145114834Y-107342455D01*
X145114835Y-107342457D01*
X145174623Y-107473373D01*
X145268872Y-107582143D01*
X145389947Y-107659953D01*
X145528039Y-107700500D01*
X145528041Y-107700500D01*
X145671959Y-107700500D01*
X145671961Y-107700500D01*
X145810053Y-107659953D01*
X145931128Y-107582143D01*
X146025377Y-107473373D01*
X146085165Y-107342457D01*
X146105647Y-107200000D01*
X146105647Y-107199996D01*
X146085165Y-107057545D01*
X146085165Y-107057543D01*
X146025377Y-106926627D01*
X145931128Y-106817857D01*
X145931127Y-106817856D01*
X145897465Y-106796223D01*
X145810053Y-106740047D01*
X145810050Y-106740046D01*
X145671967Y-106699501D01*
X145671962Y-106699500D01*
X145671961Y-106699500D01*
X145528039Y-106699500D01*
X145528037Y-106699500D01*
X145528032Y-106699501D01*
X145389949Y-106740046D01*
X145268872Y-106817856D01*
X145268870Y-106817859D01*
X145174622Y-106926628D01*
X145114834Y-107057545D01*
X145094353Y-107199996D01*
X136473425Y-107199996D01*
X136472206Y-107197235D01*
X136392765Y-107117794D01*
X136392764Y-107117793D01*
X136289994Y-107072416D01*
X136289991Y-107072415D01*
X136289982Y-107072414D01*
X136264865Y-107069500D01*
X136264859Y-107069500D01*
X135175133Y-107069500D01*
X135150010Y-107072414D01*
X135150007Y-107072415D01*
X135047234Y-107117793D01*
X135019082Y-107145946D01*
X134952286Y-107184509D01*
X134875158Y-107184508D01*
X134834453Y-107166749D01*
X134799309Y-107144667D01*
X134799303Y-107144664D01*
X134629142Y-107085123D01*
X134600000Y-107081839D01*
X134600000Y-107581325D01*
X134575445Y-107567149D01*
X134492787Y-107545000D01*
X134407213Y-107545000D01*
X134324555Y-107567149D01*
X134300000Y-107581325D01*
X134300000Y-107081839D01*
X134270857Y-107085123D01*
X134100697Y-107144664D01*
X133948051Y-107240577D01*
X133948051Y-107240578D01*
X133820578Y-107368051D01*
X133820577Y-107368051D01*
X133724664Y-107520697D01*
X133665123Y-107690857D01*
X133661839Y-107720000D01*
X132250500Y-107720000D01*
X132250499Y-106602496D01*
X157231853Y-106602496D01*
X157231853Y-106602503D01*
X157252334Y-106744954D01*
X157252334Y-106744955D01*
X157252335Y-106744957D01*
X157312123Y-106875873D01*
X157406372Y-106984643D01*
X157527447Y-107062453D01*
X157665539Y-107103000D01*
X157665541Y-107103000D01*
X157809459Y-107103000D01*
X157809461Y-107103000D01*
X157947553Y-107062453D01*
X158068628Y-106984643D01*
X158162877Y-106875873D01*
X158222665Y-106744957D01*
X158243147Y-106602500D01*
X158243147Y-106602496D01*
X158222665Y-106460045D01*
X158222665Y-106460043D01*
X158162877Y-106329127D01*
X158068628Y-106220357D01*
X158068627Y-106220356D01*
X158034965Y-106198723D01*
X157947553Y-106142547D01*
X157947550Y-106142546D01*
X157809467Y-106102001D01*
X157809462Y-106102000D01*
X157809461Y-106102000D01*
X157665539Y-106102000D01*
X157665537Y-106102000D01*
X157665532Y-106102001D01*
X157527449Y-106142546D01*
X157406372Y-106220356D01*
X157406370Y-106220359D01*
X157312122Y-106329128D01*
X157252334Y-106460045D01*
X157231853Y-106602496D01*
X132250499Y-106602496D01*
X132250499Y-106055136D01*
X132247585Y-106030009D01*
X132202206Y-105927235D01*
X132122765Y-105847794D01*
X132122764Y-105847793D01*
X132019994Y-105802416D01*
X132019991Y-105802415D01*
X132019982Y-105802414D01*
X131994865Y-105799500D01*
X131994859Y-105799500D01*
X131495214Y-105799500D01*
X131420714Y-105779538D01*
X131366176Y-105725000D01*
X131346214Y-105650500D01*
X131366176Y-105576000D01*
X131420714Y-105521462D01*
X131441382Y-105511564D01*
X131615019Y-105444298D01*
X131796302Y-105332052D01*
X131953872Y-105188407D01*
X132082366Y-105018255D01*
X132177405Y-104827389D01*
X132235756Y-104622310D01*
X132249299Y-104476156D01*
X132252650Y-104439996D01*
X145094353Y-104439996D01*
X145094353Y-104440003D01*
X145114834Y-104582454D01*
X145114834Y-104582455D01*
X145114835Y-104582457D01*
X145174623Y-104713373D01*
X145268872Y-104822143D01*
X145389947Y-104899953D01*
X145528039Y-104940500D01*
X145528041Y-104940500D01*
X145671959Y-104940500D01*
X145671961Y-104940500D01*
X145810053Y-104899953D01*
X145931128Y-104822143D01*
X146025377Y-104713373D01*
X146085165Y-104582457D01*
X146087801Y-104564120D01*
X150658477Y-104564120D01*
X150658477Y-104564127D01*
X150678958Y-104706578D01*
X150678958Y-104706579D01*
X150678959Y-104706581D01*
X150738747Y-104837497D01*
X150832996Y-104946267D01*
X150954071Y-105024077D01*
X151092163Y-105064624D01*
X151092165Y-105064624D01*
X151236083Y-105064624D01*
X151236085Y-105064624D01*
X151374177Y-105024077D01*
X151495252Y-104946267D01*
X151589501Y-104837497D01*
X151649289Y-104706581D01*
X151664542Y-104600494D01*
X153900176Y-104600494D01*
X153900176Y-104600501D01*
X153920657Y-104742952D01*
X153920657Y-104742953D01*
X153920658Y-104742955D01*
X153980446Y-104873871D01*
X154074695Y-104982641D01*
X154195770Y-105060451D01*
X154333862Y-105100998D01*
X154333864Y-105100998D01*
X154477782Y-105100998D01*
X154477784Y-105100998D01*
X154615876Y-105060451D01*
X154736951Y-104982641D01*
X154831200Y-104873871D01*
X154890988Y-104742955D01*
X154911470Y-104600498D01*
X154911470Y-104600494D01*
X154897815Y-104505526D01*
X154890988Y-104458041D01*
X154831200Y-104327125D01*
X154829052Y-104324646D01*
X155641455Y-104324646D01*
X155641455Y-104324653D01*
X155661936Y-104467104D01*
X155661936Y-104467105D01*
X155661937Y-104467107D01*
X155721725Y-104598023D01*
X155815974Y-104706793D01*
X155937049Y-104784603D01*
X156075141Y-104825150D01*
X156075143Y-104825150D01*
X156219061Y-104825150D01*
X156219063Y-104825150D01*
X156357155Y-104784603D01*
X156478230Y-104706793D01*
X156572479Y-104598023D01*
X156628134Y-104476154D01*
X156677241Y-104416681D01*
X156749506Y-104389728D01*
X156825566Y-104402518D01*
X156885041Y-104451625D01*
X156911152Y-104516846D01*
X156914834Y-104542455D01*
X156940211Y-104598021D01*
X156974623Y-104673373D01*
X157068872Y-104782143D01*
X157189947Y-104859953D01*
X157328039Y-104900500D01*
X157328041Y-104900500D01*
X157471959Y-104900500D01*
X157471961Y-104900500D01*
X157610053Y-104859953D01*
X157731128Y-104782143D01*
X157825377Y-104673373D01*
X157885165Y-104542457D01*
X157898225Y-104451625D01*
X157905647Y-104400003D01*
X157905647Y-104399996D01*
X157889940Y-104290752D01*
X157885165Y-104257543D01*
X157825377Y-104126627D01*
X157731128Y-104017857D01*
X157731127Y-104017856D01*
X157672294Y-103980047D01*
X157610053Y-103940047D01*
X157610050Y-103940046D01*
X157471967Y-103899501D01*
X157471962Y-103899500D01*
X157471961Y-103899500D01*
X157328039Y-103899500D01*
X157328037Y-103899500D01*
X157328032Y-103899501D01*
X157189949Y-103940046D01*
X157189947Y-103940046D01*
X157189947Y-103940047D01*
X157186116Y-103942509D01*
X157068872Y-104017856D01*
X157068870Y-104017859D01*
X156974622Y-104126628D01*
X156918967Y-104248494D01*
X156869859Y-104307969D01*
X156797594Y-104334921D01*
X156721534Y-104322131D01*
X156662059Y-104273023D01*
X156635948Y-104207801D01*
X156632267Y-104182193D01*
X156572479Y-104051277D01*
X156478230Y-103942507D01*
X156478229Y-103942506D01*
X156411311Y-103899501D01*
X156357155Y-103864697D01*
X156357152Y-103864696D01*
X156219069Y-103824151D01*
X156219064Y-103824150D01*
X156219063Y-103824150D01*
X156075141Y-103824150D01*
X156075139Y-103824150D01*
X156075134Y-103824151D01*
X155937051Y-103864696D01*
X155815974Y-103942506D01*
X155815972Y-103942509D01*
X155721724Y-104051278D01*
X155661936Y-104182195D01*
X155641455Y-104324646D01*
X154829052Y-104324646D01*
X154736951Y-104218355D01*
X154736950Y-104218354D01*
X154703288Y-104196721D01*
X154615876Y-104140545D01*
X154615873Y-104140544D01*
X154477790Y-104099999D01*
X154477785Y-104099998D01*
X154477784Y-104099998D01*
X154333862Y-104099998D01*
X154333860Y-104099998D01*
X154333855Y-104099999D01*
X154195772Y-104140544D01*
X154074695Y-104218354D01*
X154074693Y-104218357D01*
X153980445Y-104327126D01*
X153920657Y-104458043D01*
X153900176Y-104600494D01*
X151664542Y-104600494D01*
X151664897Y-104598023D01*
X151669771Y-104564127D01*
X151669771Y-104564120D01*
X151649289Y-104421669D01*
X151649289Y-104421667D01*
X151589501Y-104290751D01*
X151495252Y-104181981D01*
X151495251Y-104181980D01*
X151430776Y-104140545D01*
X151374177Y-104104171D01*
X151374174Y-104104170D01*
X151236091Y-104063625D01*
X151236086Y-104063624D01*
X151236085Y-104063624D01*
X151092163Y-104063624D01*
X151092161Y-104063624D01*
X151092156Y-104063625D01*
X150954073Y-104104170D01*
X150832996Y-104181980D01*
X150832994Y-104181983D01*
X150738746Y-104290752D01*
X150678958Y-104421669D01*
X150658477Y-104564120D01*
X146087801Y-104564120D01*
X146105647Y-104440000D01*
X146105647Y-104439996D01*
X146085165Y-104297545D01*
X146085165Y-104297543D01*
X146025377Y-104166627D01*
X145931128Y-104057857D01*
X145931127Y-104057856D01*
X145897465Y-104036223D01*
X145810053Y-103980047D01*
X145810050Y-103980046D01*
X145671967Y-103939501D01*
X145671962Y-103939500D01*
X145671961Y-103939500D01*
X145528039Y-103939500D01*
X145528037Y-103939500D01*
X145528032Y-103939501D01*
X145389949Y-103980046D01*
X145389947Y-103980046D01*
X145389947Y-103980047D01*
X145370392Y-103992614D01*
X145268872Y-104057856D01*
X145268870Y-104057859D01*
X145174622Y-104166628D01*
X145114834Y-104297545D01*
X145094353Y-104439996D01*
X132252650Y-104439996D01*
X132255429Y-104410004D01*
X132255429Y-104409995D01*
X132241302Y-104257543D01*
X132235756Y-104197690D01*
X132177405Y-103992611D01*
X132082366Y-103801745D01*
X132082363Y-103801741D01*
X132082363Y-103801740D01*
X131953872Y-103631593D01*
X131796302Y-103487948D01*
X131796301Y-103487947D01*
X131615022Y-103375703D01*
X131615016Y-103375700D01*
X131416204Y-103298681D01*
X131416200Y-103298680D01*
X131416198Y-103298679D01*
X131350846Y-103286462D01*
X131281284Y-103253151D01*
X131279123Y-103249996D01*
X158284353Y-103249996D01*
X158284353Y-103250003D01*
X158304834Y-103392454D01*
X158304834Y-103392455D01*
X158304835Y-103392457D01*
X158364623Y-103523373D01*
X158458872Y-103632143D01*
X158579947Y-103709953D01*
X158718039Y-103750500D01*
X158718041Y-103750500D01*
X158861959Y-103750500D01*
X158861961Y-103750500D01*
X159000053Y-103709953D01*
X159034447Y-103687848D01*
X159107910Y-103664366D01*
X159183275Y-103680760D01*
X159195537Y-103687839D01*
X159229947Y-103709953D01*
X159368039Y-103750500D01*
X159368041Y-103750500D01*
X159511959Y-103750500D01*
X159511961Y-103750500D01*
X159650053Y-103709953D01*
X159771128Y-103632143D01*
X159865377Y-103523373D01*
X159925165Y-103392457D01*
X159938648Y-103298679D01*
X159945647Y-103250003D01*
X159945647Y-103249996D01*
X160884353Y-103249996D01*
X160884353Y-103250003D01*
X160904834Y-103392454D01*
X160904834Y-103392455D01*
X160904835Y-103392457D01*
X160964623Y-103523373D01*
X161058872Y-103632143D01*
X161179947Y-103709953D01*
X161318039Y-103750500D01*
X161318041Y-103750500D01*
X161461959Y-103750500D01*
X161461961Y-103750500D01*
X161600053Y-103709953D01*
X161721128Y-103632143D01*
X161815377Y-103523373D01*
X161875165Y-103392457D01*
X161888648Y-103298679D01*
X161895647Y-103250003D01*
X161895647Y-103249996D01*
X161875165Y-103107545D01*
X161875165Y-103107543D01*
X161815377Y-102976627D01*
X161721128Y-102867857D01*
X161721127Y-102867856D01*
X161687465Y-102846223D01*
X161600053Y-102790047D01*
X161600050Y-102790046D01*
X161461967Y-102749501D01*
X161461962Y-102749500D01*
X161461961Y-102749500D01*
X161318039Y-102749500D01*
X161318037Y-102749500D01*
X161318032Y-102749501D01*
X161179949Y-102790046D01*
X161179947Y-102790046D01*
X161179947Y-102790047D01*
X161153071Y-102807318D01*
X161058872Y-102867856D01*
X161058870Y-102867859D01*
X160964622Y-102976628D01*
X160904834Y-103107545D01*
X160884353Y-103249996D01*
X159945647Y-103249996D01*
X159925165Y-103107545D01*
X159925165Y-103107543D01*
X159870066Y-102986895D01*
X159857277Y-102910838D01*
X159870066Y-102863105D01*
X159925165Y-102742457D01*
X159941026Y-102632140D01*
X159945647Y-102600003D01*
X159945647Y-102599996D01*
X159925165Y-102457545D01*
X159925165Y-102457543D01*
X159865377Y-102326627D01*
X159771128Y-102217857D01*
X159771127Y-102217856D01*
X159737465Y-102196223D01*
X159650053Y-102140047D01*
X159650050Y-102140046D01*
X159511967Y-102099501D01*
X159511962Y-102099500D01*
X159511961Y-102099500D01*
X159368039Y-102099500D01*
X159368037Y-102099500D01*
X159368032Y-102099501D01*
X159229949Y-102140046D01*
X159108872Y-102217856D01*
X159108870Y-102217859D01*
X159014622Y-102326628D01*
X158954834Y-102457545D01*
X158934353Y-102599996D01*
X158934353Y-102600500D01*
X158934196Y-102601082D01*
X158932836Y-102610548D01*
X158931704Y-102610385D01*
X158914391Y-102675000D01*
X158859853Y-102729538D01*
X158785353Y-102749500D01*
X158718039Y-102749500D01*
X158718037Y-102749500D01*
X158718032Y-102749501D01*
X158579949Y-102790046D01*
X158579947Y-102790046D01*
X158579947Y-102790047D01*
X158553071Y-102807318D01*
X158458872Y-102867856D01*
X158458870Y-102867859D01*
X158364622Y-102976628D01*
X158304834Y-103107545D01*
X158284353Y-103249996D01*
X131279123Y-103249996D01*
X131237696Y-103189521D01*
X131231763Y-103112621D01*
X131265075Y-103043058D01*
X131328705Y-102999470D01*
X131350843Y-102993537D01*
X131416198Y-102981321D01*
X131615019Y-102904298D01*
X131796302Y-102792052D01*
X131953872Y-102648407D01*
X132082366Y-102478255D01*
X132177405Y-102287389D01*
X132188044Y-102249996D01*
X155814353Y-102249996D01*
X155814353Y-102250003D01*
X155834834Y-102392454D01*
X155834834Y-102392455D01*
X155834835Y-102392457D01*
X155894623Y-102523373D01*
X155988872Y-102632143D01*
X156109947Y-102709953D01*
X156248039Y-102750500D01*
X156248041Y-102750500D01*
X156391959Y-102750500D01*
X156391961Y-102750500D01*
X156530053Y-102709953D01*
X156651128Y-102632143D01*
X156745377Y-102523373D01*
X156805165Y-102392457D01*
X156815406Y-102321228D01*
X156825647Y-102250003D01*
X156825647Y-102249996D01*
X156805165Y-102107545D01*
X156805165Y-102107543D01*
X156745377Y-101976627D01*
X156651128Y-101867857D01*
X156651127Y-101867856D01*
X156617465Y-101846223D01*
X156530053Y-101790047D01*
X156530050Y-101790046D01*
X156391967Y-101749501D01*
X156391962Y-101749500D01*
X156391961Y-101749500D01*
X156248039Y-101749500D01*
X156248037Y-101749500D01*
X156248032Y-101749501D01*
X156109949Y-101790046D01*
X155988872Y-101867856D01*
X155988870Y-101867859D01*
X155894622Y-101976628D01*
X155834834Y-102107545D01*
X155814353Y-102249996D01*
X132188044Y-102249996D01*
X132235756Y-102082310D01*
X132255429Y-101870000D01*
X132255230Y-101867857D01*
X132238022Y-101682143D01*
X132235756Y-101657690D01*
X132177405Y-101452611D01*
X132126309Y-101349996D01*
X139934353Y-101349996D01*
X139934353Y-101350003D01*
X139954834Y-101492454D01*
X139954834Y-101492455D01*
X139954835Y-101492457D01*
X140014623Y-101623373D01*
X140108872Y-101732143D01*
X140229947Y-101809953D01*
X140368039Y-101850500D01*
X140368041Y-101850500D01*
X140511959Y-101850500D01*
X140511961Y-101850500D01*
X140650053Y-101809953D01*
X140771128Y-101732143D01*
X140865377Y-101623373D01*
X140925165Y-101492457D01*
X140938529Y-101399510D01*
X140945647Y-101350003D01*
X140945647Y-101349996D01*
X140931992Y-101255028D01*
X140925165Y-101207543D01*
X140865377Y-101076627D01*
X140833636Y-101039996D01*
X149104353Y-101039996D01*
X149104353Y-101040003D01*
X149124834Y-101182454D01*
X149124834Y-101182455D01*
X149124835Y-101182457D01*
X149184623Y-101313373D01*
X149278872Y-101422143D01*
X149399947Y-101499953D01*
X149538039Y-101540500D01*
X149538041Y-101540500D01*
X149681959Y-101540500D01*
X149681961Y-101540500D01*
X149751792Y-101519996D01*
X152234353Y-101519996D01*
X152234353Y-101520003D01*
X152254834Y-101662454D01*
X152254834Y-101662455D01*
X152254835Y-101662457D01*
X152314623Y-101793373D01*
X152408872Y-101902143D01*
X152529947Y-101979953D01*
X152668039Y-102020500D01*
X152668041Y-102020500D01*
X152811959Y-102020500D01*
X152811961Y-102020500D01*
X152950053Y-101979953D01*
X153071128Y-101902143D01*
X153165377Y-101793373D01*
X153225165Y-101662457D01*
X153237973Y-101573373D01*
X153245647Y-101520003D01*
X153245647Y-101519996D01*
X153228323Y-101399510D01*
X153225165Y-101377543D01*
X153189750Y-101299996D01*
X160234353Y-101299996D01*
X160234353Y-101300003D01*
X160254834Y-101442454D01*
X160254834Y-101442455D01*
X160254835Y-101442457D01*
X160314623Y-101573373D01*
X160408872Y-101682143D01*
X160529947Y-101759953D01*
X160668039Y-101800500D01*
X160668041Y-101800500D01*
X160811959Y-101800500D01*
X160811961Y-101800500D01*
X160950053Y-101759953D01*
X161071128Y-101682143D01*
X161165377Y-101573373D01*
X161225165Y-101442457D01*
X161238459Y-101349996D01*
X161245647Y-101300003D01*
X161245647Y-101299996D01*
X161228747Y-101182457D01*
X161225165Y-101157543D01*
X161165377Y-101026627D01*
X161071128Y-100917857D01*
X161071127Y-100917856D01*
X161027853Y-100890046D01*
X160950053Y-100840047D01*
X160935259Y-100835703D01*
X160811967Y-100799501D01*
X160811962Y-100799500D01*
X160811961Y-100799500D01*
X160668039Y-100799500D01*
X160668037Y-100799500D01*
X160668032Y-100799501D01*
X160529949Y-100840046D01*
X160408872Y-100917856D01*
X160408870Y-100917859D01*
X160314622Y-101026628D01*
X160254834Y-101157545D01*
X160234353Y-101299996D01*
X153189750Y-101299996D01*
X153165377Y-101246627D01*
X153071128Y-101137857D01*
X153071127Y-101137856D01*
X153037465Y-101116223D01*
X152950053Y-101060047D01*
X152950050Y-101060046D01*
X152811967Y-101019501D01*
X152811962Y-101019500D01*
X152811961Y-101019500D01*
X152668039Y-101019500D01*
X152668037Y-101019500D01*
X152668032Y-101019501D01*
X152529949Y-101060046D01*
X152408872Y-101137856D01*
X152408870Y-101137859D01*
X152314622Y-101246628D01*
X152254834Y-101377545D01*
X152234353Y-101519996D01*
X149751792Y-101519996D01*
X149820053Y-101499953D01*
X149941128Y-101422143D01*
X150035377Y-101313373D01*
X150095165Y-101182457D01*
X150115647Y-101040000D01*
X150115647Y-101039996D01*
X150098086Y-100917857D01*
X150095165Y-100897543D01*
X150035377Y-100766627D01*
X149941128Y-100657857D01*
X149941122Y-100657853D01*
X149933076Y-100650881D01*
X149934132Y-100649662D01*
X149890340Y-100601489D01*
X149873945Y-100526124D01*
X149875904Y-100519996D01*
X155594353Y-100519996D01*
X155594353Y-100520003D01*
X155614834Y-100662454D01*
X155614834Y-100662455D01*
X155614835Y-100662457D01*
X155674623Y-100793373D01*
X155768872Y-100902143D01*
X155889947Y-100979953D01*
X156028039Y-101020500D01*
X156028041Y-101020500D01*
X156171959Y-101020500D01*
X156171961Y-101020500D01*
X156310053Y-100979953D01*
X156431128Y-100902143D01*
X156525377Y-100793373D01*
X156585165Y-100662457D01*
X156601265Y-100550480D01*
X156605647Y-100520003D01*
X156605647Y-100519996D01*
X156588702Y-100402143D01*
X156585165Y-100377543D01*
X156525377Y-100246627D01*
X156431128Y-100137857D01*
X156431127Y-100137856D01*
X156385301Y-100108406D01*
X156310053Y-100060047D01*
X156310050Y-100060046D01*
X156171967Y-100019501D01*
X156171962Y-100019500D01*
X156171961Y-100019500D01*
X156028039Y-100019500D01*
X156028037Y-100019500D01*
X156028032Y-100019501D01*
X155889949Y-100060046D01*
X155768872Y-100137856D01*
X155768870Y-100137859D01*
X155674622Y-100246628D01*
X155614834Y-100377545D01*
X155594353Y-100519996D01*
X149875904Y-100519996D01*
X149897429Y-100452658D01*
X149942220Y-100407867D01*
X149951128Y-100402143D01*
X150045377Y-100293373D01*
X150105165Y-100162457D01*
X150119889Y-100060047D01*
X150125647Y-100020003D01*
X150125647Y-100019996D01*
X150122771Y-99999996D01*
X159584353Y-99999996D01*
X159584353Y-100000003D01*
X159604834Y-100142454D01*
X159604834Y-100142455D01*
X159604835Y-100142457D01*
X159664623Y-100273373D01*
X159758872Y-100382143D01*
X159879947Y-100459953D01*
X160018039Y-100500500D01*
X160018041Y-100500500D01*
X160161959Y-100500500D01*
X160161961Y-100500500D01*
X160300053Y-100459953D01*
X160421128Y-100382143D01*
X160515377Y-100273373D01*
X160575165Y-100142457D01*
X160592771Y-100020003D01*
X160595647Y-100000003D01*
X160595647Y-99999996D01*
X160578041Y-99877545D01*
X160575165Y-99857543D01*
X160515377Y-99726627D01*
X160421128Y-99617857D01*
X160421127Y-99617856D01*
X160387465Y-99596223D01*
X160300053Y-99540047D01*
X160300050Y-99540046D01*
X160161967Y-99499501D01*
X160161962Y-99499500D01*
X160161961Y-99499500D01*
X160018039Y-99499500D01*
X160018037Y-99499500D01*
X160018032Y-99499501D01*
X159879949Y-99540046D01*
X159879947Y-99540046D01*
X159879947Y-99540047D01*
X159876426Y-99542310D01*
X159758872Y-99617856D01*
X159758870Y-99617859D01*
X159664622Y-99726628D01*
X159604834Y-99857545D01*
X159584353Y-99999996D01*
X150122771Y-99999996D01*
X150105165Y-99877545D01*
X150105165Y-99877543D01*
X150045377Y-99746627D01*
X149951128Y-99637857D01*
X149951127Y-99637856D01*
X149917465Y-99616223D01*
X149830053Y-99560047D01*
X149830050Y-99560046D01*
X149691967Y-99519501D01*
X149691962Y-99519500D01*
X149691961Y-99519500D01*
X149548039Y-99519500D01*
X149548037Y-99519500D01*
X149548032Y-99519501D01*
X149409949Y-99560046D01*
X149288872Y-99637856D01*
X149288870Y-99637859D01*
X149194622Y-99746628D01*
X149134834Y-99877545D01*
X149114353Y-100019996D01*
X149114353Y-100020003D01*
X149134834Y-100162454D01*
X149134834Y-100162455D01*
X149134835Y-100162457D01*
X149194623Y-100293373D01*
X149288872Y-100402143D01*
X149288877Y-100402146D01*
X149296924Y-100409119D01*
X149295867Y-100410338D01*
X149339657Y-100458506D01*
X149356054Y-100533871D01*
X149332573Y-100607337D01*
X149287783Y-100652130D01*
X149278874Y-100657855D01*
X149278870Y-100657859D01*
X149184622Y-100766628D01*
X149124834Y-100897545D01*
X149104353Y-101039996D01*
X140833636Y-101039996D01*
X140771128Y-100967857D01*
X140771127Y-100967856D01*
X140693326Y-100917857D01*
X140650053Y-100890047D01*
X140650050Y-100890046D01*
X140511967Y-100849501D01*
X140511962Y-100849500D01*
X140511961Y-100849500D01*
X140368039Y-100849500D01*
X140368037Y-100849500D01*
X140368032Y-100849501D01*
X140229949Y-100890046D01*
X140108872Y-100967856D01*
X140108870Y-100967859D01*
X140014622Y-101076628D01*
X139954834Y-101207545D01*
X139934353Y-101349996D01*
X132126309Y-101349996D01*
X132082366Y-101261745D01*
X132082363Y-101261741D01*
X132082363Y-101261740D01*
X131953872Y-101091593D01*
X131796302Y-100947948D01*
X131796301Y-100947947D01*
X131615022Y-100835703D01*
X131615016Y-100835700D01*
X131416204Y-100758681D01*
X131416200Y-100758680D01*
X131416198Y-100758679D01*
X131350846Y-100746462D01*
X131281284Y-100713151D01*
X131237696Y-100649521D01*
X131231763Y-100572621D01*
X131265075Y-100503058D01*
X131328705Y-100459470D01*
X131350843Y-100453537D01*
X131416198Y-100441321D01*
X131615019Y-100364298D01*
X131796302Y-100252052D01*
X131953872Y-100108407D01*
X132082366Y-99938255D01*
X132177405Y-99747389D01*
X132235756Y-99542310D01*
X132255429Y-99330000D01*
X132235756Y-99117690D01*
X132177405Y-98912611D01*
X132116351Y-98789996D01*
X139934349Y-98789996D01*
X139934349Y-98790003D01*
X139954830Y-98932454D01*
X139954830Y-98932455D01*
X139954831Y-98932457D01*
X140014619Y-99063373D01*
X140108868Y-99172143D01*
X140229943Y-99249953D01*
X140368035Y-99290500D01*
X140368037Y-99290500D01*
X140511955Y-99290500D01*
X140511957Y-99290500D01*
X140650049Y-99249953D01*
X140771124Y-99172143D01*
X140865373Y-99063373D01*
X140925161Y-98932457D01*
X140939820Y-98830500D01*
X140945643Y-98790003D01*
X140945643Y-98789996D01*
X140925161Y-98647545D01*
X140925161Y-98647543D01*
X140865373Y-98516627D01*
X140771124Y-98407857D01*
X140771123Y-98407856D01*
X140737461Y-98386223D01*
X140650049Y-98330047D01*
X140650046Y-98330046D01*
X140649876Y-98329996D01*
X146874349Y-98329996D01*
X146874349Y-98330003D01*
X146894830Y-98472454D01*
X146894830Y-98472455D01*
X146894831Y-98472457D01*
X146954619Y-98603373D01*
X147048868Y-98712143D01*
X147169943Y-98789953D01*
X147308035Y-98830500D01*
X147308037Y-98830500D01*
X147451955Y-98830500D01*
X147451957Y-98830500D01*
X147590049Y-98789953D01*
X147711124Y-98712143D01*
X147724420Y-98696798D01*
X152294353Y-98696798D01*
X152294353Y-98696805D01*
X152314834Y-98839256D01*
X152314834Y-98839257D01*
X152314835Y-98839259D01*
X152374623Y-98970175D01*
X152468872Y-99078945D01*
X152589947Y-99156755D01*
X152728039Y-99197302D01*
X152728041Y-99197302D01*
X152871959Y-99197302D01*
X152871961Y-99197302D01*
X153010053Y-99156755D01*
X153131128Y-99078945D01*
X153225377Y-98970175D01*
X153285165Y-98839259D01*
X153295406Y-98768030D01*
X153305188Y-98699996D01*
X160884353Y-98699996D01*
X160884353Y-98700003D01*
X160904834Y-98842454D01*
X160904834Y-98842455D01*
X160904835Y-98842457D01*
X160912623Y-98859510D01*
X160963162Y-98970175D01*
X160964623Y-98973373D01*
X161058872Y-99082143D01*
X161179947Y-99159953D01*
X161318039Y-99200500D01*
X161318041Y-99200500D01*
X161461959Y-99200500D01*
X161461961Y-99200500D01*
X161600053Y-99159953D01*
X161634447Y-99137848D01*
X161707910Y-99114366D01*
X161783275Y-99130760D01*
X161795537Y-99137839D01*
X161829947Y-99159953D01*
X161968039Y-99200500D01*
X161968041Y-99200500D01*
X162111959Y-99200500D01*
X162111961Y-99200500D01*
X162250053Y-99159953D01*
X162371128Y-99082143D01*
X162465377Y-98973373D01*
X162525165Y-98842457D01*
X162542521Y-98721741D01*
X162545647Y-98700003D01*
X162545647Y-98699996D01*
X162525165Y-98557545D01*
X162525165Y-98557543D01*
X162465377Y-98426627D01*
X162371128Y-98317857D01*
X162371127Y-98317856D01*
X162327005Y-98289501D01*
X162250053Y-98240047D01*
X162250050Y-98240046D01*
X162111967Y-98199501D01*
X162111962Y-98199500D01*
X162111961Y-98199500D01*
X161968039Y-98199500D01*
X161968037Y-98199500D01*
X161968032Y-98199501D01*
X161829948Y-98240046D01*
X161829945Y-98240047D01*
X161795554Y-98262149D01*
X161722088Y-98285632D01*
X161646722Y-98269237D01*
X161634446Y-98262149D01*
X161600054Y-98240047D01*
X161600051Y-98240046D01*
X161461967Y-98199501D01*
X161461962Y-98199500D01*
X161461961Y-98199500D01*
X161318039Y-98199500D01*
X161318037Y-98199500D01*
X161318032Y-98199501D01*
X161179949Y-98240046D01*
X161058872Y-98317856D01*
X161058870Y-98317859D01*
X160964622Y-98426628D01*
X160904834Y-98557545D01*
X160884353Y-98699996D01*
X153305188Y-98699996D01*
X153305647Y-98696805D01*
X153305647Y-98696798D01*
X153286050Y-98560500D01*
X153285165Y-98554345D01*
X153225377Y-98423429D01*
X153131128Y-98314659D01*
X153131127Y-98314658D01*
X153085961Y-98285632D01*
X153010053Y-98236849D01*
X153010050Y-98236848D01*
X152871967Y-98196303D01*
X152871962Y-98196302D01*
X152871961Y-98196302D01*
X152728039Y-98196302D01*
X152728037Y-98196302D01*
X152728032Y-98196303D01*
X152589949Y-98236848D01*
X152589947Y-98236848D01*
X152589947Y-98236849D01*
X152584971Y-98240047D01*
X152468872Y-98314658D01*
X152468870Y-98314661D01*
X152374622Y-98423430D01*
X152314834Y-98554347D01*
X152294353Y-98696798D01*
X147724420Y-98696798D01*
X147805373Y-98603373D01*
X147865161Y-98472457D01*
X147885158Y-98333373D01*
X147885643Y-98330003D01*
X147885643Y-98329996D01*
X147865161Y-98187545D01*
X147865161Y-98187543D01*
X147806912Y-98059996D01*
X159584353Y-98059996D01*
X159584353Y-98060003D01*
X159604834Y-98202454D01*
X159604834Y-98202455D01*
X159604835Y-98202457D01*
X159653282Y-98308539D01*
X159656076Y-98314659D01*
X159664623Y-98333373D01*
X159758872Y-98442143D01*
X159879947Y-98519953D01*
X160018039Y-98560500D01*
X160018041Y-98560500D01*
X160161959Y-98560500D01*
X160161961Y-98560500D01*
X160300053Y-98519953D01*
X160421128Y-98442143D01*
X160515377Y-98333373D01*
X160575165Y-98202457D01*
X160595647Y-98060000D01*
X160595647Y-98059996D01*
X160579523Y-97947856D01*
X160575165Y-97917543D01*
X160515377Y-97786627D01*
X160421128Y-97677857D01*
X160421127Y-97677856D01*
X160387465Y-97656223D01*
X160300053Y-97600047D01*
X160300050Y-97600046D01*
X160161967Y-97559501D01*
X160161962Y-97559500D01*
X160161961Y-97559500D01*
X160018039Y-97559500D01*
X160018037Y-97559500D01*
X160018032Y-97559501D01*
X159879949Y-97600046D01*
X159758872Y-97677856D01*
X159758870Y-97677859D01*
X159664622Y-97786628D01*
X159604834Y-97917545D01*
X159584353Y-98059996D01*
X147806912Y-98059996D01*
X147805373Y-98056627D01*
X147711124Y-97947857D01*
X147711123Y-97947856D01*
X147655290Y-97911975D01*
X147590049Y-97870047D01*
X147590046Y-97870046D01*
X147451963Y-97829501D01*
X147451958Y-97829500D01*
X147451957Y-97829500D01*
X147308035Y-97829500D01*
X147308033Y-97829500D01*
X147308028Y-97829501D01*
X147169945Y-97870046D01*
X147048868Y-97947856D01*
X147048866Y-97947859D01*
X146954618Y-98056628D01*
X146894830Y-98187545D01*
X146874349Y-98329996D01*
X140649876Y-98329996D01*
X140511963Y-98289501D01*
X140511958Y-98289500D01*
X140511957Y-98289500D01*
X140368035Y-98289500D01*
X140368033Y-98289500D01*
X140368028Y-98289501D01*
X140229945Y-98330046D01*
X140108868Y-98407856D01*
X140108866Y-98407859D01*
X140014618Y-98516628D01*
X139954830Y-98647545D01*
X139934349Y-98789996D01*
X132116351Y-98789996D01*
X132082366Y-98721745D01*
X132082363Y-98721741D01*
X132082363Y-98721740D01*
X131953872Y-98551593D01*
X131796302Y-98407948D01*
X131796301Y-98407947D01*
X131615022Y-98295703D01*
X131615016Y-98295700D01*
X131416204Y-98218681D01*
X131416200Y-98218680D01*
X131416198Y-98218679D01*
X131350846Y-98206462D01*
X131281284Y-98173151D01*
X131237696Y-98109521D01*
X131231763Y-98032621D01*
X131265075Y-97963058D01*
X131328705Y-97919470D01*
X131350843Y-97913537D01*
X131416198Y-97901321D01*
X131615019Y-97824298D01*
X131796302Y-97712052D01*
X131953872Y-97568407D01*
X132081050Y-97399998D01*
X152869965Y-97399998D01*
X152869965Y-97400002D01*
X152888024Y-97537176D01*
X152888025Y-97537179D01*
X152888026Y-97537183D01*
X152940976Y-97665018D01*
X152940977Y-97665020D01*
X152940978Y-97665021D01*
X153025207Y-97774789D01*
X153025210Y-97774792D01*
X153040635Y-97786628D01*
X153134982Y-97859024D01*
X153262817Y-97911974D01*
X153262822Y-97911974D01*
X153262823Y-97911975D01*
X153399997Y-97930035D01*
X153400000Y-97930035D01*
X153400003Y-97930035D01*
X153537176Y-97911975D01*
X153537176Y-97911974D01*
X153537183Y-97911974D01*
X153665018Y-97859024D01*
X153709294Y-97825048D01*
X153780549Y-97795533D01*
X153857017Y-97805599D01*
X153890703Y-97825047D01*
X153934982Y-97859024D01*
X154062817Y-97911974D01*
X154062822Y-97911974D01*
X154062823Y-97911975D01*
X154199997Y-97930035D01*
X154200000Y-97930035D01*
X154200003Y-97930035D01*
X154337176Y-97911975D01*
X154337176Y-97911974D01*
X154337183Y-97911974D01*
X154465018Y-97859024D01*
X154574791Y-97774791D01*
X154659024Y-97665018D01*
X154711974Y-97537183D01*
X154730035Y-97400000D01*
X154729805Y-97398255D01*
X154719419Y-97319368D01*
X154711974Y-97262817D01*
X154659024Y-97134983D01*
X154659024Y-97134982D01*
X154599999Y-97058061D01*
X154574791Y-97025209D01*
X154574788Y-97025207D01*
X154574787Y-97025205D01*
X154465021Y-96940978D01*
X154465020Y-96940977D01*
X154465018Y-96940976D01*
X154337183Y-96888026D01*
X154337179Y-96888025D01*
X154337176Y-96888024D01*
X154200003Y-96869965D01*
X154199999Y-96869965D01*
X154062816Y-96888026D01*
X154062815Y-96888026D01*
X153934982Y-96940975D01*
X153890705Y-96974951D01*
X153819448Y-97004466D01*
X153742980Y-96994399D01*
X153709294Y-96974950D01*
X153665021Y-96940978D01*
X153665020Y-96940977D01*
X153665018Y-96940976D01*
X153537183Y-96888026D01*
X153537179Y-96888025D01*
X153537176Y-96888024D01*
X153400003Y-96869965D01*
X153399999Y-96869965D01*
X153262816Y-96888026D01*
X153262815Y-96888026D01*
X153134982Y-96940975D01*
X153025211Y-97025207D01*
X153025207Y-97025211D01*
X152940975Y-97134982D01*
X152888026Y-97262815D01*
X152888026Y-97262816D01*
X152869965Y-97399998D01*
X132081050Y-97399998D01*
X132082366Y-97398255D01*
X132177405Y-97207389D01*
X132235756Y-97002310D01*
X132255429Y-96790000D01*
X132253888Y-96773373D01*
X132235756Y-96577694D01*
X132235756Y-96577690D01*
X132213650Y-96499996D01*
X148714353Y-96499996D01*
X148714353Y-96500003D01*
X148734834Y-96642454D01*
X148734834Y-96642455D01*
X148734835Y-96642457D01*
X148794623Y-96773373D01*
X148888872Y-96882143D01*
X149009947Y-96959953D01*
X149148039Y-97000500D01*
X149148041Y-97000500D01*
X149291959Y-97000500D01*
X149291961Y-97000500D01*
X149430053Y-96959953D01*
X149551128Y-96882143D01*
X149645377Y-96773373D01*
X149705165Y-96642457D01*
X149725647Y-96500000D01*
X149725647Y-96499996D01*
X149707332Y-96372614D01*
X149705165Y-96357543D01*
X149645377Y-96226627D01*
X149551128Y-96117857D01*
X149551127Y-96117856D01*
X149517465Y-96096223D01*
X149430053Y-96040047D01*
X149430050Y-96040046D01*
X149291967Y-95999501D01*
X149291962Y-95999500D01*
X149291961Y-95999500D01*
X149148039Y-95999500D01*
X149148037Y-95999500D01*
X149148032Y-95999501D01*
X149009949Y-96040046D01*
X148888872Y-96117856D01*
X148888870Y-96117859D01*
X148794622Y-96226628D01*
X148734834Y-96357545D01*
X148714353Y-96499996D01*
X132213650Y-96499996D01*
X132177405Y-96372611D01*
X132082366Y-96181745D01*
X132082363Y-96181741D01*
X132082363Y-96181740D01*
X131953872Y-96011593D01*
X131796302Y-95867948D01*
X131796301Y-95867947D01*
X131615022Y-95755703D01*
X131615016Y-95755700D01*
X131416204Y-95678681D01*
X131416200Y-95678680D01*
X131416198Y-95678679D01*
X131350846Y-95666462D01*
X131281284Y-95633151D01*
X131237696Y-95569521D01*
X131231763Y-95492621D01*
X131265075Y-95423058D01*
X131328705Y-95379470D01*
X131350843Y-95373537D01*
X131416198Y-95361321D01*
X131615019Y-95284298D01*
X131796302Y-95172052D01*
X131953872Y-95028407D01*
X132082366Y-94858255D01*
X132177405Y-94667389D01*
X132235756Y-94462310D01*
X132251500Y-94292399D01*
X132255429Y-94250004D01*
X132255429Y-94249995D01*
X132244859Y-94135927D01*
X134699500Y-94135927D01*
X134699500Y-95364072D01*
X134724498Y-95489743D01*
X134724499Y-95489745D01*
X134773531Y-95608119D01*
X134773533Y-95608123D01*
X134773535Y-95608127D01*
X134844724Y-95714669D01*
X134935331Y-95805276D01*
X135041873Y-95876465D01*
X135160256Y-95925501D01*
X135285931Y-95950500D01*
X135285935Y-95950500D01*
X135414065Y-95950500D01*
X135414069Y-95950500D01*
X135539744Y-95925501D01*
X135658127Y-95876465D01*
X135764669Y-95805276D01*
X135855276Y-95714669D01*
X135926465Y-95608127D01*
X135975501Y-95489744D01*
X136000500Y-95364069D01*
X136000500Y-94397758D01*
X136020462Y-94323258D01*
X136075000Y-94268720D01*
X136100229Y-94261959D01*
X136099938Y-94261791D01*
X136198142Y-94261791D01*
X136224000Y-94268720D01*
X136278538Y-94323258D01*
X136293423Y-94359194D01*
X136318608Y-94453186D01*
X136384497Y-94567310D01*
X136384498Y-94567311D01*
X136384500Y-94567314D01*
X136477686Y-94660500D01*
X136477688Y-94660501D01*
X136477689Y-94660502D01*
X136489618Y-94667389D01*
X136591814Y-94726392D01*
X136719108Y-94760500D01*
X136779954Y-94760500D01*
X136854454Y-94780462D01*
X136908992Y-94835000D01*
X136928954Y-94909500D01*
X136908992Y-94984000D01*
X136892561Y-95007073D01*
X136849623Y-95056625D01*
X136789834Y-95187545D01*
X136769353Y-95329996D01*
X136769353Y-95330003D01*
X136789834Y-95472454D01*
X136789834Y-95472455D01*
X136789835Y-95472457D01*
X136849623Y-95603373D01*
X136943872Y-95712143D01*
X137064947Y-95789953D01*
X137203039Y-95830500D01*
X137203041Y-95830500D01*
X137346959Y-95830500D01*
X137346961Y-95830500D01*
X137485053Y-95789953D01*
X137606128Y-95712143D01*
X137700377Y-95603373D01*
X137760165Y-95472457D01*
X137773534Y-95379470D01*
X137780647Y-95330003D01*
X137780647Y-95329996D01*
X141569353Y-95329996D01*
X141569353Y-95330003D01*
X141589834Y-95472454D01*
X141589834Y-95472455D01*
X141589835Y-95472457D01*
X141649623Y-95603373D01*
X141743872Y-95712143D01*
X141864947Y-95789953D01*
X142003039Y-95830500D01*
X142003041Y-95830500D01*
X142146959Y-95830500D01*
X142146961Y-95830500D01*
X142285053Y-95789953D01*
X142406128Y-95712143D01*
X142500377Y-95603373D01*
X142560165Y-95472457D01*
X142573534Y-95379470D01*
X142580647Y-95330003D01*
X142580647Y-95329996D01*
X142560165Y-95187545D01*
X142560165Y-95187543D01*
X142500377Y-95056627D01*
X142500376Y-95056626D01*
X142500376Y-95056625D01*
X142457439Y-95007073D01*
X142423738Y-94937697D01*
X142429241Y-94860766D01*
X142472473Y-94796893D01*
X142541849Y-94763192D01*
X142570046Y-94760500D01*
X142630892Y-94760500D01*
X142758186Y-94726392D01*
X142872314Y-94660500D01*
X142965500Y-94567314D01*
X143031392Y-94453186D01*
X143056577Y-94359194D01*
X143095141Y-94292399D01*
X143148871Y-94261377D01*
X143252128Y-94261377D01*
X143305859Y-94292399D01*
X143344423Y-94359194D01*
X143349500Y-94397758D01*
X143349500Y-95364072D01*
X143374498Y-95489743D01*
X143374499Y-95489745D01*
X143423531Y-95608119D01*
X143423533Y-95608123D01*
X143423535Y-95608127D01*
X143494724Y-95714669D01*
X143585331Y-95805276D01*
X143691873Y-95876465D01*
X143810256Y-95925501D01*
X143935931Y-95950500D01*
X143935935Y-95950500D01*
X144064065Y-95950500D01*
X144064069Y-95950500D01*
X144189744Y-95925501D01*
X144308127Y-95876465D01*
X144414669Y-95805276D01*
X144505276Y-95714669D01*
X144576465Y-95608127D01*
X144625501Y-95489744D01*
X144650500Y-95364069D01*
X144650500Y-94889996D01*
X145014353Y-94889996D01*
X145014353Y-94890003D01*
X145034834Y-95032454D01*
X145034834Y-95032455D01*
X145034835Y-95032457D01*
X145094623Y-95163373D01*
X145188872Y-95272143D01*
X145309947Y-95349953D01*
X145448039Y-95390500D01*
X145448041Y-95390500D01*
X145591959Y-95390500D01*
X145591961Y-95390500D01*
X145730053Y-95349953D01*
X145851128Y-95272143D01*
X145945377Y-95163373D01*
X146005165Y-95032457D01*
X146018789Y-94937697D01*
X146025647Y-94890003D01*
X146025647Y-94889996D01*
X146005165Y-94747545D01*
X146005165Y-94747543D01*
X145945377Y-94616627D01*
X145870311Y-94529996D01*
X158594353Y-94529996D01*
X158594353Y-94530003D01*
X158614834Y-94672454D01*
X158614834Y-94672455D01*
X158614835Y-94672457D01*
X158674623Y-94803373D01*
X158768872Y-94912143D01*
X158889947Y-94989953D01*
X159028039Y-95030500D01*
X159028041Y-95030500D01*
X159171959Y-95030500D01*
X159171961Y-95030500D01*
X159310053Y-94989953D01*
X159431128Y-94912143D01*
X159525377Y-94803373D01*
X159585165Y-94672457D01*
X159605647Y-94530000D01*
X159605647Y-94529996D01*
X159591276Y-94430046D01*
X159585165Y-94387543D01*
X159525377Y-94256627D01*
X159525375Y-94256625D01*
X159525375Y-94256624D01*
X159519618Y-94247666D01*
X159521747Y-94246297D01*
X159494838Y-94190900D01*
X159500341Y-94113968D01*
X159528539Y-94065129D01*
X159531124Y-94062145D01*
X159531128Y-94062143D01*
X159625377Y-93953373D01*
X159685165Y-93822457D01*
X159695589Y-93749953D01*
X159705647Y-93680003D01*
X159705647Y-93679996D01*
X159685165Y-93537545D01*
X159685165Y-93537543D01*
X159625377Y-93406627D01*
X159531128Y-93297857D01*
X159531127Y-93297856D01*
X159497465Y-93276223D01*
X159410053Y-93220047D01*
X159395259Y-93215703D01*
X159271967Y-93179501D01*
X159271962Y-93179500D01*
X159271961Y-93179500D01*
X159128039Y-93179500D01*
X159128037Y-93179500D01*
X159128032Y-93179501D01*
X158989949Y-93220046D01*
X158868872Y-93297856D01*
X158868870Y-93297859D01*
X158774622Y-93406628D01*
X158714834Y-93537545D01*
X158694353Y-93679996D01*
X158694353Y-93680003D01*
X158714834Y-93822454D01*
X158714834Y-93822455D01*
X158714835Y-93822457D01*
X158719473Y-93832612D01*
X158774624Y-93953375D01*
X158780382Y-93962334D01*
X158778251Y-93963703D01*
X158805161Y-94019102D01*
X158799657Y-94096033D01*
X158771461Y-94144869D01*
X158674622Y-94256628D01*
X158614834Y-94387545D01*
X158594353Y-94529996D01*
X145870311Y-94529996D01*
X145851128Y-94507857D01*
X145851127Y-94507856D01*
X145780255Y-94462310D01*
X145730053Y-94430047D01*
X145730050Y-94430046D01*
X145591967Y-94389501D01*
X145591962Y-94389500D01*
X145591961Y-94389500D01*
X145448039Y-94389500D01*
X145448037Y-94389500D01*
X145448032Y-94389501D01*
X145309949Y-94430046D01*
X145188872Y-94507856D01*
X145188870Y-94507859D01*
X145094622Y-94616628D01*
X145034834Y-94747545D01*
X145014353Y-94889996D01*
X144650500Y-94889996D01*
X144650500Y-94135931D01*
X144625501Y-94010256D01*
X144576465Y-93891873D01*
X144505276Y-93785331D01*
X144414669Y-93694724D01*
X144308127Y-93623535D01*
X144308123Y-93623533D01*
X144308119Y-93623531D01*
X144189745Y-93574499D01*
X144189743Y-93574498D01*
X144064072Y-93549500D01*
X144064069Y-93549500D01*
X143935931Y-93549500D01*
X143935927Y-93549500D01*
X143810256Y-93574498D01*
X143810254Y-93574499D01*
X143691880Y-93623531D01*
X143691873Y-93623535D01*
X143619131Y-93672140D01*
X143585327Y-93694727D01*
X143494727Y-93785327D01*
X143494724Y-93785330D01*
X143494724Y-93785331D01*
X143489193Y-93793609D01*
X143423535Y-93891873D01*
X143423531Y-93891880D01*
X143374499Y-94010254D01*
X143374498Y-94010256D01*
X143349498Y-94135941D01*
X143349239Y-94138569D01*
X143348679Y-94140054D01*
X143348072Y-94143110D01*
X143347567Y-94143009D01*
X143322066Y-94210751D01*
X143262441Y-94259676D01*
X143252128Y-94261377D01*
X143148871Y-94261377D01*
X143152278Y-94259410D01*
X143114160Y-94245061D01*
X143065235Y-94185436D01*
X143057036Y-94162520D01*
X143031392Y-94066814D01*
X142965897Y-93953373D01*
X142965502Y-93952689D01*
X142965501Y-93952688D01*
X142965500Y-93952686D01*
X142872314Y-93859500D01*
X142872311Y-93859498D01*
X142872310Y-93859497D01*
X142801514Y-93818623D01*
X142758186Y-93793608D01*
X142630892Y-93759500D01*
X142499108Y-93759500D01*
X142371814Y-93793608D01*
X142371812Y-93793608D01*
X142371812Y-93793609D01*
X142257689Y-93859497D01*
X142164497Y-93952689D01*
X142115420Y-94037694D01*
X142098608Y-94066814D01*
X142090779Y-94096033D01*
X142064500Y-94194106D01*
X142064500Y-94194108D01*
X142064500Y-94325892D01*
X142098608Y-94453186D01*
X142098609Y-94453187D01*
X142164497Y-94567310D01*
X142164498Y-94567311D01*
X142164500Y-94567314D01*
X142172329Y-94575143D01*
X142210892Y-94641936D01*
X142210892Y-94719064D01*
X142172328Y-94785859D01*
X142105533Y-94824423D01*
X142066969Y-94829500D01*
X142003039Y-94829500D01*
X142003037Y-94829500D01*
X142003032Y-94829501D01*
X141864949Y-94870046D01*
X141743872Y-94947856D01*
X141743870Y-94947859D01*
X141649622Y-95056628D01*
X141589834Y-95187545D01*
X141569353Y-95329996D01*
X137780647Y-95329996D01*
X137760165Y-95187545D01*
X137760165Y-95187543D01*
X137700377Y-95056627D01*
X137606128Y-94947857D01*
X137606127Y-94947856D01*
X137572465Y-94926223D01*
X137485053Y-94870047D01*
X137485050Y-94870046D01*
X137346967Y-94829501D01*
X137346962Y-94829500D01*
X137346961Y-94829500D01*
X137283031Y-94829500D01*
X137208531Y-94809538D01*
X137153993Y-94755000D01*
X137134031Y-94680500D01*
X137153993Y-94606000D01*
X137177668Y-94575145D01*
X137185500Y-94567314D01*
X137251392Y-94453186D01*
X137285500Y-94325892D01*
X137285500Y-94194108D01*
X137251392Y-94066814D01*
X137185897Y-93953373D01*
X137185502Y-93952689D01*
X137185501Y-93952688D01*
X137185500Y-93952686D01*
X137092314Y-93859500D01*
X137092311Y-93859498D01*
X137092310Y-93859497D01*
X137021514Y-93818623D01*
X136978186Y-93793608D01*
X136850892Y-93759500D01*
X136719108Y-93759500D01*
X136591814Y-93793608D01*
X136591812Y-93793608D01*
X136591812Y-93793609D01*
X136477689Y-93859497D01*
X136384497Y-93952689D01*
X136318608Y-94066812D01*
X136292964Y-94162518D01*
X136254399Y-94229313D01*
X136198142Y-94261791D01*
X136099938Y-94261791D01*
X136043681Y-94229311D01*
X136005118Y-94162516D01*
X136000758Y-94138554D01*
X136000500Y-94135935D01*
X136000500Y-94135931D01*
X135975501Y-94010256D01*
X135926465Y-93891873D01*
X135855276Y-93785331D01*
X135764669Y-93694724D01*
X135658127Y-93623535D01*
X135658123Y-93623533D01*
X135658119Y-93623531D01*
X135539745Y-93574499D01*
X135539743Y-93574498D01*
X135414072Y-93549500D01*
X135414069Y-93549500D01*
X135285931Y-93549500D01*
X135285927Y-93549500D01*
X135160256Y-93574498D01*
X135160254Y-93574499D01*
X135041880Y-93623531D01*
X135041873Y-93623535D01*
X134969131Y-93672140D01*
X134935327Y-93694727D01*
X134844727Y-93785327D01*
X134844724Y-93785330D01*
X134844724Y-93785331D01*
X134839193Y-93793609D01*
X134773535Y-93891873D01*
X134773531Y-93891880D01*
X134724499Y-94010254D01*
X134724498Y-94010256D01*
X134699500Y-94135927D01*
X132244859Y-94135927D01*
X132241162Y-94096033D01*
X132235756Y-94037690D01*
X132177405Y-93832611D01*
X132082366Y-93641745D01*
X132082363Y-93641741D01*
X132082363Y-93641740D01*
X131953872Y-93471593D01*
X131796302Y-93327948D01*
X131796301Y-93327947D01*
X131735008Y-93289996D01*
X138524353Y-93289996D01*
X138524353Y-93290003D01*
X138544834Y-93432454D01*
X138544834Y-93432455D01*
X138544835Y-93432457D01*
X138604623Y-93563373D01*
X138698872Y-93672143D01*
X138819947Y-93749953D01*
X138958039Y-93790500D01*
X138958041Y-93790500D01*
X139101959Y-93790500D01*
X139101961Y-93790500D01*
X139240053Y-93749953D01*
X139361128Y-93672143D01*
X139455377Y-93563373D01*
X139515165Y-93432457D01*
X139534517Y-93297859D01*
X139535647Y-93290003D01*
X139535647Y-93289996D01*
X139974353Y-93289996D01*
X139974353Y-93290003D01*
X139994834Y-93432454D01*
X139994834Y-93432455D01*
X139994835Y-93432457D01*
X140054623Y-93563373D01*
X140148872Y-93672143D01*
X140269947Y-93749953D01*
X140408039Y-93790500D01*
X140408041Y-93790500D01*
X140551959Y-93790500D01*
X140551961Y-93790500D01*
X140690053Y-93749953D01*
X140811128Y-93672143D01*
X140905377Y-93563373D01*
X140965165Y-93432457D01*
X140984517Y-93297859D01*
X140985647Y-93290003D01*
X140985647Y-93289996D01*
X140971992Y-93195028D01*
X140965165Y-93147543D01*
X140905377Y-93016627D01*
X140811128Y-92907857D01*
X140811127Y-92907856D01*
X140777465Y-92886223D01*
X140690053Y-92830047D01*
X140690050Y-92830046D01*
X140551967Y-92789501D01*
X140551962Y-92789500D01*
X140551961Y-92789500D01*
X140408039Y-92789500D01*
X140408037Y-92789500D01*
X140408032Y-92789501D01*
X140269949Y-92830046D01*
X140148872Y-92907856D01*
X140148870Y-92907859D01*
X140054622Y-93016628D01*
X139994834Y-93147545D01*
X139974353Y-93289996D01*
X139535647Y-93289996D01*
X139521992Y-93195028D01*
X139515165Y-93147543D01*
X139455377Y-93016627D01*
X139361128Y-92907857D01*
X139361127Y-92907856D01*
X139327465Y-92886223D01*
X139240053Y-92830047D01*
X139240050Y-92830046D01*
X139101967Y-92789501D01*
X139101962Y-92789500D01*
X139101961Y-92789500D01*
X138958039Y-92789500D01*
X138958037Y-92789500D01*
X138958032Y-92789501D01*
X138819949Y-92830046D01*
X138698872Y-92907856D01*
X138698870Y-92907859D01*
X138604622Y-93016628D01*
X138544834Y-93147545D01*
X138524353Y-93289996D01*
X131735008Y-93289996D01*
X131615022Y-93215703D01*
X131615016Y-93215700D01*
X131416204Y-93138681D01*
X131416200Y-93138680D01*
X131416198Y-93138679D01*
X131364533Y-93129021D01*
X131206614Y-93099500D01*
X131206610Y-93099500D01*
X130993390Y-93099500D01*
X130993385Y-93099500D01*
X130783802Y-93138679D01*
X130783795Y-93138681D01*
X130584983Y-93215700D01*
X130584977Y-93215703D01*
X130403698Y-93327947D01*
X130403697Y-93327948D01*
X130246127Y-93471593D01*
X130117636Y-93641741D01*
X130117633Y-93641745D01*
X130082379Y-93712546D01*
X130031302Y-93770338D01*
X129958173Y-93794848D01*
X129882585Y-93779510D01*
X129824793Y-93728433D01*
X129800283Y-93655304D01*
X129800000Y-93646131D01*
X129800000Y-92669998D01*
X149089965Y-92669998D01*
X149089965Y-92670002D01*
X149108024Y-92807176D01*
X149108025Y-92807179D01*
X149108026Y-92807183D01*
X149160976Y-92935018D01*
X149160977Y-92935020D01*
X149160978Y-92935021D01*
X149223597Y-93016627D01*
X149245209Y-93044791D01*
X149354982Y-93129024D01*
X149482817Y-93181974D01*
X149482822Y-93181974D01*
X149482823Y-93181975D01*
X149619997Y-93200035D01*
X149620000Y-93200035D01*
X149620003Y-93200035D01*
X149757176Y-93181975D01*
X149757176Y-93181974D01*
X149757183Y-93181974D01*
X149885018Y-93129024D01*
X149994791Y-93044791D01*
X150079024Y-92935018D01*
X150131974Y-92807183D01*
X150150035Y-92670000D01*
X150131974Y-92532817D01*
X150079024Y-92404983D01*
X150079024Y-92404982D01*
X150042451Y-92357321D01*
X149994791Y-92295209D01*
X149994788Y-92295207D01*
X149994787Y-92295205D01*
X149988338Y-92290257D01*
X149941385Y-92229067D01*
X149931319Y-92152598D01*
X149960835Y-92081342D01*
X149966418Y-92074496D01*
X150045377Y-91983373D01*
X150105165Y-91852457D01*
X150112708Y-91799996D01*
X156774353Y-91799996D01*
X156774353Y-91800003D01*
X156794834Y-91942454D01*
X156794834Y-91942455D01*
X156794835Y-91942457D01*
X156854623Y-92073373D01*
X156948872Y-92182143D01*
X157069947Y-92259953D01*
X157208039Y-92300500D01*
X157208041Y-92300500D01*
X157351959Y-92300500D01*
X157351961Y-92300500D01*
X157490053Y-92259953D01*
X157611128Y-92182143D01*
X157705377Y-92073373D01*
X157765165Y-91942457D01*
X157785647Y-91800000D01*
X157785647Y-91799996D01*
X157765165Y-91657545D01*
X157765165Y-91657543D01*
X157705377Y-91526627D01*
X157611128Y-91417857D01*
X157611127Y-91417856D01*
X157575047Y-91394669D01*
X157490053Y-91340047D01*
X157490050Y-91340046D01*
X157351967Y-91299501D01*
X157351962Y-91299500D01*
X157351961Y-91299500D01*
X157208039Y-91299500D01*
X157208037Y-91299500D01*
X157208032Y-91299501D01*
X157069949Y-91340046D01*
X156948872Y-91417856D01*
X156948870Y-91417859D01*
X156854622Y-91526628D01*
X156794834Y-91657545D01*
X156774353Y-91799996D01*
X150112708Y-91799996D01*
X150125647Y-91710000D01*
X150125647Y-91709996D01*
X150105165Y-91567545D01*
X150105165Y-91567543D01*
X150045377Y-91436627D01*
X149951128Y-91327857D01*
X149951127Y-91327856D01*
X149907005Y-91299501D01*
X149830053Y-91250047D01*
X149830050Y-91250046D01*
X149691967Y-91209501D01*
X149691962Y-91209500D01*
X149691961Y-91209500D01*
X149548039Y-91209500D01*
X149548037Y-91209500D01*
X149548032Y-91209501D01*
X149409949Y-91250046D01*
X149288872Y-91327856D01*
X149288870Y-91327859D01*
X149194622Y-91436628D01*
X149134834Y-91567545D01*
X149114353Y-91709996D01*
X149114353Y-91710003D01*
X149134834Y-91852454D01*
X149194623Y-91983374D01*
X149273562Y-92074475D01*
X149307263Y-92143851D01*
X149301760Y-92220782D01*
X149258528Y-92284655D01*
X149251669Y-92290251D01*
X149245214Y-92295204D01*
X149245207Y-92295211D01*
X149160975Y-92404982D01*
X149108026Y-92532815D01*
X149108026Y-92532816D01*
X149089965Y-92669998D01*
X129800000Y-92669998D01*
X129800000Y-90115927D01*
X134699500Y-90115927D01*
X134699500Y-91044072D01*
X134724498Y-91169743D01*
X134724499Y-91169745D01*
X134773531Y-91288119D01*
X134773533Y-91288123D01*
X134773535Y-91288127D01*
X134844724Y-91394669D01*
X134935331Y-91485276D01*
X135041873Y-91556465D01*
X135041879Y-91556467D01*
X135041880Y-91556468D01*
X135068622Y-91567545D01*
X135160256Y-91605501D01*
X135285931Y-91630500D01*
X135285935Y-91630500D01*
X135414065Y-91630500D01*
X135414069Y-91630500D01*
X135539744Y-91605501D01*
X135658127Y-91556465D01*
X135764669Y-91485276D01*
X135855276Y-91394669D01*
X135926465Y-91288127D01*
X135975501Y-91169744D01*
X136000500Y-91044069D01*
X136000500Y-90115931D01*
X136000499Y-90115927D01*
X143349500Y-90115927D01*
X143349500Y-91044072D01*
X143374498Y-91169743D01*
X143374499Y-91169745D01*
X143423531Y-91288119D01*
X143423533Y-91288123D01*
X143423535Y-91288127D01*
X143494724Y-91394669D01*
X143585331Y-91485276D01*
X143691873Y-91556465D01*
X143691879Y-91556467D01*
X143691880Y-91556468D01*
X143718622Y-91567545D01*
X143810256Y-91605501D01*
X143935931Y-91630500D01*
X143935935Y-91630500D01*
X144064065Y-91630500D01*
X144064069Y-91630500D01*
X144189744Y-91605501D01*
X144308127Y-91556465D01*
X144414669Y-91485276D01*
X144505276Y-91394669D01*
X144576465Y-91288127D01*
X144625501Y-91169744D01*
X144650500Y-91044069D01*
X144650500Y-90342658D01*
X152130049Y-90342658D01*
X152130049Y-90342665D01*
X152150530Y-90485116D01*
X152150530Y-90485117D01*
X152150531Y-90485119D01*
X152210319Y-90616035D01*
X152304568Y-90724805D01*
X152425643Y-90802615D01*
X152563735Y-90843162D01*
X152563737Y-90843162D01*
X152707655Y-90843162D01*
X152707657Y-90843162D01*
X152845749Y-90802615D01*
X152966824Y-90724805D01*
X153061073Y-90616035D01*
X153088423Y-90556146D01*
X153089524Y-90554813D01*
X153353982Y-90554813D01*
X153372283Y-90603881D01*
X153371442Y-90639247D01*
X153362636Y-90700500D01*
X153362077Y-90704385D01*
X153362077Y-90704386D01*
X153382558Y-90846837D01*
X153382558Y-90846838D01*
X153382559Y-90846840D01*
X153442347Y-90977756D01*
X153536596Y-91086526D01*
X153657671Y-91164336D01*
X153795763Y-91204883D01*
X153795765Y-91204883D01*
X153939683Y-91204883D01*
X153939685Y-91204883D01*
X154077777Y-91164336D01*
X154198852Y-91086526D01*
X154293101Y-90977756D01*
X154352889Y-90846840D01*
X154355985Y-90825299D01*
X154386344Y-90754400D01*
X154448087Y-90708177D01*
X154462014Y-90704451D01*
X154461736Y-90703503D01*
X154527611Y-90684159D01*
X154610053Y-90659953D01*
X154731128Y-90582143D01*
X154825377Y-90473373D01*
X154885165Y-90342457D01*
X154900734Y-90234174D01*
X154905647Y-90200003D01*
X154905647Y-90199996D01*
X154885165Y-90057545D01*
X154885165Y-90057543D01*
X154825377Y-89926627D01*
X154731128Y-89817857D01*
X154731127Y-89817856D01*
X154661906Y-89773371D01*
X154610053Y-89740047D01*
X154610050Y-89740046D01*
X154471967Y-89699501D01*
X154471962Y-89699500D01*
X154471961Y-89699500D01*
X154328039Y-89699500D01*
X154328037Y-89699500D01*
X154328032Y-89699501D01*
X154189949Y-89740046D01*
X154068872Y-89817856D01*
X154068870Y-89817859D01*
X153974622Y-89926628D01*
X153914834Y-90057545D01*
X153911737Y-90079086D01*
X153881375Y-90149986D01*
X153819631Y-90196207D01*
X153805718Y-90199962D01*
X153805988Y-90200880D01*
X153657673Y-90244429D01*
X153536596Y-90322239D01*
X153536594Y-90322242D01*
X153442345Y-90431012D01*
X153414995Y-90490899D01*
X153365887Y-90550373D01*
X153353982Y-90554813D01*
X153089524Y-90554813D01*
X153137529Y-90496672D01*
X153149436Y-90492230D01*
X153131135Y-90443161D01*
X153131977Y-90407798D01*
X153141343Y-90342662D01*
X153141343Y-90342658D01*
X153120861Y-90200207D01*
X153120861Y-90200205D01*
X153061073Y-90069289D01*
X152966824Y-89960519D01*
X152966823Y-89960518D01*
X152890340Y-89911366D01*
X152845749Y-89882709D01*
X152845746Y-89882708D01*
X152707663Y-89842163D01*
X152707658Y-89842162D01*
X152707657Y-89842162D01*
X152563735Y-89842162D01*
X152563733Y-89842162D01*
X152563728Y-89842163D01*
X152425645Y-89882708D01*
X152425643Y-89882708D01*
X152425643Y-89882709D01*
X152398892Y-89899901D01*
X152304568Y-89960518D01*
X152304566Y-89960521D01*
X152210318Y-90069290D01*
X152150530Y-90200207D01*
X152130049Y-90342658D01*
X144650500Y-90342658D01*
X144650500Y-90115931D01*
X144625501Y-89990256D01*
X144580989Y-89882795D01*
X144576468Y-89871880D01*
X144576467Y-89871879D01*
X144576465Y-89871873D01*
X144505276Y-89765331D01*
X144414669Y-89674724D01*
X144308127Y-89603535D01*
X144308123Y-89603533D01*
X144308119Y-89603531D01*
X144189745Y-89554499D01*
X144189743Y-89554498D01*
X144064072Y-89529500D01*
X144064069Y-89529500D01*
X143935931Y-89529500D01*
X143935927Y-89529500D01*
X143810256Y-89554498D01*
X143810254Y-89554499D01*
X143691880Y-89603531D01*
X143691873Y-89603535D01*
X143585327Y-89674727D01*
X143494727Y-89765327D01*
X143423535Y-89871873D01*
X143423531Y-89871880D01*
X143374499Y-89990254D01*
X143374498Y-89990256D01*
X143349500Y-90115927D01*
X136000499Y-90115927D01*
X135975501Y-89990256D01*
X135930989Y-89882795D01*
X135926468Y-89871880D01*
X135926467Y-89871879D01*
X135926465Y-89871873D01*
X135855276Y-89765331D01*
X135764669Y-89674724D01*
X135658127Y-89603535D01*
X135658123Y-89603533D01*
X135658119Y-89603531D01*
X135539745Y-89554499D01*
X135539743Y-89554498D01*
X135414072Y-89529500D01*
X135414069Y-89529500D01*
X135285931Y-89529500D01*
X135285927Y-89529500D01*
X135160256Y-89554498D01*
X135160254Y-89554499D01*
X135041880Y-89603531D01*
X135041873Y-89603535D01*
X134935327Y-89674727D01*
X134844727Y-89765327D01*
X134773535Y-89871873D01*
X134773531Y-89871880D01*
X134724499Y-89990254D01*
X134724498Y-89990256D01*
X134699500Y-90115927D01*
X129800000Y-90115927D01*
X129800000Y-89149000D01*
X129819962Y-89074500D01*
X129874500Y-89019962D01*
X129949000Y-89000000D01*
X144972394Y-89000000D01*
X145046894Y-89019962D01*
G37*
%TD.AperFunction*%
%TD*%
M02*
