M48
; DRILL file {KiCad 8.0.2-1} date 2024-05-30T11:00:18+0900
; FORMAT={-:-/ absolute / metric / decimal}
; #@! TF.CreationDate,2024-05-30T11:00:18+09:00
; #@! TF.GenerationSoftware,Kicad,Pcbnew,8.0.2-1
; #@! TF.FileFunction,Plated,1,6,PTH
FMAT,2
METRIC
; #@! TA.AperFunction,Plated,PTH,ViaDrill
T1C0.200
; #@! TA.AperFunction,Plated,PTH,ViaDrill
T2C0.250
; #@! TA.AperFunction,Plated,PTH,ComponentDrill
T3C0.600
; #@! TA.AperFunction,Plated,PTH,ComponentDrill
T4C0.650
%
G90
G05
T1
X135.0Y-97.0
X137.25Y-97.44
X137.275Y-95.33
X139.19Y-92.61
X139.286Y-97.345
X139.8Y-102.19
X140.43Y-102.19
X142.075Y-95.33
X145.5Y-105.3
X145.52Y-94.89
X145.525Y-89.5
X145.6Y-104.44
X147.1Y-89.5
X147.2Y-91.92
X147.38Y-98.33
X148.0Y-97.0
X148.12Y-107.26
X148.5Y-91.6
X149.0Y-104.0
X149.15Y-108.28
X149.22Y-96.5
X149.61Y-101.04
X149.62Y-100.02
X150.5Y-91.6
X151.34Y-97.54
X152.74Y-101.52
X153.03Y-96.02
X153.031Y-90.835
X153.1Y-89.4
X154.0Y-100.0
X154.406Y-104.6
X154.42Y-91.0
X154.6Y-89.4
X155.22Y-98.05
X156.0Y-90.0
X156.1Y-100.52
X156.147Y-104.325
X156.32Y-102.25
X157.05Y-91.67
X157.3Y-110.1
X157.4Y-104.4
X157.737Y-106.602
X157.737Y-108.262
X158.79Y-99.35
X158.79Y-100.0
X158.79Y-103.25
X159.1Y-94.53
X159.44Y-102.6
X159.44Y-103.25
X160.0Y-90.0
X160.0Y-93.0
X160.09Y-98.06
X160.09Y-100.0
X160.74Y-99.35
X160.74Y-101.3
X161.39Y-98.7
X162.0Y-110.0
X162.04Y-98.7
X165.0Y-90.0
X165.0Y-110.0
T2
X149.62Y-92.67
T4
X134.45Y-107.87
X135.0Y-98.825
X135.0Y-100.095
X135.0Y-101.365
X135.0Y-102.635
X135.0Y-103.905
X135.0Y-105.175
X135.72Y-107.87
X160.22Y-106.23
X160.22Y-107.5
X160.22Y-108.77
X160.22Y-110.04
X161.265Y-90.16
X162.535Y-90.16
X163.805Y-90.16
T3
G00X135.35Y-90.18
M15
G01X135.35Y-90.98
M16
G05
G00X135.35Y-94.2
M15
G01X135.35Y-95.3
M16
G05
G00X144.0Y-90.18
M15
G01X144.0Y-90.98
M16
G05
G00X144.0Y-94.2
M15
G01X144.0Y-95.3
M16
G05
M30
