%TF.GenerationSoftware,KiCad,Pcbnew,8.0.2-1*%
%TF.CreationDate,2024-06-13T15:13:00+09:00*%
%TF.ProjectId,eeg,6565672e-6b69-4636-9164-5f7063625858,rev?*%
%TF.SameCoordinates,Original*%
%TF.FileFunction,Soldermask,Top*%
%TF.FilePolarity,Negative*%
%FSLAX46Y46*%
G04 Gerber Fmt 4.6, Leading zero omitted, Abs format (unit mm)*
G04 Created by KiCad (PCBNEW 8.0.2-1) date 2024-06-13 15:13:00*
%MOMM*%
%LPD*%
G01*
G04 APERTURE LIST*
G04 Aperture macros list*
%AMRoundRect*
0 Rectangle with rounded corners*
0 $1 Rounding radius*
0 $2 $3 $4 $5 $6 $7 $8 $9 X,Y pos of 4 corners*
0 Add a 4 corners polygon primitive as box body*
4,1,4,$2,$3,$4,$5,$6,$7,$8,$9,$2,$3,0*
0 Add four circle primitives for the rounded corners*
1,1,$1+$1,$2,$3*
1,1,$1+$1,$4,$5*
1,1,$1+$1,$6,$7*
1,1,$1+$1,$8,$9*
0 Add four rect primitives between the rounded corners*
20,1,$1+$1,$2,$3,$4,$5,0*
20,1,$1+$1,$4,$5,$6,$7,0*
20,1,$1+$1,$6,$7,$8,$9,0*
20,1,$1+$1,$8,$9,$2,$3,0*%
G04 Aperture macros list end*
%ADD10R,1.700000X1.700000*%
%ADD11O,1.700000X1.700000*%
%ADD12RoundRect,0.140000X0.170000X-0.140000X0.170000X0.140000X-0.170000X0.140000X-0.170000X-0.140000X0*%
%ADD13RoundRect,0.140000X-0.140000X-0.170000X0.140000X-0.170000X0.140000X0.170000X-0.140000X0.170000X0*%
%ADD14RoundRect,0.135000X-0.135000X-0.185000X0.135000X-0.185000X0.135000X0.185000X-0.135000X0.185000X0*%
%ADD15RoundRect,0.140000X0.140000X0.170000X-0.140000X0.170000X-0.140000X-0.170000X0.140000X-0.170000X0*%
%ADD16R,1.475000X0.300000*%
%ADD17R,0.300000X1.475000*%
%ADD18RoundRect,0.250000X-0.475000X0.250000X-0.475000X-0.250000X0.475000X-0.250000X0.475000X0.250000X0*%
%ADD19RoundRect,0.135000X0.185000X-0.135000X0.185000X0.135000X-0.185000X0.135000X-0.185000X-0.135000X0*%
%ADD20RoundRect,0.140000X-0.170000X0.140000X-0.170000X-0.140000X0.170000X-0.140000X0.170000X0.140000X0*%
%ADD21C,0.889000*%
%ADD22O,1.000000X1.000000*%
%ADD23R,1.000000X1.000000*%
%ADD24O,1.104000X1.904000*%
%ADD25O,1.104000X2.204000*%
%ADD26C,0.600000*%
G04 APERTURE END LIST*
D10*
%TO.C,J2*%
X156300000Y-112600000D03*
D11*
X158840000Y-112600000D03*
X161380000Y-112600000D03*
X163920000Y-112600000D03*
%TD*%
D12*
%TO.C,C29*%
X141520000Y-94250000D03*
X141520000Y-93290000D03*
%TD*%
D13*
%TO.C,C42*%
X141720000Y-99600000D03*
X142680000Y-99600000D03*
%TD*%
D12*
%TO.C,C35*%
X139030000Y-94250000D03*
X139030000Y-93290000D03*
%TD*%
D13*
%TO.C,C43*%
X137300000Y-99200000D03*
X138260000Y-99200000D03*
%TD*%
%TO.C,C30*%
X156320000Y-91800000D03*
X157280000Y-91800000D03*
%TD*%
D14*
%TO.C,R6*%
X137490000Y-103200000D03*
X138510000Y-103200000D03*
%TD*%
D11*
%TO.C,J1*%
X165255000Y-90300000D03*
X162715000Y-90300000D03*
D10*
X160175000Y-90300000D03*
%TD*%
D14*
%TO.C,R10*%
X137290000Y-98000000D03*
X138310000Y-98000000D03*
%TD*%
D15*
%TO.C,C21*%
X150940000Y-109330000D03*
X149980000Y-109330000D03*
%TD*%
D16*
%TO.C,IC3*%
X146012000Y-96250000D03*
X146012000Y-96750000D03*
X146012000Y-97250000D03*
X146012000Y-97750000D03*
X146012000Y-98250000D03*
X146012000Y-98750000D03*
X146012000Y-99250000D03*
X146012000Y-99750000D03*
X146012000Y-100250000D03*
X146012000Y-100750000D03*
X146012000Y-101250000D03*
X146012000Y-101750000D03*
X146012000Y-102250000D03*
X146012000Y-102750000D03*
X146012000Y-103250000D03*
X146012000Y-103750000D03*
D17*
X148000000Y-105738000D03*
X148500000Y-105738000D03*
X149000000Y-105738000D03*
X149500000Y-105738000D03*
X150000000Y-105738000D03*
X150500000Y-105738000D03*
X151000000Y-105738000D03*
X151500000Y-105738000D03*
X152000000Y-105738000D03*
X152500000Y-105738000D03*
X153000000Y-105738000D03*
X153500000Y-105738000D03*
X154000000Y-105738000D03*
X154500000Y-105738000D03*
X155000000Y-105738000D03*
X155500000Y-105738000D03*
D16*
X157488000Y-103750000D03*
X157488000Y-103250000D03*
X157488000Y-102750000D03*
X157488000Y-102250000D03*
X157488000Y-101750000D03*
X157488000Y-101250000D03*
X157488000Y-100750000D03*
X157488000Y-100250000D03*
X157488000Y-99750000D03*
X157488000Y-99250000D03*
X157488000Y-98750000D03*
X157488000Y-98250000D03*
X157488000Y-97750000D03*
X157488000Y-97250000D03*
X157488000Y-96750000D03*
X157488000Y-96250000D03*
D17*
X155500000Y-94262000D03*
X155000000Y-94262000D03*
X154500000Y-94262000D03*
X154000000Y-94262000D03*
X153500000Y-94262000D03*
X153000000Y-94262000D03*
X152500000Y-94262000D03*
X152000000Y-94262000D03*
X151500000Y-94262000D03*
X151000000Y-94262000D03*
X150500000Y-94262000D03*
X150000000Y-94262000D03*
X149500000Y-94262000D03*
X149000000Y-94262000D03*
X148500000Y-94262000D03*
X148000000Y-94262000D03*
%TD*%
D12*
%TO.C,C28*%
X140480000Y-94250000D03*
X140480000Y-93290000D03*
%TD*%
D15*
%TO.C,C33*%
X148680000Y-108800000D03*
X147720000Y-108800000D03*
%TD*%
D18*
%TO.C,C24*%
X153800000Y-108050000D03*
X153800000Y-109950000D03*
%TD*%
D19*
%TO.C,R4*%
X144260000Y-97670000D03*
X144260000Y-96650000D03*
%TD*%
D14*
%TO.C,R8*%
X141690000Y-100800000D03*
X142710000Y-100800000D03*
%TD*%
D12*
%TO.C,C25*%
X152520000Y-91960000D03*
X152520000Y-91000000D03*
%TD*%
D20*
%TO.C,C23*%
X152040000Y-108320000D03*
X152040000Y-109280000D03*
%TD*%
D14*
%TO.C,R7*%
X137490000Y-102000000D03*
X138510000Y-102000000D03*
%TD*%
D20*
%TO.C,C27*%
X155740000Y-108320000D03*
X155740000Y-109280000D03*
%TD*%
D12*
%TO.C,C20*%
X143200000Y-97620000D03*
X143200000Y-96660000D03*
%TD*%
D13*
%TO.C,C41*%
X137520000Y-104400000D03*
X138480000Y-104400000D03*
%TD*%
D20*
%TO.C,C32*%
X159200000Y-92720000D03*
X159200000Y-93680000D03*
%TD*%
D12*
%TO.C,C37*%
X138000000Y-94250000D03*
X138000000Y-93290000D03*
%TD*%
D13*
%TO.C,C39*%
X137500000Y-100800000D03*
X138460000Y-100800000D03*
%TD*%
%TO.C,C40*%
X140320000Y-96200000D03*
X141280000Y-96200000D03*
%TD*%
D12*
%TO.C,C26*%
X151480000Y-91960000D03*
X151480000Y-91000000D03*
%TD*%
D14*
%TO.C,R9*%
X140310000Y-97200000D03*
X141330000Y-97200000D03*
%TD*%
D13*
%TO.C,C22*%
X149980000Y-108340000D03*
X150940000Y-108340000D03*
%TD*%
%TO.C,C38*%
X140100000Y-105200000D03*
X141060000Y-105200000D03*
%TD*%
D12*
%TO.C,C31*%
X146490000Y-108940000D03*
X146490000Y-107980000D03*
%TD*%
D15*
%TO.C,C34*%
X154480000Y-91200000D03*
X153520000Y-91200000D03*
%TD*%
D10*
%TO.C,J4*%
X131100000Y-106950000D03*
D11*
X131100000Y-104410000D03*
X131100000Y-101870000D03*
X131100000Y-99330000D03*
X131100000Y-96790000D03*
X131100000Y-94250000D03*
%TD*%
D14*
%TO.C,R5*%
X140090000Y-104000000D03*
X141110000Y-104000000D03*
%TD*%
D20*
%TO.C,C36*%
X149620000Y-91710000D03*
X149620000Y-92670000D03*
%TD*%
D21*
%TO.C,SW1*%
X140400000Y-109400000D03*
X143397200Y-109400000D03*
%TD*%
D22*
%TO.C,BT1*%
X134450000Y-107870000D03*
D23*
X135720000Y-107870000D03*
%TD*%
D24*
%TO.C,J3*%
X144000000Y-90580000D03*
X135350000Y-90580000D03*
D25*
X144000000Y-94750000D03*
X135350000Y-94750000D03*
D26*
X142565000Y-94260000D03*
X136785000Y-94260000D03*
%TD*%
M02*
