M48
; DRILL file {KiCad 8.0.2-1} date 2024-05-30T11:00:18+0900
; FORMAT={-:-/ absolute / metric / decimal}
; #@! TF.CreationDate,2024-05-30T11:00:18+09:00
; #@! TF.GenerationSoftware,Kicad,Pcbnew,8.0.2-1
; #@! TF.FileFunction,Plated,5,6,Blind
FMAT,2
METRIC
; #@! TA.AperFunction,Plated,Buried,ViaDrill
T1C0.200
%
G90
G05
T1
X136.475Y-95.33
X138.77Y-100.3
X138.77Y-101.34
X138.8Y-98.8
X138.81Y-103.02
X142.875Y-95.33
X143.33Y-105.44
X143.82Y-99.53
X143.82Y-100.78
X143.82Y-102.04
X145.08Y-99.53
X145.08Y-100.78
X145.08Y-102.04
X146.24Y-91.92
X146.33Y-99.53
X146.33Y-100.78
X146.33Y-102.04
X147.27Y-104.44
X149.61Y-102.0
X149.62Y-99.06
X149.65Y-98.07
X150.5Y-89.9
X150.62Y-103.2
X152.065Y-90.84
X155.25Y-96.99
X155.95Y-107.1
X156.1Y-101.48
X157.737Y-105.642
X157.737Y-109.222
X158.89Y-97.3
X158.89Y-104.0
X160.06Y-94.53
X160.06Y-95.57
X161.39Y-101.3
X162.04Y-97.4
X162.04Y-100.65
X162.04Y-102.6
X162.04Y-103.9
M30
