%TF.GenerationSoftware,KiCad,Pcbnew,8.0.2-1*%
%TF.CreationDate,2024-06-13T15:13:00+09:00*%
%TF.ProjectId,eeg,6565672e-6b69-4636-9164-5f7063625858,rev?*%
%TF.SameCoordinates,Original*%
%TF.FileFunction,Other,User*%
%FSLAX46Y46*%
G04 Gerber Fmt 4.6, Leading zero omitted, Abs format (unit mm)*
G04 Created by KiCad (PCBNEW 8.0.2-1) date 2024-06-13 15:13:00*
%MOMM*%
%LPD*%
G01*
G04 APERTURE LIST*
%ADD10C,0.050000*%
G04 APERTURE END LIST*
D10*
%TO.C,J2*%
X154500000Y-110800000D02*
X154500000Y-114400000D01*
X154500000Y-114400000D02*
X165700000Y-114400000D01*
X165700000Y-110800000D02*
X154500000Y-110800000D01*
X165700000Y-114400000D02*
X165700000Y-110800000D01*
%TO.C,C29*%
X141060000Y-92860000D02*
X141980000Y-92860000D01*
X141060000Y-94680000D02*
X141060000Y-92860000D01*
X141980000Y-92860000D02*
X141980000Y-94680000D01*
X141980000Y-94680000D02*
X141060000Y-94680000D01*
%TO.C,C42*%
X141290000Y-99140000D02*
X143110000Y-99140000D01*
X141290000Y-100060000D02*
X141290000Y-99140000D01*
X143110000Y-99140000D02*
X143110000Y-100060000D01*
X143110000Y-100060000D02*
X141290000Y-100060000D01*
%TO.C,C35*%
X138570000Y-92860000D02*
X139490000Y-92860000D01*
X138570000Y-94680000D02*
X138570000Y-92860000D01*
X139490000Y-92860000D02*
X139490000Y-94680000D01*
X139490000Y-94680000D02*
X138570000Y-94680000D01*
%TO.C,C43*%
X136870000Y-98740000D02*
X138690000Y-98740000D01*
X136870000Y-99660000D02*
X136870000Y-98740000D01*
X138690000Y-98740000D02*
X138690000Y-99660000D01*
X138690000Y-99660000D02*
X136870000Y-99660000D01*
%TO.C,C30*%
X155890000Y-91340000D02*
X157710000Y-91340000D01*
X155890000Y-92260000D02*
X155890000Y-91340000D01*
X157710000Y-91340000D02*
X157710000Y-92260000D01*
X157710000Y-92260000D02*
X155890000Y-92260000D01*
%TO.C,R6*%
X137070000Y-102730000D02*
X138930000Y-102730000D01*
X137070000Y-103670000D02*
X137070000Y-102730000D01*
X138930000Y-102730000D02*
X138930000Y-103670000D01*
X138930000Y-103670000D02*
X137070000Y-103670000D01*
%TO.C,J1*%
X167025000Y-92100000D02*
X167025000Y-88500000D01*
X167025000Y-88500000D02*
X158375000Y-88500000D01*
X158375000Y-92100000D02*
X167025000Y-92100000D01*
X158375000Y-88500000D02*
X158375000Y-92100000D01*
%TO.C,R10*%
X136870000Y-97530000D02*
X138730000Y-97530000D01*
X136870000Y-98470000D02*
X136870000Y-97530000D01*
X138730000Y-97530000D02*
X138730000Y-98470000D01*
X138730000Y-98470000D02*
X136870000Y-98470000D01*
%TO.C,C21*%
X149550000Y-108870000D02*
X151370000Y-108870000D01*
X149550000Y-109790000D02*
X149550000Y-108870000D01*
X151370000Y-108870000D02*
X151370000Y-109790000D01*
X151370000Y-109790000D02*
X149550000Y-109790000D01*
%TO.C,IC3*%
X145025000Y-93275000D02*
X158475000Y-93275000D01*
X145025000Y-106725000D02*
X145025000Y-93275000D01*
X158475000Y-93275000D02*
X158475000Y-106725000D01*
X158475000Y-106725000D02*
X145025000Y-106725000D01*
%TO.C,C28*%
X140020000Y-92860000D02*
X140940000Y-92860000D01*
X140020000Y-94680000D02*
X140020000Y-92860000D01*
X140940000Y-92860000D02*
X140940000Y-94680000D01*
X140940000Y-94680000D02*
X140020000Y-94680000D01*
%TO.C,C33*%
X147290000Y-108340000D02*
X149110000Y-108340000D01*
X147290000Y-109260000D02*
X147290000Y-108340000D01*
X149110000Y-108340000D02*
X149110000Y-109260000D01*
X149110000Y-109260000D02*
X147290000Y-109260000D01*
%TO.C,C24*%
X152820000Y-107300000D02*
X154780000Y-107300000D01*
X152820000Y-110700000D02*
X152820000Y-107300000D01*
X154780000Y-107300000D02*
X154780000Y-110700000D01*
X154780000Y-110700000D02*
X152820000Y-110700000D01*
%TO.C,R4*%
X143790000Y-96230000D02*
X144730000Y-96230000D01*
X143790000Y-98090000D02*
X143790000Y-96230000D01*
X144730000Y-96230000D02*
X144730000Y-98090000D01*
X144730000Y-98090000D02*
X143790000Y-98090000D01*
%TO.C,R8*%
X141270000Y-100330000D02*
X143130000Y-100330000D01*
X141270000Y-101270000D02*
X141270000Y-100330000D01*
X143130000Y-100330000D02*
X143130000Y-101270000D01*
X143130000Y-101270000D02*
X141270000Y-101270000D01*
%TO.C,C25*%
X152060000Y-90570000D02*
X152980000Y-90570000D01*
X152060000Y-92390000D02*
X152060000Y-90570000D01*
X152980000Y-90570000D02*
X152980000Y-92390000D01*
X152980000Y-92390000D02*
X152060000Y-92390000D01*
%TO.C,C23*%
X151580000Y-107890000D02*
X152500000Y-107890000D01*
X151580000Y-109710000D02*
X151580000Y-107890000D01*
X152500000Y-107890000D02*
X152500000Y-109710000D01*
X152500000Y-109710000D02*
X151580000Y-109710000D01*
%TO.C,R7*%
X137070000Y-101530000D02*
X138930000Y-101530000D01*
X137070000Y-102470000D02*
X137070000Y-101530000D01*
X138930000Y-101530000D02*
X138930000Y-102470000D01*
X138930000Y-102470000D02*
X137070000Y-102470000D01*
%TO.C,C27*%
X155280000Y-107890000D02*
X156200000Y-107890000D01*
X155280000Y-109710000D02*
X155280000Y-107890000D01*
X156200000Y-107890000D02*
X156200000Y-109710000D01*
X156200000Y-109710000D02*
X155280000Y-109710000D01*
%TO.C,C20*%
X142740000Y-96230000D02*
X143660000Y-96230000D01*
X142740000Y-98050000D02*
X142740000Y-96230000D01*
X143660000Y-96230000D02*
X143660000Y-98050000D01*
X143660000Y-98050000D02*
X142740000Y-98050000D01*
%TO.C,C41*%
X137090000Y-103940000D02*
X138910000Y-103940000D01*
X137090000Y-104860000D02*
X137090000Y-103940000D01*
X138910000Y-103940000D02*
X138910000Y-104860000D01*
X138910000Y-104860000D02*
X137090000Y-104860000D01*
%TO.C,C32*%
X158740000Y-92290000D02*
X159660000Y-92290000D01*
X158740000Y-94110000D02*
X158740000Y-92290000D01*
X159660000Y-92290000D02*
X159660000Y-94110000D01*
X159660000Y-94110000D02*
X158740000Y-94110000D01*
%TO.C,C37*%
X137540000Y-92860000D02*
X138460000Y-92860000D01*
X137540000Y-94680000D02*
X137540000Y-92860000D01*
X138460000Y-92860000D02*
X138460000Y-94680000D01*
X138460000Y-94680000D02*
X137540000Y-94680000D01*
%TO.C,C39*%
X137070000Y-100340000D02*
X138890000Y-100340000D01*
X137070000Y-101260000D02*
X137070000Y-100340000D01*
X138890000Y-100340000D02*
X138890000Y-101260000D01*
X138890000Y-101260000D02*
X137070000Y-101260000D01*
%TO.C,C40*%
X139890000Y-95740000D02*
X141710000Y-95740000D01*
X139890000Y-96660000D02*
X139890000Y-95740000D01*
X141710000Y-95740000D02*
X141710000Y-96660000D01*
X141710000Y-96660000D02*
X139890000Y-96660000D01*
%TO.C,C26*%
X151020000Y-90570000D02*
X151940000Y-90570000D01*
X151020000Y-92390000D02*
X151020000Y-90570000D01*
X151940000Y-90570000D02*
X151940000Y-92390000D01*
X151940000Y-92390000D02*
X151020000Y-92390000D01*
%TO.C,R9*%
X139890000Y-96730000D02*
X141750000Y-96730000D01*
X139890000Y-97670000D02*
X139890000Y-96730000D01*
X141750000Y-96730000D02*
X141750000Y-97670000D01*
X141750000Y-97670000D02*
X139890000Y-97670000D01*
%TO.C,C22*%
X149550000Y-107880000D02*
X151370000Y-107880000D01*
X149550000Y-108800000D02*
X149550000Y-107880000D01*
X151370000Y-107880000D02*
X151370000Y-108800000D01*
X151370000Y-108800000D02*
X149550000Y-108800000D01*
%TO.C,C38*%
X139670000Y-104740000D02*
X141490000Y-104740000D01*
X139670000Y-105660000D02*
X139670000Y-104740000D01*
X141490000Y-104740000D02*
X141490000Y-105660000D01*
X141490000Y-105660000D02*
X139670000Y-105660000D01*
%TO.C,C31*%
X146030000Y-107550000D02*
X146950000Y-107550000D01*
X146030000Y-109370000D02*
X146030000Y-107550000D01*
X146950000Y-107550000D02*
X146950000Y-109370000D01*
X146950000Y-109370000D02*
X146030000Y-109370000D01*
%TO.C,C34*%
X153090000Y-90740000D02*
X154910000Y-90740000D01*
X153090000Y-91660000D02*
X153090000Y-90740000D01*
X154910000Y-90740000D02*
X154910000Y-91660000D01*
X154910000Y-91660000D02*
X153090000Y-91660000D01*
%TO.C,J4*%
X129300000Y-92450000D02*
X129300000Y-108750000D01*
X129300000Y-108750000D02*
X132900000Y-108750000D01*
X132900000Y-92450000D02*
X129300000Y-92450000D01*
X132900000Y-108750000D02*
X132900000Y-92450000D01*
%TO.C,R5*%
X139670000Y-103530000D02*
X141530000Y-103530000D01*
X139670000Y-104470000D02*
X139670000Y-103530000D01*
X141530000Y-103530000D02*
X141530000Y-104470000D01*
X141530000Y-104470000D02*
X139670000Y-104470000D01*
%TO.C,C36*%
X149160000Y-91280000D02*
X150080000Y-91280000D01*
X149160000Y-93100000D02*
X149160000Y-91280000D01*
X150080000Y-91280000D02*
X150080000Y-93100000D01*
X150080000Y-93100000D02*
X149160000Y-93100000D01*
%TD*%
M02*
